<svg width="164" height="186" viewBox="0 0 164 186" fill="none" xmlns="http://www.w3.org/2000/svg">
<path d="M95.0898 73.0906L130.396 70.1013L128.376 99.1863L97.6752 101.206L95.0898 73.0906Z" fill="white"/>
<path d="M129.75 70.8284L127.731 98.6208L98.1607 100.56L95.6562 73.6561L129.75 70.8284ZM131.043 69.455L94.4443 72.6059L97.1105 101.852L128.862 99.7519L131.043 69.455Z" fill="#1B1C29"/>
<path d="M108.582 94.8236C108.259 94.8236 108.016 94.5812 108.016 94.2581L106.966 86.0173L103.25 84.8054C102.927 84.7246 102.765 84.3207 102.846 84.0783C102.927 83.8359 103.331 83.5936 103.573 83.6744L107.936 85.1286L109.067 94.0965C109.228 94.5004 108.986 94.8236 108.582 94.8236C108.663 94.8236 108.663 94.8236 108.582 94.8236Z" fill="#1B1C29"/>
<path d="M49.5243 60.5679L41.6875 92.8846L21.8936 105.165L31.8309 69.2126L32.7196 68.8086L37.7287 66.3041L38.6174 65.9002L49.5243 60.5679Z" fill="#6045AF"/>
<path d="M91.5351 104.599H32.0724L30.6182 102.176L46.0494 92.8038L74.0033 75.7568L84.4254 92.8038L91.5351 104.599Z" fill="white"/>
<path d="M73.7612 76.5647L84.0218 93.4501L90.4851 103.953H32.4767L31.5072 102.337L45.4841 93.7733L73.7612 76.5647ZM74.1652 74.868L44.8378 92.8038L29.8105 102.014L31.7495 105.246H92.6665L85.1529 92.8846L74.1652 74.868Z" fill="#1B1C29"/>
<path d="M49.0392 98.7824C48.7968 98.7824 48.6352 98.7016 48.5544 98.4592C48.3928 98.1361 48.4736 97.8129 48.7968 97.6513L70.6106 84.3207C70.9337 84.1591 71.2569 84.2399 71.4185 84.4823C71.5801 84.8055 71.4993 85.1286 71.1761 85.2902L49.3623 98.6208C49.2008 98.7016 49.1199 98.7824 49.0392 98.7824Z" fill="#1B1C29"/>
<path d="M52.9171 105.246C52.6747 105.246 52.5131 105.165 52.4324 104.923C52.2708 104.599 52.3516 104.276 52.6747 104.115L74.4885 90.784C74.8117 90.6224 75.1348 90.7032 75.2964 90.9456C75.458 91.188 75.3772 91.5919 75.054 91.7535L53.2403 105.084C53.1595 105.165 53.0787 105.246 52.9171 105.246Z" fill="#1B1C29"/>
<path d="M93.1515 22.111C98.3222 20.4952 113.43 16.5364 126.276 38.027C139.203 59.5176 131.043 78.0189 131.043 78.0189L92.3436 76.0799C92.3436 76.0799 91.1318 54.2661 87.6577 40.2892C86.9306 37.2191 84.9108 24.6963 93.1515 22.111Z" fill="#1B1C29"/>
<path d="M33.2847 67.8391C32.9615 62.6684 34.9006 54.1853 41.6871 45.783C46.1306 48.1259 50.4126 50.7921 54.0482 53.135C51.3821 55.882 49.7662 58.548 49.0391 60.1639L33.2847 67.8391Z" fill="white"/>
<path d="M41.849 46.5101C45.8885 48.6915 49.7665 51.0344 53.1598 53.2158C50.8168 55.7203 49.3626 58.1441 48.6355 59.6791L33.8506 66.9504C33.7698 61.9413 35.7896 54.2661 41.849 46.5101ZM41.5258 44.975C34.2546 53.8621 32.0732 63.0724 32.8003 68.8086L49.605 60.5678C50.3321 58.952 52.0287 55.9627 55.0988 53.0542C50.5745 50.1457 46.1309 47.3988 41.5258 44.975Z" fill="#1B1C29"/>
<path d="M45.7272 37.7038C42.4955 40.8547 37.7288 46.3485 35.709 50.9537C40.4757 52.8927 49.8475 56.6091 54.5334 58.7096C56.2301 56.3667 63.5821 49.8225 67.2985 47.6412C79.2557 40.6123 94.0406 37.0575 94.0406 37.0575L95.8988 20.6568C79.4173 19.2025 59.7041 24.1308 45.7272 37.7038Z" fill="#1B1C29"/>
<path d="M87.4961 37.8654C87.173 37.8654 86.9306 37.623 86.9306 37.2998L86.3651 32.6139C86.2843 32.2907 86.5267 31.9676 86.9306 31.9676C87.2538 31.9676 87.577 32.1292 87.577 32.5331L88.1425 37.2191C88.1425 37.5422 87.9001 37.7846 87.4961 37.8654Z" fill="white"/>
<path d="M39.9922 61.6182C45.1629 58.6289 44.8397 66.3041 44.8397 66.3041C44.8397 66.3041 42.5775 71.3132 45.8092 72.0403C47.829 72.525 52.5957 62.3453 48.9601 56.8514" fill="white"/>
<path d="M46.0507 72.6866C45.9699 72.6866 45.8891 72.6866 45.7275 72.6866C44.8388 72.4442 44.1925 71.9595 43.8693 71.2323C42.9806 69.4549 44.0309 66.7888 44.2733 66.2232C44.2733 65.173 44.1117 62.5068 42.8998 61.7797C42.3343 61.4565 41.4456 61.5373 40.3145 62.1837C39.9913 62.3452 39.6682 62.2645 39.5066 61.9413C39.345 61.6181 39.4258 61.295 39.7489 61.1334C41.284 60.2447 42.4959 60.1639 43.5462 60.7294C45.6467 62.0221 45.566 65.9001 45.566 66.3848V66.4657L45.4851 66.5464C45.162 67.2736 44.4349 69.4549 45.0004 70.6668C45.162 71.0707 45.5659 71.3131 46.0507 71.4747C46.1315 71.4747 46.7778 71.2324 47.5857 69.7781C49.444 66.708 50.8982 60.8102 48.5553 57.2554C48.3937 57.013 48.4744 56.609 48.7168 56.4475C48.9592 56.2859 49.3631 56.3667 49.5247 56.6091C52.5948 61.1334 50.1711 68.243 48.2321 71.0707C47.4242 72.2018 46.697 72.6866 46.0507 72.6866Z" fill="#1B1C29"/>
<path d="M139.85 92.8038L128.944 99.7519L120.38 105.165H21.8945L41.3653 92.8038H46.0512L30.62 102.176L32.0743 104.599H91.537L84.4273 92.8038H139.85Z" fill="#1B1C29"/>
<path d="M120.298 105.165H21.8936V185.068H120.298V105.165Z" fill="#6045AF"/>
<path d="M139.849 172.707L120.298 185.068V105.165L139.849 92.8038V172.707Z" fill="#6045AF"/>
<path d="M120.298 181.271C119.975 181.271 119.651 181.028 119.651 180.624V110.74C119.651 110.416 119.894 110.093 120.298 110.093C120.702 110.093 120.944 110.336 120.944 110.74V180.624C120.944 180.948 120.702 181.271 120.298 181.271Z" fill="white"/>
<path d="M51.948 105.165V105.327C51.948 126.252 38.6174 136.27 21.8936 136.835V105.246H51.948V105.165Z" fill="#1B1C29"/>
<path d="M43.7071 132.634L36.8398 138.128L45.323 141.925L43.7071 132.634Z" fill="#1B1C29"/>
<path d="M108.664 122.778H60.4316V127.625H108.664V122.778Z" fill="white"/>
<path d="M89.3548 136.755H80.9525C79.983 136.755 79.2559 135.947 79.2559 135.058C79.2559 134.088 80.0638 133.361 80.9525 133.361H89.3548C90.3243 133.361 91.0514 134.169 91.0514 135.058C91.1322 136.027 90.3243 136.755 89.3548 136.755Z" fill="#1B1C29"/>
<path d="M98.5644 136.755H95.7366C94.7671 136.755 94.04 135.947 94.04 135.058C94.04 134.088 94.8479 133.361 95.7366 133.361H98.5644C99.5339 133.361 100.261 134.169 100.261 135.058C100.342 136.027 99.5339 136.755 98.5644 136.755Z" fill="#1B1C29"/>
<path d="M106.886 136.755H103.978C103.008 136.755 102.281 135.947 102.281 135.058C102.281 134.088 103.089 133.361 103.978 133.361H106.806C107.775 133.361 108.502 134.169 108.502 135.058C108.583 136.027 107.856 136.755 106.886 136.755Z" fill="#1B1C29"/>
<path d="M78.6893 154.933H22.5391V184.422H78.6893V154.933Z" fill="white"/>
<path d="M78.0438 155.579V183.856H23.1054V155.579H78.0438ZM79.2557 154.367H21.8936V185.068H79.2557V154.367Z" fill="#1B1C29"/>
<path d="M61.481 184.341C61.3195 184.341 61.2387 184.341 61.1579 184.26L22.7818 156.225C22.5394 156.064 22.4586 155.66 22.6202 155.417C22.7818 155.175 23.1857 155.094 23.4281 155.256L61.8042 183.291C62.0466 183.452 62.1274 183.856 61.9658 184.098C61.885 184.26 61.6426 184.341 61.481 184.341Z" fill="#1B1C29"/>
<path d="M39.587 184.341C39.4254 184.341 39.183 184.26 39.1022 184.099C38.9406 183.856 38.9407 183.452 39.2638 183.291L77.3167 155.256C77.5591 155.094 77.963 155.094 78.1246 155.417C78.2862 155.66 78.2862 156.064 77.963 156.225L39.9101 184.26C39.8294 184.341 39.7485 184.341 39.587 184.341Z" fill="#1B1C29"/>
<path d="M147.282 116.88H144.131V151.216H147.282V116.88Z" fill="#1B1C29"/>
<path d="M73.5197 70.99C73.4389 70.99 73.4389 70.99 73.3581 70.99C73.035 70.9092 72.8734 70.586 72.9542 70.2628L74.0045 66.2233C74.0853 65.9001 74.4084 65.7385 74.7316 65.8193C75.0548 65.9001 75.2164 66.2233 75.1356 66.5464L74.0853 70.586C74.0853 70.8284 73.8429 70.99 73.5197 70.99Z" fill="#6045AF"/>
<path d="M15.6729 85.2902L8.48242 89.8953L16.1576 93.2885L15.6729 85.2902Z" fill="#1B1C29"/>
<path d="M63.3646 75.4693L58.623 70.7277L53.8814 75.4693L58.623 80.2109L63.3646 75.4693Z" fill="#1B1C29"/>
<path d="M77.6403 100.964C77.4787 100.964 77.3979 100.883 77.2363 100.802L74.651 98.54C74.4086 98.2976 74.3278 97.9745 74.5702 97.6513C74.8125 97.4089 75.1357 97.3282 75.4589 97.5705L78.0442 99.8327C78.2866 100.075 78.3674 100.398 78.125 100.721C77.9634 100.883 77.8019 100.964 77.6403 100.964Z" fill="#6045AF"/>
<path d="M68.1066 71.5556C67.945 71.5556 67.7027 71.4747 67.6219 71.2324L63.3399 64.4459C63.1783 64.1227 63.2591 63.7996 63.5015 63.638C63.8247 63.4764 64.1478 63.5571 64.3094 63.7995L68.5914 70.586C68.753 70.9092 68.6722 71.2324 68.4298 71.394C68.349 71.5555 68.2682 71.5556 68.1066 71.5556Z" fill="#6045AF"/>
<path d="M97.1922 66.2233C97.0306 66.2233 96.869 66.1425 96.7882 66.0618C96.5459 65.8194 96.5459 65.4154 96.7882 65.173L101.878 60.0831C102.121 59.8408 102.524 59.8408 102.767 60.0831C103.009 60.3255 103.009 60.7295 102.767 60.9718L97.677 66.0618C97.4346 66.2233 97.273 66.2233 97.1922 66.2233Z" fill="#E4E4EF"/>
<path d="M87.4971 80.685C87.1739 80.685 86.9316 80.4426 86.9316 80.1195L86.6084 77.0494C86.6084 76.7262 86.8508 76.4031 87.174 76.4031C87.4971 76.4031 87.8203 76.6455 87.8203 76.9686L88.1435 80.0387C88.1435 80.3619 87.901 80.6042 87.4971 80.685Z" fill="#6045AF"/>
<path d="M105.433 72.6059L109.472 69.455L110.28 74.868L105.433 72.6059Z" fill="#F2F2F9"/>
<path d="M74.8125 53.7814L79.256 51.196L79.4176 57.0131L74.8125 53.7814Z" fill="#6045AF"/>
<path d="M49.5243 85.8557C49.4435 85.8557 49.4435 85.8557 49.3627 85.8557C49.0396 85.7749 48.7972 85.4517 48.878 85.1286L49.9282 80.6043C50.009 80.2811 50.3322 80.0387 50.6554 80.1195C50.9786 80.2003 51.2209 80.5235 51.1401 80.8466L50.0898 85.3709C50.009 85.6941 49.7667 85.8557 49.5243 85.8557Z" fill="#6045AF"/>
<path d="M91.9404 104.599C97.8382 100.964 105.837 99.1056 115.693 99.1056C118.602 99.1056 121.672 99.2672 124.903 99.5904C125.873 99.6712 126.681 99.8327 127.408 99.9943L120.137 104.599H91.9404Z" fill="white"/>
<path d="M115.693 98.4592V99.6711C118.602 99.6711 121.672 99.8327 124.823 100.156C125.146 100.156 125.469 100.237 125.792 100.237L120.056 103.872H94.2837C99.8583 101.045 107.049 99.5903 115.693 99.5903V98.4592ZM115.693 98.4592C105.837 98.4592 96.7074 100.237 89.9209 105.165H120.379L128.943 99.7519C127.974 99.4287 126.681 99.1863 124.985 98.944C121.834 98.7016 118.764 98.4592 115.693 98.4592Z" fill="#1B1C29"/>
<path d="M26.8228 78.5037H26.742L16.9662 76.7263C16.643 76.6455 16.4007 76.3223 16.4815 75.9992C16.5623 75.676 16.8854 75.4336 17.2086 75.5144L26.9844 77.2918C27.3076 77.3726 27.5499 77.6958 27.4691 78.0189C27.3076 78.2613 27.0652 78.5037 26.8228 78.5037Z" fill="#1B1C29"/>
<path d="M21.006 82.4625H20.9252C20.6021 82.3817 20.3597 82.0585 20.4405 81.7353L22.2179 71.9595C22.2987 71.6364 22.6219 71.394 22.945 71.4748C23.2682 71.5556 23.5106 71.8787 23.4298 72.2019L21.6523 81.9777C21.5715 82.2201 21.3292 82.4625 21.006 82.4625Z" fill="#1B1C29"/>
<path d="M87.4972 98.4593C91.2899 98.4593 94.3645 95.3847 94.3645 91.592C94.3645 87.7993 91.2899 84.7247 87.4972 84.7247C83.7045 84.7247 80.6299 87.7993 80.6299 91.592C80.6299 95.3847 83.7045 98.4593 87.4972 98.4593Z" fill="#E4E4EF"/>
<path d="M33.6909 79.3116L42.9012 87.1484L32.6406 91.8343L33.6909 79.3116Z" fill="white"/>
<path d="M34.1752 80.5235L41.7697 86.9868L33.2866 90.8648L34.1752 80.5235ZM33.2058 78.0997L31.9131 92.8038L44.0318 87.31L33.2058 78.0997Z" fill="#1B1C29"/>
<path d="M147.283 61.5374L127.812 73.9794L120.299 105.327L139.85 92.8846L147.283 61.5374Z" fill="#6045AF"/>
<path d="M122.561 104.357C122.399 104.357 122.157 104.276 122.076 104.115C121.915 103.872 121.995 103.468 122.238 103.307L137.265 93.7733C137.507 93.6117 137.911 93.6926 138.073 93.9349C138.235 94.1773 138.154 94.5813 137.911 94.7428L122.884 104.276C122.723 104.357 122.642 104.357 122.561 104.357Z" fill="white"/>
<path d="M103.413 20.2529C126.681 19.2834 148.333 25.9083 155.847 35.2801C164.088 45.5407 159.887 65.7386 149.788 70.9901C147.283 72.2827 144.455 72.6059 142.92 73.3331C138.234 75.5144 137.184 75.272 135.649 74.0601C135.649 74.0601 131.771 76.4839 130.64 73.4946C130.64 73.4946 129.186 77.2918 126.439 76.3223C123.692 75.3528 127.004 67.8392 134.356 63.9612C141.789 60.0832 145.506 50.3882 141.385 44.5712C137.265 38.7542 111.735 31.6445 111.735 31.6445L103.413 20.2529Z" fill="white"/>
<path d="M127.408 77.1302C127.085 77.1302 126.762 77.0495 126.358 76.9687C125.55 76.7263 125.065 75.9992 124.985 75.0297C124.742 71.9596 128.459 66.4658 134.195 63.4765C138.154 61.3759 141.224 57.4171 142.274 53.1351C143.001 50.0651 142.516 47.1565 140.981 44.9752C136.942 39.4005 111.977 32.3716 111.654 32.2908L111.492 32.2101L102.282 19.6873L103.413 19.6066C126.277 18.6371 148.495 25.1004 156.413 34.8762C160.452 39.9661 161.906 47.8029 160.21 55.882C158.675 63.1533 154.958 68.9703 150.192 71.4748C148.657 72.2827 147.041 72.6867 145.667 73.0907C144.698 73.333 143.89 73.5754 143.324 73.8178C138.881 75.9184 137.427 75.9184 135.73 74.7065C135.003 75.1105 133.306 75.8376 131.933 75.3529C131.529 75.1913 131.125 74.9489 130.882 74.6257C130.075 75.9184 128.943 77.1302 127.408 77.1302ZM112.22 31.1598C114.805 31.8869 137.911 38.5926 141.951 44.2481C143.728 46.6718 144.213 49.9035 143.405 53.3775C142.355 57.9826 138.962 62.2646 134.68 64.5268C129.105 67.4353 125.954 72.5252 126.116 74.9489C126.197 75.676 126.52 75.7568 126.681 75.8376C128.782 76.5647 130.075 73.4139 130.075 73.3331L130.64 71.8788L131.206 73.3331C131.367 73.8986 131.69 74.2217 132.175 74.3025C133.225 74.6257 134.841 73.8986 135.326 73.5754L135.73 73.3331L136.053 73.5754C137.265 74.5449 138.073 74.9489 142.678 72.7675C143.405 72.4444 144.213 72.202 145.183 71.9596C146.556 71.5556 148.091 71.1517 149.465 70.4245C153.908 68.0816 157.463 62.5877 158.917 55.7204C160.533 47.9644 159.24 40.5316 155.362 35.6841C147.849 26.3123 126.601 20.1721 104.544 20.8185L112.22 31.1598Z" fill="#1B1C29"/>
<path d="M141.546 44.652C143.808 47.7221 143.728 52.004 142.112 55.8012C147.363 57.7402 155.281 59.5984 160.371 61.9414C164.33 53.6198 164.41 41.4203 158.189 34.8761C146.071 22.3534 126.842 19.2834 103.574 20.2529L114.562 39.2389C114.481 39.2389 137.345 38.835 141.546 44.652Z" fill="#1B1C29"/>
<path d="M135.487 66.7888C133.386 68.2431 131.69 70.1013 130.559 72.3635C130.316 72.8482 131.043 73.2522 131.286 72.7675C132.417 70.5861 133.952 68.8087 135.972 67.516C136.295 67.1928 135.891 66.4657 135.487 66.7888Z" fill="#1B1C29"/>
<path d="M140.011 68.1623C138.315 69.3742 137.022 70.9092 136.053 72.7675C135.81 73.2522 136.537 73.6562 136.78 73.1714C137.668 71.4748 138.88 70.0205 140.415 68.8895C140.819 68.5663 140.415 67.8392 140.011 68.1623Z" fill="#1B1C29"/>
<path d="M125.792 40.4508C125.711 40.4508 125.711 40.4508 125.631 40.4508L122.318 39.4005C121.995 39.3197 121.833 38.9965 121.914 38.6733C121.995 38.3502 122.318 38.1886 122.641 38.2694L125.954 39.3197C126.277 39.4004 126.438 39.7236 126.358 40.0468C126.277 40.2892 126.035 40.4508 125.792 40.4508Z" fill="#1B1C29"/>
<path d="M13.4932 142.491C13.3316 142.491 13.17 142.41 13.0892 142.329L0.243305 129.483C0.000929639 129.241 0.000929639 128.837 0.243305 128.595C0.48568 128.352 0.889668 128.352 1.13204 128.595L13.9779 141.44C14.2203 141.683 14.2203 142.087 13.9779 142.329C13.8163 142.41 13.6548 142.491 13.4932 142.491Z" fill="#1B1C29"/>
<path d="M0.647263 142.491C0.48568 142.491 0.324097 142.41 0.243305 142.329C0.000929639 142.087 0.000929639 141.683 0.243305 141.44L13.0892 128.595C13.3316 128.352 13.7355 128.352 13.9779 128.595C14.2203 128.837 14.2203 129.241 13.9779 129.483L1.13204 142.329C0.97046 142.41 0.808847 142.491 0.647263 142.491Z" fill="#1B1C29"/>
<path d="M13.4922 153.478H0.646324C0.323157 153.478 0 153.236 0 152.832C0 152.428 0.242365 152.186 0.646324 152.186H13.4922C13.8154 152.186 14.1386 152.428 14.1386 152.832C14.1386 153.236 13.8154 153.478 13.4922 153.478Z" fill="#1B1C29"/>
<path d="M106.484 9.50758C106.241 8.94204 105.918 8.37647 105.514 7.81093C105.514 7.81093 105.514 7.81095 105.514 7.73015C101.798 2.3979 95.0113 0.782064 90.2446 4.09453C87.9824 5.71036 86.6898 8.2149 86.3666 10.9618C85.9626 13.9511 87.0937 17.0212 88.3056 19.6873C91.0525 25.8275 97.2735 28.5744 103.575 23.3229C104.949 22.1919 105.999 20.7376 106.726 19.041C109.15 18.5562 110.604 16.7788 110.846 14.5975C111.089 12.0929 109.231 9.26521 106.484 9.50758Z" fill="white"/>
<path d="M96.7884 26.7162C96.142 26.7162 95.4957 26.6355 94.8494 26.4739C91.8601 25.7467 89.194 23.4038 87.6589 19.9297C86.5278 17.4252 85.2352 14.1127 85.72 10.881C86.1239 7.73015 87.5781 5.14481 89.8403 3.60977C92.1025 2.07473 94.9302 1.42839 97.7579 1.99394C100.99 2.55948 103.979 4.57928 105.999 7.40699C106.322 7.89174 106.645 8.37651 106.887 8.94206C108.018 8.94206 109.069 9.42682 109.957 10.3155C111.089 11.4466 111.654 13.1432 111.412 14.7591C111.089 17.2636 109.473 19.1218 107.13 19.6873C106.403 21.3032 105.272 22.7574 103.898 23.8885C101.555 25.7467 99.1313 26.7162 96.7884 26.7162ZM95.7381 2.96345C93.8799 2.96345 92.0217 3.52899 90.4866 4.57928C88.4668 5.95274 87.255 8.21491 86.851 11.0426C86.4471 13.9511 87.5781 16.9404 88.7092 19.445C90.0827 22.5151 92.4256 24.6964 95.0918 25.3428C97.6771 25.9083 100.424 25.1004 103.09 22.919C104.383 21.8687 105.433 20.4953 106.079 18.8794L106.241 18.5562L106.564 18.4755C108.584 18.0715 109.957 16.6172 110.2 14.5167C110.361 13.3048 109.877 11.9313 109.069 11.0426C108.584 10.5579 107.776 9.99232 106.564 10.0731H106.16L105.999 9.66915C105.675 9.02282 105.433 8.53807 105.11 8.05332C103.252 5.38719 100.586 3.60981 97.5963 3.04427C96.95 3.04427 96.3036 2.96345 95.7381 2.96345Z" fill="#1B1C29"/>
<path d="M95.7556 15.4235C95.9958 15.0475 95.8858 14.548 95.5099 14.3077C95.1339 14.0674 94.6343 14.1774 94.394 14.5534C94.1538 14.9293 94.2638 15.4289 94.6397 15.6692C95.0157 15.9095 95.5153 15.7995 95.7556 15.4235Z" fill="#1B1C29"/>
<path d="M92.1835 21.1416C91.3756 19.5257 90.81 17.8291 90.4061 16.0517C90.3253 15.5669 91.1332 15.4053 91.214 15.8901C91.5371 17.5867 92.1027 19.2026 92.9106 20.8184C93.153 21.2224 92.4259 21.6263 92.1835 21.1416Z" fill="#1B1C29"/>
<path d="M104.059 15.3245C104.221 13.4663 105.675 11.8505 107.614 11.6081C108.099 11.5274 108.341 12.3353 107.776 12.4161C106.241 12.5776 105.029 13.7895 104.867 15.3245C104.787 15.8901 103.979 15.8901 104.059 15.3245Z" fill="#1B1C29"/>
<path d="M103.252 11.6889C102.686 13.7087 100.101 10.9618 95.1728 9.9923C92.9914 9.58834 83.7003 12.82 82.2461 9.66911C80.0647 5.06398 86.2049 2.39789 90.1637 4.09451C89.7598 2.39789 91.6987 -0.106686 94.2841 1.18598C101.232 -2.28806 107.534 2.23629 106.726 9.9923C106.726 9.9923 103.898 11.0426 103.252 11.6889Z" fill="#1B1C29"/>
</svg>
