<?xml version="1.0" encoding="UTF-8"?>
<svg width="550px" height="350px" viewBox="0 0 550 350" version="1.1" xmlns="http://www.w3.org/2000/svg" xmlns:xlink="http://www.w3.org/1999/xlink">
    <!-- Generator: Sketch 52.6 (67491) - http://www.bohemiancoding.com/sketch -->
    <title>ilustracao_modelo_de_antecipacao_3@1x</title>
    <desc>Created with Sketch.</desc>
    <g id="ilustracao_modelo_de_antecipacao_3" stroke="none" stroke-width="1" fill="none" fill-rule="evenodd">
        <g id="nuvens" opacity="0.589634487" transform="translate(271.000000, 195.000000) scale(-1, 1) translate(-271.000000, -195.000000) translate(26.000000, 94.000000)" fill="#D9E4EA">
            <path d="M386.13088,92.1084337 L453.545833,92.1084337 C458.043959,92.1084337 461.690411,95.7548857 461.690411,100.253012 L461.690411,100.253012 C461.690411,104.751138 458.043959,108.39759 453.545833,108.39759 L386.13088,108.39759 C381.632753,108.39759 377.986301,104.751138 377.986301,100.253012 L377.986301,100.253012 C377.986301,95.7548857 381.632753,92.1084337 386.13088,92.1084337 Z" id="Rectangle-Copy-6" opacity="0.509430804"></path>
            <path d="M267.89863,0 L450.287671,0 C455.810519,-1.01453063e-15 460.287671,4.4771525 460.287671,10 L460.287671,12.5542169 C460.287671,18.0770644 455.810519,22.5542169 450.287671,22.5542169 L267.89863,22.5542169 C262.375783,22.5542169 257.89863,18.0770644 257.89863,12.5542169 L257.89863,10 C257.89863,4.4771525 262.375783,1.01453063e-15 267.89863,0 Z" id="Rectangle-Copy" opacity="0.509430804"></path>
            <path d="M65.5829345,23.8192771 L194.214326,23.8192771 C198.712452,23.8192771 202.358904,27.465729 202.358904,31.9638554 L202.358904,31.9638554 C202.358904,36.4619818 198.712452,40.1084337 194.214326,40.1084337 L65.5829345,40.1084337 C61.0848081,40.1084337 57.4383562,36.4619818 57.4383562,31.9638554 L57.4383562,31.9638554 C57.4383562,27.465729 61.0848081,23.8192771 65.5829345,23.8192771 Z" id="Rectangle-Copy-2" opacity="0.509430804"></path>
            <path d="M303.582934,27.8192771 L432.214326,27.8192771 C436.712452,27.8192771 440.358904,31.465729 440.358904,35.9638554 L440.358904,35.9638554 C440.358904,40.4619818 436.712452,44.1084337 432.214326,44.1084337 L303.582934,44.1084337 C299.084808,44.1084337 295.438356,40.4619818 295.438356,35.9638554 L295.438356,35.9638554 C295.438356,31.465729 299.084808,27.8192771 303.582934,27.8192771 Z" id="Rectangle-Copy-9" opacity="0.509430804"></path>
            <path d="M20.7771085,46.8795181 L387.513302,46.8795181 C391.808481,46.8795181 395.290411,50.3614481 395.290411,54.6566266 L395.290411,54.6566266 C395.290411,58.951805 391.808481,62.4337351 387.513302,62.4337351 L20.7771085,62.4337351 C16.4819301,62.4337351 13,58.951805 13,54.6566266 L13,54.6566266 C13,50.3614481 16.4819301,46.8795181 20.7771085,46.8795181 Z" id="Rectangle-Copy-3" opacity="0.509430804"></path>
            <path d="M50.7771085,69.8795181 L377.513302,69.8795181 C381.808481,69.8795181 385.290411,73.3614481 385.290411,77.6566266 L385.290411,77.6566266 C385.290411,81.951805 381.808481,85.4337351 377.513302,85.4337351 L50.7771085,85.4337351 C46.4819301,85.4337351 43,81.951805 43,77.6566266 L43,77.6566266 C43,73.3614481 46.4819301,69.8795181 50.7771085,69.8795181 Z" id="Rectangle-Copy-10" opacity="0.509430804"></path>
            <path d="M290.115068,64.4698795 L480,64.4698795 C485.522847,64.4698795 490,68.947032 490,74.4698795 L490,77.0240964 C490,82.5469439 485.522847,87.0240964 480,87.0240964 L290.115068,87.0240964 C284.592221,87.0240964 280.115068,82.5469439 280.115068,77.0240964 L280.115068,74.4698795 C280.115068,68.947032 284.592221,64.4698795 290.115068,64.4698795 Z" id="Rectangle-Copy-5" opacity="0.509430804"></path>
            <path d="M10.1150685,114.46988 L200,114.46988 C205.522847,114.46988 210,118.947032 210,124.46988 L210,127.024096 C210,132.546944 205.522847,137.024096 200,137.024096 L10.1150685,137.024096 C4.59222099,137.024096 0.115068493,132.546944 0.115068493,127.024096 L0.115068493,124.46988 C0.115068493,118.947032 4.59222099,114.46988 10.1150685,114.46988 Z" id="Rectangle-Copy-12" opacity="0.509430804"></path>
            <path d="M320.115068,179.120482 L432.542466,179.120482 C438.065313,179.120482 442.542466,183.597634 442.542466,189.120482 L442.542466,191.674699 C442.542466,197.197546 438.065313,201.674699 432.542466,201.674699 L320.115068,201.674699 C314.592221,201.674699 310.115068,197.197546 310.115068,191.674699 L310.115068,189.120482 C310.115068,183.597634 314.592221,179.120482 320.115068,179.120482 Z" id="Rectangle-Copy-7" opacity="0.509430804"></path>
            <path d="M32.3719756,144.289157 L293.430764,144.289157 C297.928891,144.289157 301.575342,147.935609 301.575342,152.433735 L301.575342,152.433735 C301.575342,156.931861 297.928891,160.578313 293.430764,160.578313 L32.3719756,160.578313 C27.8738492,160.578313 24.2273973,156.931861 24.2273973,152.433735 L24.2273973,152.433735 C24.2273973,147.935609 27.8738492,144.289157 32.3719756,144.289157 Z" id="Rectangle-Copy-4" opacity="0.509430804"></path>
            <path d="M356.371976,156.289157 L451.430764,156.289157 C455.928891,156.289157 459.575342,159.935609 459.575342,164.433735 L459.575342,164.433735 C459.575342,168.931861 455.928891,172.578313 451.430764,172.578313 L356.371976,172.578313 C351.873849,172.578313 348.227397,168.931861 348.227397,164.433735 L348.227397,164.433735 C348.227397,159.935609 351.873849,156.289157 356.371976,156.289157 Z" id="Rectangle-Copy-11" opacity="0.509430804"></path>
        </g>
        <g id="detalhes" opacity="0.589634487" transform="translate(261.500000, 182.500000) scale(-1, 1) translate(-261.500000, -182.500000) translate(29.000000, 52.000000)" fill="#858C8F">
            <path d="M9.99162261,4.5344103 L8.9151676,3.45666129 L11.9598421,0.408326766 L13.0362972,1.48607577 L9.99162261,4.5344103 Z M5.09129288,4.5344103 L2.04661833,1.48607577 L3.12307334,0.408326766 L6.16774789,3.45666129 L5.09129288,4.5344103 Z M9.99162261,7.28513265 L13.0362972,10.3334672 L11.9598421,11.4112162 L8.9151676,8.36288166 L9.99162261,7.28513265 Z M5.09129288,7.28513265 L6.16774789,8.36288166 L3.12307334,11.4112162 L2.04661833,10.3334672 L5.09129288,7.28513265 Z" id="Combined-Shape-Copy-2"></path>
            <path d="M0,254.123194 L0,251.372472 L20.6056478,251.372472 L20.6056478,254.123194 L0,254.123194 Z M16.4845182,261 L16.4845182,258.249278 L32.9690365,258.249278 L32.9690365,261 L16.4845182,261 Z M23.3530675,254.123194 L23.3530675,251.372472 L31.5953266,251.372472 L31.5953266,254.123194 L23.3530675,254.123194 Z M8.24225912,261 L8.24225912,258.249278 L15.1108084,258.249278 L15.1108084,261 L8.24225912,261 Z" id="Combined-Shape"></path>
            <path d="M436.152093,71.7507224 L436.152093,69 L454.010321,69 L454.010321,71.7507224 L436.152093,71.7507224 Z M449.889192,80.0028894 L449.889192,77.2521671 L465,77.2521671 L465,80.0028894 L449.889192,80.0028894 Z M455.384031,71.7507224 L455.384031,69 L463.62629,69 L463.62629,71.7507224 L455.384031,71.7507224 Z M441.646932,80.0028894 L441.646932,77.2521671 L447.141772,77.2521671 L447.141772,80.0028894 L441.646932,80.0028894 Z" id="Combined-Shape-Copy-4"></path>
        </g>
        <g id="calendario" transform="translate(115.000000, 20.000000)">
            <g id="desenho-do-calendario" fill-rule="nonzero">
                <rect id="bg-calendario" fill="#D8D8D8" x="8" y="84" width="310" height="210"></rect>
                <rect id="Rectangle-2" stroke="#8459B9" stroke-width="3" fill="#FCFCFC" x="1.5" y="12.5" width="322" height="289" rx="12"></rect>
                <rect id="linha" stroke="#8459B9" stroke-width="3" fill="#FCFCFC" x="1.5" y="73.5" width="322" height="1" rx="0.5"></rect>
                <path d="M248,3 C248,1.34314575 248.895431,0 250,0 C251.104569,0 252,1.34314575 252,3 L252,21 C252,22.6568542 251.104569,24 250,24 C248.895431,24 248,22.6568542 248,21 L248,3 Z" id="Shape" fill="#8459B9"></path>
                <path d="M72,3 C72,1.34314575 72.8954305,0 74,0 C75.1045695,0 76,1.34314575 76,3 L76,21 C76,22.6568542 75.1045695,24 74,24 C72.8954305,24 72,22.6568542 72,21 L72,3 Z" id="Path" fill="#8459B9"></path>
            </g>
            <path d="M2.5,170.5 L2.5,207.5 L322.5,207.5 L322.5,170.5 L2.5,170.5 Z M2.5,212.5 L2.5,249.5 L322.5,249.5 L322.5,212.5 L2.5,212.5 Z M2.5,254.5 L2.5,291.5 L54.5,291.5 L54.5,254.5 L2.5,254.5 Z" id="vendas-2a-quinzena" stroke="#17C9B2" fill-opacity="0.1" fill="#17C9B2" fill-rule="nonzero"></path>
            <path d="M190.5,86.5 L190.5,123.5 L322.5,123.5 L322.5,86.5 L190.5,86.5 Z M2.5,128.5 L2.5,165.5 L322.5,165.5 L322.5,128.5 L2.5,128.5 Z" id="vendas-primeira-quinzena" stroke="#979797" fill="#F6F6F6" fill-rule="nonzero"></path>
            <g id="coluna-7" transform="translate(281.000000, 89.000000)" font-family="UniNeueRegular, Uni Neue" font-size="24" font-weight="normal">
                <text id="3" fill="#EAEAEA">
                    <tspan x="6" y="193">3</tspan>
                </text>
                <text id="24" fill="#C2C5C7">
                    <tspan x="0" y="151">24</tspan>
                </text>
                <text id="17" fill="#C2C5C7">
                    <tspan x="2" y="109">17</tspan>
                </text>
                <text id="10" fill="#757575">
                    <tspan x="1" y="67">10</tspan>
                </text>
                <text id="3" fill="#757575">
                    <tspan x="6" y="25">3</tspan>
                </text>
            </g>
            <g id="coluna-6" transform="translate(237.000000, 89.000000)" font-family="UniNeueRegular, Uni Neue" font-size="24" font-weight="normal">
                <text id="2" fill="#EAEAEA">
                    <tspan x="7" y="193">2</tspan>
                </text>
                <text id="23" fill="#C2C5C7">
                    <tspan x="0" y="151">23</tspan>
                </text>
                <text id="16" fill="#C2C5C7">
                    <tspan x="2" y="109">16</tspan>
                </text>
                <text id="9" fill="#757575">
                    <tspan x="6" y="67">9</tspan>
                </text>
                <text id="2" fill="#757575">
                    <tspan x="7" y="25">2</tspan>
                </text>
            </g>
            <g id="coluna-5" transform="translate(193.000000, 89.000000)" font-family="UniNeueRegular, Uni Neue" font-size="24" font-weight="normal">
                <text id="1" fill="#EAEAEA">
                    <tspan x="9" y="193">1</tspan>
                </text>
                <text id="22" fill="#C2C5C7">
                    <tspan x="0" y="151">22</tspan>
                </text>
                <text id="15" fill="#C2C5C7">
                    <tspan x="2" y="109">15</tspan>
                </text>
                <text id="8" fill="#757575">
                    <tspan x="6" y="67">8</tspan>
                </text>
                <text id="1" fill="#757575">
                    <tspan x="9" y="25">1</tspan>
                </text>
            </g>
            <g id="coluna-4" transform="translate(150.000000, 89.000000)" font-family="UniNeueRegular, Uni Neue" font-size="24" font-weight="normal">
                <text id="28" fill="#C2C5C7">
                    <tspan x="0" y="193">28</tspan>
                </text>
                <text id="21" fill="#C2C5C7">
                    <tspan x="3" y="151">21</tspan>
                </text>
                <text id="14" fill="#C2C5C7">
                    <tspan x="3" y="109">14</tspan>
                </text>
                <text id="7" fill="#757575">
                    <tspan x="8" y="67">7</tspan>
                </text>
                <text id="31" fill="#EAEAEA">
                    <tspan x="3" y="25">31</tspan>
                </text>
            </g>
            <g id="coluna-3" transform="translate(105.000000, 89.000000)" font-family="UniNeueRegular, Uni Neue" font-size="24" font-weight="normal">
                <text id="27" fill="#C2C5C7">
                    <tspan x="2" y="193">27</tspan>
                </text>
                <text id="20" fill="#C2C5C7">
                    <tspan x="1" y="151">20</tspan>
                </text>
                <text id="13" fill="#C2C5C7">
                    <tspan x="3" y="109">13</tspan>
                </text>
                <text id="6" fill="#757575">
                    <tspan x="7" y="67">6</tspan>
                </text>
                <text id="30" fill="#EAEAEA">
                    <tspan x="0" y="25">30</tspan>
                </text>
            </g>
            <g id="coluna-2" transform="translate(61.000000, 89.000000)" font-family="UniNeueRegular, Uni Neue" font-size="24" font-weight="normal">
                <text id="26" fill="#C2C5C7">
                    <tspan x="0" y="193">26</tspan>
                </text>
                <text id="19" fill="#C2C5C7">
                    <tspan x="3" y="151">19</tspan>
                </text>
                <text id="12" fill="#C2C5C7">
                    <tspan x="3" y="109">12</tspan>
                </text>
                <text id="5" fill="#757575">
                    <tspan x="7" y="67">5</tspan>
                </text>
                <text id="29" fill="#EAEAEA">
                    <tspan x="0" y="25">29</tspan>
                </text>
            </g>
            <g id="coluna-1" transform="translate(17.000000, 89.000000)" font-family="UniNeueRegular, Uni Neue" font-size="24" font-weight="normal">
                <text id="25" fill="#757575">
                    <tspan x="0" y="193">25</tspan>
                </text>
                <text id="18" fill="#C2C5C7">
                    <tspan x="2" y="151">18</tspan>
                </text>
                <text id="11" fill="#C2C5C7">
                    <tspan x="5" y="109">11</tspan>
                </text>
                <text id="4" fill="#757575">
                    <tspan x="7" y="67">4</tspan>
                </text>
                <text id="28" fill="#EAEAEA">
                    <tspan x="0" y="25">28</tspan>
                </text>
            </g>
            <g id="detalhe-direita" transform="translate(216.000000, 40.000000)" fill="#FCFCFC" fill-rule="nonzero" stroke="#8459B9" stroke-width="3">
                <circle id="Oval" cx="23" cy="3" r="1.5"></circle>
                <circle id="Oval-Copy" cx="13" cy="3" r="1.5"></circle>
                <circle id="Oval-Copy-2" cx="3" cy="3" r="1.5"></circle>
            </g>
            <text id="Fevereiro" font-family="UniNeueBold, Uni Neue" font-size="22" font-weight="bold" fill="#8459B9">
                <tspan x="116" y="50">Fevereiro</tspan>
            </text>
            <g id="detalhe-esquerda" transform="translate(82.000000, 40.000000)" fill="#FCFCFC" fill-rule="nonzero" stroke="#8459B9" stroke-width="3">
                <circle id="Oval" cx="23" cy="3" r="1.5"></circle>
                <circle id="Oval-Copy" cx="13" cy="3" r="1.5"></circle>
                <circle id="Oval-Copy-2" cx="3" cy="3" r="1.5"></circle>
            </g>
        </g>
        <g id="Recebe-vendas-de" transform="translate(19.000000, 266.000000)">
            <rect id="bg-texto-copy-3" fill="#FFFFFF" fill-rule="nonzero" x="86" y="18" width="13" height="22"></rect>
            <rect id="bg-texto-copy-4" fill="#FFFFFF" fill-rule="nonzero" opacity="0.7" x="1" y="0" width="95" height="57"></rect>
            <g id="seta-indicador" transform="translate(72.000000, 25.000000)" fill="#757575" fill-rule="nonzero">
                <circle id="Oval" cx="34" cy="4" r="4"></circle>
                <rect id="Rectangle" x="0" y="3" width="31" height="3"></rect>
            </g>
            <text id="Recebe-vendas-de-26/" font-family="UniNeueRegular, Uni Neue" font-size="14" font-weight="normal" fill="#757575">
                <tspan x="0" y="15">Recebe vendas</tspan>
                <tspan x="0" y="34">de 26/01</tspan>
                <tspan x="0" y="53">a 10/02</tspan>
            </text>
        </g>
        <text id="2ª-quinzena" font-family="UniNeueRegular, Uni Neue" font-size="14" font-weight="normal" fill="#17C9B2">
            <tspan x="25" y="85">2</tspan>
            <tspan x="32.756" y="85" font-family="LucidaGrande-Bold, Lucida Grande" font-weight="bold">ª</tspan>
            <tspan x="39.5030703" y="85"> quinzena</tspan>
        </text>
        <text id="1ª-quinzena" font-family="UniNeueRegular, Uni Neue" font-size="14" font-weight="normal" fill="#757575">
            <tspan x="25" y="62">1</tspan>
            <tspan x="30.012" y="62" font-family="LucidaGrande-Bold, Lucida Grande" font-weight="bold">ª</tspan>
            <tspan x="36.7590703" y="62"> quinzena</tspan>
        </text>
        <text id="Vendas" font-family="UniNeueBold, Uni Neue" font-size="16" font-weight="bold" fill="#757575">
            <tspan x="25" y="38">Vendas</tspan>
        </text>
    </g>
</svg>