<?xml version="1.0" encoding="UTF-8"?>
<svg width="550px" height="350px" viewBox="0 0 550 350" version="1.1" xmlns="http://www.w3.org/2000/svg" xmlns:xlink="http://www.w3.org/1999/xlink">
    <!-- Generator: Sketch 52.6 (67491) - http://www.bohemiancoding.com/sketch -->
    <title>ilustracao_modelo_de_antecipacao_2@1x</title>
    <desc>Created with Sketch.</desc>
    <g id="ilustracao_modelo_de_antecipacao_2" stroke="none" stroke-width="1" fill="none" fill-rule="evenodd">
        <g id="nuvens" opacity="0.6" transform="translate(26.000000, 45.000000)" fill="#D9E4EA">
            <path d="M386.13088,147.108434 L453.545833,147.108434 C458.043959,147.108434 461.690411,150.754886 461.690411,155.253012 L461.690411,155.253012 C461.690411,159.751138 458.043959,163.39759 453.545833,163.39759 L386.13088,163.39759 C381.632753,163.39759 377.986301,159.751138 377.986301,155.253012 L377.986301,155.253012 C377.986301,150.754886 381.632753,147.108434 386.13088,147.108434 Z" id="Rectangle-Copy-6" opacity="0.509430804"></path>
            <path d="M267.89863,0 L450.287671,0 C455.810519,-1.01453063e-15 460.287671,4.4771525 460.287671,10 L460.287671,12.5542169 C460.287671,18.0770644 455.810519,22.5542169 450.287671,22.5542169 L267.89863,22.5542169 C262.375783,22.5542169 257.89863,18.0770644 257.89863,12.5542169 L257.89863,10 C257.89863,4.4771525 262.375783,1.01453063e-15 267.89863,0 Z" id="Rectangle-Copy" opacity="0.509430804"></path>
            <path d="M65.5829345,72.8192771 L194.214326,72.8192771 C198.712452,72.8192771 202.358904,76.465729 202.358904,80.9638554 L202.358904,80.9638554 C202.358904,85.4619818 198.712452,89.1084337 194.214326,89.1084337 L65.5829345,89.1084337 C61.0848081,89.1084337 57.4383562,85.4619818 57.4383562,80.9638554 L57.4383562,80.9638554 C57.4383562,76.465729 61.0848081,72.8192771 65.5829345,72.8192771 Z" id="Rectangle-Copy-2" opacity="0.509430804"></path>
            <path d="M303.582934,27.8192771 L432.214326,27.8192771 C436.712452,27.8192771 440.358904,31.465729 440.358904,35.9638554 L440.358904,35.9638554 C440.358904,40.4619818 436.712452,44.1084337 432.214326,44.1084337 L303.582934,44.1084337 C299.084808,44.1084337 295.438356,40.4619818 295.438356,35.9638554 L295.438356,35.9638554 C295.438356,31.465729 299.084808,27.8192771 303.582934,27.8192771 Z" id="Rectangle-Copy-9" opacity="0.509430804"></path>
            <path d="M20.7771085,95.8795181 L387.513302,95.8795181 C391.808481,95.8795181 395.290411,99.3614481 395.290411,103.656627 L395.290411,103.656627 C395.290411,107.951805 391.808481,111.433735 387.513302,111.433735 L20.7771085,111.433735 C16.4819301,111.433735 13,107.951805 13,103.656627 L13,103.656627 C13,99.3614481 16.4819301,95.8795181 20.7771085,95.8795181 Z" id="Rectangle-Copy-3" opacity="0.509430804"></path>
            <path d="M50.7771085,118.879518 L377.513302,118.879518 C381.808481,118.879518 385.290411,122.361448 385.290411,126.656627 L385.290411,126.656627 C385.290411,130.951805 381.808481,134.433735 377.513302,134.433735 L50.7771085,134.433735 C46.4819301,134.433735 43,130.951805 43,126.656627 L43,126.656627 C43,122.361448 46.4819301,118.879518 50.7771085,118.879518 Z" id="Rectangle-Copy-10" opacity="0.509430804"></path>
            <path d="M290.115068,119.46988 L480,119.46988 C485.522847,119.46988 490,123.947032 490,129.46988 L490,132.024096 C490,137.546944 485.522847,142.024096 480,142.024096 L290.115068,142.024096 C284.592221,142.024096 280.115068,137.546944 280.115068,132.024096 L280.115068,129.46988 C280.115068,123.947032 284.592221,119.46988 290.115068,119.46988 Z" id="Rectangle-Copy-5" opacity="0.509430804"></path>
            <path d="M10.1150685,163.46988 L200,163.46988 C205.522847,163.46988 210,167.947032 210,173.46988 L210,176.024096 C210,181.546944 205.522847,186.024096 200,186.024096 L10.1150685,186.024096 C4.59222099,186.024096 0.115068493,181.546944 0.115068493,176.024096 L0.115068493,173.46988 C0.115068493,167.947032 4.59222099,163.46988 10.1150685,163.46988 Z" id="Rectangle-Copy-12" opacity="0.509430804"></path>
            <path d="M320.115068,233.120482 L432.542466,233.120482 C438.065313,233.120482 442.542466,237.597634 442.542466,243.120482 L442.542466,245.674699 C442.542466,251.197546 438.065313,255.674699 432.542466,255.674699 L320.115068,255.674699 C314.592221,255.674699 310.115068,251.197546 310.115068,245.674699 L310.115068,243.120482 C310.115068,237.597634 314.592221,233.120482 320.115068,233.120482 Z" id="Rectangle-Copy-7" opacity="0.509430804"></path>
            <path d="M32.3719756,193.289157 L293.430764,193.289157 C297.928891,193.289157 301.575342,196.935609 301.575342,201.433735 L301.575342,201.433735 C301.575342,205.931861 297.928891,209.578313 293.430764,209.578313 L32.3719756,209.578313 C27.8738492,209.578313 24.2273973,205.931861 24.2273973,201.433735 L24.2273973,201.433735 C24.2273973,196.935609 27.8738492,193.289157 32.3719756,193.289157 Z" id="Rectangle-Copy-4" opacity="0.509430804"></path>
            <path d="M356.371976,210.289157 L451.430764,210.289157 C455.928891,210.289157 459.575342,213.935609 459.575342,218.433735 L459.575342,218.433735 C459.575342,222.931861 455.928891,226.578313 451.430764,226.578313 L356.371976,226.578313 C351.873849,226.578313 348.227397,222.931861 348.227397,218.433735 L348.227397,218.433735 C348.227397,213.935609 351.873849,210.289157 356.371976,210.289157 Z" id="Rectangle-Copy-11" opacity="0.509430804"></path>
        </g>
        <g id="detalhes" opacity="0.6" transform="translate(29.000000, 80.000000)" fill="#858C8F">
            <path d="M459.991623,152.53441 L458.915168,151.456661 L461.959842,148.408327 L463.036297,149.486076 L459.991623,152.53441 Z M455.091293,152.53441 L452.046618,149.486076 L453.123073,148.408327 L456.167748,151.456661 L455.091293,152.53441 Z M459.991623,155.285133 L463.036297,158.333467 L461.959842,159.411216 L458.915168,156.362882 L459.991623,155.285133 Z M455.091293,155.285133 L456.167748,156.362882 L453.123073,159.411216 L452.046618,158.333467 L455.091293,155.285133 Z" id="Combined-Shape-Copy-2"></path>
            <path d="M0,90.1231941 L0,87.3724718 L20.6056478,87.3724718 L20.6056478,90.1231941 L0,90.1231941 Z M16.4845182,97 L16.4845182,94.2492776 L32.9690365,94.2492776 L32.9690365,97 L16.4845182,97 Z M23.3530675,90.1231941 L23.3530675,87.3724718 L31.5953266,87.3724718 L31.5953266,90.1231941 L23.3530675,90.1231941 Z M8.24225912,97 L8.24225912,94.2492776 L15.1108084,94.2492776 L15.1108084,97 L8.24225912,97 Z" id="Combined-Shape"></path>
            <path d="M436.152093,2.75072235 L436.152093,0 L454.010321,0 L454.010321,2.75072235 L436.152093,2.75072235 Z M449.889192,11.0028894 L449.889192,8.25216706 L465,8.25216706 L465,11.0028894 L449.889192,11.0028894 Z M455.384031,2.75072235 L455.384031,0 L463.62629,0 L463.62629,2.75072235 L455.384031,2.75072235 Z M441.646932,11.0028894 L441.646932,8.25216706 L447.141772,8.25216706 L447.141772,11.0028894 L441.646932,11.0028894 Z" id="Combined-Shape-Copy-4"></path>
        </g>
        <g id="calendario" transform="translate(115.000000, 20.000000)">
            <g id="desenho-do-calendario" fill-rule="nonzero">
                <rect id="bg-calendario" fill="#D8D8D8" x="8" y="84" width="310" height="210"></rect>
                <rect id="Rectangle-2" stroke="#8459B9" stroke-width="3" fill="#FCFCFC" x="1.5" y="12.5" width="322" height="289" rx="12"></rect>
                <rect id="linha" stroke="#8459B9" stroke-width="3" fill="#FCFCFC" x="1.5" y="73.5" width="322" height="1" rx="0.5"></rect>
                <path d="M248,3 C248,1.34314575 248.895431,0 250,0 C251.104569,0 252,1.34314575 252,3 L252,21 C252,22.6568542 251.104569,24 250,24 C248.895431,24 248,22.6568542 248,21 L248,3 Z" id="Shape" fill="#8459B9"></path>
                <path d="M72,3 C72,1.34314575 72.8954305,0 74,0 C75.1045695,0 76,1.34314575 76,3 L76,21 C76,22.6568542 75.1045695,24 74,24 C72.8954305,24 72,22.6568542 72,21 L72,3 Z" id="Path" fill="#8459B9"></path>
            </g>
            <path d="M227.5,212.5 L227.5,249.5 L322.5,249.5 L322.5,212.5 L227.5,212.5 Z M2.5,254.5 L2.5,291.5 L189.5,291.5 L189.5,254.5 L2.5,254.5 Z" id="Rectangle-3" stroke="#979797" fill="#F6F6F6" fill-rule="nonzero"></path>
            <g id="coluna-7" transform="translate(281.000000, 89.000000)" font-family="UniNeueRegular, Uni Neue" font-size="24" font-weight="normal">
                <text id="3" fill="#EAEAEA">
                    <tspan x="7" y="193">3</tspan>
                </text>
                <text id="27" fill="#757575">
                    <tspan x="1" y="151">27</tspan>
                </text>
                <text id="20" fill="#C2C5C7">
                    <tspan x="0" y="109">20</tspan>
                </text>
                <text id="13" fill="#C2C5C7">
                    <tspan x="3" y="67">13</tspan>
                </text>
                <text id="6" fill="#C2C5C7">
                    <tspan x="7" y="25">6</tspan>
                </text>
            </g>
            <g id="coluna-6" transform="translate(237.000000, 89.000000)" font-family="UniNeueRegular, Uni Neue" font-size="24" font-weight="normal">
                <text id="2" fill="#EAEAEA">
                    <tspan x="7" y="193">2</tspan>
                </text>
                <text id="26" fill="#757575">
                    <tspan x="0" y="151">26</tspan>
                </text>
                <text id="19" fill="#C2C5C7">
                    <tspan x="3" y="109">19</tspan>
                </text>
                <text id="12" fill="#C2C5C7">
                    <tspan x="3" y="67">12</tspan>
                </text>
                <text id="5" fill="#C2C5C7">
                    <tspan x="7" y="25">5</tspan>
                </text>
            </g>
            <g id="coluna-5" transform="translate(193.000000, 89.000000)" font-family="UniNeueRegular, Uni Neue" font-size="24" font-weight="normal">
                <text id="1" fill="#EAEAEA">
                    <tspan x="10" y="193">1</tspan>
                </text>
                <text id="25" fill="#C2C5C7">
                    <tspan x="0" y="151">25</tspan>
                </text>
                <text id="18" fill="#C2C5C7">
                    <tspan x="2" y="109">18</tspan>
                </text>
                <text id="11" fill="#C2C5C7">
                    <tspan x="5" y="67">11</tspan>
                </text>
                <text id="4" fill="#C2C5C7">
                    <tspan x="7" y="25">4</tspan>
                </text>
            </g>
            <g id="coluna-4" transform="translate(150.000000, 89.000000)" font-family="UniNeueRegular, Uni Neue" font-size="24" font-weight="normal">
                <text id="31" fill="#757575">
                    <tspan x="2" y="193">31</tspan>
                </text>
                <text id="24" fill="#C2C5C7">
                    <tspan x="0" y="151">24</tspan>
                </text>
                <text id="17" fill="#C2C5C7">
                    <tspan x="3" y="109">17</tspan>
                </text>
                <text id="10" fill="#C2C5C7">
                    <tspan x="2" y="67">10</tspan>
                </text>
                <text id="3" fill="#C2C5C7">
                    <tspan x="7" y="25">3</tspan>
                </text>
            </g>
            <g id="coluna-3" transform="translate(105.000000, 89.000000)" font-family="UniNeueRegular, Uni Neue" font-size="24" font-weight="normal">
                <text id="30" fill="#757575">
                    <tspan x="0" y="193">30</tspan>
                </text>
                <text id="23" fill="#C2C5C7">
                    <tspan x="1" y="151">23</tspan>
                </text>
                <text id="16" fill="#C2C5C7">
                    <tspan x="3" y="109">16</tspan>
                </text>
                <text id="9" fill="#C2C5C7">
                    <tspan x="7" y="67">9</tspan>
                </text>
                <text id="2" fill="#C2C5C7">
                    <tspan x="8" y="25">2</tspan>
                </text>
            </g>
            <g id="coluna-2" transform="translate(61.000000, 89.000000)" font-family="UniNeueRegular, Uni Neue" font-size="24" font-weight="normal">
                <text id="29" fill="#757575">
                    <tspan x="0" y="193">29</tspan>
                </text>
                <text id="22" fill="#C2C5C7">
                    <tspan x="1" y="151">22</tspan>
                </text>
                <text id="15" fill="#C2C5C7">
                    <tspan x="3" y="109">15</tspan>
                </text>
                <text id="8" fill="#C2C5C7">
                    <tspan x="7" y="67">8</tspan>
                </text>
                <text id="1" fill="#C2C5C7">
                    <tspan x="10" y="25">1</tspan>
                </text>
            </g>
            <g id="coluna-1" transform="translate(17.000000, 89.000000)" font-family="UniNeueRegular, Uni Neue" font-size="24" font-weight="normal">
                <text id="28" fill="#757575">
                    <tspan x="0" y="193">28</tspan>
                </text>
                <text id="21" fill="#C2C5C7">
                    <tspan x="3" y="151">21</tspan>
                </text>
                <text id="14" fill="#C2C5C7">
                    <tspan x="3" y="109">14</tspan>
                </text>
                <text id="7" fill="#C2C5C7">
                    <tspan x="7" y="67">7</tspan>
                </text>
                <text id="31" fill="#EAEAEA">
                    <tspan x="2" y="25">31</tspan>
                </text>
            </g>
            <g id="detalhe-direita" transform="translate(207.000000, 40.000000)" fill="#FCFCFC" fill-rule="nonzero" stroke="#8459B9" stroke-width="3">
                <circle id="Oval" cx="23" cy="3" r="1.5"></circle>
                <circle id="Oval-Copy" cx="13" cy="3" r="1.5"></circle>
                <circle id="Oval-Copy-2" cx="3" cy="3" r="1.5"></circle>
            </g>
            <text id="Janeiro" font-family="UniNeueBold, Uni Neue" font-size="22" font-weight="bold" fill="#8459B9">
                <tspan x="126" y="50">Janeiro</tspan>
            </text>
            <g id="detalhe-esquerda" transform="translate(92.000000, 40.000000)" fill="#FCFCFC" fill-rule="nonzero" stroke="#8459B9" stroke-width="3">
                <circle id="Oval" cx="23" cy="3" r="1.5"></circle>
                <circle id="Oval-Copy" cx="13" cy="3" r="1.5"></circle>
                <circle id="Oval-Copy-2" cx="3" cy="3" r="1.5"></circle>
            </g>
        </g>
        <text id="2ª-quinzena" font-family="UniNeueRegular, Uni Neue" font-size="14" font-weight="normal" fill="#17C9B2">
            <tspan x="25" y="85">2</tspan>
            <tspan x="32.756" y="85" font-family="LucidaGrande-Bold, Lucida Grande" font-weight="bold">ª</tspan>
            <tspan x="39.5030703" y="85"> quinzena</tspan>
        </text>
        <text id="1ª-quinzena" font-family="UniNeueRegular, Uni Neue" font-size="14" font-weight="normal" fill="#757575">
            <tspan x="25" y="62">1</tspan>
            <tspan x="30.012" y="62" font-family="LucidaGrande-Bold, Lucida Grande" font-weight="bold">ª</tspan>
            <tspan x="36.7590703" y="62"> quinzena</tspan>
        </text>
        <text id="Vendas" font-family="UniNeueBold, Uni Neue" font-size="16" font-weight="bold" fill="#757575">
            <tspan x="25" y="38">Vendas</tspan>
        </text>
    </g>
</svg>