<?xml version="1.0" encoding="UTF-8"?>
<svg width="550px" height="350px" viewBox="0 0 550 350" version="1.1" xmlns="http://www.w3.org/2000/svg" xmlns:xlink="http://www.w3.org/1999/xlink">
    <!-- Generator: Sketch 52.6 (67491) - http://www.bohemiancoding.com/sketch -->
    <title>ilustracao_modelo_de_antecipacao_1@1x</title>
    <desc>Created with Sketch.</desc>
    <g id="ilustracao_modelo_de_antecipacao_1" stroke="none" stroke-width="1" fill="none" fill-rule="evenodd">
        <g id="nuvens" opacity="0.6" transform="translate(19.000000, 42.000000)" fill="#D9E4EA">
            <path d="M63.1308797,230.108434 L130.545833,230.108434 C135.043959,230.108434 138.690411,233.754886 138.690411,238.253012 L138.690411,238.253012 C138.690411,242.751138 135.043959,246.39759 130.545833,246.39759 L63.1308797,246.39759 C58.6327533,246.39759 54.9863014,242.751138 54.9863014,238.253012 L54.9863014,238.253012 C54.9863014,233.754886 58.6327533,230.108434 63.1308797,230.108434 Z" id="Rectangle-Copy-6" opacity="0.509430804"></path>
            <path d="M274.89863,3 L457.287671,3 C462.810519,3 467.287671,7.4771525 467.287671,13 L467.287671,15.5542169 C467.287671,21.0770644 462.810519,25.5542169 457.287671,25.5542169 L274.89863,25.5542169 C269.375783,25.5542169 264.89863,21.0770644 264.89863,15.5542169 L264.89863,13 C264.89863,7.4771525 269.375783,3 274.89863,3 Z" id="Rectangle-Copy" opacity="0.509430804"></path>
            <path d="M72.5829345,0.819277108 L201.214326,0.819277108 C205.712452,0.819277108 209.358904,4.46572903 209.358904,8.96385542 L209.358904,8.96385542 C209.358904,13.4619818 205.712452,17.1084337 201.214326,17.1084337 L72.5829345,17.1084337 C68.0848081,17.1084337 64.4383562,13.4619818 64.4383562,8.96385542 L64.4383562,8.96385542 C64.4383562,4.46572903 68.0848081,0.819277108 72.5829345,0.819277108 Z" id="Rectangle-Copy-2" opacity="0.509430804"></path>
            <path d="M310.582934,30.8192771 L439.214326,30.8192771 C443.712452,30.8192771 447.358904,34.465729 447.358904,38.9638554 L447.358904,38.9638554 C447.358904,43.4619818 443.712452,47.1084337 439.214326,47.1084337 L310.582934,47.1084337 C306.084808,47.1084337 302.438356,43.4619818 302.438356,38.9638554 L302.438356,38.9638554 C302.438356,34.465729 306.084808,30.8192771 310.582934,30.8192771 Z" id="Rectangle-Copy-9" opacity="0.509430804"></path>
            <path d="M27.7771085,105.879518 L394.513302,105.879518 C398.808481,105.879518 402.290411,109.361448 402.290411,113.656627 L402.290411,113.656627 C402.290411,117.951805 398.808481,121.433735 394.513302,121.433735 L27.7771085,121.433735 C23.4819301,121.433735 20,117.951805 20,113.656627 L20,113.656627 C20,109.361448 23.4819301,105.879518 27.7771085,105.879518 Z" id="Rectangle-Copy-3" opacity="0.509430804"></path>
            <path d="M67.7771085,125.879518 L394.513302,125.879518 C398.808481,125.879518 402.290411,129.361448 402.290411,133.656627 L402.290411,133.656627 C402.290411,137.951805 398.808481,141.433735 394.513302,141.433735 L67.7771085,141.433735 C63.4819301,141.433735 60,137.951805 60,133.656627 L60,133.656627 C60,129.361448 63.4819301,125.879518 67.7771085,125.879518 Z" id="Rectangle-Copy-10" opacity="0.509430804"></path>
            <path d="M297.115068,52.4698795 L487,52.4698795 C492.522847,52.4698795 497,56.947032 497,62.4698795 L497,65.0240964 C497,70.5469439 492.522847,75.0240964 487,75.0240964 L297.115068,75.0240964 C291.592221,75.0240964 287.115068,70.5469439 287.115068,65.0240964 L287.115068,62.4698795 C287.115068,56.947032 291.592221,52.4698795 297.115068,52.4698795 Z" id="Rectangle-Copy-5" opacity="0.509430804"></path>
            <path d="M10.1150685,256.46988 L200,256.46988 C205.522847,256.46988 210,260.947032 210,266.46988 L210,269.024096 C210,274.546944 205.522847,279.024096 200,279.024096 L10.1150685,279.024096 C4.59222099,279.024096 0.115068493,274.546944 0.115068493,269.024096 L0.115068493,266.46988 C0.115068493,260.947032 4.59222099,256.46988 10.1150685,256.46988 Z" id="Rectangle-Copy-12" opacity="0.509430804"></path>
            <path d="M327.115068,202.120482 L439.542466,202.120482 C445.065313,202.120482 449.542466,206.597634 449.542466,212.120482 L449.542466,214.674699 C449.542466,220.197546 445.065313,224.674699 439.542466,224.674699 L327.115068,224.674699 C321.592221,224.674699 317.115068,220.197546 317.115068,214.674699 L317.115068,212.120482 C317.115068,206.597634 321.592221,202.120482 327.115068,202.120482 Z" id="Rectangle-Copy-7" opacity="0.509430804"></path>
            <path d="M39.3719756,207.289157 L300.430764,207.289157 C304.928891,207.289157 308.575342,210.935609 308.575342,215.433735 L308.575342,215.433735 C308.575342,219.931861 304.928891,223.578313 300.430764,223.578313 L39.3719756,223.578313 C34.8738492,223.578313 31.2273973,219.931861 31.2273973,215.433735 L31.2273973,215.433735 C31.2273973,210.935609 34.8738492,207.289157 39.3719756,207.289157 Z" id="Rectangle-Copy-4" opacity="0.509430804"></path>
            <path d="M383.371976,180.289157 L478.430764,180.289157 C482.928891,180.289157 486.575342,183.935609 486.575342,188.433735 L486.575342,188.433735 C486.575342,192.931861 482.928891,196.578313 478.430764,196.578313 L383.371976,196.578313 C378.873849,196.578313 375.227397,192.931861 375.227397,188.433735 L375.227397,188.433735 C375.227397,183.935609 378.873849,180.289157 383.371976,180.289157 Z" id="Rectangle-Copy-11" opacity="0.509430804"></path>
        </g>
        <g id="detalhes" opacity="0.6" transform="translate(29.000000, 20.000000)">
            <path d="M429.991623,122.53441 L428.915168,121.456661 L431.959842,118.408327 L433.036297,119.486076 L429.991623,122.53441 Z M425.091293,122.53441 L422.046618,119.486076 L423.123073,118.408327 L426.167748,121.456661 L425.091293,122.53441 Z M429.991623,125.285133 L433.036297,128.333467 L431.959842,129.411216 L428.915168,126.362882 L429.991623,125.285133 Z M425.091293,125.285133 L426.167748,126.362882 L423.123073,129.411216 L422.046618,128.333467 L425.091293,125.285133 Z" id="Combined-Shape-Copy-2" fill="#858C8F"></path>
            <ellipse id="Oval-3" stroke="#858C8F" stroke-width="2.75" cx="42.9587153" cy="44.0115577" rx="5.49483941" ry="5.50144471"></ellipse>
            <ellipse id="Oval-3-Copy" stroke="#858C8F" stroke-width="2.75" cx="18.9587153" cy="22.0115577" rx="5.49483941" ry="5.50144471"></ellipse>
            <path d="M0,270.123194 L0,267.372472 L20.6056478,267.372472 L20.6056478,270.123194 L0,270.123194 Z M16.4845182,277 L16.4845182,274.249278 L32.9690365,274.249278 L32.9690365,277 L16.4845182,277 Z M23.3530675,270.123194 L23.3530675,267.372472 L31.5953266,267.372472 L31.5953266,270.123194 L23.3530675,270.123194 Z M8.24225912,277 L8.24225912,274.249278 L15.1108084,274.249278 L15.1108084,277 L8.24225912,277 Z" id="Combined-Shape" fill="#858C8F"></path>
            <path d="M466.152093,2.75072235 L466.152093,0 L484.010321,0 L484.010321,2.75072235 L466.152093,2.75072235 Z M479.889192,11.0028894 L479.889192,8.25216706 L495,8.25216706 L495,11.0028894 L479.889192,11.0028894 Z M485.384031,2.75072235 L485.384031,0 L493.62629,0 L493.62629,2.75072235 L485.384031,2.75072235 Z M471.646932,11.0028894 L471.646932,8.25216706 L477.141772,8.25216706 L477.141772,11.0028894 L471.646932,11.0028894 Z" id="Combined-Shape-Copy-4" fill="#858C8F"></path>
        </g>
        <g id="calendario" transform="translate(115.000000, 20.000000)">
            <rect id="bg-calendario" fill="#D8D8D8" fill-rule="nonzero" x="8" y="84" width="310" height="210"></rect>
            <rect id="Rectangle-2" stroke="#8459B9" stroke-width="3" fill="#FCFCFC" fill-rule="nonzero" x="1.5" y="12.5" width="322" height="289" rx="12"></rect>
            <rect id="linha" stroke="#8459B9" stroke-width="3" fill="#FCFCFC" fill-rule="nonzero" x="1.5" y="73.5" width="322" height="1" rx="0.5"></rect>
            <path d="M248,3 C248,1.34314575 248.895431,0 250,0 C251.104569,0 252,1.34314575 252,3 L252,21 C252,22.6568542 251.104569,24 250,24 C248.895431,24 248,22.6568542 248,21 L248,3 Z" id="Shape" fill="#8459B9" fill-rule="nonzero"></path>
            <path d="M72,3 C72,1.34314575 72.8954305,0 74,0 C75.1045695,0 76,1.34314575 76,3 L76,21 C76,22.6568542 75.1045695,24 74,24 C72.8954305,24 72,22.6568542 72,21 L72,3 Z" id="Path" fill="#8459B9" fill-rule="nonzero"></path>
            <g id="coluna-7" transform="translate(281.000000, 89.000000)" font-family="inherit" font-size="24" font-weight="normal">
                <text id="3" fill="#EAEAEA">
                    <tspan x="7" y="193">3</tspan>
                </text>
                <text id="27" fill="#C2C5C7">
                    <tspan x="1" y="151">27</tspan>
                </text>
                <text id="20" fill="#C2C5C7">
                    <tspan x="0" y="109">20</tspan>
                </text>
                <text id="13" fill="#C2C5C7">
                    <tspan x="3" y="67">13</tspan>
                </text>
                <text id="6" fill="#C2C5C7">
                    <tspan x="7" y="25">6</tspan>
                </text>
            </g>
            <g id="coluna-6" transform="translate(237.000000, 89.000000)" font-family="UniNeueRegular, Uni Neue" font-size="24" font-weight="normal">
                <text id="2" fill="#EAEAEA">
                    <tspan x="7" y="193">2</tspan>
                </text>
                <text id="26" fill="#C2C5C7">
                    <tspan x="0" y="151">26</tspan>
                </text>
                <text id="19" fill="#C2C5C7">
                    <tspan x="3" y="109">19</tspan>
                </text>
                <text id="12" fill="#C2C5C7">
                    <tspan x="3" y="67">12</tspan>
                </text>
                <text id="5" fill="#C2C5C7">
                    <tspan x="7" y="25">5</tspan>
                </text>
            </g>
            <g id="coluna-5" transform="translate(193.000000, 89.000000)" font-family="UniNeueRegular, Uni Neue" font-size="24" font-weight="normal">
                <text id="1" fill="#EAEAEA">
                    <tspan x="10" y="193">1</tspan>
                </text>
                <text id="25" fill="#C2C5C7">
                    <tspan x="0" y="151">25</tspan>
                </text>
                <text id="18" fill="#C2C5C7">
                    <tspan x="2" y="109">18</tspan>
                </text>
                <text id="11" fill="#C2C5C7">
                    <tspan x="5" y="67">11</tspan>
                </text>
                <text id="4" fill="#C2C5C7">
                    <tspan x="7" y="25">4</tspan>
                </text>
            </g>
            <g id="coluna-4" transform="translate(150.000000, 89.000000)" font-family="UniNeueRegular, Uni Neue" font-size="24" font-weight="normal">
                <text id="31" fill="#757575">
                    <tspan x="2" y="193">31</tspan>
                </text>
                <text id="24" fill="#C2C5C7">
                    <tspan x="0" y="151">24</tspan>
                </text>
                <text id="17" fill="#C2C5C7">
                    <tspan x="3" y="109">17</tspan>
                </text>
                <text id="10" fill="#C2C5C7">
                    <tspan x="2" y="67">10</tspan>
                </text>
                <text id="3" fill="#C2C5C7">
                    <tspan x="7" y="25">3</tspan>
                </text>
            </g>
            <g id="coluna-3" transform="translate(105.000000, 89.000000)" fill="#C2C5C7" font-family="UniNeueRegular, Uni Neue" font-size="24" font-weight="normal">
                <text id="30">
                    <tspan x="0" y="193">30</tspan>
                </text>
                <text id="23">
                    <tspan x="1" y="151">23</tspan>
                </text>
                <text id="16">
                    <tspan x="3" y="109">16</tspan>
                </text>
                <text id="9">
                    <tspan x="7" y="67">9</tspan>
                </text>
                <text id="2">
                    <tspan x="8" y="25">2</tspan>
                </text>
            </g>
            <g id="coluna-2" transform="translate(61.000000, 89.000000)" font-family="UniNeueRegular, Uni Neue" font-size="24" font-weight="normal">
                <text id="29" fill="#C2C5C7">
                    <tspan x="0" y="193">29</tspan>
                </text>
                <text id="22" fill="#C2C5C7">
                    <tspan x="1" y="151">22</tspan>
                </text>
                <text id="15" fill="#17C9B2">
                    <tspan x="3" y="109">15</tspan>
                </text>
                <text id="8" fill="#C2C5C7">
                    <tspan x="7" y="67">8</tspan>
                </text>
                <text id="1" fill="#757575">
                    <tspan x="10" y="25">1</tspan>
                </text>
            </g>
            <g id="coluna-1" transform="translate(17.000000, 89.000000)" font-family="UniNeueRegular, Uni Neue" font-size="24" font-weight="normal">
                <text id="28" fill="#C2C5C7">
                    <tspan x="0" y="193">28</tspan>
                </text>
                <text id="21" fill="#C2C5C7">
                    <tspan x="3" y="151">21</tspan>
                </text>
                <text id="14" fill="#C2C5C7">
                    <tspan x="3" y="109">14</tspan>
                </text>
                <text id="7" fill="#C2C5C7">
                    <tspan x="7" y="67">7</tspan>
                </text>
                <text id="31" fill="#EAEAEA">
                    <tspan x="2" y="25">31</tspan>
                </text>
            </g>
            <g id="detalhe-direita" transform="translate(207.000000, 40.000000)" fill="#FCFCFC" fill-rule="nonzero" stroke="#8459B9" stroke-width="3">
                <circle id="Oval" cx="23" cy="3" r="1.5"></circle>
                <circle id="Oval-Copy" cx="13" cy="3" r="1.5"></circle>
                <circle id="Oval-Copy-2" cx="3" cy="3" r="1.5"></circle>
            </g>
            <text id="Janeiro" font-family="UniNeueBold, Uni Neue" font-size="22" font-weight="bold" fill="#8459B9">
                <tspan x="126" y="50">Janeiro</tspan>
            </text>
            <g id="detalhe-esquerda" transform="translate(92.000000, 40.000000)" fill="#FCFCFC" fill-rule="nonzero" stroke="#8459B9" stroke-width="3">
                <circle id="Oval" cx="23" cy="3" r="1.5"></circle>
                <circle id="Oval-Copy" cx="13" cy="3" r="1.5"></circle>
                <circle id="Oval-Copy-2" cx="3" cy="3" r="1.5"></circle>
            </g>
        </g>
        <g id="recebimento-comum" transform="translate(294.000000, 271.000000)">
            <rect id="bg-texto-copy-2" fill-opacity="0.7" fill="#FFFFFF" fill-rule="nonzero" x="0" y="0" width="238" height="44"></rect>
            <rect id="bg-texto-copy-5" fill="#FFFFFF" fill-rule="nonzero" x="143" y="0" width="4" height="44"></rect>
            <text id="Recebimento-comum" font-family="UniNeueRegular, Uni Neue" font-size="16" font-weight="normal" fill="#757575">
                <tspan x="147" y="17">Recebimento</tspan>
                <tspan x="147" y="39">comum</tspan>
            </text>
            <g id="seta-indicador" transform="translate(0.000000, 18.000000)" fill="#757575" fill-rule="nonzero">
                <ellipse id="Oval" cx="3.69032258" cy="4" rx="3.69032258" ry="4"></ellipse>
                <rect id="Rectangle" x="6.45806452" y="3" width="136.541935" height="3"></rect>
            </g>
        </g>
        <g id="recebimento-antecipado" transform="translate(20.000000, 188.000000)">
            <rect id="bg-texto-copy" fill-opacity="0.7" fill="#FFFFFF" fill-rule="nonzero" x="0" y="0" width="155" height="44"></rect>
            <rect id="bg-texto-copy-4" fill="#FFFFFF" fill-rule="nonzero" x="95" y="0" width="4" height="44"></rect>
            <g id="seta-indicador" transform="translate(99.000000, 18.000000)" fill="#17C9B2" fill-rule="nonzero">
                <circle id="Oval" cx="52" cy="4" r="4"></circle>
                <rect id="Rectangle" x="0" y="3" width="48" height="3"></rect>
            </g>
            <text id="Recebimento-antecipa" font-family="UniNeueRegular, Uni Neue" font-size="16" font-weight="normal" fill="#17C9B2">
                <tspan x="4" y="17">Recebimento</tspan>
                <tspan x="4" y="39">antecipado</tspan>
            </text>
        </g>
        <g id="venda" transform="translate(20.000000, 114.000000)">
            <rect id="bg-texto" fill-opacity="0.7" fill="#FFFFFF" fill-rule="nonzero" x="0" y="0" width="163" height="22"></rect>
            <rect id="bg-texto-copy-3" fill="#FFFFFF" fill-rule="nonzero" x="89" y="0" width="13" height="22"></rect>
            <g id="seta-indicador" transform="translate(61.000000, 7.000000)" fill="#757575" fill-rule="nonzero">
                <circle id="Oval" cx="97" cy="4" r="4"></circle>
                <rect id="Rectangle" x="0" y="3" width="93" height="3"></rect>
            </g>
            <text id="Venda" font-family="UniNeueRegular, Uni Neue" font-size="16" font-weight="normal" fill="#757575">
                <tspan x="13" y="17">Venda</tspan>
            </text>
        </g>
    </g>
</svg>