<svg width="57" height="56" viewBox="0 0 57 56" fill="none" xmlns="http://www.w3.org/2000/svg">
<path d="M47.7809 15.6511L28.69 5.1095C28.4255 4.9635 28.1112 4.9635 27.8466 5.1095L8.75572 15.6511C8.45564 15.8168 8.26831 16.1434 8.26831 16.5V39.5C8.26831 39.8566 8.45564 40.1832 8.75572 40.3488L27.8466 50.8905C27.9789 50.9635 28.1236 51 28.2683 51C28.413 51 28.5577 50.9635 28.69 50.8905L47.7809 40.3488C48.081 40.1832 48.2683 39.8566 48.2683 39.5V16.5C48.2683 16.1434 48.081 15.8168 47.7809 15.6511ZM28.2683 7.04015L45.3998 16.5L38.2583 20.4434L20.7191 11.2088L28.2683 7.04015ZM27.3592 48.4578L10.0865 38.9198V18.0838L27.3593 27.6214V48.4578H27.3592ZM28.2683 25.9598L11.1368 16.5L18.7327 12.3056L36.2722 21.5401L28.2683 25.9598ZM46.4501 38.9198L29.1774 48.4578V27.6213L37.3592 23.1035V34.7084C37.3592 35.2381 37.7659 35.6667 38.2684 35.6667C38.7709 35.6667 39.1775 35.2381 39.1775 34.7084V22.0996L46.4502 18.0838V38.9198H46.4501Z" fill="#8267D3"/>
</svg>
