<svg width="38" height="38" viewBox="0 0 38 38" fill="none" xmlns="http://www.w3.org/2000/svg">
<path d="M32.435 5.56492C28.8464 1.97637 24.0751 0 19 0C13.9248 0 9.15347 1.97637 5.56492 5.56492C1.9763 9.15355 0 13.9249 0 19C0 24.0751 1.9763 28.8464 5.56492 32.435C9.15355 36.0236 13.9248 38 19 38C24.0751 38 28.8464 36.0236 32.435 32.435C36.0236 28.8464 38 24.0751 38 19C38 13.9249 36.0236 9.15362 32.435 5.56492ZM19 35.7734C9.75108 35.7734 2.22656 28.2489 2.22656 19C2.22656 9.75108 9.75108 2.22656 19 2.22656C28.2489 2.22656 35.7734 9.75108 35.7734 19C35.7734 28.2489 28.2489 35.7734 19 35.7734Z" fill="#8267D3"/>
<path d="M28.0773 12.9035C27.6426 12.4689 26.9377 12.4689 26.503 12.9036L16.6721 22.7345L11.497 17.5595C11.0623 17.1248 10.3574 17.1248 9.92261 17.5595C9.48783 17.9942 9.48783 18.6991 9.92261 19.1339L15.8848 25.0961C16.1022 25.3135 16.3871 25.4222 16.672 25.4222C16.9568 25.4222 17.2418 25.3134 17.4592 25.0961L28.0773 14.4779C28.5121 14.0432 28.5121 13.3383 28.0773 12.9035Z" fill="#8267D3"/>
</svg>
