<svg width="38" height="38" viewBox="0 0 38 38" fill="none" xmlns="http://www.w3.org/2000/svg">
<path d="M32.435 5.56492C28.8464 1.97637 24.0751 0 19 0C13.9248 0 9.15347 1.97637 5.56492 5.56492C1.9763 9.15355 0 13.9249 0 19C0 24.0751 1.9763 28.8464 5.56492 32.435C9.15355 36.0236 13.9248 38 19 38C24.0751 38 28.8464 36.0236 32.435 32.435C36.0236 28.8464 38 24.0751 38 19C38 13.9249 36.0236 9.15362 32.435 5.56492ZM19 35.7734C9.75108 35.7734 2.22656 28.2489 2.22656 19C2.22656 9.75108 9.75108 2.22656 19 2.22656C28.2489 2.22656 35.7734 9.75108 35.7734 19C35.7734 28.2489 28.2489 35.7734 19 35.7734Z" fill="#8267D3"/>
<path d="M21.3077 9.12218C20.6347 9.12224 20.089 9.66795 20.089 10.341L20.089 21.3797L12.0767 21.3797C11.4036 21.3797 10.8579 21.9254 10.8579 22.5985C10.8578 23.2716 11.4035 23.8173 12.0767 23.8173L21.3078 23.8173C21.6444 23.8173 21.949 23.6808 22.1696 23.4603C22.3901 23.2398 22.5265 22.935 22.5265 22.5985L22.5265 10.341C22.5266 9.6679 21.9809 9.12218 21.3077 9.12218Z" fill="#8267D3"/>
</svg>
