<svg width="57" height="56" viewBox="0 0 57 56" fill="none" xmlns="http://www.w3.org/2000/svg">
<path d="M23.5229 37.0984C23.353 37.0984 23.1817 37.0395 23.042 36.9197L18.2346 32.7954C18.0687 32.653 17.9734 32.445 17.9734 32.2253C17.9734 32.006 18.0692 31.798 18.2346 31.6556L23.042 27.5314C23.3542 27.2632 23.8231 27.3012 24.0892 27.6157C24.355 27.9307 24.3177 28.4031 24.0051 28.6708L19.8622 32.2253L24.0051 35.7798C24.3177 36.048 24.355 36.5204 24.0892 36.8349C23.9421 37.009 23.7331 37.0984 23.5229 37.0984Z" fill="#8267D3"/>
<path d="M33.0136 37.0984C32.8034 37.0984 32.5944 37.009 32.4477 36.8349C32.1815 36.5204 32.2192 36.048 32.5314 35.7798L36.6743 32.2253L32.5314 28.6708C32.2192 28.4031 32.1815 27.9307 32.4477 27.6157C32.7134 27.3012 33.1827 27.2632 33.4945 27.5314L38.3019 31.6556C38.4677 31.798 38.5631 32.006 38.5631 32.2253C38.5631 32.445 38.4677 32.653 38.3019 32.7954L33.4945 36.9197C33.3548 37.0395 33.1835 37.0984 33.0136 37.0984Z" fill="#8267D3"/>
<path d="M26.5664 40.1918C26.5154 40.1918 26.464 40.1864 26.4121 40.1755C26.0108 40.0903 25.7538 39.6931 25.8384 39.2888L28.8345 24.9567C28.9191 24.5524 29.3129 24.2935 29.7147 24.3787C30.116 24.4639 30.373 24.8607 30.2885 25.2654L27.2923 39.5974C27.2185 39.95 26.9101 40.1918 26.5664 40.1918Z" fill="#8267D3"/>
<path d="M45.7801 48H10.7565C8.0062 48 5.76831 45.7458 5.76831 42.9744V13.0256C5.76831 10.2547 8.0062 8 10.7565 8H45.7801C48.5304 8 50.7683 10.2547 50.7683 13.0256V42.9744C50.7683 45.7458 48.5304 48 45.7801 48ZM10.7565 9.49698C8.82541 9.49698 7.25416 11.08 7.25416 13.0256V42.9744C7.25416 44.92 8.82541 46.503 10.7565 46.503H45.7801C47.7112 46.503 49.2825 44.92 49.2825 42.9744V13.0256C49.2825 11.08 47.7112 9.49698 45.7801 9.49698H10.7565Z" fill="#8267D3"/>
<path d="M50.0254 19.9855H6.51124C6.1008 19.9855 5.76831 19.6505 5.76831 19.237C5.76831 18.8239 6.1008 18.4885 6.51124 18.4885H50.0254C50.4358 18.4885 50.7683 18.8239 50.7683 19.237C50.7683 19.6505 50.4358 19.9855 50.0254 19.9855Z" fill="#8267D3"/>
<path d="M18.4619 16.4038C17.1659 16.4038 16.1108 15.3408 16.1108 14.0351C16.1108 12.729 17.1659 11.6665 18.4619 11.6665C19.7583 11.6665 20.813 12.729 20.813 14.0351C20.813 15.3408 19.7583 16.4038 18.4619 16.4038ZM18.4619 13.1634C17.9851 13.1634 17.5967 13.5544 17.5967 14.0351C17.5967 14.5159 17.9851 14.9069 18.4619 14.9069C18.9391 14.9069 19.3271 14.5159 19.3271 14.0351C19.3271 13.5544 18.9391 13.1634 18.4619 13.1634Z" fill="#8267D3"/>
<path d="M11.2383 16.3809C9.94189 16.3809 8.88721 15.3183 8.88721 14.0122C8.88721 12.7061 9.94189 11.6435 11.2383 11.6435C12.5347 11.6435 13.5894 12.7061 13.5894 14.0122C13.5894 15.3183 12.5347 16.3809 11.2383 16.3809ZM11.2383 13.1405C10.7615 13.1405 10.3731 13.5318 10.3731 14.0122C10.3731 14.4929 10.7615 14.8839 11.2383 14.8839C11.7155 14.8839 12.1035 14.4929 12.1035 14.0122C12.1035 13.5318 11.7155 13.1405 11.2383 13.1405Z" fill="#8267D3"/>
<path d="M25.6854 16.4264C24.3894 16.4264 23.3347 15.3638 23.3347 14.0577C23.3347 12.752 24.3894 11.6894 25.6854 11.6894C26.9818 11.6894 28.0365 12.752 28.0365 14.0577C28.0365 15.3638 26.9818 16.4264 25.6854 16.4264ZM25.6854 13.186C25.2086 13.186 24.8206 13.5769 24.8206 14.0577C24.8206 14.5384 25.2086 14.9294 25.6854 14.9294C26.1626 14.9294 26.5506 14.5384 26.5506 14.0577C26.5506 13.5769 26.1626 13.186 25.6854 13.186Z" fill="#8267D3"/>
</svg>
