<svg width="57" height="56" viewBox="0 0 57 56" fill="none" xmlns="http://www.w3.org/2000/svg">
<path d="M36.8366 29.2038C32.0227 29.2038 26.905 30.755 26.905 33.6869V34.2764C24.6268 33.3204 22.1713 32.8553 19.6997 32.9113C14.8859 32.9113 9.76819 34.4625 9.76819 37.3944V48.5169C9.76819 51.4255 14.8859 53 19.6997 53C23.3296 53 26.57 52.1701 28.2681 50.8438C30.0987 52.2554 33.5572 53 36.8366 53C41.6504 53 46.7681 51.4488 46.7681 48.5169V33.6869C46.7915 30.7783 41.6738 29.2038 36.8366 29.2038ZM19.6997 34.4625C22.6442 34.4625 25.4172 35.0753 26.9595 36.0138V38.775C25.4016 39.7368 22.6442 40.3263 19.6997 40.3263C14.512 40.3263 11.3261 38.6199 11.3261 37.3944C11.3261 36.1689 14.4886 34.4625 19.6997 34.4625ZM11.3261 39.8919C13.18 41.1872 16.4905 41.8775 19.6997 41.8775C22.1895 41.9413 24.6645 41.4759 26.9595 40.5124V42.4515C25.4016 43.4133 22.6442 44.0027 19.6997 44.0027C14.512 44.0027 11.3261 42.2964 11.3261 41.0709V39.8919ZM11.3261 43.5994C13.2111 44.9102 16.5139 45.6005 19.6997 45.6005C22.1814 45.6501 24.6453 45.1742 26.9284 44.2044V46.1435C25.3705 47.1052 22.613 47.6947 19.6686 47.6947C14.4808 47.6947 11.2949 45.9883 11.2949 44.7629L11.3261 43.5994ZM19.6997 51.4488C14.512 51.4488 11.3261 49.7424 11.3261 48.5169V47.3069C13.2111 48.6177 16.5139 49.308 19.6997 49.308C22.1895 49.3718 24.6645 48.9064 26.9595 47.9429V48.5324C26.9632 48.9367 27.0676 49.3338 27.2633 49.6881C25.9858 50.5878 23.3063 51.4488 19.6997 51.4488ZM36.8366 30.755C42.001 30.755 45.2102 32.4614 45.2102 33.6869C45.2102 34.9124 42.0477 36.6188 36.8366 36.6188C31.6488 36.6188 28.4629 34.9124 28.4629 33.6869C28.4629 32.4614 31.6721 30.755 36.8366 30.755ZM45.2647 48.5169C45.2647 49.7424 42.0789 51.4488 36.8911 51.4488C31.7033 51.4488 28.5174 49.7424 28.5174 48.5169V47.3069C30.3947 48.6177 33.7052 49.308 36.8911 49.308C40.077 49.308 43.3797 48.6177 45.2647 47.3069V48.5169ZM45.2647 44.8094C45.2647 46.0349 42.0789 47.7413 36.8911 47.7413C31.7033 47.7413 28.5174 46.0349 28.5174 44.8094V43.5839C30.3947 44.8947 33.7052 45.585 36.8911 45.585C40.077 45.585 43.3797 44.8947 45.2647 43.5839V44.8094ZM36.8911 44.0338C31.7033 44.0338 28.4863 42.3274 28.4863 41.1019V39.8764C30.3713 41.1872 33.6818 41.8775 36.8366 41.8775C39.9913 41.8775 43.3252 41.1872 45.2102 39.8764L45.2647 41.1019C45.2647 42.3274 42.0789 44.0338 36.8911 44.0338ZM36.8366 40.3263C31.6254 40.3263 28.4629 38.6199 28.4629 37.3944V36.1689C30.3401 37.4797 33.6507 38.17 36.8366 38.17C40.0224 38.17 43.3252 37.4797 45.2102 36.1689L45.2647 37.3944C45.2336 38.6199 42.0477 40.3263 36.8366 40.3263Z" fill="#8267D3"/>
<path d="M28.2681 3C27.7559 3 27.3401 3.4072 27.3401 3.90894V22.0418L20.5876 15.0984C20.2345 14.7353 19.6475 14.7203 19.2754 15.0671C18.9042 15.4134 18.8898 15.9883 19.2434 16.3519L26.9554 24.2819C27.3062 24.6255 27.7721 24.8145 28.2681 24.8145C28.7637 24.8145 29.23 24.6255 29.5962 24.266L37.2924 16.3519C37.646 15.9883 37.6312 15.4134 37.2604 15.0671C36.8897 14.7203 36.3022 14.7349 35.9486 15.0984L29.1962 22.0709V3.90894C29.1962 3.4072 28.7804 3 28.2681 3Z" fill="#8267D3"/>
</svg>
