<svg width="38" height="38" viewBox="0 0 38 38" fill="none" xmlns="http://www.w3.org/2000/svg">
<path d="M32.435 5.56492C28.8464 1.97637 24.0751 0 19 0C13.9248 0 9.15347 1.97637 5.56492 5.56492C1.9763 9.15355 0 13.9249 0 19C0 24.0751 1.9763 28.8464 5.56492 32.435C9.15355 36.0236 13.9248 38 19 38C24.0751 38 28.8464 36.0236 32.435 32.435C36.0236 28.8464 38 24.0751 38 19C38 13.9249 36.0236 9.15362 32.435 5.56492ZM19 35.7734C9.75108 35.7734 2.22656 28.2489 2.22656 19C2.22656 9.75108 9.75108 2.22656 19 2.22656C28.2489 2.22656 35.7734 9.75108 35.7734 19C35.7734 28.2489 28.2489 35.7734 19 35.7734Z" fill="#8267D3"/>
<path d="M29.0289 27.8204L24.0858 22.8773C25.3111 21.3834 26.0496 19.47 26.0496 17.3845C26.0496 12.6008 22.1681 8.71935 17.3845 8.71935C12.5966 8.71935 8.71936 12.6008 8.71936 17.3845C8.71936 22.1681 12.5966 26.0496 17.3845 26.0496C19.47 26.0496 21.3793 25.3153 22.8731 24.09L27.8162 29.0289C28.1519 29.3646 28.6932 29.3646 29.0289 29.0289C29.3646 28.6974 29.3646 28.1519 29.0289 27.8204ZM17.3845 24.325C13.5534 24.325 10.4398 21.2114 10.4398 17.3845C10.4398 13.5575 13.5534 10.4398 17.3845 10.4398C21.2114 10.4398 24.3292 13.5575 24.3292 17.3845C24.3292 21.2114 21.2114 24.325 17.3845 24.325Z" fill="#8267D3"/>
</svg>
