<svg width="57" height="56" viewBox="0 0 57 56" fill="none" xmlns="http://www.w3.org/2000/svg">
<path d="M42.907 29.6666H13.6293C13.1533 29.6666 12.7682 30.0394 12.7682 30.5V44.6666C12.7682 46.5051 14.3129 48 16.2127 48H40.3237C42.2234 48 43.7681 46.5051 43.7681 44.6666V30.5C43.7681 30.0394 43.3829 29.6666 42.907 29.6666ZM42.0459 44.6666C42.0459 45.5854 41.2731 46.3333 40.3237 46.3333H16.2127C15.2633 46.3333 14.4905 45.5854 14.4905 44.6666V31.3334H42.0459V44.6666Z" fill="#8267D3"/>
<path d="M43.5158 16.5775L34.9047 8.24414C34.7433 8.08789 34.5246 8 34.2959 8H16.2126C14.3129 8 12.7682 9.49492 12.7682 11.3334V25.5C12.7682 25.9606 13.1533 26.3334 13.6293 26.3334H42.9071C43.383 26.3334 43.7682 25.9606 43.7682 25.5V17.1666C43.7681 16.9453 43.6773 16.7338 43.5158 16.5775ZM35.157 10.8451L40.8282 16.3334H36.8792C35.9298 16.3334 35.157 15.5855 35.157 14.6667V10.8451ZM42.0459 24.6666H14.4904V11.3334C14.4904 10.4146 15.2632 9.66672 16.2126 9.66672H33.4348V14.6667C33.4348 16.5051 34.9795 18 36.8793 18H42.0459V24.6666Z" fill="#8267D3"/>
<path d="M28.9569 18.3336C28.6323 17.9137 27.904 17.9137 27.5794 18.3336L24.9961 21.667C24.7101 22.0348 24.7876 22.5573 25.1684 22.8332C25.5494 23.1099 26.0892 23.0366 26.3735 22.6664L28.2682 20.2225L30.1628 22.6663C30.3319 22.8852 30.59 23 30.8524 23C31.0324 23 31.2132 22.9454 31.3679 22.8332C31.7488 22.5573 31.8262 22.0348 31.5402 21.667L28.9569 18.3336Z" fill="#8267D3"/>
<path d="M27.5794 37.6664C27.7417 37.8764 27.9974 38.0001 28.2681 38.0001C28.5389 38.0001 28.7946 37.8764 28.9568 37.6664L31.5402 34.333C31.8261 33.9652 31.7487 33.4427 31.3678 33.1669C30.9893 32.891 30.4487 32.9642 30.1628 33.3337L28.2681 35.7776L26.3735 33.3337C26.0876 32.9634 25.5468 32.8894 25.1685 33.1669C24.7875 33.4428 24.7102 33.9653 24.9961 34.3331L27.5794 37.6664Z" fill="#8267D3"/>
</svg>
