<svg width="25px" height="21px" viewBox="0 0 25 21">
  <title>chip</title>
  <path d="M24.7952885,17.3164 C24.7952885,19.3524 23.20875,21.0004 21.2520192,21.0004 L3.54144231,21.0004 C1.58471154,21.0004 9.61538462e-05,19.3524 9.61538462e-05,17.3164 L9.61538462e-05,4.2484 C9.61538462e-05,2.2134 1.58471154,0.5654 3.54144231,0.5654 L21.2520192,0.5654 C23.20875,0.5654 24.7952885,2.2134 24.7952885,4.2484 L24.7952885,17.3164 Z" id="Fill-1" fill="#EAB407" mask="url(#mask-2)"></path>
  <path d="M21.6336538,7.0044 L21.6336538,13.6904 L16.2778846,13.6904 C16.2942308,13.5334 16.3240385,13.3794 16.3240385,13.2174 C16.3240385,12.2284 15.9855769,11.2744 15.3663462,10.5054 C15.9855769,9.7394 16.3240385,8.7834 16.3240385,7.7944 C16.3240385,7.5244 16.2942308,7.2614 16.2471154,7.0044 L21.6336538,7.0044 Z M12.2423077,16.9914 C10.2413462,16.9914 8.61442308,15.2984 8.61442308,13.2174 C8.61442308,12.2774 8.95961538,11.3704 9.58653846,10.6654 L9.72692308,10.5054 L9.58653846,10.3464 C8.95961538,9.6414 8.61442308,8.7354 8.61442308,7.7944 C8.61442308,5.7134 10.2413462,4.0214 12.2423077,4.0214 C14.2432692,4.0214 15.8711538,5.7134 15.8711538,7.7944 C15.8711538,8.7354 15.525,9.6414 14.8990385,10.3464 L14.7567308,10.5054 L14.8990385,10.6654 C15.525,11.3704 15.8711538,12.2774 15.8711538,13.2174 C15.8711538,15.2984 14.2432692,16.9914 12.2423077,16.9914 Z M8.20769231,13.6904 L5.02596154,13.6904 L5.02596154,7.0044 L8.23653846,7.0044 C8.19134615,7.2614 8.16057692,7.5244 8.16057692,7.7944 C8.16057692,8.7834 8.49903846,9.7394 9.11730769,10.5054 C8.49903846,11.2744 8.16057692,12.2284 8.16057692,13.2174 C8.16057692,13.3794 8.19134615,13.5334 8.20769231,13.6904 Z M20.2528846,0.5654 L19.8,0.5654 L19.8,6.5324 L16.1201923,6.5324 C15.6365385,4.9334 14.2788462,3.7524 12.6230769,3.5904 L12.6230769,0.5654 L12.1701923,0.5654 L12.1701923,3.5574 C10.3769231,3.5904 8.87788462,4.8334 8.36730769,6.5324 L5.02596154,6.5324 L5.02596154,0.5654 L4.57211538,0.5654 L4.57211538,6.5324 L0,6.5324 L0,7.0044 L4.57211538,7.0044 L4.57211538,13.6904 L0,13.6904 L0,14.1624 L4.57211538,14.1624 L4.57211538,21.0004 L5.02596154,21.0004 L5.02596154,14.1624 L8.27115385,14.1624 C8.68076923,16.0244 10.2663462,17.4204 12.1701923,17.4544 L12.1701923,21.0004 L12.6230769,21.0004 L12.6230769,17.4214 C14.3884615,17.2484 15.8259615,15.9204 16.2144231,14.1624 L19.8,14.1624 L19.8,21.0004 L20.2528846,21.0004 L20.2528846,14.1624 L24.7951923,14.1624 L24.7951923,13.6904 L22.0865385,13.6904 L22.0865385,7.0044 L24.7951923,7.0044 L24.7951923,6.5324 L20.2528846,6.5324 L20.2528846,0.5654 Z" id="Fill-4" fill="#CE720D" mask="url(#mask-4)"></path>
</svg>
