<svg width="365" height="143" viewBox="0 0 365 143" fill="none" xmlns="http://www.w3.org/2000/svg">
<path d="M296.5 141.25H316.5M51.5 141.5H289.5H51.5ZM34.5 141.5H46.5H34.5Z" stroke="#65A300" stroke-width="2" stroke-linecap="square"/>
<g opacity="0.509">
<path opacity="0.509" fill-rule="evenodd" clip-rule="evenodd" d="M26.5 96H80.5C82.2239 96 83.8772 96.6848 85.0962 97.9038C86.3152 99.1228 87 100.776 87 102.5C87 104.224 86.3152 105.877 85.0962 107.096C83.8772 108.315 82.2239 109 80.5 109H26.5C24.7761 109 23.1228 108.315 21.9038 107.096C20.6848 105.877 20 104.224 20 102.5C20 100.776 20.6848 99.1228 21.9038 97.9038C23.1228 96.6848 24.7761 96 26.5 96V96ZM96.5 0H199.5C201.224 0 202.877 0.684819 204.096 1.90381C205.315 3.12279 206 4.77609 206 6.5C206 8.22391 205.315 9.87721 204.096 11.0962C202.877 12.3152 201.224 13 199.5 13H96.5C94.7761 13 93.1228 12.3152 91.9038 11.0962C90.6848 9.87721 90 8.22391 90 6.5C90 4.77609 90.6848 3.12279 91.9038 1.90381C93.1228 0.684819 94.7761 0 96.5 0V0ZM8 20H298C300.122 20 302.157 20.8429 303.657 22.3431C305.157 23.8434 306 25.8783 306 28V30C306 32.1217 305.157 34.1566 303.657 35.6569C302.157 37.1571 300.122 38 298 38H8C5.87827 38 3.84344 37.1571 2.34315 35.6569C0.842855 34.1566 0 32.1217 0 30V28C0 25.8783 0.842855 23.8434 2.34315 22.3431C3.84344 20.8429 5.87827 20 8 20V20ZM205 50H357C359.122 50 361.157 50.8429 362.657 52.3431C364.157 53.8434 365 55.8783 365 58V60C365 62.1217 364.157 64.1566 362.657 65.6569C361.157 67.1571 359.122 68 357 68H205C202.878 68 200.843 67.1571 199.343 65.6569C197.843 64.1566 197 62.1217 197 60V58C197 55.8783 197.843 53.8434 199.343 52.3431C200.843 50.8429 202.878 50 205 50V50ZM205 100H295C297.122 100 299.157 100.843 300.657 102.343C302.157 103.843 303 105.878 303 108V110C303 112.122 302.157 114.157 300.657 115.657C299.157 117.157 297.122 118 295 118H205C202.878 118 200.843 117.157 199.343 115.657C197.843 114.157 197 112.122 197 110V108C197 105.878 197.843 103.843 199.343 102.343C200.843 100.843 202.878 100 205 100ZM149 124H295C297.122 124 299.157 124.843 300.657 126.343C302.157 127.843 303 129.878 303 132V134C303 136.122 302.157 138.157 300.657 139.657C299.157 141.157 297.122 142 295 142H149C146.878 142 144.843 141.157 143.343 139.657C141.843 138.157 141 136.122 141 134V132C141 129.878 141.843 127.843 143.343 126.343C144.843 124.843 146.878 124 149 124ZM39.5 73H248.5C250.224 73 251.877 73.6848 253.096 74.9038C254.315 76.1228 255 77.7761 255 79.5C255 81.2239 254.315 82.8772 253.096 84.0962C251.877 85.3152 250.224 86 248.5 86H39.5C37.7761 86 36.1228 85.3152 34.9038 84.0962C33.6848 82.8772 33 81.2239 33 79.5C33 77.7761 33.6848 76.1228 34.9038 74.9038C36.1228 73.6848 37.7761 73 39.5 73V73Z" fill="#F2F2F3"/>
</g>
<path fill-rule="evenodd" clip-rule="evenodd" d="M102.925 133H86C86.627 137.2 88.194 139.9 90.701 141.1C93.209 142.3 152.448 142.3 268.418 141.1C272.806 139.9 275 137.2 275 133H254.313" fill="white"/>
<path d="M102.925 133H86C86.627 137.2 88.194 139.9 90.701 141.1C93.209 142.3 152.448 142.3 268.418 141.1C272.806 139.9 275 137.2 275 133H254.313" stroke="#6045AF"/>
<path fill-rule="evenodd" clip-rule="evenodd" d="M102.5 52.5H263.5V133.5H102.5V52.5Z" fill="white" stroke="#6045AF"/>
<path opacity="0.7" fill-rule="evenodd" clip-rule="evenodd" d="M108.5 57.5H257.5V128.5H108.5V57.5Z" fill="#F2F2F3" stroke="#6045AF"/>
<path fill-rule="evenodd" clip-rule="evenodd" d="M169.54 46.009L166.218 35.253C165.941 34.536 166.218 34.088 167.048 33.908C168.294 33.64 173.693 31.758 183.244 32.026C189.612 32.206 194.18 32.923 196.948 34.177C197.779 34.536 198.056 34.894 197.779 35.253C197.502 35.611 196.256 39.286 194.041 46.278C201.517 47.353 205.254 48.608 205.254 50.042C205.254 51.476 202.07 52.462 195.703 53H169.54C162.065 52.641 158.327 51.656 158.327 50.042C158.327 48.429 162.065 47.084 169.54 46.009Z" fill="#65A300"/>
<path d="M197 100C200.866 100 204 96.866 204 93C204 89.134 200.866 86 197 86C193.134 86 190 89.134 190 93C190 96.866 193.134 100 197 100Z" stroke="#65A300" stroke-width="2"/>
<path d="M171 95C172.105 95 173 94.1046 173 93C173 91.8954 172.105 91 171 91C169.895 91 169 91.8954 169 93C169 94.1046 169.895 95 171 95Z" fill="#6045AF"/>
<path d="M197 95C198.105 95 199 94.1046 199 93C199 91.8954 198.105 91 197 91C195.895 91 195 91.8954 195 93C195 94.1046 195.895 95 197 95Z" fill="#6045AF"/>
<path d="M178.5 106.5H187.5" stroke="#6045AF" stroke-linecap="square"/>
<path fill-rule="evenodd" clip-rule="evenodd" d="M168.065 36.593C168.022 35.531 168.195 35.013 168.583 35.037C169.102 34.691 170.053 34.346 171.435 34L174.25 45.148L171.139 45.667L168.065 36.593ZM173 34L176 45H177V34H173Z" fill="white"/>
<path fill-rule="evenodd" clip-rule="evenodd" d="M242.784 58L242 57.216L244.216 55L245 55.784L242.784 58ZM239.216 58L237 55.784L237.784 55L240 57.216L239.216 58V58ZM242.784 60L245 62.216L244.216 63L242 60.784L242.784 60ZM239.216 60L240 60.784L237.784 63L237 62.216L239.216 60V60Z" fill="#72737A"/>
<path d="M301 122C303.209 122 305 120.209 305 118C305 115.791 303.209 114 301 114C298.791 114 297 115.791 297 118C297 120.209 298.791 122 301 122Z" stroke="#72737A" stroke-width="2"/>
<path d="M75 31C77.2091 31 79 29.2091 79 27C79 24.7909 77.2091 23 75 23C72.7909 23 71 24.7909 71 27C71 29.2091 72.7909 31 75 31Z" stroke="#72737A" stroke-width="2"/>
<path d="M88 39C89.6569 39 91 37.6569 91 36C91 34.3431 89.6569 33 88 33C86.3431 33 85 34.3431 85 36C85 37.6569 86.3431 39 88 39Z" stroke="#72737A" stroke-width="2"/>
<path fill-rule="evenodd" clip-rule="evenodd" d="M55 122V120H70V122H55ZM67 127V125H79V127H67ZM72 122V120H78V122H72ZM61 127V125H66V127H61ZM249 18V16H262V18H249ZM259 24V22H270V24H259ZM263 18V16H269V18H263ZM253 24V22H257V24H253Z" fill="#72737A"/>
<path d="M197 100V114.431C198 120.144 201.667 123 208 123C214.333 123 218 119.843 219 113.53" stroke="#65A300" stroke-width="2" stroke-dasharray="2 2"/>
<path d="M222.5 111H215.5C214.672 111 214 111.672 214 112.5C214 113.328 214.672 114 215.5 114H222.5C223.328 114 224 113.328 224 112.5C224 111.672 223.328 111 222.5 111Z" fill="#65A300"/>
</svg>
