<svg width="169" height="192" viewBox="0 0 169 192" fill="none" xmlns="http://www.w3.org/2000/svg">
<path d="M98.1748 75.4603L134.625 72.3741L132.54 102.402L100.844 104.487L98.1748 75.4603Z" fill="white"/>
<path d="M133.958 73.1248L131.873 101.818L101.344 103.82L98.7587 76.0442L133.958 73.1248ZM135.293 71.7068L97.5075 74.9598L100.26 105.155L133.041 102.986L135.293 71.7068Z" fill="#1B1C29"/>
<path d="M112.104 97.8979C111.771 97.8979 111.521 97.6476 111.521 97.314L110.436 88.8061L106.599 87.5549C106.266 87.4715 106.099 87.0545 106.182 86.8042C106.266 86.554 106.683 86.3038 106.933 86.3872L111.437 87.8886L112.605 97.1472C112.772 97.5642 112.522 97.8979 112.104 97.8979C112.188 97.8979 112.188 97.8979 112.104 97.8979Z" fill="#1B1C29"/>
<path d="M51.131 62.5316L43.0401 95.896L22.6044 108.574L32.864 71.4565L33.7815 71.0395L38.953 68.4538L39.8705 68.0367L51.131 62.5316Z" fill="#6045AF"/>
<path d="M94.5047 107.991H33.1142L31.6128 105.488L47.5443 95.8126L76.4045 78.2129L87.1645 95.8126L94.5047 107.991Z" fill="white"/>
<path d="M76.1543 79.047L86.7475 96.4799L93.4204 107.323H33.5313L32.5303 105.655L46.9604 96.8135L76.1543 79.047ZM76.5713 77.2953L46.2931 95.8126L30.7787 105.321L32.7806 108.658H95.6725L87.9153 95.896L76.5713 77.2953Z" fill="#1B1C29"/>
<path d="M50.6306 101.985C50.3803 101.985 50.2135 101.902 50.1301 101.651C49.9633 101.318 50.0467 100.984 50.3803 100.817L72.9013 87.0544C73.235 86.8876 73.5686 86.971 73.7354 87.2212C73.9022 87.5549 73.8188 87.8885 73.4852 88.0554L50.9642 101.818C50.7974 101.902 50.714 101.985 50.6306 101.985Z" fill="#1B1C29"/>
<path d="M54.6342 108.658C54.384 108.658 54.2172 108.574 54.1338 108.324C53.967 107.991 54.0504 107.657 54.384 107.49L76.905 93.7273C77.2386 93.5605 77.5723 93.6439 77.7391 93.8941C77.9059 94.1444 77.8225 94.5614 77.4889 94.7282L54.9679 108.491C54.8845 108.574 54.8011 108.658 54.6342 108.658Z" fill="#1B1C29"/>
<path d="M96.1729 22.8279C101.511 21.1597 117.109 17.0726 130.371 39.2599C143.717 61.4472 135.293 80.5484 135.293 80.5484L95.3388 78.5465C95.3388 78.5465 94.0877 56.0255 90.501 41.5954C89.7503 38.4258 87.665 25.4971 96.1729 22.8279Z" fill="#1B1C29"/>
<path d="M34.3654 70.0386C34.0317 64.7002 36.0336 55.9421 43.0401 47.2673C47.6277 49.6863 52.0485 52.4389 55.802 54.8578C53.0494 57.6938 51.3812 60.4463 50.6305 62.1145L34.3654 70.0386Z" fill="white"/>
<path d="M43.2069 48.0181C47.3775 50.2702 51.3812 52.6891 54.8845 54.9412C52.4655 57.5269 50.9642 60.0292 50.2135 61.6141L34.9492 69.121C34.8658 63.9496 36.9511 56.0255 43.2069 48.0181ZM42.8733 46.4332C35.3663 55.6084 33.1142 65.1173 33.8649 71.0395L51.2144 62.5316C51.9651 60.8633 53.7167 57.7771 56.8863 54.7743C52.2153 51.7715 47.6277 48.9356 42.8733 46.4332Z" fill="#1B1C29"/>
<path d="M47.2107 38.9262C43.8743 42.1793 38.953 47.8512 36.8677 52.6057C41.789 54.6075 51.4646 58.4444 56.3025 60.6131C58.0541 58.1942 65.6445 51.4379 69.4814 49.1858C81.8262 41.929 97.0905 38.259 97.0905 38.259L99.0089 21.3265C81.9931 19.8251 61.6408 24.9132 47.2107 38.9262Z" fill="#1B1C29"/>
<path d="M90.3341 39.0931C90.0005 39.0931 89.7503 38.8428 89.7503 38.5092L89.1664 33.6714C89.083 33.3377 89.3332 33.0041 89.7503 33.0041C90.0839 33.0041 90.4176 33.1709 90.4176 33.588L91.0015 38.4258C91.0015 38.7594 90.7512 39.0097 90.3341 39.0931Z" fill="white"/>
<path d="M41.2885 63.6159C46.6268 60.5297 46.2931 68.4538 46.2931 68.4538C46.2931 68.4538 43.9576 73.6252 47.2941 74.3759C49.3793 74.8764 54.3006 64.3666 50.5471 58.6947" fill="white"/>
<path d="M47.5443 75.0432C47.4609 75.0432 47.3775 75.0432 47.2107 75.0432C46.2932 74.793 45.6258 74.2925 45.2922 73.5418C44.3747 71.7068 45.459 68.9542 45.7093 68.3703C45.7093 67.286 45.5425 64.5334 44.2913 63.7827C43.7074 63.4491 42.7899 63.5325 41.6221 64.1998C41.2885 64.3666 40.9549 64.2832 40.788 63.9495C40.6212 63.6159 40.7046 63.2823 41.0383 63.1154C42.6231 62.1979 43.8742 62.1145 44.9586 62.6984C47.1273 64.0329 47.0439 68.0367 47.0439 68.5371V68.6206L46.9604 68.704C46.6268 69.4547 45.8761 71.7068 46.46 72.9579C46.6268 73.375 47.0438 73.6252 47.5443 73.792C47.6277 73.792 48.295 73.5418 49.1291 72.0404C51.0476 68.8708 52.549 62.7818 50.1301 59.1117C49.9633 58.8615 50.0466 58.4444 50.2969 58.2776C50.5471 58.1108 50.9642 58.1942 51.131 58.4444C54.3006 63.1154 51.7983 70.4556 49.7964 73.375C48.9623 74.5427 48.2116 75.0432 47.5443 75.0432Z" fill="#1B1C29"/>
<path d="M144.385 95.8126L133.124 102.986L124.282 108.574H22.6044L42.7065 95.8126H47.5443L31.6128 105.488L33.1142 107.991H94.5047L87.1645 95.8126H144.385Z" fill="#1B1C29"/>
<path d="M124.199 108.574H22.6044V191.068H124.199V108.574Z" fill="#6045AF"/>
<path d="M144.385 178.306L124.199 191.068V108.574L144.385 95.8126V178.306Z" fill="#6045AF"/>
<path d="M124.199 187.148C123.865 187.148 123.532 186.897 123.532 186.48V114.33C123.532 113.996 123.782 113.663 124.199 113.663C124.616 113.663 124.866 113.913 124.866 114.33V186.48C124.866 186.814 124.616 187.148 124.199 187.148Z" fill="white"/>
<path d="M53.6333 108.574V108.741C53.6333 130.345 39.8705 140.688 22.6044 141.272V108.658H53.6333V108.574Z" fill="#1B1C29"/>
<path d="M45.1254 136.934L38.0355 142.606L46.7936 146.526L45.1254 136.934Z" fill="#1B1C29"/>
<path d="M112.188 126.758H62.3914V131.763H112.188V126.758Z" fill="white"/>
<path d="M92.2526 141.188H83.5779C82.5769 141.188 81.8263 140.354 81.8263 139.437C81.8263 138.436 82.6604 137.685 83.5779 137.685H92.2526C93.2536 137.685 94.0043 138.519 94.0043 139.437C94.0877 140.437 93.2536 141.188 92.2526 141.188Z" fill="#1B1C29"/>
<path d="M101.761 141.188H98.8421C97.8411 141.188 97.0905 140.354 97.0905 139.437C97.0905 138.436 97.9245 137.685 98.8421 137.685H101.761C102.762 137.685 103.513 138.519 103.513 139.437C103.597 140.437 102.762 141.188 101.761 141.188Z" fill="#1B1C29"/>
<path d="M110.353 141.188H107.35C106.349 141.188 105.598 140.354 105.598 139.437C105.598 138.436 106.433 137.685 107.35 137.685H110.269C111.27 137.685 112.021 138.519 112.021 139.437C112.104 140.437 111.354 141.188 110.353 141.188Z" fill="#1B1C29"/>
<path d="M81.2424 159.956H23.2717V190.401H81.2424V159.956Z" fill="white"/>
<path d="M80.5751 160.623V189.817H23.8556V160.623H80.5751ZM81.8263 159.372H22.6044V191.068H81.8263V159.372Z" fill="#1B1C29"/>
<path d="M63.4758 190.317C63.309 190.317 63.2256 190.317 63.1421 190.234L23.5219 161.29C23.2717 161.123 23.1882 160.706 23.3551 160.456C23.5219 160.206 23.9389 160.122 24.1892 160.289L63.8094 189.233C64.0597 189.4 64.1431 189.817 63.9763 190.067C63.8928 190.234 63.6426 190.317 63.4758 190.317Z" fill="#1B1C29"/>
<path d="M40.8714 190.317C40.7046 190.317 40.4544 190.234 40.371 190.067C40.2042 189.817 40.2042 189.4 40.5378 189.233L79.8244 160.289C80.0746 160.122 80.4917 160.123 80.6585 160.456C80.8253 160.706 80.8253 161.123 80.4917 161.29L41.2051 190.234C41.1217 190.317 41.0383 190.317 40.8714 190.317Z" fill="#1B1C29"/>
<path d="M152.058 120.669H148.805V156.119H152.058V120.669Z" fill="#1B1C29"/>
<path d="M75.904 73.2916C75.8206 73.2916 75.8206 73.2916 75.7372 73.2916C75.4036 73.2082 75.2367 72.8745 75.3201 72.5409L76.4045 68.3703C76.4879 68.0367 76.8216 67.8698 77.1552 67.9532C77.4888 68.0367 77.6557 68.3703 77.5723 68.704L76.4879 72.8745C76.4879 73.1248 76.2377 73.2916 75.904 73.2916Z" fill="#6045AF"/>
<path d="M16.1818 88.0554L8.75818 92.8098L16.6822 96.313L16.1818 88.0554Z" fill="#1B1C29"/>
<path d="M65.4198 77.9161L60.5244 73.0208L55.6291 77.9161L60.5244 82.8115L65.4198 77.9161Z" fill="#1B1C29"/>
<path d="M80.158 104.237C79.9912 104.237 79.9078 104.154 79.741 104.07L77.0718 101.735C76.8216 101.485 76.7381 101.151 76.9884 100.817C77.2386 100.567 77.5723 100.484 77.9059 100.734L80.5751 103.069C80.8253 103.32 80.9087 103.653 80.6585 103.987C80.4916 104.154 80.3248 104.237 80.158 104.237Z" fill="#6045AF"/>
<path d="M70.3155 73.8755C70.1487 73.8755 69.8984 73.7921 69.815 73.5418L65.3943 66.5353C65.2274 66.2017 65.3109 65.868 65.5611 65.7012C65.8947 65.5344 66.2284 65.6178 66.3952 65.868L70.816 72.8745C70.9828 73.2082 70.8994 73.5418 70.6491 73.7087C70.5657 73.8755 70.4823 73.8755 70.3155 73.8755Z" fill="#6045AF"/>
<path d="M100.343 68.3703C100.177 68.3703 100.01 68.287 99.9264 68.2036C99.6762 67.9533 99.6762 67.5362 99.9264 67.286L105.181 62.0311C105.432 61.7809 105.849 61.7809 106.099 62.0311C106.349 62.2814 106.349 62.6984 106.099 62.9486L100.844 68.2036C100.594 68.3704 100.427 68.3703 100.343 68.3703Z" fill="#E4E4EF"/>
<path d="M90.3342 83.3009C90.0005 83.3009 89.7503 83.0507 89.7503 82.717L89.4167 79.5474C89.4167 79.2138 89.6669 78.8801 90.0005 78.8801C90.3342 78.8801 90.6678 79.1304 90.6678 79.464L91.0015 82.6336C91.0015 82.9673 90.7512 83.2175 90.3342 83.3009Z" fill="#6045AF"/>
<path d="M108.851 74.9598L113.022 71.7068L113.856 77.2953L108.851 74.9598Z" fill="#F2F2F9"/>
<path d="M77.2386 55.5251L81.8263 52.8559L81.993 58.8615L77.2386 55.5251Z" fill="#6045AF"/>
<path d="M51.131 88.6392C51.0475 88.6392 51.0476 88.6392 50.9642 88.6392C50.6305 88.5558 50.3803 88.2221 50.4637 87.8885L51.548 83.2175C51.6314 82.8839 51.9651 82.6336 52.2987 82.717C52.6324 82.8004 52.8826 83.1341 52.7992 83.4677L51.7148 88.1387C51.6314 88.4724 51.3812 88.6392 51.131 88.6392Z" fill="#6045AF"/>
<path d="M94.9218 107.991C101.011 104.237 109.268 102.319 119.445 102.319C122.447 102.319 125.617 102.485 128.953 102.819C129.954 102.903 130.789 103.069 131.539 103.236L124.032 107.991H94.9218V107.991Z" fill="white"/>
<path d="M119.445 101.651V102.903C122.447 102.903 125.617 103.069 128.87 103.403C129.204 103.403 129.537 103.486 129.871 103.486L123.949 107.24H97.3407C103.096 104.321 110.52 102.819 119.445 102.819V101.651ZM119.445 101.651C109.268 101.651 99.843 103.486 92.8365 108.574H124.282L133.124 102.986C132.123 102.652 130.789 102.402 129.037 102.152C125.784 101.902 122.614 101.651 119.445 101.651Z" fill="#1B1C29"/>
<path d="M27.6925 81.0488H27.6091L17.5163 79.2137C17.1827 79.1303 16.9325 78.7967 17.0159 78.4631C17.0993 78.1294 17.4329 77.8792 17.7665 77.9626L27.8593 79.7976C28.1929 79.881 28.4432 80.2147 28.3597 80.5483C28.1929 80.7986 27.9427 81.0488 27.6925 81.0488Z" fill="#1B1C29"/>
<path d="M21.6868 85.1359H21.6035C21.2698 85.0525 21.0195 84.7189 21.103 84.3852L22.938 74.2925C23.0214 73.9589 23.3551 73.7086 23.6887 73.792C24.0224 73.8754 24.2726 74.2091 24.1892 74.5427L22.3541 84.6354C22.2707 84.8857 22.0205 85.1359 21.6868 85.1359Z" fill="#1B1C29"/>
<path d="M90.3341 101.651C94.2498 101.651 97.4241 98.4771 97.4241 94.5614C97.4241 90.6457 94.2498 87.4715 90.3341 87.4715C86.4185 87.4715 83.2442 90.6457 83.2442 94.5614C83.2442 98.4771 86.4185 101.651 90.3341 101.651Z" fill="#E4E4EF"/>
<path d="M34.7824 81.8829L44.2913 89.9738L33.6981 94.8116L34.7824 81.8829Z" fill="white"/>
<path d="M35.2829 83.1341L43.1235 89.807L34.3654 93.8107L35.2829 83.1341ZM34.282 80.6318L32.9474 95.8126L45.459 90.1406L34.282 80.6318Z" fill="#1B1C29"/>
<path d="M152.058 63.5325L131.956 76.3778L124.199 108.741L144.385 95.896L152.058 63.5325Z" fill="#6045AF"/>
<path d="M126.535 107.74C126.368 107.74 126.118 107.657 126.034 107.49C125.867 107.24 125.951 106.823 126.201 106.656L141.715 96.8135C141.966 96.6467 142.383 96.7301 142.55 96.9803C142.716 97.2306 142.633 97.6476 142.383 97.8144L126.868 107.657C126.701 107.74 126.618 107.74 126.535 107.74Z" fill="white"/>
<path d="M106.766 20.9095C130.788 19.9085 153.143 26.7482 160.9 36.4239C169.408 47.0171 165.07 67.8699 154.644 73.2916C152.058 74.6262 149.139 74.9598 147.554 75.7105C142.716 77.9626 141.632 77.7124 140.047 76.4612C140.047 76.4612 136.043 78.9635 134.876 75.8773C134.876 75.8773 133.374 79.7976 130.538 78.7967C127.702 77.7958 131.122 70.0385 138.713 66.0348C146.386 62.0311 150.223 52.0218 145.969 46.0162C141.715 40.0106 115.357 32.6704 115.357 32.6704L106.766 20.9095Z" fill="white"/>
<path d="M131.539 79.6308C131.206 79.6308 130.872 79.5474 130.455 79.464C129.621 79.2138 129.12 78.4631 129.037 77.4622C128.787 74.2925 132.624 68.6206 138.546 65.5344C142.633 63.3657 145.803 59.2786 146.887 54.8578C147.638 51.6882 147.137 48.6853 145.552 46.4332C141.382 40.6779 115.608 33.4211 115.274 33.3377L115.107 33.2543L105.598 20.3256L106.766 20.2422C130.371 19.2413 153.31 25.9141 161.484 36.0069C165.654 41.2618 167.156 49.3526 165.404 57.6937C163.819 65.2007 159.982 71.2063 155.061 73.792C153.476 74.6262 151.808 75.0432 150.39 75.4603C149.389 75.7105 148.555 75.9608 147.971 76.211C143.384 78.3797 141.882 78.3797 140.131 77.1285C139.38 77.5455 137.628 78.2963 136.21 77.7958C135.793 77.629 135.376 77.3787 135.126 77.0451C134.292 78.3797 133.124 79.6308 131.539 79.6308ZM115.858 32.17C118.527 32.9207 142.383 39.8438 146.553 45.6826C148.388 48.1849 148.889 51.5213 148.055 55.108C146.97 59.8624 143.467 64.2832 139.046 66.6187C133.291 69.6215 130.038 74.8764 130.205 77.3788C130.288 78.1295 130.622 78.2128 130.789 78.2963C132.957 79.047 134.292 75.7939 134.292 75.7105L134.876 74.2091L135.46 75.7105C135.626 76.2944 135.96 76.628 136.461 76.7114C137.545 77.0451 139.213 76.2944 139.714 75.9608L140.131 75.7105L140.464 75.9608C141.715 76.9617 142.55 77.3787 147.304 75.1267C148.055 74.793 148.889 74.5428 149.89 74.2925C151.308 73.8755 152.892 73.4584 154.31 72.7077C158.898 70.2888 162.568 64.6168 164.07 57.5269C165.738 49.5194 164.403 41.8456 160.399 36.841C152.642 27.1653 130.705 20.8261 107.934 21.4934L115.858 32.17Z" fill="#1B1C29"/>
<path d="M146.136 46.0996C148.472 49.2692 148.388 53.69 146.72 57.6103C152.142 59.6122 160.316 61.5306 165.571 63.9496C169.658 55.3582 169.741 42.7632 163.319 36.0069C150.807 23.0781 130.955 19.9085 106.933 20.9095L118.277 40.5111C118.193 40.5111 141.799 40.094 146.136 46.0996Z" fill="#1B1C29"/>
<path d="M139.88 68.9542C137.712 70.4556 135.96 72.3741 134.792 74.7096C134.542 75.2101 135.293 75.6271 135.543 75.1266C136.711 72.8745 138.296 71.0395 140.381 69.7049C140.714 69.3713 140.297 68.6206 139.88 68.9542Z" fill="#1B1C29"/>
<path d="M144.551 70.3722C142.8 71.6234 141.465 73.2082 140.464 75.1266C140.214 75.6271 140.965 76.0442 141.215 75.5437C142.132 73.7921 143.384 72.2907 144.968 71.1229C145.385 70.7893 144.968 70.0386 144.551 70.3722Z" fill="#1B1C29"/>
<path d="M129.871 41.7622C129.788 41.7622 129.788 41.7622 129.704 41.7622L126.284 40.6779C125.951 40.5945 125.784 40.2608 125.867 39.9271C125.951 39.5935 126.284 39.4267 126.618 39.5101L130.038 40.5944C130.371 40.6778 130.538 41.0115 130.455 41.3451C130.371 41.5954 130.121 41.7622 129.871 41.7622Z" fill="#1B1C29"/>
<path d="M13.9309 147.11C13.7641 147.11 13.5972 147.027 13.5138 146.944L0.251457 133.681C0.00122346 133.431 0.00122346 133.014 0.251457 132.764C0.50169 132.513 0.918775 132.513 1.16901 132.764L14.4313 146.026C14.6816 146.276 14.6816 146.693 14.4313 146.944C14.2645 147.027 14.0977 147.11 13.9309 147.11Z" fill="#1B1C29"/>
<path d="M0.668512 147.11C0.50169 147.11 0.334868 147.027 0.251457 146.944C0.00122346 146.693 0.00122346 146.276 0.251457 146.026L13.5138 132.764C13.7641 132.513 14.1811 132.513 14.4313 132.764C14.6816 133.014 14.6816 133.431 14.4313 133.681L1.16901 146.944C1.00219 147.027 0.835334 147.11 0.668512 147.11Z" fill="#1B1C29"/>
<path d="M13.9297 158.454H0.667278C0.333634 158.454 0 158.204 0 157.787C0 157.37 0.250223 157.12 0.667278 157.12H13.9297C14.2633 157.12 14.5969 157.37 14.5969 157.787C14.5969 158.204 14.2633 158.454 13.9297 158.454Z" fill="#1B1C29"/>
<path d="M109.936 9.81583C109.686 9.23195 109.352 8.64804 108.935 8.06417C108.935 8.06417 108.935 8.06419 108.935 7.98078C105.098 2.47565 98.0914 0.807427 93.1702 4.22728C90.8347 5.8955 89.5001 8.48124 89.1665 11.3172C88.7494 14.4034 89.9171 17.573 91.1683 20.3256C94.0043 26.6648 100.427 29.5008 106.933 24.0791C108.351 22.9113 109.435 21.41 110.186 19.6583C112.688 19.1579 114.19 17.3228 114.44 15.0707C114.69 12.485 112.772 9.5656 109.936 9.81583Z" fill="white"/>
<path d="M99.9264 27.5824C99.2591 27.5824 98.5918 27.499 97.9245 27.3322C94.8383 26.5815 92.0857 24.1625 90.5009 20.5758C89.3332 17.9901 87.9986 14.5702 88.4991 11.2338C88.9162 7.98077 90.4175 5.31161 92.753 3.7268C95.0886 2.14199 98.0079 1.47471 100.927 2.05858C104.264 2.64246 107.35 4.72775 109.435 7.64713C109.769 8.1476 110.103 8.64809 110.353 9.23196C111.521 9.23196 112.605 9.73244 113.522 10.65C114.69 11.8177 115.274 13.5693 115.024 15.2376C114.69 17.8233 113.022 19.7417 110.603 20.3256C109.852 21.9938 108.685 23.4953 107.267 24.663C104.848 26.5815 102.345 27.5824 99.9264 27.5824ZM98.842 3.05953C96.9236 3.05953 95.0051 3.6434 93.4203 4.72775C91.3351 6.14573 90.0839 8.48124 89.6668 11.4006C89.2498 14.4034 90.4175 17.4897 91.5853 20.0754C93.0033 23.245 95.4222 25.4971 98.1748 26.1644C100.844 26.7483 103.68 25.9142 106.432 23.6621C107.767 22.5777 108.851 21.1597 109.519 19.4915L109.685 19.1578L110.019 19.0745C112.104 18.6574 113.522 17.156 113.773 14.9873C113.939 13.7361 113.439 12.3182 112.605 11.4006C112.104 10.9002 111.27 10.3163 110.019 10.3997H109.602L109.435 9.98263C109.102 9.31534 108.851 8.81488 108.518 8.31441C106.599 5.56185 103.847 3.72685 100.76 3.14297C100.093 3.14297 99.4259 3.05953 98.842 3.05953Z" fill="#1B1C29"/>
<path d="M98.8592 15.9235C99.1072 15.5354 98.9937 15.0196 98.6055 14.7715C98.2174 14.5235 97.7016 14.637 97.4535 15.0252C97.2055 15.4133 97.319 15.9291 97.7072 16.1772C98.0953 16.4252 98.6111 16.3117 98.8592 15.9235Z" fill="#1B1C29"/>
<path d="M95.172 21.827C94.3379 20.1588 93.754 18.4072 93.337 16.5721C93.2536 16.0717 94.0877 15.9048 94.1711 16.4053C94.5047 18.1569 95.0886 19.8252 95.9227 21.4934C96.1729 21.9105 95.4223 22.3275 95.172 21.827Z" fill="#1B1C29"/>
<path d="M107.433 15.8214C107.6 13.9029 109.102 12.2347 111.104 11.9845C111.604 11.9011 111.854 12.7352 111.27 12.8186C109.686 12.9854 108.434 14.2366 108.268 15.8214C108.184 16.4053 107.35 16.4053 107.433 15.8214Z" fill="#1B1C29"/>
<path d="M106.599 12.0679C106.015 14.1531 103.346 11.3172 98.2582 10.3163C96.0061 9.8992 86.4138 13.2356 84.9124 9.98259C82.6603 5.22816 88.9996 2.47563 93.0867 4.22726C92.6697 2.47563 94.6715 -0.110145 97.3407 1.22443C104.514 -2.36224 111.02 2.30879 110.186 10.3163C110.186 10.3163 107.267 11.4006 106.599 12.0679Z" fill="#1B1C29"/>
</svg>
