<svg xmlns="http://www.w3.org/2000/svg" xmlns:xlink="http://www.w3.org/1999/xlink" width="365" height="143" viewBox="0 0 365 143">
    <g fill="none" fill-rule="evenodd">
        <path stroke="#17C9B2" stroke-linecap="square" stroke-width="2" d="M51.5 141.5h238M34.5 141.5h12M296.5 141.25h20"/>
        <g fill="#D9E4EA" opacity=".509">
            <path d="M26.5 96h54a6.5 6.5 0 1 1 0 13h-54a6.5 6.5 0 1 1 0-13zM96.5 0h103a6.5 6.5 0 1 1 0 13h-103a6.5 6.5 0 1 1 0-13zM8 20h290a8 8 0 0 1 8 8v2a8 8 0 0 1-8 8H8a8 8 0 0 1-8-8v-2a8 8 0 0 1 8-8zM205 50h152a8 8 0 0 1 8 8v2a8 8 0 0 1-8 8H205a8 8 0 0 1-8-8v-2a8 8 0 0 1 8-8zM205 100h90a8 8 0 0 1 8 8v2a8 8 0 0 1-8 8h-90a8 8 0 0 1-8-8v-2a8 8 0 0 1 8-8zM149 124h146a8 8 0 0 1 8 8v2a8 8 0 0 1-8 8H149a8 8 0 0 1-8-8v-2a8 8 0 0 1 8-8zM39.5 73h209a6.5 6.5 0 1 1 0 13h-209a6.5 6.5 0 1 1 0-13z"/>
        </g>
        <g transform="translate(88 31)">
            <path fill="#FFF" stroke="#8459B9" d="M16.925 101H0c.627 4.2 2.194 6.9 4.701 8.1 2.508 1.2 61.747 1.2 177.717 0 4.388-1.2 6.582-3.9 6.582-8.1h-20.687"/>
            <path fill="#FFF" stroke="#8459B9" d="M16.5 20.5h161v81h-161z"/>
            <path fill="#EBF1F4" stroke="#8459B9" d="M22.5 25.5h149v71h-149z" opacity=".7"/>
            <path fill="#17C9B2" d="M83.54 14.009L80.218 3.253c-.277-.717 0-1.165.83-1.345 1.246-.268 6.645-2.15 16.196-1.882 6.368.18 10.936.897 13.704 2.151.831.359 1.108.717.831 1.076-.277.358-1.523 4.033-3.738 11.025 7.476 1.075 11.213 2.33 11.213 3.764 0 1.434-3.184 2.42-9.551 2.958H83.54c-7.475-.359-11.213-1.344-11.213-2.958 0-1.613 3.738-2.958 11.213-4.033z"/>
            <path fill="#FFF" d="M82.065 4.593c-.043-1.062.13-1.58.518-1.556.519-.346 1.47-.691 2.852-1.037l2.815 11.148-3.111.519-3.074-9.074zM87 2l3 11h1V2z"/>
            <circle cx="111" cy="61" r="7" stroke="#17C9B2" stroke-width="2"/>
            <circle cx="85" cy="61" r="2" fill="#9D7BC7"/>
            <circle cx="111" cy="61" r="2" fill="#9D7BC7"/>
            <path stroke="#9D7BC7" stroke-linecap="square" d="M92.5 74.5h9"/>
            <g transform="translate(111 68)">
                <path stroke="#17C9B2" stroke-dasharray="2" stroke-width="2" d="M0 0v14.431C1 20.144 4.667 23 11 23s10-3.157 11-9.47"/>
                <rect width="10" height="3" x="17" y="11" fill="#17C9B2" rx="1.5"/>
            </g>
        </g>
        <g transform="translate(58 18)">
            <path fill="#FFF" stroke="#17C9B2" d="M5 76.5A4.5 4.5 0 0 0 .5 81v39a4.5 4.5 0 0 0 4.5 4.5h43a4.5 4.5 0 0 0 4.5-4.5V81a4.5 4.5 0 0 0-4.5-4.5H5z"/>
            <rect width="47" height="43" x="3" y="79" fill="#8459B9" rx="5"/>
            <g fill="#FFF" transform="matrix(1 0 0 -1 10 110)">
                <rect width="6" height="6" rx="2"/>
                <rect width="6" height="6" x="8" rx="2"/>
                <rect width="6" height="6" x="16" rx="2"/>
                <rect width="6" height="6" x="24" rx="2"/>
                <rect width="6" height="6" x="4" y="11" rx="2"/>
                <rect width="6" height="6" x="12" y="11" rx="2"/>
                <rect width="6" height="6" x="20" y="11" rx="2"/>
                <rect width="6" height="6" x="28" y="11" rx="2"/>
            </g>
            <rect width="5" height="11" x="16.5" y="71.5" fill="#8459B9" stroke="#F0F1F2" rx="2.5"/>
            <rect width="5" height="11" x="31.5" y="71.5" fill="#8459B9" stroke="#F0F1F2" rx="2.5"/>
            <circle cx="41" cy="36" r="17" fill="#CC616A"/>
            <path fill="#FFF" stroke="#FFF" transform="translate(36 31)" d="M5 4.558L9.467.092a.313.313 0 0 1 .441.441L5.442 5l4.466 4.467a.313.313 0 0 1-.441.441L5 5.442.533 9.908a.313.313 0 0 1-.441-.441L4.558 5 .092.533A.312.312 0 1 1 .533.092L5 4.558z"/>
            <path fill="#CC616A" fill-rule="nonzero" d="M17.595 62.561l-.747-7.231.994-.103.944 9.13.091.884-.803-.381-8.292-3.935.428-.903 6.568 3.116-.362-.512.817-.577.362.512zm58.874-34.735l-.938.348c-.233-.63-.47-1.248-.712-1.855l.929-.37c.245.615.485 1.24.72 1.877zm-1.491-3.738l-.919.395a68.848 68.848 0 0 0-.81-1.815l.907-.42c.28.6.553 1.214.822 1.84zm-1.7-3.659l-.894.45a58.579 58.579 0 0 0-.92-1.757l.877-.48c.318.583.63 1.178.936 1.787zm-1.943-3.55l-.859.51a49.63 49.63 0 0 0-1.046-1.681l.838-.546c.363.557.718 1.13 1.067 1.716zm-2.2-3.38l-.814.58a42.132 42.132 0 0 0-1.186-1.582l.786-.618c.412.523.816 1.063 1.214 1.62zm-2.517-3.193l-.753.658a36.084 36.084 0 0 0-1.337-1.45l.716-.698c.466.478.924.975 1.374 1.49zm-2.853-2.92l-.674.739c-.49-.447-.988-.873-1.495-1.28l.626-.78c.523.42 1.038.86 1.543 1.32zM60.62 4.86l-.575.82A28.802 28.802 0 0 0 58.4 4.605l.517-.856c.577.35 1.145.72 1.704 1.111zm-3.497-2.11l-.456.89a27.654 27.654 0 0 0-1.78-.832l.392-.92c.624.265 1.239.553 1.844.862zm-3.77-1.6l-.324.946a28.225 28.225 0 0 0-1.88-.572l.257-.966c.658.175 1.307.373 1.947.592zM49.389.095l-.19.982a30.517 30.517 0 0 0-1.943-.312l.127-.992c.678.087 1.346.194 2.006.322zm-4.069-.52l-.065.997a34.494 34.494 0 0 0-1.97-.07l.008-1c.684.005 1.36.03 2.027.073zm-4.075-.043l.037 1c-.665.025-1.323.064-1.971.118l-.083-.997a44.581 44.581 0 0 1 2.017-.12zm-4.037.337l.13.992c-.66.086-1.31.189-1.951.306l-.18-.984a40.16 40.16 0 0 1 2.001-.314zm-4.003.736l.233.973c-.645.154-1.28.324-1.905.51l-.285-.958a36.871 36.871 0 0 1 1.957-.525zm-3.877 1.156l.339.94c-.623.225-1.234.466-1.833.723l-.394-.92a34.749 34.749 0 0 1 1.888-.743zm-3.75 1.608l.448.894a32.74 32.74 0 0 0-1.734.935l-.501-.865a33.74 33.74 0 0 1 1.787-.964zM22.06 5.407l.553.834c-.55.364-1.085.743-1.609 1.137l-.601-.799c.539-.406 1.091-.797 1.657-1.172zm-3.23 2.432l.647.762c-.502.426-.99.866-1.464 1.32l-.69-.723c.487-.467.99-.92 1.506-1.36zm-2.945 2.815l.732.682c-.45.482-.884.976-1.303 1.48l-.77-.64c.433-.518.88-1.026 1.341-1.522zm-2.61 3.139l.803.596c-.394.53-.772 1.07-1.133 1.616l-.834-.552c.371-.56.76-1.115 1.164-1.66zm-2.236 3.38l.862.506a36.631 36.631 0 0 0-.954 1.727l-.888-.459a37.63 37.63 0 0 1 .98-1.775zm-1.856 3.59l.912.41c-.28.625-.53 1.235-.75 1.82l-.936-.35c.226-.605.485-1.235.774-1.88zm-1.409 3.81l.964.266c-.15.547-.234.976-.237 1.146 0 .194-.031.427-.1.797l-.983-.181c.058-.313.083-.502.083-.625.005-.284.102-.78.273-1.402zm-.735 3.993l.984.178c-.119.655-.22 1.292-.307 1.952l-.991-.13c.089-.678.193-1.33.314-2zm-.526 4.017l.997.078c-.05.647-.085 1.303-.1 1.97l-1-.024c.016-.685.05-1.359.103-2.024zm-.097 4.06l1-.03c.02.65.057 1.306.113 1.969l-.997.084a37.908 37.908 0 0 1-.116-2.023zm.339 4.033l.99-.136c.09.646.195 1.295.32 1.948l-.983.187a39.375 39.375 0 0 1-.327-1.999zm.757 3.988l.972-.236c.154.634.325 1.27.513 1.908l-.96.283a41.653 41.653 0 0 1-.525-1.955zm1.148 3.892l.944-.327c.214.616.444 1.234.69 1.853l-.928.37a44.768 44.768 0 0 1-.706-1.896zm1.501 3.771l.912-.41c.268.595.551 1.191.85 1.788l-.894.447a48.745 48.745 0 0 1-.868-1.825zm1.805 3.608l.876-.483c.315.572.645 1.144.989 1.716l-.857.516a53.56 53.56 0 0 1-1.008-1.75zm2.142 3.425l.817-.577 1.154 1.633-.816.577-1.155-1.633z"/>
        </g>
    </g>
</svg>
