<svg xmlns="http://www.w3.org/2000/svg" xmlns:xlink="http://www.w3.org/1999/xlink" width="12" height="12" viewBox="0 0 12 12">
    <defs>
        <path id="a" d="M9.754 9.75V7.5c-.013-1.977-1.759-3.75-3.753-3.75-2.008 0-3.754 1.773-3.754 3.75v2.25c0 .51-.061 1.894-.375 2.251h8.257c-.313-.357-.388-1.741-.375-2.25zm1.877 3.001H.37c-.495-.001-.495-.75 0-.75.729 0 1.095-.76 1.126-1.5v-3C1.467 5.12 3.604 3 6 3c2.407 0 4.544 1.746 4.504 4.125v3.376c.04.74.402 1.5 1.126 1.5.499 0 .485.75 0 .75zM6.44 14.042a.376.376 0 0 1 .623.418c-.227.339-.631.54-1.062.54-.431 0-.835-.201-1.063-.54a.375.375 0 1 1 .624-.418.528.528 0 0 0 .439.208.528.528 0 0 0 .439-.208z"/>
    </defs>
    <use fill="#C3232A" fill-rule="nonzero" transform="translate(0 -3)" xlink:href="#a"/>
</svg>
