<svg xmlns="http://www.w3.org/2000/svg" width="16" height="11" viewBox="0 0 16 11">
    <g fill="#7052C8" fill-rule="nonzero">
        <path d="M14.772 9.978h.023a.445.445 0 0 0 .323-.11.375.375 0 0 0 .122-.314V1.092A.362.362 0 0 0 15.118.8a.464.464 0 0 0-.346-.11L1.205.688a.445.445 0 0 0-.323.11.375.375 0 0 0-.122.314v8.462a.362.362 0 0 0 .122.293.464.464 0 0 0 .346.11h13.544zm-13.521.687a1.249 1.249 0 0 1-.905-.311 1.004 1.004 0 0 1-.344-.8v-8.42C-.017.828.108.53.347.314c.238-.217.568-.33.882-.312h13.521c.337-.018.667.095.905.311.239.217.364.515.344.8v8.42c.02.306-.105.604-.344.82-.235.214-.56.327-.892.312H1.25z"/>
        <path d="M2.717 8.23v-1H6.34v1zM11.466 6.573c-.402 0-.729.31-.729.692 0 .382.327.691.729.691h1.647c.402 0 .728-.31.728-.691 0-.382-.326-.692-.728-.692h-1.647zm0-.676h1.647c.795 0 1.44.613 1.44 1.368 0 .755-.645 1.367-1.44 1.367h-1.647c-.796 0-1.44-.612-1.44-1.367s.644-1.368 1.44-1.368z"/>
        <ellipse cx="3.019" cy="3.829" rx="1" ry="1"/>
        <ellipse cx="4.528" cy="3.829" rx="1" ry="1"/>
        <ellipse cx="6.038" cy="3.829" rx="1" ry="1"/>
        <ellipse cx="7.547" cy="3.829" rx="1" ry="1"/>
        <ellipse cx="9.057" cy="3.829" rx="1" ry="1"/>
        <ellipse cx="10.566" cy="3.829" rx="1" ry="1"/>
    </g>
</svg>
