<svg xmlns="http://www.w3.org/2000/svg" width="16" height="16" viewBox="0 0 16 16">
    <g fill="none" fill-rule="evenodd">
        <path fill="#F5F5F5" d="M1 0h14a1 1 0 0 1 1 1v14a1 1 0 0 1-1 1H1a1 1 0 0 1-1-1V1a1 1 0 0 1 1-1z"/>
        <path fill="#F79F1A" d="M9.931 5C9.2 5 8.53 5.25 8 5.669A2.968 2.968 0 0 1 9.138 8c0 .941-.443 1.782-1.138 2.331.53.418 1.2.669 1.931.669C11.627 11 13 9.657 13 8c0-1.656-1.373-3-3.069-3"/>
        <path fill="#EA001B" d="M6.863 8c0-.941.443-1.782 1.137-2.331A3.1 3.1 0 0 0 6.069 5C4.374 5 3 6.344 3 8s1.374 3 3.069 3A3.1 3.1 0 0 0 8 10.331 2.967 2.967 0 0 1 6.863 8"/>
        <path fill="#FF5F01" d="M9 8c0-.808-.39-1.528-1-2-.61.472-1 1.192-1 2s.39 1.528 1 2c.61-.472 1-1.192 1-2"/>
    </g>
</svg>
