<svg xmlns="http://www.w3.org/2000/svg" width="16" height="16" viewBox="0 0 16 16">
    <g fill="#7052C8" fill-rule="evenodd">
        <path d="M8 10.199a.946.946 0 0 1-.943-.943.312.312 0 0 0-.313-.313.312.312 0 0 0-.313.313c0 .758.54 1.393 1.256 1.538v.347c0 .176.142.313.313.313a.315.315 0 0 0 .313-.313v-.347a1.572 1.572 0 0 0-.317-3.111.946.946 0 0 1-.943-.943c0-.519.424-.943.943-.943.518 0 .943.424.943.943a.312.312 0 1 0 .626 0c0-.759-.54-1.393-1.256-1.539v-.347a.312.312 0 0 0-.313-.313.315.315 0 0 0-.313.313v.347A1.572 1.572 0 0 0 8 8.313a.943.943 0 1 1 0 1.886z"/>
        <path fill-rule="nonzero" d="M8 16c4.407 0 8-3.587 8-8s-3.593-8-8-8-8 3.593-8 8 3.593 8 8 8zM8 .844A7.162 7.162 0 0 1 15.156 8 7.162 7.162 0 0 1 8 15.156 7.162 7.162 0 0 1 .844 8 7.162 7.162 0 0 1 8 .844z"/>
    </g>
</svg>
