<svg xmlns="http://www.w3.org/2000/svg" width="16" height="11" viewBox="0 0 16 11">
    <g fill="#49A8D3" fill-rule="nonzero">
        <path d="M14.772 9.978h.023a.445.445 0 0 0 .323-.11.375.375 0 0 0 .122-.314V1.092A.362.362 0 0 0 15.118.8a.464.464 0 0 0-.346-.11L1.205.688a.445.445 0 0 0-.323.11.375.375 0 0 0-.122.314v8.462a.362.362 0 0 0 .122.293.464.464 0 0 0 .346.11h13.544zm-13.521.687a1.249 1.249 0 0 1-.905-.311 1.004 1.004 0 0 1-.344-.8v-8.42C-.017.828.108.53.347.314c.238-.217.568-.33.882-.312h13.521c.337-.018.667.095.905.311.239.217.364.515.344.8v8.42c.02.306-.105.604-.344.82-.235.214-.56.327-.892.312H1.25z"/>
        <path d="M3 8V7h10v1z"/>
        <ellipse cx="4.019" cy="4.829" rx="1" ry="1"/>
        <ellipse cx="5.528" cy="4.829" rx="1" ry="1"/>
        <ellipse cx="7.038" cy="4.829" rx="1" ry="1"/>
        <ellipse cx="8.547" cy="4.829" rx="1" ry="1"/>
        <ellipse cx="10.057" cy="4.829" rx="1" ry="1"/>
        <ellipse cx="11.566" cy="4.829" rx="1" ry="1"/>
    </g>
</svg>
