<svg xmlns="http://www.w3.org/2000/svg" width="16" height="16" viewBox="0 0 16 16">
    <g fill="#7052C8" fill-rule="evenodd">
        <path fill-rule="nonzero" d="M7.9 0C3.544 0 0 3.589 0 8c0 4.41 3.544 8 7.9 8h7.706c.16 0 .303-.097.364-.246a.404.404 0 0 0-.085-.434l-2.033-2.059a8.014 8.014 0 0 0 1.95-5.26C15.8 3.588 12.255 0 7.9 0zm0 15.202C3.978 15.202.787 11.971.787 8 .787 4.028 3.978.798 7.9.798c3.922 0 7.113 3.231 7.113 7.202 0 1.87-.705 3.642-1.984 4.99h-.001l-.001.002-.004.004c-.012.012-.017.03-.027.042-.021.03-.044.057-.057.09-.006.016-.006.035-.01.052-.008.033-.017.065-.016.097 0 .022.008.042.012.063.005.03.007.058.018.085.01.026.03.046.045.07.013.019.022.042.039.06l.005.005 1.621 1.643H7.9z"/>
        <path d="M10.838 5.168l-2.61 2.611-2.61-2.611-.45.45 2.61 2.61-2.61 2.61.45.451 2.61-2.61 2.61 2.61.451-.45-2.611-2.61 2.611-2.61z"/>
    </g>
</svg>
