<svg xmlns="http://www.w3.org/2000/svg" width="16" height="16" viewBox="0 0 16 16">
    <path fill="#7052C8" fill-rule="nonzero" d="M3.449 13.306C4.692 14.986 6.8 15.997 9.063 16a7.93 7.93 0 0 0 2.085-.282c2.907-.756 4.891-3.142 4.851-5.834v-4.59a1.512 1.512 0 0 0-.544-1.137 1.782 1.782 0 0 0-1.212-.424 1.837 1.837 0 0 0-.84.229v-1.74c.001-.569-.358-1.09-.929-1.347a1.876 1.876 0 0 0-1.772.129C10.439.347 9.705-.064 8.925.008c-.78.073-1.402.61-1.506 1.302a1.88 1.88 0 0 0-1.735-.06c-.547.264-.887.774-.886 1.327v6.27L3.766 7.483c-.588-.784-1.73-1.072-2.694-.68-.49.198-.858.579-1.004 1.04-.146.46-.055.955.247 1.35l3.134 4.113zM1.403 7.451c.608-.248 1.328-.066 1.7.428l1.763 2.333c.098.13.28.188.448.142.169-.046.284-.184.284-.34V2.577c0-.441.403-.8.9-.8s.9.359.9.8c0 .014.002.027.004.04v5.739c0 .196.18.355.4.355.221 0 .4-.16.4-.355V1.51c0-.442.403-.8.9-.8.498 0 .9.358.9.8v6.845a.35.35 0 0 0 .2.307.444.444 0 0 0 .4 0 .35.35 0 0 0 .2-.307V2.222c0-.286.172-.55.45-.694a.999.999 0 0 1 .901 0c.28.144.45.408.45.694V5.18l-.003.066c0 .011.002.021.003.032V8.89a.35.35 0 0 0 .2.308.444.444 0 0 0 .4 0 .35.35 0 0 0 .2-.308V5.212c.016-.418.394-.754.865-.768a.922.922 0 0 1 .63.224c.192.164.3.39.301.626v4.59c.036 2.379-1.717 4.486-4.286 5.154-2.548.728-5.33-.143-6.802-2.13L.977 8.794a.83.83 0 0 1-.139-.76.954.954 0 0 1 .565-.584z"/>
</svg>
