<svg xmlns="http://www.w3.org/2000/svg" width="16" height="13" viewBox="0 0 16 13">
    <g fill="none" fill-rule="evenodd">
        <path d="M0-1h16v16H0z"/>
        <path fill="#7052C8" fill-rule="nonzero" d="M14.602 5.903c.044-.282.066-.568.067-.853-.005-2.384-1.543-4.441-3.694-4.938-2.15-.497-4.33.7-5.231 2.874a2.803 2.803 0 0 0-2.314.387c-.692.463-1.18 1.21-1.354 2.07C.535 6.249-.288 8.102.092 9.91c.38 1.808 1.864 3.09 3.574 3.091h8.669c1.562-.001 2.952-1.075 3.463-2.675.511-1.6.031-3.375-1.196-4.422zm-2.267 6.374H3.666C2.24 12.278 1.008 11.19.724 9.672c-.284-1.517.457-3.04 1.772-3.643a.358.358 0 0 0 .2-.278c.107-.753.521-1.413 1.127-1.797a2.175 2.175 0 0 1 1.997-.187.31.31 0 0 0 .257 0 .352.352 0 0 0 .173-.206C6.923 1.596 8.796.434 10.7.8c1.903.365 3.293 2.154 3.302 4.25a4.905 4.905 0 0 1-.093.928.376.376 0 0 0 .133.362c1.088.806 1.564 2.288 1.172 3.652-.393 1.365-1.56 2.292-2.879 2.285zm-2.38-1.807a.33.33 0 0 1-.287.177.314.314 0 0 1-.17-.05 2.716 2.716 0 0 0-3 0 .32.32 0 0 1-.426-.148.381.381 0 0 1 .092-.474 3.33 3.33 0 0 1 3.667 0 .359.359 0 0 1 .157.22.388.388 0 0 1-.033.275zM5.57 6.752l-.1.105.1.104c.063.068.099.16.099.257a.377.377 0 0 1-.099.257.321.321 0 0 1-.237.106.321.321 0 0 1-.236-.106L5 7.366l-.097.109a.321.321 0 0 1-.236.106.321.321 0 0 1-.237-.106.377.377 0 0 1-.099-.257c0-.096.036-.189.099-.257l.1-.104-.1-.105a.385.385 0 0 1 0-.513.317.317 0 0 1 .473 0L5 6.347l.097-.108a.317.317 0 0 1 .473 0c.131.141.131.371 0 .513zm6.002 0l-.1.105.1.104c.063.068.098.16.098.257a.377.377 0 0 1-.098.257.321.321 0 0 1-.237.106.321.321 0 0 1-.237-.106l-.097-.109-.096.109a.321.321 0 0 1-.237.106.321.321 0 0 1-.237-.106.377.377 0 0 1-.098-.257c0-.096.035-.189.098-.257l.1-.104-.1-.105a.385.385 0 0 1 0-.513.317.317 0 0 1 .474 0l.096.108.097-.108a.317.317 0 0 1 .474 0c.13.141.13.371 0 .513z"/>
    </g>
</svg>
