<svg xmlns="http://www.w3.org/2000/svg" width="16" height="16" viewBox="0 0 16 16">
    <g fill="#7052C8" fill-rule="evenodd">
        <path d="M9.838 4.168l-2.61 2.611-2.61-2.611-.45.45 2.61 2.61-2.61 2.61.45.451 2.61-2.61 2.61 2.61.451-.45-2.611-2.61 2.611-2.61z"/>
        <path fill-rule="nonzero" d="M6.946 13.893a6.916 6.916 0 0 0 4.438-1.609L15.099 16l.901-.901-3.715-3.716a6.92 6.92 0 0 0 1.607-4.437A6.954 6.954 0 0 0 6.946 0 6.954 6.954 0 0 0 0 6.946c0 3.83 3.116 6.947 6.946 6.947zm0-12.62a5.678 5.678 0 0 1 5.671 5.672 5.678 5.678 0 0 1-5.671 5.672 5.678 5.678 0 0 1-5.67-5.672 5.676 5.676 0 0 1 5.67-5.672z"/>
    </g>
</svg>
