<svg xmlns="http://www.w3.org/2000/svg" width="16" height="16" viewBox="0 0 16 16">
    <path fill="#C3232A" fill-rule="nonzero" d="M.624 2.962a14.99 14.99 0 0 0 3.55-.965A17.15 17.15 0 0 0 7.524.144a.852.852 0 0 1 .962.009 16.446 16.446 0 0 0 3.34 1.844c1.099.448 2.293.793 3.572.974.348.052.602.301.602.586 0 3.05-.497 5.411-1.701 7.376-1.205 1.99-3.107 3.542-5.919 4.98a.89.89 0 0 1-.782-.008c-2.8-1.43-4.692-2.99-5.907-4.972C.497 8.968 0 6.607 0 3.557c0-.302.275-.552.624-.595zm4.702 5.196c-.285-.232-.285-.603 0-.836a.84.84 0 0 1 1.025 0L7.746 8.46l2.674-2.172c.275-.232.74-.232 1.025-.008.275.232.286.612 0 .836l-3.18 2.602a.853.853 0 0 1-1.026 0l-1.913-1.56zm-.507-5.11c-1.057.431-2.177.776-3.36.991.052 2.637.507 4.688 1.532 6.368 1.025 1.69 2.642 3.042 5.009 4.3 2.357-1.258 3.974-2.61 4.999-4.3 1.035-1.68 1.49-3.73 1.543-6.368a17.018 17.018 0 0 1-3.372-.99A17.657 17.657 0 0 1 8 1.358a17.756 17.756 0 0 1-3.181 1.69z"/>
</svg>
