<svg xmlns="http://www.w3.org/2000/svg" width="16" height="16" viewBox="0 0 16 16">
    <g fill="#7052C8" fill-rule="evenodd">
        <path d="M4.376 5.69c-.275.472-.955.03-.68-.44 1.209-2.072 3.347-3.332 5.655-3.332 3.663 0 6.635 3.13 6.635 6.986 0 3.857-2.972 6.987-6.635 6.987-2.308 0-4.446-1.262-5.655-3.332-.275-.47.405-.912.68-.441 1.066 1.826 2.94 2.93 4.975 2.93 3.226 0 5.835-2.747 5.835-6.144 0-3.396-2.61-6.144-5.835-6.144-2.036 0-3.908 1.104-4.975 2.93z"/>
        <path d="M8.955 5.622c0-.552.797-.552.797 0l-.002 3.09 1.73 1.578c.396.36-.126.995-.522.635L9.09 9.222a.43.43 0 0 1-.138-.318l.002-3.282h.001zM6.721.841c-.526 0-.526-.841 0-.841h5.26c.525 0 .525.841 0 .841H6.72zM2.253 7.507c-.526 0-.526-.842 0-.842h3.836c.526 0 .526.842 0 .842H2.253zM1.324 9.325c-.526 0-.526-.841 0-.841H6.09c.526 0 .526.84 0 .84H1.324zM.395 11.143c-.526 0-.526-.841 0-.841H6.09c.526 0 .526.841 0 .841H.395z"/>
    </g>
</svg>
