<svg xmlns="http://www.w3.org/2000/svg" width="16" height="16" viewBox="0 0 16 16">
    <g fill="none" fill-rule="evenodd">
        <path fill="#F5F5F5" d="M1 0h14a1 1 0 0 1 1 1v14a1 1 0 0 1-1 1H1a1 1 0 0 1-1-1V1a1 1 0 0 1 1-1z"/>
        <path fill="#F79F1A" fill-rule="nonzero" d="M4 8l-.434-1.689c-.074-.233-.29-.302-.56-.311H1.019L1 6.077C2.55 6.382 3.574 7.117 4 8z"/>
        <path fill="#059BBF" fill-rule="nonzero" d="M4.215 9.999l-1.2.001L2 6.66c.73.449 1.352 1.163 1.57 1.66l.119.412L4.799 6H6L4.215 9.999zM8 6l-.77 4H6l.769-4H8zm2.854 2.676c-.007.805-.69 1.324-1.74 1.324-.449-.004-.88-.098-1.114-.206l.14-.869.128.062c.33.145.541.204.942.204.287 0 .595-.119.597-.378.003-.17-.128-.291-.517-.48-.379-.186-.882-.497-.876-1.054C8.42 6.525 9.116 6 10.104 6c.388 0 .698.084.896.162l-.136.84-.09-.044a1.76 1.76 0 0 0-.748-.149c-.392 0-.573.173-.573.333-.002.182.211.301.561.48.577.278.844.614.84 1.054zm1.55.723l1.427.001c.033.14.135.6.135.6H15l-.902-4h-.86c-.267 0-.466.071-.583.331L11 10h1.17s.19-.493.234-.601zm.764-1.939c-.006.011.092-.231.148-.382l.076.345.257 1.156h-.925c.093-.23.444-1.119.444-1.119z"/>
    </g>
</svg>
