<svg width="215" height="264" viewBox="0 0 215 264" fill="none" xmlns="http://www.w3.org/2000/svg">
<path d="M209.126 56.2543H100.715C97.1378 56.2543 94.5727 52.7441 95.7203 49.3689C98.758 39.986 106.521 33.8432 116.984 33.3032C129.81 32.6281 139.125 42.7536 139.125 42.7536C139.125 42.7536 147.698 -7.87391 180.775 1.57657C213.851 11.027 199 47.8164 199 47.8164C199 47.8164 204.198 45.5213 209.531 45.7238C216.281 46.0613 215.944 56.2543 209.126 56.2543Z" fill="white"/>
<path d="M209.126 56.7946H100.715C98.8249 56.7946 97.1374 55.9171 96.0574 54.432C94.9773 52.9469 94.6397 51.0568 95.2473 49.3017C98.4199 39.5812 106.52 33.4384 116.983 32.8984C127.919 32.3584 136.424 39.5137 138.854 41.8088C139.867 36.7461 145.402 12.9174 159.983 3.73695C166.126 -0.178245 173.214 -0.988277 180.909 1.17183C190.022 3.73696 196.367 8.66469 199.81 15.7525C205.75 27.8356 201.295 42.8889 199.878 47.0066C201.7 46.3316 205.548 45.1165 209.598 45.319C213.378 45.454 215.066 48.4242 214.998 51.1243C214.863 53.892 212.838 56.7946 209.126 56.7946ZM118.131 33.776C117.726 33.776 117.321 33.776 116.916 33.776C106.925 34.316 99.1625 40.1888 96.1248 49.5042C95.6523 50.9218 95.9223 52.4744 96.7999 53.7569C97.7449 55.0395 99.095 55.7146 100.648 55.7146H209.058C212.231 55.7146 213.783 53.2844 213.851 50.9893C213.918 48.6942 212.568 46.3316 209.395 46.1966C204.265 45.994 199.135 48.2217 199.068 48.2217L197.92 48.7617L198.392 47.6142C198.46 47.4116 205.48 29.7257 198.797 16.0901C195.49 9.27222 189.347 4.54699 180.504 2.04937C173.079 -0.0432383 166.328 0.766786 160.388 4.47947C144.457 14.5375 139.529 42.5514 139.529 42.8214L139.327 43.8339L138.652 43.0914C138.652 43.0239 130.012 33.776 118.131 33.776Z" fill="#1B1C29"/>
<path d="M13.6362 97.9038C18.3614 92.5035 25.8543 90.8834 30.4445 96.8912C30.4445 96.8912 33.6172 72.7925 58.931 76.9777C75.8743 79.7454 75.1993 96.9587 72.9042 108.029C71.7566 113.497 66.8964 117.412 61.2936 117.412H22.7491C12.6236 117.412 7.02083 105.532 13.6362 97.9038Z" fill="white"/>
<path d="M61.2928 117.885H22.7483C17.8205 117.885 13.4329 115.05 11.4078 110.527C9.38265 106.14 10.1251 101.144 13.2978 97.4991C16.1329 94.2589 19.9807 92.3688 23.4909 92.5038C26.056 92.5713 28.3511 93.7189 30.1736 95.6765C30.7812 92.8414 32.9413 85.0784 39.6241 80.0832C44.6869 76.303 51.2347 75.0879 59.0651 76.3705C64.3979 77.2481 68.4481 79.6107 71.0808 83.4584C75.806 90.3437 74.996 100.604 73.4434 108.03C72.2283 113.767 67.0981 117.885 61.2928 117.885ZM23.0858 93.5839C19.9131 93.5839 16.538 95.339 13.9728 98.2416C11.0702 101.549 10.4627 106.14 12.2853 110.19C14.1753 114.375 18.1581 116.94 22.6808 116.94H61.2252C66.6255 116.94 71.2832 113.16 72.3633 107.962C73.8483 100.739 74.6584 90.7488 70.1357 84.2009C67.7056 80.6232 63.8578 78.3956 58.7951 77.5856C51.2347 76.3705 44.9569 77.5181 40.0967 81.0957C32.3338 86.901 30.9162 96.959 30.8487 97.0941L30.7137 98.3091L29.9712 97.3641C28.2161 95.069 25.9209 93.7864 23.3558 93.7189C23.2883 93.5839 23.2208 93.5839 23.0858 93.5839Z" fill="#1B1C29"/>
<path d="M120.632 259.642L87.2852 259.44C87.3527 258.495 87.4201 257.415 87.4876 256.267C87.4876 256.065 87.4876 255.795 87.4876 255.592C87.6901 250.124 87.6902 243.441 87.6902 243.441C94.643 241.416 97.9506 240.134 105.106 239.054C105.849 242.969 107.199 245.737 108.751 247.829C108.886 248.032 109.021 248.167 109.224 248.369C109.561 248.774 109.899 249.112 110.236 249.449C110.439 249.652 110.574 249.787 110.776 249.922C112.599 251.542 114.556 252.487 116.244 253.229C117.594 253.837 118.607 254.715 119.214 255.66C119.349 255.862 119.484 256.132 119.619 256.335C120.564 257.955 120.632 259.642 120.632 259.642Z" fill="white"/>
<path d="M121.171 260.182L86.7441 259.912L86.8116 259.372C86.8791 258.427 86.9467 257.347 87.0142 256.2V255.525C87.2167 250.124 87.2166 243.442 87.2166 243.374V242.969L87.5541 242.834C88.9717 242.429 90.1868 242.024 91.3344 241.686C95.9246 240.269 99.2998 239.324 105.038 238.379L105.51 238.311L105.578 238.784C106.253 242.226 107.4 245.129 109.155 247.289L109.223 247.357C109.358 247.492 109.425 247.627 109.56 247.762C109.898 248.167 110.235 248.504 110.573 248.842C110.775 248.977 110.91 249.179 111.113 249.314C112.868 250.867 114.826 251.812 116.446 252.487C117.728 253.027 118.808 253.905 119.618 255.12C119.753 255.322 119.888 255.592 120.091 255.862C121.103 257.685 121.171 259.372 121.171 259.507V260.182ZM87.8242 258.9L120.091 259.102C120.023 258.495 119.753 257.482 119.213 256.47C119.078 256.267 118.943 256.065 118.808 255.862C118.066 254.85 117.188 254.107 116.041 253.567C114.353 252.824 112.328 251.879 110.438 250.192C110.235 250.057 110.1 249.854 109.898 249.719C109.56 249.382 109.223 249.044 108.885 248.639C108.75 248.504 108.615 248.369 108.48 248.167L108.413 248.099C106.658 245.872 105.443 243.036 104.7 239.594C99.2998 240.471 96.0596 241.484 91.6719 242.766C90.5919 243.104 89.5117 243.442 88.2292 243.779C88.2292 245.264 88.2292 250.867 88.0267 255.592V256.267C87.9592 257.212 87.8917 258.09 87.8242 258.9Z" fill="#1B1C29"/>
<path d="M108.75 247.762C108.885 247.964 109.02 248.099 109.155 248.302C107.804 248.909 106.454 249.584 105.104 250.192C104.699 250.394 104.362 249.787 104.767 249.652C106.117 249.044 107.467 248.437 108.75 247.762Z" fill="#1B1C29"/>
<path d="M110.235 249.382C110.438 249.585 110.573 249.72 110.775 249.855C109.29 250.597 107.738 251.272 106.253 252.015C105.848 252.217 105.51 251.61 105.915 251.475C107.333 250.732 108.75 250.057 110.235 249.382Z" fill="#1B1C29"/>
<path d="M81.4104 262.815L49.5488 252.96C49.8863 252.015 50.2913 250.935 50.6964 249.787C50.7639 249.585 50.8314 249.382 50.8989 249.18C52.654 243.982 54.5441 237.771 54.5441 237.771C61.767 237.839 65.3446 237.569 72.5 238.581C72.095 242.564 72.5675 245.602 73.5125 248.032C73.58 248.234 73.7151 248.437 73.7826 248.64C73.9851 249.112 74.1876 249.517 74.4576 249.99C74.5926 250.192 74.7276 250.395 74.7951 250.597C76.0777 252.69 77.6977 254.175 79.1153 255.322C80.4653 256.47 81.1404 257.887 81.4779 259.17C81.5454 259.44 81.6129 259.71 81.6129 259.913C81.7479 261.533 81.4104 262.815 81.4104 262.815Z" fill="white"/>
<path d="M81.8136 263.423L48.9395 253.23L49.142 252.757C49.4795 251.88 49.8845 250.8 50.2895 249.585C50.357 249.382 50.4246 249.18 50.4921 248.91C52.2472 243.847 54.0697 237.636 54.1372 237.569L54.2722 237.231H54.6772C56.1623 237.231 57.4449 237.231 58.66 237.231C63.4527 237.231 66.9628 237.231 72.7006 238.041L73.1732 238.109L73.1057 238.582C72.7007 242.159 73.0381 245.129 74.0507 247.762C74.1182 247.965 74.1857 248.167 74.3207 248.37C74.5232 248.842 74.7257 249.247 74.9283 249.652C75.0633 249.855 75.1308 250.057 75.2658 250.26C76.5483 252.285 78.1009 253.702 79.4509 254.85C80.7335 255.93 81.5436 257.347 81.9486 258.968C82.0161 259.238 82.0836 259.508 82.0836 259.778C82.2861 261.533 82.0161 262.815 81.9486 262.883L81.8136 263.423ZM50.222 252.622L81.0036 262.14C81.0711 261.668 81.1386 260.858 81.0036 259.913C81.0036 259.71 80.9361 259.44 80.8686 259.238C80.5311 257.82 79.7885 256.605 78.7084 255.66C77.2909 254.445 75.6033 252.96 74.3207 250.8C74.1857 250.597 74.0507 250.395 73.9157 250.192C73.6457 249.787 73.4432 249.315 73.2407 248.842C73.1732 248.64 73.0381 248.437 72.9706 248.167C71.9581 245.534 71.6206 242.429 71.8906 238.987C66.4903 238.244 63.1151 238.244 58.4574 238.244C57.3774 238.244 56.1623 238.244 54.8798 238.244C54.4748 239.662 52.8546 244.859 51.3696 249.247C51.3021 249.45 51.2346 249.652 51.1671 249.855C50.8296 250.935 50.492 251.812 50.222 252.622Z" fill="#1B1C29"/>
<path d="M73.5128 247.964C73.5803 248.167 73.7153 248.369 73.7828 248.572C72.2978 248.774 70.8126 249.044 69.3275 249.247C68.9225 249.314 68.7201 248.639 69.1251 248.572C70.6102 248.437 72.0277 248.167 73.5128 247.964Z" fill="#1B1C29"/>
<path d="M74.3885 249.922C74.5235 250.124 74.6585 250.327 74.726 250.529C73.1059 250.799 71.4184 251.002 69.7983 251.272C69.3933 251.339 69.1907 250.664 69.5958 250.597C71.2158 250.394 72.8359 250.192 74.3885 249.922Z" fill="#1B1C29"/>
<path d="M62.9156 154.945C61.7681 175.668 51.6426 239.324 51.6426 239.324L78.1039 246.547C78.1039 246.547 91.9421 172.968 87.3519 153.865C85.2593 144.954 62.9156 154.945 62.9156 154.945Z" fill="#1B1C29"/>
<path d="M102.538 154.269C106.386 169.593 109.289 242.024 109.289 242.024L84.9875 245.601C84.9875 245.601 80.7348 159.4 79.5197 154.269C78.2372 149.072 102.538 154.269 102.538 154.269Z" fill="#1B1C29"/>
<path d="M83.5011 214.55C83.5011 214.55 83.4335 214.55 83.5011 214.55C83.1635 214.483 82.9611 214.28 83.0286 214.01C84.5136 201.387 87.4163 165.813 87.4163 165.475V165.138L87.7538 165.07C87.7538 165.07 90.6565 164.395 92.6816 163.72C92.9516 163.653 93.2215 163.788 93.289 164.058C93.3565 164.328 93.2215 164.598 92.9515 164.665C91.3314 165.205 89.1714 165.745 88.2939 165.948C87.9563 169.795 85.3237 202.197 83.9061 214.145C83.9736 214.415 83.7711 214.55 83.5011 214.55Z" fill="white"/>
<path d="M65.0069 220.288C63.0493 220.288 60.6192 219.815 57.4465 218.938C57.1765 218.87 57.0415 218.6 57.109 218.33C57.1765 218.06 57.4465 217.925 57.7165 217.993C63.1843 219.545 66.492 219.68 68.3145 218.533C70.0021 217.385 70.2721 214.955 70.6772 211.917C70.7447 211.31 70.8122 210.635 70.8797 209.96C71.5547 204.965 69.9347 204.695 64.6694 203.885C63.1168 203.615 61.2942 203.344 59.2016 202.939C58.9316 202.872 58.7291 202.602 58.7966 202.332C58.8641 202.062 59.1341 201.859 59.4041 201.927C61.4967 202.399 63.2518 202.669 64.8044 202.872C70.0697 203.682 72.7023 204.087 71.8923 210.095C71.8248 210.77 71.7572 211.377 71.6897 211.985C71.3522 215.158 71.0147 217.925 68.9221 219.343C67.842 219.95 66.627 220.288 65.0069 220.288Z" fill="white"/>
<path d="M81.5444 259.845C71.2839 256.47 60.9558 253.095 50.6953 249.72C50.7628 249.517 50.8304 249.315 50.8979 249.112C61.0234 252.42 71.2164 255.795 81.3419 259.103C81.4769 259.373 81.4769 259.643 81.5444 259.845Z" fill="#1B1C29"/>
<path d="M119.614 256.267H87.4824C87.4824 256.065 87.4824 255.795 87.4824 255.592H119.209C119.344 255.795 119.479 256.065 119.614 256.267Z" fill="#1B1C29"/>
<path d="M50.6278 157.104H45.565C41.7848 157.104 38.6797 153.999 38.6797 150.219V139.148H50.6278V157.104Z" fill="#1B1C29"/>
<path d="M66.896 166.42H56.0955C47.9951 166.42 41.4473 159.872 41.4473 151.772V116.332C41.4473 108.232 47.9951 101.684 56.0955 101.684H66.896C74.9964 101.684 81.5443 108.232 81.5443 116.332V151.772C81.5443 159.872 74.9964 166.42 66.896 166.42Z" fill="#1B1C29"/>
<path d="M45.9697 141.714C45.6997 141.714 45.4297 141.511 45.4297 141.174V116.67C45.4297 110.797 50.2224 106.072 56.0277 106.072C56.2977 106.072 56.5677 106.274 56.5677 106.612C56.5677 106.949 56.3652 107.152 56.0277 107.152C50.6949 107.152 46.4422 111.472 46.4422 116.737V141.241C46.5097 141.444 46.2397 141.714 45.9697 141.714Z" fill="white"/>
<path d="M201.568 13.2549C201.433 13.2549 201.298 13.1874 201.23 13.1198C201.027 12.9173 201.027 12.5798 201.23 12.3773L208.318 5.35696C208.52 5.15445 208.858 5.15445 209.06 5.35696C209.263 5.55947 209.263 5.89701 209.06 6.09952L201.973 13.1198C201.838 13.2549 201.703 13.2549 201.568 13.2549Z" fill="#65A300"/>
<path d="M208.652 13.3224C208.517 13.3224 208.382 13.2549 208.315 13.1874L201.294 6.09952C201.092 5.89701 201.092 5.55947 201.294 5.35696C201.497 5.15445 201.835 5.15445 202.037 5.35696L209.057 12.4448C209.26 12.6473 209.26 12.9849 209.057 13.1874C208.855 13.2549 208.72 13.3224 208.652 13.3224Z" fill="#65A300"/>
<path d="M85.4609 106.612C96.599 109.312 102.337 118.897 105.307 127.2C107.4 133.073 114.487 146.304 119.213 148.059L110.302 154.202C110.302 154.202 98.4216 148.599 95.789 139.081C93.2239 129.563 85.4609 106.612 85.4609 106.612Z" fill="#6045AF"/>
<path d="M110.37 154.81L110.1 154.675C109.627 154.472 97.9494 148.869 95.3167 139.216C92.7516 129.833 85.0563 106.95 84.9888 106.747L84.7188 106.005L86.1363 106.207C97.6794 109.042 102.945 119.033 105.78 127.066C107.94 133.209 114.96 145.967 119.416 147.654L120.361 147.992L110.37 154.81ZM86.2038 107.355C87.6889 111.675 94.0342 130.643 96.2618 139.014C98.5569 147.452 108.48 152.784 110.235 153.662L118.133 148.194C113.07 145.292 106.59 132.601 104.7 127.403C102.135 119.843 96.7343 110.392 86.2038 107.355Z" fill="#6045AF"/>
<path d="M100.177 129.969C97.6793 119.776 93.359 109.515 85.3936 106.612C83.301 106.207 81.4109 106.072 79.7233 106.14C79.5208 106.14 79.2508 106.14 79.0483 106.207C79.0483 106.207 76.8882 106.882 75.3356 106.68C60.4174 111.27 54.0721 121.193 51.0344 134.086C50.6969 135.571 50.4944 137.056 50.3594 138.541C51.1694 138.474 52.047 138.406 52.857 138.406C55.8947 138.204 58.9324 138.001 61.97 137.866C60.4849 148.735 60.4849 158.252 60.4849 158.252L65.0751 158.05L103.35 156.565C103.35 156.497 103.35 142.997 100.177 129.969Z" fill="#6045AF"/>
<path d="M60.0114 158.725V158.185C60.0114 158.117 60.0788 148.937 61.4289 138.339C59.4713 138.474 57.5137 138.609 55.4886 138.676L49.8184 139.014L49.8858 138.406C50.0209 136.854 50.2234 135.301 50.5609 133.884C54.0711 118.898 61.6315 110.325 75.1321 106.14L75.4696 106.072C76.8872 106.207 78.9798 105.6 78.9798 105.6H79.0473C79.2498 105.6 79.5198 105.532 79.7898 105.532C81.4774 105.465 83.435 105.6 85.5952 106.005H85.6626C92.413 108.435 97.4757 116.4 100.716 129.698C103.889 142.659 103.889 156.227 103.889 156.362V156.835L60.0114 158.725ZM62.5764 137.259L62.5089 137.866C61.2264 147.182 61.0914 155.485 61.0239 157.645L102.876 156.025C102.808 153.46 102.538 141.511 99.7033 130.036C96.5306 117.143 91.7379 109.447 85.3251 107.085C83.2325 106.747 81.4099 106.545 79.7898 106.68C79.5873 106.68 79.3848 106.68 79.1823 106.747C78.8448 106.815 76.8871 107.355 75.4021 107.22C62.3064 111.27 54.9486 119.573 51.5059 134.221C51.2359 135.436 51.0334 136.719 50.8984 138.001L55.3536 137.731C57.5137 137.596 59.7413 137.461 61.9014 137.326L62.5764 137.259Z" fill="#6045AF"/>
<path d="M71.6209 107.017C70.0008 105.6 67.5707 107.962 69.2583 109.38C75.7386 114.983 76.4137 124.028 72.9035 131.454C70.2708 137.056 65.8832 141.242 60.9554 144.819C60.2129 146.102 59.4028 147.317 58.6603 148.599C58.4578 149.342 58.2552 150.017 58.0527 150.76C66.0181 145.967 73.4435 139.757 76.8187 130.779C79.9239 122.543 78.4387 112.89 71.6209 107.017Z" fill="#1B1C29"/>
<path d="M100.917 138.406C100.647 138.406 100.445 138.204 100.445 138.001C100.445 137.866 98.3522 123.96 96.3271 118.56C96.2596 118.29 96.3271 118.02 96.5971 117.885C96.8671 117.818 97.1371 117.885 97.2721 118.155C99.3647 123.623 101.39 137.191 101.457 137.799C101.525 138.069 101.322 138.339 101.052 138.406C100.985 138.406 100.985 138.406 100.917 138.406Z" fill="white"/>
<path d="M85.4595 106.612L85.3245 107.017L83.9745 111.203L82.8944 114.51L77.3591 108.772L75.739 107.152L75.334 106.747C76.549 106.477 77.7641 106.342 79.0467 106.275C79.2492 106.275 79.5192 106.275 79.7217 106.207C81.4093 106.072 83.3669 106.275 85.4595 106.612Z" fill="white"/>
<path d="M83.1641 115.455L74.3887 106.41L75.3337 106.207C76.5488 105.937 77.8313 105.802 79.1139 105.735C79.3164 105.735 79.5864 105.735 79.7889 105.667C81.4765 105.6 83.4342 105.735 85.5943 106.14L86.1343 106.275L83.1641 115.455ZM76.4138 107.018L82.7591 113.498L84.8517 107.018C82.9616 106.748 81.3416 106.613 79.8565 106.68C79.654 106.68 79.384 106.68 79.1815 106.747C78.1689 106.747 77.2913 106.883 76.4138 107.018Z" fill="#1B1C29"/>
<path d="M96.5992 148.126C96.5992 148.126 90.3214 153.999 83.7736 154.269C82.626 154.337 81.4785 154.202 80.3984 153.864C80.4659 158.589 80.5335 163.315 80.6685 167.972C86.6763 168.31 93.3591 167.297 100.379 164.597C127.853 154.202 96.5992 148.126 96.5992 148.126Z" fill="white"/>
<path d="M82.8295 168.58C82.0869 168.58 81.3444 168.58 80.6019 168.513H80.1293V168.04C80.0618 164.462 79.9944 160.75 79.9269 157.24L79.8594 153.257L80.4668 153.392C81.6144 153.662 82.6945 153.797 83.707 153.729C89.9849 153.527 96.1277 147.789 96.1952 147.722L96.3977 147.519L96.6677 147.587C97.2752 147.722 111.653 150.557 112.126 156.024C112.396 159.062 108.548 162.032 100.448 165.137C94.5076 167.433 88.5672 168.58 82.8295 168.58ZM81.0744 167.5C87.2172 167.77 93.6301 166.623 100.11 164.192C109.493 160.615 111.248 157.847 111.113 156.159C110.776 152.312 100.853 149.544 96.7352 148.667C95.5877 149.679 89.8498 154.539 83.7745 154.742C82.8295 154.742 81.8845 154.674 80.8719 154.472L80.9394 157.172C80.9394 160.547 81.0069 164.057 81.0744 167.5Z" fill="#1B1C29"/>
<path d="M81.2742 153.257C75.604 152.244 70.3387 148.127 69.5961 141.916C69.1236 138.001 70.4737 133.613 72.3638 129.631C68.3135 124.973 63.9933 120.653 59.1331 116.873C55.0829 121.598 52.6528 127.471 51.1002 134.086C46.9825 151.502 60.4832 169.458 82.5568 169.12C81.7468 164.395 81.9493 157.915 81.2742 153.257Z" fill="#6045AF"/>
<path d="M81.8151 169.593C71.352 169.593 62.0366 165.407 56.0963 157.982C50.561 151.164 48.5359 142.389 50.561 133.951C52.3161 126.661 54.9487 120.923 58.7289 116.535L59.0665 116.198L59.4715 116.468C63.9267 119.91 68.3144 124.095 72.7697 129.293L72.9721 129.563L72.8372 129.833C70.6771 134.491 69.732 138.541 70.137 141.849C70.8796 148.127 76.3473 151.839 81.4101 152.784L81.7476 152.852L81.8151 153.189C82.1526 155.484 82.2876 158.32 82.4226 161.02C82.5576 163.787 82.6926 166.69 83.0302 169.053L83.0976 169.66H82.4901C82.2876 169.593 82.0851 169.593 81.8151 169.593ZM59.1339 117.548C55.6238 121.8 53.1262 127.268 51.5061 134.221C49.616 142.321 51.5735 150.827 56.8388 157.375C62.5766 164.53 71.6896 168.58 81.8151 168.58H81.8826C81.5451 166.285 81.4101 163.585 81.3426 161.02C81.2076 158.455 81.0725 155.89 80.8025 153.662C75.4697 152.582 69.867 148.599 69.057 141.916C68.652 138.474 69.5294 134.356 71.6896 129.631C67.5043 124.838 63.3867 120.855 59.1339 117.548Z" fill="#6045AF"/>
<path d="M80.3995 154.336C80.332 154.336 80.2645 154.336 80.2645 154.336C79.9945 154.269 73.8516 152.041 70.2065 145.899C66.8988 140.363 69.6664 131.52 73.2441 125.04C73.3791 124.77 73.7166 124.703 73.9191 124.838C74.1892 124.973 74.2567 125.31 74.1217 125.513C70.6115 131.723 67.9788 140.228 71.0165 145.359C74.4591 151.164 80.467 153.324 80.5345 153.324C80.8045 153.391 80.9395 153.729 80.872 153.999C80.8045 154.201 80.602 154.336 80.3995 154.336Z" fill="white"/>
<path d="M135.075 152.042L129.742 151.502C128.527 151.367 127.987 149.949 128.797 149.072L129.81 147.992C130.147 147.654 130.552 147.452 131.025 147.519L136.358 148.059C137.573 148.194 138.113 149.612 137.303 150.489L136.29 151.569C135.953 151.907 135.548 152.109 135.075 152.042Z" fill="#6045AF"/>
<path d="M133.723 222.921H54.8795C52.6519 222.921 50.7617 221.098 50.7617 218.803V100.132C50.7617 97.9042 52.5844 96.0142 54.8795 96.0142H56.9721C59.1997 96.0142 61.0898 97.8367 61.0898 100.132V101.752H60.0772V100.132C60.0772 98.4443 58.7272 97.0267 56.9721 97.0267H54.8795C53.1919 97.0267 51.7743 98.3768 51.7743 100.132V218.87C51.7743 220.558 53.1244 221.975 54.8795 221.975H133.723C135.411 221.975 136.829 220.625 136.829 218.87V150.489C136.829 150.219 137.031 149.949 137.369 149.949C137.706 149.949 137.909 150.152 137.909 150.489V218.803C137.774 221.098 135.951 222.921 133.723 222.921Z" fill="#6045AF"/>
<path d="M122.585 161.425L83.838 157.645C82.6229 157.509 82.083 156.092 82.893 155.147L96.7987 139.959C97.1362 139.621 97.5412 139.419 98.0137 139.486L136.761 143.266C137.976 143.401 138.516 144.819 137.706 145.764L123.8 160.952C123.53 161.29 123.057 161.492 122.585 161.425Z" fill="white"/>
<path d="M122.721 161.965C122.654 161.965 122.586 161.965 122.519 161.965L83.7718 158.184C83.0293 158.117 82.3542 157.644 82.0842 156.902C81.8142 156.227 81.9492 155.417 82.4892 154.877L96.395 139.689C96.8 139.216 97.4075 139.014 98.0826 139.081L136.829 142.861C137.572 142.929 138.247 143.401 138.517 144.144C138.787 144.819 138.652 145.629 138.112 146.169L124.206 161.357C123.801 161.695 123.261 161.965 122.721 161.965ZM122.654 160.952C122.991 160.952 123.261 160.885 123.464 160.615L137.37 145.426C137.64 145.156 137.707 144.751 137.572 144.414C137.437 144.076 137.099 143.806 136.762 143.806L98.015 140.026C97.6775 140.026 97.4075 140.094 97.205 140.364L83.2993 155.552C83.0293 155.822 82.9618 156.227 83.0968 156.564C83.2318 156.902 83.5694 157.172 83.9069 157.172L122.654 160.952Z" fill="#1B1C29"/>
<path d="M130.89 146.304L126.165 151.434L120.495 157.645C120.427 157.712 120.292 157.847 120.157 157.847C119.955 157.982 119.752 157.982 119.55 157.982L90.5908 155.214C89.7133 155.147 89.2407 153.999 89.9158 153.392L100.311 142.051C100.581 141.781 100.919 141.646 101.256 141.714L130.215 144.549C131.025 144.549 131.498 145.629 130.89 146.304Z" fill="#1B1C29"/>
<path d="M86.2031 158.725C89.4433 154.675 100.784 149.005 101.121 152.447C101.324 154.27 97.6112 155.417 97.6112 155.417L95.9236 161.425" fill="white"/>
<path d="M95.9891 161.965C95.9216 161.965 95.9216 161.965 95.8541 161.965C95.5841 161.897 95.4491 161.627 95.5166 161.357L97.2717 155.08L97.5417 155.012C98.4193 154.742 100.782 153.73 100.647 152.582C100.647 152.244 100.444 152.109 100.174 152.042C97.7442 151.299 89.3738 155.687 86.6062 159.13C86.4037 159.332 86.1336 159.4 85.8636 159.197C85.6611 158.995 85.5936 158.725 85.7961 158.455C88.6313 154.945 97.4067 150.152 100.444 151.029C101.187 151.232 101.592 151.772 101.659 152.447C101.862 154.337 99.0268 155.485 98.0818 155.822L96.4617 161.56C96.3942 161.762 96.1916 161.965 95.9891 161.965Z" fill="#1B1C29"/>
<path d="M119.684 141.647C118.334 135.301 131.092 139.149 134.197 143.064L119.684 141.647Z" fill="white"/>
<path d="M135.345 143.672L119.346 142.119L119.279 141.782C118.941 140.094 119.414 138.812 120.764 138.204C124.139 136.652 132.239 139.689 134.669 142.727L135.345 143.672ZM120.156 141.174L132.847 142.389C129.944 139.959 123.734 137.867 121.101 139.082C120.359 139.487 120.021 140.162 120.156 141.174Z" fill="#1B1C29"/>
<path d="M119.619 141.107C120.902 143.334 123.602 146.237 125.762 145.697C127.922 145.157 123.737 140.297 123.737 140.297" fill="white"/>
<path d="M125.153 146.237C122.858 146.237 120.361 143.402 119.146 141.309C119.011 141.039 119.078 140.769 119.348 140.634C119.618 140.499 119.888 140.567 120.023 140.837C121.238 142.929 123.736 145.697 125.558 145.224C125.761 145.157 125.761 145.089 125.761 145.089C125.963 144.414 124.613 142.254 123.263 140.702C123.061 140.499 123.128 140.162 123.331 139.959C123.533 139.757 123.871 139.824 124.073 140.027C124.613 140.634 127.246 143.807 126.774 145.427C126.706 145.697 126.436 146.102 125.828 146.237C125.626 146.237 125.423 146.237 125.153 146.237Z" fill="#1B1C29"/>
<path d="M89.3103 89.5339C88.2303 87.7114 87.0152 85.8213 85.2601 84.6062C84.9901 84.4037 84.6526 84.2012 84.315 83.9987C82.2899 82.9186 79.9273 82.5136 77.7672 83.2561C77.5647 83.3236 77.3622 83.3911 77.1597 83.4586C76.9572 83.5261 76.8222 83.5937 76.6196 83.7287C72.8395 85.7538 71.0844 90.749 72.772 95.4067C72.772 95.4067 72.772 95.4067 72.772 95.4742C72.9745 96.0143 73.177 96.4868 73.447 96.9593C71.9619 98.7144 72.9745 101.347 74.7971 102.36C76.4172 103.237 78.3073 103.17 79.8598 101.752C81.3449 102.09 82.83 102.09 84.315 101.685C90.9979 99.9295 92.1455 94.3942 89.3103 89.5339Z" fill="white"/>
<path d="M77.0248 103.44C76.2148 103.44 75.4048 103.237 74.5947 102.764C73.4472 102.089 72.5696 100.942 72.2996 99.5918C72.0971 98.5793 72.2996 97.6342 72.8396 96.8242C72.6371 96.4191 72.4346 95.9466 72.2996 95.5416C70.5445 90.6814 72.2996 85.4161 76.3498 83.256L76.4173 83.1885C76.6198 83.121 76.7548 82.986 76.9573 82.9185C77.1598 82.851 77.3624 82.716 77.5649 82.6484C79.725 81.9059 82.2226 82.1084 84.5177 83.391C84.8552 83.5935 85.1927 83.796 85.5302 84.066C87.4203 85.4836 88.7704 87.5087 89.7155 89.1963C91.2681 91.9639 91.6056 94.8666 90.6606 97.2967C89.7155 99.6593 87.5554 101.347 84.4502 102.157C83.0326 102.562 81.48 102.562 80.0625 102.292C79.1174 103.102 78.1049 103.44 77.0248 103.44ZM76.9573 84.1335C73.3122 86.0911 71.7596 90.8839 73.3121 95.2041V95.3391C73.4471 95.7441 73.6497 96.2167 73.9197 96.6892L74.1222 97.0267L73.9197 97.2967C73.2447 98.0392 73.2446 98.9168 73.3796 99.4568C73.5821 100.469 74.2572 101.414 75.1348 101.954C76.6874 102.832 78.3074 102.629 79.59 101.414L79.7924 101.212L80.0625 101.279C81.48 101.617 82.8977 101.549 84.2477 101.212C87.0154 100.469 88.9729 98.9843 89.783 96.9592C90.6605 94.8666 90.323 92.234 88.9054 89.8038C88.0279 88.2513 86.7453 86.2936 84.9903 85.0111C84.7202 84.8086 84.3827 84.6061 84.1127 84.471C82.0876 83.3235 79.86 83.121 77.9699 83.796C77.7674 83.8635 77.6323 83.931 77.4298 83.9985C77.2273 83.9985 77.0923 84.066 76.9573 84.1335Z" fill="#1B1C29"/>
<path d="M83.4492 91.9448C83.4695 91.5726 83.1841 91.2543 82.8119 91.2341C82.4396 91.2138 82.1214 91.4991 82.1012 91.8714C82.0809 92.2436 82.3662 92.5618 82.7385 92.5821C83.1107 92.6024 83.4289 92.3171 83.4492 91.9448Z" fill="#1B1C29"/>
<path d="M88.3651 92.9764C87.6901 91.6263 86.8125 90.4113 85.7325 89.3312C85.4624 88.9937 84.9225 89.4662 85.26 89.8037C86.2725 90.8838 87.0825 92.0314 87.7576 93.3139C87.9601 93.6514 88.5676 93.3139 88.3651 92.9764Z" fill="#1B1C29"/>
<path d="M78.6417 98.1742C77.2917 97.3642 75.5366 97.6342 74.389 98.7818C74.119 99.1193 74.524 99.5918 74.8616 99.2543C75.7391 98.3092 77.1567 98.0392 78.2367 98.7143C78.6418 98.9168 78.9793 98.3767 78.6417 98.1742Z" fill="#1B1C29"/>
<path d="M73.3787 97.0265C73.3787 97.0265 73.4463 97.0265 73.5138 96.959C74.0538 96.6215 76.0114 95.4064 76.6864 95.2714C78.5765 92.6388 78.779 92.0988 79.3191 89.4661C79.9941 88.2511 83.6393 87.036 85.2594 84.5384C85.3269 83.7284 84.7193 83.3908 84.3818 83.2558C82.3567 82.1758 79.9266 82.4458 77.7665 83.2558C77.5639 83.3233 77.3615 83.3908 77.159 83.4583C76.9565 83.5258 76.8214 83.5933 76.6189 83.7284C72.5687 85.8885 69.531 91.4237 73.3787 97.0265Z" fill="#1B1C29"/>
<path d="M79.3195 93.6515C78.9145 93.1115 78.3744 92.5714 77.6994 92.5039C76.7543 92.3689 75.8093 92.9089 75.6743 93.854C75.4043 94.1915 75.3368 94.5965 75.4718 95.0016C75.6743 95.5416 75.9443 96.0816 76.3493 96.4866C76.8893 96.9591 77.6994 97.2292 78.4419 97.0267C79.927 96.6216 80.2645 94.7991 79.3195 93.6515Z" fill="#1B1C29"/>
<path d="M87.5547 80.9609C87.5547 80.9609 79.5219 96.0142 69.4638 100.807C69.4638 100.807 69.0588 98.4443 69.8014 96.6217L67.8438 92.1665L78.0367 79.0708L82.0195 81.0959L82.4245 81.2984C82.4245 81.2984 82.762 81.1634 83.3695 81.0284C84.3146 80.7584 86.0021 80.5559 87.5547 80.9609Z" fill="#1B1C29"/>
<path d="M83.3012 81.0283C80.6686 84.4035 75.1334 91.5588 71.4207 95.4065C71.3532 95.5415 71.2182 95.5415 71.0831 95.5415C70.9481 95.5415 70.8131 95.474 70.7456 95.4065C70.5431 95.204 70.5431 94.8665 70.7456 94.664C74.2558 91.0863 79.3185 84.606 82.0862 81.0283L82.4912 81.2308C82.4237 81.2308 82.7612 81.0958 83.3012 81.0283Z" fill="white"/>
<path d="M126.163 151.434L120.493 157.645C120.425 157.712 120.29 157.847 120.155 157.847L114.215 148.059C114.215 148.059 121.505 142.254 125.285 149.072C125.69 149.949 125.96 150.692 126.163 151.434Z" fill="#6045AF"/>
<path d="M111.653 156.497C111.518 156.497 111.45 156.497 111.383 156.43C111.18 156.295 111.113 155.957 111.248 155.755L112.53 153.999C112.665 153.797 113.003 153.729 113.206 153.864C113.408 153.999 113.476 154.337 113.341 154.539L112.058 156.295C111.923 156.43 111.788 156.497 111.653 156.497Z" fill="white"/>
<path d="M100.917 149.68C100.782 149.68 100.647 149.612 100.512 149.477L98.5539 147.182C98.3514 146.979 98.4189 146.642 98.6214 146.439C98.8239 146.237 99.1614 146.304 99.3639 146.507L101.322 148.802C101.524 149.005 101.457 149.342 101.254 149.545C101.187 149.68 101.052 149.68 100.917 149.68Z" fill="white"/>
<path d="M111.651 145.156C111.584 145.156 111.516 145.156 111.381 145.089C111.111 144.954 111.044 144.616 111.179 144.414L114.892 137.664C115.027 137.394 115.364 137.326 115.567 137.461C115.837 137.596 115.904 137.934 115.769 138.136L112.056 144.886C111.989 145.021 111.786 145.156 111.651 145.156Z" fill="#1B1C29"/>
<path d="M96.1953 142.997L105.713 137.866L105.511 148.127L96.1953 142.997Z" fill="white"/>
<path d="M105.981 148.937L95.1133 142.997L106.251 136.989L105.981 148.937ZM97.2734 142.997L105.036 147.249L105.239 138.744L97.2734 142.997Z" fill="#1B1C29"/>
<path d="M108.406 149.162L104.596 150.723L106.157 154.534L109.967 152.973L108.406 149.162Z" fill="white"/>
<path d="M152.085 60.5073L131.834 75.5606L117.523 56.2546H148.913L152.085 60.5073Z" fill="#65A300"/>
<path d="M99.2296 33.8433C99.0946 33.8433 98.9596 33.7758 98.8921 33.7083C98.6895 33.5058 98.6896 33.1683 98.8246 32.9658C105.305 25.8105 112.73 25.3379 117.86 26.2155C118.13 26.283 118.333 26.553 118.265 26.823C118.198 27.093 117.928 27.2955 117.658 27.228C112.798 26.418 105.71 26.823 99.5671 33.6408C99.4996 33.7759 99.3646 33.8433 99.2296 33.8433Z" fill="#65A300"/>
<path d="M91.871 27.7681C91.736 27.7681 91.6685 27.7006 91.5335 27.6331C91.331 27.4306 91.2635 27.1606 91.466 26.8906C99.0264 17.3051 110.502 15.3475 118.535 17.5751C118.805 17.6426 118.94 17.9126 118.872 18.1826C118.805 18.4526 118.535 18.5876 118.265 18.5201C110.569 16.36 99.4989 18.3176 92.276 27.4981C92.2085 27.7006 92.006 27.7681 91.871 27.7681Z" fill="#65A300"/>
<path d="M83.0283 20.5452C82.9608 20.5452 82.8258 20.5452 82.7583 20.4777C82.4882 20.3427 82.4208 20.0052 82.5558 19.8027C88.9011 9.13715 107.937 2.65683 119.615 7.11205C119.885 7.17956 120.02 7.51707 119.885 7.78709C119.75 8.0571 119.48 8.19208 119.21 8.05708C107.87 3.73686 89.4411 10.0147 83.3658 20.2752C83.3658 20.4777 83.2308 20.5452 83.0283 20.5452Z" fill="#65A300"/>
<path d="M134.402 104.52L147.228 109.65L135.752 120.113L134.402 104.52Z" fill="#65A300"/>
<path d="M135.346 121.193L133.861 103.777L148.172 109.515L135.346 121.193ZM135.009 105.33L136.156 119.033L146.282 109.852L135.009 105.33Z" fill="#65A300"/>
<path d="M117.186 63.2749L107.195 66.38L116.781 74.4804L117.186 63.2749Z" fill="white"/>
<path d="M117.254 75.4931L106.184 66.1777L117.727 62.5325L117.254 75.4931ZM108.209 66.5827L116.309 73.4005L116.647 63.9501L108.209 66.5827Z" fill="#1B1C29"/>
<path d="M154.516 89.7362C158.915 89.7362 162.482 86.17 162.482 81.7708C162.482 77.3716 158.915 73.8054 154.516 73.8054C150.117 73.8054 146.551 77.3716 146.551 81.7708C146.551 86.17 150.117 89.7362 154.516 89.7362Z" fill="white"/>
<path d="M154.516 90.2089C149.858 90.2089 146.078 86.4287 146.078 81.7709C146.078 77.1132 149.858 73.333 154.516 73.333C159.174 73.333 162.954 77.1132 162.954 81.7709C162.954 86.4287 159.174 90.2089 154.516 90.2089ZM154.516 74.2781C150.398 74.2781 147.091 77.6532 147.091 81.7034C147.091 85.8211 150.466 89.1288 154.516 89.1288C158.566 89.1288 161.941 85.7536 161.941 81.7034C161.941 77.6532 158.634 74.2781 154.516 74.2781Z" fill="#1B1C29"/>
<path d="M148.845 67.3251C148.575 67.3251 148.305 67.1225 148.305 66.785L148.372 61.1822C148.372 60.9122 148.575 60.7097 148.912 60.7097C149.182 60.7097 149.385 60.9123 149.385 61.2498L149.317 66.8525C149.385 67.1226 149.115 67.3251 148.845 67.3251Z" fill="#1B1C29"/>
<path d="M151.681 64.5573L146.078 64.4898C145.808 64.4898 145.605 64.2873 145.605 63.9498C145.605 63.6798 145.808 63.4773 146.146 63.4773L151.748 63.5448C152.018 63.5448 152.221 63.7473 152.221 64.0848C152.221 64.3548 151.951 64.5573 151.681 64.5573Z" fill="#1B1C29"/>
<path d="M194.477 69.4177C194.341 69.4177 194.207 69.3502 194.071 69.2152C193.869 69.0127 193.936 68.6751 194.139 68.4726L200.079 63.5449C200.282 63.3424 200.619 63.4099 200.822 63.6124C201.024 63.8149 200.957 64.1524 200.754 64.3549L194.814 69.2827C194.747 69.4177 194.612 69.4177 194.477 69.4177Z" fill="#1B1C29"/>
<path d="M211.555 86.226C211.42 86.226 211.217 86.1585 211.15 86.0235L208.247 82.0408C208.112 81.8383 208.112 81.5008 208.382 81.3658C208.584 81.2308 208.922 81.2308 209.057 81.5008L211.96 85.4835C212.095 85.686 212.095 86.0235 211.825 86.1585C211.757 86.226 211.622 86.226 211.555 86.226Z" fill="#1B1C29"/>
<path d="M128.764 80.2238L121.283 83.8264L124.886 91.3073L132.367 87.7047L128.764 80.2238Z" fill="white"/>
<path d="M124.611 91.9642L120.561 83.5263L128.998 79.4761L133.049 87.914L124.611 91.9642ZM121.911 84.0663L125.083 90.6816L131.699 87.509L128.526 80.8936L121.911 84.0663Z" fill="#1B1C29"/>
<path d="M177.736 65.1097L173.08 58.2349L166.205 62.8911L170.862 69.766L177.736 65.1097Z" fill="#65A300"/>
<path d="M170.715 70.4979L165.449 62.735L173.212 57.4697L178.477 65.2326L170.715 70.4979ZM166.867 63.005L170.985 69.0803L177.06 64.9626L172.942 58.8873L166.867 63.005Z" fill="#65A300"/>
<path d="M149.79 156.025L144.592 161.425L153.165 162.91L149.79 156.025Z" fill="#65A300"/>
<path d="M154.041 163.585L143.578 161.762L149.856 155.147L154.041 163.585ZM145.671 161.087L152.286 162.235L149.653 156.835L145.671 161.087Z" fill="#65A300"/>
<path d="M124.681 135.571C127.514 135.571 129.811 133.274 129.811 130.441C129.811 127.607 127.514 125.311 124.681 125.311C121.848 125.311 119.551 127.607 119.551 130.441C119.551 133.274 121.848 135.571 124.681 135.571Z" fill="white"/>
<path d="M124.678 136.111C121.573 136.111 119.008 133.546 119.008 130.441C119.008 127.336 121.573 124.771 124.678 124.771C127.783 124.771 130.348 127.336 130.348 130.441C130.348 133.546 127.783 136.111 124.678 136.111ZM124.678 125.783C122.113 125.783 120.02 127.876 120.02 130.441C120.02 133.006 122.113 135.099 124.678 135.099C127.243 135.099 129.336 133.006 129.336 130.441C129.336 127.876 127.243 125.783 124.678 125.783Z" fill="#1B1C29"/>
<path d="M162.482 164.8C162.347 164.8 162.212 164.733 162.077 164.598L158.837 160.885C158.635 160.683 158.702 160.345 158.905 160.143C159.107 159.94 159.445 160.008 159.647 160.21L162.887 163.923C163.09 164.125 163.022 164.463 162.82 164.665C162.685 164.8 162.617 164.8 162.482 164.8Z" fill="#1B1C29"/>
<path d="M17.2148 132.061L27.3403 124.771L28.6904 136.651L17.2148 132.061Z" fill="#65A300"/>
<path d="M29.2968 137.461L16.2012 132.196L27.7442 123.825L29.2968 137.461ZM18.2263 131.926L28.0818 135.841L26.9342 125.648L18.2263 131.926Z" fill="#65A300"/>
<path d="M38.1361 131.251C37.9336 131.251 37.7311 131.116 37.6636 130.914L35.301 125.311C35.166 125.041 35.301 124.771 35.571 124.636C35.841 124.501 36.111 124.636 36.246 124.906L38.6086 130.509C38.7436 130.779 38.6087 131.049 38.3387 131.184C38.2712 131.251 38.2036 131.251 38.1361 131.251Z" fill="#1B1C29"/>
<path d="M4.72619 149.814C7.03762 149.814 8.91137 147.941 8.91137 145.629C8.91137 143.318 7.03762 141.444 4.72619 141.444C2.41476 141.444 0.541016 143.318 0.541016 145.629C0.541016 147.941 2.41476 149.814 4.72619 149.814Z" fill="white"/>
<path d="M4.72524 150.355C2.16011 150.355 0 148.262 0 145.629C0 143.064 2.0926 140.904 4.72524 140.904C7.35787 140.904 9.45047 142.997 9.45047 145.629C9.38297 148.262 7.29037 150.355 4.72524 150.355ZM4.72524 141.984C2.70014 141.984 1.01255 143.604 1.01255 145.697C1.01255 147.722 2.63263 149.409 4.72524 149.409C6.81784 149.409 8.43792 147.789 8.43792 145.697C8.37042 143.604 6.75034 141.984 4.72524 141.984Z" fill="#1B1C29"/>
<path d="M18.9014 168.715C18.6314 168.715 18.3613 168.513 18.3613 168.175V164.665C18.3613 164.395 18.5639 164.125 18.9014 164.125C19.2389 164.125 19.4414 164.328 19.4414 164.665V168.175C19.3739 168.445 19.1714 168.715 18.9014 168.715Z" fill="#1B1C29"/>
<path d="M118.469 104.317C118.334 104.317 118.266 104.249 118.131 104.182C117.929 103.979 117.861 103.709 118.064 103.439L121.574 99.2542C121.776 99.0517 122.046 98.9842 122.316 99.1867C122.519 99.3892 122.586 99.6593 122.384 99.9293L118.874 104.114C118.739 104.25 118.604 104.317 118.469 104.317Z" fill="#1B1C29"/>
<path d="M113.473 123.488C114.48 123.488 115.296 122.672 115.296 121.666C115.296 120.659 114.48 119.843 113.473 119.843C112.466 119.843 111.65 120.659 111.65 121.666C111.65 122.672 112.466 123.488 113.473 123.488Z" fill="white"/>
<path d="M113.472 124.028C112.189 124.028 111.109 122.948 111.109 121.665C111.109 120.383 112.189 119.303 113.472 119.303C114.755 119.303 115.835 120.383 115.835 121.665C115.835 122.948 114.755 124.028 113.472 124.028ZM113.472 120.315C112.729 120.315 112.122 120.923 112.122 121.665C112.122 122.408 112.729 123.015 113.472 123.015C114.215 123.015 114.822 122.408 114.822 121.665C114.822 120.923 114.215 120.315 113.472 120.315Z" fill="#1B1C29"/>
<path d="M124.95 120.653C124.68 120.653 124.477 120.45 124.477 120.18L124.207 116.13C124.207 115.86 124.41 115.59 124.68 115.59C124.95 115.59 125.22 115.793 125.22 116.063L125.49 120.113C125.422 120.383 125.22 120.585 124.95 120.653Z" fill="#1B1C29"/>
<path d="M174.293 74.4133L169.096 99.187C169.096 99.187 179.221 99.9971 182.056 88.2515C184.284 78.8686 174.293 74.4133 174.293 74.4133Z" fill="white"/>
<path d="M169.431 99.659C169.161 99.659 169.026 99.659 169.026 99.659L168.486 99.5915L173.954 73.6702L174.494 73.9402C174.629 74.0077 184.822 78.6654 182.527 88.3859C179.962 99.0514 171.389 99.659 169.431 99.659ZM174.697 75.1552L169.769 98.7139C171.929 98.7139 179.287 97.9039 181.582 88.1834C183.337 80.488 176.722 76.2353 174.697 75.1552Z" fill="#1B1C29"/>
<path d="M162.481 95.4066C162.278 95.4066 162.143 95.2715 162.008 95.1365L160.388 91.8964C160.253 91.6264 160.388 91.3563 160.591 91.2213C160.861 91.0863 161.131 91.2213 161.266 91.4238L162.886 94.664C163.021 94.934 162.886 95.2041 162.683 95.3391C162.616 95.4066 162.548 95.4066 162.481 95.4066Z" fill="#1B1C29"/>
</svg>
