<svg width="334" height="190" viewBox="0 0 334 190" fill="none" xmlns="http://www.w3.org/2000/svg">
<path fill-rule="evenodd" clip-rule="evenodd" d="M0 176.542H333.295V189.999H0V176.542Z" fill="url(#paint0_linear)"/>
<path fill-rule="evenodd" clip-rule="evenodd" d="M82.252 125.112H138.409L96.249 37.9995H39.773L82.252 125.112ZM145.888 125.112L202.076 126.025L159.886 37.9995H103.409L145.888 125.112ZM18.801 125.042L75.568 125.083L33.408 37.9995H19.886L18.801 125.042ZM229.091 37.9995L271.235 125.07H300.681V37.9995H229.091ZM207.613 125.083H264.091L221.931 38.0075H166.061L207.613 125.083Z" fill="#ECECEC"/>
<path fill-rule="evenodd" clip-rule="evenodd" d="M318.418 167.492C314.968 172.52 315.914 178.915 315.914 178.915C315.914 178.915 322.451 177.158 325.9 172.13C329.349 167.102 328.404 160.707 328.404 160.707C328.404 160.707 321.867 162.464 318.418 167.492Z" fill="#E5E5E5"/>
<path fill-rule="evenodd" clip-rule="evenodd" d="M306.826 166.796C308.736 173.791 315.275 178.124 315.275 178.124C315.275 178.124 318.719 171.114 316.809 164.119C314.9 157.123 308.361 152.792 308.361 152.792C308.361 152.792 304.917 159.801 306.826 166.796Z" fill="#F2F2F2" stroke="#676578"/>
<path fill-rule="evenodd" clip-rule="evenodd" d="M309.879 166.16C315.151 171.187 315.795 178.917 315.795 178.917C315.795 178.917 307.892 178.494 302.62 173.466C297.348 168.438 296.704 160.708 296.704 160.708C296.704 160.708 304.608 161.131 309.879 166.159V166.16Z" fill="#65A300"/>
<path d="M14.7161 128.25C18.4501 128.25 21.4771 125.237 21.4771 121.521C21.4771 117.804 18.4501 114.792 14.7161 114.792C10.9821 114.792 7.95508 117.804 7.95508 121.521C7.95508 125.237 10.9821 128.25 14.7161 128.25Z" fill="#FF6584"/>
<path fill-rule="evenodd" clip-rule="evenodd" d="M46.9321 146.597C46.9321 162.337 37.6721 167.833 26.2501 167.833C14.8281 167.833 5.56812 162.337 5.56812 146.597C5.56812 130.857 26.2501 110.833 26.2501 110.833C26.2501 110.833 46.9321 130.857 46.9321 146.597V146.597Z" fill="#E1E1E1"/>
<path fill-rule="evenodd" clip-rule="evenodd" d="M25.889 164.553L26.103 151.4L35 135.127L26.137 149.337L26.233 143.422L32.364 131.649L26.258 141.857L26.431 131.22L32.997 121.847L26.458 129.547L26.566 110.042L25.887 135.863L25.943 134.798L19.268 124.582L25.836 136.842L25.214 148.722L25.196 148.407L17.5 137.657L25.172 149.521L25.095 151.007L25.081 151.029L25.087 151.151L23.509 181.292H25.617L25.87 165.724L33.524 153.888L25.889 164.553Z" fill="#3F3D56"/>
<path d="M268.863 57.7915C274.134 57.7915 278.408 53.5382 278.408 48.2915C278.408 43.0448 274.134 38.7915 268.863 38.7915C263.591 38.7915 259.318 43.0448 259.318 48.2915C259.318 53.5382 263.591 57.7915 268.863 57.7915Z" fill="#1B1C29"/>
<path fill-rule="evenodd" clip-rule="evenodd" d="M279.735 168.858L281.591 176.542H277.083L275.227 167.833L279.735 168.858ZM258.523 168.625V176.014L253.75 176.542V168.625H258.523ZM280.795 85.7625C280.795 85.7625 280.265 97.1105 279.735 97.9025C279.205 98.6935 274.432 110.042 274.432 110.042L272.045 102.652C272.045 102.652 275.757 96.5815 275.227 93.1515C274.697 89.7215 275.031 85.4995 275.031 85.4995L280.795 85.7625V85.7625Z" fill="#A78185"/>
<path d="M265.682 58.5825C269.636 58.5825 272.841 55.3925 272.841 51.4575C272.841 47.5225 269.636 44.3325 265.682 44.3325C261.728 44.3325 258.523 47.5225 258.523 51.4575C258.523 55.3925 261.728 58.5825 265.682 58.5825Z" fill="#A78185"/>
<path fill-rule="evenodd" clip-rule="evenodd" d="M271.932 52.2495C271.932 52.2495 271.678 62.5995 273.456 64.1525C275.234 65.7045 263.296 64.4105 263.296 64.4105C263.296 64.4105 265.836 57.1655 263.803 55.6135C261.771 54.0605 271.932 52.2495 271.932 52.2495Z" fill="#A78185"/>
<path fill-rule="evenodd" clip-rule="evenodd" d="M262.358 64.3645C262.358 64.3645 263.938 61.5065 266.045 61.7665C268.153 62.0265 275.001 62.5465 275.265 63.0655C275.528 63.5855 276.318 65.4035 276.845 65.9235C277.371 66.4435 281.322 67.2235 281.585 70.3405C281.849 73.4595 272.103 92.4275 272.103 92.4275C272.103 92.4275 273.42 96.8445 273.157 97.8845C272.894 98.9235 274.474 102.041 274.211 103.34C273.947 104.64 278.161 112.435 276.054 122.568V138.938C276.054 138.938 283.166 167.261 281.059 169.34C278.952 171.419 271.84 170.12 270.523 169.34C269.206 168.56 263.675 129.324 263.675 129.324L261.041 116.072L260.778 145.175C260.778 145.175 261.304 169.6 259.461 170.379C257.617 171.159 250.505 171.419 249.979 169.859C249.568 168.644 247.555 136.291 246.689 122.109C246.389 117.214 246.779 112.302 247.849 107.513C248.945 102.608 250.536 96.8455 252.349 94.5065C255.773 90.0885 257.88 76.0565 257.88 76.0565L253.403 68.0025C253.403 68.0025 256.037 65.4035 257.617 65.4035C259.197 65.4035 262.358 64.3645 262.358 64.3645V64.3645Z" fill="#CCD6F8"/>
<path fill-rule="evenodd" clip-rule="evenodd" d="M279.204 67.2915L281.591 68.8745C281.591 68.8745 282.082 85.4895 281.277 86.5135C280.472 87.5375 274.876 87.0375 274.454 86.1355C274.033 85.2335 279.204 67.2915 279.204 67.2915V67.2915Z" fill="#AAB5DC"/>
<path fill-rule="evenodd" clip-rule="evenodd" d="M256.354 82.9975C257.109 88.2855 257.77 92.9925 253.91 97.2515C250.036 101.557 245.662 105.384 240.879 108.65C240.406 109.916 233.456 119.214 233.103 115.506C232.749 111.796 235.15 108.889 238.563 105.752C241.974 102.615 246.748 95.8095 249.441 92.0755C252.134 88.3405 251.026 86.0125 250.932 82.8925C250.838 79.7735 255.295 83.0345 256.354 82.9975V82.9975Z" fill="#A78185"/>
<path fill-rule="evenodd" clip-rule="evenodd" d="M253.535 171.792C253.535 171.792 253.268 174.632 252.467 175.393C251.665 176.154 249.528 177.168 249.795 179.957C250.063 182.747 251.799 182.874 251.799 182.874L251.665 182.24L252.467 182.494L252.6 182.874H260.08C260.08 182.874 260.214 180.211 259.946 178.943C259.679 177.675 259.679 171.588 258.878 171.842C258.077 172.095 255.94 172.349 255.405 173.363C254.871 174.378 253.268 174.024 253.535 171.792V171.792ZM280.214 171.792C280.214 171.792 280.481 174.632 281.283 175.393C282.084 176.154 284.221 177.168 283.954 179.957C283.687 182.747 281.951 182.874 281.951 182.874L282.084 182.24L281.283 182.494L281.149 182.874H273.669C273.669 182.874 273.536 180.211 273.803 178.943C274.07 177.675 274.07 171.588 274.872 171.842C275.673 172.095 277.81 172.349 278.344 173.363C278.879 174.378 280.481 174.024 280.214 171.792V171.792Z" fill="#1B1C29"/>
<path fill-rule="evenodd" clip-rule="evenodd" d="M256.932 64.9165L252.954 68.0825C252.954 68.0825 253.124 73.6705 252.07 75.9675C251.017 78.2635 249.174 83.6225 249.964 83.8775C250.754 84.1325 258.127 87.7055 258.654 85.6635C259.18 83.6225 260.618 64.9165 256.932 64.9165V64.9165Z" fill="#AAB5DC"/>
<path d="M280 45.1245C285.271 45.1245 289.545 40.8712 289.545 35.6245C289.545 30.3778 285.271 26.1245 280 26.1245C274.728 26.1245 270.455 30.3778 270.455 35.6245C270.455 40.8712 274.728 45.1245 280 45.1245Z" fill="#1B1C29"/>
<path fill-rule="evenodd" clip-rule="evenodd" d="M287.638 44.0485C286.409 44.9679 284.973 45.5713 283.456 45.8054C281.94 46.0396 280.389 45.8975 278.94 45.3915C276 44.3635 273.727 41.9345 272.84 38.8735C273.291 42.5595 275.718 45.6705 279.119 46.9235C282.519 48.1745 286.315 47.3535 288.938 44.7995C291.56 42.2465 292.564 38.3925 291.533 34.8325C291.97 38.4055 290.477 41.9395 287.638 44.0485Z" fill="#1B1C29"/>
<path d="M272.045 56.9995C275.999 56.9995 279.204 53.8095 279.204 49.8745C279.204 45.9395 275.999 42.7495 272.045 42.7495C268.091 42.7495 264.886 45.9395 264.886 49.8745C264.886 53.8095 268.091 56.9995 272.045 56.9995Z" fill="#1B1C29"/>
<path d="M265.682 52.2495C269.197 52.2495 272.046 50.1229 272.046 47.4995C272.046 44.8762 269.197 42.7495 265.682 42.7495C262.167 42.7495 259.318 44.8762 259.318 47.4995C259.318 50.1229 262.167 52.2495 265.682 52.2495Z" fill="#1B1C29"/>
<path d="M264.488 54.6245C265.147 54.6245 265.681 53.7385 265.681 52.6455C265.681 51.5525 265.147 50.6665 264.488 50.6665C263.829 50.6665 263.295 51.5525 263.295 52.6455C263.295 53.7385 263.829 54.6245 264.488 54.6245Z" fill="#A78185"/>
<path opacity="0.5" fill-rule="evenodd" clip-rule="evenodd" d="M101.047 21.4086H173.343V119.511H101.047V21.4086Z" fill="url(#paint1_linear)"/>
<path fill-rule="evenodd" clip-rule="evenodd" d="M101.023 22.9575H171.818V117.166H101.023V22.9575Z" fill="#F2F2F2"/>
<path fill-rule="evenodd" clip-rule="evenodd" d="M107.386 26.9165H132.045V27.9165H107.386V26.9165Z" fill="#F2F2F3"/>
<path opacity="0.7" fill-rule="evenodd" clip-rule="evenodd" d="M107.386 30.0825H132.045V31.0825H107.386V30.0825Z" fill="#65A300"/>
<path fill-rule="evenodd" clip-rule="evenodd" d="M134.432 26.9165H159.091V27.9165H134.432V26.9165ZM139.204 48.2915H163.863V49.2915H139.204V48.2915ZM139.204 50.6665H163.863V51.6665H139.204V50.6665ZM140 52.2495H164.659V53.2495H140V52.2495ZM139.204 82.3325H163.863V83.3325H139.204V82.3325ZM139.204 83.9165H163.863V84.9165H139.204V83.9165ZM140 85.4995H164.659V86.4995H140V85.4995Z" fill="#F2F2F3"/>
<path opacity="0.5" fill-rule="evenodd" clip-rule="evenodd" d="M107.391 40.4015H133.611V67.1785H107.391V40.4015Z" fill="url(#paint2_linear)"/>
<path fill-rule="evenodd" clip-rule="evenodd" d="M107.386 41.1665H132.841V66.4995H107.386V41.1665Z" fill="#F5F5F5"/>
<path opacity="0.5" fill-rule="evenodd" clip-rule="evenodd" d="M108.27 42.7515H131.939V59.2825H108.27V42.7515Z" fill="url(#paint3_linear)"/>
<path fill-rule="evenodd" clip-rule="evenodd" d="M108.977 42.7495H132.045V58.5825H108.977V42.7495Z" fill="white"/>
<mask id="mask0" mask-type="alpha" maskUnits="userSpaceOnUse" x="137" y="52" width="25" height="17">
<path d="M137.702 52.3655H161.366V68.0255H137.702V52.3655Z" fill="white"/>
</mask>
<g mask="url(#mask0)">
<g opacity="0.4">
<g opacity="0.4">
<path opacity="0.4" fill-rule="evenodd" clip-rule="evenodd" d="M106.236 57.6796L112.196 48.6216L114.694 52.5836L120.076 47.1126L124.689 52.5826L128.724 44.4706L139.102 60.6966L105.468 59.5646L106.236 57.6796Z" fill="#65A300"/>
</g>
</g>
</g>
<path opacity="0.5" fill-rule="evenodd" clip-rule="evenodd" d="M107.391 73.7686H133.611V100.382H107.391V73.7686Z" fill="url(#paint4_linear)"/>
<path fill-rule="evenodd" clip-rule="evenodd" d="M107.386 74.4165H132.841V99.7495H107.386V74.4165Z" fill="#F5F5F5"/>
<path opacity="0.5" fill-rule="evenodd" clip-rule="evenodd" d="M108.27 76.1166H131.939V92.4856H108.27V76.1166Z" fill="url(#paint5_linear)"/>
<path fill-rule="evenodd" clip-rule="evenodd" d="M108.977 75.9995H132.045V91.8325H108.977V75.9995Z" fill="white"/>
<mask id="mask1" mask-type="alpha" maskUnits="userSpaceOnUse" x="137" y="86" width="25" height="17">
<path d="M137.702 86.3595H161.366V102.019H137.702V86.3595Z" fill="white"/>
</mask>
<g mask="url(#mask1)">
<g opacity="0.4">
<g opacity="0.4">
<path opacity="0.4" fill-rule="evenodd" clip-rule="evenodd" d="M106.236 91.6715L112.196 82.6155L114.694 86.5785L120.076 81.1065L124.689 86.5785L128.724 78.4645L139.102 94.6905L105.468 93.5595L106.236 91.6715Z" fill="#BDBDBD"/>
</g>
</g>
</g>
<path opacity="0.5" fill-rule="evenodd" clip-rule="evenodd" d="M111.724 112.012L129.782 16.6956L200.139 31.3312L182.079 126.649L111.724 112.012Z" fill="url(#paint6_linear)"/>
<path fill-rule="evenodd" clip-rule="evenodd" d="M112.651 110.592L131.071 17.9595L200.309 31.7105L181.889 124.343L112.651 110.592Z" fill="white"/>
<path fill-rule="evenodd" clip-rule="evenodd" d="M135.254 23.2345L184.391 32.9935L184.243 33.7375L135.106 23.9775L135.254 23.2345ZM121.273 93.5475L170.41 103.306L170.262 104.05L121.125 94.2905L121.273 93.5475ZM120.421 97.8235L158.391 105.365L158.242 106.108L120.272 98.5685L120.421 97.8235Z" fill="#F2F2F3"/>
<path opacity="0.7" fill-rule="evenodd" clip-rule="evenodd" d="M119.57 102.104L133.715 104.914L133.567 105.657L119.422 102.847L119.57 102.104ZM134.402 27.5135L158.97 32.3936L158.822 33.1366L134.254 28.2565L134.402 27.5135Z" fill="#65A300"/>
<path fill-rule="evenodd" clip-rule="evenodd" d="M133.553 31.7915L177.85 40.5885L177.702 41.3325L133.405 32.5345L133.553 31.7915Z" fill="#F2F2F3"/>
<path opacity="0.7" fill-rule="evenodd" clip-rule="evenodd" d="M132.702 36.0696L143.496 38.2146L143.348 38.9576L132.554 36.8136L132.702 36.0696Z" fill="#65A300"/>
<path fill-rule="evenodd" clip-rule="evenodd" d="M131.852 40.3485L180.989 50.1075L180.841 50.8515L131.704 41.0915L131.852 40.3485Z" fill="#F2F2F3"/>
<path opacity="0.5" fill-rule="evenodd" clip-rule="evenodd" d="M130.473 83.6312L135.547 58.0443L179.682 66.8185L174.609 92.4053L130.473 83.6312Z" fill="url(#paint7_linear)"/>
<path fill-rule="evenodd" clip-rule="evenodd" d="M136.431 58.6605L179.984 67.3105L175.064 92.0505L131.512 83.4005L136.431 58.6605Z" fill="white"/>
<path fill-rule="evenodd" clip-rule="evenodd" d="M131.001 44.6285L180.138 54.3875L179.99 55.1305L130.853 45.3715L131.001 44.6285Z" fill="#F2F2F3"/>
<path fill-rule="evenodd" clip-rule="evenodd" d="M140.326 62.9146L145.724 63.9865L142.138 82.0295L136.74 80.9576L140.326 62.9146Z" fill="#65A300"/>
<path fill-rule="evenodd" clip-rule="evenodd" d="M148.821 70.7896L154.219 71.8615L151.815 83.9526L146.417 82.8805L148.821 70.7896Z" fill="#65A300"/>
<path fill-rule="evenodd" clip-rule="evenodd" d="M157.391 78.2925L162.789 79.3645L161.494 85.8745L156.096 84.8025L157.391 78.2925Z" fill="#F55F44"/>
<path fill-rule="evenodd" clip-rule="evenodd" d="M168.401 73.5186L173.799 74.5906L171.173 87.7976L165.775 86.7256L168.401 73.5186Z" fill="#FDD835"/>
<path d="M189.934 57.6395C187.59 55.2065 184.784 53.2664 181.679 51.9331C178.575 50.5998 175.236 49.9003 171.857 49.8755C168.479 49.8497 165.129 50.4992 162.006 51.7857C158.882 53.0723 156.046 54.97 153.666 57.3675C144.075 67.0215 143.912 82.7415 153.293 92.6005C161.803 101.543 175.531 103.055 185.789 96.1805L204.108 115.204C204.58 115.694 205.361 115.71 205.852 115.239L210.417 110.856C210.534 110.745 210.627 110.611 210.692 110.462C210.757 110.314 210.792 110.155 210.795 109.993C210.798 109.831 210.77 109.671 210.711 109.52C210.652 109.369 210.563 109.232 210.451 109.115L192.137 90.0925C199.385 80.1745 198.457 66.4915 189.934 57.6405V57.6395ZM184.228 88.2275C177.012 95.1545 165.538 94.9285 158.601 87.7235C151.663 80.5185 151.888 69.0625 159.104 62.1355C166.32 55.2085 177.794 55.4335 184.732 62.6375C188.064 66.0975 189.883 70.7375 189.789 75.5375C189.742 77.9143 189.227 80.2586 188.273 82.436C187.319 84.6135 185.945 86.5815 184.229 88.2275H184.228Z" fill="url(#paint8_linear)"/>
<path fill-rule="evenodd" clip-rule="evenodd" d="M157.499 69.6665C155.381 69.6665 155.377 72.8325 157.499 72.8325C159.621 72.8325 159.621 69.6665 157.499 69.6665Z" fill="url(#paint9_linear)"/>
<path fill-rule="evenodd" clip-rule="evenodd" d="M171.478 59.3785C166.047 59.2575 161.104 61.9565 158.476 66.0325C157.618 67.3625 160.053 68.5375 160.906 67.2135C163.082 63.8395 167.216 61.6965 171.689 61.8085C176.376 61.9245 180.641 64.5815 182.899 68.2675C183.756 69.6655 186.001 68.3955 185.153 67.0045C182.407 62.5405 177.089 59.5105 171.479 59.3785H171.478Z" fill="url(#paint10_linear)"/>
<path d="M191.526 56.0565C189.182 53.6234 186.376 51.6831 183.271 50.3497C180.167 49.0162 176.828 48.3165 173.449 48.2915C170.071 48.2658 166.721 48.9153 163.597 50.2021C160.473 51.4888 157.637 53.3868 155.257 55.7845C145.665 65.4385 145.503 81.1585 154.884 91.0165C163.394 99.9595 177.124 101.472 187.381 94.5965L205.699 113.622C206.171 114.112 206.952 114.128 207.443 113.656L212.008 109.274C212.125 109.162 212.219 109.028 212.284 108.879C212.349 108.731 212.384 108.571 212.387 108.41C212.39 108.248 212.361 108.087 212.302 107.936C212.243 107.786 212.155 107.648 212.042 107.532L193.722 88.5075C200.972 78.5905 200.046 64.9095 191.526 56.0575V56.0565ZM185.82 86.6315C178.604 93.5585 167.13 93.3325 160.192 86.1275C153.254 78.9225 153.48 67.4665 160.696 60.5385C167.912 53.6115 179.386 53.8365 186.324 61.0415C189.656 64.5015 191.475 69.1415 191.381 73.9415C191.334 76.3184 190.819 78.6626 189.865 80.8401C188.911 83.0176 187.537 84.9856 185.821 86.6315H185.82Z" fill="#65A300"/>
<path fill-rule="evenodd" clip-rule="evenodd" d="M159.886 68.0825C157.766 68.0825 157.763 71.2495 159.886 71.2495C162.008 71.2495 162.008 68.0825 159.886 68.0825ZM173.865 58.5865C168.433 58.4665 163.49 61.1645 160.862 65.2405C160.004 66.5705 162.439 67.7455 163.292 66.4215C165.468 63.0485 169.603 60.9055 174.076 61.0165C178.763 61.1335 183.028 63.7895 185.286 67.4765C186.142 68.8745 188.387 67.6035 187.539 66.2135C184.789 61.7355 179.477 58.7065 173.865 58.5865V58.5865Z" fill="#65A300"/>
<path fill-rule="evenodd" clip-rule="evenodd" d="M94.6592 107.667H95.6592V110.834H94.6592V107.667Z" fill="#65A300"/>
<path fill-rule="evenodd" clip-rule="evenodd" d="M96.6481 108.966V109.534H93.4661V108.966H96.6481Z" fill="#65A300"/>
<path fill-rule="evenodd" clip-rule="evenodd" d="M169.161 1.60553C168.966 1.52112 168.809 1.36776 168.72 1.17478C168.631 0.98181 168.616 0.762759 168.678 0.559526C168.71 0.453646 168.701 0.339402 168.652 0.24027C168.602 0.141138 168.517 0.0646505 168.413 0.0265256C168.309 -0.0114148 168.195 -0.00856518 168.093 0.0344988C167.992 0.0775627 167.91 0.157631 167.865 0.258526C167.779 0.453438 167.625 0.61015 167.432 0.698981C167.238 0.787812 167.019 0.802593 166.815 0.740526C166.708 0.707281 166.593 0.716361 166.493 0.765884C166.393 0.815408 166.315 0.901575 166.277 1.00653C166.238 1.11131 166.242 1.22703 166.286 1.32939C166.331 1.43176 166.414 1.51281 166.517 1.55553C166.712 1.63976 166.87 1.79304 166.959 1.98603C167.048 2.17902 167.063 2.39817 167.001 2.60153C166.967 2.70858 166.976 2.82464 167.026 2.92521C167.076 3.02578 167.163 3.10298 167.269 3.14053C167.375 3.17866 167.491 3.17469 167.593 3.12943C167.696 3.08418 167.777 3.00112 167.82 2.89753C167.906 2.7028 168.06 2.54631 168.254 2.45767C168.447 2.36903 168.667 2.35439 168.87 2.41653C168.976 2.449 169.091 2.43976 169.19 2.39069C169.289 2.34162 169.366 2.25643 169.405 2.15253C169.438 2.0647 169.441 1.96862 169.414 1.87879C169.388 1.78896 169.332 1.71025 169.257 1.65453C169.228 1.63419 169.196 1.61773 169.162 1.60553H169.161Z" fill="#4D8AF0"/>
<path fill-rule="evenodd" clip-rule="evenodd" d="M98.375 25.3595C98.179 25.2752 98.021 25.1216 97.9313 24.928C97.8416 24.7344 97.8266 24.5145 97.889 24.3105C97.9211 24.2044 97.9114 24.09 97.862 23.9907C97.8125 23.8915 97.727 23.8148 97.623 23.7765C97.5189 23.7385 97.4042 23.7415 97.3021 23.7847C97.2001 23.8279 97.1182 23.9083 97.073 24.0095C96.9868 24.2053 96.8318 24.3626 96.6374 24.4516C96.4429 24.5407 96.2225 24.5552 96.018 24.4925C95.9116 24.46 95.7968 24.4693 95.697 24.5186C95.5972 24.5678 95.5199 24.6533 95.481 24.7575C95.4425 24.8616 95.4454 24.9764 95.4891 25.0784C95.5329 25.1804 95.6141 25.2617 95.716 25.3055C95.912 25.39 96.07 25.5439 96.1595 25.7377C96.249 25.9314 96.2638 26.1515 96.201 26.3555C96.1689 26.4616 96.1786 26.576 96.228 26.6753C96.2775 26.7745 96.363 26.8512 96.467 26.8895C96.5711 26.9275 96.6858 26.9245 96.7879 26.8813C96.8899 26.8381 96.9718 26.7577 97.017 26.6565C97.103 26.4605 97.2579 26.303 97.4524 26.2138C97.6469 26.1245 97.8674 26.1099 98.072 26.1725C98.1784 26.205 98.2932 26.1957 98.393 26.1464C98.4928 26.0972 98.5701 26.0117 98.609 25.9075C98.6473 25.8037 98.6443 25.6892 98.6008 25.5874C98.5573 25.4857 98.4765 25.4045 98.375 25.3605V25.3595ZM198.602 123.526C198.406 123.442 198.248 123.288 198.159 123.095C198.069 122.901 198.055 122.681 198.117 122.477C198.149 122.371 198.139 122.257 198.09 122.158C198.041 122.058 197.955 121.982 197.851 121.943C197.747 121.905 197.632 121.908 197.53 121.951C197.427 121.995 197.345 122.075 197.3 122.176C197.214 122.372 197.059 122.529 196.865 122.618C196.671 122.707 196.45 122.722 196.246 122.66C196.14 122.627 196.025 122.636 195.925 122.686C195.825 122.735 195.748 122.82 195.709 122.924C195.67 123.028 195.673 123.143 195.717 123.245C195.76 123.347 195.841 123.428 195.943 123.472C196.139 123.557 196.297 123.71 196.387 123.904C196.476 124.098 196.491 124.317 196.429 124.521C196.397 124.628 196.407 124.742 196.456 124.841C196.505 124.941 196.591 125.017 196.695 125.055C196.799 125.093 196.914 125.091 197.016 125.047C197.118 125.004 197.2 124.924 197.245 124.822C197.331 124.627 197.486 124.47 197.68 124.381C197.874 124.292 198.095 124.277 198.299 124.339C198.405 124.372 198.52 124.363 198.62 124.313C198.72 124.264 198.797 124.179 198.836 124.074C198.875 123.971 198.872 123.856 198.828 123.754C198.785 123.652 198.704 123.571 198.602 123.526V123.526Z" fill="#FDD835"/>
<path d="M127.67 13.4585C128.329 13.4585 128.863 12.9266 128.863 12.2705C128.863 11.6144 128.329 11.0825 127.67 11.0825C127.011 11.0825 126.477 11.6144 126.477 12.2705C126.477 12.9266 127.011 13.4585 127.67 13.4585Z" fill="#F55F44"/>
<path d="M208.807 27.7085C209.466 27.7085 210 27.1766 210 26.5205C210 25.8644 209.466 25.3325 208.807 25.3325C208.148 25.3325 207.614 25.8644 207.614 26.5205C207.614 27.1766 208.148 27.7085 208.807 27.7085Z" fill="#F55F44"/>
<path d="M202.443 61.7505C203.102 61.7505 203.636 61.2186 203.636 60.5625C203.636 59.9064 203.102 59.3745 202.443 59.3745C201.784 59.3745 201.25 59.9064 201.25 60.5625C201.25 61.2186 201.784 61.7505 202.443 61.7505Z" fill="#4D8AF0"/>
<path opacity="0.5" d="M76.7611 5.54153C77.42 5.54153 77.9541 5.00964 77.9541 4.35353C77.9541 3.69741 77.42 3.16553 76.7611 3.16553C76.1022 3.16553 75.5681 3.69741 75.5681 4.35353C75.5681 5.00964 76.1022 5.54153 76.7611 5.54153Z" fill="#65A300"/>
<defs>
<linearGradient id="paint0_linear" x1="166.647" y1="176.542" x2="166.647" y2="189.999" gradientUnits="userSpaceOnUse">
<stop stop-color="#E7E7E7"/>
<stop offset="1" stop-color="#F5F5F5"/>
</linearGradient>
<linearGradient id="paint1_linear" x1="137.195" y1="119.511" x2="137.195" y2="21.4086" gradientUnits="userSpaceOnUse">
<stop stop-color="#808080" stop-opacity="0.25"/>
<stop offset="0.54" stop-color="#808080" stop-opacity="0.12"/>
<stop offset="1" stop-color="#808080" stop-opacity="0.1"/>
</linearGradient>
<linearGradient id="paint2_linear" x1="120.501" y1="67.1785" x2="120.501" y2="40.4015" gradientUnits="userSpaceOnUse">
<stop stop-color="#808080" stop-opacity="0.25"/>
<stop offset="0.54" stop-color="#808080" stop-opacity="0.12"/>
<stop offset="1" stop-color="#808080" stop-opacity="0.1"/>
</linearGradient>
<linearGradient id="paint3_linear" x1="120.105" y1="59.2825" x2="120.105" y2="42.7515" gradientUnits="userSpaceOnUse">
<stop stop-color="#808080" stop-opacity="0.25"/>
<stop offset="0.54" stop-color="#808080" stop-opacity="0.12"/>
<stop offset="1" stop-color="#808080" stop-opacity="0.1"/>
</linearGradient>
<linearGradient id="paint4_linear" x1="120.501" y1="100.382" x2="120.501" y2="73.7686" gradientUnits="userSpaceOnUse">
<stop stop-color="#808080" stop-opacity="0.25"/>
<stop offset="0.54" stop-color="#808080" stop-opacity="0.12"/>
<stop offset="1" stop-color="#808080" stop-opacity="0.1"/>
</linearGradient>
<linearGradient id="paint5_linear" x1="120.105" y1="92.4856" x2="120.105" y2="76.1166" gradientUnits="userSpaceOnUse">
<stop stop-color="#808080" stop-opacity="0.25"/>
<stop offset="0.54" stop-color="#808080" stop-opacity="0.12"/>
<stop offset="1" stop-color="#808080" stop-opacity="0.1"/>
</linearGradient>
<linearGradient id="paint6_linear" x1="146.414" y1="119.561" x2="165.448" y2="23.7835" gradientUnits="userSpaceOnUse">
<stop stop-color="#808080" stop-opacity="0.25"/>
<stop offset="0.54" stop-color="#808080" stop-opacity="0.12"/>
<stop offset="1" stop-color="#808080" stop-opacity="0.1"/>
</linearGradient>
<linearGradient id="paint7_linear" x1="152.536" y1="88.0173" x2="157.621" y2="62.4296" gradientUnits="userSpaceOnUse">
<stop stop-color="#808080" stop-opacity="0.25"/>
<stop offset="0.54" stop-color="#808080" stop-opacity="0.12"/>
<stop offset="1" stop-color="#808080" stop-opacity="0.1"/>
</linearGradient>
<linearGradient id="paint8_linear" x1="178.58" y1="115.583" x2="178.58" y2="49.8754" gradientUnits="userSpaceOnUse">
<stop stop-color="#B3B3B3" stop-opacity="0.25"/>
<stop offset="0.54" stop-color="#B3B3B3" stop-opacity="0.1"/>
<stop offset="1" stop-color="#B3B3B3" stop-opacity="0.05"/>
</linearGradient>
<linearGradient id="paint9_linear" x1="157.499" y1="72.8309" x2="157.499" y2="69.6665" gradientUnits="userSpaceOnUse">
<stop stop-opacity="0.12"/>
<stop offset="0.55" stop-opacity="0.09"/>
<stop offset="1" stop-opacity="0.02"/>
</linearGradient>
<linearGradient id="paint10_linear" x1="171.815" y1="68.875" x2="171.815" y2="59.3754" gradientUnits="userSpaceOnUse">
<stop stop-opacity="0.12"/>
<stop offset="0.55" stop-opacity="0.09"/>
<stop offset="1" stop-opacity="0.02"/>
</linearGradient>
</defs>
</svg>
