<svg xmlns="http://www.w3.org/2000/svg" xmlns:xlink="http://www.w3.org/1999/xlink" width="334" height="190" viewBox="0 0 334 190">
    <defs>
        <linearGradient id="a" x1="50%" x2="50%" y1="0%" y2="100%">
            <stop offset="0%" stop-color="#E7E7E7"/>
            <stop offset="100%" stop-color="#F5F5F5"/>
        </linearGradient>
        <linearGradient id="b" x1="50%" x2="50%" y1="100%" y2="0%">
            <stop offset="0%" stop-color="gray" stop-opacity=".25"/>
            <stop offset="54%" stop-color="gray" stop-opacity=".12"/>
            <stop offset="100%" stop-color="gray" stop-opacity=".1"/>
        </linearGradient>
        <path id="c" d="M.089.116h23.664v15.66H.089z"/>
        <path id="e" d="M.089.068h23.664v15.66H.089z"/>
        <linearGradient id="g" x1="0%" y1="50%" y2="50%">
            <stop offset="0%" stop-color="gray" stop-opacity=".25"/>
            <stop offset="54%" stop-color="gray" stop-opacity=".12"/>
            <stop offset="100%" stop-color="gray" stop-opacity=".1"/>
        </linearGradient>
        <linearGradient id="h" x1=".006%" x2="100.006%" y1="50.002%" y2="50.002%">
            <stop offset="0%" stop-color="gray" stop-opacity=".25"/>
            <stop offset="54%" stop-color="gray" stop-opacity=".12"/>
            <stop offset="100%" stop-color="gray" stop-opacity=".1"/>
        </linearGradient>
        <linearGradient id="i" x1="50%" x2="50%" y1="100%" y2=".001%">
            <stop offset="0%" stop-color="#B3B3B3" stop-opacity=".25"/>
            <stop offset="54%" stop-color="#B3B3B3" stop-opacity=".1"/>
            <stop offset="100%" stop-color="#B3B3B3" stop-opacity=".05"/>
        </linearGradient>
        <linearGradient id="j" x1="49.98%" x2="49.98%" y1="99.949%" y2="0%">
            <stop offset="0%" stop-opacity=".12"/>
            <stop offset="55%" stop-opacity=".09"/>
            <stop offset="100%" stop-opacity=".02"/>
        </linearGradient>
        <linearGradient id="k" x1="49.989%" x2="49.989%" y1="100.006%" y2=".008%">
            <stop offset="0%" stop-opacity=".12"/>
            <stop offset="55%" stop-opacity=".09"/>
            <stop offset="100%" stop-opacity=".02"/>
        </linearGradient>
    </defs>
    <g fill="none" fill-rule="evenodd">
        <path fill="url(#a)" d="M15.114 167.042h333.295V180.5H15.114z" transform="translate(-15 9.5)"/>
        <path fill="#ECECEC" d="M82.366 125.112h56.157L96.363 38H39.887zM146.002 125.112l56.188.913L160 38h-56.477zM18.915 125.042l56.767.041L33.522 38H20zM229.205 38l42.144 87.07h29.446V38zM207.727 125.083h56.478l-42.16-87.075h-55.87z"/>
        <path fill="#E5E5E5" d="M318.532 167.492c-3.45 5.028-2.504 11.423-2.504 11.423s6.537-1.757 9.986-6.785c3.449-5.028 2.504-11.423 2.504-11.423s-6.537 1.757-9.986 6.785z"/>
        <path fill="#F2F2F2" stroke="#676578" d="M306.94 166.797c1.91 6.995 8.449 11.328 8.449 11.328s3.444-7.01 1.534-14.005c-1.909-6.996-8.448-11.328-8.448-11.328s-3.444 7.01-1.535 14.005z"/>
        <path fill="#17C9B2" d="M309.993 166.16c5.272 5.027 5.916 12.757 5.916 12.757s-7.903-.423-13.175-5.451c-5.272-5.028-5.916-12.758-5.916-12.758s7.904.423 13.175 5.451z"/>
        <g transform="translate(5.682 110.042)">
            <ellipse cx="9.148" cy="11.479" fill="#FF6584" rx="6.761" ry="6.729"/>
            <path fill="#E1E1E1" d="M41.364 36.556c0 15.74-9.26 21.236-20.682 21.236C9.26 57.792 0 52.296 0 36.556S20.682.792 20.682.792s20.682 20.024 20.682 35.764z"/>
            <path fill="#3F3D56" d="M20.321 54.511l.214-13.153 8.897-16.273-8.863 14.21.096-5.915 6.131-11.773-6.106 10.208.173-10.637 6.566-9.373-6.539 7.7L20.998 0l-.679 25.821.056-1.065L13.7 14.54l6.568 12.26-.622 11.88-.018-.315-7.696-10.75 7.672 11.864-.077 1.486-.014.022.006.122-1.578 30.141h2.108l.253-15.568 7.654-11.836z"/>
        </g>
        <g transform="translate(233.182 26.125)">
            <ellipse cx="35.795" cy="22.167" fill="#2F2E41" rx="9.545" ry="9.5"/>
            <path fill="#A78185" d="M46.667 142.733l1.856 7.684h-4.508l-1.856-8.709zM25.455 142.5v7.389l-4.773.528V142.5zM47.727 59.638s-.53 11.348-1.06 12.14c-.53.791-5.303 12.139-5.303 12.139l-2.387-7.39s3.712-6.07 3.182-9.5c-.53-3.43-.196-7.652-.196-7.652l5.764.263z"/>
            <ellipse cx="32.614" cy="25.333" fill="#A78185" rx="7.159" ry="7.125"/>
            <path fill="#A78185" d="M38.864 26.125s-.254 10.35 1.524 11.903c1.778 1.552-10.16.258-10.16.258s2.54-7.245.507-8.797c-2.032-1.553 8.129-3.364 8.129-3.364z"/>
            <path fill="#CCD6F8" d="M29.29 38.24s1.58-2.858 3.687-2.598c2.108.26 8.956.78 9.22 1.299.263.52 1.053 2.338 1.58 2.858.526.52 4.477 1.3 4.74 4.417.264 3.119-9.482 22.087-9.482 22.087s1.317 4.417 1.054 5.457c-.263 1.039 1.317 4.157 1.054 5.456-.264 1.3 3.95 9.095 1.843 19.228v16.37s7.112 28.323 5.005 30.402c-2.107 2.079-9.219.78-10.536 0-1.317-.78-6.848-40.016-6.848-40.016l-2.634-13.252-.263 29.103s.526 24.425-1.317 25.204c-1.844.78-8.956 1.04-9.482-.52-.411-1.215-2.424-33.568-3.29-47.75-.3-4.895.09-9.807 1.16-14.596 1.096-4.905 2.687-10.668 4.5-13.007 3.424-4.418 5.531-18.45 5.531-18.45l-4.477-8.054s2.634-2.599 4.214-2.599c1.58 0 4.741-1.039 4.741-1.039z"/>
            <path fill="#AAB5DC" d="M46.136 41.167l2.387 1.583s.491 16.615-.314 17.639c-.805 1.024-6.401.524-6.823-.378-.421-.902 4.75-18.844 4.75-18.844z"/>
            <path fill="#A78185" d="M23.286 56.873c.755 5.288 1.416 9.995-2.444 14.254A72.636 72.636 0 0 1 7.811 82.526C7.338 83.792.388 93.09.035 89.382c-.354-3.71 2.047-6.617 5.46-9.754 3.411-3.137 8.185-9.943 10.878-13.677 2.693-3.735 1.585-6.063 1.491-9.183-.094-3.119 4.363.142 5.422.105z"/>
            <path fill="#2F2E41" d="M20.467 145.667s-.267 2.84-1.068 3.601c-.802.761-2.939 1.776-2.672 4.565.268 2.79 2.004 2.917 2.004 2.917l-.134-.634.802.254.133.38h7.48s.134-2.663-.134-3.931c-.267-1.268-.267-7.355-1.068-7.101-.801.253-2.938.507-3.473 1.521-.534 1.015-2.137.66-1.87-1.572zM47.146 145.667s.267 2.84 1.069 3.601c.801.761 2.938 1.776 2.671 4.565-.267 2.79-2.003 2.917-2.003 2.917l.133-.634-.801.254-.134.38h-7.48s-.133-2.663.134-3.931c.267-1.268.267-7.355 1.069-7.101.801.253 2.938.507 3.472 1.521.535 1.015 2.137.66 1.87-1.572z"/>
            <path fill="#AAB5DC" d="M23.864 38.792l-3.978 3.166s.17 5.588-.884 7.885c-1.053 2.296-2.896 7.655-2.106 7.91.79.255 8.163 3.828 8.69 1.786.526-2.041 1.964-20.747-1.722-20.747z"/>
            <ellipse cx="46.932" cy="9.5" fill="#2F2E41" rx="9.545" ry="9.5"/>
            <path fill="#2F2E41" d="M54.57 17.924a9.365 9.365 0 0 1-8.698 1.343c-2.94-1.028-5.213-3.457-6.1-6.518.451 3.686 2.878 6.797 6.279 8.05 3.4 1.251 7.196.43 9.819-2.124 2.622-2.553 3.626-6.407 2.595-9.967.437 3.573-1.056 7.107-3.895 9.216z"/>
            <ellipse cx="38.977" cy="23.75" fill="#2F2E41" rx="7.159" ry="7.125"/>
            <ellipse cx="32.614" cy="21.375" fill="#2F2E41" rx="6.364" ry="4.75"/>
            <ellipse cx="31.42" cy="26.521" fill="#A78185" rx="1.193" ry="1.979"/>
        </g>
        <g transform="translate(75.682)">
            <path fill="url(#b)" d="M.024.034H72.32v98.102H.024z" opacity=".5" transform="translate(25.455 21.375)"/>
            <path fill="#F2F2F2" d="M25.455 22.958H96.25v94.208H25.455z"/>
            <path fill="#E0E0E0" d="M31.818 26.917h24.659v1H31.818z"/>
            <path fill="#17C9B2" d="M31.818 30.083h24.659v1H31.818z" opacity=".7"/>
            <path fill="#E0E0E0" d="M58.864 26.917h24.659v1H58.864zM63.636 48.292h24.659v1H63.636zM63.636 50.667h24.659v1H63.636zM64.432 52.25h24.659v1H64.432zM63.636 82.333h24.659v1H63.636zM63.636 83.917h24.659v1H63.636zM64.432 85.5h24.659v1H64.432z"/>
            <path fill="url(#b)" d="M.005.027h26.22v26.777H.005z" opacity=".5" transform="translate(31.818 40.375)"/>
            <path fill="#F5F5F5" d="M31.818 41.167h25.455V66.5H31.818z"/>
            <path fill="url(#b)" d="M.088.002h23.669v16.531H.088z" opacity=".5" transform="translate(32.614 42.75)"/>
            <path fill="#FFF" d="M33.409 42.75h23.068v15.833H33.409z"/>
            <g transform="translate(62.045 52.25)">
                <mask id="d" fill="#fff">
                    <use xlink:href="#c"/>
                </mask>
                <g fill="#17C9B2" mask="url(#d)" opacity=".4">
                    <g transform="translate(-32.257 -9.21)">
                        <path d="M.88 14.64l5.96-9.058 2.498 3.962 5.382-5.471 4.613 5.47 4.035-8.112 10.378 16.226L.112 16.525z"/>
                        <ellipse cx="5.494" cy="1.808" rx="1.73" ry="1.698"/>
                    </g>
                </g>
            </g>
            <path fill="url(#b)" d="M.005.144h26.22v26.613H.005z" opacity=".5" transform="translate(31.818 73.625)"/>
            <path fill="#F5F5F5" d="M31.818 74.417h25.455V99.75H31.818z"/>
            <path fill="url(#b)" d="M.088.117h23.669v16.369H.088z" opacity=".5" transform="translate(32.614 76)"/>
            <path fill="#FFF" d="M33.409 76h23.068v15.833H33.409z"/>
            <g transform="translate(62.045 86.292)">
                <mask id="f" fill="#fff">
                    <use xlink:href="#e"/>
                </mask>
                <g fill="#BDBDBD" mask="url(#f)" opacity=".4">
                    <g transform="translate(-32.257 -9.21)">
                        <path d="M.88 14.59l5.96-9.056 2.498 3.963 5.382-5.472 4.613 5.472 4.035-8.114 10.378 16.226L.112 16.478z"/>
                        <ellipse cx="5.494" cy="1.761" rx="1.73" ry="1.698"/>
                    </g>
                </g>
            </g>
            <path fill="url(#g)" d="M-2.82 19.551l97.008-.867-.641 71.86-97.01.866z" opacity=".5" transform="rotate(-78.76 72.99 42.04)"/>
            <path fill="#FFF" d="M37.083 110.593l18.42-92.633 69.238 13.751-18.42 92.633z"/>
            <path fill="#E0E0E0" d="M59.686 23.235l49.137 9.759-.148.744-49.137-9.76zM45.705 93.548l49.137 9.759-.148.744-49.137-9.76zM44.853 97.824l37.97 7.542-.149.743-37.97-7.54z"/>
            <path fill="#17C9B2" d="M44.002 102.104l14.145 2.81-.148.743-14.145-2.81zM58.834 27.514l24.568 4.88-.148.743-24.568-4.88z" opacity=".7"/>
            <path fill="#E0E0E0" d="M57.985 31.792l44.297 8.797-.148.744-44.297-8.798z"/>
            <path fill="#3AD29F" d="M57.134 36.07l10.794 2.145-.148.743-10.794-2.144z" opacity=".7"/>
            <path fill="#E0E0E0" d="M56.284 40.349l49.137 9.759-.148.744-49.137-9.76z"/>
            <path fill="url(#h)" d="M12.377-5.06l26.085-.011-.003 44.999-26.085.011z" opacity=".5" transform="rotate(-78.76 87.667 13.38)"/>
            <path fill="#FFF" d="M60.863 58.661l43.553 8.65-4.92 24.74-43.552-8.65z"/>
            <path fill="#E0E0E0" d="M55.433 44.629l49.137 9.759-.148.743-49.137-9.759z"/>
            <path fill="#17C9B2" d="M64.758 62.915l5.398 1.072L66.57 82.03l-5.398-1.072z"/>
            <path fill="#3AD29F" d="M73.253 70.79l5.398 1.072-2.404 12.091-5.398-1.072z"/>
            <path fill="#F55F44" d="M81.823 78.293l5.398 1.072-1.295 6.51-5.398-1.072z"/>
            <path fill="#FDD835" d="M92.833 73.519l5.398 1.072-2.626 13.207-5.398-1.072z"/>
            <path fill="url(#i)" fill-rule="nonzero" d="M114.366 57.64a25.36 25.36 0 0 0-18.077-7.764 25.361 25.361 0 0 0-18.191 7.492c-9.591 9.654-9.754 25.374-.373 35.233 8.51 8.943 22.238 10.455 32.496 3.58l18.319 19.024c.472.49 1.253.506 1.744.035l4.565-4.383a1.23 1.23 0 0 0 .034-1.741l-18.314-19.023c7.248-9.918 6.32-23.601-2.203-32.452zm-5.706 30.588c-7.216 6.927-18.69 6.701-25.627-.504-6.938-7.205-6.713-18.661.503-25.588s18.69-6.702 25.628.502c3.332 3.46 5.151 8.1 5.057 12.9a18.085 18.085 0 0 1-5.56 12.69z"/>
            <path fill="url(#j)" d="M81.931 69.667c-2.118 0-2.122 3.166 0 3.166s2.122-3.166 0-3.166z"/>
            <path fill="url(#k)" d="M95.91 59.379c-5.431-.121-10.374 2.578-13.002 6.654-.858 1.33 1.577 2.505 2.43 1.181 2.176-3.374 6.31-5.517 10.783-5.405 4.687.116 8.952 2.773 11.21 6.459.857 1.398 3.102.128 2.254-1.263-2.746-4.464-8.064-7.494-13.674-7.626z"/>
            <path fill="#17C9B2" fill-rule="nonzero" d="M115.958 56.057a25.361 25.361 0 0 0-18.077-7.765 25.362 25.362 0 0 0-18.192 7.493c-9.592 9.654-9.754 25.374-.373 35.232 8.51 8.943 22.24 10.455 32.497 3.58l18.318 19.025c.472.49 1.253.506 1.744.034l4.565-4.382a1.23 1.23 0 0 0 .034-1.742l-18.32-19.024c7.25-9.917 6.324-23.598-2.196-32.45zm-5.706 30.575c-7.216 6.927-18.69 6.701-25.628-.504-6.938-7.205-6.712-18.661.504-25.589 7.216-6.927 18.69-6.702 25.628.503 3.332 3.46 5.151 8.1 5.057 12.9a18.084 18.084 0 0 1-5.56 12.69z"/>
            <path fill="#17C9B2" d="M84.318 68.083c-2.12 0-2.123 3.167 0 3.167 2.122 0 2.122-3.167 0-3.167zM98.297 58.587c-5.432-.12-10.375 2.578-13.003 6.654-.858 1.33 1.577 2.505 2.43 1.181 2.176-3.373 6.311-5.516 10.784-5.405 4.687.117 8.952 2.773 11.21 6.46.856 1.398 3.101.127 2.253-1.263-2.75-4.478-8.062-7.507-13.674-7.627z"/>
            <path fill="#47E6B1" d="M19.091 107.667h1v3.167h-1z"/>
            <path fill="#47E6B1" d="M21.08 108.966v.568h-3.182v-.568z"/>
            <path fill="#4D8AF0" d="M93.593 1.606A.864.864 0 0 1 93.11.56a.433.433 0 0 0-.265-.533.436.436 0 0 0-.548.232.87.87 0 0 1-1.05.482.435.435 0 0 0-.538.266.432.432 0 0 0 .24.549.864.864 0 0 1 .484 1.046.433.433 0 0 0 .268.539.436.436 0 0 0 .551-.243.87.87 0 0 1 1.05-.481.435.435 0 0 0 .535-.264.432.432 0 0 0-.148-.498.418.418 0 0 0-.095-.049z"/>
            <path fill="#FDD835" d="M22.807 25.36a.866.866 0 0 1-.486-1.049.435.435 0 0 0-.266-.534.438.438 0 0 0-.55.233.873.873 0 0 1-1.055.483.437.437 0 0 0-.537.265.433.433 0 0 0 .235.548.866.866 0 0 1 .485 1.05.435.435 0 0 0 .266.534.438.438 0 0 0 .55-.233.873.873 0 0 1 1.055-.484.437.437 0 0 0 .537-.265.433.433 0 0 0-.234-.547zM123.034 123.527a.866.866 0 0 1-.485-1.049.435.435 0 0 0-.266-.534.438.438 0 0 0-.551.233.873.873 0 0 1-1.054.483.437.437 0 0 0-.537.265.433.433 0 0 0 .234.548.866.866 0 0 1 .486 1.049.435.435 0 0 0 .266.534.438.438 0 0 0 .55-.233.873.873 0 0 1 1.054-.483.437.437 0 0 0 .537-.265.433.433 0 0 0-.234-.548z"/>
            <ellipse cx="52.102" cy="12.271" fill="#F55F44" rx="1.193" ry="1.188"/>
            <ellipse cx="133.239" cy="26.521" fill="#F55F44" rx="1.193" ry="1.188"/>
            <ellipse cx="126.875" cy="60.563" fill="#4D8AF0" rx="1.193" ry="1.188"/>
            <ellipse cx="1.193" cy="4.354" fill="#47E6B1" opacity=".5" rx="1.193" ry="1.188"/>
        </g>
    </g>
</svg>
