<svg width="317" height="190" viewBox="0 0 317 190" fill="none" xmlns="http://www.w3.org/2000/svg">
<path d="M314.573 151.5C312.473 160.3 304.673 167.5 294.373 167.5H100.973C87.1733 167.5 74.2733 161.5 65.2733 151.5C62.8733 148.9 60.8733 145.9 59.0733 142.8L3.37328 41.3C2.57328 39.8 1.97328 38.3 1.57328 36.8C-2.02672 24 7.47328 10.5 21.6733 10.5H214.973C227.473 10.5 239.273 15.4 248.073 23.8L239.873 36.8L234.073 46L254.973 59.3L263.073 46.6L312.673 136.7C315.173 141.5 315.673 146.7 314.573 151.5Z" fill="white"/>
<path d="M294.373 168.2H100.973C87.1733 168.2 73.9733 162.3 64.7733 151.9C62.3733 149.2 60.2733 146.2 58.4733 143L2.67328 41.7C1.87328 40.2 1.17328 38.6 0.773281 37.1C-1.02672 30.7 0.37328 23.7 4.37328 18.3C8.47328 12.9 14.6733 9.79999 21.4733 9.79999H214.773C227.373 9.79999 239.373 14.6 248.373 23.3L248.773 23.7L234.773 45.7L254.473 58.2L262.873 45L313.073 136.3C315.673 141 316.373 146.5 315.173 151.6C312.973 161.4 304.373 168.2 294.373 168.2ZM21.5733 11.2C15.2733 11.2 9.47328 14.1 5.67328 19.1C1.87328 24.1 0.573281 30.6 2.27328 36.6C2.67328 38.1 3.27328 39.5 4.07328 40.9L59.8733 142.4C61.5733 145.5 63.5733 148.4 65.9733 151C74.8733 161 87.6733 166.8 101.073 166.8H294.373C303.673 166.8 311.673 160.5 313.873 151.4C315.073 146.5 314.373 141.6 311.973 137.1L263.073 48.1L255.273 60.4L233.073 46.3L247.173 24C238.473 15.8 227.073 11.3 215.073 11.3H21.5733V11.2Z" fill="#1B1C29"/>
<path d="M248.073 23.8L239.873 36.8H1.47327C-2.12673 24 7.37328 10.5 21.5733 10.5H214.873C227.473 10.5 239.273 15.4 248.073 23.8Z" fill="#1B1C29"/>
<path d="M314.573 151.5C312.473 160.3 304.673 167.5 294.373 167.5H100.973C87.1733 167.5 74.2733 161.5 65.2733 151.5H314.573Z" fill="#1B1C29"/>
<path d="M60.8733 28.8H29.2733C27.1733 28.8 25.4733 27.1 25.4733 25C25.4733 22.9 27.1733 21.2 29.2733 21.2H60.9733C63.0733 21.2 64.7733 22.9 64.7733 25C64.7733 27.1 63.0733 28.8 60.8733 28.8Z" fill="white"/>
<path d="M212.973 28.8H197.373C195.273 28.8 193.573 27.1 193.573 25C193.573 22.9 195.273 21.2 197.373 21.2H212.973C215.073 21.2 216.773 22.9 216.773 25C216.873 27.1 215.173 28.8 212.973 28.8Z" fill="white"/>
<path d="M137.573 83C134.073 83 130.373 82.7 126.573 82.2C113.173 80.3 104.073 74.7 98.7733 70.3C97.2733 69.1 96.5733 67.2 96.6733 65.3C96.8733 63.4 97.8733 61.7 99.5733 60.8C106.073 57.1 117.373 52.6 133.773 52.6C139.973 52.6 146.473 53.2 153.173 54.5C157.673 55.4 163.373 58.4 165.673 62.6C166.973 64.9 167.073 67.4 166.173 69.9C163.073 78.1 152.273 83 137.573 83Z" fill="white"/>
<path d="M133.773 53.4C139.973 53.4 146.373 54 153.073 55.3C157.373 56.1 162.873 59 165.073 63C166.273 65.1 166.373 67.3 165.473 69.6C163.173 75.7 154.573 82.2 137.473 82.2C134.073 82.2 130.373 81.9 126.573 81.4C113.273 79.6 104.373 74 99.1733 69.7C97.8733 68.6 97.2733 67 97.3733 65.4C97.4733 63.7 98.4733 62.3 99.8733 61.5C106.473 57.8 117.573 53.4 133.773 53.4ZM133.773 51.9C117.173 51.9 105.773 56.5 99.2733 60.2C95.2733 62.5 94.7733 68 98.2733 70.9C103.573 75.4 112.773 81.1 126.373 83C130.373 83.5 134.073 83.8 137.473 83.8C154.173 83.8 163.973 77.7 166.873 70.2C170.273 61.3 159.873 55.1 153.373 53.8C146.173 52.4 139.673 51.9 133.773 51.9Z" fill="#1B1C29"/>
<path d="M149.173 79.7C148.273 77.3 148.673 74.6 149.173 72.1C149.673 69.7 150.873 68 149.573 65.9C145.673 59.6 134.873 60.3 128.873 59.6C125.173 59.2 118.073 57.4 114.073 54.3C107.673 56 102.673 58.2 99.1733 60.2C95.2733 62.5 94.7733 67.9 98.2733 70.9C103.573 75.4 112.773 81.1 126.373 83C136.273 84.4 144.373 83.9 150.673 82.3C150.073 81.5 149.573 80.6 149.173 79.7Z" fill="#6045AF"/>
<path d="M121.673 121.7C121.573 121.7 121.573 121.7 121.473 121.7C110.373 118.4 98.2733 104.5 99.8733 92.2C99.9733 91.8 100.273 91.4999 100.673 91.5999C101.073 91.6999 101.373 92 101.273 92.4C99.8733 103.7 111.373 117.1 121.873 120.3C122.273 120.4 122.473 120.8 122.373 121.2C122.273 121.5 121.973 121.7 121.673 121.7Z" fill="#1B1C29"/>
<path d="M92.4733 75.7C92.3733 75.7 92.1733 75.7 92.0733 75.6C88.5733 73.4 86.1733 69.9 85.7733 66.4C85.3733 63.1 86.6733 59.8 89.4733 56.9C89.7733 56.6 90.2733 56.6 90.5733 56.9C90.8733 57.2 90.8733 57.7 90.5733 58C88.0733 60.5 86.9733 63.4 87.3733 66.2C87.7733 69.3 89.8733 72.4 92.9733 74.4C93.2733 74.6 93.4733 75.1 93.1733 75.4C92.9733 75.6 92.6733 75.7 92.4733 75.7Z" fill="#1B1C29"/>
<path d="M95.9733 85.2C95.8733 85.2 95.8733 85.2 95.9733 85.2C91.8733 84.9 84.5733 82.1 80.9733 75.8C80.7733 75.4 80.8733 75 81.2733 74.8C81.6733 74.6 82.0733 74.7 82.2733 75.1C85.5733 80.9 92.2733 83.4 95.9733 83.7C96.3733 83.7 96.6733 84.1 96.6733 84.5C96.6733 84.9 96.3733 85.2 95.9733 85.2Z" fill="#1B1C29"/>
<path d="M92.4733 130.9C92.3733 130.9 92.3733 130.9 92.2733 130.9C92.1733 130.9 84.2733 129 83.1733 121.2C83.0733 120.8 83.3733 120.4 83.7733 120.4C84.1733 120.3 84.5733 120.6 84.5733 121C85.4733 127.8 92.4733 129.5 92.4733 129.5C92.8733 129.6 93.1733 130 93.0733 130.4C93.0733 130.6 92.7733 130.9 92.4733 130.9Z" fill="#1B1C29"/>
<path d="M236.273 115.4C235.973 115.4 235.573 115.2 235.573 114.8C235.473 114.4 235.773 114 236.173 113.9C246.273 111.8 252.173 104 254.273 98C254.373 97.6 254.873 97.4 255.273 97.5C255.673 97.6 255.873 98.1 255.773 98.5C252.873 106.9 245.373 113.6 236.573 115.4C236.373 115.4 236.373 115.4 236.273 115.4Z" fill="#1B1C29"/>
<path d="M234.773 124.7C234.473 124.7 234.073 124.5 234.073 124.1C233.973 123.7 234.273 123.3 234.673 123.2C241.473 121.8 246.673 119.3 250.873 115.4C251.173 115.1 251.673 115.1 251.973 115.4C252.273 115.7 252.273 116.2 251.973 116.5C247.573 120.6 242.073 123.3 235.073 124.7C234.873 124.7 234.873 124.7 234.773 124.7Z" fill="#1B1C29"/>
<path d="M208.173 90.8L172.173 109.5L204.373 122.6L237.673 105.8L208.173 90.8Z" fill="#1B1C29"/>
<path d="M216.173 85.8C215.673 76.7 206.173 60.6 179.273 58.2C179.473 59.9 178.373 61.7 178.073 63.4C177.273 67.2 175.773 70.8 173.373 73.1C182.073 73.9 193.273 79.2 195.873 84.9C196.073 85.4 196.273 86 196.473 86.5C192.873 89 190.673 94.2 192.273 95.9C193.873 97.7 196.473 93.4 196.473 93.4L197.173 93.3C197.073 96.9 196.373 99.6 198.173 100.6C200.673 102 201.773 99.6 201.773 99.6C205.573 101.7 216.673 95.2 216.173 85.8Z" fill="white"/>
<path d="M199.573 101.7C198.973 101.7 198.373 101.5 197.773 101.2C195.873 100.2 196.073 97.8 196.273 95.1C196.273 95 196.273 94.9 196.273 94.9C195.573 95.8 194.373 97 193.273 97.1C192.673 97.2 192.073 96.9 191.673 96.4C191.073 95.8 190.873 94.8 190.973 93.6C191.273 91.1 193.173 88 195.473 86.2C195.373 85.8 195.173 85.5 195.073 85.2C192.573 79.6 181.473 74.6 173.173 73.8L171.573 73.6L172.773 72.5C174.873 70.6 176.373 67.4 177.273 63.2C177.373 62.5 177.673 61.8 177.873 61.2C178.273 60.1 178.573 59.1 178.473 58.2L178.373 57.3L179.273 57.4C205.873 59.7 216.373 75.6 216.873 85.7C217.173 91.6 213.173 96.3 209.273 98.7C206.473 100.4 203.773 101 201.973 100.4C201.673 100.8 201.173 101.3 200.473 101.5C200.273 101.7 199.973 101.7 199.573 101.7ZM197.873 92.4V93.3C197.873 94 197.773 94.6 197.773 95.2C197.573 97.8 197.573 99.3 198.473 99.9C199.073 100.2 199.573 100.3 199.973 100.2C200.673 100 200.973 99.3 201.073 99.3L201.473 98.6L202.173 99C203.473 99.7 206.073 99.2 208.573 97.6C212.073 95.4 215.673 91.3 215.373 86C214.873 76.5 204.973 61.7 179.973 59.2C179.873 60.1 179.573 61 179.273 61.9C179.073 62.5 178.873 63.1 178.673 63.7C177.873 67.5 176.573 70.5 174.773 72.7C183.273 73.9 193.773 78.9 196.373 84.8C196.573 85.3 196.773 85.8 196.973 86.5L197.173 87L196.673 87.3C194.173 89.1 192.573 92.1 192.273 94C192.173 94.7 192.273 95.3 192.573 95.6C192.773 95.8 192.873 95.8 192.973 95.8C193.773 95.7 194.973 94.2 195.573 93.2L195.773 92.9L197.873 92.4Z" fill="#1B1C29"/>
<path d="M197.673 90.3C197.573 90.9 197.373 91.5 197.273 92.1C197.173 92.7 198.073 93 198.273 92.4L198.673 90.7C198.773 89.9 197.773 89.7 197.673 90.3Z" fill="#1B1C29"/>
<path d="M202.773 90.9001C202.373 93.1001 201.973 95.3 201.673 97.5C201.573 98.1 202.573 98.4 202.673 97.8C203.073 95.6 203.473 93.4 203.773 91.2C203.873 90.6 202.973 90.3001 202.773 90.9001Z" fill="#1B1C29"/>
<path d="M237.673 105.8L204.373 122.6V86.3C204.373 85.2 204.973 84.1 206.073 83.6L236.173 68.5C238.173 67.5 240.573 69 240.573 71.2V101.3C240.573 103.2 239.473 104.9 237.673 105.8Z" fill="#1B1C29"/>
<path d="M225.173 95.4C222.873 95.4 221.073 93.6 221.073 91.3C221.073 89 222.873 86.4 225.173 86.4C227.573 86.4 229.273 88.4 229.273 91.3C229.273 93.6 227.473 95.4 225.173 95.4ZM225.173 87.9C223.773 87.9 222.573 89.8 222.573 91.3C222.573 92.7 223.773 93.9 225.173 93.9C226.573 93.9 227.773 92.7 227.773 91.3C227.773 89.2 226.773 87.9 225.173 87.9Z" fill="white"/>
<path d="M204.373 118.1C203.973 118.1 203.573 117.8 203.573 117.3V101.5C203.573 101.1 203.873 100.7 204.373 100.7C204.873 100.7 205.173 101 205.173 101.5V117.3C205.173 117.8 204.773 118.1 204.373 118.1Z" fill="white"/>
<path d="M185.473 107.4C185.173 107.4 184.973 107.3 184.773 107C184.573 106.6 184.673 106.2 185.073 106L189.573 103.6C189.973 103.4 190.373 103.5 190.573 103.9C190.773 104.3 190.673 104.7 190.273 104.9L185.773 107.3C185.673 107.4 185.573 107.4 185.473 107.4Z" fill="white"/>
<path d="M192.773 107.4C192.473 107.4 192.273 107.3 192.073 107C191.873 106.6 191.973 106.2 192.373 106L194.673 104.8C195.073 104.6 195.473 104.7 195.673 105.1C195.873 105.5 195.773 105.9 195.373 106.1L193.073 107.3C193.073 107.4 192.973 107.4 192.773 107.4Z" fill="white"/>
<path d="M194.973 113.4C194.673 113.4 194.473 113.3 194.273 113C194.073 112.6 194.173 112.2 194.573 112L198.173 110.1C198.573 109.9 198.973 110 199.173 110.4C199.373 110.8 199.273 111.2 198.873 111.4L195.273 113.3C195.273 113.4 195.073 113.4 194.973 113.4Z" fill="white"/>
<path d="M119.473 64.9C109.673 69.6 109.673 76.4 113.573 79.2C117.473 82 139.973 84.1 144.973 77.3C149.973 70.5 146.873 63.9 137.173 62.2C133.373 61.5 124.473 62.5 119.473 64.9Z" fill="white"/>
<path d="M124.373 64.7C97.4733 83.8 108.773 117 150.273 120.9C157.873 121.6 162.773 116.4 166.973 118.8C169.273 120.1 172.973 117.3 174.373 118.2C178.973 121 180.073 116.3 180.073 116.3C180.873 116.5 183.173 114.1 181.973 112.2C181.973 112.2 184.373 110.5 181.873 107.4C176.773 101 161.673 99.6 153.773 97.9C145.873 96.2 130.073 94.9 136.173 83.4C137.973 79.9 141.473 75.5 141.473 75.4" fill="white"/>
<path d="M151.673 121.7C151.173 121.7 150.673 121.7 150.173 121.6C129.073 119.6 113.673 109.6 109.873 95.5C106.873 84.2 112.073 72.4 123.873 64C124.173 63.8 124.673 63.8 124.873 64.2C125.073 64.5 125.073 65 124.673 65.2C113.373 73.2 108.373 84.4 111.173 95.1C114.773 108.6 129.673 118.1 150.173 120.1C153.673 120.4 156.573 119.4 159.173 118.6C162.173 117.6 164.673 116.7 167.173 118.1C168.173 118.7 169.673 118.2 171.073 117.7C172.473 117.3 173.673 116.9 174.573 117.4C175.773 118.1 176.773 118.4 177.573 118C178.773 117.5 179.173 116 179.173 115.9L179.373 115.2L180.073 115.4C180.173 115.4 180.873 114.8 181.173 114C181.473 113.4 181.373 112.9 181.073 112.4L180.673 111.8L181.273 111.4C181.273 111.4 181.873 110.9 181.973 110.1C182.073 109.4 181.773 108.6 181.073 107.7C177.173 102.8 166.573 100.9 158.773 99.5C156.773 99.1 154.973 98.8 153.373 98.5C152.373 98.3 151.373 98.1 150.173 97.9C144.173 96.7 136.573 95.3 134.373 90.7C133.373 88.5 133.573 85.9 135.173 82.9C136.273 80.8 138.073 78.1 140.473 75L140.573 74.8C140.773 74.5 141.273 74.4 141.573 74.6C141.873 74.8 141.973 75.3 141.773 75.6C141.773 75.6 141.673 75.7 141.573 75.8C138.673 79.6 137.173 82.1 136.473 83.5C135.073 86.1 134.873 88.2 135.673 89.9C137.573 93.8 144.973 95.2 150.373 96.3C151.573 96.5 152.573 96.7 153.573 96.9C155.073 97.2 156.973 97.6 158.973 97.9C167.373 99.4 177.873 101.3 182.173 106.6C183.173 107.8 183.573 109 183.373 110.1C183.273 110.9 182.873 111.5 182.573 111.9C182.973 112.9 182.773 114.1 181.973 115.2C181.573 115.8 180.973 116.4 180.273 116.6C179.973 117.3 179.373 118.6 177.973 119.2C176.773 119.7 175.273 119.5 173.573 118.4C173.273 118.2 172.173 118.6 171.273 118.8C169.673 119.3 167.773 119.9 166.173 119C164.273 118 162.173 118.7 159.373 119.6C157.373 120.9 154.773 121.7 151.673 121.7Z" fill="#1B1C29"/>
<path d="M178.973 115.7C177.273 113.6 174.573 112.4 171.873 112.7C171.273 112.8 171.273 113.8 171.873 113.7C174.373 113.5 176.673 114.5 178.273 116.4C178.673 116.9 179.373 116.2 178.973 115.7Z" fill="#1B1C29"/>
<path d="M180.973 110.6C179.373 108.8 177.073 107.7 174.573 107.6C173.973 107.6 173.973 108.6 174.573 108.6C176.773 108.7 178.773 109.6 180.273 111.3C180.773 111.8 181.473 111 180.973 110.6Z" fill="#1B1C29"/>
<path d="M185.473 89.7C185.273 89.7 185.073 89.6 184.973 89.5L180.673 84.9C180.373 84.6 180.373 84.1 180.673 83.8C180.973 83.5 181.473 83.5 181.773 83.8L186.073 88.4C186.373 88.7 186.373 89.2 186.073 89.5C185.773 89.7 185.673 89.7 185.473 89.7Z" fill="#65A300"/>
<path d="M189.973 87.9C189.673 87.9 189.473 87.8 189.373 87.5L184.873 79.9C184.673 79.5 184.773 79.1 185.173 78.9C185.573 78.7 185.973 78.8 186.173 79.2L190.673 86.8C190.873 87.2 190.773 87.6 190.373 87.8C190.173 87.9 190.073 87.9 189.973 87.9Z" fill="#65A300"/>
<path d="M292.981 11.038L277.192 1.01672L264.492 21.0266L280.28 31.0479L292.981 11.038Z" fill="white"/>
<path d="M280.473 32L263.473 21.2L276.973 0L293.973 10.8L280.473 32ZM265.573 20.8L280.073 30L291.973 11.3L277.473 2.10001L265.573 20.8Z" fill="#1B1C29"/>
<path d="M296.573 127.7L261.873 105.7L289.773 61.7L304.373 71C315.473 78.1 318.773 92.8 311.773 103.9L296.573 127.7Z" fill="white"/>
<path d="M296.873 128.7L260.873 105.9L289.573 60.6L304.773 70.3C316.273 77.6 319.673 92.8 312.373 104.2L296.873 128.7ZM262.873 105.4L296.373 126.6L311.173 103.3C317.973 92.5 314.773 78.2 304.073 71.4L290.073 62.5L262.873 105.4Z" fill="#1B1C29"/>
<path d="M97.0581 167.857L80.5811 130.205L32.8523 151.092L49.3293 188.744L97.0581 167.857Z" fill="white"/>
<path d="M48.8733 189.8L31.7733 150.8L80.8733 129.3L97.9733 168.3L48.8733 189.8ZM33.7733 151.5L49.6733 187.8L96.0733 167.5L80.1733 131.2L33.7733 151.5Z" fill="#1B1C29"/>
<path d="M74.6733 172.8L93.1733 146.2L104.873 172.8H74.6733Z" fill="white"/>
<path d="M105.973 173.6H73.2733L93.2733 144.6L105.973 173.6ZM76.0733 172.1H103.673L92.9733 147.7L76.0733 172.1Z" fill="#1B1C29"/>
<path d="M47.3733 160.5C47.1733 160.5 46.9733 160.4 46.8733 160.3C46.5733 160 46.5733 159.5 46.8733 159.2L54.2733 151.8C54.5733 151.5 55.0733 151.5 55.3733 151.8C55.6733 152.1 55.6733 152.6 55.3733 152.9L47.9733 160.3C47.7733 160.5 47.5733 160.5 47.3733 160.5Z" fill="#65A300"/>
<path d="M54.7733 160.5C54.5733 160.5 54.3733 160.4 54.2733 160.3L46.8733 152.9C46.5733 152.6 46.5733 152.1 46.8733 151.8C47.1733 151.5 47.6733 151.5 47.9733 151.8L55.3733 159.2C55.6733 159.5 55.6733 160 55.3733 160.3C55.1733 160.5 54.9733 160.5 54.7733 160.5Z" fill="#65A300"/>
<path d="M305.473 93.7C305.373 93.7 305.173 93.7 305.073 93.6L289.773 83.9C289.473 83.7 289.273 83.2 289.573 82.9C289.773 82.6 290.273 82.4 290.573 82.7L305.873 92.4C306.173 92.6 306.373 93.1 306.073 93.4C305.973 93.6 305.773 93.7 305.473 93.7Z" fill="#65A300"/>
<path d="M302.073 98.6C301.973 98.6 301.773 98.6 301.673 98.5L297.673 96C297.373 95.8 297.173 95.3 297.473 95C297.673 94.6 298.173 94.5 298.473 94.8L302.473 97.3C302.773 97.5 302.973 98 302.673 98.3C302.573 98.4 302.373 98.6 302.073 98.6Z" fill="#65A300"/>
<path d="M294.073 93.5C293.973 93.5 293.773 93.5 293.673 93.4L286.273 88.7C285.973 88.5 285.773 88 286.073 87.7C286.273 87.3 286.773 87.2 287.073 87.5L294.473 92.2C294.773 92.4 294.973 92.9 294.673 93.2C294.573 93.4 294.373 93.5 294.073 93.5Z" fill="#65A300"/>
<path d="M296.773 102.9C296.673 102.9 296.473 102.9 296.373 102.8L283.073 94.3C282.773 94.1 282.573 93.6 282.873 93.3C283.073 93 283.573 92.8 283.873 93.1L297.173 101.6C297.473 101.8 297.673 102.3 297.373 102.6C297.273 102.8 297.073 102.9 296.773 102.9Z" fill="#65A300"/>
<path d="M161.173 50.7C152.673 43.6 143.773 42.4 139.773 51.8C139.773 51.8 129.773 52.2 134.073 60C134.073 60 127.273 66.3 138.373 71.4C149.373 76.6 160.173 60.9 160.173 60.9L161.173 50.7Z" fill="#1B1C29"/>
<path d="M168.273 74.2C166.973 74.2 165.573 74 164.073 73.5C161.073 72.6 158.473 70.6 156.673 67.8L156.373 67.4L155.873 67.5C155.373 67.6 154.873 67.7 154.373 67.7C151.573 67.7 149.273 65.8 148.173 64C147.473 62.8 147.473 61.4 148.173 60.3C148.973 58.9 150.573 58.1 152.673 58.1C153.073 58.1 153.573 58.1 153.973 58.2L154.673 58.3L154.773 57.6V57.5C156.173 51 161.373 46.3 167.273 46.3C168.073 46.3 168.773 46.4 169.573 46.5C174.473 47.5 178.273 52 178.973 57.5C179.173 59.1 179.073 60.8 178.773 62.5C177.873 66.7 176.373 69.8 174.273 71.8C172.773 73.5 170.673 74.2 168.273 74.2Z" fill="white"/>
<path d="M167.473 47.2C168.173 47.2 168.873 47.3 169.573 47.4C174.173 48.4 177.773 52.5 178.373 57.7C178.573 59.2 178.473 60.8 178.173 62.4C177.273 66.5 175.873 69.5 173.973 71.3C172.473 72.7 170.573 73.4 168.373 73.4C167.173 73.4 165.773 73.2 164.373 72.8C161.573 71.9 159.073 70 157.373 67.5L156.773 66.6L155.773 66.8C155.373 66.9 154.873 67 154.473 67C151.973 67 149.873 65.3 148.973 63.7C148.373 62.7 148.373 61.6 148.973 60.7C149.673 59.5 151.073 58.9 152.773 58.9C153.173 58.9 153.573 58.9 153.973 59L155.373 59.2L155.673 57.8V57.7C156.873 51.6 161.873 47.2 167.473 47.2ZM167.473 45.7C161.273 45.7 155.673 50.5 154.173 57.5V57.6C153.673 57.5 153.173 57.5 152.773 57.5C148.073 57.5 145.873 61.4 147.673 64.5C148.973 66.7 151.573 68.6 154.473 68.6C154.973 68.6 155.573 68.5 156.173 68.4C157.973 71.3 160.773 73.4 163.973 74.4C165.573 74.9 167.073 75.1 168.373 75.1C171.173 75.1 173.273 74.1 174.973 72.6C177.373 70.3 178.873 66.8 179.673 62.9C180.073 61.1 180.073 59.4 179.873 57.7C179.173 52 175.373 47.2 169.873 46.1C169.073 45.7 168.273 45.7 167.473 45.7Z" fill="#1B1C29"/>
<path d="M178.773 53.7C177.373 49.8 173.973 46.8 169.773 45.9C162.773 44.4 154.673 48.8 153.873 59C164.073 60.7 172.673 58.8 178.773 53.7Z" fill="#6045AF"/>
<path d="M170.342 61.2758C170.655 60.8209 170.54 60.1982 170.085 59.885C169.63 59.5718 169.007 59.6867 168.694 60.1416C168.381 60.5965 168.496 61.2192 168.951 61.5324C169.406 61.8456 170.028 61.7307 170.342 61.2758Z" fill="#1B1C29"/>
<path d="M156.473 63.2C155.373 61.1 152.973 60.1 150.673 60.7C150.073 60.9 150.273 61.9 150.873 61.7C152.673 61.2 154.673 61.9 155.573 63.6C155.873 64.1 156.773 63.7 156.473 63.2Z" fill="#1B1C29"/>
<path d="M175.773 66.3C175.973 64.1 175.773 61.8 175.273 59.6C175.173 59 174.173 59.2 174.273 59.8C174.773 61.9 174.873 64 174.773 66.2C174.673 66.9 175.673 67 175.773 66.3Z" fill="#1B1C29"/>
</svg>
