<svg xmlns="http://www.w3.org/2000/svg" xmlns:xlink="http://www.w3.org/1999/xlink" width="419" height="240" viewBox="0 0 419 240">
    <defs>
        <linearGradient id="a" x1="50%" x2="50%" y1="0%" y2="100%">
            <stop offset="0%" stop-color="#E7E7E7"/>
            <stop offset="100%" stop-color="#F5F5F5"/>
        </linearGradient>
        <linearGradient id="b" x1="50%" x2="50%" y1="100%" y2="0%">
            <stop offset="0%" stop-color="gray" stop-opacity=".25"/>
            <stop offset="54%" stop-color="gray" stop-opacity=".12"/>
            <stop offset="100%" stop-color="gray" stop-opacity=".1"/>
        </linearGradient>
        <path id="c" d="M.112.147h29.75v19.782H.112z"/>
        <path id="e" d="M.112.086h29.75v19.782H.112z"/>
        <linearGradient id="g" x1="0%" y1="50%" y2="50%">
            <stop offset="0%" stop-color="gray" stop-opacity=".25"/>
            <stop offset="54%" stop-color="gray" stop-opacity=".12"/>
            <stop offset="100%" stop-color="gray" stop-opacity=".1"/>
        </linearGradient>
        <linearGradient id="h" x1=".006%" x2="100.006%" y1="50.002%" y2="50.002%">
            <stop offset="0%" stop-color="gray" stop-opacity=".25"/>
            <stop offset="54%" stop-color="gray" stop-opacity=".12"/>
            <stop offset="100%" stop-color="gray" stop-opacity=".1"/>
        </linearGradient>
        <linearGradient id="i" x1="50%" x2="50%" y1="100%" y2=".001%">
            <stop offset="0%" stop-color="#B3B3B3" stop-opacity=".25"/>
            <stop offset="54%" stop-color="#B3B3B3" stop-opacity=".1"/>
            <stop offset="100%" stop-color="#B3B3B3" stop-opacity=".05"/>
        </linearGradient>
        <linearGradient id="j" x1="49.98%" x2="49.98%" y1="99.949%" y2="0%">
            <stop offset="0%" stop-opacity=".12"/>
            <stop offset="55%" stop-opacity=".09"/>
            <stop offset="100%" stop-opacity=".02"/>
        </linearGradient>
        <linearGradient id="k" x1="49.989%" x2="49.989%" y1="100.006%" y2=".008%">
            <stop offset="0%" stop-opacity=".12"/>
            <stop offset="55%" stop-opacity=".09"/>
            <stop offset="100%" stop-opacity=".02"/>
        </linearGradient>
    </defs>
    <g fill="none" fill-rule="evenodd">
        <path fill="url(#a)" d="M19 211h419v17H19z" transform="translate(-19 12)"/>
        <path fill="#ECECEC" d="M103.403 158.036H174L121 48H50zM183.403 158.036l70.635 1.153L201 48h-71zM23.636 157.948L95 158 42 48H25zM288 48l52.981 109.984H378V48zM261 158h71L279 48.01h-70.237z"/>
        <path fill="#E5E5E5" d="M400.297 211.569c-4.336 6.35-3.148 14.429-3.148 14.429s8.218-2.22 12.554-8.57c4.336-6.352 3.148-14.43 3.148-14.43s-8.218 2.22-12.554 8.57z"/>
        <path fill="#F2F2F2" stroke="#676578" d="M385.725 210.69c2.4 8.837 10.62 14.31 10.62 14.31s4.33-8.854 1.93-17.69c-2.4-8.837-10.62-14.31-10.62-14.31s-4.33 8.854-1.93 17.69z"/>
        <path fill="#17C9B2" d="M389.563 209.885C396.191 216.237 397 226 397 226s-9.936-.534-16.563-6.885C373.809 212.763 373 203 373 203s9.936.534 16.563 6.885z"/>
        <g transform="translate(7 139)">
            <circle cx="11.5" cy="14.5" r="8.5" fill="#FF6584"/>
            <path fill="#E1E1E1" d="M52 46.176C52 66.058 40.36 73 26 73S0 66.058 0 46.176C0 26.293 26 1 26 1s26 25.293 26 45.176z"/>
            <path fill="#3F3D56" d="M25.547 68.857l.269-16.615L37 31.686l-11.142 17.95.12-7.472 7.709-14.871-7.677 12.894.218-13.436 8.254-11.84-8.22 9.727L26.398 0l-.854 32.616.07-1.345-8.392-12.905 8.258 15.487-.782 15.007-.023-.398L15 34.882l9.645 14.987-.097 1.876-.018.029.008.154L22.554 90h2.65l.319-19.665 9.622-14.95z"/>
        </g>
        <g transform="translate(293 33)">
            <circle cx="45" cy="28" r="12" fill="#2F2E41"/>
            <path fill="#A78185" d="M58.667 180.294L61 190h-5.667L53 179zM32 180v9.333L26 190v-10zM60 75.332s-.667 14.334-1.333 15.334C58 91.666 52 106 52 106l-3-9.334s4.667-7.667 4-12c-.667-4.333-.247-9.666-.247-9.666l7.247.332z"/>
            <circle cx="41" cy="32" r="9" fill="#A78185"/>
            <path fill="#A78185" d="M48.857 33s-.32 13.074 1.916 15.035c2.235 1.96-12.773.327-12.773.327s3.193-9.152.639-11.113C36.084 35.288 48.857 33 48.857 33z"/>
            <path fill="#CCD6F8" d="M36.822 48.303s1.986-3.61 4.635-3.282c2.65.328 11.258.985 11.59 1.641.33.657 1.324 2.954 1.986 3.61.662.657 5.63 1.642 5.96 5.58.332 3.939-11.92 27.899-11.92 27.899s1.656 5.58 1.325 6.893c-.332 1.313 1.655 5.251 1.324 6.892-.331 1.641 4.967 11.488 2.318 24.289v20.677s8.94 35.776 6.291 38.402c-2.649 2.626-11.589.985-13.245 0-1.655-.985-8.609-50.546-8.609-50.546l-3.31-16.739-.332 36.76s.662 30.853-1.656 31.838c-2.317.985-11.258 1.313-11.92-.656-.516-1.536-3.047-42.403-4.136-60.316a66.356 66.356 0 0 1 1.458-18.438c1.378-6.196 3.379-13.476 5.658-16.43 4.305-5.58 6.954-23.304 6.954-23.304l-5.63-10.175s3.312-3.282 5.299-3.282c1.986 0 5.96-1.313 5.96-1.313z"/>
            <path fill="#AAB5DC" d="M58 52l3 2s.618 20.988-.394 22.28c-1.012 1.294-8.048.663-8.578-.476C51.498 74.664 58 52 58 52z"/>
            <path fill="#A78185" d="M29.273 71.84c.95 6.679 1.781 12.625-3.071 18.005A91.447 91.447 0 0 1 9.82 104.243c-.596 1.6-9.332 13.346-9.777 8.66-.444-4.685 2.574-8.358 6.864-12.32 4.29-3.963 10.29-12.56 13.676-17.277 3.386-4.717 1.992-7.658 1.875-11.599-.118-3.94 5.484.18 6.815.132z"/>
            <path fill="#2F2E41" d="M25.73 184s-.335 3.588-1.343 4.55c-1.007.96-3.694 2.242-3.358 5.766.336 3.524 2.519 3.684 2.519 3.684l-.168-.8 1.007.32.168.48h9.403s.168-3.364-.168-4.966c-.336-1.601-.336-9.29-1.343-8.97-1.008.32-3.694.641-4.366 1.922-.672 1.282-2.686.833-2.35-1.986zM59.27 184s.335 3.588 1.343 4.55c1.007.96 3.694 2.242 3.358 5.766-.336 3.524-2.519 3.684-2.519 3.684l.168-.8-1.007.32-.168.48h-9.403s-.168-3.364.168-4.966c.336-1.601.336-9.29 1.343-8.97 1.008.32 3.694.641 4.366 1.922.672 1.282 2.686.833 2.35-1.986z"/>
            <path fill="#AAB5DC" d="M30 49l-5 4s.213 7.058-1.111 9.96c-1.324 2.9-3.641 9.669-2.648 9.991.993.323 10.261 4.835 10.923 2.257C32.826 72.629 34.634 49 30 49z"/>
            <circle cx="59" cy="12" r="12" fill="#2F2E41"/>
            <path fill="#2F2E41" d="M68.603 22.64c-3.164 2.363-7.24 2.996-10.935 1.697-3.696-1.298-6.554-4.367-7.668-8.232.566 4.655 3.618 8.585 7.893 10.166 4.274 1.582 9.046.545 12.343-2.681 3.297-3.226 4.558-8.093 3.263-12.59.55 4.513-1.328 8.977-4.896 11.64z"/>
            <circle cx="49" cy="30" r="9" fill="#2F2E41"/>
            <ellipse cx="41" cy="27" fill="#2F2E41" rx="8" ry="6"/>
            <ellipse cx="39.5" cy="33.5" fill="#A78185" rx="1.5" ry="2.5"/>
        </g>
        <g transform="translate(95)">
            <path fill="url(#b)" d="M.03.043h90.887v123.918H.03z" opacity=".5" transform="translate(32 27)"/>
            <path fill="#F2F2F2" d="M32 29h89v119H32z"/>
            <path fill="#E0E0E0" d="M40 34h31v1H40z"/>
            <path fill="#17C9B2" d="M40 38h31v1H40z" opacity=".7"/>
            <path fill="#E0E0E0" d="M74 34h31v1H74zM80 61h31v1H80zM80 64h31v1H80zM81 66h31v1H81zM80 104h31v1H80zM80 106h31v1H80zM81 108h31v1H81z"/>
            <path fill="url(#b)" d="M.006.034h32.963v33.824H.006z" opacity=".5" transform="translate(40 51)"/>
            <path fill="#F5F5F5" d="M40 52h32v32H40z"/>
            <path fill="url(#b)" d="M.11.002h29.755v20.881H.11z" opacity=".5" transform="translate(41 54)"/>
            <path fill="#FFF" d="M42 54h29v20H42z"/>
            <g transform="translate(78 66)">
                <mask id="d" fill="#fff">
                    <use xlink:href="#c"/>
                </mask>
                <g fill="#17C9B2" mask="url(#d)" opacity=".4">
                    <g transform="translate(-40.552 -11.633)">
                        <path d="M1.107 18.492L8.599 7.05l3.14 5.004 6.766-6.91 5.8 6.91 5.072-10.247 13.047 20.496-42.283-1.43z"/>
                        <ellipse cx="6.906" cy="2.284" rx="2.174" ry="2.145"/>
                    </g>
                </g>
            </g>
            <path fill="url(#b)" d="M.006.181h32.963v33.616H.006z" opacity=".5" transform="translate(40 93)"/>
            <path fill="#F5F5F5" d="M40 94h32v32H40z"/>
            <path fill="url(#b)" d="M.11.148h29.755v20.677H.11z" opacity=".5" transform="translate(41 96)"/>
            <path fill="#FFF" d="M42 96h29v20H42z"/>
            <g transform="translate(78 109)">
                <mask id="f" fill="#fff">
                    <use xlink:href="#e"/>
                </mask>
                <g fill="#BDBDBD" mask="url(#f)" opacity=".4">
                    <g transform="translate(-40.552 -11.633)">
                        <path d="M1.107 18.43L8.599 6.99l3.14 5.006 6.766-6.912 5.8 6.912 5.072-10.25 13.047 20.497L.141 20.814z"/>
                        <ellipse cx="6.906" cy="2.224" rx="2.174" ry="2.145"/>
                    </g>
                </g>
            </g>
            <path fill="url(#g)" d="M-3.785 24.957l122.517-1.202-.893 90.355-122.516 1.201z" opacity=".5" transform="rotate(-78.76 91.82 53.23)"/>
            <path fill="#FFF" d="M46.619 139.696l23.156-117.01 87.042 17.37-23.157 117.01z"/>
            <path fill="#E0E0E0" d="M75.034 29.35l61.772 12.326-.185.94-61.773-12.327zM57.458 118.166l61.772 12.327-.186.94-61.772-12.328zM56.386 123.568l47.733 9.525-.186.94-47.733-9.526z"/>
            <path fill="#17C9B2" d="M55.317 128.974l17.782 3.548-.186.94-17.782-3.549zM73.963 34.754l30.885 6.164-.186.94-30.885-6.164z" opacity=".7"/>
            <path fill="#E0E0E0" d="M72.896 40.158l55.687 11.113-.186.94L72.71 41.096z"/>
            <path fill="#3AD29F" d="M71.825 45.563l13.57 2.708-.185.94-13.57-2.709z" opacity=".7"/>
            <path fill="#E0E0E0" d="M70.757 50.967l61.772 12.327-.186.94-61.772-12.327z"/>
            <path fill="url(#h)" d="M15.51-6.246l32.943-.044-.055 56.58-32.943.044z" opacity=".5" transform="rotate(-78.76 110.421 17.1)"/>
            <path fill="#FFF" d="M76.514 74.099l54.751 10.926-6.184 31.25-54.752-10.927z"/>
            <path fill="#E0E0E0" d="M69.687 56.373L131.46 68.7l-.186.94-61.772-12.328z"/>
            <path fill="#17C9B2" d="M81.41 79.472l6.787 1.354-4.51 22.791-6.787-1.354z"/>
            <path fill="#3AD29F" d="M92.09 89.42l6.785 1.353-3.022 15.273-6.786-1.354z"/>
            <path fill="#F55F44" d="M102.863 98.897l6.786 1.354-1.627 8.223-6.786-1.355z"/>
            <path fill="#FDD835" d="M116.704 92.866l6.786 1.354-3.301 16.683-6.786-1.354z"/>
            <path fill="url(#i)" fill-rule="nonzero" d="M143.775 72.81A31.809 31.809 0 0 0 121.05 63a31.806 31.806 0 0 0-22.87 9.465c-12.057 12.195-12.262 32.051-.468 44.504 10.698 11.297 27.956 13.207 40.852 4.523l23.029 24.03c.594.62 1.575.64 2.193.044l5.738-5.536a1.56 1.56 0 0 0 .043-2.2l-23.023-24.028c9.112-12.529 7.945-29.812-2.77-40.993zm-7.173 38.636c-9.072 8.75-23.497 8.465-32.218-.636-8.722-9.102-8.438-23.573.633-32.323 9.072-8.75 23.496-8.466 32.218.635a22.9 22.9 0 0 1 6.357 16.294 22.895 22.895 0 0 1-6.99 16.03z"/>
            <path fill="url(#j)" d="M103 88c-2.664 0-2.669 4 0 4 2.667 0 2.667-4 0-4z"/>
            <path fill="url(#k)" d="M120.573 75.005c-6.829-.153-13.042 3.257-16.346 8.405-1.079 1.68 1.983 3.164 3.055 1.492 2.735-4.262 7.933-6.969 13.556-6.828 5.892.147 11.254 3.503 14.093 8.16 1.076 1.766 3.899.16 2.832-1.596-3.451-5.64-10.136-9.466-17.19-9.633z"/>
            <path fill="#17C9B2" fill-rule="nonzero" d="M145.776 70.81A31.81 31.81 0 0 0 123.05 61a31.807 31.807 0 0 0-22.87 9.465c-12.057 12.195-12.262 32.051-.468 44.504 10.699 11.296 27.957 13.206 40.853 4.52l23.028 24.034c.594.619 1.575.638 2.193.043l5.738-5.536a1.56 1.56 0 0 0 .043-2.2l-23.03-24.03c9.114-12.527 7.95-29.808-2.76-40.99zm-7.173 38.62c-9.072 8.75-23.497 8.464-32.219-.637-8.722-9.1-8.438-23.572.634-32.322 9.071-8.75 23.496-8.466 32.218.635a22.9 22.9 0 0 1 6.357 16.293 22.894 22.894 0 0 1-6.99 16.03z"/>
            <path fill="#17C9B2" d="M106 86c-2.664 0-2.669 4 0 4 2.667 0 2.667-4 0-4zM123.573 74.005c-6.829-.153-13.042 3.257-16.346 8.405-1.079 1.68 1.983 3.164 3.055 1.492 2.735-4.262 7.933-6.969 13.556-6.828 5.892.147 11.254 3.503 14.093 8.16 1.076 1.766 3.899.16 2.832-1.596-3.457-5.655-10.134-9.482-17.19-9.633z"/>
            <path fill="#47E6B1" d="M24 136h1v4h-1z"/>
            <path fill="#47E6B1" d="M26.5 137.641v.718h-4v-.718z"/>
            <path fill="#4D8AF0" d="M117.66 2.029a1.093 1.093 0 0 1-.608-1.322.548.548 0 0 0-1.023-.38c-.221.51-.79.772-1.32.61a.547.547 0 0 0-.374 1.029c.509.22.77.79.608 1.32a.548.548 0 0 0 1.03.374c.222-.508.79-.77 1.32-.607a.547.547 0 0 0 .486-.963.524.524 0 0 0-.12-.061z"/>
            <path fill="#FDD835" d="M28.671 32.034a1.096 1.096 0 0 1-.61-1.325.549.549 0 0 0-1.027-.38c-.222.51-.792.773-1.325.61a.549.549 0 0 0-.38 1.027c.51.222.773.792.61 1.325a.549.549 0 0 0 1.027.38c.222-.51.792-.773 1.325-.61a.549.549 0 0 0 .38-1.027zM154.671 156.034a1.096 1.096 0 0 1-.61-1.325.549.549 0 0 0-1.027-.38c-.222.51-.792.773-1.325.61a.549.549 0 0 0-.38 1.027c.51.222.773.792.61 1.325a.549.549 0 0 0 1.027.38c.222-.51.792-.773 1.325-.61a.549.549 0 0 0 .38-1.027z"/>
            <circle cx="65.5" cy="15.5" r="1.5" fill="#F55F44"/>
            <circle cx="167.5" cy="33.5" r="1.5" fill="#F55F44"/>
            <circle cx="159.5" cy="76.5" r="1.5" fill="#4D8AF0"/>
            <circle cx="1.5" cy="5.5" r="1.5" fill="#47E6B1" opacity=".5"/>
        </g>
    </g>
</svg>
