<svg width="98" height="112" viewBox="0 0 98 112" fill="none" xmlns="http://www.w3.org/2000/svg">
<path d="M57.0691 43.8651L78.2579 42.0711L77.0457 59.5264L58.6207 60.7386L57.0691 43.8651Z" fill="white"/>
<path d="M77.87 42.5075L76.6578 59.187L58.9116 60.3507L57.4085 44.2045L77.87 42.5075ZM78.6458 41.6832L56.6812 43.5742L58.2813 61.1265L77.3366 59.8658L78.6458 41.6832Z" fill="#1B1C29"/>
<path d="M65.1664 56.9081C64.9725 56.9081 64.827 56.7627 64.827 56.5687L64.1967 51.623L61.9662 50.8957C61.7723 50.8472 61.6753 50.6048 61.7238 50.4594C61.7723 50.3139 62.0147 50.1684 62.1602 50.2169L64.7785 51.0897L65.4573 56.4717C65.5543 56.7142 65.4088 56.9081 65.1664 56.9081C65.2149 56.9081 65.2149 56.9081 65.1664 56.9081Z" fill="#1B1C29"/>
<path d="M29.7225 36.3496L25.0193 55.7444L13.14 63.1144L19.1039 41.5378L19.6372 41.2953L22.6434 39.7922L23.1767 39.5498L29.7225 36.3496Z" fill="#6045AF"/>
<path d="M54.9357 62.775H19.2493L18.3765 61.3204L27.6375 55.6959L44.414 45.4652L50.6688 55.6959L54.9357 62.775Z" fill="white"/>
<path d="M44.2685 45.9501L50.4264 56.0838L54.3053 62.3871H19.4917L18.9099 61.4174L27.2981 56.2778L44.2685 45.9501ZM44.511 44.9318L26.9102 55.6959L17.8917 61.2235L19.0553 63.1629H55.6145L51.1052 55.7444L44.511 44.9318Z" fill="#1B1C29"/>
<path d="M29.4316 59.284C29.2861 59.284 29.1892 59.2355 29.1407 59.09C29.0437 58.8961 29.0922 58.7021 29.2861 58.6051L42.3776 50.6048C42.5715 50.5078 42.7655 50.5563 42.8625 50.7018C42.9594 50.8957 42.9109 51.0897 42.717 51.1867L29.6255 59.187C29.5286 59.2355 29.4801 59.284 29.4316 59.284Z" fill="#1B1C29"/>
<path d="M31.7589 63.1629C31.6135 63.1629 31.5165 63.1144 31.468 62.969C31.3711 62.775 31.4195 62.5811 31.6135 62.4841L44.7049 54.4838C44.8989 54.3868 45.0928 54.4353 45.1898 54.5807C45.2868 54.7262 45.2383 54.9686 45.0444 55.0656L31.9529 63.0659C31.9044 63.1144 31.8559 63.1629 31.7589 63.1629Z" fill="#1B1C29"/>
<path d="M55.9054 13.2699C59.0086 12.3002 68.0756 9.9243 75.785 22.8218C83.5429 35.7193 78.6458 46.8228 78.6458 46.8228L55.4205 45.6591C55.4205 45.6591 54.6932 32.5677 52.6083 24.1794C52.1719 22.3369 50.9597 14.8215 55.9054 13.2699Z" fill="#1B1C29"/>
<path d="M19.9766 40.7135C19.7827 37.6103 20.9464 32.5192 25.0193 27.4765C27.686 28.8827 30.2558 30.4828 32.4378 31.8889C30.8377 33.5374 29.8679 35.1375 29.4316 36.1072L19.9766 40.7135Z" fill="white"/>
<path d="M25.1162 27.9129C27.5406 29.2221 29.8679 30.6282 31.9044 31.9373C30.4983 33.4404 29.6255 34.895 29.1891 35.8163L20.316 40.1801C20.2675 37.1739 21.4797 32.5677 25.1162 27.9129ZM24.9223 26.9917C20.5585 32.3252 19.2493 37.8527 19.6857 41.2953L29.771 36.3496C30.2074 35.3799 31.2256 33.5859 33.0681 31.8404C30.3528 30.0948 27.686 28.4463 24.9223 26.9917Z" fill="#1B1C29"/>
<path d="M27.4436 22.6278C25.5041 24.5188 22.6434 27.816 21.4312 30.5797C24.2919 31.7434 29.9164 33.9738 32.7287 35.2344C33.7469 33.8283 38.1592 29.9009 40.3896 28.5917C47.5657 24.3734 56.4388 22.24 56.4388 22.24L57.554 12.3971C47.6626 11.5244 35.8318 14.482 27.4436 22.6278Z" fill="#1B1C29"/>
<path d="M52.5113 22.7248C52.3174 22.7248 52.1719 22.5794 52.1719 22.3854L51.8325 19.5732C51.784 19.3792 51.9295 19.1853 52.1719 19.1853C52.3659 19.1853 52.5598 19.2823 52.5598 19.5247L52.8992 22.3369C52.8992 22.5309 52.7538 22.6764 52.5113 22.7248Z" fill="white"/>
<path d="M24.001 36.98C27.1042 35.186 26.9102 39.7922 26.9102 39.7922C26.9102 39.7922 25.5526 42.7984 27.4921 43.2348C28.7043 43.5257 31.565 37.4164 29.3831 34.1193" fill="white"/>
<path d="M27.6376 43.6227C27.5891 43.6227 27.5406 43.6227 27.4436 43.6227C26.9103 43.4772 26.5223 43.1863 26.3284 42.7499C25.795 41.6832 26.4254 40.0831 26.5708 39.7437C26.5708 39.1134 26.4739 37.5133 25.7466 37.0769C25.4072 36.883 24.8738 36.9315 24.195 37.3194C24.001 37.4164 23.8071 37.3679 23.7101 37.1739C23.6132 36.98 23.6616 36.786 23.8556 36.6891C24.7768 36.1557 25.5041 36.1072 26.1345 36.4466C27.3951 37.2224 27.3466 39.5498 27.3466 39.8407V39.8892L27.2981 39.9377C27.1042 40.3741 26.6678 41.6832 27.0072 42.4105C27.1042 42.6529 27.3466 42.7984 27.6376 42.8954C27.686 42.8954 28.0739 42.7499 28.5588 41.8772C29.674 40.0347 30.5468 36.4951 29.1407 34.3617C29.0437 34.2162 29.0922 33.9738 29.2376 33.8768C29.3831 33.7798 29.6255 33.8283 29.7225 33.9738C31.565 36.6891 30.1104 40.9559 28.9467 42.6529C28.4618 43.3318 28.0254 43.6227 27.6376 43.6227Z" fill="#1B1C29"/>
<path d="M83.9309 55.6959L77.3851 59.8658L72.2455 63.1144H13.14L24.8253 55.6959H27.6375L18.3765 61.3204L19.2493 62.775H54.9357L50.6688 55.6959H83.9309Z" fill="#1B1C29"/>
<path d="M72.197 63.1144H13.14V111.068H72.197V63.1144Z" fill="#6045AF"/>
<path d="M83.9309 103.65L72.197 111.068V63.1144L83.9309 55.6959V103.65Z" fill="#6045AF"/>
<path d="M72.197 108.789C72.0031 108.789 71.8091 108.644 71.8091 108.401V66.46C71.8091 66.2661 71.9546 66.0721 72.197 66.0721C72.4395 66.0721 72.5849 66.2176 72.5849 66.46V108.401C72.5849 108.595 72.4395 108.789 72.197 108.789Z" fill="white"/>
<path d="M31.1771 63.1144V63.2114C31.1771 75.7695 23.1768 81.7819 13.14 82.1213V63.1629H31.1771V63.1144Z" fill="#1B1C29"/>
<path d="M26.2314 79.6L22.11 82.8971L27.2012 85.176L26.2314 79.6Z" fill="#1B1C29"/>
<path d="M65.2149 73.6846H36.2682V76.5938H65.2149V73.6846Z" fill="white"/>
<path d="M53.6265 82.0728H48.5839C48.002 82.0728 47.5657 81.5879 47.5657 81.0546C47.5657 80.4727 48.0505 80.0364 48.5839 80.0364H53.6265C54.2084 80.0364 54.6448 80.5212 54.6448 81.0546C54.6932 81.6364 54.2084 82.0728 53.6265 82.0728Z" fill="#1B1C29"/>
<path d="M59.154 82.0728H57.457C56.8752 82.0728 56.4388 81.5879 56.4388 81.0546C56.4388 80.4727 56.9236 80.0364 57.457 80.0364H59.154C59.7359 80.0364 60.1723 80.5212 60.1723 81.0546C60.2208 81.6364 59.7359 82.0728 59.154 82.0728Z" fill="#1B1C29"/>
<path d="M64.1482 82.0728H62.4027C61.8208 82.0728 61.3844 81.5879 61.3844 81.0546C61.3844 80.4727 61.8693 80.0364 62.4027 80.0364H64.0997C64.6815 80.0364 65.1179 80.5212 65.1179 81.0546C65.1664 81.6364 64.73 82.0728 64.1482 82.0728Z" fill="#1B1C29"/>
<path d="M47.2263 92.9824H13.5279V110.68H47.2263V92.9824Z" fill="white"/>
<path d="M46.8384 93.3703V110.341H13.8673V93.3703H46.8384ZM47.5657 92.643H13.14V111.068H47.5657V92.643Z" fill="#1B1C29"/>
<path d="M36.8986 110.632C36.8016 110.632 36.7531 110.632 36.7046 110.583L13.6733 93.7582C13.5278 93.6612 13.4794 93.4187 13.5763 93.2733C13.6733 93.1278 13.9157 93.0793 14.0612 93.1763L37.0925 110.001C37.2379 110.098 37.2864 110.341 37.1895 110.486C37.141 110.583 36.9955 110.632 36.8986 110.632Z" fill="#1B1C29"/>
<path d="M23.7586 110.632C23.6616 110.632 23.5162 110.583 23.4677 110.486C23.3707 110.341 23.3707 110.098 23.5647 110.001L46.402 93.1763C46.5475 93.0793 46.7899 93.0794 46.8869 93.2733C46.9838 93.4188 46.9838 93.6612 46.7899 93.7582L23.9526 110.583C23.9041 110.632 23.8556 110.632 23.7586 110.632Z" fill="#1B1C29"/>
<path d="M88.3916 70.145H86.5007V90.752H88.3916V70.145Z" fill="#1B1C29"/>
<path d="M44.1231 42.6045C44.0746 42.6045 44.0746 42.6045 44.0261 42.6045C43.8321 42.556 43.7352 42.362 43.7837 42.1681L44.414 39.7437C44.4625 39.5498 44.6564 39.4528 44.8504 39.5013C45.0443 39.5498 45.1413 39.7437 45.0928 39.9377L44.4625 42.362C44.4625 42.5075 44.317 42.6045 44.1231 42.6045Z" fill="#6045AF"/>
<path d="M9.40647 51.1867L5.09113 53.9504L9.69738 55.9868L9.40647 51.1867Z" fill="#1B1C29"/>
<path d="M38.0286 45.2927L35.1829 42.4471L32.3373 45.2927L35.1829 48.1384L38.0286 45.2927Z" fill="#1B1C29"/>
<path d="M46.5959 60.5931C46.4989 60.5931 46.4505 60.5446 46.3535 60.4962L44.8019 59.1385C44.6564 58.993 44.6079 58.7991 44.7534 58.6051C44.8989 58.4597 45.0928 58.4112 45.2868 58.5567L46.8384 59.9143C46.9838 60.0598 47.0323 60.2537 46.8868 60.4476C46.7899 60.5446 46.6929 60.5931 46.5959 60.5931Z" fill="#6045AF"/>
<path d="M40.8744 42.9439C40.7775 42.9439 40.632 42.8954 40.5835 42.7499L38.0137 38.677C37.9168 38.4831 37.9653 38.2891 38.1107 38.1922C38.3047 38.0952 38.4986 38.1437 38.5956 38.2891L41.1654 42.362C41.2624 42.556 41.2139 42.7499 41.0684 42.8469C41.0199 42.9439 40.9714 42.9439 40.8744 42.9439Z" fill="#6045AF"/>
<path d="M58.3298 39.7437C58.2328 39.7437 58.1358 39.6953 58.0873 39.6468C57.9419 39.5013 57.9419 39.2589 58.0873 39.1134L61.142 36.0587C61.2875 35.9133 61.5299 35.9133 61.6754 36.0587C61.8208 36.2042 61.8208 36.4466 61.6754 36.5921L58.6207 39.6468C58.4752 39.7438 58.3782 39.7437 58.3298 39.7437Z" fill="#E4E4EF"/>
<path d="M52.5113 48.4229C52.3174 48.4229 52.1719 48.2774 52.1719 48.0835L51.978 46.241C51.978 46.047 52.1234 45.8531 52.3174 45.8531C52.5113 45.8531 52.7053 45.9986 52.7053 46.1925L52.8992 48.035C52.8992 48.229 52.7537 48.3744 52.5113 48.4229Z" fill="#6045AF"/>
<path d="M63.2754 43.5742L65.6998 41.6832L66.1846 44.9318L63.2754 43.5742Z" fill="#F2F2F9"/>
<path d="M44.8989 32.2768L47.5657 30.7252L47.6626 34.2162L44.8989 32.2768Z" fill="#6045AF"/>
<path d="M29.7225 51.5261C29.674 51.5261 29.674 51.5261 29.6255 51.5261C29.4316 51.4776 29.2861 51.2836 29.3346 51.0897L29.9649 48.3744C30.0134 48.1805 30.2073 48.035 30.4013 48.0835C30.5952 48.132 30.7407 48.3259 30.6922 48.5199L30.0619 51.2351C30.0134 51.4291 29.8679 51.5261 29.7225 51.5261Z" fill="#6045AF"/>
<path d="M55.1781 62.775C58.7176 60.5931 63.5179 59.4779 69.4333 59.4779C71.1788 59.4779 73.0213 59.5749 74.9608 59.7688C75.5426 59.8173 76.0275 59.9143 76.4639 60.0113L72.1 62.775H55.1781V62.775Z" fill="white"/>
<path d="M69.4333 59.09V59.8173C71.1788 59.8173 73.0213 59.9143 74.9123 60.1082C75.1062 60.1082 75.3002 60.1567 75.4941 60.1567L72.0516 62.3386H56.5842C59.9298 60.6416 64.2452 59.7688 69.4333 59.7688V59.09ZM69.4333 59.09C63.5179 59.09 58.0388 60.1567 53.9659 63.1144H72.2455L77.3851 59.8658C76.8033 59.6719 76.0275 59.5264 75.0093 59.3809C73.1183 59.2355 71.2758 59.09 69.4333 59.09Z" fill="#1B1C29"/>
<path d="M16.0976 47.1137H16.0492L10.1822 46.047C9.98829 45.9985 9.84284 45.8046 9.89133 45.6107C9.93981 45.4167 10.1337 45.2712 10.3277 45.3197L16.1946 46.3864C16.3886 46.4349 16.534 46.6289 16.4855 46.8228C16.3886 46.9683 16.2431 47.1137 16.0976 47.1137Z" fill="#1B1C29"/>
<path d="M12.6066 49.4896H12.5581C12.3642 49.4411 12.2187 49.2472 12.2672 49.0532L13.3339 43.1863C13.3824 42.9924 13.5763 42.8469 13.7703 42.8954C13.9642 42.9439 14.1097 43.1378 14.0612 43.3318L12.9945 49.1987C12.946 49.3441 12.8005 49.4896 12.6066 49.4896Z" fill="#1B1C29"/>
<path d="M52.5113 59.09C54.7875 59.09 56.6327 57.2448 56.6327 54.9686C56.6327 52.6925 54.7875 50.8472 52.5113 50.8472C50.2351 50.8472 48.3899 52.6925 48.3899 54.9686C48.3899 57.2448 50.2351 59.09 52.5113 59.09Z" fill="#E4E4EF"/>
<path d="M20.219 47.5986L25.7466 52.3019L19.5887 55.1141L20.219 47.5986Z" fill="white"/>
<path d="M20.51 48.3259L25.0677 52.2049L19.9766 54.5322L20.51 48.3259ZM19.9281 46.8713L19.1523 55.6959L26.4254 52.3988L19.9281 46.8713Z" fill="#1B1C29"/>
<path d="M88.3916 36.9315L76.7063 44.3985L72.197 63.2114L83.9309 55.7444L88.3916 36.9315Z" fill="#6045AF"/>
<path d="M73.5547 62.6295C73.4577 62.6295 73.3122 62.5811 73.2637 62.4841C73.1668 62.3386 73.2152 62.0962 73.3607 61.9992L82.3793 56.2778C82.5247 56.1808 82.7672 56.2293 82.8641 56.3748C82.9611 56.5202 82.9126 56.7627 82.7672 56.8596L73.7486 62.5811C73.6516 62.6296 73.6031 62.6295 73.5547 62.6295Z" fill="white"/>
<path d="M62.0632 12.1547C76.0275 11.5728 89.022 15.5488 93.5313 21.1732C98.4769 27.3311 95.9556 39.4528 89.8947 42.6045C88.3917 43.3803 86.6946 43.5742 85.7734 44.0106C82.9611 45.3197 82.3308 45.1743 81.4095 44.447C81.4095 44.447 79.0822 45.9016 78.4033 44.1075C78.4033 44.1075 77.5306 46.3864 75.882 45.8046C74.2335 45.2227 76.2214 40.7135 80.6337 38.3861C85.0945 36.0587 87.3249 30.2403 84.8521 26.7492C82.3793 23.2582 67.0574 18.9913 67.0574 18.9913L62.0632 12.1547Z" fill="white"/>
<path d="M76.4639 46.2895C76.2699 46.2895 76.076 46.241 75.8335 46.1925C75.3487 46.0471 75.0577 45.6107 75.0093 45.0288C74.8638 43.1863 77.0942 39.8892 80.5368 38.0952C82.9126 36.8345 84.7551 34.4587 85.3855 31.8889C85.8218 30.0464 85.5309 28.3008 84.6097 26.9917C82.1853 23.6461 67.2029 19.4277 67.0089 19.3792L66.9119 19.3308L61.3844 11.8153L62.0632 11.7668C75.785 11.185 89.119 15.0639 93.8707 20.9308C96.295 23.9855 97.1678 28.6887 96.1495 33.5374C95.2283 37.9012 92.9979 41.3923 90.1372 42.8954C89.2159 43.3803 88.2462 43.6227 87.4219 43.8651C86.8401 44.0106 86.3552 44.1561 86.0158 44.3015C83.349 45.5622 82.4762 45.5622 81.458 44.8349C81.0216 45.0773 80.0034 45.5137 79.1791 45.2228C78.9367 45.1258 78.6943 44.9803 78.5488 44.7864C78.0639 45.5622 77.3851 46.2895 76.4639 46.2895ZM67.3483 18.7004C68.8999 19.1368 82.7672 23.1612 85.1915 26.5553C86.2582 28.0099 86.5491 29.9494 86.0643 32.0343C85.4339 34.7981 83.3975 37.3679 80.8277 38.7255C77.4821 40.4711 75.5911 43.5257 75.6881 44.9803C75.7366 45.4167 75.9305 45.4652 76.0275 45.5137C77.2881 45.9501 78.0639 44.0591 78.0639 44.0106L78.4033 43.1378L78.7428 44.0106C78.8397 44.35 79.0337 44.5439 79.3246 44.5924C79.9549 44.7864 80.9247 44.35 81.2156 44.1561L81.458 44.0106L81.652 44.1561C82.3793 44.7379 82.8641 44.9803 85.6279 43.6712C86.0643 43.4772 86.5491 43.3318 87.131 43.1863C87.9553 42.9439 88.8765 42.7014 89.7008 42.2651C92.3676 40.8589 94.501 37.5618 95.3738 33.4404C96.3435 28.7857 95.5677 24.3249 93.2403 21.4157C88.731 15.7912 75.979 12.1062 62.7421 12.4941L67.3483 18.7004Z" fill="#1B1C29"/>
<path d="M84.9491 26.7977C86.3067 28.6403 86.2582 31.2101 85.2885 33.4889C88.4401 34.6526 93.1919 35.7678 96.2466 37.1739C98.6224 32.1798 98.6709 24.8583 94.9374 20.9308C87.6643 13.4153 76.1245 11.5729 62.1602 12.1547L68.7544 23.5491C68.706 23.5491 82.4278 23.3067 84.9491 26.7977Z" fill="#1B1C29"/>
<path d="M81.3126 40.0831C80.0519 40.9559 79.0337 42.0711 78.3549 43.4287C78.2094 43.7197 78.6458 43.9621 78.7912 43.6712C79.4701 42.362 80.3913 41.2953 81.6035 40.5195C81.7974 40.3256 81.555 39.8892 81.3126 40.0831Z" fill="#1B1C29"/>
<path d="M84.0278 40.9074C83.0096 41.6347 82.2338 42.556 81.652 43.6712C81.5065 43.9621 81.9429 44.2045 82.0883 43.9136C82.6217 42.8954 83.349 42.0226 84.2702 41.3438C84.5127 41.1499 84.2702 40.7135 84.0278 40.9074Z" fill="#1B1C29"/>
<path d="M75.4941 24.2764C75.4456 24.2764 75.4456 24.2764 75.3971 24.2764L73.4092 23.6461C73.2152 23.5976 73.1183 23.4036 73.1667 23.2097C73.2152 23.0157 73.4092 22.9188 73.6031 22.9673L75.5911 23.5976C75.785 23.6461 75.882 23.84 75.8335 24.034C75.785 24.1794 75.6396 24.2764 75.4941 24.2764Z" fill="#1B1C29"/>
<path d="M8.09766 85.5154C8.00068 85.5154 7.90371 85.4669 7.85522 85.4184L0.145793 77.709C0.000332204 77.5636 0.000332204 77.3211 0.145793 77.1756C0.291254 77.0302 0.533706 77.0302 0.679167 77.1756L8.38857 84.8851C8.53403 85.0305 8.53403 85.273 8.38857 85.4184C8.29159 85.4669 8.19463 85.5154 8.09766 85.5154Z" fill="#1B1C29"/>
<path d="M0.388227 85.5154C0.291254 85.5154 0.19428 85.4669 0.145793 85.4184C0.000332204 85.273 0.000332204 85.0305 0.145793 84.8851L7.85522 77.1756C8.00068 77.0302 8.24311 77.0302 8.38857 77.1756C8.53403 77.3211 8.53403 77.5636 8.38857 77.709L0.679167 85.4184C0.582193 85.4669 0.485201 85.5154 0.388227 85.5154Z" fill="#1B1C29"/>
<path d="M8.09732 92.1096H0.387889C0.193942 92.1096 0 91.9641 0 91.7217C0 91.4793 0.145455 91.3338 0.387889 91.3338H8.09732C8.29127 91.3338 8.48521 91.4793 8.48521 91.7217C8.48521 91.9641 8.29127 92.1096 8.09732 92.1096Z" fill="#1B1C29"/>
<path d="M63.9057 5.70595C63.7603 5.36655 63.5664 5.02712 63.3239 4.68771C63.3239 4.68771 63.3239 4.68772 63.3239 4.63924C61.0935 1.4391 57.0206 0.469362 54.1599 2.45733C52.8023 3.42706 52.0265 4.93016 51.8325 6.57871C51.5901 8.37273 52.2689 10.2152 52.9962 11.8153C54.6447 15.5003 58.3782 17.1489 62.1602 13.9972C62.9845 13.3184 63.6148 12.4456 64.0512 11.4274C65.5058 11.1365 66.3786 10.0698 66.524 8.76062C66.6695 7.25753 65.5543 5.56049 63.9057 5.70595Z" fill="white"/>
<path d="M58.0873 16.0337C57.6994 16.0337 57.3115 15.9852 56.9236 15.8882C55.1296 15.4518 53.5295 14.0457 52.6083 11.9608C51.9295 10.4577 51.1537 8.46969 51.4446 6.53021C51.6871 4.63922 52.5598 3.08764 53.9174 2.16639C55.2751 1.24514 56.9721 0.857243 58.6692 1.19665C60.6086 1.53606 62.4027 2.74824 63.6148 4.44528C63.8088 4.7362 64.0027 5.02713 64.1482 5.36654C64.827 5.36654 65.4573 5.65747 65.9907 6.19083C66.6695 6.86964 67.0089 7.88787 66.8635 8.85761C66.6695 10.3607 65.6998 11.4759 64.2937 11.8153C63.8573 12.785 63.1785 13.6578 62.3542 14.3366C60.9481 15.4518 59.4934 16.0337 58.0873 16.0337ZM57.457 1.7785C56.3418 1.7785 55.2266 2.11791 54.3053 2.74824C53.0932 3.57252 52.3659 4.93015 52.1234 6.62719C51.881 8.37272 52.5598 10.1667 53.2386 11.6698C54.0629 13.5123 55.469 14.8215 57.0691 15.2094C58.6207 15.5488 60.2692 15.0639 61.8693 13.7548C62.6451 13.1244 63.2754 12.3002 63.6633 11.3304L63.7603 11.1365L63.9542 11.088C65.1664 10.8456 65.9907 9.97278 66.1362 8.71212C66.2331 7.98482 65.9422 7.16055 65.4573 6.62719C65.1664 6.33627 64.6815 5.99686 63.9542 6.04534H63.7118L63.6148 5.80291C63.4209 5.41501 63.2754 5.12409 63.0815 4.83317C61.9663 3.2331 60.3662 2.16641 58.5722 1.827C58.1843 1.827 57.7964 1.7785 57.457 1.7785Z" fill="#1B1C29"/>
<path d="M57.4669 9.25636C57.6111 9.03073 57.5451 8.73091 57.3195 8.58671C57.0939 8.44251 56.794 8.50852 56.6498 8.73416C56.5056 8.9598 56.5716 9.25961 56.7973 9.40381C57.0229 9.54802 57.3227 9.482 57.4669 9.25636Z" fill="#1B1C29"/>
<path d="M55.3236 12.6881C54.8387 11.7183 54.4993 10.7001 54.2569 9.63338C54.2084 9.34246 54.6932 9.24548 54.7417 9.5364C54.9357 10.5546 55.2751 11.5244 55.7599 12.4941C55.9054 12.7366 55.469 12.979 55.3236 12.6881Z" fill="#1B1C29"/>
<path d="M62.4511 9.19698C62.5481 8.08178 63.4209 7.11205 64.5846 6.96659C64.8755 6.9181 65.021 7.40297 64.6816 7.45146C63.7603 7.54843 63.033 8.27572 62.936 9.19698C62.8875 9.53638 62.4027 9.53638 62.4511 9.19698Z" fill="#1B1C29"/>
<path d="M61.9663 7.01506C61.6269 8.22723 60.0753 6.57869 57.1176 5.99685C55.8084 5.75441 50.2324 7.69388 49.3597 5.80289C48.0505 3.03913 51.7356 1.43908 54.1114 2.45731C53.869 1.43908 55.0327 -0.0640276 56.5842 0.711763C60.7541 -1.37317 64.5361 1.3421 64.0512 5.99685C64.0512 5.99685 62.3542 6.62717 61.9663 7.01506Z" fill="#1B1C29"/>
</svg>
