<svg xmlns="http://www.w3.org/2000/svg" width="26" height="28" viewBox="0 0 26 28">
    <path fill="#49A8D3" fill-rule="evenodd" d="M25.556 11.18a12.377 12.377 0 0 0-1.296-3.051 12.705 12.705 0 0 0-2.067-2.618 12.96 12.96 0 0 0-2.691-2.01 13.12 13.12 0 0 0-3.137-1.262A13.41 13.41 0 0 0 13 1.807V0c-1.293 0-2.586.167-3.844.494-1.241.323-2.447.802-3.585 1.442a14.833 14.833 0 0 0-3.077 2.297A14.496 14.496 0 0 0 .133 7.226l1.608.903a12.396 12.396 0 0 0-1.296 3.05A12.375 12.375 0 0 0 0 14.454c0 1.1.15 2.2.445 3.272a12.39 12.39 0 0 0 1.296 3.05 12.68 12.68 0 0 0 2.067 2.619c.823.8 1.73 1.47 2.691 2.01.997.56 2.051.98 3.137 1.262 1.1.285 2.232.431 3.364.431 1.132 0 2.264-.145 3.365-.431a13.129 13.129 0 0 0 3.136-1.261 12.976 12.976 0 0 0 2.692-2.011c.823-.8 1.51-1.683 2.067-2.618A12.397 12.397 0 0 0 26 14.453c0-1.102-.15-2.202-.444-3.273zm-2.905 8.693a10.899 10.899 0 0 1-1.771 2.244 11.146 11.146 0 0 1-4.996 2.804c-.944.245-1.913.37-2.884.37a11.474 11.474 0 0 1-5.572-1.451 11.169 11.169 0 0 1-2.308-1.723 10.914 10.914 0 0 1-1.77-2.244c-.494-.83-.864-1.71-1.112-2.616a10.603 10.603 0 0 1-.381-2.804c0-.945.129-1.888.38-2.806.249-.905.619-1.785 1.112-2.614l1.609.903 1.608.903 1.608.903 1.612.905 1.607.904a1.784 1.784 0 0 0-.25.902 1.77 1.77 0 0 0 .25.902 1.792 1.792 0 0 0 .68.66 1.925 1.925 0 0 0 .927.244 1.92 1.92 0 0 0 1.313-.53c.117-.114.214-.24.293-.374a1.747 1.747 0 0 0 .186-1.37 1.808 1.808 0 0 0-1.312-1.276 1.921 1.921 0 0 0-.48-.063V3.613c.97 0 1.94.125 2.884.37a11.177 11.177 0 0 1 4.996 2.804 10.878 10.878 0 0 1 1.77 2.245c.494.83.864 1.71 1.112 2.615.252.918.382 1.861.382 2.805 0 .944-.13 1.887-.382 2.805a10.602 10.602 0 0 1-1.111 2.616z"/>
</svg>
