<svg xmlns="http://www.w3.org/2000/svg" xmlns:xlink="http://www.w3.org/1999/xlink" width="287" height="110" viewBox="0 0 287 110">
    <defs>
        <linearGradient id="a" x1="50%" x2="50%" y1="0%" y2="100%">
            <stop offset="0%" stop-color="#F2F2F2"/>
            <stop offset="100%" stop-color="#FFF"/>
        </linearGradient>
        <path id="b" d="M5.933.8C6.256.309 6.849 0 7.5 0c.65 0 1.243.308 1.567.8l5.703 8.793a1.47 1.47 0 0 1 .005 1.57c-.312.507-.908.83-1.575.837H1.794c-.661-.007-1.257-.33-1.57-.836a1.472 1.472 0 0 1 .009-1.576L5.933.8zM1.068 9.929a.852.852 0 0 0-.003.904.88.88 0 0 0 .735.418h11.394a.883.883 0 0 0 .74-.418.85.85 0 0 0 0-.899L8.237 1.148A.883.883 0 0 0 7.5.75c-.29 0-.57.145-.736.397L1.068 9.928zM7.5 9c.259 0 .469.168.469.375s-.21.375-.47.375c-.258 0-.468-.168-.468-.375S7.241 9 7.5 9zm0-5.25c.259 0 .469.23.469.516v3.093c0 .285-.21.516-.47.516-.258 0-.468-.23-.468-.516V4.266c0-.285.21-.516.469-.516z"/>
    </defs>
    <g fill="none" fill-rule="evenodd">
        <path fill="url(#a)" d="M0 96h287v14H0z"/>
        <g transform="translate(27 14)">
            <ellipse cx="11.111" cy="13.537" fill="#FF6584" rx="7.937" ry="7.963"/>
            <path fill="#E6E6E7" d="M50 43.764c0 18.91-11.193 25.514-25 25.514S0 62.675 0 43.764C0 24.854 25 .796 25 .796s25 24.058 25 42.968z"/>
            <path fill="#3F3D56" d="M24.559 65.796l.261-15.876 10.894-19.642L24.861 47.43l.118-7.139 7.508-14.21L25.01 38.4l.212-12.84 8.04-11.312-8.007 9.294L25.387 0l-.83 31.167.068-1.286L16.45 17.55l8.044 14.799-.762 14.34-.023-.381-9.423-12.977 9.395 14.321-.096 1.794-.017.027.008.147L21.644 86h2.582l.31-18.791 9.371-14.286z"/>
        </g>
        <path fill="#E6E6E7" d="M278 60.293C278 79.347 266.36 86 252 86s-26-6.653-26-25.707C226 41.24 252 17 252 17s26 24.24 26 43.293z"/>
        <path fill="#ACABB0" d="M251.067 82.561l.257-16.06L262 46.63l-10.636 17.35.115-7.222 7.358-14.376-7.327 12.465.207-12.989 7.88-11.445-7.847 9.403.13-23.817-.815 31.529.067-1.3-8.01-12.475 7.882 14.971-.747 14.506-.022-.385L241 49.72l9.207 14.487-.093 1.815-.017.027.008.149L248.21 103h2.53l.304-19.01 9.184-14.452z"/>
        <g transform="translate(54 72)">
            <ellipse cx="10.658" cy="19.6" fill="#2F2E41" rx="10.658" ry="10.8"/>
            <path fill="#2F2E41" d="M5.324 28.125l3.27.043-.061 5.915-3.271-.043zM11.876 28.203l3.271.042-.062 5.916-3.271-.043z"/>
            <ellipse cx="7.985" cy="34.144" fill="#2F2E41" rx="1.032" ry="2.73" transform="rotate(-89.325 7.985 34.144)"/>
            <ellipse cx="14.539" cy="34.085" fill="#2F2E41" rx="1.032" ry="2.73" transform="rotate(-89.325 14.539 34.085)"/>
            <ellipse cx="10.658" cy="17.2" fill="#FFF" rx="3.553" ry="3.6"/>
            <ellipse cx="10.658" cy="17.2" fill="#3F3D56" rx="1.184" ry="1.2"/>
            <path fill="#17C9B2" d="M.142 9.235C-.677 5.187 2.132 1.14 6.414.198c4.282-.943 8.417 1.575 9.235 5.624.819 4.048-2.029 5.503-6.311 6.445C5.056 13.21.96 13.284.142 9.235z"/>
            <path fill="#9AAFFF" d="M30 25.866C30 33.377 25.582 36 20.132 36a16.783 16.783 0 0 1-1.128-.039c-4.92-.352-8.74-3.11-8.74-10.095 0-7.229 9.14-16.35 9.827-17.026V8.84l.04-.039S30 18.355 30 25.866z"/>
            <path fill="#3F3D56" d="M19.953 34.855l3.788-5.098-3.798 5.658-.01.585a17.544 17.544 0 0 1-.787-.035l.408-7.516-.003-.058.007-.01.039-.71-3.808-5.672 3.82 5.139.009.15.308-5.678-3.26-5.86 3.3 4.863.321-11.773.001-.04v.039l-.053 9.284 3.245-3.68-3.258 4.48-.086 5.084 3.03-4.88-3.043 5.628-.048 2.827 4.399-6.792-4.415 7.778-.106 6.287z"/>
            <ellipse cx="7.025" cy="23.025" fill="#2F2E41" rx="1.71" ry="5.4" transform="rotate(-68.158 7.025 23.025)"/>
        </g>
        <path fill="#17C9B2" d="M147.869 45.477h-44.331c-.297 0-.538-.175-.538-.392 0-.216.24-.392.538-.392h44.33c.298 0 .539.176.539.392 0 .217-.241.392-.538.392zM147.869 57.239h-44.331c-.297 0-.538-.176-.538-.392 0-.217.24-.392.538-.392h44.33c.298 0 .539.175.539.392 0 .216-.241.392-.538.392zM147.868 62.727h-44.329c-.192 0-.37-.074-.467-.196a.303.303 0 0 1 0-.392c.097-.121.275-.196.467-.196h44.329c.192 0 .37.075.467.196a.303.303 0 0 1 0 .392c-.097.122-.275.197-.467.196zM166.996 57.239h-12.484c-.292 0-.529-.176-.529-.392 0-.217.237-.392.529-.392h12.484c.293 0 .53.175.53.392 0 .216-.237.392-.53.392zM166.996 62.727h-12.484c-.292 0-.529-.175-.529-.392 0-.216.237-.392.529-.392h12.484c.293 0 .53.176.53.392 0 .217-.237.392-.53.392zM187.708 57.239h-12.484c-.292 0-.53-.176-.53-.392 0-.217.238-.392.53-.392h12.484c.292 0 .53.175.53.392 0 .216-.238.392-.53.392zM196.461 50.966h-69.82c-.298 0-.54-.176-.54-.392 0-.217.242-.392.54-.392h69.82c.298 0 .539.175.539.392 0 .216-.241.392-.539.392zM116.013 50.966H103.53c-.292 0-.529-.176-.529-.392 0-.217.237-.392.529-.392h12.484c.293 0 .53.175.53.392 0 .216-.237.392-.53.392zM196.461 69h-69.82c-.192 0-.37-.074-.467-.196a.302.302 0 0 1 0-.392c.097-.122.275-.196.468-.196h69.82c.297 0 .538.175.538.392 0 .216-.241.392-.539.392zM116.012 69H103.53c-.19 0-.364-.074-.459-.196a.307.307 0 0 1 0-.392c.095-.122.27-.196.459-.196h12.482c.19 0 .365.074.46.196a.307.307 0 0 1 0 .392c-.095.122-.27.196-.46.196z"/>
        <path fill="#CC375A" d="M130.578 0l-11.646 11.37 11.646 11.369 2.62-2.59-8.807-8.708 8.88-8.779zM174.998 0l11.646 11.37-11.646 11.369-2.62-2.59 8.807-8.708-8.88-8.779z"/>
        <use fill="#CC375A" fill-rule="nonzero" transform="translate(145 4)" xlink:href="#b"/>
        <g transform="translate(221 74)">
            <circle cx="12.4" cy="16.4" r="10" fill="#2F2E41"/>
            <path fill="#2F2E41" d="M10.802 24.734l2.884-.925 1.513 5.158-2.885.926zM16.55 22.979l2.885-.926 1.513 5.159-2.885.925z"/>
            <ellipse cx="14.768" cy="29.178" fill="#2F2E41" rx="2.506" ry="1" transform="rotate(-17.083 14.768 29.178)"/>
            <ellipse cx="20.48" cy="27.302" fill="#2F2E41" rx="2.506" ry="1" transform="rotate(-17.083 20.48 27.302)"/>
            <circle cx="12" cy="13.6" r="3.2" fill="#FFF"/>
            <circle cx="12.4" cy="14" r="1.2" fill="#3F3D56"/>
            <path fill="#17C9B2" d="M.811 10.107c-1.84-3.084-.442-7.155 3.125-9.094 3.566-1.939 7.95-1.011 9.79 2.072 1.841 3.084-.303 5.049-3.87 6.988-3.566 1.939-7.204 3.117-9.045.034z"/>
            <path fill="#9AAFFF" d="M28 22.76C28 29.61 23.881 32 18.8 32a15.999 15.999 0 0 1-1.052-.035C13.163 31.644 9.6 29.13 9.6 22.76c0-6.59 8.522-14.908 9.162-15.523l.001-.002.037-.035S28 15.912 28 22.76z"/>
            <path fill="#3F3D56" d="M19.035 30.956l3.49-4.648-3.499 5.158-.009.534a16.328 16.328 0 0 1-.725-.032l.376-6.852-.003-.054.007-.01.035-.647-3.507-5.17 3.518 4.685.008.137.285-5.177-3.003-5.344 3.04 4.435.295-10.734.001-.037v.035l-.049 8.465 2.99-3.356-3.002 4.085-.08 4.636 2.792-4.449-2.803 5.131-.044 2.577 4.052-6.192-4.067 7.092-.098 5.732z"/>
            <ellipse cx="8.958" cy="19.813" fill="#2F2E41" rx="1.562" ry="4.949" transform="rotate(-64.626 8.958 19.813)"/>
        </g>
    </g>
</svg>
