<svg xmlns="http://www.w3.org/2000/svg" xmlns:xlink="http://www.w3.org/1999/xlink" width="289" height="137" viewBox="0 0 289 137">
    <defs>
        <linearGradient id="a" x1="50%" x2="50%" y1="0%" y2="100%">
            <stop offset="0%" stop-color="#F2F2F2"/>
            <stop offset="100%" stop-color="#FFF"/>
        </linearGradient>
        <linearGradient id="b" x1="50%" x2="50%" y1="100%" y2="0%">
            <stop offset="0%" stop-color="#717171" stop-opacity=".25"/>
            <stop offset="54%" stop-color="gray" stop-opacity=".12"/>
            <stop offset="100%" stop-color="gray" stop-opacity=".1"/>
        </linearGradient>
        <linearGradient id="c" x1="50%" x2="50%" y1="100%" y2="0%">
            <stop offset="0%" stop-color="gray" stop-opacity=".25"/>
            <stop offset="54%" stop-color="gray" stop-opacity=".12"/>
            <stop offset="100%" stop-color="gray" stop-opacity=".1"/>
        </linearGradient>
        <linearGradient id="d" x1="50%" x2="50%" y1="100%" y2="0%">
            <stop offset="0%" stop-color="gray" stop-opacity=".25"/>
            <stop offset="54%" stop-color="gray" stop-opacity=".12"/>
            <stop offset="100%" stop-color="gray" stop-opacity=".1"/>
        </linearGradient>
        <path id="e" d="M.07.093h18.68V12.58H.07z"/>
        <linearGradient id="g" x1="50%" x2="50%" y1="100%" y2="0%">
            <stop offset="0%" stop-color="gray" stop-opacity=".25"/>
            <stop offset="54%" stop-color="gray" stop-opacity=".12"/>
            <stop offset="100%" stop-color="gray" stop-opacity=".1"/>
        </linearGradient>
        <linearGradient id="h" x1="50%" x2="50%" y1="100%" y2="0%">
            <stop offset="0%" stop-color="gray" stop-opacity=".25"/>
            <stop offset="54%" stop-color="gray" stop-opacity=".12"/>
            <stop offset="100%" stop-color="gray" stop-opacity=".1"/>
        </linearGradient>
        <path id="i" d="M.07.054h18.68v12.487H.07z"/>
        <linearGradient id="k" x1="0%" y1="50%" y2="50%">
            <stop offset="0%" stop-color="gray" stop-opacity=".25"/>
            <stop offset="54%" stop-color="gray" stop-opacity=".12"/>
            <stop offset="100%" stop-color="gray" stop-opacity=".1"/>
        </linearGradient>
        <linearGradient id="l" x1=".006%" x2="100.006%" y1="50.002%" y2="50.002%">
            <stop offset="0%" stop-color="gray" stop-opacity=".25"/>
            <stop offset="54%" stop-color="gray" stop-opacity=".12"/>
            <stop offset="100%" stop-color="gray" stop-opacity=".1"/>
        </linearGradient>
        <path id="m" d="M161.27 68.476c-.084.206-.161.415-.232.627-.117.346.046.729.362.856s.666-.05.782-.396c.062-.185.13-.367.203-.548 1.383-3.418 4.549-5.682 8.108-5.682 3.678 0 6.026 1.571 7.33 5.16.125.342.48.509.792.373.313-.136.466-.524.342-.866-1.489-4.095-4.286-6-8.464-6-4.043 0-7.646 2.576-9.223 6.476zm18.463 6.048c.083-.206.16-.415.23-.627.115-.346-.046-.729-.358-.856-.313-.127-.66.05-.775.396a9.76 9.76 0 0 1-.2.548c-1.37 3.418-4.502 5.682-8.025 5.682-3.64 0-6.15-1.575-7.44-5.163-.124-.342-.475-.51-.784-.373-.31.136-.461.523-.338.865 1.473 4.096 4.427 6.004 8.562 6.004 4.001 0 7.567-2.576 9.128-6.476zM180 68.4V63.6a.6.6 0 1 0-1.2 0v4.8l.6-.6h-4.8a.6.6 0 1 0 0 1.2h4.8a.6.6 0 0 0 .6-.6zm-19 7.264V79.4a.6.6 0 1 0 1.2 0v-4.8l-.6.6h4.8a.6.6 0 1 0 0-1.2h-4.8a.6.6 0 0 0-.6.6v1.064z"/>
    </defs>
    <g fill="none" fill-rule="evenodd">
        <path fill="url(#a)" d="M0 110.374h289v18H0z" transform="translate(0 8.626)"/>
        <path fill="#F6F6F6" d="M81.36 99.253l44.142.34L91.834 30.92l-44.395-.341zM131.724 99.256l44.166 1.06-33.699-69.392-44.389-.345zM30.75 99.341l45.018.23-33.735-68.763-10.725-.047zM197.27 30.579l33.701 68.704 23.35.095-.283-68.567zM180.579 99.227l44.391.343-33.668-68.645-43.915-.34z"/>
        <path fill="#E5E5E5" d="M269.966 116.168c-2.73 3.983-1.981 9.05-1.981 9.05s5.173-1.392 7.903-5.376c2.73-3.983 1.982-9.05 1.982-9.05s-5.174 1.393-7.904 5.376z"/>
        <path fill="#F2F2F2" stroke="#676578" d="M260.793 115.617c1.51 5.543 6.686 8.975 6.686 8.975s2.726-5.553 1.215-11.095c-1.511-5.543-6.687-8.975-6.687-8.975s-2.725 5.553-1.214 11.095z"/>
        <path fill="#17C9B2" d="M263.209 115.112c4.172 3.984 4.682 10.107 4.682 10.107s-6.255-.335-10.427-4.318c-4.173-3.984-4.682-10.107-4.682-10.107s6.255.335 10.427 4.318z"/>
        <g transform="translate(200.418 11.171)">
            <ellipse cx="28.33" cy="17.561" fill="#2F2E41" rx="7.555" ry="7.526"/>
            <path fill="#A78185" d="M36.933 113.08l1.47 6.087h-3.568l-1.47-6.9zM20.145 112.895v5.854l-3.777.418v-6.272zM37.773 47.248s-.42 8.99-.84 9.617c-.42.627-4.197 9.617-4.197 9.617l-1.888-5.854s2.938-4.808 2.518-7.526c-.42-2.718-.155-6.063-.155-6.063l4.562.209z"/>
            <ellipse cx="25.811" cy="20.07" fill="#A78185" rx="5.666" ry="5.645"/>
            <path fill="#A78185" d="M30.758 20.697s-.201 8.2 1.206 9.43c1.407 1.23-8.041.205-8.041.205s2.01-5.74.402-6.97c-1.608-1.23 6.433-2.665 6.433-2.665z"/>
            <path fill="#CCD6F8" d="M23.18 30.295s1.252-2.264 2.92-2.058c1.667.206 7.087.617 7.295 1.03.209.41.834 1.852 1.25 2.264.418.411 3.545 1.029 3.753 3.5.209 2.47-7.504 17.497-7.504 17.497s1.042 3.5.834 4.323c-.209.823 1.042 3.294.833 4.323-.208 1.03 3.127 7.205 1.46 15.234v12.969s5.628 22.438 3.96 24.085c-1.667 1.647-7.296.617-8.338 0-1.042-.618-5.42-31.702-5.42-31.702L22.14 71.26l-.209 23.056s.417 19.35-1.042 19.968c-1.46.618-7.088.824-7.504-.411-.326-.964-1.919-26.595-2.604-37.83-.238-3.878.071-7.77.918-11.564.867-3.886 2.127-8.452 3.562-10.305 2.71-3.5 4.377-14.616 4.377-14.616l-3.544-6.382s2.085-2.058 3.336-2.058c1.25 0 3.752-.824 3.752-.824z"/>
            <path fill="#AAB5DC" d="M36.514 32.614l1.888 1.254s.39 13.164-.248 13.975c-.637.811-5.066.415-5.4-.3-.333-.714 3.76-14.929 3.76-14.929z"/>
            <path fill="#A78185" d="M18.429 45.057c.597 4.19 1.12 7.919-1.934 11.293a57.504 57.504 0 0 1-10.313 9.03C5.807 66.384.307 73.75.027 70.812c-.28-2.939 1.62-5.242 4.321-7.727 2.7-2.485 6.478-7.877 8.61-10.836 2.132-2.958 1.254-4.803 1.18-7.275-.074-2.47 3.453.113 4.291.083z"/>
            <path fill="#2F2E41" d="M16.198 115.404s-.211 2.25-.845 2.853c-.634.603-2.326 1.406-2.114 3.617.211 2.21 1.585 2.31 1.585 2.31l-.105-.502.634.2.105.302h5.92s.106-2.11-.106-3.114c-.211-1.005-.211-5.827-.845-5.626-.634.2-2.326.402-2.749 1.205-.422.804-1.691.523-1.48-1.245zM37.313 115.404s.211 2.25.846 2.853c.634.603 2.325 1.406 2.114 3.617-.212 2.21-1.586 2.31-1.586 2.31l.106-.502-.634.2-.106.302h-5.92s-.105-2.11.106-3.114c.211-1.005.211-5.827.846-5.626.634.2 2.325.402 2.748 1.205.423.804 1.691.523 1.48-1.245z"/>
            <path fill="#AAB5DC" d="M18.886 30.732l-3.147 2.51s.134 4.426-.7 6.246c-.833 1.819-2.292 6.064-1.667 6.267.625.202 6.46 3.032 6.877 1.415.417-1.618 1.555-16.438-1.363-16.438z"/>
            <ellipse cx="37.143" cy="7.526" fill="#2F2E41" rx="7.555" ry="7.526"/>
            <path fill="#2F2E41" d="M43.188 14.2a7.405 7.405 0 0 1-6.884 1.064c-2.326-.814-4.125-2.739-4.827-5.163.357 2.92 2.278 5.384 4.969 6.376 2.691.992 5.695.342 7.77-1.682 2.076-2.023 2.87-5.076 2.055-7.896.346 2.83-.836 5.63-3.083 7.301z"/>
            <ellipse cx="30.848" cy="18.816" fill="#2F2E41" rx="5.666" ry="5.645"/>
            <ellipse cx="25.811" cy="16.934" fill="#2F2E41" rx="5.036" ry="3.763"/>
            <ellipse cx="24.867" cy="21.011" fill="#A78185" rx="1" ry="1.568"/>
        </g>
        <g transform="translate(76)">
            <path fill="url(#b)" d="M.019.027h57.068V78.25H.019z" opacity=".5" transform="translate(20.093 17.044)"/>
            <path fill="#EDEDED" d="M20.093 18.306h55.884v75.119H20.093z"/>
            <path fill="#E0E0E0" d="M25.116 21.462h19.465v1H25.116z"/>
            <path fill="#17C9B2" d="M25.116 23.988h19.465v1H25.116z" opacity=".7"/>
            <path fill="#E0E0E0" d="M46.465 21.462H65.93v1H46.465zM50.233 38.506h19.465v1H50.233zM50.233 40.4h19.465v1H50.233zM50.86 41.663h19.465v1H50.86zM50.233 65.65h19.465v1H50.233zM50.233 66.912h19.465v1H50.233zM50.86 68.175h19.465v1H50.86z"/>
            <path fill="url(#c)" d="M.004.021h20.697v21.351H.004z" opacity=".5" transform="translate(25.116 32.194)"/>
            <path fill="#F5F5F5" d="M25.116 32.825h20.093v20.2H25.116z"/>
            <path fill="url(#d)" d="M.069.001h18.683v13.181H.069z" opacity=".5" transform="translate(25.744 34.087)"/>
            <path fill="#FFF" d="M26.372 34.087h18.209v12.625H26.372z"/>
            <g transform="translate(48.977 41.663)">
                <mask id="f" fill="#fff">
                    <use xlink:href="#e"/>
                </mask>
                <g fill="#17C9B2" mask="url(#f)" opacity=".4">
                    <g transform="translate(-25.463 -7.343)">
                        <path d="M.695 11.673l4.704-7.222L7.371 7.61l4.248-4.362 3.642 4.362 3.185-6.469 8.192 12.938-26.55-.903z"/>
                        <ellipse cx="4.336" cy="1.442" rx="1.365" ry="1.354"/>
                    </g>
                </g>
            </g>
            <path fill="url(#g)" d="M.004.115h20.697v21.22H.004z" opacity=".5" transform="translate(25.116 58.706)"/>
            <path fill="#F5F5F5" d="M25.116 59.337h20.093v20.2H25.116z"/>
            <path fill="url(#h)" d="M.069.094h18.683v13.052H.069z" opacity=".5" transform="translate(25.744 60.6)"/>
            <path fill="#FFF" d="M26.372 60.6h18.209v12.625H26.372z"/>
            <g transform="translate(48.977 68.806)">
                <mask id="j" fill="#fff">
                    <use xlink:href="#i"/>
                </mask>
                <g fill="#BDBDBD" mask="url(#j)" opacity=".4">
                    <g transform="translate(-25.463 -7.343)">
                        <path d="M.695 11.634l4.704-7.222 1.972 3.16L11.62 3.21l3.642 4.363 3.185-6.47 8.192 12.939-26.55-.902z"/>
                        <ellipse cx="4.336" cy="1.404" rx="1.365" ry="1.354"/>
                    </g>
                </g>
            </g>
            <path fill="url(#k)" d="M-1.526 15.963l77.306-.86-.638 56.72-77.306.86z" opacity=".5" transform="rotate(-78.76 58.197 34.3)"/>
            <path fill="#FFF" d="M29.302 88.172l14.51-73.851 54.624 10.976-14.51 73.851z"/>
            <path fill="#E0E0E0" d="M47.112 18.54l38.786 7.786-.11.562-38.786-7.786zM36.076 74.605l38.786 7.786-.11.563-38.787-7.786zM35.401 78.022l29.971 6.018-.108.549-29.97-6.018z"/>
            <path fill="#17C9B2" d="M34.734 81.415l11.164 2.244-.115.588-11.165-2.243zM46.44 21.948l19.392 3.895-.112.57-19.392-3.895z" opacity=".7"/>
            <path fill="#E0E0E0" d="M45.768 25.368l34.965 7.02-.108.55L45.66 25.92z"/>
            <path fill="#3AD29F" d="M45.1 28.763l8.52 1.712-.116.588-8.52-1.712z" opacity=".7"/>
            <path fill="#E0E0E0" d="M44.426 32.186l38.786 7.786-.11.563-38.786-7.787z"/>
            <path fill="url(#l)" d="M9.715-3.834l20.78-.056-.082 35.527-20.78.056z" opacity=".5" transform="rotate(-78.76 69.483 10.933)"/>
            <path fill="#FFF" d="M48.043 46.775l34.37 6.906-3.874 19.717-34.37-6.906z"/>
            <path fill="#E0E0E0" d="M43.755 35.598l38.786 7.787-.11.562-38.787-7.786z"/>
            <path fill="#17C9B2" d="M51.118 50.167l4.256.855-2.827 14.386-4.256-.855z"/>
            <path fill="#3AD29F" d="M57.823 56.446l4.258.855-1.894 9.64-4.258-.855z"/>
            <path fill="#F55F44" d="M64.588 62.428l4.26.856-1.02 5.19-4.26-.856z"/>
            <path fill="#FDD835" d="M73.28 58.622l4.256.855-2.069 10.53-4.257-.855z"/>
            <path fill="#17C9B2" d="M66.558 54.288c-1.673 0-1.675 2.525 0 2.525s1.675-2.526 0-2.526z"/>
            <path fill="#47E6B1" d="M15.07 85.85h1v2.525h-1z"/>
            <path fill="#47E6B1" d="M16.64 86.888v.45h-2.512v-.45z"/>
            <path fill="#4D8AF0" d="M73.88 1.28a.691.691 0 0 1-.382-.834.346.346 0 0 0-.21-.425.342.342 0 0 0-.394.118.332.332 0 0 0-.039.068.684.684 0 0 1-.829.384.343.343 0 0 0-.424.212.347.347 0 0 0 .122.399c.021.015.044.028.067.038.32.14.484.5.382.835a.346.346 0 0 0 .211.43.342.342 0 0 0 .398-.126.332.332 0 0 0 .038-.068.684.684 0 0 1 .83-.384.343.343 0 0 0 .422-.21.347.347 0 0 0-.117-.398.328.328 0 0 0-.076-.038z"/>
            <path fill="#FDD835" d="M18.003 20.222a.693.693 0 0 1-.383-.837.347.347 0 0 0-.21-.426.344.344 0 0 0-.396.118.333.333 0 0 0-.039.068.687.687 0 0 1-.832.385.345.345 0 0 0-.424.211.348.348 0 0 0 .118.399.33.33 0 0 0 .067.038c.32.14.486.5.383.837a.347.347 0 0 0 .21.426.344.344 0 0 0 .396-.118.333.333 0 0 0 .039-.068.687.687 0 0 1 .832-.385.345.345 0 0 0 .424-.211.348.348 0 0 0-.118-.399.33.33 0 0 0-.067-.038zM97.12 98.497a.693.693 0 0 1-.384-.837.347.347 0 0 0-.21-.426.344.344 0 0 0-.396.118.333.333 0 0 0-.039.068.687.687 0 0 1-.832.385.345.345 0 0 0-.424.211.348.348 0 0 0 .118.399.33.33 0 0 0 .067.038c.321.14.486.5.384.837a.347.347 0 0 0 .21.426.344.344 0 0 0 .396-.118.333.333 0 0 0 .038-.068.687.687 0 0 1 .832-.385.345.345 0 0 0 .424-.211.348.348 0 0 0-.117-.399.33.33 0 0 0-.068-.038z"/>
            <ellipse cx="41.128" cy="9.784" fill="#F55F44" rx="1" ry="1"/>
            <ellipse cx="105.174" cy="21.147" fill="#F55F44" rx="1" ry="1"/>
            <ellipse cx="100.151" cy="48.291" fill="#4D8AF0" rx="1" ry="1"/>
            <ellipse cx=".942" cy="3.472" fill="#47E6B1" opacity=".5" rx="1" ry="1"/>
        </g>
        <circle cx="170" cy="71" r="20" fill="#17C9B2"/>
        <use fill="#FFF" fill-rule="nonzero" stroke="#FFF" xlink:href="#m"/>
        <g transform="translate(9 71)">
            <path fill="#F2F2F2" d="M34 27.105C34 39.035 27.06 43.2 18.5 43.2 9.94 43.2 3 39.035 3 27.105 3 15.176 18.5 0 18.5 0S34 15.176 34 27.105z"/>
            <path fill="#868686" d="M17.9 41.314l.156-9.969 6.51-12.333-6.486 10.77.07-4.483 4.487-8.923-4.468 7.736.127-8.062L23.1 8.947l-4.785 5.836L18.395 0l-.497 19.57.04-.808-4.884-7.742 4.806 9.292-.455 9.004-.013-.24-5.631-8.147 5.614 8.992-.057 1.126-.01.017.004.093L16.158 54H17.7l.185-11.8 5.6-8.97z"/>
            <g transform="translate(0 37)">
                <ellipse cx="1.68" cy="1.596" fill="#9AAFFF" rx="1.248" ry="1.209"/>
                <path fill="#17C9B2" d="M7.602 3.771h1V17.54h-1z"/>
                <ellipse cx="7.793" cy="3.771" fill="#17C9B2" rx="2.009" ry="1.947"/>
                <path fill="#17C9B2" d="M7.793 12.258s-.287-5.983-6.17-5.288"/>
            </g>
            <circle cx="2" cy="39" r="1" fill="#9AAFFF"/>
        </g>
    </g>
</svg>
