<svg width="158" height="190" viewBox="0 0 158 190" fill="none" xmlns="http://www.w3.org/2000/svg">
<path d="M69.2956 188.048H142.509C142.509 188.048 136.284 158.296 120.3 166.377C120.3 166.377 108.566 138.72 84.8603 143.928C61.1541 149.136 62.3514 163.683 72.0494 174.758C72.0494 174.818 59.2384 172.304 69.2956 188.048Z" fill="#65A300"/>
<path d="M101.203 188.527C101.024 188.527 100.844 188.407 100.784 188.228C98.8087 181.283 93.0018 164.162 82.5855 155.841C82.4059 155.662 82.346 155.422 82.5256 155.183C82.7052 155.003 82.9447 154.943 83.1841 155.123C93.7801 163.624 99.6467 180.924 101.682 187.988C101.742 188.228 101.622 188.467 101.383 188.527C101.263 188.527 101.203 188.527 101.203 188.527Z" fill="#1B1C29"/>
<path d="M91.6249 188.527C91.5052 188.527 91.3256 188.467 91.2657 188.347C88.931 185.175 84.561 180.625 76.9582 177.093C76.7188 176.973 76.6589 176.734 76.7188 176.494C76.8385 176.255 77.0779 176.195 77.3174 176.255C85.0997 179.847 89.5895 184.516 91.9841 187.749C92.1038 187.928 92.1038 188.228 91.8644 188.347C91.8045 188.467 91.6848 188.527 91.6249 188.527Z" fill="#1B1C29"/>
<path d="M83.7229 175.117C83.4834 175.117 83.244 174.938 83.244 174.639V169.67C83.244 169.43 83.4236 169.191 83.7229 169.191C84.0222 169.191 84.2018 169.371 84.2018 169.67V174.639C84.1419 174.938 83.9623 175.117 83.7229 175.117Z" fill="#1B1C29"/>
<path d="M62.4113 188.467C62.2915 188.467 62.1119 188.407 62.0521 188.288L58.4602 183.319C58.3405 183.139 58.3405 182.84 58.58 182.72C58.7596 182.601 59.0589 182.6 59.1786 182.84L62.7705 187.809C62.8902 187.988 62.8902 188.288 62.6507 188.407C62.5909 188.407 62.4711 188.467 62.4113 188.467Z" fill="#1B1C29"/>
<path d="M57.9214 188.527C57.8017 188.527 57.682 188.467 57.6221 188.407L55.5269 186.552C55.3473 186.372 55.3473 186.073 55.467 185.893C55.5867 185.713 55.9459 185.713 56.1255 185.833L58.2208 187.689C58.4004 187.869 58.4004 188.168 58.2806 188.347C58.1609 188.467 58.0412 188.527 57.9214 188.527Z" fill="#1B1C29"/>
<path d="M60.316 64.4287C58.8793 64.4287 57.5623 63.89 56.2453 63.2914C53.7908 62.2737 51.516 61.256 48.2833 63.7703C48.1037 63.9498 47.8044 63.89 47.6248 63.7104C47.4452 63.5308 47.5051 63.2315 47.6847 63.0519C51.3364 60.1784 54.0901 61.3757 56.5446 62.4532C58.7595 63.4111 60.7351 64.2492 63.2494 62.4532C63.4289 62.3335 63.7283 62.3335 63.848 62.573C63.9677 62.7526 63.9677 63.0519 63.7283 63.1716C62.5908 64.0696 61.3936 64.4287 60.316 64.4287Z" fill="#1B1C29"/>
<path d="M54.8684 74.905C54.7487 74.905 54.6289 74.8451 54.5691 74.7852L47.7446 67.9608C47.565 67.7812 47.565 67.4818 47.7446 67.3022C47.9241 67.1226 48.2235 67.1226 48.4031 67.3022L55.2276 74.1268C55.4072 74.3064 55.4072 74.6057 55.2276 74.7852C55.1078 74.8451 54.9881 74.905 54.8684 74.905Z" fill="#1B1C29"/>
<path d="M48.0439 74.905C47.9241 74.905 47.8044 74.8451 47.7446 74.7852C47.565 74.6057 47.565 74.3064 47.7446 74.1268L54.5691 67.3022C54.7487 67.1226 55.048 67.1226 55.2276 67.3022C55.4072 67.4818 55.4072 67.7812 55.2276 67.9608L48.3432 74.7254C48.2833 74.8451 48.1636 74.905 48.0439 74.905Z" fill="#1B1C29"/>
<path d="M71.5106 128.004C80.9691 136.385 89.8889 144.886 96.7732 155.841C101.562 163.504 105.334 172.304 107.549 183.079L133.051 181.283C133.051 181.283 133.171 178.889 128.142 176.434C123.054 173.98 122.515 168.832 118.324 154.943C110.722 129.74 95.2766 118.845 77.6766 108.848L71.5106 128.004Z" fill="white"/>
<path d="M107.13 183.558L107.07 183.199C105.034 173.202 101.502 164.342 96.3542 156.081C89.3501 144.886 80.0711 136.206 71.2113 128.304L70.9718 128.124L77.2575 108.13L77.7364 108.429C94.7977 118.127 110.781 128.962 118.624 154.764C119.342 157.218 120.001 159.373 120.539 161.349C123.113 170.328 124.191 174.1 128.202 176.015C133.47 178.59 133.41 181.224 133.41 181.283V181.703L107.13 183.558ZM71.9895 127.825C80.8494 135.727 90.0684 144.347 97.0725 155.602C102.221 163.803 105.753 172.663 107.788 182.6L132.392 180.864C132.153 180.146 131.255 178.53 127.783 176.794C123.413 174.698 122.335 170.807 119.641 161.588C119.103 159.673 118.444 157.458 117.726 155.063C110.063 129.8 94.4984 119.025 77.7364 109.506L71.9895 127.825Z" fill="#1B1C29"/>
<path d="M121.377 169.969C115.93 171.166 110.482 172.304 105.035 173.561C105.992 176.554 106.83 179.727 107.549 183.079L133.051 181.284C133.051 181.284 133.171 178.889 128.142 176.435C125.568 175.177 124.131 173.202 122.814 169.73C122.275 169.79 121.796 169.909 121.377 169.969Z" fill="#1B1C29"/>
<path d="M113.356 133.033C105.154 121.12 89.5297 115.613 77.497 108.788L71.5106 128.004C79.2929 134.949 86.7759 141.953 93.0018 150.394C99.0481 146.263 108.507 138.6 113.356 133.033Z" fill="#1B1C29"/>
<path d="M92.4032 147.46C92.2834 147.46 92.1637 147.4 92.044 147.281C91.8644 147.101 91.9243 146.802 92.1039 146.622C101.981 138.241 107.848 132.973 109.644 130.998C109.824 130.818 110.123 130.818 110.303 130.938C110.482 131.117 110.482 131.417 110.362 131.596C108.566 133.572 102.64 138.9 92.7624 147.281C92.6426 147.4 92.5229 147.46 92.4032 147.46Z" fill="white"/>
<path d="M124.61 172.962C123.233 173.441 122.036 174.22 121.078 175.297C120.839 175.596 121.258 176.015 121.497 175.716C122.395 174.758 123.532 173.98 124.79 173.561C125.089 173.381 124.969 172.843 124.61 172.962Z" fill="white"/>
<path d="M126.825 174.758C126.047 175.237 125.209 175.716 124.43 176.195C124.071 176.375 124.371 176.913 124.73 176.734C125.508 176.255 126.346 175.776 127.124 175.297C127.424 175.058 127.124 174.519 126.825 174.758Z" fill="white"/>
<path d="M110.901 147.041C109.943 147.041 109.165 146.502 108.806 145.664C108.626 145.305 108.147 145.604 108.267 145.964C108.686 146.981 109.764 147.64 110.901 147.64C111.26 147.64 111.26 147.041 110.901 147.041Z" fill="#1B1C29"/>
<path d="M108.387 189.425C109.28 189.425 110.003 188.701 110.003 187.809C110.003 186.916 109.28 186.192 108.387 186.192C107.494 186.192 106.771 186.916 106.771 187.809C106.771 188.701 107.494 189.425 108.387 189.425Z" fill="#1B1C29"/>
<path d="M116.828 189.425C117.72 189.425 118.444 188.701 118.444 187.809C118.444 186.916 117.72 186.192 116.828 186.192C115.935 186.192 115.211 186.916 115.211 187.809C115.211 188.701 115.935 189.425 116.828 189.425Z" fill="#1B1C29"/>
<path d="M125.209 189.425C126.101 189.425 126.825 188.701 126.825 187.809C126.825 186.916 126.101 186.192 125.209 186.192C124.316 186.192 123.592 186.916 123.592 187.809C123.592 188.701 124.316 189.425 125.209 189.425Z" fill="#1B1C29"/>
<path d="M133.65 189.425C134.542 189.425 135.266 188.701 135.266 187.809C135.266 186.916 134.542 186.192 133.65 186.192C132.757 186.192 132.033 186.916 132.033 187.809C132.033 188.701 132.757 189.425 133.65 189.425Z" fill="#1B1C29"/>
<path d="M59.418 107.95C51.516 117.828 43.554 127.226 32.9581 134.649C25.5948 139.858 16.9744 144.048 6.31857 146.862L9.49137 172.184C9.49137 172.184 11.8859 172.184 14.1009 166.976C16.3159 161.768 21.4043 160.93 35.0533 156.021C59.7772 147.041 69.8344 131.057 78.8739 112.919L59.418 107.95Z" fill="white"/>
<path d="M9.55123 172.663H9.13219L5.83966 146.562L6.19884 146.443C16.0764 143.868 24.7567 139.858 32.6588 134.29C43.4343 126.687 51.5758 116.989 58.999 107.651L59.1786 107.411L79.4725 112.619L79.2331 113.098C70.4929 130.698 60.5554 147.221 35.1132 156.44C32.7186 157.338 30.5635 158.056 28.6479 158.715C19.788 161.768 16.1363 163.085 14.4002 167.156C12.2451 172.603 9.67096 172.663 9.55123 172.663ZM6.85735 147.221L9.91042 171.705C10.6288 171.466 12.1853 170.448 13.6819 166.916C15.5975 162.486 19.369 161.169 28.4683 157.996C30.3839 157.338 32.4792 156.619 34.9336 155.722C59.7772 146.682 69.6548 130.579 78.2752 113.338L59.5976 108.549C52.1745 117.828 44.033 127.526 33.2574 135.128C25.2955 140.636 16.6751 144.587 6.85735 147.221Z" fill="#1B1C29"/>
<path d="M20.1472 160.032C18.6506 154.644 17.2138 149.256 15.6574 143.868C12.724 145.006 9.6111 146.024 6.31857 146.862L9.49137 172.184C9.49137 172.184 11.8859 172.184 14.1009 166.976C15.2383 164.342 17.0941 162.785 20.5064 161.289C20.3866 160.93 20.2669 160.451 20.1472 160.032Z" fill="#1B1C29"/>
<path d="M56.6044 150.094C68.0385 141.294 75.5814 125.73 81.7474 113.398L59.3582 108.01C52.833 116.151 46.2479 123.994 38.1663 130.638C42.6561 136.505 50.7976 145.545 56.6044 150.094Z" fill="#1B1C29"/>
<path d="M73.6058 128.843C73.546 128.843 73.4861 128.843 73.4262 128.783C73.1868 128.663 73.1269 128.424 73.2467 128.184L75.4616 123.934H75.761C75.761 123.934 77.7963 123.934 80.5501 122.677C80.7895 122.557 81.029 122.677 81.1487 122.916C81.2685 123.155 81.1487 123.395 80.9093 123.515C78.5147 124.592 76.7188 124.772 76.0004 124.832L74.0249 128.603C73.9052 128.783 73.7854 128.843 73.6058 128.843Z" fill="white"/>
<path d="M57.9214 146.383C57.8017 146.383 57.7419 146.323 57.6221 146.263C57.5024 146.143 45.6493 135.907 41.2194 129.8C41.0996 129.621 41.0996 129.321 41.3391 129.202C41.5187 129.082 41.818 129.082 41.9377 129.321C46.3677 135.368 58.101 145.485 58.2208 145.605C58.4004 145.784 58.4004 146.024 58.2806 146.263C58.1609 146.323 58.0412 146.383 57.9214 146.383Z" fill="white"/>
<path d="M18.052 164.342C17.154 163.444 16.1962 162.666 15.1186 162.007C14.8193 161.828 14.52 162.307 14.8193 162.546C15.837 163.205 16.7948 163.923 17.6329 164.821C17.8724 165 18.2914 164.581 18.052 164.342Z" fill="white"/>
<path d="M16.256 166.258C15.2383 165.719 14.2805 165.12 13.2628 164.581C12.9036 164.402 12.6043 164.881 12.9635 165.12C13.9812 165.659 14.939 166.258 15.9567 166.796C16.3159 166.976 16.6152 166.497 16.256 166.258Z" fill="white"/>
<path d="M45.5296 147.7C44.5119 148.238 43.8534 149.316 43.8534 150.453C43.8534 150.813 44.452 150.813 44.452 150.453C44.452 149.496 44.9908 148.658 45.8289 148.179C46.1282 148.059 45.8289 147.52 45.5296 147.7Z" fill="#1B1C29"/>
<path d="M2.07311 150.384C2.95614 150.253 3.56582 149.431 3.43487 148.548C3.30391 147.665 2.48191 147.055 1.59888 147.186C0.715843 147.317 0.106161 148.139 0.237117 149.022C0.368072 149.905 1.19008 150.515 2.07311 150.384Z" fill="#1B1C29"/>
<path d="M3.33162 158.702C4.21465 158.571 4.82433 157.749 4.69338 156.866C4.56242 155.983 3.74043 155.373 2.85739 155.504C1.97436 155.635 1.36467 156.457 1.49563 157.34C1.62658 158.223 2.44859 158.833 3.33162 158.702Z" fill="#1B1C29"/>
<path d="M4.52208 166.969C5.40511 166.838 6.0148 166.016 5.88384 165.133C5.75289 164.25 4.93089 163.64 4.04785 163.771C3.16482 163.902 2.55514 164.724 2.68609 165.607C2.81705 166.49 3.63905 167.1 4.52208 166.969Z" fill="#1B1C29"/>
<path d="M5.78053 175.286C6.66357 175.155 7.27325 174.333 7.14229 173.45C7.01134 172.567 6.18933 171.957 5.3063 172.088C4.42327 172.219 3.81359 173.041 3.94454 173.924C4.0755 174.807 4.8975 175.417 5.78053 175.286Z" fill="#1B1C29"/>
<path d="M124.67 51.6777C124.61 51.6777 124.49 51.6777 124.431 51.6777C123.413 51.6178 122.515 51.1988 121.856 50.4206C120.479 48.8641 120.599 46.5294 122.156 45.1525L131.135 37.1906C131.854 36.5321 132.871 36.1729 133.829 36.2328C134.847 36.2926 135.745 36.7117 136.403 37.4899C137.78 39.0464 137.66 41.3811 136.104 42.758L127.124 50.7199C126.466 51.3185 125.628 51.6777 124.67 51.6777ZM133.65 37.1307C132.931 37.1307 132.273 37.3702 131.794 37.8491L122.814 45.811C121.617 46.8287 121.557 48.6246 122.575 49.8219C123.054 50.3607 123.772 50.7199 124.55 50.7797C125.328 50.8396 126.047 50.6001 126.586 50.0614L135.565 42.0995C136.763 41.0818 136.822 39.2858 135.805 38.0885C135.326 37.5498 134.607 37.1906 133.829 37.1307C133.769 37.1307 133.709 37.1307 133.65 37.1307Z" fill="#1B1C29"/>
<path d="M110.846 29.2438L107.504 41.8583L125.847 46.7183L129.189 34.1038L110.846 29.2438Z" fill="#6045AF"/>
<path d="M134.667 27.1933L125.508 20.8477L135.146 17.3157L134.667 27.1933ZM127.424 21.0872L133.829 25.5171L134.128 18.6327L127.424 21.0872Z" fill="#1B1C29"/>
<path d="M96.6535 20.0096C96.5338 20.0096 96.4141 19.9497 96.3542 19.8898C96.1746 19.7103 96.1746 19.4109 96.3542 19.2313L105.214 10.4313C105.394 10.2517 105.693 10.2517 105.873 10.4313C106.052 10.6109 106.052 10.9102 105.873 11.0898L97.0127 19.8898C96.893 19.9497 96.7733 20.0096 96.6535 20.0096Z" fill="#1B1C29"/>
<path d="M149.633 7.85716C149.514 7.85716 149.394 7.79731 149.334 7.73744C149.154 7.55785 149.154 7.25853 149.334 7.07893L156.338 0.134694C156.518 -0.0448981 156.817 -0.0448981 156.997 0.134694C157.176 0.314287 157.176 0.613611 156.997 0.793203L149.992 7.73744C149.873 7.79731 149.753 7.85716 149.633 7.85716Z" fill="#1B1C29"/>
<path d="M99.7665 25.9361C99.6467 25.9361 99.527 25.8763 99.4672 25.8164C99.2876 25.6368 99.2876 25.3375 99.4672 25.1579L104.615 20.0694C104.795 19.8899 105.094 19.8899 105.274 20.0694C105.454 20.249 105.454 20.5483 105.274 20.7279L100.126 25.8164C100.006 25.8763 99.8862 25.9361 99.7665 25.9361Z" fill="#1B1C29"/>
<path d="M146.58 20.0096C146.46 20.0096 146.341 19.9498 146.281 19.8899C146.101 19.7103 146.101 19.411 146.281 19.2314L151.429 14.1429C151.609 13.9633 151.908 13.9633 152.088 14.1429C152.267 14.3225 152.267 14.6219 152.088 14.8014L146.939 19.8899C146.76 19.9498 146.7 20.0096 146.58 20.0096Z" fill="#1B1C29"/>
<path d="M144.006 7.85714C143.886 7.85714 143.767 7.79729 143.707 7.73743C143.527 7.55783 143.527 7.25851 143.707 7.07892L148.855 1.99047C149.035 1.81088 149.334 1.81088 149.514 1.99047C149.693 2.17006 149.693 2.46938 149.514 2.64898L144.365 7.73743C144.245 7.79729 144.126 7.85714 144.006 7.85714Z" fill="#1B1C29"/>
<path d="M146.64 34.8559L141.312 29.4082C141.133 29.2287 141.133 28.9293 141.312 28.7498C141.492 28.5702 141.791 28.5702 141.971 28.7498L146.46 33.2994L152.746 21.8654C152.866 21.6259 153.165 21.566 153.345 21.6858C153.584 21.8055 153.644 22.1048 153.524 22.2844L146.64 34.8559Z" fill="#1B1C29"/>
<path d="M123.054 36.9511C122.994 36.9511 122.994 36.9511 122.934 36.9511L113.296 34.6164C113.056 34.5565 112.937 34.3171 112.937 34.0776C112.996 33.8382 113.236 33.7184 113.475 33.7184L123.113 36.0531C123.353 36.113 123.473 36.3525 123.473 36.5919C123.413 36.7715 123.233 36.9511 123.054 36.9511Z" fill="white"/>
<path d="M122.455 39.5851C122.395 39.5851 122.395 39.5851 122.335 39.5851L117.486 38.3878C117.247 38.328 117.127 38.0885 117.127 37.8491C117.127 37.6096 117.426 37.4899 117.666 37.4899L122.515 38.6872C122.754 38.747 122.874 38.9865 122.874 39.2259C122.814 39.4654 122.635 39.5851 122.455 39.5851Z" fill="white"/>
<path d="M80.4304 72.5703C61.8725 85.8601 57.1432 97.1744 39.7826 96.8751C27.5105 96.6955 32.3595 100.587 32.3595 100.587C32.3595 100.587 29.3064 102.502 31.6411 104.179C31.6411 104.179 29.4262 106.813 32.0602 107.89C33.3173 108.429 35.4724 108.908 38.286 109.147C37.3282 109.566 36.2507 110.285 36.4901 111.482C36.8493 113.278 43.0153 111.482 46.9065 109.028C47.9242 108.908 48.9418 108.788 49.9595 108.608C58.4004 107.112 67.4997 103.64 77.078 90.7091C86.5964 77.7186 80.4304 72.5703 80.4304 72.5703Z" fill="white"/>
<path d="M38.0466 112.679C37.5677 112.679 37.2085 112.619 36.9092 112.5C36.3704 112.26 36.1908 111.901 36.1309 111.602C35.9513 110.823 36.2507 110.105 36.969 109.506C34.9336 109.267 33.1377 108.848 31.9404 108.369C31.1023 108.01 30.5636 107.471 30.4438 106.753C30.2044 105.795 30.7432 104.777 31.1023 104.298C30.6234 103.819 30.384 103.34 30.384 102.742C30.4438 101.784 31.2221 100.946 31.7608 100.527C31.3418 100.048 30.8629 99.2696 31.1622 98.4316C31.701 96.9349 34.5745 96.2765 39.9024 96.3962C51.6956 96.5758 57.4425 91.4873 66.1827 83.7648C70.0739 80.2927 74.5038 76.3417 80.3106 72.2111L80.61 72.0315L80.8494 72.271C81.0889 72.5104 87.195 77.8383 77.5569 91.0084C67.6793 104.478 58.1609 107.711 50.199 109.087C49.2412 109.267 48.2235 109.387 47.2058 109.506C44.3323 111.183 40.3214 112.679 38.0466 112.679ZM38.8847 97.2942C33.1377 97.2942 32.0602 98.3118 31.9404 98.7908C31.7609 99.3295 32.4194 100.048 32.6588 100.287L33.1377 100.706L32.5989 101.066C32.2398 101.305 31.2221 102.083 31.2221 102.862C31.2221 103.221 31.4615 103.58 31.8806 103.939L32.2996 104.238L32.0003 104.598C31.7608 104.897 31.1023 105.915 31.2819 106.633C31.4017 107.052 31.701 107.351 32.2996 107.591C33.6765 108.189 35.8915 108.608 38.4058 108.848L40.2017 108.968L38.5854 109.686C37.4479 110.165 36.9092 110.823 37.0887 111.482C37.0887 111.542 37.1486 111.602 37.3282 111.721C38.765 112.32 43.4942 110.823 46.7867 108.728L46.8466 108.668H46.9663C47.984 108.549 49.0017 108.429 50.0194 108.249C57.8017 106.872 67.0807 103.7 76.8385 90.5295C84.8603 79.6343 81.5079 74.426 80.5501 73.2886C74.9827 77.2995 70.6725 81.1309 66.8412 84.5431C58.2806 92.1458 52.1146 97.5935 39.9622 97.4139C39.4833 97.2942 39.184 97.2942 38.8847 97.2942Z" fill="#1B1C29"/>
<path d="M68.9365 99.6887C71.6304 97.354 74.3242 94.4207 77.078 90.6492C86.5964 77.7186 80.4304 72.5703 80.4304 72.5703C72.4685 78.2574 67.0807 83.5853 62.112 87.7758C64.3269 91.7867 66.6018 95.7976 68.9365 99.6887Z" fill="white"/>
<path d="M68.8167 100.407L68.5174 99.9282C66.2426 96.0968 63.9677 92.086 61.7528 88.0152L61.5732 87.7159L61.8725 87.4764C63.2494 86.339 64.6262 85.0819 66.1228 83.7648C70.014 80.2927 74.444 76.3417 80.2508 72.2111L80.5501 72.0315L80.7896 72.271C81.029 72.5104 87.1351 77.8383 77.497 91.0084C74.863 94.6003 72.1093 97.6533 69.2956 100.108L68.8167 100.407ZM62.7106 87.8955C64.8058 91.6669 66.9011 95.4383 69.0562 99.0302C71.6902 96.6955 74.2644 93.7622 76.7188 90.4098C84.7406 79.4547 81.3882 74.3063 80.4304 73.1689C74.863 77.1798 70.5528 81.0111 66.7215 84.4234C65.2848 85.6805 63.9677 86.8179 62.7106 87.8955Z" fill="#1B1C29"/>
<path d="M44.7514 104.358C42.6561 103.819 40.8003 105.615 41.2194 107.71C40.9201 107.89 40.6806 108.07 40.3813 108.189C40.0221 108.369 40.3813 108.908 40.6806 108.728C41.0398 108.549 41.3391 108.309 41.6983 108.13C41.818 108.07 41.8779 107.89 41.818 107.77C41.3391 106.034 42.7759 104.538 44.5119 104.957C44.9908 105.017 45.1105 104.418 44.7514 104.358Z" fill="#1B1C29"/>
<path d="M37.2085 104.059C35.4126 103.819 33.6166 103.819 31.8207 103.999C31.4615 104.059 31.4615 104.657 31.8207 104.598C33.6166 104.418 35.4126 104.418 37.2085 104.657C37.5677 104.717 37.5677 104.119 37.2085 104.059Z" fill="#1B1C29"/>
<path d="M37.9867 100.347C36.1908 100.108 34.3949 100.108 32.5989 100.287C32.2398 100.347 32.2398 100.946 32.5989 100.886C34.3949 100.706 36.1908 100.706 37.9867 100.946C38.3459 100.946 38.3459 100.347 37.9867 100.347Z" fill="#1B1C29"/>
<path d="M55.2874 108.249C63.0698 99.8683 67.2004 92.4451 70.5528 84.3036C75.8807 71.5525 90.4277 64.2491 94.9773 79.8138C99.527 95.3785 91.5651 117.827 91.5651 117.827C91.5651 117.827 59.4779 112.44 55.2874 108.249Z" fill="white"/>
<path d="M91.8644 118.366L91.5052 118.306C90.1882 118.067 59.2385 112.859 54.9881 108.608L54.6888 108.309L54.9881 108.01C63.429 98.9703 67.2603 91.188 70.1936 84.1839C73.546 76.1022 80.5501 70.2954 86.4168 70.5947C89.3501 70.7743 93.361 72.4506 95.5161 79.754C100.126 95.2588 92.1637 117.828 92.1039 118.067L91.8644 118.366ZM55.946 108.249C60.7949 112.021 87.7937 116.75 91.2658 117.349C92.2236 114.415 98.7488 94.1812 94.5583 79.9934C93.0018 74.6655 90.1284 71.7322 86.2971 71.4927C80.7896 71.1934 74.1446 76.8206 70.9718 84.5431C68.0984 91.4873 64.2671 99.2098 55.946 108.249Z" fill="#1B1C29"/>
<path d="M93.6603 54.192C91.2658 50.0614 86.297 48.445 82.5855 50.6002C78.8739 52.7553 77.7963 57.8437 80.1909 62.0342C80.1909 62.0342 80.1909 62.0342 80.1909 62.0941C79.8317 62.3335 79.4725 62.573 79.2331 62.8723C77.4372 64.7281 78.0957 67.1227 80.0712 67.7812C81.8072 68.3199 84.1419 67.9607 85.3991 66.1049C87.3746 66.6437 89.4698 66.524 91.2658 65.626C96.7733 62.992 96.0549 58.3226 93.6603 54.192Z" fill="white"/>
<path d="M81.6277 68.4397C81.029 68.4397 80.4902 68.3199 79.9515 68.2002C78.8739 67.841 78.1555 67.0628 77.8562 65.9853C77.5569 64.788 77.9759 63.5308 78.9338 62.5131C79.1134 62.3335 79.3528 62.0941 79.6521 61.9145C77.3773 57.6043 78.5147 52.3961 82.346 50.1811C84.2617 49.0437 86.5365 48.8641 88.7515 49.5825C90.9665 50.3008 92.8222 51.8573 94.0794 53.9525C95.8154 56.9458 96.3542 59.5199 95.6957 61.7349C95.1569 63.5308 93.7202 64.9676 91.5052 66.0451C89.7093 66.8832 87.6141 67.1227 85.6385 66.6437C84.561 67.9009 83.0644 68.4397 81.6277 68.4397ZM86.1773 50.0614C84.98 50.0614 83.8426 50.3607 82.8249 50.9593C79.3528 52.9947 78.3351 57.8437 80.61 61.7349L80.8494 62.0941L80.4902 62.3934C80.131 62.6329 79.8317 62.8723 79.5923 63.1117C78.814 63.89 78.5147 64.8478 78.7542 65.7458C78.9338 66.4642 79.4725 67.0628 80.2508 67.3022C81.7474 67.7811 83.9025 67.5417 85.0998 65.8056L85.2794 65.5662L85.5787 65.626C87.4345 66.1648 89.41 65.9852 91.146 65.207C93.1216 64.2492 94.3787 62.9921 94.8576 61.4954C95.4563 59.5798 94.9175 57.1852 93.361 54.4315C92.2236 52.5158 90.5474 51.1389 88.5719 50.4804C87.6739 50.1811 86.9556 50.0614 86.1773 50.0614Z" fill="#1B1C29"/>
<path d="M88.3989 57.9029C88.7267 57.8599 88.9576 57.5594 88.9146 57.2315C88.8717 56.9037 88.5711 56.6728 88.2433 56.7158C87.9155 56.7588 87.6846 57.0594 87.7275 57.3872C87.7705 57.715 88.0711 57.9459 88.3989 57.9029Z" fill="#1B1C29"/>
<path d="M93.361 57.3049C92.5229 56.2274 91.565 55.3294 90.4875 54.5512C90.1882 54.3117 89.829 54.7906 90.1283 55.0301C91.2059 55.8083 92.1038 56.6464 92.8821 57.6641C93.1215 57.9634 93.6004 57.6043 93.361 57.3049Z" fill="#1B1C29"/>
<path d="M87.6141 51.1988C86.4168 52.7553 80.2508 56.6464 83.0644 59.6396C83.7827 60.4179 84.4412 60.6573 83.9025 61.5553C83.244 62.3934 82.346 61.5553 82.346 61.5553C81.1487 61.9743 80.0113 62.573 79.4127 63.2315C75.9405 60.777 75.6412 57.3049 76.9582 56.0478C76.9582 56.0478 74.1446 47.8464 79.1732 48.1457C79.1732 48.1457 79.9514 40.3634 86.3569 42.8178C92.7624 45.2124 87.6141 51.1988 87.6141 51.1988Z" fill="#1B1C29"/>
<path d="M83.5433 63.6505C82.2263 63.1716 80.7297 63.6505 79.9514 64.9077C79.7719 65.207 80.1909 65.626 80.4304 65.2669C81.029 64.309 82.2263 63.8301 83.3038 64.2492C83.663 64.309 83.9025 63.7703 83.5433 63.6505Z" fill="#1B1C29"/>
<path d="M83.0045 87.8356C78.6943 83.1662 83.7229 75.9825 89.6495 78.3172C96.8332 81.1308 106.052 79.7539 110.243 71.7322C114.733 63.1117 114.313 53.2341 119.941 53.4736C123.233 53.5933 125.089 54.9702 127.843 51.8573C129.339 50.1811 131.554 51.4981 131.554 52.1566C131.554 52.2763 131.614 52.3961 131.734 52.3961C132.392 52.5756 134.009 53.1144 133.59 54.611C133.59 54.611 135.026 55.509 134.428 56.826C133.829 58.143 132.033 61.5553 127.962 62.3335C123.892 63.1117 125.269 83.6451 111.979 91.9662C106.352 95.4982 90.5474 95.9173 83.1841 88.1349C83.1841 88.0152 83.1243 87.9553 83.0045 87.8356Z" fill="white"/>
<path d="M100.844 94.7798C94.4984 94.7798 87.3147 93.0438 82.9447 88.4343C82.8848 88.3744 82.7651 88.2546 82.7052 88.1948C80.6099 85.9199 80.3705 82.807 82.1066 80.2927C83.5433 78.1975 86.5365 76.641 89.8889 77.958C96.5937 80.5921 105.693 79.6941 109.943 71.5526C111.56 68.3798 112.577 65.0872 113.415 62.1539C114.912 57.0056 116.109 52.9348 120.001 53.0545C120.779 53.1144 121.497 53.1743 122.156 53.294C124.251 53.5933 125.628 53.7729 127.603 51.5579C128.441 50.6001 129.639 50.3008 130.836 50.7797C131.435 51.0192 131.973 51.4382 132.093 51.977C132.692 52.1566 133.53 52.5158 133.949 53.2341C134.128 53.5933 134.248 53.9525 134.188 54.3716C134.787 54.8505 135.505 55.8083 134.907 56.9457C132.991 61.0165 130.177 62.2736 128.082 62.6927C126.825 62.9321 126.047 66.1049 125.149 69.7566C123.413 76.5811 120.779 86.9376 112.278 92.2655C109.943 93.7621 105.633 94.7798 100.844 94.7798ZM87.3746 78.3172C85.3392 78.3172 83.7229 79.5145 82.8848 80.7716C81.7474 82.3879 81.2086 85.1417 83.4236 87.5363C83.4834 87.5962 83.6032 87.7159 83.663 87.7757C91.0862 95.5581 106.591 94.8397 111.919 91.4873C120.12 86.339 122.694 76.2219 124.371 69.5172C125.508 65.0872 126.226 62.1539 128.022 61.7947C130.716 61.3158 132.752 59.5199 134.188 56.5865C134.607 55.6886 133.65 55.0301 133.53 54.9702L133.23 54.7906L133.35 54.4913C133.41 54.192 133.41 53.9525 133.29 53.7131C132.991 53.1743 132.153 52.9348 131.854 52.8151C131.554 52.7552 131.315 52.4559 131.315 52.0967C131.255 52.0369 130.896 51.6178 130.237 51.4981C129.758 51.3784 129.04 51.4382 128.382 52.1566C126.107 54.7307 124.251 54.4314 122.156 54.1321C121.497 54.0124 120.839 53.9525 120.06 53.8927C116.888 53.7729 115.81 57.3648 114.373 62.3335C113.475 65.3267 112.518 68.6791 110.841 71.9117C106.352 80.5322 96.7134 81.49 89.6494 78.7363C88.7515 78.4369 88.0331 78.3172 87.3746 78.3172Z" fill="#1B1C29"/>
<path d="M131.135 55.3892C130.477 55.2695 129.938 55.6287 129.519 56.0477C129.22 56.3471 128.98 56.7063 128.801 57.0654C128.382 57.7838 127.962 57.1852 127.304 56.9457C125.568 56.2273 123.952 56.4668 122.515 57.6042C122.216 57.8437 122.635 58.2627 122.934 58.0232C124.67 56.5865 126.526 57.1253 128.322 58.143C128.441 58.2028 128.621 58.2029 128.681 58.0831C129.22 57.245 129.579 56.4069 130.118 56.0477C130.836 55.5688 131.614 55.8083 131.674 56.9457C131.734 57.9035 131.075 60.358 128.441 60.9566C128.082 61.0165 128.202 61.6151 128.621 61.5552C130.357 61.3158 131.435 59.9389 132.093 58.4423C132.512 57.5443 132.512 55.6886 131.135 55.3892Z" fill="#1B1C29"/>
<path d="M130.297 52.7552C128.86 53.2341 127.723 54.1321 126.825 55.3293C126.586 55.6287 127.124 55.928 127.364 55.6287C128.142 54.5511 129.22 53.7729 130.477 53.3538C130.776 53.2341 130.656 52.6355 130.297 52.7552Z" fill="#1B1C29"/>
<path d="M132.273 54.611C131.854 54.8505 131.435 55.0899 131.016 55.3294C130.656 55.509 130.956 56.0478 131.315 55.8682C131.734 55.6287 132.153 55.3892 132.572 55.1498C132.931 54.9702 132.632 54.4314 132.273 54.611Z" fill="#1B1C29"/>
<path d="M105.513 94.4805C105.334 94.4805 105.094 94.3608 105.094 94.1213L101.922 79.694C101.862 79.4546 102.041 79.2151 102.281 79.1553C102.52 79.0954 102.76 79.275 102.82 79.5145L105.992 93.9417C106.052 94.1811 105.873 94.4206 105.633 94.4805C105.573 94.4805 105.573 94.4805 105.513 94.4805Z" fill="#1B1C29"/>
<path d="M102.939 94.7798C102.76 94.7798 102.52 94.6601 102.52 94.4206L99.4073 79.694C99.3474 79.4546 99.527 79.2151 99.7665 79.1553C100.006 79.0954 100.245 79.275 100.305 79.5145L103.418 94.241C103.478 94.4805 103.298 94.7199 103.059 94.7798C102.999 94.7798 102.939 94.7798 102.939 94.7798Z" fill="#1B1C29"/>
<path d="M66.7813 92.6846C66.6018 92.6846 66.482 92.6247 66.3623 92.4451L63.5487 87.0574C63.429 86.8179 63.5487 86.5784 63.7283 86.4587C63.9677 86.339 64.2072 86.4587 64.3269 86.6383L67.1405 92.0261C67.2603 92.2656 67.1405 92.505 66.9609 92.6247C66.9609 92.6846 66.9011 92.6846 66.7813 92.6846Z" fill="#1B1C29"/>
<path d="M44.5718 104.358C42.4765 103.819 40.6207 105.615 41.0398 107.71C40.7405 107.89 40.501 108.07 40.2017 108.189C39.8425 108.369 40.2017 108.908 40.501 108.728C40.8602 108.549 41.1595 108.309 41.5187 108.13C41.6384 108.07 41.6983 107.89 41.6384 107.77C41.1595 106.034 42.5963 104.538 44.3323 104.957C44.8112 105.017 44.9908 104.418 44.5718 104.358Z" fill="#1B1C29"/>
</svg>
