<svg xmlns="http://www.w3.org/2000/svg" width="325" height="123" viewBox="0 0 325 123">
    <g fill="none" fill-rule="evenodd" transform="translate(-7 -5)">
        <g fill="#D9E4EA" opacity=".509" transform="translate(9 5)">
            <rect width="67" height="13" y="76" rx="6.5"/>
            <rect width="116" height="13" x="55" y="30" rx="6.5"/>
            <rect width="188" height="18" x="8" rx="8"/>
            <rect width="67" height="13" x="209" y="2" rx="6.5"/>
            <rect width="109" height="18" x="185" y="23" rx="8"/>
            <rect width="106" height="18" x="197" y="80" rx="8"/>
            <rect width="162" height="18" x="161" y="104" rx="8"/>
            <rect width="222" height="13" x="39" y="47" rx="6.5"/>
        </g>
        <g fill="#E0E6EA">
            <path d="M212 82.951h31V127h-31zM245 69.049h31V127h-31z"/>
            <g>
                <path d="M16 104.975h31V127H16z"/>
                <path d="M35 76h31v51H35z"/>
            </g>
        </g>
        <g fill="#FFF" stroke="#B7C7CF" stroke-width="2">
            <path d="M212 101h51v25h-51zM208 96h59v5h-59z"/>
        </g>
        <path fill="#B7C7CF" d="M49 90h31v37H49z"/>
        <path fill="#A5B3BA" fill-rule="nonzero" d="M56.75 94.625h3.1v3.083h-3.1zM67.6 94.625h3.1v3.083h-3.1zM56.75 106.958h3.1v3.083h-3.1zM67.6 106.958h3.1v3.083h-3.1zM56.75 118.521h3.1v3.083h-3.1zM67.6 118.521h3.1v3.083h-3.1z"/>
        <path fill="#B7C7CF" d="M71 65h40v3.861H71z"/>
        <path fill="#FFF" stroke="#B7C7CF" stroke-width="2" d="M75.615 69.633h30.769V126H75.615z"/>
        <path fill="#B7C7CF" fill-rule="nonzero" d="M83.308 77.354h3.846v3.861h-3.846zM94.846 77.354h3.846v3.861h-3.846zM83.308 88.937h3.846v3.861h-3.846zM94.846 88.937h3.846v3.861h-3.846zM83.308 100.519h3.846v3.861h-3.846zM94.846 100.519h3.846v3.861h-3.846zM83.308 112.101h3.846v3.861h-3.846zM94.846 112.101h3.846v3.861h-3.846z"/>
        <g stroke="#8459B9">
            <path fill="#FFF" d="M88.925 118H72c.627 4.2 2.194 6.9 4.701 8.1 2.508 1.2 61.747 1.2 177.717 0 4.388-1.2 6.582-3.9 6.582-8.1h-20.687"/>
            <path fill="#FFF" d="M88.5 38.5h161v80h-161z"/>
            <path fill="#EBF1F4" d="M94.5 43.5h149v70h-149z" opacity=".8"/>
            <path d="M147 119c.667 2 1.667 3 3 3h40c2-.667 3-1.667 3-3h-46z"/>
        </g>
        <g fill="#B7C7CF" fill-rule="nonzero">
            <path d="M190.94 104.268l2.828-2.829 4.242 4.243-2.828 2.828z"/>
            <path d="M190.06 106.56l-2.303-8.303 8.304 2.304z"/>
        </g>
        <rect width="24" height="6" x="157" y="99" fill="#8459B9" fill-rule="nonzero" rx="3"/>
        <g fill="#B7C7CF" transform="translate(149 76)">
            <rect width="27" height="5" y="9" rx="2.5"/>
            <rect width="39" height="5" rx="2.5"/>
            <rect width="10" height="5" x="29" y="9" rx="2.5"/>
        </g>
        <g>
            <path fill="#FFF" fill-rule="nonzero" d="M155.683 32.756h25.366l7.61 11.415-20.293 24.097-20.293-24.097z" opacity=".896"/>
            <path fill="#37CC9A" d="M154.812 34.8c-1.79 3.292-3.41 6.266-5.108 9.384h10.659c-1.881-3.18-3.621-6.124-5.55-9.383zm33.377 9.403l-5.163-9.402-5.533 9.402h10.696zm-11.842-.855c1.853-3.12 3.557-5.99 5.356-9.015h-11.339l5.983 9.015zm-20.232-9.058l5.392 9.054 6.004-9.054h-11.396zm6.505 9.885h12.593l-6.288-9.482-6.305 9.482zm-12.485 1.61c5.616 6.235 11.037 12.253 16.457 18.273l.33-.237c-.768-2.432-1.526-4.868-2.307-7.296-1.047-3.264-2.114-6.523-3.168-9.783-.261-.81-.707-1.195-1.651-1.17-2.735.07-5.47.018-8.206.03-.38.002-.76.092-1.455.182zm20.806 18.034l.395.166 16.526-18.376c-3.82 0-7.138-.021-10.457.04-.306.004-.761.488-.88.839-1.525 4.533-3.009 9.08-4.485 13.63-.396 1.223-.735 2.466-1.099 3.701zm-8.429-18.131l6.22 19.176.405-.048 6.188-19.128h-12.813zm6.616-12.922c4.31 0 8.622.013 12.931-.01.94-.005 1.556.21 2.054 1.154 1.851 3.514 3.86 6.946 5.71 10.461.191.366-.121 1.218-.466 1.608-3.423 3.889-6.898 7.73-10.366 11.577-2.961 3.287-5.968 6.533-8.877 9.865-.913 1.048-1.456 1.014-2.367-.004-6.404-7.145-12.872-14.232-19.268-21.387-.358-.4-.533-1.376-.3-1.833 1.828-3.577 3.724-7.125 5.748-10.594.3-.516 1.388-.788 2.118-.8 4.36-.073 8.722-.037 13.083-.037z"/>
            <path stroke="#37CC9A" stroke-linecap="square" d="M152.512 25.78l-8.878-8.878M185.488 25.78l8.878-8.878M169 24.512v-8.878"/>
        </g>
        <path fill="#B7C7CF" d="M13.277 39.396l-4.69 2.032 4.019 3.14.67-5.172zM23.09 52.77l.822-5.065-4.854 1.915 4.032 3.15zm-4.213-3.81c1.618-.63 3.105-1.21 4.675-1.82l-4.275-3.34-.4 5.16zm-4.959-9.373l-.634 5.001 4.93-1.645-4.296-3.356zm-.459 5.642l4.747 3.709.423-5.426-5.17 1.717zm-5.18-3.07L9.1 53.894l.194.008c.426-1.143.858-2.284 1.279-3.43.566-1.539 1.124-3.081 1.687-4.62.14-.383.086-.66-.278-.928-1.051-.779-2.067-1.604-3.102-2.405-.144-.111-.314-.19-.602-.36zm2.531 12.926l.1.18 11.642-2.061c-1.44-1.125-2.684-2.11-3.953-3.065-.117-.088-.431-.04-.58.058a629.655 629.655 0 0 0-5.704 3.816c-.51.345-1.004.714-1.505 1.072zm2.163-9.317l-3.303 9.06.166.102 7.967-5.389-4.83-3.773zm6.3-2.923c1.625 1.27 3.246 2.544 4.877 3.805.356.275.525.538.434 1.04-.336 1.87-.59 3.755-.928 5.625-.036.194-.404.423-.65.469-2.435.458-4.876.882-7.317 1.311-2.084.367-4.174.705-6.251 1.105-.653.126-.848-.047-.892-.7-.31-4.579-.66-9.156-.964-13.736-.017-.257.204-.676.427-.78 1.743-.81 3.502-1.589 5.287-2.3.265-.106.755.111 1.034.322 1.665 1.256 3.299 2.555 4.942 3.84zM306.375 11.236c-.529 2.038-1.007 3.88-1.51 5.81l5.812-1.448-4.302-4.362zm19.475.59L321.757 7.4l-1.738 5.878 5.831-1.454zm-6.572 1.143l1.694-5.643-6.181 1.541 4.487 4.102zm-12.262-2.188l4.17 4.203 2.043-5.752-6.213 1.549zm4.89 4.505l6.866-1.712-4.717-4.315-2.149 6.027zm-6.588 2.575l11.457 7.725.147-.174c-.75-1.221-1.493-2.446-2.25-3.664-1.014-1.637-2.039-3.269-3.056-4.903-.253-.406-.548-.555-1.06-.414-1.481.41-2.98.754-4.47 1.133-.206.052-.401.153-.768.297zm13.795 7.004l.238.037 6.512-12.265c-2.082.519-3.895.958-5.696 1.443-.166.044-.348.37-.365.577-.216 2.679-.407 5.36-.593 8.04-.05.721-.065 1.445-.096 2.168zm-7.06-8.74l5.998 9.61.214-.081.773-11.27-6.985 1.741zm1.85-7.944c2.35-.586 4.703-1.165 7.05-1.763.511-.13.876-.097 1.276.35 1.487 1.664 3.049 3.262 4.535 4.927.154.173.1.68-.035.94-1.338 2.586-2.71 5.152-4.078 7.721-1.168 2.194-2.366 4.373-3.499 6.585-.355.696-.656.75-1.291.32-4.463-3.025-8.953-6.01-13.413-9.041-.249-.17-.477-.678-.412-.959.51-2.199 1.062-4.39 1.694-6.557.094-.322.65-.619 1.046-.724 2.366-.633 4.75-1.206 7.127-1.799z"/>
        <path fill="#858C8F" d="M53.708 33.575l-4.668-1.792.717-1.867 4.668 1.792 1.792-4.668 1.867.717-1.792 4.668 4.668 1.792-.717 1.867-4.668-1.792-1.792 4.668-1.867-.717 1.792-4.668zM285.189 73.842l.868-4.924 1.97.347-.869 4.924 4.924.868-.347 1.97-4.924-.869-.868 4.924-1.97-.347.869-4.924-4.924-.868.347-1.97 4.924.869z"/>
    </g>
</svg>
