<svg width="352" height="127" viewBox="0 0 352 127" fill="none" xmlns="http://www.w3.org/2000/svg">
<g id="ilustra&#195;&#167;&#195;&#163;o">
<path id="Line 3" d="M38.5 125.5H276.5" stroke="#65A300" stroke-width="2" stroke-linecap="square"/>
<path id="Line 2" d="M21.5 125.5H33.5" stroke="#65A300" stroke-width="2" stroke-linecap="square"/>
<path id="Line 2 Copy" d="M283.5 125.25H303.5" stroke="#65A300" stroke-width="2" stroke-linecap="square"/>
<g id="nuvens">
<path id="Rectangle Copy 6" opacity="0.509431" fill-rule="evenodd" clip-rule="evenodd" d="M7 90.5C7 86.9101 9.91015 84 13.5 84H67.5C71.0899 84 74 86.9101 74 90.5V90.5C74 94.0899 71.0899 97 67.5 97H13.5C9.91015 97 7 94.0899 7 90.5V90.5Z" fill="#CDCDD0"/>
<rect id="Rectangle Copy 3" opacity="0.509431" x="25" y="23" width="121" height="18" rx="8" fill="#CDCDD0"/>
<rect id="Rectangle Copy 10" opacity="0.509431" x="175" y="19" width="121" height="18" rx="8" fill="#CDCDD0"/>
<path id="Rectangle Copy 5" opacity="0.509431" fill-rule="evenodd" clip-rule="evenodd" d="M184 53C184 48.5817 187.582 45 192 45H344C348.418 45 352 48.5817 352 53V55C352 59.4183 348.418 63 344 63H192C187.582 63 184 59.4183 184 55V53Z" fill="#CDCDD0"/>
<path id="Rectangle Copy 7" opacity="0.509431" fill-rule="evenodd" clip-rule="evenodd" d="M204 88C204 83.5817 207.582 80 212 80H302C306.418 80 310 83.5817 310 88V90C310 94.4183 306.418 98 302 98H212C207.582 98 204 94.4183 204 90V88Z" fill="#CDCDD0"/>
<path id="Rectangle Copy 8" opacity="0.509431" fill-rule="evenodd" clip-rule="evenodd" d="M128 116C128 111.582 131.582 108 136 108H282C286.418 108 290 111.582 290 116V118C290 122.418 286.418 126 282 126H136C131.582 126 128 122.418 128 118V116Z" fill="#CDCDD0"/>
<path id="Rectangle Copy 4" opacity="0.509431" fill-rule="evenodd" clip-rule="evenodd" d="M20 63.5C20 59.9101 22.9101 57 26.5 57H235.5C239.09 57 242 59.9101 242 63.5V63.5C242 67.0899 239.09 70 235.5 70H26.5C22.9102 70 20 67.0899 20 63.5V63.5Z" fill="#CDCDD0"/>
<path id="Rectangle Copy 9" opacity="0.509431" fill-rule="evenodd" clip-rule="evenodd" d="M0 6.5C0 2.91015 2.91015 0 6.5 0H215.5C219.09 0 222 2.91015 222 6.5V6.5C222 10.0899 219.09 13 215.5 13H6.5C2.91015 13 0 10.0899 0 6.5V6.5Z" fill="#CDCDD0"/>
</g>
<g id="computador">
<g id="Path 5">
<path fill-rule="evenodd" clip-rule="evenodd" d="M89.9254 117H73C73 117 73.9403 123.3 77.7015 125.1C81.4627 126.9 255.418 125.1 255.418 125.1C255.418 125.1 262 123.3 262 117H241.313" fill="white"/>
<path d="M89.9254 117H73C73 117 73.9403 123.3 77.7015 125.1C81.4627 126.9 255.418 125.1 255.418 125.1C255.418 125.1 262 123.3 262 117H241.313" stroke="#8459B9"/>
</g>
<rect id="Rectangle 4" x="89.5" y="36.5" width="161" height="81" fill="white" stroke="#8459B9"/>
<rect id="Rectangle 3" opacity="0.7" x="95.5" y="41.5" width="149" height="71" fill="#F2F2F3" stroke="#8459B9"/>
<path id="Oval 2" fill-rule="evenodd" clip-rule="evenodd" d="M158 79C159.105 79 160 78.1046 160 77C160 75.8954 159.105 75 158 75C156.895 75 156 75.8954 156 77C156 78.1046 156.895 79 158 79Z" fill="#6045AF"/>
<path id="Oval 2 Copy" fill-rule="evenodd" clip-rule="evenodd" d="M184 79C185.105 79 186 78.1046 186 77C186 75.8954 185.105 75 184 75C182.895 75 182 75.8954 182 77C182 78.1046 182.895 79 184 79Z" fill="#6045AF"/>
<path id="Line 4" d="M164.5 90.5H176.5" stroke="#6045AF" stroke-linecap="square"/>
</g>
<g id="folha">
<path id="Path 2" d="M152 51.5H151.804L151.66 51.6336L137.66 64.6336L137.5 64.782V65V112V112.5H138H196H196.5V112H196C196.5 112 196.5 112 196.5 111.999V111.997V111.994V111.99V111.984V111.978V111.969V111.96V111.95V111.938V111.925V111.911V111.896V111.879V111.861V111.842V111.822V111.801V111.779V111.755V111.73V111.704V111.677V111.649V111.62V111.589V111.558V111.525V111.491V111.456V111.42V111.383V111.345V111.305V111.265V111.223V111.18V111.137V111.092V111.046V110.999V110.951V110.902V110.852V110.801V110.748V110.695V110.641V110.586V110.529V110.472V110.414V110.354V110.294V110.233V110.17V110.107V110.043V109.977V109.911V109.844V109.776V109.707V109.636V109.565V109.493V109.42V109.347V109.272V109.196V109.119V109.042V108.963V108.884V108.804V108.723V108.641V108.558V108.474V108.389V108.304V108.217V108.13V108.042V107.953V107.863V107.772V107.681V107.588V107.495V107.401V107.306V107.21V107.114V107.017V106.919V106.82V106.72V106.62V106.519V106.417V106.314V106.21V106.106V106.001V105.895V105.789V105.681V105.573V105.465V105.355V105.245V105.134V105.022V104.91V104.797V104.683V104.569V104.454V104.338V104.221V104.104V103.986V103.868V103.749V103.629V103.509V103.387V103.266V103.143V103.02V102.897V102.772V102.648V102.522V102.396V102.269V102.142V102.014V101.886V101.757V101.627V101.497V101.366V101.235V101.103V100.97V100.837V100.704V100.57V100.435V100.3V100.164V100.028V99.8914V99.7542V99.6165V99.4783V99.3396V99.2004V99.0607V98.9205V98.7799V98.6388V98.4972V98.3551V98.2126V98.0697V97.9263V97.7824V97.6381V97.4934V97.3483V97.2027V97.0567V96.9103V96.7635V96.6163V96.4686V96.3206V96.1722V96.0234V95.8743V95.7247V95.5748V95.4245V95.2739V95.1229V94.9716V94.8199V94.6678V94.5155V94.3627V94.2097V94.0564V93.9027V93.7487V93.5944V93.4398V93.2849V93.1297V92.9742V92.8185V92.6624V92.5061V92.3495V92.1927V92.0356V91.8782V91.7206V91.5627V91.4046V91.2463V91.0877V90.9289V90.7699V90.6107V90.4513V90.2916V90.1317V89.9717V89.8115V89.651V89.4904V89.3296V89.1687V89.0075V88.8462V88.6848V88.5232V88.3614V88.1995V88.0375V87.8753V87.713V87.5506V87.388V87.2253V87.0626V86.8997V86.7367V86.5736V86.4104V86.2472V86.0838V85.9204V85.7569V85.5934V85.4298V85.2661V85.1024V84.9386V84.7748V84.6109V84.447V84.2831V84.1191V83.9552V83.7912V83.6272V83.4632V83.2992V83.1352V82.9713V82.8073V82.6434V82.4794V82.3156V82.1517V81.9879V81.8241V81.6604V81.4967V81.3331V81.1695V81.0061V80.8427V80.6793V80.5161V80.3529V80.1898V80.0269V79.864V79.7012V79.5386V79.376V79.2136V79.0513V78.8891V78.7271V78.5652V78.4035V78.2419V78.0804V77.9191V77.758V77.5971V77.4363V77.2757V77.1153V76.955V76.795V76.6352V76.4755V76.3161V76.1569V75.9979V75.8391V75.6806V75.5222V75.3642V75.2063V75.0487V74.8914V74.7343V74.5775V74.4209V74.2646V74.1086V73.9528V73.7974V73.6422V73.4873V73.3328V73.1785V73.0245V72.8709V72.7176V72.5645V72.4119V72.2595V72.1075V71.9558V71.8045V71.6535V71.5029V71.3527V71.2028V71.0533V70.9041V70.7554V70.607V70.459V70.3114V70.1643V70.0175V69.8711V69.7251V69.5796V69.4345V69.2898V69.1455V69.0017V68.8584V68.7154V68.573V68.431V68.2894V68.1483V68.0077V67.8676V67.7279V67.5888V67.4501V67.3119V67.1742V67.0371V66.9004V66.7643V66.6286V66.4935V66.359V66.2249V66.0914V65.9585V65.8261V65.6942V65.5629V65.4322V65.3021V65.1725V65.0435V64.9151V64.7872V64.66V64.5333V64.4073V64.2819V64.157V64.0328V63.9092V63.7863V63.664V63.5423V63.4212V63.3008V63.1811V63.062V62.9435V62.8257V62.7086V62.5922V62.4765V62.3614V62.247V62.1333V62.0203V61.9081V61.7965V61.6856V61.5755V61.4661V61.3574V61.2494V61.1422V61.0357V60.93V60.825V60.7207V60.6173V60.5146V60.4126V60.3115V60.2111V60.1115V60.0127V59.9147V59.8175V59.7211V59.6255V59.5308V59.4368V59.3437V59.2514V59.1599V59.0692V58.9795V58.8905V58.8024V58.7152V58.6288V58.5433V58.4587V58.3749V58.2921V58.2101V58.129V58.0488V57.9695V57.8911V57.8136V57.737V57.6614V57.5867V57.5129V57.44V57.3681V57.2971V57.2271V57.158V57.0899V57.0227V56.9566V56.8914V56.8271V56.7639V56.7016V56.6403V56.5801V56.5208V56.4625V56.4053V56.3491V56.2938V56.2396V56.1865V56.1344V56.0833V56.0333V55.9843V55.9363V55.8895V55.8437V55.7989V55.7553V55.7127V55.6712V55.6308V55.5914V55.5532V55.5161V55.4801V55.4452V55.4114V55.3788V55.3472V55.3168V55.2876V55.2595V55.2325V55.2067V55.182V55.1585V55.1362V55.115V55.095V55.0762V55.0586V55.0421V55.0269V55.0128V55C196.5 54.3044 196.164 53.7367 195.73 53.2987C195.3 52.8636 194.745 52.5246 194.22 52.2677C193.69 52.0088 193.165 51.821 192.775 51.6982C192.579 51.6365 192.416 51.5906 192.3 51.56C192.242 51.5446 192.196 51.533 192.164 51.5252L192.126 51.5161L192.116 51.5136L192.113 51.5129L192.112 51.5127L192.111 51.5126C192.111 51.5125 192.111 51.5125 192 52L192.111 51.5125L192.056 51.5H192H152Z" fill="white" stroke="#65A300"/>
<path id="Combined Shape" fill-rule="evenodd" clip-rule="evenodd" d="M148 94C146.895 94 146 94.8954 146 96C146 97.1046 146.895 98 148 98H168C169.105 98 170 97.1046 170 96C170 94.8954 169.105 94 168 94H148ZM148 102C146.895 102 146 102.895 146 104C146 105.105 146.895 106 148 106H185C186.105 106 187 105.105 187 104C187 102.895 186.105 102 185 102H148ZM172 96C172 94.8954 172.895 94 174 94H185C186.105 94 187 94.8954 187 96C187 97.1046 186.105 98 185 98H174C172.895 98 172 97.1046 172 96ZM175.5 110C174.672 110 174 110.672 174 111.5C174 112.328 174.672 113 175.5 113H185.5C186.328 113 187 112.328 187 111.5C187 110.672 186.328 110 185.5 110H175.5ZM160 111.5C160 110.672 160.672 110 161.5 110H170.5C171.328 110 172 110.672 172 111.5C172 112.328 171.328 113 170.5 113H161.5C160.672 113 160 112.328 160 111.5ZM147.5 110C146.672 110 146 110.672 146 111.5C146 112.328 146.672 113 147.5 113H156.5C157.328 113 158 112.328 158 111.5C158 110.672 157.328 110 156.5 110H147.5Z" fill="#A8A8AD"/>
<g id="Path 3">
<path fill-rule="evenodd" clip-rule="evenodd" d="M138 65H147.75C147.75 65 151 65 151 62.8333C151 60.6667 151 52 151 52" fill="white"/>
<path d="M138 65H147.75C147.75 65 151 65 151 62.8333C151 60.6667 151 52 151 52" stroke="#65A300"/>
</g>
<g id="rosto">
<path id="Oval 2 Copy_2" fill-rule="evenodd" clip-rule="evenodd" d="M180 77C181.105 77 182 76.1046 182 75C182 73.8954 181.105 73 180 73C178.895 73 178 73.8954 178 75C178 76.1046 178.895 77 180 77Z" fill="#6045AF"/>
<path id="Oval 2_2" fill-rule="evenodd" clip-rule="evenodd" d="M154 77C155.105 77 156 76.1046 156 75C156 73.8954 155.105 73 154 73C152.895 73 152 73.8954 152 75C152 76.1046 152.895 77 154 77Z" fill="#6045AF"/>
<path id="Path 8" d="M160 84C160 84 166.759 78 174 84" stroke="#6045AF"/>
</g>
</g>
<rect id="moldura notebook" x="95.5" y="41.5" width="149" height="71" stroke="#8459B9"/>
<g id="detalhes">
<path id="Combined Shape Copy 2" fill-rule="evenodd" clip-rule="evenodd" d="M224 47.7836L226.216 50L227 49.2164L224.784 47L224 47.7836ZM232 47.7836L229.784 50L229 49.2164L231.216 47L232 47.7836ZM229.784 52L232 54.2164L231.216 55L229 52.7836L229.784 52ZM224 54.2164L226.216 52L227 52.7836L224.784 55L224 54.2164Z" fill="#A8A8AD"/>
<path id="Oval 3" fill-rule="evenodd" clip-rule="evenodd" d="M288 114C290.209 114 292 112.209 292 110C292 107.791 290.209 106 288 106C285.791 106 284 107.791 284 110C284 112.209 285.791 114 288 114Z" stroke="#A8A8AD" stroke-width="2"/>
<path id="Oval 3 Copy" fill-rule="evenodd" clip-rule="evenodd" d="M62 23C64.2091 23 66 21.2091 66 19C66 16.7909 64.2091 15 62 15C59.7909 15 58 16.7909 58 19C58 21.2091 59.7909 23 62 23Z" stroke="#A8A8AD" stroke-width="2"/>
<path id="Oval 3 Copy 2" fill-rule="evenodd" clip-rule="evenodd" d="M75 31C76.6569 31 78 29.6569 78 28C78 26.3431 76.6569 25 75 25C73.3431 25 72 26.3431 72 28C72 29.6569 73.3431 31 75 31Z" stroke="#A8A8AD" stroke-width="2"/>
<path id="Combined Shape_2" fill-rule="evenodd" clip-rule="evenodd" d="M57 114H42V112H57V114ZM66 119H54V117H66V119ZM59 114H65V112H59V114ZM53 119H48V117H53V119Z" fill="#A8A8AD"/>
<path id="Combined Shape Copy 4" fill-rule="evenodd" clip-rule="evenodd" d="M249 10H236V8H249V10ZM257 16H246V14H257V16ZM250 10H256V8H250V10ZM244 16H240V14H244V16Z" fill="#A8A8AD"/>
</g>
<path id="bra&#195;&#167;o direito" d="M197 84C197 84 199 93 208 93" stroke="#65A300"/>
<path id="braco esquerdo" d="M137 83C137 83 128 84 120 73" stroke="#65A300"/>
<path id="Path 11" d="M120.5 79.5L116.5 32" stroke="#65A300"/>
<rect id="Rectangle 2" x="114.583" y="14.0112" width="47" height="20" rx="2.5" transform="rotate(-6 114.583 14.0112)" fill="white" stroke="#65A300"/>
<g id="Clear/close">
<path fill-rule="evenodd" clip-rule="evenodd" d="M143.829 16.0596C143.707 15.964 143.53 15.9857 143.434 16.1081L139.934 20.5879L135.454 17.0879C135.332 16.9923 135.155 17.014 135.06 17.1364C134.964 17.2588 134.986 17.4355 135.108 17.5312L139.588 21.0312L136.088 25.511C135.992 25.6334 136.014 25.8101 136.136 25.9058C136.259 26.0014 136.436 25.9797 136.531 25.8573L140.031 21.3775L144.511 24.8775C144.633 24.9731 144.81 24.9514 144.906 24.829C145.001 24.7066 144.98 24.5299 144.857 24.4342L140.377 20.9342L143.877 16.4544C143.973 16.332 143.951 16.1553 143.829 16.0596Z" fill="#DF285F"/>
<path d="M143.434 16.1081L143.828 16.4159L143.828 16.4159L143.434 16.1081ZM143.829 16.0596L143.521 16.4536L143.521 16.4536L143.829 16.0596ZM139.934 20.5879L139.626 20.9819L140.02 21.2898L140.328 20.8957L139.934 20.5879ZM135.454 17.0879L135.147 17.4819L135.147 17.4819L135.454 17.0879ZM135.06 17.1364L135.454 17.4442L135.454 17.4442L135.06 17.1364ZM135.108 17.5312L135.416 17.1372L135.416 17.1372L135.108 17.5312ZM139.588 21.0312L139.982 21.339L140.29 20.945L139.896 20.6372L139.588 21.0312ZM136.088 25.511L135.694 25.2032L135.694 25.2032L136.088 25.511ZM136.136 25.9058L135.829 26.2998L135.829 26.2998L136.136 25.9058ZM136.531 25.8573L136.137 25.5495L136.137 25.5495L136.531 25.8573ZM140.031 21.3775L140.339 20.9835L139.945 20.6756L139.637 21.0697L140.031 21.3775ZM144.511 24.8775L144.203 25.2715L144.203 25.2715L144.511 24.8775ZM144.906 24.829L144.512 24.5212L144.512 24.5212L144.906 24.829ZM144.857 24.4342L145.165 24.0402L145.165 24.0402L144.857 24.4342ZM140.377 20.9342L139.983 20.6264L139.676 21.0204L140.07 21.3282L140.377 20.9342ZM143.877 16.4544L144.271 16.7622L144.271 16.7622L143.877 16.4544ZM143.828 16.4159C143.754 16.5111 143.616 16.528 143.521 16.4536L144.137 15.6656C143.797 15.4 143.306 15.4603 143.04 15.8003L143.828 16.4159ZM140.328 20.8957L143.828 16.4159L143.04 15.8003L139.54 20.2801L140.328 20.8957ZM135.147 17.4819L139.626 20.9819L140.242 20.1939L135.762 16.6939L135.147 17.4819ZM135.454 17.4442C135.379 17.5394 135.242 17.5563 135.147 17.4819L135.762 16.6939C135.422 16.4283 134.931 16.4885 134.666 16.8285L135.454 17.4442ZM135.416 17.1372C135.511 17.2115 135.528 17.349 135.454 17.4442L134.666 16.8285C134.4 17.1686 134.46 17.6595 134.8 17.9252L135.416 17.1372ZM139.896 20.6372L135.416 17.1372L134.8 17.9252L139.28 21.4252L139.896 20.6372ZM136.482 25.8188L139.982 21.339L139.194 20.7233L135.694 25.2032L136.482 25.8188ZM136.444 25.5118C136.539 25.5861 136.556 25.7236 136.482 25.8188L135.694 25.2032C135.428 25.5432 135.489 26.0341 135.829 26.2998L136.444 25.5118ZM136.137 25.5495C136.212 25.4543 136.349 25.4374 136.444 25.5118L135.829 26.2998C136.169 26.5654 136.66 26.5051 136.925 26.1651L136.137 25.5495ZM139.637 21.0697L136.137 25.5495L136.925 26.1651L140.425 21.6853L139.637 21.0697ZM144.819 24.4835L140.339 20.9835L139.723 21.7715L144.203 25.2715L144.819 24.4835ZM144.512 24.5212C144.586 24.426 144.724 24.4091 144.819 24.4835L144.203 25.2715C144.543 25.5371 145.034 25.4769 145.3 25.1369L144.512 24.5212ZM144.549 24.8282C144.454 24.7539 144.437 24.6164 144.512 24.5212L145.3 25.1369C145.565 24.7969 145.505 24.3059 145.165 24.0402L144.549 24.8282ZM140.07 21.3282L144.549 24.8282L145.165 24.0402L140.685 20.5402L140.07 21.3282ZM143.483 16.1466L139.983 20.6264L140.771 21.2421L144.271 16.7622L143.483 16.1466ZM143.521 16.4536C143.426 16.3793 143.409 16.2418 143.483 16.1466L144.271 16.7622C144.537 16.4222 144.477 15.9313 144.137 15.6656L143.521 16.4536Z" fill="#DF285F"/>
</g>
<mask id="mask0" mask-type="alpha" maskUnits="userSpaceOnUse" x="133" y="14" width="14" height="14">
<g id="Clear/close_2">
<path fill-rule="evenodd" clip-rule="evenodd" d="M143.829 16.0596C143.707 15.964 143.53 15.9857 143.434 16.1081L139.934 20.5879L135.454 17.0879C135.332 16.9923 135.155 17.014 135.06 17.1364C134.964 17.2588 134.986 17.4355 135.108 17.5312L139.588 21.0312L136.088 25.511C135.992 25.6334 136.014 25.8101 136.136 25.9058C136.259 26.0014 136.436 25.9797 136.531 25.8573L140.031 21.3775L144.511 24.8775C144.633 24.9731 144.81 24.9514 144.906 24.829C145.001 24.7066 144.98 24.5299 144.857 24.4342L140.377 20.9342L143.877 16.4544C143.973 16.332 143.951 16.1553 143.829 16.0596Z" fill="white"/>
<path d="M143.434 16.1081L143.04 15.8003L143.04 15.8003L143.434 16.1081ZM143.829 16.0596L144.137 15.6656L144.137 15.6656L143.829 16.0596ZM139.934 20.5879L139.626 20.9819L140.02 21.2898L140.328 20.8957L139.934 20.5879ZM135.454 17.0879L135.762 16.6939L135.762 16.6939L135.454 17.0879ZM135.06 17.1364L135.454 17.4442L135.454 17.4442L135.06 17.1364ZM135.108 17.5312L135.416 17.1372L135.416 17.1372L135.108 17.5312ZM139.588 21.0312L139.982 21.339L140.29 20.945L139.896 20.6372L139.588 21.0312ZM136.088 25.511L136.482 25.8188L136.482 25.8188L136.088 25.511ZM136.136 25.9058L136.444 25.5118L136.136 25.9058ZM136.531 25.8573L136.137 25.5495L136.137 25.5495L136.531 25.8573ZM140.031 21.3775L140.339 20.9835L139.945 20.6756L139.637 21.0697L140.031 21.3775ZM144.511 24.8775L144.819 24.4835L144.819 24.4835L144.511 24.8775ZM144.906 24.829L145.3 25.1369L145.3 25.1369L144.906 24.829ZM144.857 24.4342L145.165 24.0402L144.857 24.4342ZM140.377 20.9342L139.983 20.6264L139.676 21.0204L140.07 21.3282L140.377 20.9342ZM143.877 16.4544L143.483 16.1466L143.483 16.1466L143.877 16.4544ZM143.828 16.4159C143.754 16.5111 143.616 16.528 143.521 16.4536L144.137 15.6656C143.797 15.4 143.306 15.4603 143.04 15.8003L143.828 16.4159ZM140.328 20.8957L143.828 16.4159L143.04 15.8003L139.54 20.2801L140.328 20.8957ZM135.147 17.4819L139.626 20.9819L140.242 20.1939L135.762 16.6939L135.147 17.4819ZM135.454 17.4442C135.379 17.5394 135.242 17.5563 135.147 17.4819L135.762 16.6939C135.422 16.4283 134.931 16.4885 134.666 16.8285L135.454 17.4442ZM135.416 17.1372C135.511 17.2115 135.528 17.349 135.454 17.4442L134.666 16.8285C134.4 17.1686 134.46 17.6595 134.8 17.9252L135.416 17.1372ZM139.896 20.6372L135.416 17.1372L134.8 17.9252L139.28 21.4252L139.896 20.6372ZM136.482 25.8188L139.982 21.339L139.194 20.7233L135.694 25.2032L136.482 25.8188ZM136.444 25.5118C136.539 25.5861 136.556 25.7236 136.482 25.8188L135.694 25.2032C135.428 25.5432 135.489 26.0341 135.829 26.2998L136.444 25.5118ZM136.137 25.5495C136.212 25.4543 136.349 25.4374 136.444 25.5118L135.829 26.2998C136.169 26.5654 136.66 26.5051 136.925 26.1651L136.137 25.5495ZM139.637 21.0697L136.137 25.5495L136.925 26.1651L140.425 21.6853L139.637 21.0697ZM144.819 24.4835L140.339 20.9835L139.723 21.7715L144.203 25.2715L144.819 24.4835ZM144.512 24.5212C144.586 24.426 144.724 24.4091 144.819 24.4835L144.203 25.2715C144.543 25.5371 145.034 25.4769 145.3 25.1369L144.512 24.5212ZM144.549 24.8282C144.454 24.7539 144.437 24.6164 144.512 24.5212L145.3 25.1369C145.565 24.7968 145.505 24.3059 145.165 24.0402L144.549 24.8282ZM140.07 21.3282L144.549 24.8282L145.165 24.0402L140.685 20.5402L140.07 21.3282ZM143.483 16.1466L139.983 20.6264L140.771 21.2421L144.271 16.7622L143.483 16.1466ZM143.521 16.4536C143.426 16.3793 143.409 16.2418 143.483 16.1466L144.271 16.7622C144.537 16.4222 144.477 15.9313 144.137 15.6656L143.521 16.4536Z" fill="white"/>
</g>
</mask>
<g mask="url(#mask0)">
</g>
</g>
</svg>
