<?xml version="1.0" encoding="UTF-8"?>
<svg width="157px" height="169px" viewBox="0 0 157 169" version="1.1" xmlns="http://www.w3.org/2000/svg" xmlns:xlink="http://www.w3.org/1999/xlink">
    <!-- Generator: Sketch 50.2 (55047) - http://www.bohemiancoding.com/sketch -->
    <desc>Created with Sketch.</desc>
    <defs></defs>
    <g stroke="none" stroke-width="1" fill="none" fill-rule="evenodd">
        <g>
            <path d="M5,71 L43,71 C43.5522847,71 44,71.4477153 44,72 L44,110 C44,110.552285 43.5522847,111 43,111 L5,111 C4.44771525,111 4,110.552285 4,110 L4,72 C4,71.4477153 4.44771525,71 5,71 Z M5,15 L43,15 C43.5522847,15 44,15.4477153 44,16 L44,54 C44,54.5522847 43.5522847,55 43,55 L5,55 C4.44771525,55 4,54.5522847 4,54 L4,16 C4,15.4477153 4.44771525,15 5,15 Z M61,15 L99,15 C99.5522847,15 100,15.4477153 100,16 L100,54 C100,54.5522847 99.5522847,55 99,55 L61,55 C60.4477153,55 60,54.5522847 60,54 L60,16 C60,15.4477153 60.4477153,15 61,15 Z M61,71 L99,71 C99.5522847,71 100,71.4477153 100,72 L100,110 C100,110.552285 99.5522847,111 99,111 L61,111 C60.4477153,111 60,110.552285 60,110 L60,72 C60,71.4477153 60.4477153,71 61,71 Z M117,15 L155,15 C155.552285,15 156,15.4477153 156,16 L156,54 C156,54.5522847 155.552285,55 155,55 L117,55 C116.447715,55 116,54.5522847 116,54 L116,16 C116,15.4477153 116.447715,15 117,15 Z M117,71 L155,71 C155.552285,71 156,71.4477153 156,72 L156,110 C156,110.552285 155.552285,111 155,111 L117,111 C116.447715,111 116,110.552285 116,110 L116,72 C116,71.4477153 116.447715,71 117,71 Z M5,127 L43,127 C43.5522847,127 44,127.447715 44,128 L44,166 C44,166.552285 43.5522847,167 43,167 L5,167 C4.44771525,167 4,166.552285 4,166 L4,128 C4,127.447715 4.44771525,127 5,127 Z M61,127 L99,127 C99.5522847,127 100,127.447715 100,128 L100,166 C100,166.552285 99.5522847,167 99,167 L61,167 C60.4477153,167 60,166.552285 60,166 L60,128 C60,127.447715 60.4477153,127 61,127 Z M117,127 L155,127 C155.552285,127 156,127.447715 156,128 L156,166 C156,166.552285 155.552285,167 155,167 L117,167 C116.447715,167 116,166.552285 116,166 L116,128 C116,127.447715 116.447715,127 117,127 Z" fill="#E0E5E8"></path>
            <g transform="translate(0.000000, 13.000000)">
                <path d="M13.7836116,79 L13,78.2163884 L15.2163884,76 L16,76.7836116 L13.7836116,79 Z M10.2163884,79 L8,76.7836116 L8.78361162,76 L11,78.2163884 L10.2163884,79 Z M13.7836116,81 L16,83.2163884 L15.2163884,84 L13,81.7836116 L13.7836116,81 Z M10.2163884,81 L11,81.7836116 L8.78361162,84 L8,83.2163884 L10.2163884,81 Z" fill="#858C8F"></path>
                <path d="M141.783612,138 L141,137.216388 L143.216388,135 L144,135.783612 L141.783612,138 Z M138.216388,138 L136,135.783612 L136.783612,135 L139,137.216388 L138.216388,138 Z M141.783612,140 L144,142.216388 L143.216388,143 L141,140.783612 L141.783612,140 Z M138.216388,140 L139,140.783612 L136.783612,143 L136,142.216388 L138.216388,140 Z" fill="#858C8F"></path>
                <path d="M5.78361162,3 L5,2.21638838 L7.21638838,0 L8,0.783611625 L5.78361162,3 Z M2.21638838,3 L4.4408921e-16,0.783611625 L0.783611625,0 L3,2.21638838 L2.21638838,3 Z M5.78361162,5 L8,7.21638838 L7.21638838,8 L5,5.78361162 L5.78361162,5 Z M2.21638838,5 L3,5.78361162 L0.783611625,8 L4.4408921e-16,7.21638838 L2.21638838,5 Z" fill="#858C8F"></path>
                <path d="M139.100098,15.9251719 L138.074828,14.8999018 L140.97473,12 L142,13.0252701 L139.100098,15.9251719 Z M135.899902,15.9251719 L133,13.0252701 L134.02527,12 L136.925172,14.8999018 L135.899902,15.9251719 Z M139.100098,17.0748281 L142,19.9747299 L140.97473,21 L138.074828,18.1000982 L139.100098,17.0748281 Z M135.899902,17.0748281 L136.925172,18.1000982 L134.02527,21 L133,19.9747299 L135.899902,17.0748281 Z" fill="#858C8F"></path>
                <circle stroke="#858C8F" stroke-width="2" cx="8" cy="152" r="4"></circle>
                <circle stroke="#858C8F" stroke-width="2" cx="153" cy="80" r="4"></circle>
            </g>
            <g transform="translate(25.000000, 38.000000)">
                <path d="M5,2 L105,2 L105,101 L5,101 L5,82.5048828 L2.37890625,82.5048828 L2.37890625,61.5244141 L5,61.5244141 L5,42.3286133 C2.75215763,42.7159795 1.5947683,42.7159795 1.52783203,42.3286133 C1.46089576,41.941247 1.46089576,35.2433304 1.52783203,22.2348633 L5,22.2348633 L5,2 Z" fill-opacity="0.5" fill="#FFFFFF"></path>
                <rect fill-opacity="0.2" fill="#FFFFFF" x="16" y="11" width="82" height="84"></rect>
                <path d="M106.033469,0.000218747864 L29.3285084,0.000218747864 C28.2428489,0.000218747864 27.3624135,0.883085126 27.3624135,1.97223074 C27.3624135,3.06115761 28.2426308,3.94424273 29.3285084,3.94424273 L104.067374,3.94424273 L104.067374,100.557518 L7.74442907,100.557518 L7.74442907,83.9932735 L12.6072152,83.9932735 L12.6072152,93.7083036 C12.6072152,94.7972305 13.4874325,95.6803156 14.57331,95.6803156 L25.9016367,95.6803156 C26.9872962,95.6803156 27.8677315,94.7974492 27.8677315,93.7083036 C27.8677315,92.6193768 26.9875143,91.7362916 25.9016367,91.7362916 L16.5391868,91.7362916 L16.5391868,83.9932735 L18.2359387,83.9932735 C19.3215981,83.9932735 20.2020335,83.1104071 20.2020335,82.0212615 L20.2020335,62.1744866 C20.2020335,61.0855597 19.3218162,60.2024746 18.2359387,60.2024746 L16.5391868,60.2024746 L16.5391868,44.2995049 L18.2359387,44.2995049 C19.3215981,44.2995049 20.2020335,43.4166385 20.2020335,42.3274929 L20.2020335,22.4802805 C20.2020335,21.3913536 19.3218162,20.5082685 18.2359387,20.5082685 L16.5391868,20.5082685 L16.5391868,12.7652503 L95.2726164,12.7652503 L95.2726164,23.4180526 C95.2726164,24.5069794 96.1528337,25.3900646 97.2387112,25.3900646 C98.3243707,25.3900646 99.2048061,24.5071982 99.2048061,23.4180526 L99.2048061,10.7934571 C99.2048061,9.70453023 98.3245888,8.8214451 97.2387112,8.8214451 L14.573092,8.8214451 C13.4874325,8.8214451 12.6069971,9.70431148 12.6069971,10.7934571 L12.6069971,20.5080497 L7.74442907,20.5080497 L7.74442907,3.94402398 L22.4752012,3.94402398 C23.5608607,3.94402398 24.441296,3.06115761 24.441296,1.97201199 C24.441296,0.883085126 23.5610787,0 22.4752012,0 L5.77833423,0 C4.69267475,0 3.81223938,0.882866378 3.81223938,1.97201199 L3.81223938,20.5082685 L1.96609485,20.5082685 C0.880435375,20.5082685 0,21.3911349 0,22.4802805 L0,42.3274929 C0,43.4164198 0.880217284,44.2995049 1.96609485,44.2995049 L3.81223938,44.2995049 L3.81223938,60.2024746 L1.96609485,60.2024746 C0.880435375,60.2024746 0,61.085341 0,62.1744866 L0,82.0212615 C0,83.1101884 0.880217284,83.9932735 1.96609485,83.9932735 L3.81223938,83.9932735 L3.81223938,102.52953 C3.81223938,103.618457 4.69245666,104.501542 5.77833423,104.501542 L13.705524,104.501542 L13.705524,110.027988 C13.705524,111.116915 14.5857413,112 15.6716188,112 L36.3384053,112 C37.4240648,112 38.3045002,111.117134 38.3045002,110.027988 L38.3045002,104.501542 L73.5075211,104.501542 L73.5075211,110.027988 C73.5075211,111.116915 74.3877384,112 75.473616,112 L96.1404025,112 C97.2260619,112 98.1064973,111.117134 98.1064973,110.027988 L98.1064973,104.501542 L106.033905,104.501542 C107.119565,104.501542 108,103.618676 108,102.52953 L108,1.97223074 C107.999346,0.883085126 107.119565,0.000218747864 106.033469,0.000218747864 Z M3.9321897,40.3552622 L3.9321897,24.4522925 L16.2696257,24.4522925 L16.2696257,40.3556997 L3.9321897,40.3556997 L3.9321897,40.3552622 Z M12.6072152,44.2990674 L12.6072152,60.2020371 L7.74442907,60.2020371 L7.74442907,44.2990674 L12.6072152,44.2990674 Z M3.9321897,80.0492495 L3.9321897,64.1462798 L16.2696257,64.1462798 L16.2696257,80.0492495 L3.9321897,80.0492495 Z M17.6374956,108.05532 L17.6374956,104.500886 L34.3723105,104.500886 L34.3723105,108.05532 L17.6374956,108.05532 Z M94.1743076,108.05532 L77.4394927,108.05532 L77.4394927,104.500886 L94.1743076,104.500886 L94.1743076,108.05532 Z" fill="#3DC3AB" fill-rule="nonzero"></path>
                <path d="M97.0458587,28 C95.9667998,28 95.0917173,28.8781492 95.0917173,29.9614755 L95.0917173,91.077049 L32.9541413,91.077049 C31.8750825,91.077049 31,91.9551982 31,93.0385245 C31,94.1216332 31.8748657,95 32.9541413,95 L97.0458587,95 C98.1249175,95 99,94.1218508 99,93.0385245 L99,29.9614755 C98.9997832,28.8781492 98.1249175,28 97.0458587,28 Z" fill="#3DC3AB" fill-rule="nonzero"></path>
                <path d="M56.5,31 C44.6449412,31 35,40.6449412 35,52.5 C35,64.3550588 44.6449412,74 56.5,74 C68.3552765,73.9997823 78,64.3548412 78,52.5 C78,40.6449412 68.3550588,31 56.5,31 Z M73.963499,50.5377969 L66.6118215,50.5377969 C66.3436646,49.1532629 65.7995151,47.8664581 65.0359645,46.7389803 L70.229545,41.5453998 C72.2483397,44.0702535 73.5865122,47.1601521 73.963499,50.5377969 Z M58.4624208,35.036501 C61.8400656,35.4134878 64.9299642,36.7518779 67.4548179,38.770455 L62.2612373,43.9640355 C61.1333242,43.2004849 59.8465195,42.6563354 58.4624208,42.3881785 L58.4624208,35.036501 Z M54.5382322,35.0367187 L54.5382322,42.3879609 L54.5380145,42.3879609 C53.1539159,42.6561178 51.8666758,43.2002673 50.739198,43.9638179 L45.5458351,38.770455 C48.0704712,36.7518779 51.1605874,35.4137055 54.5382322,35.0367187 Z M42.7708903,41.5453998 L47.9644708,46.7387627 C47.2009202,47.8666758 46.6567707,49.1534805 46.3886139,50.5380145 L39.0369364,50.5380145 C39.4137055,47.1601521 40.7523133,44.0702535 42.7708903,41.5453998 Z M39.037154,54.4617678 L46.3883962,54.4617678 L46.3883962,54.4619855 C46.6565531,55.8460841 47.2007026,57.1333242 47.9642532,58.260802 L42.7708903,63.4541649 C40.7523133,60.9293112 39.4141408,57.8394126 39.037154,54.4617678 Z M54.5380145,69.9632813 C51.1603697,69.5862945 48.0706888,68.2479044 45.5456174,66.2293274 L50.739198,61.0357468 C51.8671111,61.7992974 53.1539159,62.3434469 54.5380145,62.6116038 L54.5380145,69.9632813 Z M50.1230031,52.5 C50.1230031,48.9837059 52.9837059,46.1225678 56.5,46.1225678 C60.0162941,46.1225678 62.8774322,48.9834882 62.8774322,52.5 C62.8774322,56.0165118 60.0165118,58.8769969 56.5,58.8769969 C52.9834882,58.8769969 50.1230031,56.0162941 50.1230031,52.5 Z M58.4624208,69.962846 L58.4624208,62.6116038 L58.4622031,62.6116038 C59.8463018,62.3434469 61.1335419,61.7992974 62.261455,61.0357468 L67.4550355,66.2291097 C64.9299642,68.2476867 61.8400656,69.5858592 58.4624208,69.962846 Z M70.229545,63.4546002 L65.0359645,58.2610197 C65.7995151,57.1331066 66.3436646,55.8463018 66.6118215,54.4622031 L73.963499,54.4622031 C73.5865122,57.8398479 72.2481221,60.9293112 70.229545,63.4546002 Z" fill="#3DC3AB" fill-rule="nonzero"></path>
            </g>
            <g transform="translate(70.000000, 0.000000)">
                <path d="M9.29,1.86 L0.82,16 C0.464641628,16.6153996 0.462519934,17.3731469 0.81442652,17.9905269 C1.16633311,18.6079069 1.81941202,18.9921898 2.53,19 L19.47,19 C20.180588,18.9921898 20.8336669,18.6079069 21.1855735,17.9905269 C21.5374801,17.3731469 21.5353584,16.6153996 21.18,16 L12.71,1.86 C12.3474343,1.26228132 11.6990862,0.897255995 11,0.897255995 C10.3009138,0.897255995 9.65256566,1.26228132 9.29,1.86 Z" stroke="#858C8F" stroke-width="2" fill-opacity="0.4" fill="#FFFFFF" stroke-linecap="round" stroke-linejoin="round"></path>
                <path d="M11,7 L11,11" stroke="#858C8F" stroke-width="2" stroke-linecap="round" stroke-linejoin="round"></path>
                <circle fill="#858C8F" cx="11" cy="15" r="1"></circle>
            </g>
        </g>
    </g>
</svg>
