<svg width="293" height="147" viewBox="0 0 293 147" fill="none" xmlns="http://www.w3.org/2000/svg">
<path d="M291.827 131.154C289.884 139.293 282.67 145.952 273.143 145.952H94.3564C81.5925 145.952 69.6611 140.495 61.3368 131.154C59.117 128.749 57.2671 125.974 55.6023 123.107L3.99175 29.2275C3.25182 27.8401 2.69687 26.4527 2.32691 25.0653C-1.0028 13.2264 7.78391 0.73996 20.9178 0.73996H199.705C200.26 0.73996 200.907 0.73996 201.462 0.73996C215.613 1.29491 228.285 9.43419 235.314 21.7356L290.069 117.465C292.474 121.904 292.937 126.714 291.827 131.154Z" fill="white"/>
<path d="M273.144 146.6H94.3565C81.5926 146.6 69.3836 141.143 60.8744 131.524C58.6546 129.026 56.7122 126.252 55.0474 123.292L3.43686 29.505C2.69693 28.1176 2.04946 26.6377 1.67949 25.2503C0.0146358 19.3308 1.30956 12.8564 5.00924 7.86182C8.80141 2.86725 14.5359 0 20.8253 0H199.612C200.167 0 200.815 0 201.37 0C215.428 0.554952 228.562 8.69425 235.777 21.3657L290.532 117.095C292.937 121.442 293.584 126.529 292.474 131.339C290.347 140.31 282.393 146.6 273.144 146.6ZM20.9178 1.38738C15.0908 1.38738 9.72632 4.06967 6.21162 8.69427C2.69693 13.3189 1.49451 19.3308 3.06687 24.8804C3.43684 26.2677 3.99178 27.5626 4.73172 28.8575L56.3423 122.737C57.9147 125.604 59.7645 128.286 61.9843 130.691C70.2161 139.94 82.055 145.305 94.4489 145.305H273.236C281.838 145.305 289.237 139.478 291.272 131.061C292.382 126.529 291.734 121.997 289.515 117.835L234.852 22.1056C227.915 9.89666 215.151 2.03483 201.555 1.47988C201 1.47988 200.445 1.47988 199.89 1.47988H20.9178V1.38738Z" fill="#1B1C29"/>
<path d="M237.164 25.0653H2.32691C-1.0028 13.2264 7.78391 0.73996 20.9178 0.73996C20.9178 0.73996 200.907 0.73996 201.462 0.73996C215.613 1.29491 228.285 9.43419 235.314 21.7356L237.164 25.0653Z" fill="#1B1C29"/>
<path d="M291.827 131.154C289.884 139.293 282.67 145.952 273.143 145.952H94.3564C81.5926 145.952 69.6611 140.403 61.3368 131.154H291.827Z" fill="#1B1C29"/>
<path d="M57.2672 17.666H27.9472C26.0049 17.666 24.4325 16.0936 24.4325 14.1513C24.4325 12.2089 26.0049 10.6366 27.9472 10.6366H57.2672C59.2095 10.6366 60.7819 12.2089 60.7819 14.1513C60.7819 16.0936 59.2095 17.666 57.2672 17.666Z" fill="white"/>
<path d="M197.947 17.666H183.519C181.576 17.666 180.004 16.0936 180.004 14.1513C180.004 12.2089 181.576 10.6366 183.519 10.6366H197.947C199.89 10.6366 201.462 12.2089 201.462 14.1513C201.462 16.0936 199.89 17.666 197.947 17.666Z" fill="white"/>
<path d="M113.41 103.591C113.317 103.591 113.317 103.591 113.225 103.591C102.958 100.539 91.7666 87.6824 93.2465 76.3059C93.339 75.9359 93.6165 75.6585 93.9864 75.751C94.3564 75.8435 94.6339 76.1209 94.5414 76.4909C93.2465 86.9425 103.883 99.3364 113.595 102.296C113.965 102.389 114.15 102.759 114.057 103.129C113.965 103.406 113.687 103.591 113.41 103.591Z" fill="#1B1C29"/>
<path d="M86.4021 61.0447C86.3097 61.0447 86.1246 61.0447 86.0322 60.9522C82.7949 58.9174 80.5751 55.6802 80.2052 52.4429C79.8352 49.3907 81.0376 46.3385 83.6274 43.6562C83.9049 43.3787 84.3673 43.3787 84.6448 43.6562C84.9223 43.9337 84.9223 44.3961 84.6448 44.6736C82.3325 46.9859 81.3151 49.6682 81.685 52.2579C82.055 55.1252 83.9974 57.9925 86.8646 59.8423C87.1421 60.0273 87.327 60.4897 87.0495 60.7672C86.8646 60.8597 86.6796 61.0447 86.4021 61.0447Z" fill="#1B1C29"/>
<path d="M89.6394 69.8315C85.8472 69.554 79.0953 66.9642 75.7656 61.1372C75.5806 60.7673 75.6731 60.3973 76.0431 60.2123C76.413 60.0273 76.783 60.1198 76.968 60.4898C80.0202 65.8543 86.2172 68.1666 89.6394 68.4441C90.0094 68.4441 90.2868 68.8141 90.2868 69.184C90.2868 69.554 90.0094 69.8315 89.6394 69.8315Z" fill="#1B1C29"/>
<path d="M86.4021 112.008C86.3096 112.008 86.3096 112.008 86.2171 112.008C86.1246 112.008 78.8177 110.25 77.8003 103.036C77.7078 102.666 77.9853 102.296 78.3553 102.296C78.7253 102.204 79.0952 102.481 79.0952 102.851C79.9277 109.141 86.1246 110.62 86.4021 110.713C86.7721 110.805 87.0495 111.175 86.9571 111.545C87.0495 111.823 86.7721 112.008 86.4021 112.008Z" fill="#1B1C29"/>
<path d="M128.116 68.5366C124.879 68.5366 121.457 68.2591 117.942 67.7967C105.548 66.0393 97.1312 60.8598 92.2291 56.7901C90.8417 55.6802 90.1943 53.9229 90.2868 52.1655C90.4717 50.4082 91.3967 48.8358 92.9691 48.0034C98.981 44.5812 109.433 40.419 124.601 40.419C130.336 40.419 136.348 40.974 142.545 42.1764C146.707 43.0088 151.979 45.7836 154.106 49.6682C155.309 51.7956 155.401 54.1078 154.569 56.4201C151.701 64.0045 141.805 68.5366 128.116 68.5366Z" fill="white"/>
<path d="M124.601 41.1589C130.336 41.1589 136.255 41.7139 142.452 42.9163C146.429 43.6562 151.516 46.3385 153.551 50.0382C154.661 51.9805 154.754 54.0153 153.921 56.1426C151.794 61.7846 143.84 67.7966 128.024 67.7966C124.879 67.7966 121.457 67.5191 117.942 67.0567C105.64 65.3918 97.4086 60.2123 92.599 56.2351C91.3967 55.2177 90.8417 53.7378 90.9342 52.258C91.0267 50.6856 91.9516 49.3907 93.2465 48.6508C99.351 45.2286 109.618 41.1589 124.601 41.1589ZM124.601 39.7715C109.248 39.7715 98.7036 44.0262 92.6916 47.4484C88.9919 49.5757 88.5294 54.6628 91.7667 57.345C96.6687 61.5072 105.178 66.7792 117.757 68.5366C121.457 68.999 124.879 69.2765 128.024 69.2765C143.47 69.2765 152.534 63.6345 155.216 56.6976C158.361 48.4658 148.742 42.7313 142.73 41.5289C136.07 40.3265 130.058 39.7715 124.601 39.7715Z" fill="#1B1C29"/>
<path d="M138.938 65.4843C138.105 63.2645 138.475 60.7673 138.938 58.455C139.4 56.2351 140.51 54.6628 139.308 52.7204C135.7 46.8934 125.711 47.5409 120.162 46.8935C116.74 46.5235 110.173 44.8586 106.473 41.9914C100.553 43.5638 95.9288 45.5986 92.6916 47.4484C89.0844 49.5757 88.622 54.5703 91.8592 57.345C96.7612 61.5072 105.271 66.7792 117.849 68.5366C127.006 69.8315 134.498 69.369 140.325 67.8891C139.678 67.1492 139.215 66.4093 138.938 65.4843Z" fill="#6045AF"/>
<path d="M248.726 31.1698H211.359V68.5366H248.726V31.1698Z" fill="#DF285F"/>
<path d="M241.881 62.6171C241.696 62.6171 241.511 62.5246 241.419 62.4321L217.556 38.5692C217.278 38.2917 217.278 37.8292 217.556 37.5517C217.833 37.2743 218.296 37.2743 218.573 37.5517L242.436 61.4147C242.714 61.6922 242.714 62.1546 242.436 62.4321C242.251 62.5246 242.066 62.6171 241.881 62.6171Z" fill="white"/>
<path d="M218.018 62.6171C217.833 62.6171 217.648 62.5246 217.556 62.4321C217.278 62.1546 217.278 61.6922 217.556 61.4147L241.419 37.5517C241.696 37.2743 242.159 37.2743 242.436 37.5517C242.714 37.8292 242.714 38.2917 242.436 38.5692L218.573 62.4321C218.388 62.5246 218.203 62.6171 218.018 62.6171Z" fill="white"/>
<path d="M248.633 78.3407H228.47V98.504H248.633V78.3407Z" fill="#DF285F"/>
<path d="M273.976 52.443H256.772C256.402 52.443 256.032 52.1655 256.032 51.7031C256.032 51.2406 256.31 50.9631 256.772 50.9631H273.976C274.346 50.9631 274.716 51.2406 274.716 51.7031C274.716 52.1655 274.346 52.443 273.976 52.443Z" fill="#1B1C29"/>
<path d="M243.731 89.1623H233.279C232.909 89.1623 232.539 88.8848 232.539 88.4224C232.539 87.9599 232.817 87.6824 233.279 87.6824H243.731C244.101 87.6824 244.471 87.9599 244.471 88.4224C244.471 88.8848 244.193 89.1623 243.731 89.1623Z" fill="#1B1C29"/>
<path d="M198.595 74.9185C198.41 74.9185 198.132 74.826 198.04 74.6411C197.855 74.3636 197.947 73.9011 198.225 73.7161L205.162 68.999C205.439 68.8141 205.902 68.9066 206.087 69.184C206.272 69.4615 206.179 69.924 205.902 70.109L198.965 74.826C198.872 74.826 198.687 74.9185 198.595 74.9185Z" fill="#1B1C29"/>
<path d="M207.382 80.0981C207.197 80.0981 207.104 80.0981 206.919 79.9131C206.642 79.6356 206.549 79.2657 206.827 78.8957L210.804 73.6237C211.081 73.3462 211.451 73.2537 211.821 73.5312C212.099 73.8086 212.191 74.1786 211.914 74.5486L207.937 79.8206C207.752 80.0056 207.567 80.0981 207.382 80.0981Z" fill="#1B1C29"/>
<path d="M163.818 112.84C161.598 112.84 159.286 112.563 156.789 112.008C156.419 111.915 156.141 111.545 156.234 111.175C156.326 110.805 156.696 110.528 157.066 110.62C170.662 113.58 179.819 107.198 182.409 102.574C182.594 102.204 183.056 102.111 183.334 102.296C183.704 102.481 183.796 102.944 183.611 103.221C181.299 107.476 174.269 112.84 163.818 112.84Z" fill="#1B1C29"/>
<path d="M160.211 107.198C157.991 107.198 155.956 106.921 154.291 106.366C153.921 106.273 153.736 105.903 153.829 105.533C153.921 105.163 154.291 104.978 154.661 105.071C159.193 106.458 166.778 106.088 172.05 102.389C172.327 102.204 172.79 102.204 172.975 102.574C173.16 102.851 173.16 103.314 172.79 103.499C169.182 106.088 164.465 107.198 160.211 107.198Z" fill="#1B1C29"/>
<path d="M229.95 49.7607C229.95 46.801 222.828 48.4658 222.828 48.4658C222.828 45.9685 218.851 45.5061 218.851 45.5061C217.556 43.2863 214.226 42.3613 203.127 45.876C192.583 49.2057 176.304 47.1709 164.465 44.8586C164.465 47.1709 160.396 52.3505 156.881 53.9228V54.0153C155.956 55.9577 155.216 58.085 153.921 59.8423C164.003 63.6345 199.705 68.1666 211.174 58.9174C217.001 61.1372 223.475 59.0099 224.03 56.6976C224.678 53.6454 218.018 55.4027 218.018 55.4027L216.723 54.2003C221.533 52.6279 229.95 52.3505 229.95 49.7607Z" fill="white"/>
<path d="M230.69 49.7607C230.69 49.1133 230.412 48.4658 229.857 48.0958C228.377 46.8934 224.955 47.3559 223.383 47.7259C222.828 45.7835 220.146 45.1361 219.221 44.9511C217.278 42.0839 212.469 42.1764 202.85 45.2286C194.618 47.8184 181.669 47.5409 164.465 44.2112L163.633 44.0262V44.8586C163.633 46.061 161.876 49.1133 159.193 51.4256C157.621 52.8129 156.141 53.6454 154.939 53.7379C154.661 54.6628 154.291 55.5877 153.921 56.5126C153.459 57.715 152.811 58.8249 152.164 59.9348C157.158 62.3396 172.05 65.1144 186.201 65.1144C196.283 65.1144 205.994 63.727 211.174 59.7498C215.521 61.2297 220.053 60.4898 222.458 59.1949C223.66 58.5474 224.4 57.715 224.585 56.8826C224.77 55.8652 224.4 55.3102 224.123 54.9403C222.828 53.6454 219.406 54.2928 218.111 54.5703L217.926 54.3853C219.313 54.0153 220.885 53.7379 222.458 53.3679C226.897 52.8129 230.69 52.073 230.69 49.7607ZM216.446 53.6454L215.336 54.0153L217.741 56.3276L218.111 56.2352C219.776 55.7727 222.55 55.4952 223.198 56.1427C223.29 56.2351 223.383 56.3276 223.29 56.7901C223.198 57.2526 222.643 57.715 221.903 58.1775C219.683 59.3799 215.428 60.0273 211.359 58.5475L210.989 58.455L210.711 58.7324C199.335 67.8891 162.246 63.172 153.274 59.1949C153.459 58.7324 153.829 57.9 154.106 57.345C154.476 56.5126 154.754 55.8652 154.939 55.4952C156.974 55.4027 159.101 53.8303 160.211 52.8129C162.338 50.9631 164.558 48.0034 165.02 45.9685C182.131 49.1133 194.988 49.3907 203.312 46.801C214.781 43.1938 217.278 44.5812 218.203 46.1535L218.388 46.431L218.758 46.5235C218.758 46.5235 222.18 47.0784 222.18 48.8358V49.7607L223.013 49.5757C224.77 49.1133 228.007 48.7433 229.025 49.5757C229.21 49.7607 229.302 49.9457 229.302 50.2232C229.302 51.3331 225.233 52.073 222.273 52.628C220.238 52.628 218.111 52.9979 216.446 53.6454Z" fill="#1B1C29"/>
<path d="M217.741 45.876C216.353 45.6911 215.058 45.876 213.764 46.431C213.209 46.7085 213.671 47.4484 214.226 47.2634C215.243 46.801 216.353 46.616 217.463 46.801C218.018 46.8935 218.296 45.9685 217.741 45.876Z" fill="#1B1C29"/>
<path d="M221.071 48.9283C219.591 49.1133 218.018 49.3907 216.538 49.6682C215.983 49.7607 216.168 50.6856 216.816 50.5931C218.203 50.3156 219.683 50.0382 221.071 49.8532C221.625 49.7607 221.625 48.8358 221.071 48.9283Z" fill="#1B1C29"/>
<path d="M111.375 51.7955C102.311 56.1426 102.311 62.4321 105.918 65.0219C109.525 67.6116 130.336 69.554 134.96 63.2645C139.585 56.9751 136.718 50.8706 127.746 49.2982C124.231 48.6508 116.092 49.5757 111.375 51.7955Z" fill="white"/>
<path d="M115.907 51.7031C91.0267 69.369 101.478 100.076 139.862 103.684C146.892 104.331 151.424 99.5214 155.309 101.741C157.436 102.944 160.858 100.354 162.153 101.186C166.408 103.776 167.425 99.4289 167.425 99.4289C168.165 99.6139 170.292 97.3016 169.182 95.6368C169.182 95.6368 171.402 94.0644 169.09 91.1971C164.373 85.2777 150.407 84.0752 143.1 82.4104C135.793 80.7455 121.179 79.6356 126.821 68.999C128.486 65.7618 131.723 61.6922 131.723 61.5997" fill="white"/>
<path d="M141.157 104.423C140.695 104.423 140.232 104.423 139.77 104.331C120.254 102.481 106.01 93.2319 102.496 80.1906C99.721 69.739 104.531 58.8249 115.445 51.0556C115.722 50.8706 116.185 50.8706 116.37 51.2406C116.554 51.5181 116.554 51.9805 116.185 52.1655C105.733 59.5649 101.108 69.924 103.698 79.8206C107.028 92.307 120.809 101.094 139.77 102.944C143.007 103.221 145.689 102.296 148.094 101.556C150.869 100.631 153.181 99.7988 155.494 101.094C156.419 101.649 157.806 101.186 159.101 100.724C160.396 100.354 161.506 99.9839 162.338 100.446C163.448 101.094 164.373 101.371 165.113 101.001C166.223 100.539 166.593 99.1514 166.593 99.0589L166.778 98.4115L167.425 98.5965C167.518 98.5965 168.165 98.0415 168.442 97.3016C168.72 96.7466 168.627 96.2842 168.35 95.8217L167.98 95.2667L168.535 94.8968C168.535 94.8968 169.09 94.4343 169.182 93.6944C169.275 93.0469 168.997 92.307 168.35 91.4746C164.743 86.9425 154.939 85.1851 147.724 83.8902C145.874 83.5203 144.21 83.2428 142.73 82.9653C141.805 82.7803 140.88 82.5953 139.77 82.4104C134.22 81.3005 127.191 80.0056 125.156 75.751C124.231 73.7161 124.416 71.3113 125.896 68.5366C126.636 67.2417 128.024 64.8369 130.798 61.2297L130.891 61.0447C131.076 60.7672 131.538 60.6748 131.816 60.8597C132.093 61.0447 132.186 61.5072 132.001 61.7847C132.001 61.7847 131.908 61.8771 131.816 61.9696C129.133 65.4843 127.746 67.7966 127.099 69.0915C125.804 71.4963 125.619 73.4386 126.359 75.011C128.116 78.6182 134.96 79.9131 139.955 80.9305C141.065 81.1155 141.99 81.3005 142.915 81.4854C144.302 81.7629 146.059 82.1329 147.909 82.4104C155.679 83.7977 165.39 85.5551 169.367 90.4571C170.292 91.567 170.662 92.677 170.477 93.6944C170.385 94.4343 170.015 94.9893 169.737 95.3593C170.107 96.2842 169.922 97.3941 169.182 98.4115C168.813 98.9664 168.258 99.5214 167.61 99.7063C167.333 100.354 166.778 101.556 165.483 102.111C164.373 102.574 162.985 102.389 161.413 101.371C161.136 101.186 160.118 101.556 159.286 101.741C157.806 102.204 156.049 102.759 154.569 101.926C152.811 101.001 150.869 101.649 148.279 102.481C146.522 103.591 144.025 104.423 141.157 104.423Z" fill="#1B1C29"/>
<path d="M166.408 98.7815C164.835 96.8391 162.338 95.7292 159.841 96.0067C159.286 96.0992 159.286 97.0241 159.841 96.9316C162.153 96.7466 164.28 97.6716 165.76 99.4289C166.13 99.8914 166.778 99.2439 166.408 98.7815Z" fill="#1B1C29"/>
<path d="M168.258 94.0644C166.778 92.3995 164.65 91.3821 162.338 91.2896C161.783 91.2896 161.783 92.2145 162.338 92.2145C164.373 92.307 166.223 93.1395 167.61 94.7118C168.073 95.1743 168.72 94.5268 168.258 94.0644Z" fill="#1B1C29"/>
<path d="M146.152 37.5517C136.348 34.6845 128.393 36.9043 128.393 46.3385C128.393 46.3385 120.069 50.3156 126.636 55.4027C126.636 55.4027 123.214 63.172 134.498 63.542C145.782 63.912 149.112 46.616 149.112 46.616L146.152 37.5517Z" fill="#1B1C29"/>
<path d="M155.679 55.9576C153.181 55.9576 150.777 55.2177 148.649 53.7378L148.279 53.4604L147.909 53.7378C146.892 54.4778 145.597 54.9402 144.302 54.9402C142.822 54.9402 141.342 54.4778 140.14 53.5529C139.03 52.7204 138.568 51.4255 138.753 50.1307C139.123 48.4658 140.602 47.0784 142.915 46.5235L143.562 46.3385L143.47 45.691V45.5986C142.73 42.0839 143.377 38.3842 145.32 35.5169C146.984 33.1121 149.297 31.4473 152.071 30.8923C152.719 30.7998 153.459 30.7073 154.106 30.7073C158.083 30.7073 161.876 33.0196 164.095 36.8118C164.835 38.1067 165.39 39.5866 165.76 41.1589C166.593 45.0436 166.408 48.2808 165.39 50.6856C164.095 53.6454 161.321 55.4027 157.251 55.8652C156.604 55.9577 156.141 55.9576 155.679 55.9576Z" fill="white"/>
<path d="M153.921 31.4473C157.621 31.4473 161.228 33.6671 163.263 37.1818C164.003 38.3842 164.558 39.7716 164.835 41.2514C165.575 45.0436 165.483 48.0959 164.465 50.3157C163.263 53.0904 160.766 54.6628 156.881 55.1252C156.419 55.2177 156.049 55.2177 155.586 55.2177C153.274 55.2177 150.962 54.4778 149.019 53.1829L148.187 52.628L147.354 53.1829C146.429 53.8303 145.32 54.2003 144.117 54.2003C142.822 54.2003 141.435 53.7379 140.417 52.9979C139.493 52.3505 139.123 51.3331 139.308 50.3157C139.585 48.9283 140.972 47.7259 142.915 47.1709L144.21 46.801L143.932 45.5061V45.4136C143.285 42.0839 143.84 38.5692 145.689 35.8869C147.169 33.5746 149.482 32.0022 151.979 31.5398C152.719 31.5398 153.274 31.4473 153.921 31.4473ZM153.921 30.0599C153.181 30.0599 152.441 30.1524 151.701 30.2449C145.227 31.5398 141.157 38.5692 142.637 45.7835V45.876C137.458 47.2634 136.718 51.9805 139.678 54.1078C140.88 55.0327 142.545 55.5877 144.21 55.5877C145.597 55.5877 146.984 55.2177 148.279 54.2928C150.499 55.7727 153.089 56.6051 155.679 56.6051C156.141 56.6051 156.604 56.6051 157.159 56.5126C161.876 55.9577 164.558 53.8303 165.853 50.8706C167.055 48.0033 166.963 44.4887 166.223 40.974C165.853 39.3091 165.298 37.8293 164.465 36.4419C162.246 32.5572 158.176 30.0599 153.921 30.0599Z" fill="#1B1C29"/>
<path d="M162.246 33.5746C159.656 30.7074 155.586 29.505 151.794 30.2449C145.319 31.5398 141.25 37.5517 143.1 47.1709C146.984 46.5235 159.101 40.5115 162.246 33.5746Z" fill="#6045AF"/>
<path d="M158.671 44.0569C158.942 43.6241 158.811 43.0534 158.378 42.7821C157.945 42.5109 157.375 42.6419 157.103 43.0747C156.832 43.5075 156.963 44.0783 157.396 44.3495C157.829 44.6207 158.399 44.4898 158.671 44.0569Z" fill="#1B1C29"/>
<path d="M146.707 49.8532C144.95 48.5583 142.545 48.4658 140.88 49.8532C140.417 50.2232 140.972 50.9631 141.435 50.5931C142.822 49.4832 144.765 49.3907 146.152 50.5007C146.522 50.8706 147.169 50.2232 146.707 49.8532Z" fill="#1B1C29"/>
<path d="M163.91 48.5583C164.003 46.5235 163.725 44.3962 163.17 42.4539C162.985 41.8989 162.153 42.0839 162.246 42.6388C162.801 44.5812 162.985 46.5235 162.893 48.5583C162.985 49.1133 163.91 49.2058 163.91 48.5583Z" fill="#1B1C29"/>
</svg>
