<svg xmlns="http://www.w3.org/2000/svg" width="365" height="143" viewBox="0 0 365 143">
    <g fill="none" fill-rule="evenodd">
        <path stroke="#17C9B2" stroke-linecap="square" stroke-width="2" d="M51.5 141.5h238M34.5 141.5h12M296.5 141.25h20"/>
        <g fill="#D9E4EA" opacity=".509">
            <path d="M26.5 96h54a6.5 6.5 0 1 1 0 13h-54a6.5 6.5 0 1 1 0-13zM96.5 0h103a6.5 6.5 0 1 1 0 13h-103a6.5 6.5 0 1 1 0-13zM8 20h290a8 8 0 0 1 8 8v2a8 8 0 0 1-8 8H8a8 8 0 0 1-8-8v-2a8 8 0 0 1 8-8zM205 50h152a8 8 0 0 1 8 8v2a8 8 0 0 1-8 8H205a8 8 0 0 1-8-8v-2a8 8 0 0 1 8-8zM205 100h90a8 8 0 0 1 8 8v2a8 8 0 0 1-8 8h-90a8 8 0 0 1-8-8v-2a8 8 0 0 1 8-8zM149 124h146a8 8 0 0 1 8 8v2a8 8 0 0 1-8 8H149a8 8 0 0 1-8-8v-2a8 8 0 0 1 8-8zM39.5 73h209a6.5 6.5 0 1 1 0 13h-209a6.5 6.5 0 1 1 0-13z"/>
        </g>
        <g transform="translate(86 32)">
            <path fill="#FFF" stroke="#8459B9" d="M16.925 101H0c.627 4.2 2.194 6.9 4.701 8.1 2.508 1.2 61.747 1.2 177.717 0 4.388-1.2 6.582-3.9 6.582-8.1h-20.687"/>
            <path fill="#FFF" stroke="#8459B9" d="M16.5 20.5h161v81h-161z"/>
            <path fill="#EBF1F4" stroke="#8459B9" d="M22.5 25.5h149v71h-149z" opacity=".7"/>
            <path fill="#17C9B2" d="M83.54 14.009L80.218 3.253c-.277-.717 0-1.165.83-1.345 1.246-.268 6.645-2.15 16.196-1.882 6.368.18 10.936.897 13.704 2.151.831.359 1.108.717.831 1.076-.277.358-1.523 4.033-3.738 11.025 7.476 1.075 11.213 2.33 11.213 3.764 0 1.434-3.184 2.42-9.551 2.958H83.54c-7.475-.359-11.213-1.344-11.213-2.958 0-1.613 3.738-2.958 11.213-4.033z"/>
            <circle cx="111" cy="61" r="7" stroke="#17C9B2" stroke-width="2"/>
            <circle cx="85" cy="61" r="2" fill="#9D7BC7"/>
            <circle cx="111" cy="61" r="2" fill="#9D7BC7"/>
            <path stroke="#9D7BC7" stroke-linecap="square" d="M92.5 74.5h9"/>
            <path fill="#FFF" d="M82.065 4.593c-.043-1.062.13-1.58.518-1.556.519-.346 1.47-.691 2.852-1.037l2.815 11.148-3.111.519-3.074-9.074zM87 2l3 11h1V2z"/>
        </g>
        <g transform="translate(55 16)">
            <path fill="#858C8F" d="M187.784 42l-.784-.784L189.216 39l.784.784L187.784 42zm-3.568 0L182 39.784l.784-.784L185 41.216l-.784.784zm3.568 2L190 46.216l-.784.784L187 44.784l.784-.784zm-3.568 0l.784.784L182.784 47l-.784-.784L184.216 44z"/>
            <circle cx="246" cy="102" r="4" stroke="#858C8F" stroke-width="2"/>
            <circle cx="20" cy="11" r="4" stroke="#858C8F" stroke-width="2"/>
            <circle cx="33" cy="20" r="3" stroke="#858C8F" stroke-width="2"/>
            <path fill="#858C8F" d="M0 106v-2h15v2H0zm12 5v-2h12v2H12zm5-5v-2h6v2h-6zm-11 5v-2h5v2H6zM194 2V0h13v2h-13zm10 6V6h11v2h-11zm4-6V0h6v2h-6zm-10 6V6h4v2h-4z"/>
        </g>
        <path stroke="#17C9B2" stroke-dasharray="2" stroke-width="2" d="M197 100v14.431c1 5.713 4.667 8.569 11 8.569s10-3.157 11-9.47"/>
        <rect width="10" height="3" x="214" y="111" fill="#17C9B2" rx="1.5"/>
    </g>
</svg>
