<svg width="189" height="254" viewBox="0 0 189 254" fill="none" xmlns="http://www.w3.org/2000/svg">
<path d="M188.697 246.613H27.4463C27.4463 246.613 37.0854 176.281 120.406 180.283C191.719 183.714 188.697 246.613 188.697 246.613Z" fill="#6045AF"/>
<path d="M74.9893 152.02C84.2199 162.231 99.5771 178.568 108.808 197.928C116.078 213.204 117.875 230.358 120.571 248.084L160.761 247.267C160.761 247.267 159.454 241.141 153.817 239.098C148.263 236.975 144.423 232.482 140.584 206.015C136.745 179.63 113.709 144.178 99.8221 132.66C96.0645 129.556 92.7153 126.697 89.8563 124.328C84.3832 133.232 79.3187 142.462 74.9893 152.02Z" fill="white"/>
<path d="M119.999 248.737L119.917 248.166C119.59 246.123 119.345 244.163 119.018 242.121C116.731 226.437 114.607 211.57 108.236 198.091C99.5769 179.875 85.445 164.355 76.1327 154.062L74.2539 152.02L74.4173 151.693C78.5833 142.626 83.4029 133.559 89.366 123.919L89.7745 123.348L90.3463 123.838C93.2053 126.288 96.5545 129.066 100.312 132.17C114.036 143.524 137.316 178.732 141.237 205.933C145.158 233.135 149.243 236.729 154.062 238.527C159.862 240.732 161.332 246.859 161.332 247.185L161.496 247.921L119.999 248.737ZM75.7243 151.938L77.0313 153.409C86.4253 163.783 100.639 179.385 109.379 197.765C115.833 211.406 118.038 226.355 120.326 242.121C120.571 243.918 120.816 245.797 121.142 247.594L160.025 246.777C159.454 245.143 157.82 241.304 153.736 239.752C147.446 237.383 143.851 231.828 140.094 206.178C136.173 179.303 113.137 144.423 99.5769 133.15C96.0644 130.209 92.8786 127.595 90.1012 125.226C84.3831 134.457 79.7269 143.198 75.7243 151.938Z" fill="#1B1C29"/>
<path d="M146.056 230.603C136.907 231.992 127.676 233.054 118.527 234.932C119.181 239.262 119.834 243.673 120.488 248.166L160.678 247.349C160.678 247.349 159.371 241.222 153.735 239.18C150.794 237.955 148.343 236.158 146.056 230.603Z" fill="#1B1C29"/>
<path d="M146.628 233.217C144.995 234.116 143.443 235.259 142.136 236.566C141.727 236.893 142.299 237.465 142.707 237.138C144.014 235.831 145.485 234.769 147.037 233.952C147.445 233.707 147.119 232.972 146.628 233.217Z" fill="white"/>
<path d="M148.67 235.504C147.363 237.056 145.975 238.445 144.423 239.752C144.014 240.079 144.586 240.65 144.995 240.324C146.547 239.017 147.935 237.628 149.242 236.076C149.569 235.667 148.997 235.096 148.67 235.504Z" fill="white"/>
<path d="M60.1223 129.801C56.1196 142.953 49.9114 164.518 37.9034 182.326C28.4277 196.376 14.7042 206.669 0.817383 218.105L22.1378 252.25C22.1378 252.25 26.7122 248.003 25.6503 242.121C24.5884 236.24 26.5489 230.685 47.2974 213.857C68.046 197.03 86.6707 159.127 89.5297 141.319C90.2649 136.5 91.0001 132.17 91.5719 128.494C81.0342 128.331 70.4966 128.658 60.1223 129.801Z" fill="white"/>
<path d="M21.9739 253.23L0 218.023L0.408436 217.697C1.96049 216.39 3.59428 215.164 5.14633 213.857C17.4811 203.891 29.0807 194.416 37.4128 182.081C48.6856 165.335 54.8121 145.24 58.8148 131.925L59.6317 129.311L60.0401 129.229C69.9242 128.167 80.2169 127.677 91.5714 127.841H92.3065L92.2249 128.576C91.6531 132.252 90.9179 136.581 90.1827 141.401C87.4053 158.963 69.1074 197.03 47.787 214.347C26.385 231.665 25.4048 236.893 26.385 242.039C27.5286 248.166 22.8725 252.577 22.7091 252.74L21.9739 253.23ZM1.63374 218.268L22.2189 251.27C23.3625 249.963 25.8132 246.532 24.9963 242.284C23.771 235.668 26.7934 229.705 46.8885 213.449C67.9638 196.376 86.18 158.718 88.8757 141.319C89.6109 136.745 90.2644 132.66 90.8362 129.148C80.0535 129.066 70.0876 129.474 60.6119 130.536L60.0401 132.415C55.9557 145.812 49.8292 165.989 38.4747 182.898C30.0609 195.396 18.3797 204.953 5.9632 214.919C4.49284 215.899 3.02243 217.043 1.63374 218.268Z" fill="#1B1C29"/>
<path d="M28.9174 231.093C23.036 223.904 17.3995 216.553 11.1096 209.691C7.67877 212.468 4.2479 215.246 0.735352 218.105L22.0557 252.25C22.0557 252.25 26.6302 248.002 25.5683 242.121C24.9965 238.935 25.3232 235.913 28.9174 231.093Z" fill="#1B1C29"/>
<path d="M135.683 178.732C126.779 157.901 109.87 140.91 99.8227 132.66C96.0651 129.556 92.7159 126.697 89.8569 124.328C89.04 125.717 88.2231 127.024 87.4063 128.412C78.2573 128.412 69.1901 128.821 60.1228 129.801C56.5285 141.482 51.2189 159.78 41.7432 176.199C48.5232 183.388 64.6972 194.497 68.2098 195.641C75.8067 185.267 80.953 173.259 84.3839 162.476C91.409 170.563 99.2509 180.447 105.459 191.475C115.017 189.433 132.906 181.182 135.683 178.732Z" fill="white"/>
<path d="M68.4547 196.376L68.0463 196.213C64.207 194.987 47.8696 183.551 41.3346 176.608L41.0078 176.281L41.2529 175.873C50.1568 160.515 55.3848 143.279 58.8973 131.843L59.7142 129.229L60.1226 129.147C68.6998 128.249 77.522 127.759 87.1611 127.759C87.8963 126.452 88.7131 125.226 89.4483 123.919L89.8567 123.348L90.4286 123.838C93.2876 126.288 96.6368 129.066 100.394 132.17C106.276 137.071 126.371 154.879 136.418 178.487L136.582 178.895L136.255 179.222C133.233 181.836 115.098 190.086 105.704 192.128L105.296 192.21L105.051 191.802C98.679 180.365 90.5103 170.399 84.7922 163.701C80.7078 176.281 75.3165 187.145 68.8632 195.968L68.4547 196.376ZM42.4782 176.118C49.2582 183.143 63.9619 193.272 67.9646 194.906C74.4179 185.92 79.7276 174.974 83.8119 162.312L84.1386 161.251L84.8738 162.067C90.6736 168.766 99.0874 178.895 105.786 190.821C115.261 188.616 131.517 181.1 134.948 178.568C124.901 155.451 105.296 137.97 99.4142 133.15C95.9016 130.209 92.7158 127.595 89.9385 125.226C89.2033 126.37 88.5497 127.514 87.8146 128.739L87.6512 129.066H87.3245C77.7671 129.066 69.0265 129.556 60.5311 130.454L59.9592 132.252C56.5284 143.606 51.3004 160.76 42.4782 176.118Z" fill="#1B1C29"/>
<path d="M26.9563 232.972C25.3226 231.991 23.6072 231.256 21.8101 230.766C21.3199 230.603 21.0749 231.42 21.565 231.501C23.3621 231.991 24.9959 232.645 26.5479 233.625C27.038 233.87 27.4465 233.217 26.9563 232.972Z" fill="white"/>
<path d="M26.0581 235.831C24.0976 235.504 22.1371 235.014 20.2583 234.36C19.7682 234.197 19.5231 234.932 20.0132 235.096C21.892 235.749 23.8526 236.239 25.8131 236.566C26.3849 236.729 26.6299 235.912 26.0581 235.831Z" fill="white"/>
<path d="M85.1991 160.597C85.1174 160.597 85.1174 160.597 85.0357 160.597C84.7089 160.515 84.5456 160.189 84.6273 159.862C86.9145 152.02 87.4046 147.935 87.4046 147.854L87.4863 147.445L87.8947 147.364C87.8947 147.364 90.9989 146.628 93.2044 145.567C93.5312 145.403 93.8579 145.567 94.0213 145.893C94.1847 146.22 94.0213 146.547 93.6945 146.71C91.8974 147.609 89.5285 148.262 88.5482 148.507C88.3849 149.733 87.7313 153.654 85.7709 160.27C85.6892 160.434 85.4441 160.597 85.1991 160.597Z" fill="#1B1C29"/>
<path d="M55.9563 194.905C55.1394 196.376 54.8943 198.091 55.2211 199.725C55.3028 200.215 56.1196 200.052 55.9563 199.48C55.6295 198.01 55.8746 196.539 56.6098 195.232C56.9365 194.905 56.283 194.497 55.9563 194.905Z" fill="#1B1C29"/>
<path d="M133.803 191.557C132.578 191.066 131.516 190.25 130.781 189.106C130.536 188.698 129.8 189.106 130.127 189.514C130.944 190.821 132.169 191.802 133.64 192.292C134.13 192.455 134.293 191.72 133.803 191.557Z" fill="#1B1C29"/>
<path d="M153.652 58.9783C153.652 58.9783 154.878 56.3643 151.365 55.7925C149.732 55.5474 146.056 56.2009 142.461 57.6713L142.135 56.3643C142.135 56.3643 144.912 53.0151 142.543 51.7898C139.929 50.4011 135.681 58.8149 133.803 63.7978C133.557 64.2062 133.312 64.6964 133.149 65.1865C131.107 71.2314 127.268 93.1235 113.707 91.8166C106.111 91.0814 107.908 85.6083 99.8207 78.3382L86.7507 83.8929C75.968 100.802 99.6573 123.756 123.837 113.79C139.276 107.419 142.706 74.3355 146.056 72.2116C152.182 68.2906 156.512 67.5555 154.878 63.226C154.878 63.1444 156.43 61.5106 153.652 58.9783Z" fill="white"/>
<path d="M111.911 116.731C102.109 116.731 93.5317 111.993 88.7121 106.193C82.7489 99.0866 81.7687 90.3461 86.1798 83.4844L86.2615 83.321L99.9033 77.5212L100.23 77.7663C103.661 80.8704 105.295 83.5661 106.683 85.8533C108.48 88.8757 109.624 90.6729 113.708 91.0813C124.818 92.1432 129.147 76.6226 131.434 68.2905C131.843 66.9019 132.17 65.7583 132.415 64.8597C132.578 64.3696 132.823 63.9612 133.068 63.471C133.232 63.0626 137.398 52.4432 140.992 51.1362C141.564 50.8912 142.136 50.9729 142.707 51.218C143.361 51.5447 143.769 52.1165 143.933 52.77C144.259 54.1587 143.197 55.8741 142.707 56.4459L142.789 56.8543C146.22 55.629 149.651 54.8938 151.366 55.2206C152.673 55.4657 153.572 55.9558 154.062 56.7727C154.47 57.5079 154.389 58.3247 154.225 58.8149C155.205 59.7951 155.777 60.857 155.777 61.8373C155.777 62.4908 155.614 62.9809 155.451 63.3076C156.594 66.9019 153.898 68.3722 150.304 70.3327C149.079 70.9862 147.772 71.7214 146.302 72.7017C145.485 73.2735 144.259 77.2762 143.034 81.6056C139.767 92.8784 134.865 109.869 124.001 114.362C119.917 115.996 115.832 116.731 111.911 116.731ZM87.16 84.3013C83.0757 90.8362 84.0559 98.6782 89.6924 105.458C96.2273 113.218 109.624 118.937 123.593 113.218C133.967 108.971 138.786 92.3066 141.972 81.2788C143.688 75.3157 144.586 72.4566 145.73 71.7214C147.2 70.7412 148.589 70.006 149.814 69.3525C153.98 67.0653 155.287 66.1667 154.307 63.471L154.144 63.1443L154.389 62.8992C154.389 62.8175 155.451 61.6739 153.163 59.5501L152.837 59.2233L153 58.8149C153 58.8149 153.327 58.0797 153 57.4262C152.755 56.936 152.101 56.6093 151.203 56.4459C149.814 56.2008 146.383 56.7727 142.626 58.243L141.972 58.4881L141.4 56.2009L141.564 55.9558C141.972 55.4657 142.952 53.9953 142.789 53.0151C142.707 52.6883 142.544 52.4433 142.217 52.2799C142.135 52.1982 141.89 52.1165 141.564 52.2799C139.685 53.0151 136.826 57.9163 134.865 62.6542L134.294 64.0429C134.048 64.4513 133.803 64.8597 133.64 65.2682C133.395 66.085 133.068 67.2286 132.66 68.6173C130.291 77.0311 126.043 92.3883 114.852 92.3883C114.444 92.3883 114.035 92.3883 113.627 92.3066C108.889 91.8165 107.5 89.6109 105.621 86.5068C104.314 84.383 102.762 81.8507 99.6582 78.9916L87.16 84.3013Z" fill="#1B1C29"/>
<path d="M115.75 101.21C115.178 98.1064 114.852 94.9205 114.443 91.7347C114.198 91.7347 113.953 91.7347 113.626 91.7347C106.029 90.9995 107.827 85.5265 99.7395 78.2563L86.6696 83.8111C76.8671 99.2499 96.1453 118.12 117.956 113.79C117.302 109.624 116.485 105.377 115.75 101.21Z" fill="#1B1C29"/>
<path d="M152.265 58.2428C149.978 58.4062 147.772 58.978 145.73 59.9582C145.24 60.2033 145.648 60.8568 146.138 60.6934C148.099 59.7948 150.141 59.3047 152.265 59.1414C152.837 58.978 152.837 58.1611 152.265 58.2428Z" fill="#1B1C29"/>
<path d="M153.735 61.8373C151.285 61.919 149.079 62.7358 147.118 64.2062C146.71 64.5329 147.118 65.2681 147.527 64.9414C149.324 63.5527 151.448 62.8175 153.735 62.6541C154.225 62.5725 154.225 61.7556 153.735 61.8373Z" fill="#1B1C29"/>
<path d="M48.2796 101.619L41.2545 83.1578C40.7644 81.8508 41.4179 80.2988 42.7249 79.8087L53.8344 75.5609C55.1414 75.0708 56.6934 75.7243 57.1835 77.0313L64.2087 95.4926C64.6988 96.7996 64.0453 98.3516 62.7383 98.8418L51.6288 103.09C50.2401 103.661 48.7698 103.008 48.2796 101.619Z" fill="white"/>
<path d="M50.648 103.907C50.2396 103.907 49.7495 103.825 49.3411 103.661C48.5242 103.335 47.9524 102.681 47.6257 101.864L40.6005 83.403C39.947 81.7693 40.7639 79.8905 42.4793 79.237L53.5888 74.9892C54.4057 74.6625 55.2226 74.7442 56.0394 75.071C56.8563 75.3977 57.4281 76.0512 57.7548 76.868L64.78 95.3294C65.1067 96.1462 65.025 96.9631 64.6983 97.78C64.3715 98.5969 63.718 99.1687 62.9011 99.4954L51.7917 103.743C51.4649 103.825 51.0565 103.907 50.648 103.907ZM54.7324 76.0512C54.4873 76.0512 54.2423 76.1329 53.9973 76.2146L42.8878 80.4623C41.9075 80.8707 41.3357 82.0143 41.7442 82.9946L48.7692 101.456C48.9326 101.946 49.3411 102.354 49.8312 102.518C50.3213 102.763 50.8114 102.763 51.3833 102.6L62.4927 98.3518C62.9828 98.1884 63.3913 97.78 63.5547 97.2898C63.7997 96.7997 63.7997 96.3096 63.6363 95.7378L56.6112 77.2765C56.4479 76.7864 56.0394 76.3779 55.5493 76.2146C55.2225 76.1329 54.9775 76.0512 54.7324 76.0512Z" fill="#1B1C29"/>
<path d="M49.0147 98.5967L43.7868 85.0366C43.2966 83.7296 43.9501 82.1776 45.2571 81.6874L53.0174 78.7467C54.3244 78.2566 55.8764 78.9101 56.3666 80.2171L61.5946 93.7771C62.0847 95.0841 61.4312 96.6362 60.1242 97.1263L52.3639 100.067C50.9752 100.557 49.5048 99.9037 49.0147 98.5967Z" fill="#1B1C29"/>
<path d="M51.3831 100.884C50.0761 100.884 48.8508 100.067 48.3607 98.8418L43.1328 85.2818C42.4793 83.648 43.2961 81.7692 45.0116 81.1157L52.7718 78.175C54.4056 77.5215 56.2844 78.3384 56.9379 80.0538L62.1659 93.6138C62.4926 94.4307 62.4109 95.2476 62.0841 96.0645C61.7574 96.8813 61.1039 97.4532 60.2871 97.7799L52.5268 100.721C52.2 100.802 51.7916 100.884 51.3831 100.884ZM49.586 98.3517C49.9945 99.332 51.1381 99.9038 52.1183 99.4953L59.8786 96.5546C60.3688 96.3912 60.7772 95.9828 60.9406 95.4927C61.1856 95.0026 61.1856 94.5124 61.0222 93.9406L55.7943 80.3806C55.3858 79.4003 54.2422 78.8285 53.2619 79.2369L45.5017 82.1776C44.5214 82.5861 43.9496 83.7297 44.3581 84.71L49.586 98.3517Z" fill="#1B1C29"/>
<path d="M46.8098 92.8785L54.2433 78.5833C53.8348 78.5833 53.4264 78.5833 53.0996 78.7466L45.3393 81.6874C44.0324 82.1775 43.2972 83.7295 43.869 85.0365L46.8098 92.8785Z" fill="white"/>
<path d="M46.7273 94.3489L43.2148 85.1999C42.5613 83.5661 43.3782 81.6874 45.0936 81.0339L52.8539 78.0931C53.344 77.9297 53.8341 77.8481 54.3242 77.9298L55.2228 78.0114L46.7273 94.3489ZM53.0989 79.3184L45.502 82.2592C44.5218 82.6676 43.95 83.8112 44.3584 84.7915L46.8907 91.3264L53.0989 79.3184Z" fill="#1B1C29"/>
<path d="M85.5274 85.6085V114.362C85.5274 122.368 79.0741 128.821 71.0688 128.821H55.7116C47.7062 128.821 41.2529 122.368 41.2529 114.362V85.6085L57.3453 94.8392V71.1499H71.0688C78.9924 71.1499 85.5274 77.6032 85.5274 85.6085Z" fill="#6045AF"/>
<path d="M41.4992 149.161C41.1725 149.161 40.8457 148.916 40.8457 148.508V117.875C40.8457 114.608 43.5414 111.912 46.8089 111.912C49.4229 111.912 51.5468 109.788 51.5468 107.174V88.631C51.5468 88.3043 51.7918 87.9775 52.2002 87.9775C52.6087 87.9775 52.8537 88.2226 52.8537 88.631V107.174C52.8537 110.442 50.1581 113.137 46.8906 113.137C44.2766 113.137 42.1527 115.261 42.1527 117.875V148.508C42.071 148.916 41.826 149.161 41.4992 149.161Z" fill="#1B1C29"/>
<path d="M43.1327 146.955H39.8652V150.223H43.1327V146.955Z" fill="#1B1C29"/>
<path d="M71.397 75.234H61.5129C61.1862 75.234 60.8594 74.9889 60.8594 74.5805C60.8594 74.1721 61.1045 73.927 61.5129 73.927H71.397C71.7238 73.927 72.0505 74.1721 72.0505 74.5805C72.0505 74.9889 71.7238 75.234 71.397 75.234Z" fill="white"/>
<path d="M87.4869 76.4599C79.1548 78.5838 72.6198 82.5865 67.5552 89.775C67.9636 90.2651 68.127 90.8369 67.9636 91.5721C65.9214 99.8225 53.9951 135.683 53.9951 135.52L100.23 133.151C100.148 133.233 119.1 68.4546 87.4869 76.4599Z" fill="#1B1C29"/>
<path d="M53.995 136.173H53.2598C53.2598 136.173 65.3495 99.5771 67.31 91.4084C67.3917 90.9182 67.31 90.5098 67.0649 90.1013L66.7382 89.7746L66.9832 89.3662C71.9661 82.4228 78.4194 78.0933 87.3233 75.8061C93.2865 74.3357 97.9427 75.2343 101.128 78.5835C112.973 90.8365 101.21 131.598 100.72 133.314L100.638 133.722L53.995 136.173ZM68.2902 89.7746C68.617 90.3464 68.6987 90.9999 68.5353 91.7351C67.4733 95.9828 63.7974 107.746 60.775 116.813C57.0174 128.494 55.4653 133.069 54.8118 134.866L99.7398 132.579C100.965 128.168 111.013 90.5915 100.312 79.482C97.4526 76.4596 93.1231 75.6427 87.6501 77.0314L87.4867 76.4596L87.6501 77.0314C79.1546 79.2369 73.0281 83.2396 68.2902 89.7746Z" fill="#1B1C29"/>
<path d="M105.703 95.4928C105.376 95.4928 105.131 95.2477 105.131 94.921C105.131 94.8393 104.722 90.1831 104.151 87.1607C104.069 86.834 104.314 86.5072 104.641 86.4255C104.967 86.3438 105.294 86.5889 105.376 86.9157C105.948 90.0198 106.356 94.6759 106.356 94.8393C106.274 95.166 106.029 95.4928 105.703 95.4928Z" fill="white"/>
<path d="M72.7015 76.2965C70.741 75.5613 69.9241 78.6654 71.803 79.4823C77.276 81.6878 80.9519 86.5891 82.9124 91.9804C85.1996 98.2703 84.1377 103.743 79.7266 108.726C72.4565 116.895 61.7554 122.858 50.7277 122.858C48.6038 122.858 48.6038 126.126 50.7277 126.126C63.6342 126.207 78.583 118.12 85.1997 106.847C91.5713 95.8197 83.6476 80.6259 72.7015 76.2965Z" fill="#6045AF"/>
<path d="M67.5556 89.7743C55.2208 107.664 82.9945 129.964 110.605 119.427C128.249 112.728 133.15 83.4843 136.091 80.0535C141.074 74.0086 147.609 71.7214 145.812 67.0652C145.812 67.0652 146.547 63.9611 143.606 62.8992C143.851 61.4288 141.482 59.7951 139.277 61.5105C137.97 62.5724 136.418 64.4512 131.598 64.778C126.779 65.1864 122.858 67.637 121.387 72.1298C119.345 78.6648 113.872 97.1261 98.4333 97.943C82.0959 98.8416 79.5636 89.2025 79.5636 89.2025L67.5556 89.7743Z" fill="white"/>
<path d="M95.9004 122.858C83.9741 122.858 73.7632 117.548 68.2084 110.523C62.8988 103.743 62.4086 96.0642 66.9831 89.4476L67.1465 89.2025L79.8897 88.7941L80.0531 89.2842C80.1348 89.6926 82.6671 98.4332 98.351 97.6163C113.055 96.8811 118.609 79.3184 120.652 72.7017L120.815 72.2116C122.285 67.6371 126.125 64.778 131.516 64.3696C135.519 64.0429 137.152 62.6542 138.378 61.5923C138.541 61.4289 138.704 61.3472 138.868 61.1838C140.338 60.0402 141.89 60.2036 142.871 60.7754C143.606 61.1838 144.177 61.919 144.259 62.6542C146.465 63.7161 146.71 65.9217 146.465 67.147C147.69 70.4962 145.076 72.7017 141.89 75.4791C140.257 76.9495 138.296 78.5015 136.662 80.5437C136.009 81.2788 135.192 83.8112 134.048 86.997C130.699 96.7994 124.409 114.934 110.931 120.08C105.703 121.959 100.72 122.858 95.9004 122.858ZM67.8817 90.3461C63.7974 96.4727 64.2875 103.498 69.1887 109.706C76.4588 118.937 93.3681 125.308 110.359 118.855C123.347 113.954 129.474 96.0643 132.741 86.5069C133.967 82.9943 134.784 80.6254 135.519 79.6451C137.316 77.5213 139.195 75.8875 140.91 74.4171C144.341 71.4764 146.138 69.8427 145.076 67.3104L144.994 67.147L145.076 66.9836C145.158 66.7385 145.566 64.4513 143.279 63.5527L142.789 63.3894L142.871 62.8992C142.952 62.4908 142.625 62.0824 142.135 61.7556C141.809 61.5922 140.747 61.1021 139.521 62.0824C139.358 62.1641 139.195 62.3274 139.031 62.4908C137.806 63.5527 135.927 65.1865 131.434 65.5132C126.533 65.9217 123.021 68.454 121.795 72.4567L121.632 72.9468C119.508 79.8085 113.79 97.9431 98.2694 98.7599C83.484 99.5768 79.6447 91.9799 78.9095 90.0194L67.8817 90.3461Z" fill="#1B1C29"/>
<path d="M84.2192 111.666C86.098 107.01 87.7318 102.109 89.9373 97.5342C81.0334 95.492 79.3997 89.3655 79.3997 89.3655L67.4733 89.7739C59.7947 100.883 67.6367 113.708 81.1968 119.263C82.2587 116.731 83.239 114.198 84.2192 111.666Z" fill="#1B1C29"/>
<path d="M139.604 66.7383C138.379 64.5327 135.274 66.9833 134.948 68.8621C132.415 68.4537 130.046 69.679 128.903 71.9662C128.658 72.4564 129.393 72.8648 129.638 72.3747C130.7 70.2508 132.987 69.1072 135.274 69.679C135.519 69.7607 135.846 69.5973 135.765 69.2706C135.683 68.5354 138.379 64.7778 139.032 67.8002C139.114 68.372 138.46 69.8424 138.215 70.2508C137.48 71.5578 136.418 72.5381 135.193 73.3549C134.703 73.6 135.111 74.3352 135.601 74.0901C137.562 72.9465 141.074 69.3523 139.604 66.7383Z" fill="#1B1C29"/>
<path d="M142.708 63.7161C141.156 64.1246 139.849 64.9414 138.95 66.2484C138.624 66.6568 139.277 67.2287 139.604 66.7386C140.421 65.5949 141.483 64.7781 142.871 64.4513C143.28 64.3696 143.198 63.5527 142.708 63.7161Z" fill="#1B1C29"/>
<path d="M144.423 66.5752C141.727 66.5752 139.848 69.1892 138.051 70.9863C137.643 71.3948 138.296 71.9665 138.623 71.5581C140.175 70.006 141.972 67.4738 144.423 67.3921C144.995 67.3921 144.995 66.5752 144.423 66.5752Z" fill="#1B1C29"/>
<path d="M79.8906 119.917C79.8089 119.917 79.7272 119.917 79.6455 119.835C74.8259 117.466 70.9866 114.526 66.7389 107.582C66.5755 107.255 66.6572 106.929 66.984 106.765C67.3107 106.602 67.6375 106.684 67.8008 107.01C71.8852 113.79 75.3978 116.486 80.2173 118.855C80.5441 119.018 80.6257 119.345 80.4624 119.672C80.299 119.754 80.1356 119.917 79.8906 119.917Z" fill="white"/>
<path d="M60.0402 27.5014L53.9365 29.8357L56.2708 35.9394L62.3745 33.6051L60.0402 27.5014Z" fill="#65A300"/>
<path d="M31.6123 68.2904L43.7837 53.4233C43.7837 53.4233 50.9722 61.347 44.6006 68.0453C38.229 74.5803 31.6123 68.2904 31.6123 68.2904Z" fill="#1B1C29"/>
<path d="M48.6035 67.2285L54.9752 64.2061L54.3216 71.7213L48.6035 67.2285Z" fill="#1B1C29"/>
<path d="M96.146 8.74044L94.1855 0.735107L102.518 3.26739L96.146 8.74044Z" fill="#1B1C29"/>
<path d="M36.0243 35.3705C36.0243 40.1901 32.1034 44.1928 27.2021 44.1928C22.3826 44.1928 18.3799 41.6605 18.3799 35.3705C18.3799 30.551 22.3009 26.5483 27.2021 26.5483C32.1034 26.63 36.0243 30.551 36.0243 35.3705Z" fill="white"/>
<path d="M27.2837 44.7646C21.3205 44.7646 17.8896 41.3338 17.8896 35.3706C17.8896 30.2243 22.1374 25.9766 27.2837 25.9766C32.43 25.9766 36.6777 30.2243 36.6777 35.3706C36.6777 40.5169 32.43 44.7646 27.2837 44.7646ZM27.2837 27.2019C22.7909 27.2019 19.115 30.8778 19.115 35.3706C19.115 42.4774 24.2612 43.5393 27.2837 43.5393C31.7765 43.5393 35.4524 39.8634 35.4524 35.3706C35.4524 30.8778 31.7765 27.2019 27.2837 27.2019Z" fill="#1B1C29"/>
<path d="M75.7252 4.90119C75.7252 7.27012 73.7647 9.2306 71.3958 9.2306C69.0269 9.2306 67.0664 8.0053 67.0664 4.90119C67.0664 2.53226 69.0269 0.571777 71.3958 0.571777C73.7647 0.571777 75.7252 2.53226 75.7252 4.90119Z" fill="white"/>
<path d="M71.3954 9.80246C68.2913 9.80246 66.4941 8.00534 66.4941 4.90123C66.4941 2.20555 68.6997 0 71.3954 0C74.091 0 76.2966 2.20555 76.2966 4.90123C76.2966 7.59691 74.091 9.80246 71.3954 9.80246ZM71.3954 1.22531C69.3532 1.22531 67.7194 2.85905 67.7194 4.90123C67.7194 7.92366 69.7616 8.57716 71.3954 8.57716C73.4376 8.57716 75.0713 6.94341 75.0713 4.90123C75.0713 2.85905 73.4376 1.22531 71.3954 1.22531Z" fill="#1B1C29"/>
<path d="M137.562 42.6405C137.562 45.4996 135.275 47.7868 132.416 47.7868C129.557 47.7868 127.27 46.3164 127.27 42.6405C127.27 39.7815 129.557 37.4942 132.416 37.4942C135.193 37.4126 137.562 39.7815 137.562 42.6405Z" fill="#1B1C29"/>
<path d="M47.2148 48.1954L63.3072 41.4971L62.0002 59.4683L47.2148 48.1954Z" fill="#65A300"/>
<path d="M69.2709 44.5194C69.1075 44.5194 68.9441 44.4377 68.7808 44.2743C68.5357 44.0293 68.6174 43.6208 68.8625 43.3757L73.1102 39.7815C73.3552 39.5365 73.7637 39.6181 74.0088 39.8632C74.2538 40.1082 74.1721 40.5167 73.9271 40.7618L69.6794 44.356C69.5977 44.5194 69.4343 44.5194 69.2709 44.5194Z" fill="#1B1C29"/>
<path d="M29.2442 62.4092C29.1625 62.4092 28.9991 62.4092 28.9174 62.3275L24.0162 59.3868C23.6894 59.2234 23.6078 58.815 23.7711 58.5699C23.9345 58.2432 24.343 58.1615 24.588 58.3249L29.4892 61.2656C29.816 61.4289 29.8977 61.8374 29.7343 62.0824C29.6526 62.3275 29.4893 62.4092 29.2442 62.4092Z" fill="#1B1C29"/>
<path d="M46.4806 33.9816C46.1539 33.9816 45.8271 33.7366 45.8271 33.3281V30.224C45.8271 29.8973 46.0722 29.5706 46.4806 29.5706C46.8891 29.5706 47.1341 29.8156 47.1341 30.224V33.3281C47.1341 33.6549 46.8074 33.9816 46.4806 33.9816Z" fill="#1B1C29"/>
<path d="M31.6131 80.7071C31.3681 80.7071 31.123 80.5437 31.0413 80.2986C30.9596 79.9719 31.123 79.6452 31.4498 79.5635L37.9031 77.6846C38.2298 77.6029 38.5566 77.7663 38.6383 78.0931C38.72 78.4198 38.5566 78.7466 38.2298 78.8283L31.7765 80.7071C31.6948 80.7071 31.6131 80.7071 31.6131 80.7071Z" fill="#1B1C29"/>
<path d="M61.5113 67.5554C61.1845 67.5554 60.9395 67.3103 60.9395 66.9836C60.9395 66.6568 61.1845 66.3301 61.5113 66.3301L65.5956 65.9216C65.9224 65.9216 66.2491 66.1667 66.2491 66.4935C66.2491 66.8202 66.004 67.1469 65.6773 67.1469L61.5113 67.5554C61.593 67.5554 61.5113 67.5554 61.5113 67.5554Z" fill="#1B1C29"/>
<path d="M91.8985 20.9118C91.7352 20.9118 91.5718 20.8302 91.4901 20.7485L88.6311 17.6443C88.386 17.3993 88.386 16.9909 88.6311 16.7458C88.8761 16.5007 89.2846 16.5007 89.5297 16.7458L92.3887 19.8499C92.6338 20.095 92.6338 20.5034 92.3887 20.7485C92.1436 20.8302 91.9802 20.9118 91.8985 20.9118Z" fill="#1B1C29"/>
<path d="M97.4531 33.9818H93.6955C93.3687 33.9818 93.042 33.7367 93.042 33.3283C93.042 32.9199 93.287 32.6748 93.6955 32.6748H97.4531C97.7799 32.6748 98.1066 32.9199 98.1066 33.3283C98.1066 33.7367 97.7799 33.9818 97.4531 33.9818Z" fill="#1B1C29"/>
<path d="M108.332 4.88956L94.4697 18.7522L108.332 32.6148L122.195 18.7522L108.332 4.88956Z" fill="#65A300"/>
<path d="M128.821 52.4433C128.657 52.4433 128.576 52.3616 128.412 52.2799L126.778 50.8913C126.533 50.6462 126.452 50.3195 126.697 49.9927C126.942 49.666 127.269 49.6659 127.595 49.911L129.229 51.2997C129.474 51.5448 129.556 51.8715 129.311 52.1983C129.229 52.3617 129.066 52.4433 128.821 52.4433Z" fill="#1B1C29"/>
<path d="M133.722 26.9566C133.558 26.9566 133.477 26.9567 133.395 26.875C133.15 26.7116 133.068 26.3032 133.231 26.0581L135.519 22.7906C135.682 22.5456 136.091 22.4639 136.336 22.6272C136.581 22.7906 136.662 23.199 136.499 23.4441L134.212 26.7116C134.13 26.875 133.967 26.9566 133.722 26.9566Z" fill="#1B1C29"/>
<path d="M103.743 20.8305C103.579 20.8305 103.416 20.7488 103.334 20.6671C103.089 20.422 103.089 20.0136 103.334 19.7685L109.297 13.8054C109.542 13.5603 109.951 13.5603 110.196 13.8054C110.441 14.0504 110.441 14.4589 110.196 14.7039L104.233 20.6671C104.069 20.7488 103.906 20.8305 103.743 20.8305Z" fill="white"/>
<path d="M106.765 23.7709C106.602 23.7709 106.438 23.6892 106.357 23.6076C106.112 23.3625 106.112 22.954 106.357 22.709L112.32 16.7458C112.565 16.5007 112.973 16.5007 113.218 16.7458C113.463 16.9909 113.463 17.3993 113.218 17.6443L107.255 23.6076C107.092 23.6892 106.928 23.7709 106.765 23.7709Z" fill="white"/>
<path d="M30.5513 39.2915C30.388 39.2915 30.2246 39.2098 30.1429 39.1282L23.4445 32.4298C23.1995 32.1847 23.1995 31.7763 23.4445 31.5312C23.6896 31.2861 24.0981 31.2861 24.3431 31.5312L31.0414 38.2296C31.2865 38.4746 31.2865 38.8831 31.0414 39.1282C30.8781 39.2915 30.7147 39.2915 30.5513 39.2915Z" fill="#1B1C29"/>
<path d="M23.934 39.2915C23.7707 39.2915 23.6073 39.2098 23.5256 39.1282C23.2805 38.8831 23.2805 38.4746 23.5256 38.2296L30.2239 31.5312C30.469 31.2861 30.8774 31.2861 31.1225 31.5312C31.3676 31.7763 31.3676 32.1847 31.1225 32.4298L24.4241 39.1282C24.2608 39.2915 24.0974 39.2915 23.934 39.2915Z" fill="#1B1C29"/>
<path d="M94.5927 54.0772C90.9985 49.5844 83.6466 47.4606 78.9904 50.9731C74.3343 54.4857 73.6807 61.5924 77.6017 66.8204C77.6017 66.8204 77.6018 66.8204 77.6834 66.9021C77.1933 67.3106 76.7849 67.719 76.5398 68.1274C74.4159 70.9048 75.6412 74.0906 78.4186 74.6624C80.8692 75.1525 83.9733 74.2539 85.362 71.5583C88.0577 71.9667 90.9168 71.4766 93.204 70.0062C100.229 65.5134 98.6771 59.2235 94.5927 54.0772Z" fill="white"/>
<path d="M79.6453 75.3974C79.1552 75.3974 78.6651 75.3157 78.2566 75.234C76.7863 74.9072 75.5609 73.927 75.0708 72.62C74.499 71.068 74.8257 69.2708 75.9694 67.8005C76.2144 67.4737 76.4595 67.1469 76.7862 66.8202C73.0286 61.3472 73.7638 54.1587 78.5834 50.4828C83.648 46.6435 91.3266 49.0941 95.0025 53.6686C96.963 56.1192 99.1686 59.7951 98.5151 63.7161C98.1066 66.3301 96.3912 68.6173 93.4504 70.4145C91.1632 71.8848 88.3859 72.4566 85.6085 72.1299C84.2198 74.4171 81.8508 75.3974 79.6453 75.3974ZM84.5465 49.8293C82.6677 49.8293 80.8706 50.3194 79.3186 51.463C74.9075 54.8122 74.3356 61.5106 78.0115 66.4935L78.3383 66.9836L77.9299 67.392C77.5214 67.8005 77.113 68.1272 76.868 68.5357C75.9694 69.761 75.7243 71.068 76.1327 72.2116C76.5412 73.1918 77.358 73.8453 78.42 74.0904C80.5438 74.4988 83.4029 73.8453 84.7099 71.313L84.955 70.9046L85.3634 70.9863C87.9774 71.3947 90.6731 70.9045 92.797 69.5159C95.4109 67.8821 96.8813 65.9217 97.2897 63.6344C97.8616 60.2036 95.8194 56.7727 94.0223 54.5671C91.8984 51.7081 88.1408 49.8293 84.5465 49.8293Z" fill="#1B1C29"/>
<path d="M88.0852 59.8743C88.5226 59.7639 88.7878 59.3198 88.6774 58.8824C88.5671 58.445 88.123 58.1798 87.6856 58.2902C87.2482 58.4005 86.983 58.8446 87.0934 59.282C87.2037 59.7195 87.6478 59.9846 88.0852 59.8743Z" fill="#1B1C29"/>
<path d="M94.6759 58.4062C93.3689 57.0992 91.9802 56.0373 90.3465 55.1387C89.8564 54.8937 89.4479 55.5472 89.938 55.8739C91.4901 56.6908 92.8788 57.7527 94.1041 59.0597C94.5125 59.3048 95.0843 58.733 94.6759 58.4062Z" fill="#1B1C29"/>
<path d="M82.3403 68.5357C80.4615 68.1272 78.501 69.0258 77.6841 70.7412C77.439 71.2313 78.1742 71.6397 78.4192 71.1496C79.0727 69.7609 80.6248 68.9441 82.1769 69.2708C82.5853 69.4342 82.8304 68.6174 82.3403 68.5357Z" fill="#1B1C29"/>
<path d="M85.935 51.0546C84.5463 53.3419 76.8677 59.6318 81.1155 63.226C82.1774 64.1246 83.1576 64.3697 82.5858 65.6767C81.7689 66.902 80.5436 66.3302 80.5436 66.3302C78.9916 67.0653 77.848 67.147 77.1128 68.0456C69.8426 68.1273 70.6595 61.2655 72.2115 59.305C72.2115 59.305 69.3525 50.8913 76.1325 50.4828C76.1325 50.4828 79.3183 40.8437 84.2196 42.4775C90.5095 44.683 85.935 51.0546 85.935 51.0546Z" fill="#1B1C29"/>
</svg>
