<svg width="365" height="145" viewBox="0 0 365 145" fill="none" xmlns="http://www.w3.org/2000/svg">
<path d="M51.5 141.5H289.5M34.5 141.5H46.5M296.5 141.25H316.5" stroke="#65A300" stroke-width="2" stroke-linecap="square"/>
<g opacity="0.509">
<path opacity="0.509" fill-rule="evenodd" clip-rule="evenodd" d="M26.5 96H80.5C82.2239 96 83.8772 96.6848 85.0962 97.9038C86.3152 99.1228 87 100.776 87 102.5C87 104.224 86.3152 105.877 85.0962 107.096C83.8772 108.315 82.2239 109 80.5 109H26.5C24.7761 109 23.1228 108.315 21.9038 107.096C20.6848 105.877 20 104.224 20 102.5C20 100.776 20.6848 99.1228 21.9038 97.9038C23.1228 96.6848 24.7761 96 26.5 96V96ZM96.5 0H199.5C201.224 0 202.877 0.684819 204.096 1.90381C205.315 3.12279 206 4.77609 206 6.5C206 8.22391 205.315 9.87721 204.096 11.0962C202.877 12.3152 201.224 13 199.5 13H96.5C94.7761 13 93.1228 12.3152 91.9038 11.0962C90.6848 9.87721 90 8.22391 90 6.5C90 4.77609 90.6848 3.12279 91.9038 1.90381C93.1228 0.684819 94.7761 0 96.5 0V0ZM8 20H298C300.122 20 302.157 20.8429 303.657 22.3431C305.157 23.8434 306 25.8783 306 28V30C306 32.1217 305.157 34.1566 303.657 35.6569C302.157 37.1571 300.122 38 298 38H8C5.87827 38 3.84344 37.1571 2.34315 35.6569C0.842855 34.1566 0 32.1217 0 30V28C0 25.8783 0.842855 23.8434 2.34315 22.3431C3.84344 20.8429 5.87827 20 8 20V20ZM205 50H357C359.122 50 361.157 50.8429 362.657 52.3431C364.157 53.8434 365 55.8783 365 58V60C365 62.1217 364.157 64.1566 362.657 65.6569C361.157 67.1571 359.122 68 357 68H205C202.878 68 200.843 67.1571 199.343 65.6569C197.843 64.1566 197 62.1217 197 60V58C197 55.8783 197.843 53.8434 199.343 52.3431C200.843 50.8429 202.878 50 205 50V50ZM205 100H295C297.122 100 299.157 100.843 300.657 102.343C302.157 103.843 303 105.878 303 108V110C303 112.122 302.157 114.157 300.657 115.657C299.157 117.157 297.122 118 295 118H205C202.878 118 200.843 117.157 199.343 115.657C197.843 114.157 197 112.122 197 110V108C197 105.878 197.843 103.843 199.343 102.343C200.843 100.843 202.878 100 205 100ZM149 124H295C297.122 124 299.157 124.843 300.657 126.343C302.157 127.843 303 129.878 303 132V134C303 136.122 302.157 138.157 300.657 139.657C299.157 141.157 297.122 142 295 142H149C146.878 142 144.843 141.157 143.343 139.657C141.843 138.157 141 136.122 141 134V132C141 129.878 141.843 127.843 143.343 126.343C144.843 124.843 146.878 124 149 124ZM39.5 73H248.5C250.224 73 251.877 73.6848 253.096 74.9038C254.315 76.1228 255 77.7761 255 79.5C255 81.2239 254.315 82.8772 253.096 84.0962C251.877 85.3152 250.224 86 248.5 86H39.5C37.7761 86 36.1228 85.3152 34.9038 84.0962C33.6848 82.8772 33 81.2239 33 79.5C33 77.7761 33.6848 76.1228 34.9038 74.9038C36.1228 73.6848 37.7761 73 39.5 73V73Z" fill="#F2F2F3"/>
</g>
<path fill-rule="evenodd" clip-rule="evenodd" d="M104.925 132H88C88.627 136.2 90.194 138.9 92.701 140.1C95.209 141.3 154.448 141.3 270.418 140.1C274.806 138.9 277 136.2 277 132H256.313" fill="white"/>
<path d="M104.925 132H88C88.627 136.2 90.194 138.9 92.701 140.1C95.209 141.3 154.448 141.3 270.418 140.1C274.806 138.9 277 136.2 277 132H256.313" stroke="#6045AF"/>
<path fill-rule="evenodd" clip-rule="evenodd" d="M104.5 51.5H265.5V132.5H104.5V51.5Z" fill="white" stroke="#6045AF"/>
<path opacity="0.7" fill-rule="evenodd" clip-rule="evenodd" d="M110.5 56.5H259.5V127.5H110.5V56.5Z" fill="#F2F2F3" stroke="#6045AF"/>
<path fill-rule="evenodd" clip-rule="evenodd" d="M171.54 45.0091L168.218 34.2531C167.941 33.5361 168.218 33.0881 169.048 32.9081C170.294 32.6401 175.693 30.7581 185.244 31.0261C191.612 31.2061 196.18 31.9231 198.948 33.1771C199.779 33.5361 200.056 33.8941 199.779 34.2531C199.502 34.6111 198.256 38.2861 196.041 45.2781C203.517 46.3531 207.254 47.608 207.254 49.042C207.254 50.476 204.07 51.462 197.703 52H171.54C164.065 51.6411 160.327 50.656 160.327 49.042C160.327 47.429 164.065 46.0841 171.54 45.0091Z" fill="#65A300"/>
<path fill-rule="evenodd" clip-rule="evenodd" d="M170.065 35.593C170.022 34.531 170.195 34.013 170.583 34.037C171.102 33.691 172.053 33.346 173.435 33L176.25 44.148L173.139 44.667L170.065 35.593ZM175 33L178 44H179V33H175Z" fill="white"/>
<path d="M199 99C202.866 99 206 95.866 206 92C206 88.134 202.866 85 199 85C195.134 85 192 88.134 192 92C192 95.866 195.134 99 199 99Z" stroke="#65A300" stroke-width="2"/>
<path d="M173 94C174.105 94 175 93.1046 175 92C175 90.8954 174.105 90 173 90C171.895 90 171 90.8954 171 92C171 93.1046 171.895 94 173 94Z" fill="#6045AF"/>
<path d="M199 94C200.105 94 201 93.1046 201 92C201 90.8954 200.105 90 199 90C197.895 90 197 90.8954 197 92C197 93.1046 197.895 94 199 94Z" fill="#6045AF"/>
<path d="M180.5 105.5H189.5" stroke="#6045AF" stroke-linecap="square"/>
<path d="M199 99V113.431C200 119.144 203.667 122 210 122C216.333 122 220 118.843 221 112.53" stroke="#65A300" stroke-width="2" stroke-dasharray="2 2"/>
<path d="M224.5 110H217.5C216.672 110 216 110.672 216 111.5C216 112.328 216.672 113 217.5 113H224.5C225.328 113 226 112.328 226 111.5C226 110.672 225.328 110 224.5 110Z" fill="#65A300"/>
<path d="M99 71C108.389 71 116 63.3888 116 54C116 44.6112 108.389 37 99 37C89.6112 37 82 44.6112 82 54C82 63.3888 89.6112 71 99 71Z" fill="#DF285F"/>
<path d="M99.0001 53.558L103.467 49.092C103.527 49.0416 103.604 49.0155 103.682 49.0189C103.76 49.0222 103.834 49.0548 103.89 49.1102C103.945 49.1656 103.978 49.2398 103.981 49.3181C103.985 49.3963 103.959 49.473 103.908 49.533L99.4421 54L103.908 58.467C103.959 58.5269 103.985 58.6036 103.981 58.6819C103.978 58.7602 103.945 58.8343 103.89 58.8897C103.834 58.9451 103.76 58.9777 103.682 58.9811C103.604 58.9845 103.527 58.9584 103.467 58.908L99.0001 54.442L94.5331 58.908C94.4731 58.9584 94.3964 58.9845 94.3182 58.9811C94.2399 58.9777 94.1658 58.9451 94.1104 58.8897C94.055 58.8343 94.0224 58.7602 94.019 58.6819C94.0156 58.6036 94.0417 58.5269 94.0921 58.467L98.5581 54L94.0921 49.533C94.0616 49.5044 94.0371 49.4699 94.0202 49.4317C94.0032 49.3935 93.9941 49.3522 93.9934 49.3104C93.9928 49.2686 94.0005 49.227 94.0162 49.1882C94.0319 49.1495 94.0552 49.1142 94.0848 49.0847C94.1144 49.0551 94.1496 49.0318 94.1884 49.0161C94.2271 49.0004 94.2687 48.9926 94.3105 48.9933C94.3523 48.994 94.3936 49.0031 94.4318 49.02C94.4701 49.037 94.5045 49.0615 94.5331 49.092L99.0001 53.558Z" fill="white" stroke="white"/>
<path d="M104 92H48C46.3431 92 45 93.3431 45 95V132C45 133.657 46.3431 135 48 135H104C105.657 135 107 133.657 107 132V95C107 93.3431 105.657 92 104 92Z" fill="#A8A8AD" stroke="#6045AF" stroke-width="2"/>
<path d="M105 93H47C46.4477 93 46 93.4477 46 94V134C46 134.552 46.4477 135 47 135H105C105.552 135 106 134.552 106 134V94C106 93.4477 105.552 93 105 93Z" fill="#72737A"/>
<path d="M61.704 99.3439C57.218 101.247 52.026 99.1609 50.129 94.6919C48.232 90.2229 50.338 85.0379 54.823 83.1349C59.309 81.2309 64.501 83.3169 66.398 87.7859C68.295 92.2559 66.188 97.4399 61.704 99.3439Z" fill="white" stroke="#65A300"/>
<path d="M58.0499 90.5379C57.3699 90.8259 56.6259 90.6079 56.3899 90.0529C56.1549 89.4979 56.5149 88.8109 57.1939 88.5229C57.8729 88.2349 58.6169 88.4529 58.8519 89.0079C58.9759 89.2999 59.3279 89.4309 59.6359 89.2989C59.9459 89.1689 60.0959 88.8249 59.9709 88.5329C59.5599 87.5629 58.4509 87.0729 57.3299 87.2869L57.2129 87.0119C57.0889 86.7199 56.7379 86.5899 56.4289 86.7209C56.1199 86.8519 55.9699 87.1949 56.0939 87.4869L56.2109 87.7619C55.2779 88.4189 54.8609 89.5589 55.2709 90.5279C55.7549 91.6669 57.2019 92.1459 58.4979 91.5959C59.1769 91.3069 59.9209 91.5249 60.1569 92.0799C60.3919 92.6359 60.0319 93.3219 59.3529 93.6099C58.6739 93.8979 57.9299 93.6799 57.6949 93.1249C57.5709 92.8329 57.2199 92.7029 56.9109 92.8339C56.6009 92.9639 56.4509 93.3079 56.5759 93.5999C56.9869 94.5699 58.0969 95.0599 59.2169 94.8459L59.3139 95.0739C59.4379 95.3659 59.7899 95.4969 60.0979 95.3659C60.4079 95.2349 60.5579 94.8909 60.4329 94.5989L60.3359 94.3709C61.2689 93.7139 61.6869 92.5749 61.2759 91.6049C60.7919 90.4669 59.3449 89.9879 58.0489 90.5379H58.0499ZM62.4599 84.8499C61.3051 84.0718 59.9571 83.6294 58.5659 83.5719C58.4127 83.5654 58.2631 83.6194 58.1495 83.7224C58.0359 83.8253 57.9674 83.9689 57.9589 84.1219C57.9553 84.1972 57.9666 84.2725 57.9922 84.3433C58.0179 84.4142 58.0573 84.4793 58.1083 84.5348C58.1593 84.5903 58.2207 84.6352 58.2891 84.6668C58.3576 84.6984 58.4316 84.7161 58.5069 84.7189C60.9379 84.8209 63.1169 86.3189 64.0569 88.5339C64.4594 89.4832 64.6209 90.5172 64.5269 91.5439C64.52 91.6191 64.5282 91.6948 64.5508 91.7668C64.5735 91.8388 64.6102 91.9055 64.6588 91.9632C64.7075 92.0209 64.7671 92.0683 64.8342 92.1028C64.9014 92.1372 64.9747 92.158 65.0499 92.1639C65.2029 92.177 65.3548 92.1292 65.4728 92.0309C65.5907 91.9326 65.6652 91.7918 65.6799 91.6389C65.7909 90.4252 65.5999 89.2029 65.1239 88.0809C64.5678 86.7685 63.6422 85.646 62.4599 84.8499V84.8499ZM56.0999 84.0369L56.0639 84.0519C55.9232 84.114 55.813 84.2292 55.7573 84.3725C55.7016 84.5157 55.7051 84.6752 55.7669 84.8159C55.8252 84.9579 55.9374 85.071 56.0789 85.1304C56.2204 85.1899 56.3797 85.1908 56.5219 85.1329L56.5519 85.1199L56.5549 85.1189C56.6949 85.0571 56.8049 84.9424 56.8607 84.7998C56.9165 84.6573 56.9137 84.4984 56.8529 84.3579C56.7951 84.2157 56.6834 84.1021 56.542 84.0421C56.4007 83.9821 56.2413 83.9806 56.0989 84.0379L56.0999 84.0369ZM58.0199 97.7599C55.5889 97.6569 53.4099 96.1599 52.4699 93.9439C52.0673 92.9947 51.9059 91.9607 51.9999 90.9339C52.0067 90.8588 51.9986 90.783 51.9759 90.7111C51.9533 90.6391 51.9166 90.5723 51.8679 90.5147C51.8193 90.457 51.7597 90.4096 51.6925 90.3751C51.6254 90.3406 51.5521 90.3199 51.4769 90.3139C51.3239 90.3009 51.1719 90.3487 51.054 90.4469C50.936 90.5452 50.8616 90.6861 50.8469 90.8389C50.7359 92.0527 50.9269 93.275 51.4029 94.3969C51.9588 95.7097 52.8844 96.8326 54.0669 97.6289C55.2215 98.4065 56.5691 98.8485 57.9599 98.9059C58.1132 98.9128 58.2631 98.8588 58.3769 98.7559C58.4907 98.6529 58.5593 98.5092 58.5679 98.3559C58.5715 98.2807 58.5602 98.2054 58.5345 98.1346C58.5089 98.0637 58.4694 97.9986 58.4184 97.9431C58.3675 97.8876 58.306 97.8427 58.2376 97.8111C58.1692 97.7795 58.0952 97.7618 58.0199 97.7589V97.7599Z" fill="#65A300"/>
<path d="M60.0041 97.3449L59.9741 97.3579C59.9043 97.3883 59.8413 97.432 59.7884 97.4868C59.7356 97.5415 59.6941 97.606 59.6662 97.6768C59.6384 97.7476 59.6247 97.8231 59.6261 97.8992C59.6274 97.9752 59.6437 98.0502 59.6741 98.1199C59.7318 98.2622 59.8436 98.3758 59.9849 98.4358C60.1263 98.4958 60.2856 98.4973 60.4281 98.4399L60.4631 98.4259C60.6037 98.3639 60.714 98.2486 60.7696 98.1054C60.8253 97.9621 60.8219 97.8027 60.7601 97.6619C60.7018 97.5197 60.5894 97.4064 60.4477 97.347C60.3059 97.2876 60.1464 97.2868 60.0041 97.3449V97.3449Z" fill="#65A300"/>
<path d="M79.884 99.627C75.399 101.531 70.206 99.444 68.309 94.975C66.413 90.506 68.519 85.321 73.004 83.418C77.489 81.514 82.681 83.6 84.578 88.069C86.475 92.539 84.369 97.723 79.884 99.627V99.627Z" fill="white" stroke="#65A300"/>
<path d="M76.2301 90.8201C75.5501 91.1091 74.807 90.8911 74.571 90.3361C74.335 89.7811 74.6961 89.0941 75.3741 88.8061C76.0541 88.5181 76.7971 88.7361 77.0331 89.2911C77.1571 89.5831 77.5081 89.7141 77.8171 89.5821C78.1261 89.4521 78.2761 89.1081 78.1521 88.8161C77.7401 87.8461 76.6301 87.3561 75.5101 87.5701L75.3931 87.2951C75.2691 87.0031 74.918 86.8731 74.609 87.0041C74.3 87.1351 74.1501 87.4781 74.2741 87.7701L74.3911 88.0451C73.4581 88.7021 73.0411 89.8421 73.4511 90.8111C73.9351 91.9501 75.3831 92.4291 76.6781 91.8791C77.3581 91.5901 78.1011 91.8081 78.3371 92.3631C78.5731 92.9191 78.2121 93.6051 77.5341 93.8931C76.8541 94.1811 76.1111 93.9631 75.8751 93.4081C75.7511 93.1161 75.4001 92.9861 75.0911 93.1171C74.7821 93.2471 74.6321 93.5911 74.7561 93.8831C75.1681 94.8531 76.277 95.3431 77.398 95.1291L77.495 95.3571C77.619 95.6491 77.97 95.7801 78.279 95.6491C78.588 95.5181 78.738 95.1741 78.614 94.8821L78.517 94.6541C79.449 93.9971 79.8671 92.8581 79.4561 91.8881C78.9731 90.7501 77.5261 90.2711 76.2291 90.8211L76.2301 90.8201ZM80.64 85.1331C79.4856 84.3551 78.138 83.9127 76.7471 83.8551C76.5937 83.8482 76.4439 83.9022 76.33 84.0051C76.2162 84.1081 76.1476 84.2518 76.1391 84.4051C76.1354 84.4804 76.1468 84.5558 76.1725 84.6267C76.1982 84.6976 76.2378 84.7627 76.2888 84.8183C76.3399 84.8738 76.4015 84.9186 76.47 84.9502C76.5385 84.9817 76.6127 84.9994 76.6881 85.0021C79.1181 85.1041 81.297 86.6021 82.238 88.8171C82.6406 89.7663 82.8021 90.8003 82.7081 91.8271C82.7012 91.9022 82.7093 91.978 82.732 92.0499C82.7546 92.1219 82.7914 92.1887 82.84 92.2463C82.8887 92.304 82.9483 92.3515 83.0154 92.3859C83.0825 92.4204 83.1558 92.4412 83.231 92.4471C83.3839 92.4599 83.5356 92.412 83.6533 92.3137C83.7711 92.2154 83.8453 92.0747 83.8601 91.9221C83.9714 90.7084 83.7807 89.4861 83.3051 88.3641C82.7489 87.0517 81.8234 85.9291 80.641 85.1331H80.64ZM74.2801 84.3201L74.2441 84.3351C74.1036 84.3973 73.9936 84.5126 73.9381 84.6559C73.8826 84.7991 73.8862 84.9585 73.9481 85.0991C74.0063 85.2411 74.1185 85.3541 74.2601 85.4136C74.4016 85.473 74.5609 85.4739 74.703 85.4161L74.7331 85.4031L74.7361 85.4021C74.8759 85.34 74.9856 85.2253 75.0413 85.0827C75.0969 84.9402 75.0939 84.7814 75.0331 84.6411C74.9753 84.499 74.8637 84.3856 74.7226 84.3257C74.5815 84.2657 74.4224 84.2641 74.2801 84.3211V84.3201ZM76.2001 98.0421C73.7701 97.9401 71.5901 96.4421 70.6501 94.2271C70.2475 93.2779 70.086 92.2438 70.1801 91.2171C70.1869 91.1419 70.1788 91.0662 70.1561 90.9942C70.1335 90.9222 70.0967 90.8555 70.0481 90.7978C69.9994 90.7401 69.9398 90.6927 69.8727 90.6582C69.8056 90.6238 69.7323 90.603 69.6571 90.5971C69.5041 90.584 69.3521 90.6318 69.2341 90.7301C69.1162 90.8284 69.0418 90.9692 69.0271 91.1221C68.916 92.3358 69.107 93.5581 69.5831 94.6801C70.139 95.9928 71.0645 97.1157 72.2471 97.9121C73.4019 98.6898 74.7499 99.1318 76.141 99.1891C76.2942 99.1956 76.4438 99.1416 76.5574 99.0386C76.671 98.9357 76.7395 98.7921 76.7481 98.6391C76.7517 98.5638 76.7403 98.4885 76.7147 98.4177C76.689 98.3468 76.6496 98.2817 76.5986 98.2262C76.5477 98.1707 76.4862 98.1258 76.4178 98.0942C76.3494 98.0626 76.2754 98.0449 76.2001 98.0421V98.0421Z" fill="#65A300"/>
<path d="M78.185 97.628L78.155 97.641C78.0852 97.6714 78.0222 97.7151 77.9693 97.7698C77.9165 97.8246 77.875 97.8891 77.8471 97.9599C77.8193 98.0307 77.8056 98.1062 77.807 98.1823C77.8083 98.2583 77.8246 98.3333 77.855 98.403C77.9127 98.5451 78.0243 98.6585 78.1654 98.7184C78.3065 98.7784 78.4657 98.7801 78.608 98.723L78.643 98.709C78.7836 98.647 78.8939 98.5317 78.9496 98.3885C79.0052 98.2452 79.0018 98.0858 78.94 97.945C78.8817 97.8031 78.7695 97.69 78.628 97.6306C78.4865 97.5711 78.3272 97.5702 78.185 97.628V97.628Z" fill="#65A300"/>
<path d="M90.892 98.543C86.026 98.288 82.274 94.137 82.528 89.289C82.782 84.44 86.948 80.704 91.813 80.959C96.679 81.214 100.431 85.365 100.177 90.214C99.923 95.062 95.757 98.798 90.892 98.544V98.543Z" fill="white" stroke="#65A300"/>
<path d="M91.4669 89.0269C90.7309 88.9879 90.1569 88.4669 90.1889 87.8639C90.2209 87.2609 90.8449 86.8029 91.5819 86.8409C92.3179 86.8799 92.8919 87.4009 92.8599 88.0039C92.8429 88.3209 93.1019 88.5919 93.4369 88.6099C93.7719 88.6269 94.0569 88.3839 94.0739 88.0679C94.1289 87.0159 93.3459 86.0879 92.2449 85.7899L92.2609 85.4919C92.2779 85.1749 92.0189 84.9029 91.6839 84.8859C91.3489 84.8679 91.0639 85.1109 91.0469 85.4279L91.0309 85.7259C89.9049 85.9079 89.0309 86.7489 88.9749 87.7999C88.9099 89.0359 90.0009 90.0999 91.4069 90.1739C92.1429 90.2129 92.7169 90.7339 92.6849 91.3369C92.6539 91.9399 92.0289 92.3979 91.2919 92.3599C90.5559 92.3209 89.9819 91.7999 90.0139 91.1969C90.0309 90.8799 89.7729 90.6089 89.4369 90.5909C89.1019 90.5739 88.8169 90.8169 88.7999 91.1329C88.7449 92.1849 89.5279 93.1129 90.6289 93.4109L90.6159 93.6589C90.5989 93.9759 90.8569 94.2469 91.1929 94.2639C91.5279 94.2819 91.8129 94.0389 91.8299 93.7219L91.8429 93.4749C92.9689 93.2929 93.8439 92.4519 93.8989 91.4009C93.9639 90.1649 92.8729 89.1009 91.4669 89.0269ZM97.9249 85.8479C97.228 84.6426 96.2102 83.6542 94.9849 82.9929C94.8503 82.92 94.6925 82.9029 94.5454 82.9454C94.3984 82.9879 94.2739 83.0865 94.1989 83.2199C94.1625 83.286 94.1395 83.3587 94.1313 83.4337C94.1231 83.5087 94.1299 83.5846 94.1513 83.657C94.1727 83.7294 94.2083 83.7968 94.2559 83.8553C94.3036 83.9138 94.3624 83.9623 94.4289 83.9979C96.5689 85.1549 97.8709 87.4559 97.7449 89.8599C97.6904 90.8891 97.3823 91.8887 96.8479 92.7699C96.8088 92.8346 96.783 92.9064 96.7719 92.9811C96.7608 93.0559 96.7646 93.1321 96.7832 93.2053C96.8018 93.2785 96.8348 93.3473 96.8803 93.4077C96.9257 93.4681 96.9827 93.5188 97.0479 93.5569C97.1794 93.6351 97.3363 93.6584 97.4848 93.6219C97.6334 93.5855 97.7616 93.4921 97.8419 93.3619C98.4742 92.3197 98.8387 91.1372 98.9029 89.9199C98.9785 88.4965 98.6387 87.0818 97.9249 85.8479V85.8479ZM92.5639 82.3299L92.5259 82.3269C92.3724 82.3213 92.2229 82.3767 92.1102 82.4811C91.9976 82.5856 91.9309 82.7304 91.9249 82.8839C91.915 83.0372 91.9664 83.1881 92.0676 83.3036C92.1688 83.419 92.3117 83.4897 92.4649 83.4999L92.4969 83.5009H92.4999C92.6528 83.5066 92.8017 83.4517 92.9143 83.3481C93.0268 83.2446 93.0939 83.1007 93.1009 82.9479C93.1117 82.7947 93.0611 82.6434 92.9605 82.5274C92.8598 82.4113 92.7172 82.34 92.5639 82.3289V82.3299ZM88.2749 95.5049C86.1349 94.3469 84.8329 92.0459 84.9589 89.6419C85.0134 88.6128 85.3216 87.6131 85.8559 86.7319C85.8951 86.6674 85.9211 86.5957 85.9323 86.5211C85.9436 86.4464 85.9399 86.3703 85.9215 86.297C85.9031 86.2238 85.8703 86.155 85.825 86.0945C85.7798 86.0341 85.723 85.9832 85.6579 85.9449C85.5263 85.8662 85.3689 85.8425 85.2199 85.879C85.0709 85.9155 84.9423 86.0092 84.8619 86.1399C84.23 87.1822 83.8659 88.3647 83.8019 89.5819C83.7261 91.0053 84.0655 92.42 84.7789 93.6539C85.4759 94.8593 86.4937 95.8476 87.7189 96.5089C87.8536 96.5822 88.0117 96.5994 88.159 96.5569C88.3063 96.5144 88.4309 96.4156 88.5059 96.2819C88.5422 96.2158 88.565 96.1432 88.573 96.0683C88.581 95.9933 88.5741 95.9175 88.5526 95.8452C88.5311 95.7729 88.4955 95.7057 88.4479 95.6473C88.4002 95.5888 88.3414 95.5405 88.2749 95.5049V95.5049Z" fill="#65A300"/>
<path d="M90.24 96.002L90.207 96.001C90.0537 95.9945 89.9041 96.0491 89.7911 96.1528C89.678 96.2564 89.6107 96.4008 89.604 96.554C89.5932 96.7073 89.6437 96.8585 89.7444 96.9746C89.8451 97.0906 89.9877 97.162 90.141 97.173L90.179 97.175C90.3325 97.1807 90.482 97.1252 90.5947 97.0208C90.7073 96.9164 90.774 96.7715 90.78 96.618C90.7898 96.4648 90.7385 96.3139 90.6373 96.1984C90.5361 96.0829 90.3932 96.0123 90.24 96.002V96.002Z" fill="#65A300"/>
<path fill-rule="evenodd" clip-rule="evenodd" d="M46 95C47.998 96.244 49.878 96.866 51.64 96.866H52.544L104.42 96.659C106.14 96.797 107 97.469 107 98.672V137.304C107 139.101 106.235 140 104.705 140H50.249C47.467 140 46.076 138.548 46.076 135.645C46.076 132.742 46.05 119.194 46 95Z" fill="#6045AF" stroke="#6045AF" stroke-width="2"/>
<path fill-rule="evenodd" clip-rule="evenodd" d="M97.045 112H94.056C91.352 113.594 90 115.333 90 117.217C90 119.101 91.174 120.696 93.522 122H109V112H99.5" fill="white"/>
<path d="M100.5 120C101.881 120 103 118.881 103 117.5C103 116.119 101.881 115 100.5 115C99.1193 115 98 116.119 98 117.5C98 118.881 99.1193 120 100.5 120Z" fill="white" stroke="#6045AF"/>
<path d="M104 101V108M51 103V115V103ZM51 120V126V120ZM59 134H75H59ZM81 134H85H81ZM88 134H94H88Z" stroke="white" stroke-width="2"/>
<path d="M75.5949 80.561L74.8479 73.33L75.8419 73.227L76.7859 82.357L76.8769 83.241L76.0739 82.86L67.7819 78.925L68.2099 78.022L74.7779 81.138L74.4159 80.626L75.2329 80.049L75.5949 80.561ZM134.469 45.826L133.531 46.174C133.298 45.544 133.061 44.926 132.819 44.319L133.748 43.949C133.993 44.564 134.233 45.189 134.468 45.826H134.469ZM132.978 42.088L132.059 42.483C131.798 41.8741 131.528 41.269 131.249 40.668L132.156 40.248C132.436 40.848 132.709 41.462 132.978 42.088ZM131.278 38.429L130.384 38.879C130.087 38.2881 129.781 37.7024 129.464 37.122L130.341 36.642C130.659 37.225 130.971 37.82 131.277 38.429H131.278ZM129.335 34.879L128.476 35.389C128.138 34.8217 127.79 34.2613 127.43 33.708L128.268 33.162C128.631 33.719 128.986 34.292 129.335 34.878V34.879ZM127.135 31.499L126.321 32.079C125.938 31.5424 125.543 31.0149 125.135 30.497L125.921 29.879C126.333 30.402 126.737 30.942 127.135 31.499ZM124.618 28.306L123.865 28.964C123.433 28.4685 122.987 27.985 122.528 27.514L123.244 26.816C123.71 27.294 124.168 27.791 124.618 28.306ZM121.765 25.386L121.091 26.125C120.601 25.678 120.103 25.252 119.596 24.845L120.222 24.065C120.745 24.485 121.26 24.925 121.765 25.385V25.386ZM118.621 22.861L118.046 23.681C117.51 23.304 116.961 22.9455 116.4 22.606L116.917 21.75C117.494 22.1 118.062 22.47 118.621 22.861ZM115.124 20.751L114.668 21.641C114.085 21.3426 113.491 21.0651 112.888 20.809L113.28 19.889C113.904 20.154 114.519 20.442 115.124 20.751ZM111.354 19.151L111.03 20.097C110.41 19.8845 109.783 19.6937 109.15 19.525L109.407 18.559C110.065 18.734 110.714 18.932 111.354 19.151ZM107.389 18.095L107.199 19.077C106.555 18.9521 105.907 18.848 105.256 18.765L105.383 17.773C106.061 17.86 106.729 17.967 107.389 18.095ZM103.32 17.575L103.255 18.572C102.599 18.5299 101.942 18.5065 101.285 18.502L101.293 17.502C101.977 17.507 102.653 17.532 103.32 17.575ZM99.2449 17.532L99.2819 18.532C98.6169 18.557 97.9589 18.596 97.3109 18.65L97.2279 17.653C97.8993 17.5977 98.5718 17.5577 99.2449 17.533V17.532ZM95.2079 17.869L95.3379 18.861C94.6779 18.947 94.0279 19.05 93.3869 19.167L93.2069 18.183C93.8712 18.0615 94.5384 17.9568 95.2079 17.869ZM91.2049 18.605L91.4379 19.578C90.7929 19.732 90.1579 19.902 89.5329 20.088L89.2479 19.13C89.8953 18.9371 90.5479 18.762 91.2049 18.605ZM87.3279 19.761L87.6669 20.701C87.0439 20.926 86.4329 21.167 85.8339 21.424L85.4399 20.504C86.0619 20.238 86.6915 19.9902 87.3279 19.761ZM83.5779 21.369L84.0259 22.263C83.4387 22.5572 82.8604 22.869 82.2919 23.198L81.7909 22.333C82.3768 21.9938 82.9727 21.6723 83.5779 21.369ZM80.0589 23.407L80.6119 24.241C80.0619 24.605 79.5269 24.984 79.0029 25.378L78.4019 24.579C78.9409 24.173 79.4929 23.782 80.0589 23.407ZM76.8289 25.839L77.4759 26.601C76.9739 27.027 76.4859 27.467 76.0119 27.921L75.3219 27.198C75.8089 26.731 76.3119 26.278 76.8279 25.838L76.8289 25.839ZM73.8839 28.654L74.6159 29.336C74.1659 29.818 73.7319 30.312 73.3129 30.816L72.5429 30.176C72.9759 29.658 73.4229 29.15 73.8839 28.654ZM71.2739 31.793L72.0769 32.389C71.6829 32.919 71.3049 33.459 70.9439 34.005L70.1099 33.453C70.4809 32.893 70.8699 32.338 71.2739 31.793ZM69.0379 35.173L69.8999 35.679C69.5665 36.246 69.2484 36.8218 68.9459 37.406L68.0579 36.947C68.3686 36.3466 68.6954 35.7547 69.0379 35.172V35.173ZM67.1819 38.763L68.0939 39.173C67.8139 39.798 67.5639 40.408 67.3439 40.993L66.4079 40.643C66.6339 40.038 66.8929 39.408 67.1819 38.763ZM65.7729 42.573L66.7369 42.839C66.5869 43.386 66.5029 43.815 66.4999 43.985C66.4999 44.179 66.4689 44.412 66.3999 44.782L65.4169 44.601C65.4749 44.288 65.4999 44.099 65.4999 43.976C65.5049 43.692 65.6019 43.196 65.7729 42.574V42.573ZM65.0379 46.566L66.0219 46.744C65.9029 47.399 65.8019 48.036 65.7149 48.696L64.7239 48.566C64.8129 47.888 64.9169 47.236 65.0379 46.566ZM64.5119 50.583L65.5089 50.6609C65.4589 51.3079 65.4239 51.964 65.4089 52.631L64.4089 52.6069C64.4249 51.9219 64.4589 51.248 64.5119 50.583ZM64.4149 54.643L65.4149 54.613C65.4349 55.263 65.4719 55.919 65.5279 56.582L64.5309 56.666C64.4743 55.9928 64.4356 55.3182 64.4149 54.643ZM64.7539 58.6759L65.7439 58.54C65.8339 59.186 65.9389 59.835 66.0639 60.488L65.0809 60.6749C64.9548 60.0115 64.8458 59.345 64.7539 58.6759ZM65.5109 62.664L66.4829 62.428C66.6369 63.062 66.8079 63.698 66.9959 64.336L66.0359 64.619C65.8451 63.9716 65.6701 63.3198 65.5109 62.664ZM66.6589 66.556L67.6029 66.229C67.8169 66.845 68.0469 67.463 68.2929 68.082L67.3649 68.452C67.1154 67.8254 66.88 67.1932 66.6589 66.556ZM68.1599 70.327L69.0719 69.917C69.3399 70.512 69.6229 71.108 69.9219 71.705L69.0279 72.152C68.726 71.5497 68.4366 70.9412 68.1599 70.327ZM69.9649 73.935L70.8409 73.452C71.1559 74.024 71.4859 74.596 71.8299 75.168L70.9729 75.684C70.626 75.107 70.2899 74.5236 69.9649 73.934V73.935ZM72.1069 77.36L72.9239 76.783L74.0779 78.416L73.2619 78.993L72.1069 77.36Z" fill="#DF285F"/>
<path fill-rule="evenodd" clip-rule="evenodd" d="M50.2909 128.763H42.9879C41.9469 128.763 41.0959 129.638 41.0959 130.71V130.93C41.0959 132.001 41.9459 132.878 42.9879 132.878H50.2909C51.3319 132.878 52.1849 132.001 52.1849 130.931V130.71C52.1849 129.638 51.3319 128.763 50.2909 128.763Z" fill="#65A300"/>
<path fill-rule="evenodd" clip-rule="evenodd" d="M50.2379 129.27H43.0399C42.2119 129.27 41.5339 129.967 41.5339 130.82C41.5339 131.672 42.2119 132.37 43.0399 132.37H50.2379C51.0679 132.37 51.7459 131.672 51.7459 130.82C51.7459 129.967 51.0679 129.27 50.2379 129.27Z" fill="#F2F2F3"/>
<path fill-rule="evenodd" clip-rule="evenodd" d="M52.9101 125.061H45.6061C44.5651 125.061 43.7141 125.936 43.7141 127.008V127.229C43.7141 128.299 44.5651 129.176 45.6061 129.176H52.9101C53.9501 129.176 54.8031 128.3 54.8031 127.229V127.008C54.8031 125.936 53.9501 125.061 52.9101 125.061Z" fill="#65A300"/>
<path fill-rule="evenodd" clip-rule="evenodd" d="M52.8571 125.568H45.6591C44.8301 125.568 44.1521 126.265 44.1521 127.118C44.1521 127.971 44.8301 128.669 45.6591 128.669H52.8571C53.6871 128.669 54.3651 127.971 54.3651 127.119C54.3651 126.265 53.6871 125.569 52.8571 125.569" fill="#F2F2F3"/>
<path fill-rule="evenodd" clip-rule="evenodd" d="M50.4379 132.37H43.1349C42.0929 132.37 41.2419 133.245 41.2419 134.317V134.538C41.2419 135.608 42.0929 136.484 43.1349 136.484H50.4379C51.4779 136.484 52.3309 135.607 52.3309 134.538V134.317C52.3309 133.245 51.4789 132.37 50.4379 132.37Z" fill="#65A300"/>
<path fill-rule="evenodd" clip-rule="evenodd" d="M50.3849 132.877H43.1869C42.3569 132.877 41.6809 133.574 41.6809 134.427C41.6809 135.28 42.3569 135.978 43.1869 135.978H50.3849C51.2139 135.978 51.8919 135.28 51.8919 134.426C51.8919 133.574 51.2139 132.877 50.3849 132.877Z" fill="#F2F2F3"/>
<path fill-rule="evenodd" clip-rule="evenodd" d="M50.585 135.978H43.28C42.24 135.978 41.387 136.853 41.387 137.923V138.144C41.387 139.214 42.239 140.091 43.28 140.091H50.584C51.624 140.091 52.476 139.215 52.476 138.144V137.924C52.476 136.853 51.625 135.978 50.584 135.978" fill="#65A300"/>
<path fill-rule="evenodd" clip-rule="evenodd" d="M50.5319 136.483H43.3339C42.5049 136.483 41.8269 137.181 41.8269 138.033C41.8269 138.886 42.5049 139.584 43.3339 139.584H50.5319C51.3599 139.584 52.0399 138.886 52.0399 138.034C52.0399 137.181 51.3599 136.484 50.5319 136.484" fill="#F2F2F3"/>
<path fill-rule="evenodd" clip-rule="evenodd" d="M50.7299 139.584H43.4269C42.3869 139.584 41.5349 140.459 41.5349 141.531V141.751C41.5349 142.822 42.3859 143.699 43.4269 143.699H50.7309C51.7709 143.699 52.6239 142.822 52.6239 141.752V141.531C52.6239 140.459 51.7719 139.584 50.7309 139.584" fill="#65A300"/>
<path fill-rule="evenodd" clip-rule="evenodd" d="M50.6779 140.09H43.4799C42.6509 140.09 41.9729 140.788 41.9729 141.64C41.9729 142.493 42.6509 143.192 43.4799 143.192H50.6779C51.5079 143.192 52.1859 142.493 52.1859 141.64C52.1859 140.788 51.5079 140.09 50.6779 140.09Z" fill="#F2F2F3"/>
<path d="M51.555 144.478C48.842 144.478 46.635 142.091 46.635 139.158C46.635 136.224 48.842 133.838 51.555 133.838C54.267 133.838 56.473 136.224 56.473 139.158C56.473 142.091 54.267 144.478 51.555 144.478Z" fill="white" stroke="#65A300"/>
<path fill-rule="evenodd" clip-rule="evenodd" d="M51.553 138.78C51.155 138.78 50.832 138.477 50.832 138.105C50.832 137.732 51.155 137.429 51.553 137.429C51.951 137.429 52.274 137.732 52.274 138.105C52.274 138.301 52.421 138.459 52.602 138.459C52.783 138.459 52.93 138.301 52.93 138.105C52.93 137.455 52.483 136.908 51.881 136.76V136.575C51.881 136.38 51.734 136.221 51.553 136.221C51.372 136.221 51.225 136.38 51.225 136.575V136.76C50.8965 136.841 50.6088 137.039 50.4164 137.317C50.2239 137.595 50.14 137.934 50.1803 138.27C50.2207 138.606 50.3826 138.916 50.6355 139.14C50.8883 139.365 51.2147 139.489 51.553 139.49C51.951 139.49 52.274 139.792 52.274 140.165C52.274 140.537 51.951 140.84 51.553 140.84C51.155 140.84 50.832 140.537 50.832 140.165C50.832 139.969 50.685 139.81 50.504 139.81C50.323 139.81 50.176 139.969 50.176 140.165C50.176 140.815 50.623 141.361 51.226 141.509V141.663C51.226 141.859 51.372 142.017 51.553 142.017C51.734 142.017 51.881 141.859 51.881 141.663V141.509C52.2086 141.427 52.4952 141.229 52.6868 140.951C52.8784 140.673 52.9619 140.335 52.9217 140C52.8814 139.665 52.7201 139.356 52.468 139.131C52.216 138.906 51.8906 138.782 51.553 138.78V138.78ZM55.145 136.67C54.7302 135.961 54.1254 135.383 53.399 135C53.236 134.915 53.04 134.99 52.962 135.166C52.9237 135.25 52.9182 135.345 52.9466 135.432C52.9749 135.52 53.035 135.594 53.115 135.639C54.358 136.285 55.162 137.667 55.162 139.157C55.162 139.795 55.016 140.428 54.742 140.987C54.7006 141.069 54.6915 141.164 54.7165 141.253C54.7415 141.342 54.7987 141.418 54.877 141.467C54.926 141.495 54.979 141.509 55.03 141.509C55.148 141.509 55.261 141.44 55.32 141.32C55.646 140.66 55.818 139.911 55.818 139.157C55.818 138.272 55.585 137.412 55.145 136.67V136.67ZM52.069 134.547H52.046C51.866 134.547 51.719 134.706 51.719 134.901C51.719 135.097 51.865 135.256 52.046 135.256H52.067C52.247 135.256 52.394 135.098 52.395 134.903C52.395 134.707 52.25 134.548 52.069 134.547ZM49.994 142.676C48.751 142.029 47.947 140.648 47.947 139.157C47.947 138.519 48.093 137.887 48.367 137.327C48.4081 137.245 48.417 137.15 48.3921 137.061C48.3671 136.973 48.31 136.897 48.232 136.848C48.072 136.756 47.874 136.822 47.789 136.995C47.461 137.668 47.2911 138.408 47.292 139.157C47.292 140.043 47.524 140.903 47.964 141.645C48.3788 142.354 48.9836 142.932 49.71 143.315C49.7538 143.338 49.8025 143.35 49.852 143.35C49.974 143.35 50.091 143.276 50.147 143.15C50.1855 143.066 50.1912 142.971 50.1629 142.883C50.1345 142.795 50.0743 142.721 49.994 142.676V142.676ZM51.063 143.059H51.043C50.862 143.059 50.715 143.216 50.714 143.412C50.714 143.608 50.86 143.767 51.041 143.768H51.063C51.243 143.768 51.391 143.609 51.391 143.414C51.391 143.218 51.244 143.059 51.063 143.059V143.059Z" fill="#65A300"/>
</svg>
