<svg xmlns="http://www.w3.org/2000/svg" xmlns:xlink="http://www.w3.org/1999/xlink" width="365" height="145" viewBox="0 0 365 145">
    <defs>
        <path id="a" d="M5 4.558L9.467.092a.313.313 0 0 1 .441.441L5.442 5l4.466 4.467a.313.313 0 0 1-.441.441L5 5.442.533 9.908a.313.313 0 0 1-.441-.441L4.558 5 .092.533A.312.312 0 1 1 .533.092L5 4.558z"/>
    </defs>
    <g fill="none" fill-rule="evenodd">
        <path stroke="#17C9B2" stroke-linecap="square" stroke-width="2" d="M51.5 141.5h238M34.5 141.5h12M296.5 141.25h20"/>
        <g fill="#D9E4EA" opacity=".509">
            <path d="M26.5 96h54a6.5 6.5 0 1 1 0 13h-54a6.5 6.5 0 1 1 0-13zM96.5 0h103a6.5 6.5 0 1 1 0 13h-103a6.5 6.5 0 1 1 0-13zM8 20h290a8 8 0 0 1 8 8v2a8 8 0 0 1-8 8H8a8 8 0 0 1-8-8v-2a8 8 0 0 1 8-8zM205 50h152a8 8 0 0 1 8 8v2a8 8 0 0 1-8 8H205a8 8 0 0 1-8-8v-2a8 8 0 0 1 8-8zM205 100h90a8 8 0 0 1 8 8v2a8 8 0 0 1-8 8h-90a8 8 0 0 1-8-8v-2a8 8 0 0 1 8-8zM149 124h146a8 8 0 0 1 8 8v2a8 8 0 0 1-8 8H149a8 8 0 0 1-8-8v-2a8 8 0 0 1 8-8zM39.5 73h209a6.5 6.5 0 1 1 0 13h-209a6.5 6.5 0 1 1 0-13z"/>
        </g>
        <g transform="translate(88 31)">
            <path fill="#FFF" stroke="#8459B9" d="M16.925 101H0c.627 4.2 2.194 6.9 4.701 8.1 2.508 1.2 61.747 1.2 177.717 0 4.388-1.2 6.582-3.9 6.582-8.1h-20.687"/>
            <path fill="#FFF" stroke="#8459B9" d="M16.5 20.5h161v81h-161z"/>
            <path fill="#EBF1F4" stroke="#8459B9" d="M22.5 25.5h149v71h-149z" opacity=".7"/>
            <path fill="#17C9B2" d="M83.54 14.009L80.218 3.253c-.277-.717 0-1.165.83-1.345 1.246-.268 6.645-2.15 16.196-1.882 6.368.18 10.936.897 13.704 2.151.831.359 1.108.717.831 1.076-.277.358-1.523 4.033-3.738 11.025 7.476 1.075 11.213 2.33 11.213 3.764 0 1.434-3.184 2.42-9.551 2.958H83.54c-7.475-.359-11.213-1.344-11.213-2.958 0-1.613 3.738-2.958 11.213-4.033z"/>
            <path fill="#FFF" d="M82.065 4.593c-.043-1.062.13-1.58.518-1.556.519-.346 1.47-.691 2.852-1.037l2.815 11.148-3.111.519-3.074-9.074zM87 2l3 11h1V2z"/>
            <circle cx="111" cy="61" r="7" stroke="#17C9B2" stroke-width="2"/>
            <circle cx="85" cy="61" r="2" fill="#9D7BC7"/>
            <circle cx="111" cy="61" r="2" fill="#9D7BC7"/>
            <path stroke="#9D7BC7" stroke-linecap="square" d="M92.5 74.5h9"/>
            <g transform="translate(111 68)">
                <path stroke="#17C9B2" stroke-dasharray="2" stroke-width="2" d="M0 0v14.431C1 20.144 4.667 23 11 23s10-3.157 11-9.47"/>
                <rect width="10" height="3" x="17" y="11" fill="#17C9B2" rx="1.5"/>
            </g>
        </g>
        <circle cx="99" cy="54" r="17" fill="#CC616A"/>
        <use fill="#FFF" fill-rule="nonzero" stroke="#FFF" transform="translate(94 49)" xlink:href="#a"/>
        <g transform="translate(44 79)">
            <rect width="62" height="43" x="1" y="13" fill="#5C666A" stroke="#8459B9" stroke-width="2" rx="3"/>
            <rect width="60" height="42" x="2" y="14" fill="#899296" rx="1"/>
            <g fill-rule="nonzero">
                <path fill="#FFF" stroke="#17C9B2" d="M17.704 20.344c-4.486 1.903-9.678-.183-11.575-4.652-1.897-4.469.209-9.654 4.694-11.557 4.486-1.904 9.678.182 11.575 4.651 1.897 4.47-.21 9.654-4.694 11.558z"/>
                <path fill="#17C9B2" d="M14.05 11.538c-.68.288-1.424.07-1.66-.485-.235-.555.125-1.242.804-1.53.679-.288 1.423-.07 1.658.485.124.292.476.423.784.291.31-.13.46-.474.335-.766-.411-.97-1.52-1.46-2.641-1.246l-.117-.275c-.124-.292-.475-.422-.784-.291-.309.131-.459.474-.335.766l.117.275c-.933.657-1.35 1.797-.94 2.766.484 1.139 1.931 1.618 3.227 1.068.679-.289 1.423-.071 1.659.484.235.556-.125 1.242-.804 1.53-.679.288-1.423.07-1.658-.485-.124-.292-.475-.422-.784-.291-.31.13-.46.474-.335.766.411.97 1.521 1.46 2.641 1.246l.097.228c.124.292.476.423.784.292.31-.131.46-.475.335-.767l-.097-.228c.933-.657 1.351-1.796.94-2.766-.484-1.138-1.931-1.617-3.227-1.067zM18.46 5.85a7.524 7.524 0 0 0-3.894-1.278.583.583 0 0 0-.607.55.57.57 0 0 0 .548.597c2.431.102 4.61 1.6 5.55 3.815a6.25 6.25 0 0 1 .47 3.01.57.57 0 0 0 .523.62.583.583 0 0 0 .63-.525 7.387 7.387 0 0 0-.556-3.558A7.354 7.354 0 0 0 18.46 5.85zM12.1 5.037l-.036.015a.58.58 0 0 0-.297.764.58.58 0 0 0 .755.317l.03-.013.003-.001a.58.58 0 0 0 .298-.761.58.58 0 0 0-.754-.32zM14.02 18.76c-2.431-.103-4.61-1.6-5.55-3.816a6.25 6.25 0 0 1-.47-3.01.57.57 0 0 0-.523-.62.583.583 0 0 0-.63.525 7.387 7.387 0 0 0 .556 3.558 7.354 7.354 0 0 0 2.664 3.232 7.525 7.525 0 0 0 3.893 1.277.583.583 0 0 0 .608-.55.57.57 0 0 0-.548-.597z"/>
                <path fill="#96C83C" d="M16.004 18.345l-.03.013a.579.579 0 0 0-.3.762.58.58 0 0 0 .754.32l.035-.014a.58.58 0 0 0 .297-.764.58.58 0 0 0-.756-.317z"/>
            </g>
            <g fill-rule="nonzero">
                <path fill="#FFF" stroke="#17C9B2" d="M35.884 20.627c-4.485 1.904-9.678-.183-11.575-4.652-1.896-4.469.21-9.654 4.695-11.557 4.485-1.904 9.677.182 11.574 4.651 1.897 4.47-.209 9.654-4.694 11.558z"/>
                <path fill="#17C9B2" d="M32.23 11.82c-.68.289-1.423.071-1.659-.484-.236-.555.125-1.242.803-1.53.68-.288 1.423-.07 1.659.485.124.292.475.423.784.291.309-.13.459-.474.335-.766-.412-.97-1.522-1.46-2.642-1.246l-.117-.275c-.124-.292-.475-.422-.784-.291-.309.131-.459.474-.335.766l.117.275c-.933.657-1.35 1.797-.94 2.766.484 1.139 1.932 1.618 3.227 1.068.68-.289 1.423-.071 1.659.484.236.556-.125 1.242-.803 1.53-.68.288-1.423.07-1.659-.485-.124-.292-.475-.422-.784-.291-.309.13-.459.474-.335.766.412.97 1.521 1.46 2.642 1.246l.097.228c.124.292.475.423.784.292.309-.131.459-.475.335-.767l-.097-.228c.932-.657 1.35-1.796.939-2.766-.483-1.138-1.93-1.617-3.227-1.067zM36.64 6.133a7.524 7.524 0 0 0-3.893-1.278.583.583 0 0 0-.608.55.57.57 0 0 0 .549.597c2.43.102 4.609 1.6 5.55 3.815a6.25 6.25 0 0 1 .47 3.01.57.57 0 0 0 .523.62.583.583 0 0 0 .629-.525 7.387 7.387 0 0 0-.555-3.558 7.354 7.354 0 0 0-2.664-3.231zM30.28 5.32l-.036.015a.58.58 0 0 0-.296.764.58.58 0 0 0 .755.317l.03-.013.003-.001a.58.58 0 0 0 .297-.761.58.58 0 0 0-.753-.32zM32.2 19.042c-2.43-.102-4.61-1.6-5.55-3.815a6.25 6.25 0 0 1-.47-3.01.57.57 0 0 0-.523-.62.583.583 0 0 0-.63.525 7.387 7.387 0 0 0 .556 3.558 7.354 7.354 0 0 0 2.664 3.232 7.525 7.525 0 0 0 3.894 1.277.583.583 0 0 0 .607-.55.57.57 0 0 0-.548-.597z"/>
                <path fill="#96C83C" d="M34.185 18.628l-.03.013a.579.579 0 0 0-.3.762.58.58 0 0 0 .753.32l.035-.014a.58.58 0 0 0 .297-.764.58.58 0 0 0-.755-.317z"/>
            </g>
            <g fill-rule="nonzero">
                <path fill="#FFF" stroke="#17C9B2" d="M46.892 19.543c-4.866-.255-8.618-4.406-8.364-9.254.254-4.849 4.42-8.585 9.285-8.33 4.866.255 8.618 4.406 8.364 9.255-.254 4.848-4.42 8.584-9.285 8.33z"/>
                <path fill="#17C9B2" d="M47.467 10.027c-.736-.039-1.31-.56-1.278-1.163.032-.603.656-1.061 1.393-1.023.736.039 1.31.56 1.278 1.163-.017.317.242.588.577.606.335.017.62-.226.637-.542.055-1.052-.728-1.98-1.829-2.278l.016-.298c.017-.317-.242-.589-.577-.606-.335-.018-.62.225-.637.542l-.016.298c-1.126.182-2 1.023-2.056 2.074-.065 1.236 1.026 2.3 2.432 2.374.736.039 1.31.56 1.278 1.163-.031.603-.656 1.061-1.393 1.023-.736-.039-1.31-.56-1.278-1.163.017-.317-.241-.588-.577-.606-.335-.017-.62.226-.637.542-.055 1.052.728 1.98 1.829 2.278l-.013.248c-.017.317.241.588.577.605.335.018.62-.225.637-.542l.013-.247c1.126-.182 2.001-1.023 2.056-2.074.065-1.236-1.026-2.3-2.432-2.374zM53.925 6.848a7.524 7.524 0 0 0-2.94-2.855.583.583 0 0 0-.786.227.57.57 0 0 0 .23.778c2.14 1.157 3.442 3.458 3.316 5.862a6.25 6.25 0 0 1-.897 2.91.57.57 0 0 0 .2.787.583.583 0 0 0 .794-.195 7.387 7.387 0 0 0 1.061-3.442 7.354 7.354 0 0 0-.978-4.072zM48.564 3.33l-.038-.003a.58.58 0 0 0-.601.557.58.58 0 0 0 .54.616l.032.001h.003a.58.58 0 0 0 .601-.553.58.58 0 0 0-.537-.619zM44.275 16.505c-2.14-1.158-3.442-3.459-3.316-5.863a6.25 6.25 0 0 1 .897-2.91.57.57 0 0 0-.198-.787.583.583 0 0 0-.796.195 7.387 7.387 0 0 0-1.06 3.442 7.354 7.354 0 0 0 .977 4.072 7.525 7.525 0 0 0 2.94 2.855.583.583 0 0 0 .787-.227.57.57 0 0 0-.231-.777z"/>
                <path fill="#96C83C" d="M46.24 17.002l-.033-.001a.579.579 0 0 0-.603.553.58.58 0 0 0 .537.619l.038.002a.58.58 0 0 0 .601-.557.58.58 0 0 0-.54-.616z"/>
            </g>
            <path fill="#8459B9" stroke="#8459B9" stroke-width="2" d="M2 16c1.998 1.244 3.878 1.866 5.64 1.866h.904l51.876-.207c1.72.138 2.58.81 2.58 2.013v38.632C63 60.101 62.235 61 60.705 61H6.249c-2.782 0-4.173-1.452-4.173-4.355C2.076 53.742 2.05 40.194 2 16z"/>
            <path fill="#FFF" d="M53.045 33h-2.989C47.352 34.594 46 36.333 46 38.217c0 1.884 1.174 3.479 3.522 4.783H65V33h-9.5"/>
            <circle cx="56.5" cy="38.5" r="2.5" fill="#FFF" stroke="#8459B9"/>
            <path stroke="#FFF" stroke-width="2" d="M7 24v12M7 41v6M15 55h16M37 55h4M44 55h6M60 22v7"/>
        </g>
        <path fill="#CC616A" fill-rule="nonzero" d="M75.595 80.561l-.747-7.231.994-.103.944 9.13.091.884-.803-.381-8.292-3.935.428-.903 6.568 3.116-.362-.512.817-.577.362.512zm58.874-34.735l-.938.348c-.233-.63-.47-1.248-.712-1.855l.929-.37c.245.615.485 1.24.72 1.877zm-1.491-3.738l-.919.395a68.85 68.85 0 0 0-.81-1.815l.907-.42c.28.6.553 1.214.822 1.84zm-1.7-3.659l-.894.45a58.576 58.576 0 0 0-.92-1.757l.877-.48c.318.583.63 1.178.936 1.787zm-1.943-3.55l-.859.51a49.63 49.63 0 0 0-1.046-1.681l.838-.546c.363.557.718 1.13 1.067 1.716zm-2.2-3.38l-.814.58a42.131 42.131 0 0 0-1.186-1.582l.786-.618c.412.523.816 1.063 1.214 1.62zm-2.517-3.193l-.753.658a36.084 36.084 0 0 0-1.337-1.45l.716-.698c.466.478.924.975 1.374 1.49zm-2.853-2.92l-.674.739c-.49-.447-.988-.873-1.495-1.28l.626-.78c.523.42 1.038.86 1.543 1.32zm-3.144-2.525l-.575.82a28.802 28.802 0 0 0-1.646-1.075l.517-.856c.577.35 1.145.72 1.704 1.111zm-3.497-2.11l-.456.89a27.654 27.654 0 0 0-1.78-.832l.392-.92c.624.265 1.239.553 1.844.862zm-3.77-1.6l-.324.946a28.225 28.225 0 0 0-1.88-.572l.257-.966c.658.175 1.307.373 1.947.592zm-3.965-1.056l-.19.982a30.517 30.517 0 0 0-1.943-.312l.127-.992c.678.087 1.346.194 2.006.322zm-4.069-.52l-.065.997a34.494 34.494 0 0 0-1.97-.07l.008-1c.684.005 1.36.03 2.027.073zm-4.075-.043l.037 1c-.665.025-1.323.064-1.971.118l-.083-.997a44.581 44.581 0 0 1 2.017-.12zm-4.037.337l.13.992c-.66.086-1.31.189-1.951.306l-.18-.984a40.16 40.16 0 0 1 2.001-.314zm-4.003.736l.233.973c-.645.154-1.28.324-1.905.51l-.285-.958a36.872 36.872 0 0 1 1.957-.525zm-3.877 1.156l.339.94c-.623.225-1.234.466-1.833.723l-.394-.92a34.749 34.749 0 0 1 1.888-.743zm-3.75 1.608l.448.894a32.74 32.74 0 0 0-1.734.935l-.501-.865a33.74 33.74 0 0 1 1.787-.964zm-3.519 2.038l.553.834c-.55.364-1.085.743-1.609 1.137l-.601-.799c.539-.406 1.091-.797 1.657-1.172zm-3.23 2.432l.647.762c-.502.426-.99.866-1.464 1.32l-.69-.723c.487-.467.99-.92 1.506-1.36zm-2.945 2.815l.732.682c-.45.482-.884.976-1.303 1.48l-.77-.64c.433-.518.88-1.026 1.341-1.522zm-2.61 3.139l.803.596c-.394.53-.772 1.07-1.133 1.616l-.834-.552c.371-.56.76-1.115 1.164-1.66zm-2.236 3.38l.862.506a36.631 36.631 0 0 0-.954 1.727l-.888-.459a37.63 37.63 0 0 1 .98-1.775zm-1.856 3.59l.912.41c-.28.625-.53 1.235-.75 1.82l-.936-.35c.226-.605.485-1.235.774-1.88zm-1.409 3.81l.964.266c-.15.547-.234.976-.237 1.146 0 .194-.031.427-.1.797l-.983-.181c.058-.313.083-.502.083-.625.005-.284.102-.78.273-1.402zm-.735 3.993l.984.178c-.119.655-.22 1.292-.307 1.952l-.991-.13c.089-.678.193-1.33.314-2zm-.526 4.017l.997.078c-.05.647-.085 1.303-.1 1.97l-1-.024c.016-.685.05-1.359.103-2.024zm-.097 4.06l1-.03c.02.65.057 1.306.113 1.969l-.997.084a37.908 37.908 0 0 1-.116-2.023zm.339 4.033l.99-.136c.09.646.195 1.295.32 1.948l-.983.187a39.375 39.375 0 0 1-.327-1.999zm.757 3.988l.972-.236c.154.634.325 1.27.513 1.908l-.96.283a41.653 41.653 0 0 1-.525-1.955zm1.148 3.892l.944-.327c.214.616.444 1.234.69 1.853l-.928.37a44.768 44.768 0 0 1-.706-1.896zm1.501 3.771l.912-.41c.268.595.551 1.191.85 1.788l-.894.447a48.745 48.745 0 0 1-.868-1.825zm1.805 3.608l.876-.483c.315.572.645 1.144.989 1.716l-.857.516a53.56 53.56 0 0 1-1.008-1.75zm2.142 3.425l.817-.577 1.154 1.633-.816.577-1.155-1.633z"/>
        <path fill="#17C9B2" d="M50.291 128.763h-7.303c-1.041 0-1.892.875-1.892 1.947v.22c0 1.071.85 1.948 1.892 1.948h7.303c1.041 0 1.894-.877 1.894-1.947v-.221c0-1.072-.853-1.947-1.894-1.947"/>
        <path fill="#FEFEFE" d="M50.238 129.27H43.04c-.828 0-1.506.697-1.506 1.55 0 .852.678 1.55 1.506 1.55h7.198c.83 0 1.508-.698 1.508-1.55 0-.853-.678-1.55-1.508-1.55"/>
        <path fill="#17C9B2" d="M52.91 125.061h-7.304c-1.041 0-1.892.875-1.892 1.947v.221c0 1.07.851 1.947 1.892 1.947h7.304c1.04 0 1.893-.876 1.893-1.947v-.221c0-1.072-.853-1.947-1.893-1.947"/>
        <path fill="#FEFEFE" d="M52.857 125.568h-7.198c-.829 0-1.507.697-1.507 1.55 0 .853.678 1.551 1.507 1.551h7.198c.83 0 1.508-.698 1.508-1.55 0-.854-.678-1.55-1.508-1.55"/>
        <path fill="#17C9B2" d="M50.438 132.37h-7.303c-1.042 0-1.893.875-1.893 1.947v.221c0 1.07.851 1.946 1.893 1.946h7.303c1.04 0 1.893-.877 1.893-1.946v-.221c0-1.072-.852-1.947-1.893-1.947"/>
        <path fill="#FEFEFE" d="M50.385 132.877h-7.198c-.83 0-1.506.697-1.506 1.55 0 .853.676 1.551 1.506 1.551h7.198c.829 0 1.507-.698 1.507-1.552 0-.852-.678-1.549-1.507-1.549"/>
        <path fill="#17C9B2" d="M50.585 135.978H43.28c-1.04 0-1.893.875-1.893 1.945v.221c0 1.07.852 1.947 1.893 1.947h7.304c1.04 0 1.892-.876 1.892-1.947v-.22c0-1.071-.851-1.946-1.892-1.946"/>
        <path fill="#FEFEFE" d="M50.532 136.483h-7.198c-.829 0-1.507.698-1.507 1.55 0 .853.678 1.551 1.507 1.551h7.198c.828 0 1.508-.698 1.508-1.55 0-.853-.68-1.55-1.508-1.55"/>
        <path fill="#17C9B2" d="M50.73 139.584h-7.303c-1.04 0-1.892.875-1.892 1.947v.22c0 1.071.851 1.948 1.892 1.948h7.304c1.04 0 1.893-.877 1.893-1.947v-.221c0-1.072-.852-1.947-1.893-1.947"/>
        <path fill="#FEFEFE" d="M50.678 140.09H43.48c-.829 0-1.507.698-1.507 1.55 0 .853.678 1.552 1.507 1.552h7.198c.83 0 1.508-.699 1.508-1.552 0-.852-.678-1.55-1.508-1.55"/>
        <g>
            <path fill="#FFF" fill-rule="nonzero" stroke="#17C9B2" d="M51.555 144.478c-2.713 0-4.92-2.387-4.92-5.32 0-2.934 2.207-5.32 4.92-5.32 2.712 0 4.918 2.386 4.918 5.32 0 2.933-2.206 5.32-4.918 5.32z"/>
            <path fill="#17C9B2" d="M51.553 138.78c-.398 0-.721-.303-.721-.675 0-.373.323-.676.721-.676.398 0 .721.303.721.676 0 .196.147.354.328.354.181 0 .328-.158.328-.354 0-.65-.447-1.197-1.049-1.345v-.185c0-.195-.147-.354-.328-.354-.181 0-.328.159-.328.354v.185a1.385 1.385 0 0 0 .328 2.73c.398 0 .721.302.721.675 0 .372-.323.675-.721.675-.398 0-.721-.303-.721-.675 0-.196-.147-.355-.328-.355-.181 0-.328.159-.328.355 0 .65.447 1.196 1.05 1.344v.154c0 .196.146.354.327.354.181 0 .328-.158.328-.354v-.154a1.385 1.385 0 0 0-.328-2.729zM55.145 136.67a4.401 4.401 0 0 0-1.746-1.67c-.163-.085-.359-.01-.437.166a.368.368 0 0 0 .153.473c1.243.646 2.047 2.028 2.047 3.518 0 .638-.146 1.271-.42 1.83a.37.37 0 0 0 .135.48c.049.028.102.042.153.042.118 0 .231-.069.29-.189.326-.66.498-1.409.498-2.163 0-.885-.233-1.745-.673-2.487zM52.069 134.547h-.023c-.18 0-.327.159-.327.354 0 .196.146.355.327.355h.021c.18 0 .327-.158.328-.353 0-.196-.145-.355-.326-.356zM49.994 142.676c-1.243-.647-2.047-2.028-2.047-3.519 0-.638.146-1.27.42-1.83a.37.37 0 0 0-.135-.479c-.16-.092-.358-.026-.443.147a4.924 4.924 0 0 0-.497 2.162c0 .886.232 1.746.672 2.488a4.401 4.401 0 0 0 1.746 1.67.306.306 0 0 0 .142.035c.122 0 .239-.074.295-.2a.368.368 0 0 0-.153-.474zM51.063 143.059h-.02c-.181 0-.328.157-.329.353 0 .196.146.355.327.356h.022c.18 0 .328-.159.328-.354 0-.196-.147-.355-.328-.355z"/>
        </g>
    </g>
</svg>
