<svg width="366" height="213" viewBox="0 0 366 213" fill="none" xmlns="http://www.w3.org/2000/svg">
<path d="M280.729 187.505L281.204 205.612L246.958 205.951C246.958 205.951 246.754 202.221 253.264 199.509C259.774 196.728 261.131 185.81 261.131 185.81L280.729 187.505Z" fill="white"/>
<path d="M246.415 206.426V205.951C246.415 205.815 246.28 201.882 253.061 199.034C259.232 196.457 260.588 185.81 260.588 185.742L260.656 185.268L281.204 187.166L281.678 206.222L246.415 206.426ZM261.538 186.285C261.199 188.523 259.435 197.406 253.468 199.915C248.789 201.882 247.704 204.391 247.5 205.408L280.661 205.137L280.254 188.048L261.538 186.285Z" fill="#1B1C29"/>
<path d="M290.901 116.504C273.608 133.797 256.655 161.94 256.655 190.421L282.628 192.117C282.628 192.117 284.323 167.839 292.664 157.532C303.853 143.698 317.077 121.59 317.62 115.148C318.027 108.706 290.901 116.504 290.901 116.504Z" fill="#1B1C29"/>
<path d="M260.52 196.253C259.435 195.507 258.283 195.033 257.062 194.694C256.655 194.558 256.452 195.236 256.858 195.372C258.079 195.643 259.164 196.186 260.181 196.864C260.52 197.067 260.86 196.525 260.52 196.253Z" fill="#1B1C29"/>
<path d="M258.079 198.695C257.197 198.356 256.384 197.813 255.638 197.203C255.299 196.932 254.824 197.406 255.163 197.677C255.977 198.423 256.858 198.966 257.876 199.373C258.35 199.508 258.486 198.83 258.079 198.695Z" fill="#1B1C29"/>
<path d="M349.424 170.959L364.75 180.521L346.169 209.274C346.169 209.274 342.982 207.375 344.271 200.458C345.559 193.541 337.15 186.353 337.15 186.353L349.424 170.959Z" fill="white"/>
<path d="M346.373 209.952L345.966 209.681C345.83 209.613 342.507 207.511 343.796 200.322C345.016 193.744 336.879 186.759 336.811 186.692L336.404 186.353L349.289 170.213L365.496 180.249L346.373 209.952ZM337.896 186.285C339.524 187.777 346.034 194.151 344.881 200.526C343.999 205.476 345.423 207.714 346.169 208.528L364.14 180.656L349.628 171.637L337.896 186.285Z" fill="#1B1C29"/>
<path d="M295.716 123.489C301.209 166.754 315.585 178.283 339.388 193.948L354.375 173.197C354.375 173.197 347.729 168.043 340.405 161.804C334.641 156.921 327.995 151.767 326.842 144.647C321.282 109.248 320.671 107.214 315.517 103.281C310.364 99.3474 295.716 123.489 295.716 123.489Z" fill="#1B1C29"/>
<path d="M345.695 192.591C344.474 193.066 343.457 193.744 342.507 194.626C342.168 194.897 342.643 195.44 342.982 195.168C343.864 194.355 344.881 193.677 346.034 193.202C346.373 193.066 346.034 192.456 345.695 192.591Z" fill="#1B1C29"/>
<path d="M346.373 195.982C345.559 196.525 344.677 196.932 343.796 197.203C343.389 197.338 343.525 197.949 343.931 197.881C345.016 197.61 345.966 197.135 346.847 196.525C347.186 196.253 346.712 195.711 346.373 195.982Z" fill="#1B1C29"/>
<path d="M300.938 145.19C300.734 145.19 300.531 145.054 300.463 144.85C299.106 140.239 298.7 130.067 298.632 127.829C296.326 127.354 293.071 125.863 292.868 125.795C292.596 125.659 292.529 125.388 292.596 125.117C292.732 124.845 293.003 124.778 293.275 124.845C293.342 124.845 297.004 126.541 299.174 126.812L299.581 126.88V127.287C299.581 127.422 299.92 139.493 301.412 144.444C301.48 144.715 301.344 144.986 301.073 145.054C301.005 145.19 300.938 145.19 300.938 145.19Z" fill="white"/>
<path d="M176.702 210.427H48.5341C41.1424 210.427 35.107 204.459 35.107 196.999V13.9019C35.107 6.51016 41.0746 0.474731 48.5341 0.474731H176.702C184.094 0.474731 190.13 6.44235 190.13 13.9019V196.999C190.062 204.391 184.094 210.427 176.702 210.427Z" fill="white"/>
<path d="M176.702 210.901H48.5341C40.8711 210.901 34.6323 204.662 34.6323 196.999V13.9018C34.6323 6.23888 40.8711 0 48.5341 0H176.702C184.365 0 190.604 6.23888 190.604 13.9018V196.999C190.604 204.662 184.365 210.901 176.702 210.901ZM48.5341 1.01721C41.4137 1.01721 35.6495 6.78139 35.6495 13.9018V196.999C35.6495 204.12 41.4137 209.884 48.5341 209.884H176.702C183.823 209.884 189.587 204.12 189.587 196.999V13.9018C189.587 6.78139 183.823 1.01721 176.702 1.01721H48.5341Z" fill="#1B1C29"/>
<path d="M179.144 24.6164V178.147C179.144 185.539 173.176 191.574 165.717 191.574H59.3843C51.9926 191.574 45.9572 185.607 45.9572 178.147V24.6164C45.9572 17.2247 51.9248 11.1893 59.3843 11.1893H165.717C173.176 11.2571 179.144 17.2247 179.144 24.6164Z" fill="#6045AF"/>
<path d="M128.012 33.2288C145.101 50.2501 162.122 67.3392 179.144 84.4283V24.6843C179.144 17.2926 173.176 11.2571 165.717 11.2571H105.905C113.296 18.581 120.688 25.9049 128.012 33.2288Z" fill="#1B1C29"/>
<path d="M116.145 196.592H108.956V203.781H116.145V196.592Z" fill="white"/>
<path d="M303.786 71.069C291.715 69.7127 284.73 79.8848 277.338 71.069C270.625 63.0669 262.487 42.7906 258.418 48.0801C256.791 48.0123 255.706 48.0801 254.485 50.3179C252.111 50.7926 249.535 51.1317 255.773 60.0153C256.791 61.4394 257.13 64.3554 257.876 66.2542C260.453 72.7643 262.826 81.1732 267.573 85.649C278.966 96.2279 299.31 91.481 302.294 87.4799C307.515 80.4951 303.786 71.069 303.786 71.069Z" fill="white"/>
<path d="M286.154 92.566C280.661 92.566 273.134 91.4131 267.302 85.988C263.301 82.2582 260.927 75.8159 258.825 70.1196C258.35 68.8311 257.944 67.6104 257.469 66.4576C257.198 65.7117 256.926 64.7623 256.723 63.8807C256.384 62.5244 255.977 61.1003 255.434 60.2866C252.179 55.6752 251.026 52.8948 251.637 51.4029C252.044 50.3179 253.196 50.0466 254.282 49.8432C255.502 47.6732 256.723 47.4697 258.283 47.5375C258.825 46.9272 259.435 46.6559 260.181 46.6559C263.097 46.8594 266.624 52.7592 270.625 59.6762C272.998 63.7451 275.507 68.0173 277.813 70.7299C281.95 75.6803 285.815 74.3918 291.104 72.6287C294.766 71.408 298.903 69.9839 303.921 70.5942H304.26L304.396 70.8655C304.532 71.2724 308.126 80.6985 302.904 87.7512C301.277 89.9212 295.784 91.8878 289.748 92.4303C288.663 92.4981 287.443 92.566 286.154 92.566ZM257.808 48.5547C256.723 48.5547 255.909 48.826 255.027 50.5891L254.892 50.7926L254.553 50.8604C253.671 51.0639 252.79 51.1995 252.586 51.8098C252.111 52.8948 253.4 55.6074 256.316 59.744C256.994 60.6934 257.401 62.1854 257.74 63.6773C257.943 64.5588 258.215 65.4404 258.486 66.1185C258.961 67.2714 259.368 68.5599 259.842 69.7805C261.877 75.4091 264.25 81.7157 268.048 85.3099C274.965 91.7522 284.526 91.9557 289.613 91.481C296.055 90.8706 300.802 88.8362 302.023 87.2086C306.43 81.241 304.057 73.239 303.514 71.6115C298.835 71.2046 294.902 72.493 291.444 73.6459C286.154 75.409 281.61 76.9688 277.067 71.4759C274.693 68.6955 272.252 64.4232 269.811 60.2866C266.217 54.2511 262.555 47.9444 260.181 47.8088C259.91 47.8088 259.435 47.8766 258.961 48.4869L258.825 48.6904H258.554C258.215 48.5547 258.011 48.5547 257.808 48.5547Z" fill="#1B1C29"/>
<path d="M303.786 71.069C291.715 69.7127 284.73 79.8848 277.338 71.069C275.1 68.3564 272.727 64.3554 270.353 60.3544C266.488 63.5416 262.419 68.6955 259.164 72.4931C261.199 77.986 263.775 83.818 267.437 87.2087C278.83 97.7876 299.378 91.481 302.362 87.4121C307.515 80.4951 303.786 71.069 303.786 71.069Z" fill="#6045AF"/>
<path d="M284.12 93.5154C277.203 93.5154 271.303 91.4809 267.098 87.5477C263.165 83.8858 260.52 77.6469 258.689 72.6287L258.554 72.3574L258.757 72.154C259.435 71.408 260.114 70.5264 260.859 69.7127C263.708 66.322 266.895 62.5244 270.014 59.9475L270.489 59.5406L270.76 60.0831C272.93 63.8129 275.439 68.0173 277.745 70.7299C281.882 75.6803 285.747 74.3918 291.037 72.6287C294.699 71.408 298.835 69.9839 303.853 70.5942H304.192L304.328 70.8655C304.464 71.2724 308.058 80.6985 302.836 87.7512C301.209 89.9212 294.902 92.7016 287.442 93.3797C286.29 93.4476 285.205 93.5154 284.12 93.5154ZM259.774 72.5609C261.605 77.4435 264.114 83.4111 267.844 86.8018C274.083 92.6338 282.763 92.7694 287.375 92.3625C294.292 91.7522 300.531 89.1753 302.022 87.1409C306.43 81.1732 304.057 73.1712 303.514 71.5437C298.835 71.1368 294.902 72.4252 291.444 73.5781C286.154 75.3412 281.61 76.9009 277.067 71.408C274.829 68.7633 272.456 64.7623 270.353 61.1003C267.437 63.6094 264.454 67.2036 261.741 70.323C260.995 71.1368 260.385 71.8827 259.774 72.5609Z" fill="#6045AF"/>
<path d="M266.42 55.1327C265.335 53.2339 263.436 51.1995 261.266 50.7926C259.91 50.5214 258.486 51.4707 258.961 52.9626C259.3 53.912 260.249 54.5224 261.063 55.0649C261.809 55.6074 262.623 55.9464 262.623 57.0315C262.623 57.4383 262.284 57.9131 262.216 58.3199C262.012 60.0831 262.962 61.7106 264.521 62.5244C264.928 62.7279 265.267 62.1175 264.86 61.9141C262.962 60.8969 262.623 58.9981 263.301 57.1671C263.572 56.489 263.64 56.1499 263.097 55.6074C262.623 55.1327 261.944 54.7936 261.47 54.4545C261.131 54.2511 260.317 53.8442 260.181 53.5052C259.503 52.6236 259.571 51.1995 262.08 51.742C263.708 52.3523 265.064 53.9798 265.946 55.4718C266.013 55.8786 266.624 55.5396 266.42 55.1327Z" fill="#1B1C29"/>
<path d="M259.028 57.3705C256.926 55.6752 255.434 53.9799 254.892 51.1995C254.824 50.7926 254.146 50.9282 254.214 51.4029C254.756 54.3189 256.316 56.0821 258.486 57.9131C258.893 58.1165 259.368 57.6418 259.028 57.3705Z" fill="#1B1C29"/>
<path d="M259.91 50.8604C259.435 50.3179 259.164 49.7076 259.164 48.9616C259.164 48.5547 258.486 48.5547 258.486 48.9616C258.486 49.8432 258.825 50.657 259.435 51.3351C259.707 51.6742 260.181 51.1995 259.91 50.8604Z" fill="#1B1C29"/>
<path d="M310.974 50.1145C310.77 49.9789 310.635 49.9111 310.431 49.7754C310.228 49.6398 310.092 49.572 309.889 49.5042C307.787 48.4869 305.413 48.6226 303.243 49.5042C302.904 49.6398 302.565 49.8432 302.226 49.9789C300.395 51.0639 298.903 52.7592 297.615 54.4546C294.292 58.9981 294.834 64.6945 301.277 67.1358C302.701 67.6783 304.193 67.8817 305.684 67.6783C307.041 69.3058 308.939 69.5771 310.635 68.8311C312.601 68.0173 313.89 65.5082 312.601 63.5416C312.941 63.1348 313.212 62.66 313.483 62.1175V62.0497C315.721 57.7096 314.5 52.6236 310.974 50.1145Z" fill="white"/>
<path d="M308.939 69.7805C307.651 69.7805 306.498 69.238 305.549 68.2208C304.057 68.3564 302.497 68.153 301.141 67.6105C298.157 66.4576 296.19 64.5588 295.445 62.1175C294.699 59.6084 295.377 56.7603 297.275 54.1833C298.428 52.6236 299.988 50.7248 302.022 49.5719C302.362 49.3685 302.701 49.1651 303.107 49.0294C305.549 48.0122 308.058 48.0122 310.16 49.0294C310.364 49.0973 310.499 49.2329 310.703 49.3007C310.906 49.4363 311.109 49.572 311.245 49.6398L311.313 49.7076C315.111 52.3523 316.263 57.7774 314.025 62.3888C313.822 62.8635 313.551 63.2704 313.28 63.6773C313.754 64.491 313.822 65.5082 313.551 66.4576C313.144 67.7461 312.127 68.8311 310.906 69.3736C310.228 69.6449 309.55 69.7805 308.939 69.7805ZM305.956 67.2036L306.159 67.407C307.312 68.7633 308.872 69.1024 310.567 68.4242C311.516 68.0174 312.33 67.1357 312.601 66.1864C312.737 65.6438 312.873 64.7623 312.262 63.9485L312.059 63.6773L312.262 63.406C312.601 62.9313 312.805 62.5244 313.076 62.0497V61.9819C315.111 57.7775 314.093 52.8948 310.703 50.5214L310.635 50.4536C310.499 50.3857 310.364 50.2501 310.228 50.1823C310.024 50.1145 309.889 49.9788 309.753 49.911C307.922 49.0294 305.752 49.0294 303.582 49.911C303.243 50.0466 302.904 50.1823 302.633 50.3857C300.734 51.4707 299.242 53.3017 298.225 54.7258C296.53 57.0315 295.919 59.6084 296.53 61.7785C297.14 63.8807 298.903 65.576 301.616 66.6611C302.904 67.1358 304.396 67.3392 305.82 67.2036H305.956Z" fill="#1B1C29"/>
<path d="M304.6 57.677C304.621 57.3031 304.335 56.983 303.961 56.962C303.587 56.941 303.267 57.2272 303.246 57.6011C303.225 57.975 303.511 58.2951 303.885 58.3161C304.259 58.3371 304.579 58.0509 304.6 57.677Z" fill="#1B1C29"/>
<path d="M298.293 58.0487C299.106 56.7602 300.124 55.6752 301.277 54.658C301.616 54.3867 302.09 54.8614 301.751 55.1327C300.598 56.0821 299.649 57.1671 298.835 58.3878C298.564 58.7946 298.021 58.3878 298.293 58.0487Z" fill="#1B1C29"/>
<path d="M307.38 64.2875C308.872 63.6772 310.567 64.0841 311.516 65.3726C311.788 65.7117 311.245 66.1863 311.042 65.8473C310.296 64.83 308.939 64.4232 307.719 64.8979C307.312 65.1013 306.973 64.491 307.38 64.2875Z" fill="#1B1C29"/>
<path d="M312.737 63.7451C312.737 63.7451 312.059 63.6773 311.991 63.6773C311.991 63.6773 310.296 61.8463 309.618 61.6429C307.99 58.7947 307.922 58.2521 307.583 55.6074C307.041 54.3189 303.582 52.6914 302.158 49.9789C302.158 49.0973 302.836 48.8938 303.175 48.7582C305.345 47.8766 307.719 48.4869 309.821 49.5042C310.025 49.572 310.16 49.7076 310.364 49.7754C310.567 49.9111 310.703 49.9789 310.838 50.1145C314.771 52.6914 317.213 58.5912 312.737 63.7451Z" fill="#1B1C29"/>
<path d="M317.145 49.7076C312.601 49.5041 309.211 53.1661 308.939 57.574C308.872 58.4556 309.143 59.1337 309.618 59.6762C310.364 61.3038 311.991 62.5244 313.89 63.1347V63.2026C314.093 64.0841 314.771 64.9657 315.585 65.4404C317.145 66.322 319.179 65.9829 320.4 64.6945C321.078 63.9485 321.485 63.0669 321.485 62.1175C322.841 61.1681 323.859 59.8119 324.13 57.9809C324.876 53.5052 321.349 49.8432 317.145 49.7076Z" fill="#1B1C29"/>
<path d="M303.786 71.0689C294.902 70.9333 287.375 82.3261 290.833 94.8038C293.546 104.637 284.73 118.539 284.73 118.539C284.73 118.539 308.126 121.116 322.028 117.725C322.028 117.725 329.962 86.3949 317.891 76.6975C313.754 73.3068 307.651 71.1368 303.786 71.0689Z" fill="#6045AF"/>
<path d="M302.972 119.963C293.274 119.963 284.866 119.081 284.73 119.081L283.916 119.013L284.323 118.335C284.391 118.2 293.003 104.501 290.359 95.0072C288.46 88.158 289.68 81.1054 293.614 76.0194C296.258 72.5608 299.92 70.5942 303.65 70.5942C303.718 70.5942 303.786 70.5942 303.853 70.5942C307.448 70.6621 313.754 72.6965 318.23 76.3584C330.369 86.1236 322.841 116.572 322.57 117.861L322.502 118.132L322.231 118.2C316.602 119.556 309.482 119.963 302.972 119.963ZM285.612 118.064C289.816 118.471 309.346 120.098 321.621 117.25C322.367 114.063 328.606 85.9202 317.552 77.0366C313.212 73.5102 307.176 71.6115 303.786 71.5436C300.327 71.4758 296.936 73.3068 294.359 76.5619C290.63 81.3767 289.477 88.0902 291.308 94.6682C293.749 103.416 287.375 115.08 285.612 118.064Z" fill="#6045AF"/>
<path d="M290.494 90.9384C290.223 90.9384 290.019 90.735 290.019 90.4637C289.952 90.0569 289.07 80.902 293.274 75.3412C293.478 75.1378 293.749 75.07 294.02 75.2734C294.224 75.4769 294.292 75.7481 294.088 76.0194C290.087 81.241 291.037 90.3281 291.037 90.3959C291.037 90.6672 290.833 90.8706 290.494 90.9384Z" fill="#1B1C29"/>
<path d="M242.482 49.911L253.739 40.2136L257.333 54.1155L242.482 49.911Z" fill="#6045AF"/>
<path d="M258.011 54.8615L241.397 50.1145L254.01 39.3321L258.011 54.8615ZM243.499 49.6398L256.587 53.3695L253.4 41.0952L243.499 49.6398Z" fill="#6045AF"/>
<path d="M300.056 131.559C299.717 131.559 299.446 131.559 299.106 131.559C290.765 131.356 284.255 128.711 279.847 123.693C272.795 115.758 273.066 104.094 273.202 101.721L324.808 101.043C324.944 103.62 325.283 116.504 317.891 124.642C313.754 129.185 307.719 131.559 300.056 131.559Z" fill="white"/>
<path d="M324.333 101.517C324.469 104.908 324.469 116.64 317.552 124.235C313.415 128.779 307.515 131.084 300.056 131.084C299.717 131.084 299.445 131.084 299.106 131.084C290.901 130.881 284.526 128.304 280.186 123.354C273.676 115.962 273.541 105.315 273.676 102.196L324.333 101.517ZM325.283 100.5L272.727 101.178C272.727 101.178 269.675 131.356 299.106 132.034C299.445 132.034 299.785 132.034 300.056 132.034C328.402 132.034 325.283 100.5 325.283 100.5Z" fill="#1B1C29"/>
<path d="M314.5 106.603C308.465 107.892 299.92 107.824 296.801 107.892C296.462 107.892 296.055 107.892 295.58 107.892C293.817 107.892 291.376 107.756 288.731 107.485C286.764 107.282 284.73 107.01 282.763 106.671C277.338 105.722 272.659 104.23 272.659 101.856C272.727 98.8727 276.728 97.3808 281.475 96.6348C282.56 96.4314 283.645 96.3636 284.798 96.2279C289.477 95.8211 294.224 95.9567 296.19 95.9567C300.802 96.0923 319.79 95.1429 320.943 101.585C321.417 104.23 318.501 105.722 314.5 106.603Z" fill="#1B1C29"/>
<path d="M288.528 106.943C286.629 106.739 284.866 106.536 283.17 106.264L281.882 95.9567L296.53 100.297L288.528 106.943Z" fill="white"/>
<path d="M282.492 96.6348L284.459 97.2451L295.445 100.5L288.324 106.4C286.697 106.264 285.069 106.061 283.577 105.79L282.492 96.6348ZM281.271 95.2107L281.475 96.6348L282.763 106.671C284.73 107.01 286.764 107.282 288.731 107.485L297.615 100.093L284.798 96.2957L281.271 95.2107Z" fill="#1B1C29"/>
<path d="M314.5 106.603C308.465 107.892 299.92 107.824 296.801 107.892C296.462 107.892 296.055 107.892 295.58 107.892C296.123 103.077 300.259 99.3474 305.142 99.3474C309.685 99.3474 313.483 102.399 314.5 106.603Z" fill="#6045AF"/>
<path d="M312.071 100.388L308.313 98.2181L306.143 101.977L309.901 104.147L312.071 100.388Z" fill="white"/>
<path d="M299.039 96.7704C299.9 96.7704 300.598 96.0721 300.598 95.2107C300.598 94.3493 299.9 93.651 299.039 93.651C298.177 93.651 297.479 94.3493 297.479 95.2107C297.479 96.0721 298.177 96.7704 299.039 96.7704Z" fill="white"/>
<path d="M299.039 97.3129C297.886 97.3129 297.004 96.3635 297.004 95.2785C297.004 94.1935 297.954 93.2441 299.039 93.2441C300.124 93.2441 301.073 94.1935 301.073 95.2785C301.073 96.3635 300.124 97.3129 299.039 97.3129ZM299.039 94.1935C298.428 94.1935 298.021 94.6682 298.021 95.2107C298.021 95.7532 298.496 96.2279 299.039 96.2279C299.581 96.2279 300.056 95.7532 300.056 95.2107C300.056 94.6682 299.581 94.1935 299.039 94.1935Z" fill="#1B1C29"/>
<path d="M280.322 102.67C280.254 102.67 280.119 102.67 280.051 102.602L277.203 100.907C276.931 100.771 276.864 100.432 276.999 100.229C277.135 99.9577 277.474 99.8899 277.677 100.026L280.526 101.721C280.797 101.856 280.865 102.196 280.729 102.399C280.661 102.535 280.458 102.67 280.322 102.67Z" fill="white"/>
<path d="M313.754 102.196C313.551 102.196 313.347 102.06 313.28 101.856C313.144 101.585 313.28 101.314 313.551 101.178L316.67 99.9577C316.942 99.8221 317.213 99.9577 317.348 100.229C317.484 100.5 317.348 100.771 317.077 100.907L313.958 102.128C313.89 102.196 313.822 102.196 313.754 102.196Z" fill="white"/>
<path d="M293.614 107.078C293.478 107.078 293.41 107.01 293.274 106.943C293.071 106.739 293.003 106.468 293.207 106.197L294.902 103.959C295.105 103.755 295.377 103.687 295.648 103.891C295.851 104.094 295.919 104.366 295.716 104.637L294.02 106.875C293.953 107.01 293.817 107.078 293.614 107.078Z" fill="white"/>
<path d="M301.616 111.69C299.92 111.757 298.428 111.215 297.208 111.215C296.597 110.13 295.716 108.909 294.495 108.367C290.765 106.536 287.714 105.79 287.239 107.892C286.9 109.452 291.24 110.537 291.24 110.537L291.376 111.283C290.223 111.757 288.934 112.775 288.188 112.571C283.238 111.011 282.628 113.181 283.238 114.945C283.238 114.945 278.898 116.436 283.306 120.098C283.306 120.098 281.882 122.133 284.662 123.76C286.697 124.981 294.427 125.998 302.226 126.473C301.887 121.319 301.683 116.776 301.616 111.69Z" fill="white"/>
<path d="M302.768 126.948L302.226 126.88C295.105 126.405 286.697 125.456 284.391 124.099C283.306 123.489 282.628 122.675 282.492 121.794C282.356 121.116 282.492 120.505 282.628 120.166C281.204 118.946 280.661 117.725 280.865 116.64C281.068 115.555 282.017 114.877 282.628 114.605C282.424 113.656 282.56 112.775 283.102 112.164C283.984 111.215 285.747 111.215 288.324 112.029C288.595 112.096 289.409 111.689 289.952 111.418C290.223 111.283 290.494 111.147 290.765 111.011V110.944C289.545 110.604 286.357 109.519 286.697 107.756C286.832 107.078 287.239 106.603 287.782 106.332C289.07 105.722 291.308 106.197 294.699 107.892C295.784 108.434 296.733 109.384 297.479 110.74C297.954 110.74 298.428 110.876 298.971 110.944C299.785 111.079 300.666 111.283 301.616 111.215H302.158V111.757C302.158 116.64 302.429 120.98 302.768 126.473V126.948ZM285.272 112.503C284.459 112.503 284.052 112.707 283.848 112.91C283.306 113.453 283.577 114.334 283.713 114.741L283.848 115.216L283.374 115.351C283.374 115.351 282.017 115.826 281.814 116.776C281.678 117.521 282.289 118.539 283.577 119.556L283.916 119.827L283.645 120.234C283.645 120.234 283.238 120.777 283.441 121.523C283.577 122.133 284.052 122.675 284.866 123.15C286.561 124.167 293.274 125.184 301.616 125.795C301.344 120.777 301.141 116.64 301.073 112.096C300.191 112.096 299.445 111.961 298.767 111.825C298.225 111.69 297.682 111.622 297.208 111.622H296.936L296.801 111.35C296.055 110.062 295.241 109.18 294.292 108.706C290.494 106.807 288.934 106.807 288.256 107.146C287.985 107.282 287.782 107.553 287.714 107.892C287.578 108.57 289.748 109.587 291.308 109.926L291.647 109.994L291.918 111.486L291.511 111.622C291.172 111.757 290.765 111.961 290.426 112.164C289.545 112.639 288.663 113.114 287.985 112.91C286.764 112.639 285.883 112.503 285.272 112.503Z" fill="#1B1C29"/>
<path d="M310.771 75.8838C307.719 76.5619 305.413 79.2745 305.345 82.3939C305.278 85.5811 310.906 87.4799 314.704 91.9556C318.094 95.8888 319.722 102.399 318.976 104.976C316.738 112.571 304.464 111.011 298.971 111.079C298.971 113.114 298.903 115.148 298.971 117.182C299.107 120.302 299.242 123.964 299.31 127.151C303.65 129.525 311.11 129.728 315.043 129.864C336.472 130.474 344.271 94.6682 317.755 76.6975C317.755 76.6975 314.093 75.1378 310.771 75.8838C310.906 75.8838 310.838 75.8838 310.771 75.8838Z" fill="#6045AF"/>
<path d="M315.721 130.338C315.517 130.338 315.382 130.338 315.178 130.338C311.177 130.203 303.65 129.999 299.174 127.558L298.903 127.422L298.835 126.202C298.7 123.286 298.632 120.031 298.496 117.182C298.428 115.826 298.428 114.47 298.496 113.114C298.496 112.435 298.496 111.757 298.496 111.079V110.604H298.971C299.717 110.604 300.598 110.604 301.548 110.672C307.583 110.808 316.67 111.079 318.501 104.908C319.179 102.602 317.688 96.3636 314.297 92.3626C312.737 90.5316 310.906 89.1753 309.279 87.9546C306.905 86.1237 304.803 84.5639 304.871 82.4617C304.938 79.1388 307.312 76.2228 310.635 75.4769H310.703C314.229 74.6631 317.891 76.2228 318.094 76.2906L318.162 76.3584C334.166 87.2087 337.489 104.501 333.827 115.894C330.911 124.845 323.994 130.338 315.721 130.338ZM299.92 126.812C304.193 128.982 311.584 129.185 315.178 129.321C323.248 129.592 330.03 124.235 332.878 115.487C336.472 104.433 333.217 87.6834 317.688 77.1044C317.281 76.9688 314.026 75.6803 311.042 76.3584H310.906C307.99 77.0366 305.956 79.4779 305.888 82.3939C305.888 84.0214 307.651 85.3099 309.889 87.0731C311.584 88.3615 313.483 89.7856 315.111 91.6844C318.569 95.7532 320.332 102.399 319.519 105.179C317.484 112.096 307.922 111.825 301.548 111.69C300.802 111.69 300.124 111.622 299.513 111.622C299.513 112.164 299.513 112.639 299.513 113.181C299.513 114.47 299.513 115.894 299.513 117.182C299.581 120.031 299.717 123.286 299.853 126.202L299.92 126.812Z" fill="#6045AF"/>
<path d="M290.494 116.776C288.188 116.979 285.951 116.369 283.984 115.148C283.645 114.945 283.306 115.487 283.713 115.758C285.747 117.115 288.121 117.657 290.562 117.454C290.969 117.386 290.901 116.776 290.494 116.776Z" fill="#1B1C29"/>
<path d="M289.409 121.319C287.442 121.251 285.612 120.709 283.916 119.692C283.577 119.488 283.17 120.031 283.509 120.234C285.272 121.251 287.239 121.862 289.273 121.929C289.748 121.997 289.816 121.319 289.409 121.319Z" fill="#1B1C29"/>
<path d="M317.348 96.567C317.145 96.567 317.009 96.4991 316.874 96.2957C316.738 96.0923 314.229 91.5487 313.28 89.3109C313.144 89.0396 313.28 88.7684 313.551 88.6327C313.822 88.4971 314.093 88.6327 314.229 88.904C315.178 91.074 317.755 95.7532 317.823 95.821C317.959 96.0923 317.891 96.3635 317.62 96.4991C317.484 96.4991 317.416 96.567 317.348 96.567Z" fill="#1B1C29"/>
<path d="M205.659 119.42L241.465 95.2107C241.465 95.2107 255.706 114.877 236.853 127.829C222.816 137.527 205.659 119.42 205.659 119.42Z" fill="white"/>
<path d="M227.834 131.22C216.306 131.22 205.388 119.963 205.252 119.827L204.845 119.42L241.6 94.6004L241.872 95.0073C242.143 95.4142 248.517 104.366 246.822 114.334C245.873 119.827 242.618 124.574 237.125 128.372C234.141 130.406 230.954 131.22 227.834 131.22ZM206.473 119.488C209.185 122.133 224.308 135.899 236.582 127.422C241.804 123.828 244.923 119.285 245.873 114.063C247.297 105.654 242.618 97.7199 241.397 95.8889L206.473 119.488Z" fill="#1B1C29"/>
<path d="M148.831 119.624L157.375 147.902C157.375 147.902 144.898 153.192 140.151 138.273C135.946 125.117 148.831 119.624 148.831 119.624Z" fill="white"/>
<path d="M86.5778 51.8776L72.9471 68.8311C72.9471 68.8311 64.5383 63.406 71.6587 54.3868C77.8976 46.3847 86.5778 51.8776 86.5778 51.8776Z" fill="white"/>
<path d="M172.634 64.3554L203.421 54.8615L198.132 86.1236L172.634 64.3554Z" fill="#6045AF"/>
<path d="M198.471 87.1409L171.616 64.1519L204.031 54.1155L198.471 87.1409ZM173.719 64.5588L197.793 85.1742L202.743 55.6074L173.719 64.5588Z" fill="#6045AF"/>
<path d="M142.992 19.7442L130.922 25.9302L137.108 37.9997L149.178 31.8137L142.992 19.7442Z" fill="white"/>
<path d="M135.811 46.8594L144.423 42.8584V52.8948L135.811 46.8594Z" fill="white"/>
<path d="M214 56.3533C216.547 56.3533 218.611 54.2888 218.611 51.742C218.611 49.1952 216.547 47.1306 214 47.1306C211.453 47.1306 209.389 49.1952 209.389 51.742C209.389 54.2888 211.453 56.3533 214 56.3533Z" fill="white"/>
<path d="M214 56.828C211.22 56.828 208.914 54.5224 208.914 51.742C208.914 48.9616 211.22 46.6559 214 46.6559C216.78 46.6559 219.086 48.9616 219.086 51.742C219.086 54.5224 216.848 56.828 214 56.828ZM214 47.6732C211.762 47.6732 209.931 49.5041 209.931 51.742C209.931 53.9798 211.762 55.8108 214 55.8108C216.238 55.8108 218.069 53.9798 218.069 51.742C218.069 49.5041 216.238 47.6732 214 47.6732Z" fill="#1B1C29"/>
<path d="M168.523 141.969L163.471 150.719L172.222 155.771L177.274 147.021L168.523 141.969Z" fill="white"/>
<path d="M137.167 168.382C137.031 168.382 136.896 168.314 136.76 168.178C136.557 167.975 136.624 167.636 136.828 167.433C145.915 160.109 153.035 163.16 157.579 166.076C162.461 169.196 166.395 164.584 166.598 164.381C166.802 164.177 167.073 164.11 167.344 164.313C167.548 164.517 167.615 164.788 167.412 165.059C167.344 165.127 162.801 170.552 157.104 166.958C152.764 164.245 146.051 161.397 137.506 168.314C137.37 168.382 137.303 168.382 137.167 168.382Z" fill="white"/>
<path d="M137.167 174.553C137.031 174.553 136.896 174.485 136.76 174.35C136.557 174.146 136.624 173.807 136.828 173.604C145.915 166.28 153.035 169.331 157.579 172.247C162.461 175.367 166.395 170.755 166.598 170.552C166.802 170.349 167.073 170.281 167.344 170.484C167.548 170.688 167.615 170.959 167.412 171.23C167.344 171.298 162.801 176.723 157.104 173.129C152.764 170.416 146.051 167.568 137.506 174.485C137.37 174.485 137.303 174.553 137.167 174.553Z" fill="white"/>
<path d="M145.847 117.182C145.644 117.182 145.508 117.047 145.372 116.911L140.965 107.96C140.829 107.688 140.965 107.417 141.168 107.282C141.439 107.146 141.71 107.282 141.846 107.485L146.254 116.436C146.39 116.708 146.254 116.979 146.051 117.115C145.983 117.182 145.915 117.182 145.847 117.182Z" fill="white"/>
<path d="M139.201 114.945C138.998 114.945 138.862 114.809 138.727 114.673C138.591 114.402 138.727 114.131 138.93 113.995L147.814 109.519C148.085 109.384 148.356 109.519 148.492 109.723C148.627 109.926 148.492 110.265 148.288 110.401L139.405 114.877C139.337 114.945 139.269 114.945 139.201 114.945Z" fill="white"/>
<path d="M249.534 17.7672C249.467 17.7672 249.399 17.7672 249.399 17.7672L237.26 13.9018C236.989 13.834 236.853 13.5627 236.921 13.2915C236.989 13.0202 237.26 12.8846 237.531 12.9524L249.67 16.8178C249.941 16.8856 250.077 17.1569 250.009 17.4281C249.941 17.6316 249.738 17.7672 249.534 17.7672Z" fill="#1B1C29"/>
<path d="M241.6 21.9039C241.532 21.9039 241.532 21.9039 241.465 21.9039C241.193 21.8361 241.058 21.5648 241.126 21.2936L244.855 9.15487C244.923 8.88362 245.194 8.74799 245.466 8.8158C245.737 8.88362 245.873 9.15489 245.805 9.42615L242.075 21.5648C242.007 21.7683 241.804 21.9039 241.6 21.9039Z" fill="#1B1C29"/>
<path d="M219.832 130.745C219.832 134.272 216.984 137.12 213.458 137.12C209.931 137.12 207.083 134.272 207.083 130.745C207.083 127.219 209.931 124.371 213.458 124.371C216.984 124.371 219.832 126.405 219.832 130.745Z" fill="#1B1C29"/>
<path d="M113.703 186.42L104.82 191.574H76.27L65.8945 173.604L96.2073 156.04L113.703 186.42Z" fill="#1B1C29"/>
<path d="M92.0029 173.943L112.008 147.699L125.91 176.587L92.0029 173.943Z" fill="white"/>
<path d="M137.031 186.217C136.963 186.217 136.963 186.217 136.896 186.217L129.775 183.979C129.504 183.911 129.368 183.64 129.436 183.369C129.504 183.098 129.775 182.962 130.046 183.03L137.167 185.268C137.438 185.335 137.574 185.607 137.506 185.878C137.438 186.081 137.235 186.217 137.031 186.217Z" fill="#1B1C29"/>
<path d="M124.825 151.564C124.757 151.564 124.689 151.564 124.689 151.564C124.418 151.496 124.282 151.157 124.35 150.954L125.503 147.563C125.571 147.292 125.91 147.156 126.113 147.224C126.384 147.292 126.52 147.631 126.452 147.834L125.299 151.225C125.232 151.428 125.028 151.564 124.825 151.564Z" fill="#1B1C29"/>
<path d="M77.6941 159.363C77.4906 159.363 77.355 159.295 77.2194 159.091L73.4896 152.31C73.354 152.039 73.4219 151.767 73.6931 151.632C73.9644 151.496 74.2356 151.564 74.3713 151.835L78.101 158.617C78.2367 158.888 78.1688 159.159 77.8976 159.295C77.8297 159.363 77.7619 159.363 77.6941 159.363Z" fill="#1B1C29"/>
<path d="M194.809 143.765C194.741 143.765 194.605 143.765 194.537 143.698C194.334 143.562 194.266 143.223 194.402 143.02L200.302 134.543C200.437 134.339 200.776 134.272 200.98 134.407C201.183 134.543 201.251 134.882 201.115 135.085L195.216 143.562C195.148 143.698 195.012 143.765 194.809 143.765Z" fill="#1B1C29"/>
<path d="M220.239 144.105C220.239 144.105 220.171 144.105 220.239 144.105L215.153 143.494C214.882 143.494 214.678 143.223 214.678 142.952C214.678 142.68 214.949 142.477 215.221 142.477L220.239 143.087C220.51 143.087 220.714 143.359 220.714 143.63C220.714 143.901 220.51 144.105 220.239 144.105Z" fill="#1B1C29"/>
<path d="M170.396 59.3372C170.124 59.3372 169.853 59.1337 169.853 58.7947V54.7936C169.853 54.5224 170.057 54.2511 170.396 54.2511C170.735 54.2511 170.938 54.4546 170.938 54.7936V58.7947C170.938 59.1337 170.667 59.3372 170.396 59.3372Z" fill="white"/>
<path d="M115.127 31.6013C114.992 31.6013 114.924 31.5335 114.788 31.4657L109.702 27.1256C109.499 26.9221 109.499 26.6509 109.634 26.3796C109.838 26.1762 110.109 26.1084 110.38 26.3118L115.466 30.6519C115.67 30.8553 115.67 31.1266 115.534 31.3978C115.399 31.5335 115.263 31.6013 115.127 31.6013Z" fill="white"/>
<path d="M105.195 90.7148L96.6234 84.9898L90.8985 93.5617L99.4704 99.2867L105.195 90.7148Z" fill="#1B1C29"/>
<path d="M82.0342 131.762L92.0029 110.537L105.905 126.473L82.0342 131.762Z" fill="white"/>
<path d="M117.976 99.5508C117.704 99.5508 117.501 99.3474 117.501 99.1439C114.924 83.4789 123.672 81.3089 132.081 79.2066C135.743 78.325 139.54 77.3757 142.253 75.2734C148.899 70.1874 152.086 62.7278 151.611 52.9626C151.611 52.6914 151.815 52.4201 152.086 52.4201C152.357 52.4201 152.628 52.6236 152.628 52.8948C153.103 62.9991 149.848 70.7977 142.863 76.0872C139.947 78.2572 136.082 79.2744 132.352 80.2238C124.011 82.3261 116.145 84.2927 118.518 99.0083C118.586 99.2795 118.382 99.5508 118.111 99.6186C118.043 99.5508 117.976 99.5508 117.976 99.5508Z" fill="white"/>
<path d="M124.554 106.129C124.282 106.129 124.079 105.925 124.079 105.722C121.502 90.0569 130.25 87.8868 138.659 85.7846C142.321 84.903 146.118 83.9536 148.831 81.8514C155.477 76.7653 158.664 69.3058 158.189 59.5406C158.189 59.2693 158.393 58.9981 158.664 58.9981C158.935 58.9981 159.206 59.2015 159.206 59.4728C159.681 69.5771 156.426 77.3757 149.441 82.6651C146.525 84.8352 142.66 85.8524 138.93 86.8018C130.589 88.904 122.723 90.8706 125.096 105.586C125.164 105.857 124.96 106.129 124.689 106.197C124.621 106.061 124.621 106.129 124.554 106.129Z" fill="white"/>
<path d="M70.0311 76.2228C69.9633 76.2228 69.8955 76.2228 69.8955 76.2228L57.7568 72.3574C57.4856 72.2896 57.3499 72.0183 57.4178 71.7471C57.4856 71.4758 57.7568 71.3402 58.028 71.408L70.1667 75.2734C70.438 75.3412 70.5736 75.6125 70.5058 75.8837C70.438 76.0872 70.2346 76.2228 70.0311 76.2228Z" fill="white"/>
<path d="M62.0969 80.3594C62.0291 80.3594 62.0291 80.3594 61.9613 80.3594C61.69 80.2916 61.5544 80.0204 61.6222 79.7491L65.352 67.6104C65.4198 67.3392 65.6911 67.2036 65.9623 67.2714C66.2336 67.3392 66.3692 67.6104 66.3014 67.8817L62.5716 80.0204C62.5038 80.2238 62.3003 80.3594 62.0969 80.3594Z" fill="white"/>
<path d="M79.9997 112.707C79.8641 112.707 79.7963 112.707 79.7285 112.639L73.6252 108.163C73.4218 108.028 73.354 107.688 73.4896 107.485C73.6252 107.282 73.9643 107.214 74.1677 107.349L80.271 111.825C80.4744 111.961 80.5422 112.3 80.4066 112.503C80.3388 112.639 80.1354 112.707 79.9997 112.707Z" fill="#1B1C29"/>
<path d="M107.397 105.925C107.261 105.925 107.125 105.857 107.058 105.79C106.854 105.586 106.854 105.247 107.058 105.044L110.245 101.992C110.448 101.789 110.787 101.789 110.991 101.992C111.194 102.196 111.194 102.535 110.991 102.738L107.803 105.79C107.6 105.857 107.532 105.925 107.397 105.925Z" fill="#1B1C29"/>
<path d="M53.3489 149.326C53.2811 149.326 53.2133 149.326 53.1455 149.258C52.8742 149.191 52.7386 148.852 52.8742 148.58L57.4178 136.781C57.5534 136.509 57.8247 136.374 58.0959 136.509C58.3672 136.577 58.5027 136.916 58.3671 137.188L53.8236 148.987C53.7558 149.191 53.5524 149.326 53.3489 149.326Z" fill="#1B1C29"/>
<path d="M138.116 69.577C137.913 69.577 137.777 69.5093 137.709 69.3058L133.098 61.7784C132.962 61.5072 133.03 61.2359 133.301 61.1003C133.573 60.9647 133.844 61.0325 133.98 61.3038L138.591 68.8311C138.727 69.1024 138.659 69.3736 138.388 69.5092C138.32 69.5092 138.184 69.577 138.116 69.577Z" fill="#1B1C29"/>
<path d="M105.498 67.4748C105.43 67.4748 105.362 67.4748 105.294 67.4748L100.005 65.5082C99.7336 65.4404 99.5979 65.1013 99.7336 64.8301C99.8014 64.5588 100.14 64.4232 100.412 64.5588L105.701 66.5254C105.972 66.5932 106.108 66.9323 105.972 67.2035C105.905 67.3392 105.701 67.4748 105.498 67.4748Z" fill="#1B1C29"/>
<path d="M170.396 130.338C170.192 130.338 169.989 130.203 169.921 129.999L166.53 122.201C166.395 121.929 166.53 121.658 166.802 121.523C167.073 121.387 167.344 121.522 167.48 121.794L170.87 129.592C171.006 129.864 170.87 130.135 170.599 130.27C170.531 130.338 170.464 130.338 170.396 130.338Z" fill="#1B1C29"/>
<path d="M160.495 97.7198C160.359 97.7198 160.224 97.652 160.156 97.5842C159.952 97.3808 159.952 97.1095 160.088 96.8383L164.632 91.6844C164.835 91.481 165.106 91.481 165.377 91.6166C165.581 91.82 165.581 92.0913 165.445 92.3626L160.902 97.5164C160.766 97.652 160.631 97.7198 160.495 97.7198Z" fill="#1B1C29"/>
<path d="M188.027 105.518C187.824 105.518 187.62 105.383 187.553 105.179C187.485 104.908 187.62 104.637 187.892 104.501L197.657 101.178C197.928 101.111 198.199 101.246 198.335 101.517C198.403 101.789 198.267 102.06 197.996 102.196L188.231 105.518C188.163 105.518 188.095 105.518 188.027 105.518Z" fill="#1B1C29"/>
<path d="M228.716 74.8666C228.648 74.8666 228.58 74.8666 228.512 74.7987C228.241 74.6631 228.105 74.3919 228.241 74.1206L230.953 67.8139C231.089 67.5427 231.36 67.407 231.632 67.5426C231.903 67.6783 232.038 67.9495 231.903 68.2208L229.19 74.5275C229.123 74.7988 228.919 74.8666 228.716 74.8666Z" fill="#1B1C29"/>
<path d="M4.72633 212.325H64.8094C64.8094 212.325 60.4016 152.446 34.4288 159.837C15.1019 165.33 27.3084 195.101 27.3084 195.101C27.3084 195.101 13.4065 185.607 3.37005 193.134C-3.88604 198.491 4.72633 212.325 4.72633 212.325Z" fill="white"/>
<path d="M65.4198 212.8H4.45513L4.31953 212.529C3.98046 211.918 -4.42843 198.288 3.16673 192.592C11.5757 186.353 22.6293 191.642 26.359 193.812C24.7993 189.472 20.5949 175.909 25.0028 166.822C26.8337 163.025 30.021 160.448 34.3611 159.227C38.9725 157.939 43.2447 158.617 47.0423 161.261C62.3004 171.908 65.2842 210.562 65.4198 212.19V212.8ZM4.99767 211.783H64.267C63.8602 206.968 60.266 171.84 46.3642 162.143C42.8378 159.702 38.8368 159.024 34.5645 160.244C30.4957 161.397 27.5797 163.771 25.8844 167.297C20.8662 177.605 27.7153 194.626 27.7831 194.829L28.3935 196.389L26.9694 195.44C26.8338 195.372 13.271 186.285 3.64139 193.405C-2.59748 198.22 3.98046 209.952 4.99767 211.783Z" fill="#1B1C29"/>
<path d="M180.703 212.325H207.693C207.693 212.325 223.087 182.487 206.608 179.436C184.84 175.435 180.703 212.325 180.703 212.325Z" fill="white"/>
<path d="M208.032 212.8H180.161L180.229 212.258C180.297 211.376 182.806 190.082 193.995 181.809C197.725 179.029 202.065 178.079 206.812 178.961C209.999 179.571 212.305 181.199 213.593 183.776C218.137 193.066 208.643 211.783 208.236 212.529L208.032 212.8ZM181.314 211.783H207.422C208.575 209.409 216.713 192.456 212.644 184.183C211.491 181.877 209.457 180.453 206.608 179.91C202.133 179.097 198.132 179.978 194.605 182.555C184.772 189.879 181.788 208.324 181.314 211.783Z" fill="#1B1C29"/>
<path d="M48.6698 212.8C48.4664 212.8 48.2629 212.664 48.1951 212.393C46.025 203.238 41.346 186.488 34.0221 176.723C33.8864 176.52 33.8864 176.18 34.1576 176.045C34.3611 175.909 34.7002 175.909 34.8358 176.181C42.2275 186.081 46.9745 203.035 49.1445 212.19C49.2123 212.461 49.0089 212.732 48.7376 212.8C48.7376 212.8 48.7377 212.8 48.6698 212.8Z" fill="#1B1C29"/>
<path d="M50.3651 193.609C50.0939 193.609 49.8226 193.405 49.8226 193.066V184.522C49.8226 184.25 50.0261 183.979 50.3651 183.979C50.7042 183.979 50.9076 184.183 50.9076 184.522V193.066C50.9076 193.337 50.7042 193.609 50.3651 193.609Z" fill="#1B1C29"/>
<path d="M19.9845 212.8C19.8489 212.8 19.6455 212.732 19.5777 212.597C16.4582 207.917 14.0848 203.984 14.017 203.916C13.8813 203.645 13.9491 203.374 14.2203 203.238C14.4916 203.103 14.7629 203.17 14.8985 203.442C14.8985 203.51 17.272 207.443 20.3914 212.054C20.527 212.258 20.4592 212.597 20.2558 212.732C20.188 212.8 20.0523 212.8 19.9845 212.8Z" fill="#1B1C29"/>
<path d="M193.317 212.8C193.249 212.8 193.249 212.8 193.181 212.8C192.91 212.732 192.774 212.461 192.842 212.19C194.605 205.34 197.725 195.779 202.404 188.997C202.539 188.794 202.879 188.726 203.082 188.862C203.285 188.997 203.353 189.336 203.218 189.54C198.606 196.186 195.555 205.68 193.859 212.461C193.724 212.664 193.52 212.8 193.317 212.8Z" fill="#1B1C29"/>
<path d="M199.963 205.544C199.827 205.544 199.691 205.476 199.556 205.34C199.352 205.137 199.42 204.798 199.624 204.595L207.422 198.017C207.626 197.813 207.965 197.881 208.168 198.084C208.371 198.288 208.304 198.627 208.1 198.83L200.302 205.408C200.234 205.476 200.098 205.544 199.963 205.544Z" fill="#1B1C29"/>
</svg>
