<?xml version="1.0" encoding="UTF-8"?>
<svg width="165px" height="45px" viewBox="0 0 165 45" version="1.1" xmlns="http://www.w3.org/2000/svg" xmlns:xlink="http://www.w3.org/1999/xlink">
  <defs>
    <polygon id="path-1" points="0.64004275 0.393800274 28.9671683 0.393800274 28.9671683 30.0128668 0.64004275 30.0128668"></polygon>
    <polygon id="path-3" points="0 0.562090424 17.9944708 0.562090424 17.9944708 24.7325733 0 24.7325733"></polygon>
  </defs>
  <g id="Login" stroke="none" stroke-width="1" fill="none" fill-rule="evenodd">
    <g id="Login-dash-live" transform="translate(-747.000000, -162.000000)">
      <g id="logo-copy-2" transform="translate(747.000000, 162.000000)">
        <g id="Group-3" transform="translate(135.619015, 0.267137)">
          <mask id="mask-2" fill="white">
            <use xlink:href="#path-1"></use>
          </mask>
          <g id="Clip-2"></g>
          <path d="M19.5806207,30.0128668 L28.9383328,30.0128668 C28.9534747,29.6283168 28.9672999,29.2437669 28.9672999,28.8552525 C28.9672999,13.1719584 16.2625633,0.411772367 0.64004275,0.393271683 L0.64004275,9.77510068 C11.1228659,9.78170807 19.6194631,18.3323278 19.6194631,28.8559133 C19.6194631,29.2444276 19.6036628,29.6296383 19.5806207,30.0128668" id="Fill-1" fill="#3DC7A4" mask="url(#mask-2)"></path>
        </g>
        <g id="Group-6" transform="translate(0.000000, 19.428559)">
          <mask id="mask-4" fill="white">
            <use xlink:href="#path-3"></use>
          </mask>
          <g id="Clip-5"></g>
          <path d="M12.8409482,5.35839275 C11.8771315,4.27742421 10.6019177,3.73693995 9.01399025,3.73693995 C7.38129531,3.73693995 6.06592254,4.27147756 5.06853027,5.34121354 C4.07047965,6.41094952 3.57145434,7.79916156 3.57145434,9.5065104 C3.57145434,11.2819153 4.07047965,12.6813599 5.06853027,13.7055049 C6.06592254,14.7296499 7.41552924,15.2417224 9.11603369,15.2417224 C10.7033028,15.2417224 11.962058,14.7124707 12.8916407,13.654628 C13.8218818,12.5961246 14.2866732,11.2244311 14.2866732,9.54086881 C14.2866732,7.83351997 13.8047649,6.43936129 12.8409482,5.35839275 Z M-6.58344733e-05,0.903031601 L3.67349778,0.903031601 L3.67349778,3.19050903 C3.71892356,3.12245294 3.79265817,3.02598509 3.89470161,2.90044473 C3.99674504,2.77556512 4.22387397,2.56478947 4.57477172,2.26877852 C4.92698615,1.97276758 5.31211782,1.71111505 5.73148341,1.48382093 C6.15084901,1.25652681 6.71834217,1.04575116 7.4326462,0.85215472 C8.14695024,0.658558276 8.8895631,0.562090424 9.66048478,0.562090424 C12.1095272,0.562090424 14.1108952,1.37545978 15.6645887,3.00285923 C17.217624,4.63025869 17.9944708,6.77567729 17.9944708,9.43779357 C17.9944708,12.2373435 17.217624,14.433639 15.6645887,16.02668 C14.1108952,17.6203818 12.0641014,18.416572 9.52420742,18.416572 C8.75328574,18.416572 8.02778984,18.32539 7.34706139,18.1436869 C6.66699128,17.961323 6.11134832,17.7399755 5.68079087,17.4776622 C5.24957507,17.2160097 4.87563526,16.9603038 4.55765475,16.7098839 C4.24099094,16.4594639 4.013862,16.2434023 3.87758464,16.0610384 L3.67349778,15.7881534 L3.67349778,24.7325733 L-6.58344733e-05,24.7325733 L-6.58344733e-05,0.903031601 Z" id="Fill-4" fill="#2D2D2D" mask="url(#mask-4)"></path>
        </g>
        <path d="M25.5246837,33.0658761 C26.4885003,34.135612 27.7637141,34.6701497 29.3509832,34.6701497 C31.029104,34.6701497 32.3615937,34.1580772 33.3484525,33.1345929 C34.3346529,32.1097871 34.8277531,30.7103425 34.8277531,28.9349376 C34.8277531,27.2282495 34.3175359,25.85127 33.2971016,24.8039992 C32.2766672,23.7573891 30.9501026,23.234084 29.3174077,23.234084 C27.7070964,23.234084 26.4312244,23.7573891 25.4904497,24.8039992 C24.5496751,25.85127 24.0789586,27.2282495 24.0789586,28.9349376 C24.0789586,30.6191606 24.560867,31.9961401 25.5246837,33.0658761 Z M38.3992733,37.5721141 L34.7257096,37.5721141 L34.7257096,35.2165806 C34.6802839,35.2846367 34.6124744,35.3817653 34.5216228,35.5066449 C34.4307712,35.6321852 34.2154925,35.8423001 33.8757866,36.1383111 C33.5354224,36.434322 33.1667493,36.6959746 32.7697674,36.9232687 C32.3727856,37.1512235 31.8289928,37.3613384 31.1370725,37.5549349 C30.4458105,37.7485313 29.7143895,37.8449992 28.9428095,37.8449992 C26.4483413,37.8449992 24.4022059,37.0831674 22.8030865,35.5575218 C21.2046255,34.0331975 20.405395,31.8481346 20.405395,29.0036544 C20.405395,26.3177516 21.2217425,24.1558145 22.8544374,22.5171825 C24.4871324,20.8778897 26.4937671,20.0585737 28.875,20.0585737 C30.0995212,20.0585737 31.1996153,20.2693494 32.1746238,20.6902399 C33.1496324,21.1111305 33.8185106,21.5267352 34.1812585,21.9363932 L34.7257096,22.5508802 L34.7257096,20.3658172 L38.3992733,20.3658172 L38.3992733,37.5721141 Z" id="Fill-7" fill="#2D2D2D"></path>
        <path d="M45.9298153,32.8439339 C46.893632,33.8793115 48.1688458,34.3973306 49.7561149,34.3973306 C51.4118519,34.3973306 52.7384166,33.890544 53.7364672,32.8782923 C54.7345178,31.8653799 55.2328847,30.5168122 55.2328847,28.8325892 C55.2328847,27.1714921 54.7226676,25.8229244 53.7022332,24.786886 C52.6817989,23.7515085 51.3552343,23.2341501 49.7225393,23.2341501 C48.1122281,23.2341501 46.8370144,23.7515085 45.8955814,24.786886 C44.9548068,25.8229244 44.4840903,27.1714921 44.4840903,28.8325892 C44.4840903,30.4712212 44.9659986,31.8085564 45.9298153,32.8439339 Z M58.8050633,35.8311337 C58.8050633,41.6350625 55.8793793,44.5363662 50.0286696,44.5363662 C49.0984285,44.5363662 48.1971546,44.4346124 47.3241895,44.2291227 C46.4512244,44.0242937 45.7198034,43.785767 45.1305848,43.5122212 C44.5407079,43.2393361 44.0192989,42.9605044 43.5656994,42.675726 C43.1120999,42.3916083 42.772394,42.147135 42.545265,41.942306 L42.2391347,41.6350625 L44.0759166,38.9035687 L44.3313543,39.1599353 C44.4333977,39.2623498 44.6710602,39.4499996 45.0456583,39.7228847 C45.4195982,39.9964305 45.81658,40.2409038 46.2359456,40.4569654 C46.6553112,40.6730269 47.1938372,40.8666234 47.8515236,41.037094 C48.50921,41.2082253 49.1780882,41.2934606 49.8588167,41.2934606 C51.7179822,41.2934606 53.0616638,40.877856 53.8892031,40.0473074 C54.7174008,39.2167588 55.1308413,38.0161966 55.1308413,36.4456207 L55.1308413,34.9774592 C55.0854155,35.0461761 55.017606,35.1366973 54.9267544,35.2510051 C54.8359029,35.3646521 54.6206241,35.574767 54.2809183,35.8826713 C53.940554,36.189254 53.571881,36.4568532 53.1748991,36.6841473 C52.7779172,36.9121022 52.2341245,37.1169312 51.5422042,37.2992951 C50.8509422,37.4809982 50.1195212,37.5721802 49.3485995,37.5721802 C46.8541313,37.5721802 44.8073376,36.821581 43.2088765,35.3190611 C41.6097572,33.8172021 40.8105267,31.6658368 40.8105267,28.8662869 C40.8105267,26.2497616 41.6268741,24.1274688 43.2595691,22.5000694 C44.892264,20.8726699 46.8995571,20.0586398 49.2801317,20.0586398 C50.5046529,20.0586398 51.6047469,20.2694155 52.5797555,20.690306 C53.5554224,21.1111966 54.2243006,21.5268012 54.5863902,21.9364592 L55.1308413,22.5509462 L55.1308413,20.3315249 L58.8050633,20.3315249 L58.8050633,35.8311337 Z" id="Fill-9" fill="#2D2D2D"></path>
        <path d="M66.3632558,33.0317159 C67.3270725,34.1014518 68.6029446,34.6359895 70.1902137,34.6359895 C71.8683345,34.6359895 73.2001659,34.123917 74.1870246,33.1004327 C75.173225,32.0756269 75.6663252,30.6761824 75.6663252,28.9007774 C75.6663252,27.1940893 75.1561081,25.8171098 74.1363321,24.769839 C73.1152394,23.7232289 71.7886748,23.1999238 70.1559798,23.1999238 C68.5456686,23.1999238 67.2704549,23.7232289 66.3296802,24.769839 C65.3882473,25.8171098 64.9175308,27.1940893 64.9175308,28.9007774 C64.9175308,30.5850004 65.3994391,31.9619799 66.3632558,33.0317159 Z M79.2385038,37.5379539 L75.5649402,37.5379539 L75.5649402,35.1824204 C75.5195144,35.2504765 75.4510465,35.3476051 75.3608533,35.4724847 C75.2700017,35.598025 75.054723,35.8081399 74.7143588,36.1041509 C74.3739945,36.4001618 74.0053215,36.6618144 73.6083396,36.8891085 C73.2120161,37.1170633 72.667565,37.3271782 71.9756447,37.5207747 C71.2843827,37.7143711 70.5529617,37.810839 69.78204,37.810839 C67.2875718,37.810839 65.240778,37.0490073 63.642317,35.5240223 C62.0431977,33.9990373 61.2439672,31.8139744 61.2439672,28.9694943 C61.2439672,26.2835914 62.0603146,24.1216543 63.6930096,22.4830223 C65.3257045,20.8443903 67.3329976,20.0244135 69.7135722,20.0244135 C70.9387517,20.0244135 72.0381874,20.2351892 73.0138543,20.6560798 C73.9888629,21.0776311 74.6577411,21.492575 75.0204891,21.902233 L75.5649402,22.51672 L75.5649402,20.331657 L79.2385038,20.331657 L79.2385038,37.5379539 Z" id="Fill-11" fill="#2D2D2D"></path>
        <path d="M90.6670392,24.0187773 C89.1475795,23.8820044 87.9572922,24.2526788 87.095519,25.1281576 C86.2337457,26.0042971 85.8025299,27.2055201 85.8025299,28.7298443 L85.8025299,37.5381521 L82.1289663,37.5381521 L82.1289663,20.2974969 L85.8025299,20.2974969 L85.8025299,23.4042903 C85.825572,23.3137691 85.8762645,23.1882287 85.9559242,23.0289907 C86.0349256,22.8697527 86.2166288,22.5849743 86.499717,22.1753163 C86.7834636,21.7656583 87.1007857,21.4128238 87.4523418,21.1168129 C87.8038979,20.8214627 88.2969981,20.5538635 88.9323008,20.3146761 C89.5669451,20.0761494 90.2470152,19.9790208 90.9731695,20.0246118 L90.6670392,24.0187773 Z" id="Fill-13" fill="#2D2D2D"></path>
        <path d="M92.2351505,32.6219257 C92.8474111,32.0299038 93.5952907,31.7345536 94.480106,31.7345536 C95.364263,31.7345536 96.112801,32.0299038 96.7250616,32.6219257 C97.3373222,33.2139476 97.6434525,33.9420817 97.6434525,34.8069886 C97.6434525,35.6718956 97.3373222,36.4000297 96.7250616,36.9920516 C96.112801,37.5834127 95.364263,37.8794237 94.480106,37.8794237 C93.5952907,37.8794237 92.8474111,37.5834127 92.2351505,36.9920516 C91.6228899,36.4000297 91.3167596,35.6718956 91.3167596,34.8069886 C91.3167596,33.9420817 91.6228899,33.2139476 92.2351505,32.6219257" id="Fill-15" fill="#2D2D2D"></path>
        <path d="M100.925433,19.9904516 L106.096072,19.9904516 L106.096072,22.277929 C106.14084,22.2092122 106.198116,22.118691 106.265925,22.0043832 C106.333735,21.8907361 106.498321,21.6859071 106.759025,21.3905569 C107.01973,21.094546 107.308743,20.8322327 107.626724,20.6049386 C107.944046,20.3769837 108.374603,20.1721547 108.919054,19.9904516 C109.463505,19.8087484 110.041532,19.7175665 110.653793,19.7175665 C111.289095,19.7175665 111.867122,19.8028018 112.388531,19.9732724 C112.910598,20.143743 113.324039,20.348572 113.630169,20.5877594 C113.9363,20.8269468 114.191079,21.0601876 114.395166,21.2874817 C114.599911,21.5154365 114.74738,21.7202655 114.837574,21.9026294 L114.939617,22.1411561 C114.985043,22.0731 115.047585,21.987204 115.126587,21.8854502 C115.206247,21.782375 115.393216,21.5894393 115.688155,21.3046609 C115.983093,21.0205432 116.300416,20.7701233 116.64078,20.5540617 C116.980486,20.3373394 117.434085,20.143743 118.00092,19.9732724 C118.567755,19.8028018 119.157632,19.7175665 119.769892,19.7175665 C123.444114,19.7175665 125.280896,21.8451451 125.280896,26.1016239 L125.280896,37.5383503 L120.110256,37.5383503 L120.110256,26.784167 C120.110256,24.986297 119.45257,24.0870316 118.137197,24.0870316 C116.504502,24.0870316 115.688155,25.2823079 115.688155,27.6715391 L115.688155,37.5383503 L110.517515,37.5383503 L110.517515,26.784167 C110.517515,24.986297 109.859829,24.0870316 108.545115,24.0870316 C106.91242,24.0870316 106.096072,25.2823079 106.096072,27.6715391 L106.096072,37.5383503 L100.925433,37.5383503 L100.925433,19.9904516 Z" id="Fill-17" fill="#2D2D2D"></path>
        <path d="M140.515454,26.9208078 C140.492412,26.8296259 140.470028,26.7219254 140.446986,26.5963851 C140.424602,26.4715055 140.328484,26.2323181 140.158631,25.8794836 C139.98812,25.5266491 139.778108,25.2194056 139.528595,24.9577531 C139.279741,24.6961005 138.916335,24.4569131 138.440351,24.2408516 C137.964368,24.02479 137.419917,23.9164289 136.807656,23.9164289 C136.195396,23.9164289 135.650945,24.0188434 135.174962,24.2236724 C134.698978,24.4285014 134.335572,24.6789213 134.086059,24.9749323 C133.836547,25.2709432 133.633118,25.5669542 133.474457,25.8623044 C133.315138,26.1583153 133.224944,26.4087353 133.201902,26.6135643 L133.134093,26.9208078 L140.515454,26.9208078 Z M145.005365,34.8073851 C144.937556,34.8979063 144.840779,35.0115534 144.716352,35.1483263 C144.591266,35.2850992 144.296986,35.5295725 143.832195,35.882407 C143.367403,36.2352415 142.868378,36.5477709 142.335119,36.8213167 C141.802518,37.0942018 141.093481,37.3393358 140.209324,37.5553974 C139.324508,37.771459 138.394926,37.8791594 137.419917,37.8791594 C134.313188,37.8791594 131.915497,37.06579 130.225526,35.4383906 C128.536213,33.8109911 127.691557,31.5750513 127.691557,28.7299104 C127.691557,26.0446683 128.55333,23.8536587 130.276877,22.1582031 C131.999765,20.4627476 134.177569,19.6150198 136.807656,19.6150198 C139.664873,19.6150198 141.904561,20.5023919 143.526064,22.2777969 C145.147568,24.0532018 145.95799,26.4999172 145.95799,29.6179432 L145.95799,30.5053153 L133.099859,30.5053153 C133.099859,30.5964973 133.116976,30.7101443 133.15121,30.8469172 C133.184785,30.9830294 133.292754,31.2222168 133.474457,31.5638187 C133.655502,31.9047599 133.887898,32.2120034 134.171644,32.4855492 C134.454732,32.7584343 134.885948,33.0035684 135.463975,33.21963 C136.04266,33.4356915 136.716805,33.5433919 137.487727,33.5433919 C138.3495,33.5433919 139.177698,33.378868 139.971003,33.0484986 C140.764967,32.71879 141.342993,32.3831347 141.705741,32.0415328 L142.215958,31.5294603 L145.005365,34.8073851 Z" id="Fill-19" fill="#2D2D2D"></path>
      </g>
    </g>
  </g>
</svg>
