<svg width="165" height="45" viewBox="0 0 165 45" fill="none" xmlns="http://www.w3.org/2000/svg">
<mask id="mask0" mask-type="alpha" maskUnits="userSpaceOnUse" x="136" y="0" width="29" height="31">
<path d="M136.259 0.660889H164.586V30.28H136.259V0.660889Z" fill="white"/>
</mask>
<g mask="url(#mask0)">
<path fill-rule="evenodd" clip-rule="evenodd" d="M155.2 30.28H164.557C164.572 29.8954 164.586 29.5109 164.586 29.1224C164.586 13.4391 151.882 0.678901 136.259 0.6604V10.0422C146.742 10.0488 155.238 18.5995 155.238 29.123C155.238 29.5116 155.223 29.8968 155.2 30.28Z" fill="#65A300"/>
</g>
<mask id="mask1" mask-type="alpha" maskUnits="userSpaceOnUse" x="0" y="19" width="18" height="26">
<path d="M0 19.9906H17.9945V44.1611H0V19.9906Z" fill="white"/>
</mask>
<g mask="url(#mask1)">
<path fill-rule="evenodd" clip-rule="evenodd" d="M12.841 24.7869C11.8772 23.7059 10.602 23.1655 9.01406 23.1655C7.38136 23.1655 6.06599 23.7 5.0686 24.7697C4.07055 25.8395 3.57152 27.2277 3.57152 28.935C3.57152 30.7104 4.07055 32.1099 5.0686 33.134C6.06599 34.1582 7.41559 34.6702 9.1161 34.6702C10.7034 34.6702 11.9621 34.141 12.8917 33.0831C13.8219 32.0246 14.2867 30.6529 14.2867 28.9694C14.2867 27.262 13.8048 25.8679 12.841 24.7869ZM0 20.3315H3.67356V22.619C3.71899 22.551 3.79272 22.4545 3.89477 22.329C3.99681 22.2041 4.22394 21.9933 4.57484 21.6973C4.92705 21.4013 5.31218 21.1396 5.73155 20.9123C6.15091 20.685 6.71841 20.4743 7.43271 20.2807C8.14702 20.0871 8.88963 19.9906 9.66055 19.9906C12.1096 19.9906 14.111 20.804 15.6647 22.4314C17.2177 24.0588 17.9945 26.2042 17.9945 28.8663C17.9945 31.6659 17.2177 33.8621 15.6647 35.4552C14.111 37.0489 12.0642 37.8451 9.52427 37.8451C8.75335 37.8451 8.02786 37.7539 7.34713 37.5722C6.66706 37.3898 6.11141 37.1685 5.68086 36.9062C5.24964 36.6445 4.8757 36.3888 4.55772 36.1384C4.24106 35.888 4.01393 35.6719 3.87765 35.4895L3.67356 35.2167V44.1611H0V20.3315Z" fill="#070817"/>
</g>
<path fill-rule="evenodd" clip-rule="evenodd" d="M25.5246 33.0658C26.4884 34.1355 27.7636 34.67 29.3509 34.67C31.029 34.67 32.3615 34.158 33.3483 33.1345C34.3345 32.1097 34.8276 30.7102 34.8276 28.9348C34.8276 27.2281 34.3174 25.8512 33.297 24.8039C32.2765 23.7573 30.95 23.234 29.3173 23.234C27.707 23.234 26.4311 23.7573 25.4903 24.8039C24.5496 25.8512 24.0788 27.2281 24.0788 28.9348C24.0788 30.6191 24.5607 31.996 25.5246 33.0658ZM38.3992 37.572H34.7256V35.2165C34.6802 35.2845 34.6124 35.3817 34.5215 35.5065C34.4306 35.6321 34.2154 35.8422 33.8757 36.1382C33.5353 36.4342 33.1666 36.6959 32.7696 36.9232C32.3727 37.1511 31.8289 37.3612 31.1369 37.5548C30.4457 37.7484 29.7143 37.8449 28.9427 37.8449C26.4482 37.8449 24.4021 37.0831 22.803 35.5574C21.2045 34.0331 20.4053 31.848 20.4053 29.0036C20.4053 26.3177 21.2216 24.1557 22.8543 22.5171C24.487 20.8778 26.4936 20.0585 28.8749 20.0585C30.0994 20.0585 31.1995 20.2692 32.1745 20.6901C33.1495 21.111 33.8184 21.5266 34.1811 21.9363L34.7256 22.5508V20.3657H38.3992V37.572Z" fill="#070817"/>
<path fill-rule="evenodd" clip-rule="evenodd" d="M45.9298 32.8439C46.8937 33.8793 48.1689 34.3973 49.7561 34.3973C51.4119 34.3973 52.7384 33.8905 53.7365 32.8782C54.7345 31.8653 55.2329 30.5168 55.2329 28.8325C55.2329 27.1714 54.7227 25.8229 53.7023 24.7868C52.6818 23.7515 51.3553 23.2341 49.7226 23.2341C48.1122 23.2341 46.837 23.7515 45.8956 24.7868C44.9548 25.8229 44.4841 27.1714 44.4841 28.8325C44.4841 30.4712 44.966 31.8085 45.9298 32.8439ZM58.8051 35.8311C58.8051 41.635 55.8794 44.5363 50.0287 44.5363C49.0984 44.5363 48.1972 44.4346 47.3242 44.2291C46.4512 44.0242 45.7198 43.7857 45.1306 43.5122C44.5407 43.2393 44.0193 42.9605 43.5657 42.6757C43.1121 42.3916 42.7724 42.1471 42.5453 41.9423L42.2392 41.635L44.0759 38.9035L44.3314 39.1599C44.4334 39.2623 44.6711 39.45 45.0457 39.7228C45.4196 39.9964 45.8166 40.2409 46.236 40.4569C46.6553 40.673 47.1939 40.8666 47.8515 41.037C48.5092 41.2082 49.1781 41.2934 49.8588 41.2934C51.718 41.2934 53.0617 40.8778 53.8892 40.0473C54.7174 39.2167 55.1309 38.0162 55.1309 36.4456V34.9774C55.0854 35.0461 55.0176 35.1366 54.9268 35.251C54.8359 35.3646 54.6206 35.5747 54.2809 35.8826C53.9406 36.1892 53.5719 36.4568 53.1749 36.6841C52.7779 36.9121 52.2341 37.1169 51.5422 37.2992C50.851 37.481 50.1195 37.5721 49.3486 37.5721C46.8541 37.5721 44.8074 36.8215 43.2089 35.319C41.6098 33.8172 40.8105 31.6658 40.8105 28.8662C40.8105 26.2497 41.6269 24.1274 43.2596 22.5C44.8923 20.8726 46.8996 20.0586 49.2802 20.0586C50.5047 20.0586 51.6048 20.2694 52.5798 20.6903C53.5554 21.1112 54.2243 21.5268 54.5864 21.9364L55.1309 22.5509V20.3315H58.8051V35.8311Z" fill="#070817"/>
<path fill-rule="evenodd" clip-rule="evenodd" d="M66.3632 33.0317C67.327 34.1015 68.6029 34.636 70.1901 34.636C71.8683 34.636 73.2001 34.1239 74.187 33.1004C75.1732 32.0756 75.6663 30.6762 75.6663 28.9008C75.6663 27.1941 75.156 25.8171 74.1363 24.7698C73.1152 23.7232 71.7886 23.1999 70.1559 23.1999C68.5456 23.1999 67.2704 23.7232 66.3296 24.7698C65.3882 25.8171 64.9175 27.1941 64.9175 28.9008C64.9175 30.585 65.3994 31.962 66.3632 33.0317ZM79.2384 37.538H75.5649V35.1824C75.5194 35.2505 75.451 35.3476 75.3608 35.4725C75.2699 35.598 75.0546 35.8081 74.7143 36.1042C74.3739 36.4002 74.0052 36.6618 73.6083 36.8891C73.2119 37.1171 72.6675 37.3272 71.9756 37.5208C71.2843 37.7144 70.5529 37.8108 69.782 37.8108C67.2875 37.8108 65.2407 37.049 63.6422 35.524C62.0431 33.999 61.2439 31.814 61.2439 28.9695C61.2439 26.2836 62.0602 24.1217 63.6929 22.483C65.3256 20.8444 67.3329 20.0244 69.7135 20.0244C70.9387 20.0244 72.0381 20.2352 73.0138 20.6561C73.9888 21.0776 74.6577 21.4926 75.0204 21.9022L75.5649 22.5167V20.3317H79.2384V37.538Z" fill="#070817"/>
<path fill-rule="evenodd" clip-rule="evenodd" d="M90.667 24.0188C89.1475 23.882 87.9572 24.2527 87.0955 25.1281C86.2337 26.0043 85.8025 27.2055 85.8025 28.7298V37.5381H82.1289V20.2975H85.8025V23.4043C85.8255 23.3138 85.8762 23.1882 85.9559 23.029C86.0349 22.8697 86.2166 22.585 86.4997 22.1753C86.7834 21.7656 87.1007 21.4128 87.4523 21.1168C87.8038 20.8215 88.2969 20.5539 88.9322 20.3147C89.5669 20.0761 90.247 19.979 90.9731 20.0246L90.667 24.0188Z" fill="#070817"/>
<path fill-rule="evenodd" clip-rule="evenodd" d="M92.235 32.6219C92.8473 32.0298 93.5952 31.7345 94.48 31.7345C95.3642 31.7345 96.1127 32.0298 96.725 32.6219C97.3372 33.2139 97.6433 33.942 97.6433 34.8069C97.6433 35.6718 97.3372 36.4 96.725 36.992C96.1127 37.5834 95.3642 37.8794 94.48 37.8794C93.5952 37.8794 92.8473 37.5834 92.235 36.992C91.6228 36.4 91.3167 35.6718 91.3167 34.8069C91.3167 33.942 91.6228 33.2139 92.235 32.6219Z" fill="#070817"/>
<path fill-rule="evenodd" clip-rule="evenodd" d="M100.926 19.9904H106.096V22.2779C106.141 22.2092 106.198 22.1187 106.266 22.0043C106.334 21.8907 106.498 21.6859 106.759 21.3905C107.02 21.0945 107.309 20.8322 107.627 20.6049C107.944 20.3769 108.375 20.1721 108.919 19.9904C109.464 19.8087 110.042 19.7175 110.654 19.7175C111.289 19.7175 111.867 19.8028 112.389 19.9732C112.911 20.1437 113.324 20.3485 113.63 20.5877C113.936 20.8269 114.191 21.0601 114.395 21.2874C114.6 21.5154 114.747 21.7202 114.838 21.9026L114.94 22.1411C114.985 22.0731 115.048 21.9872 115.127 21.8854C115.206 21.7823 115.393 21.5894 115.688 21.3046C115.983 21.0205 116.301 20.7701 116.641 20.554C116.981 20.3373 117.434 20.1437 118.001 19.9732C118.568 19.8028 119.158 19.7175 119.77 19.7175C123.444 19.7175 125.281 21.8451 125.281 26.1016V37.5383H120.11V26.7841C120.11 24.9863 119.453 24.087 118.137 24.087C116.505 24.087 115.688 25.2823 115.688 27.6715V37.5383H110.518V26.7841C110.518 24.9863 109.86 24.087 108.545 24.087C106.913 24.087 106.096 25.2823 106.096 27.6715V37.5383H100.926V19.9904Z" fill="#070817"/>
<path fill-rule="evenodd" clip-rule="evenodd" d="M140.516 26.9208C140.493 26.8296 140.47 26.7219 140.447 26.5964C140.425 26.4715 140.329 26.2323 140.159 25.8795C139.988 25.5266 139.778 25.2194 139.529 24.9577C139.28 24.6961 138.916 24.4569 138.44 24.2408C137.964 24.0248 137.42 23.9164 136.808 23.9164C136.195 23.9164 135.651 24.0188 135.175 24.2236C134.699 24.4285 134.336 24.6789 134.086 24.9749C133.837 25.2709 133.633 25.5669 133.475 25.8623C133.315 26.1583 133.225 26.4087 133.202 26.6135L133.134 26.9208H140.516ZM145.005 34.8074C144.938 34.8979 144.841 35.0115 144.716 35.1483C144.591 35.2851 144.297 35.5295 143.832 35.8824C143.367 36.2352 142.868 36.5477 142.335 36.8213C141.803 37.0942 141.094 37.3393 140.209 37.5554C139.325 37.7714 138.395 37.8791 137.42 37.8791C134.313 37.8791 131.916 37.0658 130.226 35.4384C128.536 33.811 127.692 31.575 127.692 28.7299C127.692 26.0446 128.553 23.8536 130.277 22.1582C132 20.4627 134.178 19.615 136.808 19.615C139.665 19.615 141.905 20.5024 143.526 22.2778C145.148 24.0532 145.958 26.4999 145.958 29.6179V30.5053H133.1C133.1 30.5965 133.117 30.7101 133.151 30.8469C133.185 30.983 133.293 31.2222 133.475 31.5638C133.656 31.9047 133.888 32.212 134.172 32.4855C134.455 32.7584 134.886 33.0035 135.464 33.2196C136.043 33.4357 136.717 33.5434 137.488 33.5434C138.35 33.5434 139.178 33.3788 139.971 33.0485C140.765 32.7188 141.343 32.3831 141.706 32.0415L142.216 31.5294L145.005 34.8074Z" fill="#070817"/>
</svg>
