<svg xmlns="http://www.w3.org/2000/svg" xmlns:xlink="http://www.w3.org/1999/xlink" width="140" height="35" viewBox="0 0 140 35">
  <defs>
    <path id="a" d="M.5.307h22.147V23.38H.5z"/>
    <path id="c" d="M0 .438h14.068v18.828H0z"/>
  </defs>
  <g fill="none" fill-rule="evenodd">
    <g transform="translate(106.03 .208)">
      <mask id="b" fill="#fff">
        <use xlink:href="#a"/>
      </mask>
      <path fill="#3DC7A4" d="M15.308 23.38h7.317c.011-.3.022-.6.022-.902C22.647 10.26 12.714.32.5.306v7.309C8.696 7.62 15.34 14.28 15.34 22.478c0 .303-.013.603-.03.902" mask="url(#b)"/>
    </g>
    <g transform="translate(0 15.135)">
      <mask id="d" fill="#fff">
        <use xlink:href="#c"/>
      </mask>
      <path fill="#FFF" d="M10.04 4.174c-.754-.842-1.751-1.263-2.993-1.263-1.276 0-2.305.416-3.084 1.25-.78.833-1.17 1.914-1.17 3.244 0 1.383.39 2.474 1.17 3.271.78.798 1.835 1.197 3.164 1.197 1.241 0 2.225-.412 2.952-1.236.727-.825 1.09-1.893 1.09-3.205 0-1.33-.376-2.416-1.13-3.258zM0 .704h2.872v1.781a3.31 3.31 0 0 1 .173-.226c.08-.097.257-.261.532-.492a5.4 5.4 0 0 1 .904-.611c.328-.177.772-.341 1.33-.492A6.652 6.652 0 0 1 7.553.438c1.914 0 3.48.633 4.694 1.901s1.821 2.94 1.821 5.013c0 2.18-.607 3.892-1.821 5.133-1.215 1.241-2.815 1.861-4.8 1.861-.604 0-1.17-.07-1.703-.212-.532-.142-.966-.315-1.303-.52a8.812 8.812 0 0 1-.878-.597c-.247-.195-.425-.364-.531-.506l-.16-.212v6.967H0V.703z" mask="url(#d)"/>
    </g>
    <path fill="#FFF" d="M19.956 25.758c.753.833 1.75 1.25 2.991 1.25 1.312 0 2.354-.4 3.125-1.197.771-.798 1.157-1.888 1.157-3.271 0-1.33-.399-2.402-1.197-3.218-.798-.815-1.835-1.223-3.111-1.223-1.26 0-2.257.408-2.992 1.223-.736.816-1.104 1.888-1.104 3.218 0 1.312.377 2.385 1.13 3.218zm10.065 3.51H27.15v-1.835a7.162 7.162 0 0 1-.16.226c-.07.098-.239.262-.504.492a5.41 5.41 0 0 1-.865.612c-.31.177-.736.34-1.276.492-.54.15-1.113.226-1.716.226-1.95 0-3.55-.594-4.8-1.782-1.25-1.188-1.875-2.89-1.875-5.106 0-2.092.639-3.776 1.915-5.052 1.276-1.277 2.845-1.916 4.707-1.916.957 0 1.817.165 2.58.492.762.328 1.285.652 1.569.971l.425.479v-1.702h2.872v13.403zM35.909 25.585c.753.806 1.75 1.21 2.991 1.21 1.295 0 2.332-.395 3.112-1.183.78-.79 1.17-1.84 1.17-3.152 0-1.294-.399-2.344-1.197-3.151-.797-.807-1.835-1.21-3.111-1.21-1.259 0-2.256.403-2.992 1.21-.736.807-1.104 1.857-1.104 3.151 0 1.277.377 2.318 1.13 3.125zm10.066 2.327c0 4.521-2.287 6.781-6.862 6.781-.727 0-1.432-.08-2.114-.24-.683-.159-1.254-.345-1.715-.558-.461-.212-.869-.43-1.224-.651a5.966 5.966 0 0 1-.797-.572l-.24-.239 1.436-2.128.2.2c.08.08.266.226.559.439.292.213.602.403.93.571.328.169.749.32 1.263.452.514.134 1.037.2 1.57.2 1.453 0 2.504-.324 3.15-.97.648-.648.971-1.583.971-2.806v-1.144a3.244 3.244 0 0 1-.16.213 5.64 5.64 0 0 1-.504.492 5.004 5.004 0 0 1-.865.624c-.31.178-.735.338-1.276.48a6.746 6.746 0 0 1-1.715.212c-1.95 0-3.55-.585-4.8-1.755s-1.876-2.846-1.876-5.027c0-2.038.639-3.691 1.915-4.959 1.277-1.267 2.846-1.902 4.707-1.902.957 0 1.818.165 2.58.492.763.328 1.286.652 1.569.971l.425.479v-1.729h2.873v12.074zM51.884 25.731c.754.834 1.751 1.25 2.992 1.25 1.312 0 2.353-.399 3.125-1.196.77-.799 1.156-1.889 1.156-3.272 0-1.33-.399-2.402-1.196-3.218-.798-.815-1.835-1.223-3.112-1.223-1.259 0-2.256.408-2.991 1.223-.736.816-1.104 1.889-1.104 3.218 0 1.312.376 2.385 1.13 3.218zm10.066 3.51h-2.872v-1.834a8.149 8.149 0 0 1-.16.226c-.07.097-.239.261-.505.492a5.41 5.41 0 0 1-.865.611c-.31.178-.735.341-1.276.492-.54.15-1.112.226-1.715.226-1.95 0-3.55-.593-4.8-1.781s-1.875-2.89-1.875-5.106c0-2.092.638-3.777 1.914-5.053 1.277-1.277 2.846-1.915 4.707-1.915.958 0 1.818.164 2.58.492.763.328 1.286.651 1.57.97l.425.48v-1.703h2.872v13.404zM70.885 18.71c-1.188-.106-2.118.182-2.792.864-.674.683-1.011 1.619-1.011 2.806v6.862H64.21v-13.43h2.872v2.42c.018-.07.058-.169.12-.293a6.68 6.68 0 0 1 .425-.665c.222-.319.47-.594.745-.824.275-.23.66-.439 1.157-.625a3.82 3.82 0 0 1 1.595-.226l-.239 3.111zM72.111 25.412c.479-.461 1.063-.691 1.755-.691s1.277.23 1.755.691a2.27 2.27 0 0 1 .718 1.702 2.27 2.27 0 0 1-.718 1.702c-.478.46-1.063.692-1.755.692s-1.276-.231-1.755-.692a2.27 2.27 0 0 1-.718-1.702c0-.674.24-1.24.718-1.702M78.905 15.572h4.043v1.782a5.93 5.93 0 0 0 .133-.213c.053-.088.181-.248.385-.478.204-.23.43-.435.679-.612.248-.178.584-.337 1.01-.479a4.27 4.27 0 0 1 1.356-.212c.497 0 .949.066 1.356.199.409.133.732.292.971.479.24.186.439.368.598.545.16.177.276.337.346.479l.08.186c.035-.053.084-.12.146-.2.062-.08.209-.23.44-.452.23-.221.478-.416.744-.585.265-.169.62-.32 1.063-.452.443-.133.905-.2 1.383-.2 2.873 0 4.309 1.658 4.309 4.974v8.909h-4.043v-8.378c0-1.4-.514-2.1-1.542-2.1-1.277 0-1.915.93-1.915 2.792v7.686h-4.042v-8.378c0-1.4-.515-2.1-1.542-2.1-1.277 0-1.915.93-1.915 2.792v7.686h-4.043v-13.67zM109.858 20.97a3.989 3.989 0 0 1-.054-.252c-.017-.097-.093-.283-.225-.558a2.79 2.79 0 0 0-.493-.718c-.195-.204-.479-.39-.85-.559a3.068 3.068 0 0 0-1.277-.252c-.479 0-.905.08-1.277.239-.372.16-.656.355-.851.585-.195.23-.354.461-.478.691-.125.23-.195.426-.213.586l-.053.239h5.77zm3.51 6.144c-.053.071-.129.16-.226.266-.098.107-.328.297-.691.572a7.878 7.878 0 0 1-1.17.731c-.417.213-.972.404-1.663.572a9.195 9.195 0 0 1-2.18.252c-2.43 0-4.304-.633-5.625-1.901-1.321-1.268-1.981-3.01-1.981-5.226 0-2.092.673-3.798 2.02-5.12 1.348-1.32 3.05-1.98 5.107-1.98 2.234 0 3.985.691 5.252 2.074 1.268 1.383 1.902 3.29 1.902 5.718v.691H104.06c0 .071.013.16.04.266.026.106.11.293.253.559.141.265.323.505.545.718.221.212.558.403 1.01.572.453.168.98.252 1.582.252.674 0 1.322-.128 1.942-.386.62-.257 1.073-.518 1.356-.784l.399-.399 2.18 2.553z"/>
  </g>
</svg>
