<svg width="170" height="45" viewBox="0 0 170 45" fill="none" xmlns="http://www.w3.org/2000/svg">
<mask id="mask0" mask-type="alpha" maskUnits="userSpaceOnUse" x="140" y="0" width="30" height="31">
<path fill-rule="evenodd" clip-rule="evenodd" d="M140.741 0H170V30.3782H140.741V0Z" fill="white"/>
</mask>
<g mask="url(#mask0)">
<path fill-rule="evenodd" clip-rule="evenodd" d="M160.305 30.3784H169.97C169.986 29.984 170 29.5896 170 29.1911C170 13.1058 156.877 0.0185629 140.741 -0.000411987V9.62188C151.569 9.62866 160.345 18.3984 160.345 29.1918C160.345 29.5902 160.328 29.9853 160.305 30.3784Z" fill="#65A300"/>
</g>
<mask id="mask1" mask-type="alpha" maskUnits="userSpaceOnUse" x="0" y="19" width="19" height="26">
<path fill-rule="evenodd" clip-rule="evenodd" d="M0 19.8251H18.5864V44.6151H0V19.8251Z" fill="white"/>
</mask>
<g mask="url(#mask1)">
<path fill-rule="evenodd" clip-rule="evenodd" d="M13.2633 24.7444C12.2678 23.6357 10.9506 23.0814 9.31049 23.0814C7.62409 23.0814 6.26544 23.6296 5.23524 24.7268C4.20436 25.8239 3.68892 27.2477 3.68892 28.9988C3.68892 30.8197 4.20436 32.255 5.23524 33.3054C6.26544 34.3558 7.65945 34.881 9.41589 34.881C11.0554 34.881 12.3555 34.3382 13.3157 33.2533C14.2765 32.1676 14.7566 30.7608 14.7566 29.0341C14.7566 27.283 14.2588 25.8531 13.2633 24.7444ZM-6.10352e-05 20.1748H3.79434V22.5209C3.84126 22.4511 3.91742 22.3522 4.02282 22.2234C4.12822 22.0954 4.36282 21.8792 4.72526 21.5756C5.08906 21.272 5.48686 21.0036 5.92002 20.7705C6.35318 20.5374 6.93934 20.3212 7.67714 20.1226C8.41494 19.9241 9.18198 19.8251 9.97826 19.8251C12.5079 19.8251 14.5751 20.6594 16.1799 22.3285C17.784 23.9976 18.5864 26.198 18.5864 28.9283C18.5864 31.7997 17.784 34.0522 16.1799 35.6861C14.5751 37.3207 12.4609 38.1373 9.8375 38.1373C9.04122 38.1373 8.29186 38.0437 7.58874 37.8574C6.8863 37.6703 6.31238 37.4433 5.86766 37.1743C5.42226 36.9059 5.03602 36.6437 4.70758 36.3868C4.3805 36.13 4.1459 35.9084 4.00514 35.7214L3.79434 35.4415V44.6151H-6.10352e-05V20.1748Z" fill="#2B2B2B"/>
</g>
<path fill-rule="evenodd" clip-rule="evenodd" d="M26.3643 33.2355C27.3598 34.3327 28.677 34.8809 30.3164 34.8809C32.0498 34.8809 33.4261 34.3557 34.4454 33.306C35.464 32.2549 35.9734 30.8196 35.9734 28.9987C35.9734 27.2483 35.4464 25.836 34.3924 24.7619C33.3384 23.6884 31.9682 23.1517 30.2818 23.1517C28.6185 23.1517 27.3006 23.6884 26.3289 24.7619C25.3572 25.836 24.871 27.2483 24.871 28.9987C24.871 30.7261 25.3688 32.1384 26.3643 33.2355ZM39.6624 37.8572H35.868V35.4413C35.821 35.5111 35.751 35.6108 35.6572 35.7388C35.5633 35.8676 35.341 36.0831 34.9901 36.3867C34.6385 36.6903 34.2577 36.9587 33.8477 37.1918C33.4376 37.4256 32.876 37.6411 32.1613 37.8396C31.4473 38.0382 30.6918 38.1371 29.8948 38.1371C27.3183 38.1371 25.2049 37.3558 23.5532 35.791C21.9021 34.2276 21.0766 31.9866 21.0766 29.0692C21.0766 26.3144 21.9198 24.0971 23.6062 22.4164C25.2926 20.7351 27.3652 19.8948 29.8248 19.8948C31.0896 19.8948 32.2259 20.111 33.233 20.5427C34.24 20.9744 34.9309 21.4006 35.3056 21.8208L35.868 22.451V20.2099H39.6624V37.8572Z" fill="#2B2B2B"/>
<path fill-rule="evenodd" clip-rule="evenodd" d="M47.4406 33.0079C48.4361 34.0698 49.7533 34.6011 51.3928 34.6011C53.103 34.6011 54.4732 34.0813 55.504 33.0431C56.5349 32.0042 57.0497 30.6211 57.0497 28.8937C57.0497 27.19 56.5227 25.8069 55.4687 24.7443C54.4147 23.6824 53.0445 23.1518 51.3581 23.1518C49.6948 23.1518 48.3776 23.6824 47.4053 24.7443C46.4335 25.8069 45.9473 27.19 45.9473 28.8937C45.9473 30.5743 46.4451 31.946 47.4406 33.0079ZM60.7394 36.0716C60.7394 42.0243 57.7174 45 51.6743 45C50.7134 45 49.7825 44.8956 48.8808 44.6849C47.9792 44.4748 47.2237 44.2302 46.6151 43.9496C46.0058 43.6697 45.4672 43.3837 44.9987 43.0917C44.5302 42.8003 44.1793 42.5495 43.9447 42.3394L43.6285 42.0243L45.5257 39.2228L45.7896 39.4858C45.895 39.5908 46.1404 39.7833 46.5274 40.0631C46.9136 40.3437 47.3236 40.5944 47.7568 40.816C48.19 41.0376 48.7462 41.2362 49.4255 41.411C50.1048 41.5866 50.7957 41.674 51.4988 41.674C53.4192 41.674 54.807 41.2477 55.6618 40.3959C56.5172 39.544 56.9443 38.3127 56.9443 36.7019V35.1961C56.8974 35.2666 56.8273 35.3594 56.7335 35.4766C56.6396 35.5932 56.4173 35.8087 56.0664 36.1245C55.7148 36.4389 55.334 36.7134 54.924 36.9465C54.514 37.1803 53.9523 37.3904 53.2376 37.5774C52.5236 37.7638 51.7681 37.8573 50.9718 37.8573C48.3953 37.8573 46.2812 37.0875 44.6302 35.5464C42.9784 34.0061 42.1529 31.7996 42.1529 28.9283C42.1529 26.2447 42.9961 24.068 44.6825 22.3989C46.3689 20.7298 48.4422 19.8949 50.9011 19.8949C52.1659 19.8949 53.3022 20.1111 54.3093 20.5427C55.317 20.9744 56.0079 21.4007 56.3819 21.8208L56.9443 22.4511V20.1748H60.7394V36.0716Z" fill="#2B2B2B"/>
<path fill-rule="evenodd" clip-rule="evenodd" d="M68.5462 33.2005C69.5417 34.2976 70.8595 34.8459 72.499 34.8459C74.2323 34.8459 75.608 34.3207 76.6273 33.2709C77.6459 32.2199 78.1552 30.7846 78.1552 28.9636C78.1552 27.2132 77.6282 25.8009 76.5749 24.7268C75.5202 23.6534 74.15 23.1167 72.4636 23.1167C70.8004 23.1167 69.4832 23.6534 68.5115 24.7268C67.5391 25.8009 67.0529 27.2132 67.0529 28.9636C67.0529 30.691 67.5507 32.1033 68.5462 33.2005ZM81.8449 37.8222H78.0505V35.4063C78.0036 35.4761 77.9329 35.5757 77.8397 35.7038C77.7459 35.8326 77.5235 36.0481 77.172 36.3517C76.8204 36.6553 76.4396 36.9236 76.0296 37.1567C75.6202 37.3905 75.0578 37.606 74.3432 37.8046C73.6292 38.0031 72.8737 38.1021 72.0774 38.1021C69.5009 38.1021 67.3868 37.3207 65.7357 35.7567C64.084 34.1926 63.2585 31.9515 63.2585 29.0341C63.2585 26.2794 64.1017 24.062 65.7881 22.3814C67.4745 20.7008 69.5478 19.8598 72.0067 19.8598C73.2722 19.8598 74.4078 20.0759 75.4155 20.5076C76.4226 20.94 77.1135 21.3656 77.4882 21.7857L78.0505 22.416V20.1749H81.8449V37.8222Z" fill="#2B2B2B"/>
<path fill-rule="evenodd" clip-rule="evenodd" d="M93.6494 23.9565C92.08 23.8162 90.8505 24.1964 89.9604 25.0943C89.0703 25.9929 88.6249 27.2249 88.6249 28.7883V37.8224H84.8305V20.1399H88.6249V23.3263C88.6487 23.2334 88.701 23.1047 88.7833 22.9414C88.8649 22.778 89.0526 22.486 89.345 22.0658C89.6381 21.6456 89.9658 21.2838 90.329 20.9802C90.6921 20.6773 91.2014 20.4028 91.8576 20.1575C92.5131 19.9128 93.2156 19.8132 93.9656 19.86L93.6494 23.9565Z" fill="#2B2B2B"/>
<path fill-rule="evenodd" clip-rule="evenodd" d="M95.2691 32.7802C95.9015 32.173 96.674 31.8701 97.5879 31.8701C98.5011 31.8701 99.2743 32.173 99.9067 32.7802C100.539 33.3874 100.855 34.1342 100.855 35.0212C100.855 35.9083 100.539 36.6551 99.9067 37.2623C99.2743 37.8688 98.5011 38.1724 97.5879 38.1724C96.674 38.1724 95.9015 37.8688 95.2691 37.2623C94.6367 36.6551 94.3205 35.9083 94.3205 35.0212C94.3205 34.1342 94.6367 33.3874 95.2691 32.7802Z" fill="#2B2B2B"/>
<path fill-rule="evenodd" clip-rule="evenodd" d="M104.245 19.825H109.586V22.1711C109.632 22.1006 109.691 22.0077 109.761 21.8905C109.831 21.7739 110.001 21.5639 110.271 21.2609C110.54 20.9573 110.838 20.6883 111.167 20.4552C111.495 20.2214 111.939 20.0113 112.502 19.825C113.064 19.6386 113.661 19.5451 114.294 19.5451C114.95 19.5451 115.547 19.6325 116.085 19.8073C116.625 19.9822 117.052 20.1923 117.368 20.4376C117.684 20.6829 117.947 20.9221 118.158 21.1552C118.369 21.389 118.522 21.5991 118.615 21.7861L118.72 22.0308C118.767 21.961 118.832 21.8729 118.913 21.7685C118.996 21.6628 119.189 21.4649 119.494 21.1728C119.798 20.8814 120.126 20.6246 120.477 20.403C120.828 20.1807 121.297 19.9822 121.882 19.8073C122.468 19.6325 123.077 19.5451 123.71 19.5451C127.505 19.5451 129.402 21.7272 129.402 26.0928V37.8226H124.061V26.7928C124.061 24.9488 123.382 24.0265 122.023 24.0265C120.337 24.0265 119.494 25.2524 119.494 27.7029V37.8226H114.153V26.7928C114.153 24.9488 113.473 24.0265 112.116 24.0265C110.429 24.0265 109.586 25.2524 109.586 27.7029V37.8226H104.245V19.825Z" fill="#2B2B2B"/>
<path fill-rule="evenodd" clip-rule="evenodd" d="M145.137 26.9329C145.114 26.8394 145.091 26.729 145.067 26.6002C145.044 26.4721 144.944 26.2268 144.769 25.8649C144.593 25.503 144.376 25.1879 144.118 24.9196C143.861 24.6512 143.486 24.4059 142.994 24.1843C142.502 23.9627 141.94 23.8516 141.308 23.8516C140.675 23.8516 140.113 23.9566 139.621 24.1667C139.13 24.3768 138.754 24.6336 138.497 24.9372C138.239 25.2408 138.029 25.5444 137.865 25.8473C137.7 26.1509 137.607 26.4077 137.583 26.6178L137.513 26.9329H145.137ZM149.775 35.0217C149.705 35.1145 149.605 35.2311 149.477 35.3713C149.347 35.5116 149.043 35.7624 148.563 36.1242C148.083 36.4861 147.568 36.8066 147.017 37.0872C146.467 37.3671 145.735 37.6185 144.821 37.8401C143.907 38.0617 142.947 38.1722 141.94 38.1722C138.731 38.1722 136.255 37.3379 134.509 35.6688C132.764 33.9997 131.892 31.7065 131.892 28.7884C131.892 26.0343 132.782 23.7872 134.562 22.0483C136.342 20.3094 138.591 19.4399 141.308 19.4399C144.259 19.4399 146.572 20.35 148.247 22.1709C149.922 23.9918 150.759 26.5013 150.759 29.6992V30.6093H137.478C137.478 30.7028 137.496 30.8194 137.531 30.9597C137.566 31.0993 137.677 31.3446 137.865 31.695C138.052 32.0446 138.292 32.3598 138.585 32.6403C138.877 32.9202 139.323 33.1716 139.92 33.3932C140.518 33.6148 141.214 33.7253 142.01 33.7253C142.9 33.7253 143.756 33.5565 144.575 33.2177C145.395 32.8795 145.992 32.5353 146.367 32.1849L146.894 31.6597L149.775 35.0217Z" fill="#2B2B2B"/>
</svg>
