<svg id="logo_pagarme" data-name="logo_pagarme" xmlns="http://www.w3.org/2000/svg" viewBox="0 10 140 47"><defs><style>.cls-1{fill:#37cc9a;}</style></defs><path class="cls-1" d="M131.46,40.63h8c0-.33,0-.65,0-1A24.17,24.17,0,0,0,115.33,15.5v8A16.19,16.19,0,0,1,131.5,39.65C131.5,40,131.48,40.3,131.46,40.63Z"/><path class="cls-1" d="M0,32.28H3.17v2L3.36,34A5.29,5.29,0,0,1,4,33.45a5.73,5.73,0,0,1,1-.67,7,7,0,0,1,1.47-.55A7.66,7.66,0,0,1,8.33,32a6.86,6.86,0,0,1,5.18,2.1,7.66,7.66,0,0,1,2,5.53,7.74,7.74,0,0,1-2,5.66,7.07,7.07,0,0,1-5.3,2.06,7,7,0,0,1-1.87-.24,5.14,5.14,0,0,1-1.44-.57,9.05,9.05,0,0,1-1-.66,3.25,3.25,0,0,1-.59-.56l-.17-.23v7.68H0Zm11.08,3.83a4.25,4.25,0,0,0-3.31-1.4,4.45,4.45,0,0,0-3.4,1.38,5,5,0,0,0-1.29,3.58,4.94,4.94,0,0,0,1.29,3.61A4.67,4.67,0,0,0,7.86,44.6a4.13,4.13,0,0,0,3.26-1.37,5.14,5.14,0,0,0,1.2-3.53A5.16,5.16,0,0,0,11.08,36.11Z"/><path class="cls-1" d="M32.39,47.09H29.23v-2l-.18.25a4.23,4.23,0,0,1-.56.54,5.8,5.8,0,0,1-.95.67,6.18,6.18,0,0,1-1.41.55,7.31,7.31,0,0,1-1.89.25,7.4,7.4,0,0,1-5.3-2,7.4,7.4,0,0,1-2.07-5.63A7.55,7.55,0,0,1,19,34.15,7.07,7.07,0,0,1,24.18,32a7.2,7.2,0,0,1,2.85.54,5.11,5.11,0,0,1,1.73,1.08l.47.52V32.31h3.16Zm-11.1-3.87a4.23,4.23,0,0,0,3.3,1.38A4.57,4.57,0,0,0,28,43.28a5,5,0,0,0,1.27-3.61A4.86,4.86,0,0,0,28,36.12a4.58,4.58,0,0,0-3.43-1.35,4.22,4.22,0,0,0-3.3,1.35A5.1,5.1,0,0,0,20,39.67,5.09,5.09,0,0,0,21.29,43.22Z"/><path class="cls-1" d="M49.62,45.6q0,7.47-7.57,7.48a11,11,0,0,1-4.23-.88,13.79,13.79,0,0,1-1.35-.72,8.41,8.41,0,0,1-.88-.63l-.26-.27,1.58-2.34.22.22c.09.08.3.25.62.48a6.66,6.66,0,0,0,1,.63,7,7,0,0,0,1.4.5,6.73,6.73,0,0,0,1.73.22,4.82,4.82,0,0,0,3.48-1.07,4.21,4.21,0,0,0,1.07-3.1V44.86l-.18.24a5,5,0,0,1-.56.54,5.91,5.91,0,0,1-1,.69,5.81,5.81,0,0,1-1.41.53,7.71,7.71,0,0,1-1.89.23,7.45,7.45,0,0,1-5.3-1.93,7.22,7.22,0,0,1-2.06-5.55,7.36,7.36,0,0,1,2.11-5.47A7.08,7.08,0,0,1,41.4,32a7.17,7.17,0,0,1,2.85.54A5.11,5.11,0,0,1,46,33.66l.47.52v-1.9h3.17ZM38.51,43a4.3,4.3,0,0,0,3.3,1.33,4.6,4.6,0,0,0,3.43-1.3,4.73,4.73,0,0,0,1.29-3.48,4.71,4.71,0,0,0-1.32-3.47,4.61,4.61,0,0,0-3.43-1.34,4.24,4.24,0,0,0-3.3,1.34,5,5,0,0,0-1.22,3.47A4.86,4.86,0,0,0,38.51,43Z"/><path class="cls-1" d="M66.84,47.09H63.67v-2l-.18.25a4.23,4.23,0,0,1-.56.54,5.8,5.8,0,0,1-1,.67,6.18,6.18,0,0,1-1.41.55,7.19,7.19,0,0,1-1.89.25,7,7,0,0,1-7.36-7.6,7.54,7.54,0,0,1,2.11-5.58A7.09,7.09,0,0,1,58.62,32a7.17,7.17,0,0,1,2.85.54,5,5,0,0,1,1.73,1.08l.47.52V32.31h3.17ZM55.73,43.22A4.23,4.23,0,0,0,59,44.6a4.57,4.57,0,0,0,3.45-1.32,5,5,0,0,0,1.28-3.61,4.86,4.86,0,0,0-1.32-3.55A4.6,4.6,0,0,0,59,34.77a4.22,4.22,0,0,0-3.3,1.35,5.1,5.1,0,0,0-1.21,3.55A5.09,5.09,0,0,0,55.73,43.22Z"/><path class="cls-1" d="M76.69,35.47a3.65,3.65,0,0,0-3.08,1,4.21,4.21,0,0,0-1.11,3.09v7.57H69.33V32.28H72.5V35a1.67,1.67,0,0,1,.13-.33c.07-.13.23-.38.47-.73a4.5,4.5,0,0,1,.82-.91,4.56,4.56,0,0,1,1.28-.69A4.28,4.28,0,0,1,77,32Z"/><path class="cls-1" d="M78.05,42.87a2.82,2.82,0,0,1,3.87,0,2.62,2.62,0,0,1,0,3.75,2.82,2.82,0,0,1-3.87,0,2.6,2.6,0,0,1,0-3.75Z"/><path class="cls-1" d="M85.54,32H90v2l.15-.24a5.83,5.83,0,0,1,.42-.52,4.8,4.8,0,0,1,.75-.68A4.34,4.34,0,0,1,92.44,32a4.84,4.84,0,0,1,1.49-.23,4.73,4.73,0,0,1,1.5.22,3.24,3.24,0,0,1,1.07.53,4.93,4.93,0,0,1,.66.6,2.21,2.21,0,0,1,.38.53l.09.2.16-.22c.07-.09.23-.25.48-.5a5.1,5.1,0,0,1,.83-.64,4.32,4.32,0,0,1,1.17-.5,5.19,5.19,0,0,1,1.53-.22c3.16,0,4.75,1.83,4.75,5.48v9.83h-4.46V37.85c0-1.54-.57-2.32-1.7-2.32-1.41,0-2.12,1-2.12,3.08v8.48H93.82V37.85c0-1.54-.57-2.32-1.71-2.32-1.4,0-2.11,1-2.11,3.08v8.48H85.54Z"/><path class="cls-1" d="M122.57,44.75l-.25.29a6.08,6.08,0,0,1-.77.63,9.36,9.36,0,0,1-1.29.81,9.14,9.14,0,0,1-1.83.63,10.4,10.4,0,0,1-2.41.28,8.59,8.59,0,0,1-6.2-2.1,7.61,7.61,0,0,1-2.19-5.77,7.57,7.57,0,0,1,2.23-5.64,7.73,7.73,0,0,1,5.64-2.19A7.45,7.45,0,0,1,121.29,34a9,9,0,0,1,2.1,6.31v.76H112.3a1.17,1.17,0,0,0,0,.29,3,3,0,0,0,2,2,4.89,4.89,0,0,0,1.74.28,5.38,5.38,0,0,0,2.14-.43,5,5,0,0,0,1.5-.86l.44-.44ZM118.69,38a1.78,1.78,0,0,1,0-.28,3.82,3.82,0,0,0-.25-.62,3.19,3.19,0,0,0-.55-.79,2.94,2.94,0,0,0-.94-.61,3.3,3.3,0,0,0-1.4-.28,3.48,3.48,0,0,0-1.41.26,2.44,2.44,0,0,0-.94.65,4,4,0,0,0-.53.76,1.78,1.78,0,0,0-.23.64l-.06.27Z"/></svg>