<svg width="16" height="15" viewBox="0 0 16 15" fill="none" xmlns="http://www.w3.org/2000/svg">
<path fill-rule="evenodd" clip-rule="evenodd" d="M13.052 6.94285C14.3607 5.68282 14.3427 3.68477 13.0167 2.45023L13.016 2.45098C11.693 1.21945 9.55546 1.2022 8.20996 2.41198L7.19671 3.34951C7.10253 3.43419 7.04824 3.55454 7.0471 3.6812C7.04596 3.80785 7.09807 3.92916 7.19071 4.01553C7.38932 4.2007 7.69663 4.20298 7.89796 4.02078L8.90746 3.08775C9.85621 2.23498 11.375 2.24698 12.3125 3.12C13.2485 3.99078 13.2612 5.39556 12.3425 6.28059L10.5905 7.91188C10.0758 8.38204 9.39047 8.61989 8.69521 8.56965C7.99096 8.5224 7.34296 8.19314 6.92146 7.66812C6.7476 7.45967 6.44286 7.41953 6.22096 7.57587C6.11587 7.64695 6.04546 7.7589 6.02691 7.88441C6.00837 8.00993 6.04341 8.13746 6.12346 8.23589C6.71971 8.97766 7.63246 9.44192 8.62396 9.50792C9.61621 9.57392 10.5897 9.23641 11.294 8.5809L13.052 6.94285ZM9.92146 6.79585C9.32521 6.05408 8.41246 5.58982 7.42021 5.52382H7.42096C6.42871 5.45781 5.45521 5.79532 4.75096 6.45084L2.99297 8.08813C1.68422 9.34817 1.70222 11.3462 3.02822 12.5808C4.35122 13.8123 6.48871 13.8295 7.83421 12.6198L8.84296 11.6807C8.9366 11.5957 8.99032 11.4754 8.99103 11.3489C8.99174 11.2225 8.93939 11.1015 8.84671 11.0155C8.64771 10.8307 8.3404 10.8291 8.13946 11.0117L7.13746 11.9447C6.18871 12.7968 4.66997 12.7848 3.73247 11.9117C2.79647 11.041 2.78372 9.63618 3.70247 8.75115L5.45446 7.11986C5.96924 6.64997 6.65456 6.4124 7.34971 6.46284C8.05396 6.50934 8.70196 6.8386 9.12346 7.36362C9.29732 7.57207 9.60206 7.61221 9.82396 7.45587C9.92906 7.38479 9.99947 7.27284 10.018 7.14732C10.0365 7.02181 10.0015 6.89428 9.92146 6.79585Z" fill="#65A300"/>
<path d="M2.27404 1.80591C2.63995 1.36725 3.29833 1.32371 3.71882 1.71036L13.9889 11.1539C14.3816 11.515 14.4217 12.1208 14.0799 12.5305L13.7257 12.9552C13.3598 13.3938 12.7014 13.4374 12.2809 13.0507L2.01088 3.60719C1.61815 3.24607 1.57809 2.64023 1.91984 2.23053L2.27404 1.80591Z" fill="#65A300" stroke="white" stroke-width="1.3"/>
</svg>
