<svg width="343" height="434" fill="none" xmlns="http://www.w3.org/2000/svg"><path d="M221.501 52.638H15.176v363.088H221.5V52.638z" fill="#fff"/><path d="M222.793 416.856H14.046V51.508h208.747v365.348zm-206.326-2.422h203.904V53.93H16.467v360.504z" fill="#2B2B2B"/><path d="M209.231 160.321H61.026v154.018H209.23V160.321z" fill="#65A300"/><path d="M46.496 186.96c-.646 0-1.292-.485-1.292-1.292v-44.236h39.554c.646 0 1.292.485 1.292 1.292s-.485 1.291-1.292 1.291H47.626v41.814c0 .646-.484 1.131-1.13 1.131zM87.18 333.551H42.944v-39.554c0-.646.484-1.292 1.292-1.292.807 0 1.291.485 1.291 1.292v37.132h41.814c.646 0 1.292.484 1.292 1.292 0 .807-.807 1.13-1.453 1.13z" fill="#2B2B2B"/><path d="M120.922 81.537H48.917v16.628h72.005V81.537z" fill="#fff"/><path d="M122.052 99.457H47.626v-19.05h74.426v19.05zm-72.004-2.422h69.582V82.828H50.048v14.207zM133.514 97.52a7.75 7.75 0 100-15.5 7.75 7.75 0 000 15.5z" fill="#2B2B2B"/><path d="M8.557 107.206H1.292v85.566h7.265v-85.566z" fill="#65A300"/><path d="M9.687 193.902H0v-87.987h9.687v87.987zm-7.265-2.422h4.843v-83.144H2.422v83.144z" fill="#65A300"/><path d="M82.337 219.41c-.323 0-.646-.162-.97-.484l-4.843-5.489c-.484-.485-.484-1.292.162-1.776.484-.485 1.291-.485 1.776.161l4.843 5.489c.484.484.484 1.292-.161 1.776a1.23 1.23 0 01-.808.323z" fill="#fff"/><path d="M50.532 250.246c-.323 0-.646-.162-.807-.323a1.267 1.267 0 010-1.776l11.14-11.624a1.268 1.268 0 011.775 0 1.267 1.267 0 010 1.776L51.5 249.923c-.322.323-.645.323-.968.323z" fill="#65A300"/><path d="M92.669 291.253c-.484 0-.969-.323-1.13-.646l-2.745-5.974c-.323-.645 0-1.291.646-1.614.646-.323 1.291 0 1.614.646l2.745 5.973c.323.646 0 1.292-.646 1.615-.161-.162-.323 0-.484 0z" fill="#fff"/><path d="M315.946 346.466l26.154 32.289-58.927 54.407s-6.942-7.588-2.422-15.338c2.26-4.036 4.359-11.139 4.843-18.888 0-.485 0-1.131.162-1.615a35.029 35.029 0 000-5.812c0-.484-.162-1.13-.162-1.614-.484-4.359-1.614-8.557-3.551-12.109l33.903-31.32z" fill="#2B2B2B"/><path d="M300.932 389.41c-5.005.646-10.171 1.453-15.176 2.261 0-.485-.162-1.131-.162-1.615 5.005-.646 10.01-1.453 15.015-2.099.968-.161 1.291 1.453.323 1.453zM299.479 398.451c-4.521.162-9.203.323-13.723.484 0-.484 0-1.13.161-1.614 4.521-.161 9.203-.323 13.723-.484.969 0 .807 1.614-.161 1.614z" fill="#fff"/><path d="M203.097 386.827l-2.745 41.491h-80.238s0-10.171 8.557-12.915c4.359-1.292 10.817-5.328 16.467-10.494.323-.323.807-.646 1.13-1.13 1.292-1.292 2.745-2.745 3.875-4.198.323-.484.646-.807.969-1.291 2.583-3.552 4.682-7.427 5.489-11.301h46.496v-.162z" fill="#2B2B2B"/><path d="M288.823 289.961c-8.233-29.06-21.633-110.266-21.633-110.266l-46.335 10.655c-1.291-4.682-2.26-7.588-2.26-7.588l-46.819 17.92c0 37.778-20.987 188.244-20.987 188.244l60.703 8.557s6.942-65.708 11.462-115.917c17.113 58.443 46.012 101.064 57.636 108.329l44.235-36.325c.162-.162-27.768-34.549-36.002-63.609z" fill="#fff"/><path d="M212.622 398.774l-63.286-8.879.161-1.13c.162-1.453 20.988-150.951 20.988-188.083v-.807l48.756-18.727.323 1.291s.807 2.583 1.937 6.619l46.496-10.655.162 1.291c.161.808 13.561 81.53 21.633 110.267 8.072 28.414 35.679 62.64 35.841 62.963l.807.969-45.85 37.616-.807-.484c-11.14-6.781-38.747-46.658-56.344-103.001-4.521 48.756-10.817 109.136-10.979 109.781l.162.969zm-60.542-10.978l58.282 8.072c.968-9.364 7.103-68.775 11.301-114.625l.645-6.297 1.776 6.135c16.952 57.636 44.72 98.966 56.344 107.038l42.622-35.034c-4.521-5.812-28.253-36.647-35.68-62.963-7.587-26.799-19.696-98.804-21.472-109.136l-46.173 10.494-.323-1.13c-.807-2.906-1.453-5.005-1.775-6.297l-44.72 17.436c-.162 36.81-18.889 172.1-20.827 186.307z" fill="#2B2B2B"/><path d="M254.436 191.964c-.484 0-.969-.323-1.13-.807l-1.938-4.359c-.323-.646 0-1.292.646-1.614.646-.323 1.292 0 1.615.645.645 1.453 1.291 2.906 1.937 4.521.323.646 0 1.291-.646 1.614-.161-.161-.323 0-.484 0zM300.447 348.404c-.484 0-.807-.162-1.13-.646-1.614-2.745-3.229-5.812-4.843-9.041-.323-.646 0-1.292.484-1.615.646-.322 1.292 0 1.615.485a146.164 146.164 0 004.843 8.879c.323.646.161 1.292-.484 1.615-.162.161-.323.323-.485.323zm-9.363-18.244c-.485 0-.969-.323-1.131-.645-1.453-3.068-2.744-6.135-4.197-9.364-.323-.646 0-1.292.646-1.615.645-.323 1.291 0 1.614.646 1.292 3.229 2.745 6.296 4.036 9.364.323.646 0 1.291-.646 1.614 0-.161-.161 0-.322 0zm-7.911-18.889c-.485 0-.969-.323-1.13-.807-1.13-3.067-2.099-6.296-3.229-9.848-.162-.646.161-1.291.807-1.453.646-.161 1.292.162 1.453.807.969 3.391 2.099 6.781 3.067 9.687.162.646-.161 1.291-.645 1.614 0-.161-.162 0-.323 0zm-5.651-19.696c-.484 0-.968-.323-1.13-.968-.807-3.068-1.453-6.458-2.26-10.01-.162-.646.323-1.291.969-1.453.645-.161 1.291.323 1.453.969.807 3.551 1.453 6.942 2.26 10.009.161.646-.323 1.292-.969 1.453h-.323zm-4.197-20.18c-.646 0-1.13-.485-1.13-.969-.646-3.39-1.292-6.619-1.776-10.01-.162-.645.323-1.291.968-1.452.646-.162 1.292.322 1.453.968.646 3.391 1.13 6.781 1.776 10.01.162.646-.323 1.291-.968 1.453h-.323zm-3.552-20.019c-.646 0-1.13-.485-1.13-.969-.646-3.39-1.292-6.781-1.776-10.01-.161-.645.323-1.291.969-1.453.645-.161 1.291.323 1.453.969.645 3.39 1.291 6.781 1.775 10.171.162.646-.322 1.292-.968 1.453-.162-.161-.323-.161-.323-.161zm-3.875-20.181c-.484 0-1.13-.323-1.13-.969-.807-3.551-1.453-6.78-2.26-10.009-.162-.646.323-1.292.969-1.453.645-.161 1.291.323 1.453.969.807 3.228 1.453 6.457 2.26 10.009.161.646-.323 1.292-.969 1.453h-.323zm-4.843-19.857c-.484 0-.969-.323-1.13-.808-.969-3.39-1.937-6.619-3.068-9.686-.161-.646.162-1.292.808-1.615.645-.161 1.291.162 1.614.807.969 3.068 2.099 6.458 3.068 9.849.161.645-.162 1.291-.808 1.453-.161-.162-.323 0-.484 0zM308.842 360.835c-.322 0-.645-.162-.968-.323 0 0-1.13-1.292-3.068-4.036-.323-.485-.322-1.292.323-1.615.485-.323 1.292-.323 1.615.323 1.776 2.583 2.744 3.713 2.906 3.713.484.485.484 1.292-.162 1.776-.161 0-.484.162-.646.162z" fill="#2B2B2B"/><path d="M162.897 408.299l-12.593-8.718c.323-.484.646-.807.969-1.291 4.198 2.906 8.395 5.812 12.431 8.556.807.646 0 1.938-.807 1.453zM155.632 413.788c-3.39-3.067-6.942-5.973-10.494-9.04.323-.323.807-.646 1.13-1.131 3.391 3.068 6.942 5.974 10.494 8.88.807.969-.323 2.099-1.13 1.291z" fill="#fff"/><path d="M221.824 270.587c-.484 0-.969-.322-1.13-.807-3.39-8.233-7.265-43.105-8.072-49.402-1.615-.161-5.651-.807-12.916-2.26-.646-.161-1.13-.807-.968-1.453.161-.646.807-1.13 1.453-.969 9.848 1.938 13.561 2.422 13.561 2.422l.969.162.161.968c0 .485 4.52 41.168 7.911 49.725.323.646 0 1.292-.646 1.614h-.323z" fill="#2B2B2B"/><path d="M186.952 82.505c-16.306 5.49-29.867 16.629-26.315 63.448 3.552 46.819 4.52 58.927 4.52 58.927l104.939-14.853c0-.161-30.674-125.28-83.144-107.522z" fill="#4F7F00"/><path d="M164.027 206.171l-.161-1.291c0-.162-1.13-12.593-4.521-58.927-3.39-44.882 8.395-58.282 27.123-64.578 9.041-3.067 18.082-2.099 26.8 2.583 36.647 20.181 57.151 102.033 57.958 105.585l.323 1.291-107.522 15.337zm23.248-122.536c-14.207 4.844-29.06 13.884-25.508 62.156 2.906 38.263 4.036 53.438 4.359 57.636l102.355-14.53c-2.744-10.655-23.086-84.435-56.344-102.678-8.072-4.52-16.467-5.328-24.862-2.584z" fill="#4F7F00"/><path d="M230.704 145.953c14.207 0 28.252-.162 42.459-.323-4.036-30.836-30.028-66.03-72.004-69.744v29.706c14.207.484 27.607 22.925 29.545 40.361z" fill="#4F7F00"/><path d="M229.573 147.083l-.161-1.13c-1.937-17.436-15.176-38.908-28.414-39.393h-1.13V74.433l1.291.161c42.137 3.714 69.098 39.231 73.134 70.874l.162 1.292h-1.292c-13.884.161-28.252.323-42.459.323h-1.131zM202.289 104.3c13.885 1.615 26.962 22.441 29.383 40.361 13.4 0 26.8-.161 40.038-.323-4.52-29.867-30.028-62.963-69.421-67.16V104.3z" fill="#4F7F00"/><path d="M242.65 41.983L253.629 12.6c4.52-12.108-11.301-18.082-15.822-5.974L226.99 35.525c5.328 2.099 10.494 4.197 15.66 6.458zM86.211 430.256c-2.099-.807-3.067-3.229-2.26-5.167l9.848-25.023c.807-2.099 3.229-3.068 5.166-2.26 2.099.807 3.068 3.228 2.26 5.166l-9.848 25.023c-.645 2.099-3.067 3.068-5.166 2.261z" fill="#2B2B2B"/><path d="M132.384 377.302L254.436 50.216c10.978-28.898-34.065-46.173-45.043-17.113L87.341 360.19c-5.489 14.53-6.296 50.694 4.844 55.052 11.462 4.359 34.71-23.409 40.199-37.939z" fill="#fff"/><path d="M94.93 416.856c-.97 0-2.1-.161-2.907-.484-12.27-4.682-11.301-41.653-5.65-56.506L208.423 32.781c5.974-15.66 20.988-18.244 32.289-13.885 11.463 4.36 20.988 16.145 15.014 31.805L133.676 377.786c-2.906 7.588-10.171 18.082-18.244 26.477-4.843 5.005-13.561 12.593-20.503 12.593zM230.702 19.381c-8.072 0-16.144 4.036-20.019 14.207L88.633 360.673c-5.812 15.338-5.65 49.725 4.197 53.438 4.36 1.615 12.27-2.583 20.988-11.624 7.749-7.91 15.014-18.404 17.597-25.508L253.467 49.894c5.328-14.207-3.229-24.863-13.561-28.737-2.906-1.13-6.135-1.776-9.203-1.776z" fill="#2B2B2B"/><path d="M206.81 40.368l-5.489 14.853c14.853 6.135 29.705 12.27 44.397 18.566l5.65-15.337c-14.691-6.135-29.544-12.27-44.558-18.082zM125.603 389.733c3.068-4.52 5.49-8.879 6.781-12.431l40.845-109.298c-14.852-6.134-29.705-12.108-44.881-17.597L87.341 360.351c-.968 2.744-1.937 6.296-2.583 10.17 13.561 6.62 27.123 13.077 40.845 19.212z" fill="#2B2B2B"/><path d="M263.8 118.184c-11.947 6.297-23.733 12.754-34.549 20.827 2.744 10.332 2.421 20.18-2.907 24.701-7.103 6.135-17.274 5.65-27.284 2.26-2.906-16.629-11.462-20.988-20.503-24.378-7.103-2.583-7.588 4.359 3.39 12.592l.162 3.714c-2.583-1.453-4.843-3.068-6.942-4.521-13.562-9.686-14.853 1.615-14.853 1.615-8.88.807-6.135 10.171-6.135 10.171-5.812 6.619-4.682 10.332 21.634 29.867 30.351 22.44 87.664 20.665 97.027-31.482 2.584-13.723-.645-30.351-9.04-45.366z" fill="#fff"/><path d="M218.434 210.046c-15.337 0-31.159-4.843-43.267-13.884-18.566-13.884-24.54-19.535-25.024-24.54-.323-2.583 1.13-4.682 2.744-6.619-.322-1.453-.807-5.005 1.131-7.749 1.13-1.776 2.906-2.745 5.489-3.229.323-1.453 1.291-4.036 3.874-5.166 3.068-1.453 7.265-.162 12.593 3.552 1.614 1.13 3.229 2.26 5.005 3.228v-.968c-6.458-5.005-9.687-10.333-8.072-13.4.484-.807 2.098-2.583 6.296-.969 9.364 3.552 18.082 8.072 21.149 24.54 11.14 3.39 19.696 2.744 25.508-2.26 4.521-3.875 5.489-12.593 2.422-23.571l-.162-.808.646-.484c11.463-8.395 23.894-15.176 34.711-20.826l1.13-.485.646.969c8.395 15.337 11.785 32.128 9.202 46.335-4.682 25.831-20.342 37.132-32.45 41.975a65.576 65.576 0 01-23.571 4.359zm-52.47-59.088c-.645 0-1.291.161-1.775.322-2.261.969-2.584 4.037-2.584 4.037l-.161.968-.969.162c-2.098.161-3.713.968-4.52 2.26-1.615 2.421-.646 6.296-.646 6.296l.162.646-.485.484c-2.098 2.261-2.744 3.713-2.583 5.328.484 4.036 6.781 10.009 24.055 22.764 17.921 13.399 44.397 17.274 64.094 9.363 11.624-4.682 26.476-15.337 30.997-40.038 2.422-13.4-.646-29.221-8.395-43.751-10.333 5.327-21.957 11.785-32.773 19.696 3.067 11.624 1.776 20.826-3.391 25.185-6.619 5.651-16.467 6.458-28.575 2.583l-.646-.161-.162-.646c-2.744-15.821-10.493-20.019-19.696-23.409-1.937-.808-3.067-.485-3.39 0-.646.968.646 5.166 7.911 10.655l.484.323.162 6.458-1.938-1.13c-2.421-1.453-4.843-3.068-6.942-4.521-3.229-2.744-6.135-3.874-8.234-3.874z" fill="#2B2B2B"/><path d="M165.964 160.806c-1.614-1.292-2.744-2.906-3.39-5.005-.323-.969-1.776-.646-1.614.484a11.237 11.237 0 003.713 5.651c.969.645 2.099-.485 1.291-1.13zM159.991 170.654a5.26 5.26 0 01-3.875-3.875c-.323-.969-1.776-.646-1.614.484a7.12 7.12 0 005.005 5.005c1.13.162 1.614-1.453.484-1.614z" fill="#2B2B2B"/><path d="M147.883 213.275c-8.234-20.181-10.494-51.662 18.404-83.467 1.13-1.13 2.099-2.26 3.068-3.39 2.906-13.4 6.457-26.477 12.592-38.908-.968-1.453-1.937-2.099-1.937-2.099-28.737 13.077-66.192 33.419-76.847 87.18-6.781 33.58 5.327 61.349 22.602 72.65 10.655 6.942 19.212 16.144 25.347 13.723 0 0 7.426 1.13 12.108-6.458 0 0 7.749-.162 6.942-7.75-.484-4.036-5.166-9.525-10.01-15.175l2.906-1.776c5.005 4.359 15.338 7.911 12.593-.162-2.744-7.265-11.624-11.946-27.768-14.368z" fill="#fff"/><path d="M148.851 260.578c-4.52 0-9.686-3.875-15.498-8.395-2.583-1.937-5.328-4.036-8.395-5.973-16.629-10.979-30.352-38.101-23.087-73.942 10.171-50.855 43.267-72.327 77.493-87.987l.646-.323.484.323c.162 0 1.131.807 2.261 2.422l.484.645-.323.646c-6.458 13.077-9.848 26.8-12.431 38.586v.322l-.162.162c-.968 1.13-1.937 2.26-3.067 3.552-31.804 35.194-23.732 68.29-18.405 81.529 16.306 2.422 25.186 7.426 27.769 15.176 1.13 3.39.161 5.004-.969 5.812-2.906 1.937-9.202-.808-12.915-3.714l-1.131.646c4.844 5.489 9.041 10.655 9.364 14.692.323 2.583-.323 4.681-1.776 6.296-1.776 2.099-4.52 2.583-5.65 2.744-4.359 6.781-10.978 6.62-12.593 6.62-.646 0-1.453.161-2.099.161zm30.836-173.714c-33.419 15.337-65.546 36.487-75.556 85.888-6.942 34.55 6.62 61.349 22.118 71.52 3.068 1.938 5.812 4.036 8.557 6.135 6.458 4.843 11.947 9.041 15.821 7.588l.323-.161h.323c.323 0 6.781.807 10.817-5.974l.323-.646h.646s2.905-.161 4.681-1.937c.969-1.13 1.292-2.583 1.13-4.359-.322-3.552-5.004-9.041-9.848-14.53l-.968-1.13 5.005-2.906.645.646c3.713 3.229 9.203 5.166 10.656 4.197.807-.484.322-2.26 0-2.906-2.261-6.942-10.979-11.462-26.477-13.722l-.646-.162-.323-.646c-5.489-13.238-14.53-47.949 18.566-84.758.969-1.13 1.937-2.099 2.745-3.229 2.421-11.624 5.973-25.185 12.269-38.1a476.49 476.49 0 00-.807-.808z" fill="#2B2B2B"/><path d="M149.82 154.025c3.713-7.911 9.041-13.238 16.467-21.311 1.13-1.13 2.583 0 3.552-1.291 2.906-13.4 5.812-31.643 11.947-43.913-.969-1.453-1.937-2.099-1.937-2.099-18.889 8.557-41.653 20.504-57.959 42.944 9.041 8.718 18.566 17.113 27.93 25.67z" fill="#4F7F00"/><path d="M150.304 155.962l-1.13-1.13c-1.937-1.776-3.874-3.39-5.65-5.166-7.427-6.619-15.015-13.561-22.28-20.503l-.807-.808.646-.807c15.983-21.795 37.455-33.742 58.443-43.267l.646-.323.484.323c.161 0 1.13.807 2.26 2.422l.484.645-.322.646c-5.005 10.171-7.911 24.217-10.494 36.648a520.435 520.435 0 01-1.453 6.942v.323l-.162.162c-.807.968-1.937.968-2.583.968-.646 0-.807 0-.969.162-.968.968-1.775 1.937-2.744 2.906-5.973 6.619-10.333 11.301-13.561 18.081l-.808 1.776zm-26.799-27.768c6.942 6.781 14.368 13.4 21.472 19.696 1.453 1.292 3.067 2.745 4.52 4.036 3.229-6.296 7.75-11.139 13.239-17.274.807-.969 1.776-1.938 2.744-2.906.969-.969 1.937-.969 2.745-.969h.645c.485-2.099.808-4.198 1.292-6.458 2.422-12.269 5.328-26.315 10.332-36.648-.322-.322-.484-.645-.807-.807-20.18 9.203-40.845 20.665-56.182 41.33z" fill="#4F7F00"/><path d="M162.251 251.537c-3.229-5.973-6.942-11.785-11.139-17.274-.646-.808-2.099 0-1.453.807 4.197 5.489 7.749 11.14 11.139 17.274a.831.831 0 001.453-.807zM152.887 257.188c-2.906-6.781-7.264-12.593-13.238-16.952-.807-.646-1.614.807-.807 1.453 5.65 4.036 9.848 9.525 12.593 15.983.322.807 1.775.484 1.452-.484zM159.83 134.652c-.646 0-1.131-.485-1.131-.969l-1.614-9.364c-.161-.646.323-1.291.969-1.453.645-.161 1.291.323 1.453.969l1.614 9.364c.162.645-.323 1.291-.969 1.453h-.322z" fill="#2B2B2B"/><path d="M73.134 431.063c-.323 0-.807-.161-.969-.484l-28.898-41.168c-.323-.485-.323-1.292.323-1.615.484-.323 1.291-.323 1.614.323l28.899 41.168c.323.485.323 1.292-.323 1.615-.162.161-.484.161-.646.161zM61.026 431.063c-.162 0-.485 0-.646-.161l-20.988-14.208c-.484-.322-.646-1.13-.323-1.614.323-.484 1.13-.646 1.615-.323l20.988 14.207c.484.323.645 1.13.322 1.615-.161.323-.484.484-.968.484z" fill="#65A300"/><path d="M193.41 55.383c-.161-5.65-5.812-9.041-12.108-5.974-.969.485-1.776 1.13-2.745 1.938l-.161-.162c-8.88-9.364-22.925-10.655-31.32-2.745-8.396 7.911-6.458 20.665.645 31.482 6.62 9.687 20.342 14.853 31.32 2.745 3.552-4.036 5.651-9.364 5.813-14.853 5.811-1.776 8.556-7.427 8.556-12.431z" fill="#fff"/><path d="M164.834 91.062h-1.291c-6.458-.485-12.593-4.36-16.629-10.333-8.395-12.43-8.557-25.346-.484-32.934 4.359-4.036 10.171-5.974 16.467-5.49 5.973.485 11.463 3.23 15.822 7.589a14.737 14.737 0 012.098-1.292c3.391-1.776 6.942-1.776 9.687-.161 2.422 1.453 4.036 4.036 4.036 7.103.162 4.843-2.422 10.978-8.557 13.4-.322 5.489-2.421 10.655-5.973 14.691-5.489 5.974-11.14 7.427-15.176 7.427zm-4.197-46.496c-4.843 0-9.364 1.776-12.754 4.843-8.718 8.234-5.005 21.15.807 29.867 3.713 5.49 9.202 8.88 14.853 9.203 5.327.323 10.332-1.938 14.53-6.62 3.39-3.713 5.327-8.718 5.489-14.045v-.807l.807-.323c5.328-1.776 7.749-7.104 7.588-11.301 0-2.1-1.13-4.037-2.906-5.005-2.099-1.292-4.843-1.13-7.426.161-.808.485-1.615.969-2.584 1.776l-.807.807-.807-.807c-4.198-4.359-9.525-7.103-15.176-7.588-.323-.161-.968-.161-1.614-.161z" fill="#2B2B2B"/><path d="M161.478 69.265a1.615 1.615 0 10-2.948-1.32 1.615 1.615 0 002.948 1.32zM156.116 81.698c-2.098-2.906-3.713-6.135-5.004-9.525-.323-.969 1.13-1.615 1.453-.646 1.13 3.229 2.744 6.296 4.681 9.202.808.808-.484 1.776-1.13.969zM144.977 62.002c4.843-1.776 19.696-14.692 25.346-5.328 1.453 2.422 1.453 4.36 4.198 3.714 2.583-1.13 2.099-4.36 2.099-4.36 1.937-2.744 2.583-5.489 4.682-6.619 5.812-9.364-8.557-20.987-16.629-14.045 0 0-17.92-4.36-23.087 6.78-9.202 3.714-12.592 10.817-10.655 17.436 3.39 11.301 14.046 2.422 14.046 2.422zM180.172 61.033c-.162-3.875 2.26-7.265 5.973-8.395.969-.323 1.614 1.292.646 1.453-2.906.807-5.005 3.552-4.844 6.62-.161 1.29-1.775 1.452-1.775.322z" fill="#2B2B2B"/></svg>