<svg xmlns="http://www.w3.org/2000/svg" width="365" height="127" viewBox="0 0 365 127">
    <g fill="none" fill-rule="evenodd">
        <g fill="#D9E4EA" opacity=".509">
            <path d="M26.5 80h54a6.5 6.5 0 1 1 0 13h-54a6.5 6.5 0 1 1 0-13zM70.5 34h103a6.5 6.5 0 1 1 0 13h-103a6.5 6.5 0 1 1 0-13zM8 4h290a8 8 0 0 1 8 8v2a8 8 0 0 1-8 8H8a8 8 0 0 1-8-8v-2a8 8 0 0 1 8-8zM205 34h152a8 8 0 0 1 8 8v2a8 8 0 0 1-8 8H205a8 8 0 0 1-8-8v-2a8 8 0 0 1 8-8zM205 84h90a8 8 0 0 1 8 8v2a8 8 0 0 1-8 8h-90a8 8 0 0 1-8-8v-2a8 8 0 0 1 8-8zM149 108h146a8 8 0 0 1 8 8v2a8 8 0 0 1-8 8H149a8 8 0 0 1-8-8v-2a8 8 0 0 1 8-8zM39.5 57h209a6.5 6.5 0 1 1 0 13h-209a6.5 6.5 0 1 1 0-13z"/>
        </g>
        <path stroke="#17C9B2" stroke-linecap="square" stroke-width="2" d="M75 125.5h214.5M34.5 125.5H70M296.5 125.25h20"/>
        <g fill="#E0E6EA">
            <path d="M264 80.95h31V125h-31z"/>
            <path d="M289 95h31v30h-31z"/>
            <path d="M273 67.05h31V125h-31z"/>
            <g>
                <path d="M15 102.975h31V125H15z"/>
                <path d="M34 74h31v51H34z"/>
            </g>
        </g>
        <g fill="#FFF" stroke="#B7C7CF" stroke-width="2">
            <path d="M238 99h51v25h-51zM234 94h59v5h-59z"/>
        </g>
        <path fill="#B7C7CF" d="M44 88h31v37H44z"/>
        <path fill="#A5B3BA" fill-rule="nonzero" d="M51.75 92.625h3.1v3.083h-3.1zM62.6 92.625h3.1v3.083h-3.1zM51.75 104.958h3.1v3.084h-3.1zM62.6 104.958h3.1v3.084h-3.1zM51.75 116.52h3.1v3.084h-3.1zM62.6 116.52h3.1v3.084h-3.1z"/>
        <g>
            <path fill="#B7C7CF" d="M66 64h40v3.861H66z"/>
            <path fill="#FFF" stroke="#B7C7CF" stroke-width="2" d="M70.615 68.633h30.77V125h-30.77z"/>
            <path fill="#B7C7CF" fill-rule="nonzero" d="M78.308 76.354h3.846v3.861h-3.846zM89.846 76.354h3.846v3.861h-3.846zM78.308 87.937h3.846v3.86h-3.846zM89.846 87.937h3.846v3.86h-3.846zM78.308 99.519h3.846v3.86h-3.846zM89.846 99.519h3.846v3.86h-3.846zM78.308 111.101h3.846v3.861h-3.846zM89.846 111.101h3.846v3.861h-3.846z"/>
        </g>
        <g transform="translate(71)">
            <path fill="#858C8F" d="M194.784 34l-.784-.784L196.216 31l.784.784L194.784 34zm-3.568 0L189 31.784l.784-.784L192 33.216l-.784.784zm3.568 2L197 38.216l-.784.784L194 36.784l.784-.784zm-3.568 0l.784.784L189.784 39l-.784-.784L191.216 36z"/>
            <circle cx="260" cy="102" r="4" stroke="#858C8F" stroke-width="2"/>
            <circle cx="4" cy="11" r="4" stroke="#858C8F" stroke-width="2"/>
            <circle cx="17" cy="20" r="3" stroke="#858C8F" stroke-width="2"/>
            <path fill="#858C8F" d="M178 2V0h13v2h-13zm10 6V6h11v2h-11zm4-6V0h6v2h-6zm-10 6V6h4v2h-4z"/>
        </g>
        <g transform="translate(86 22)">
            <path fill="#FFF" stroke="#8459B9" d="M16.925 95H0c.627 4.2 2.194 6.9 4.701 8.1 2.508 1.2 61.747 1.2 177.717 0 4.388-1.2 6.582-3.9 6.582-8.1h-20.687"/>
            <path fill="#FFF" stroke="#8459B9" d="M16.5 23.5h161v72h-161z"/>
            <path fill="#EBF1F4" stroke="#8459B9" d="M22.5 26.5h149v64h-149z" opacity=".8"/>
            <circle cx="84" cy="55" r="2" fill="#9D7BC7"/>
            <circle cx="110" cy="55" r="2" fill="#9D7BC7"/>
            <path stroke="#9D7BC7" d="M86 66.23c6 4.667 13 5 21 1"/>
            <path fill="#17C9B2" d="M23 0h149l17 13.95V27.9c-1.333 2.067-3.667 3.1-7 3.1s-5.667-1.033-7-3.1c-2 2.067-4.667 3.1-8 3.1s-5.333-1.292-6-3.875c-1.333 2.583-3.667 3.875-7 3.875s-5.667-1.292-7-3.875c-2 2.583-4.667 3.875-8 3.875s-5.333-1.292-6-3.875c-2 2.583-4.667 3.875-8 3.875s-5.667-1.292-7-3.875c-2 2.583-4.333 3.875-7 3.875s-5-1.292-7-3.875C102 29.708 99.667 31 97 31s-5-1.292-7-3.875C88.667 29.708 86.333 31 83 31s-5.667-1.292-7-3.875C74 29.708 71.333 31 68 31s-5.333-1.292-6-3.875C60 29.708 57.667 31 55 31s-5-1.292-7-3.875C46.667 29.708 44.333 31 41 31s-5.667-1.292-7-3.875C32.667 29.708 30 31 26 31s-6.333-1.033-7-3.1c-2 2.067-4.333 3.1-7 3.1s-5-1.292-7-3.875v-12.4L23 0z"/>
            <path stroke="#8459B9" d="M75 96c.667 2 1.667 3 3 3h40c2-.667 3-1.667 3-3H75z"/>
            <path stroke="#FFF" d="M5 16h184"/>
        </g>
    </g>
</svg>
