<svg width="352" height="190" viewBox="0 0 352 190" fill="none" xmlns="http://www.w3.org/2000/svg">
<g id="undraw_mobile_user_7oqo">
<path id="Path" fill-rule="evenodd" clip-rule="evenodd" d="M56.8379 59.6858V69.3125C65.1076 69.3125 71.8115 76.1368 71.8115 84.5549C71.8115 92.973 65.1076 99.7973 56.8379 99.7973V109.424H105.699V59.6858H56.8379Z" fill="#F2F2F2"/>
<path id="Oval" fill-rule="evenodd" clip-rule="evenodd" d="M56.8391 96.492C63.4477 96.492 68.8051 91.1476 68.8051 84.5548C68.8051 77.9621 63.4477 72.6177 56.8391 72.6177C50.2304 72.6177 44.873 77.9621 44.873 84.5548C44.873 91.1476 50.2304 96.492 56.8391 96.492Z" fill="#F2F2F2"/>
<path id="Path_2" fill-rule="evenodd" clip-rule="evenodd" d="M237.326 95.524L217.383 83.5603V176.073H237.326V95.524Z" fill="#F2F2F2"/>
<path id="Path_3" fill-rule="evenodd" clip-rule="evenodd" d="M187.467 176.073H207.41V77.5698L187.467 65.6545V176.073Z" fill="#F2F2F2"/>
<path id="Path_4" fill-rule="evenodd" clip-rule="evenodd" d="M177.497 59.4789L80.7715 0V53.668H111.777V115.532H80.7715V176.073H177.497V59.4789Z" fill="#F2F2F2"/>
<path id="Path_5" fill-rule="evenodd" clip-rule="evenodd" d="M247.297 102.461V176.073H257.24L284.192 125.399L247.297 102.461Z" fill="#F2F2F2"/>
<rect id="Rectangle" y="168.115" width="352" height="16.911" fill="url(#paint0_linear)"/>
<path id="Path_6" fill-rule="evenodd" clip-rule="evenodd" d="M285.72 140.801C269.749 152.847 265.246 174.01 265.246 174.01C265.246 174.01 286.637 175.642 302.608 163.597C318.579 151.551 323.082 130.388 323.082 130.388C323.082 130.388 301.691 128.756 285.72 140.801Z" fill="#E1E1E1"/>
<path id="Path_7" fill-rule="evenodd" clip-rule="evenodd" d="M264.353 175.078C264.353 175.078 264.119 174.946 263.695 174.684C263.358 174.474 262.894 174.181 262.333 173.807C257.32 170.471 244.334 160.66 239.007 145.521C232.343 126.567 240.212 106.44 240.212 106.44C240.212 106.44 257.378 116.185 264.67 133.69C264.988 134.444 265.282 135.213 265.558 135.997C271.357 152.489 266.153 169.869 264.703 174.105C264.485 174.739 264.353 175.078 264.353 175.078Z" fill="#9AAFFF"/>
<path id="Shape" fill-rule="evenodd" clip-rule="evenodd" d="M264.138 174.9L264.38 175.079L264.521 174.81C264.621 174.619 274.501 155.448 270.101 136.015C265.701 116.582 248.578 103.761 248.405 103.634L248.164 103.456L248.023 103.724C247.923 103.915 238.043 123.086 242.443 142.519C246.843 161.952 263.966 174.773 264.138 174.9ZM242.951 142.4C238.882 124.43 247.156 106.665 248.344 104.251C250.449 105.891 265.525 118.165 269.593 136.134C273.662 154.104 265.388 171.869 264.2 174.283C262.095 172.643 247.019 160.369 242.951 142.4Z" fill="#3F3D56"/>
<path id="Path_8" opacity="0.1" fill-rule="evenodd" clip-rule="evenodd" d="M265.407 173.014C264.985 173.239 264.617 173.428 264.315 173.583C263.649 173.916 263.279 174.084 263.279 174.084C263.279 174.084 263.105 173.602 262.839 172.721C261.377 167.901 257.189 151.101 264.198 135.671C264.566 134.863 264.957 134.072 265.37 133.298C265.714 134.039 266.033 134.795 266.333 135.566C272.613 151.772 266.976 168.851 265.407 173.014Z" fill="black"/>
<path id="Path_9" fill-rule="evenodd" clip-rule="evenodd" d="M291.569 147.748C284.005 166.427 265.013 176.073 265.013 176.073C265.013 176.073 258.285 155.434 265.849 136.755C273.413 118.075 292.405 108.429 292.405 108.429C292.405 108.429 299.133 129.068 291.569 147.748Z" fill="#9AAFFF"/>
<path id="Rectangle_2" fill-rule="evenodd" clip-rule="evenodd" d="M264.647 174.359L292.171 108.657L292.659 108.863L265.135 174.564L264.647 174.359Z" fill="#3F3D56"/>
<path id="Path_10" fill-rule="evenodd" clip-rule="evenodd" d="M91.7386 168.778C91.7386 173.448 88.8369 175.078 85.257 175.078C85.1741 175.078 85.0911 175.077 85.0088 175.076C84.843 175.072 84.6783 175.065 84.5161 175.054C81.2851 174.835 78.7754 173.121 78.7754 168.778C78.7754 164.284 84.7779 158.613 85.2301 158.193L85.2307 158.192C85.248 158.175 85.257 158.167 85.257 158.167C85.257 158.167 91.7386 164.108 91.7386 168.778Z" fill="#A7BF2F"/>
<path id="Path_11" fill-rule="evenodd" clip-rule="evenodd" d="M85.1559 174.367L87.3311 171.198L85.1504 174.715L85.145 175.078C84.9928 175.075 84.8417 175.068 84.6928 175.057L84.9271 170.384L84.9255 170.348L84.9293 170.341L84.9518 169.9L82.7656 166.374L84.9583 169.569L84.9638 169.662L85.1406 166.132L83.2692 162.488L85.1636 165.513L85.348 158.193L85.3486 158.167V158.192L85.3179 163.964L87.1811 161.676L85.3103 164.461L85.261 167.622L87.001 164.588L85.2539 168.087L85.2265 169.845L87.7515 165.622L85.2167 170.458L85.1559 174.367Z" fill="#3F3D56"/>
<path id="Path_12" fill-rule="evenodd" clip-rule="evenodd" d="M212.396 165.965C212.396 148.473 225.79 134.293 242.311 134.293C258.833 134.293 272.227 148.473 272.227 165.965C272.227 183.457 258.833 178.37 242.311 178.37C225.79 178.37 212.396 183.457 212.396 165.965Z" fill="#9AAFFF" stroke="#676578"/>
<path id="Shape_2" fill-rule="evenodd" clip-rule="evenodd" d="M185.435 142.925C187.878 144.674 190.32 146.422 192.57 148.411C193.241 147.916 193.815 147.296 194.261 146.585C191.521 145.155 188.813 143.664 186.137 142.113C185.767 141.898 185.395 141.682 185.023 141.465L185.023 141.465L185.022 141.464C183.131 140.362 181.222 139.25 179.269 138.272C181.245 139.926 183.341 141.426 185.435 142.925ZM196.442 152.199C196.284 151.729 196.136 151.255 196.004 150.779C195.738 150.608 195.457 150.462 195.165 150.344C194.897 150.238 194.613 150.148 194.329 150.057C194.705 150.431 195.078 150.812 195.45 151.193L195.45 151.193L195.45 151.193L195.451 151.193L195.451 151.193C195.78 151.53 196.11 151.867 196.442 152.199ZM194.357 139.106C194.424 139.037 194.49 138.967 194.557 138.897C194.559 139.422 194.563 139.913 194.569 140.359C194.195 140.233 193.822 140.103 193.449 139.97C193.769 139.702 194.073 139.413 194.357 139.106ZM162.011 142.641C160.77 144.962 159.274 147.132 157.553 149.111C161.264 149.278 164.964 149.687 168.658 150.183C168.001 149.476 167.312 148.797 166.623 148.119C164.906 146.429 163.195 144.745 162.011 142.641Z" fill="url(#paint1_linear)"/>
<path id="Path_13" fill-rule="evenodd" clip-rule="evenodd" d="M57.8362 175.741C57.8362 180.411 54.9346 182.042 51.3546 182.042C51.2717 182.042 51.1888 182.041 51.1065 182.039C50.9406 182.036 50.776 182.028 50.6137 182.017C47.3828 181.799 44.873 180.084 44.873 175.741C44.873 171.248 50.8756 165.577 51.3278 165.156L51.3284 165.155C51.3457 165.139 51.3546 165.131 51.3546 165.131C51.3546 165.131 57.8362 171.072 57.8362 175.741Z" fill="#A7BF2F"/>
<path id="Path_14" fill-rule="evenodd" clip-rule="evenodd" d="M51.2516 181.33L53.4268 178.161L51.2461 181.678L51.2407 182.042C51.0885 182.038 50.9374 182.031 50.7886 182.02L51.0228 177.348L51.0212 177.311L51.025 177.305L51.0475 176.863L48.8613 173.337L51.054 176.532L51.0595 176.626L51.2363 173.095L49.3649 169.452L51.2593 172.476L51.4437 165.156L51.4443 165.131V165.155L51.4136 170.927L53.2768 168.639L51.406 171.424L51.3567 174.586L53.0967 171.552L51.3496 175.051L51.3222 176.808L53.8472 172.585L51.3124 177.421L51.2516 181.33Z" fill="#3F3D56"/>
<path id="Path_15" fill-rule="evenodd" clip-rule="evenodd" d="M212.261 99.7168C212.261 99.7168 222.148 97.5661 223.239 106.135C224.329 114.704 217.988 116.322 217.988 116.322L213.972 117.382L198.436 113.366L200.616 107.206L212.261 99.7168Z" fill="#2F2E41"/>
<path id="Oval_2" fill-rule="evenodd" clip-rule="evenodd" d="M208.408 100.471C215.568 100.471 221.372 94.6815 221.372 87.5394C221.372 80.3972 215.568 74.6074 208.408 74.6074C201.249 74.6074 195.445 80.3972 195.445 87.5394C195.445 94.6815 201.249 100.471 208.408 100.471Z" fill="#2F2E41"/>
<path id="Path_16" fill-rule="evenodd" clip-rule="evenodd" d="M168.521 113.403L175.501 127.772L171.422 128.325L163.535 113.403H168.521Z" fill="#2F2E41"/>
<path id="Path_17" fill-rule="evenodd" clip-rule="evenodd" d="M98.7188 167.34C99.4668 169.646 100.388 171.9 101.476 174.084C104.603 173.471 107.679 172.65 110.681 171.627C110.774 171.596 108.96 169.373 108.769 169.191C108.05 168.506 107.12 167.706 106.17 167.319C105.211 166.928 104.031 167.226 103.005 167.275C101.578 167.344 100.149 167.365 98.7188 167.34Z" fill="#E8BDBD"/>
<path id="Path_18" fill-rule="evenodd" clip-rule="evenodd" d="M104.28 169.815C102.799 169.338 101.899 167.804 101.297 166.324C100.694 164.845 100.209 163.232 99.0661 162.146C98.6284 162.168 98.2758 162.534 98.0592 162.929C97.8427 163.323 97.7137 163.767 97.4634 164.14C96.9869 164.849 96.1494 165.191 95.5504 165.792C94.9224 166.422 94.5791 167.313 93.929 167.919C93.1125 168.68 91.9582 168.868 90.8869 169.12C89.23 169.51 87.6296 170.12 86.1264 170.937C85.5727 171.281 84.9805 171.554 84.3629 171.751C83.6832 171.885 82.9873 171.909 82.3004 171.821L77.5639 171.474C77.1424 171.418 76.7147 171.437 76.2995 171.531C75.3259 171.812 74.7213 172.931 74.7928 173.975C74.8644 175.019 75.4952 175.954 76.2918 176.598C77.1162 177.206 78.0258 177.68 78.9892 178.005C83.1152 179.608 87.3629 180.857 91.6891 181.739L91.6914 182.705C94.6996 184.227 98.0068 185.02 101.359 185.022C101.607 185.041 101.855 184.997 102.083 184.893C102.415 184.707 102.569 184.307 102.692 183.937C103.828 180.517 104.493 176.949 104.667 173.338C104.751 172.422 104.683 171.499 104.463 170.607C104.206 169.73 105.094 170.099 104.272 169.755" fill="#2F2E41"/>
<path id="Path_19" fill-rule="evenodd" clip-rule="evenodd" d="M197.552 153.969C183.416 154.816 169.444 150.677 155.289 150.235C153.529 150.18 151.75 150.184 150.032 150.57C148.215 150.978 146.52 151.801 144.83 152.587C137.238 156.12 129.385 159.047 121.54 161.969L112.53 165.326C110.729 165.997 108.863 166.678 106.947 166.561C106.087 166.509 105.033 166.379 104.549 167.095C103.083 169.267 103.776 172.459 104.745 174.896C105.059 175.688 105.591 176.542 106.433 176.632C107.027 176.695 107.578 176.352 108.154 176.197C109.795 175.758 111.43 176.861 113.118 177.041C115.203 177.263 117.14 176.075 119.108 175.347C122.372 174.14 125.942 174.178 129.373 173.607C135.127 172.648 140.459 169.976 145.444 166.931C147.342 165.772 149.263 164.53 151.443 164.106C153.95 163.619 156.526 164.265 158.984 164.96C164.845 166.619 170.616 168.585 176.271 170.848C179.249 172.04 182.206 173.319 185.304 174.143C192.006 175.908 199.096 175.495 205.547 172.963C207.81 172.068 210.269 170.487 210.398 168.045C210.472 166.653 209.393 165.426 208.672 164.236C208.209 163.472 207.746 162.708 207.242 161.972C204.805 158.407 201.846 153.712 197.552 153.969Z" fill="#2F2E41"/>
<path id="Path_20" opacity="0.1" fill-rule="evenodd" clip-rule="evenodd" d="M197.552 153.969C183.416 154.816 169.444 150.677 155.289 150.235C153.529 150.18 151.75 150.184 150.032 150.57C148.215 150.978 146.52 151.801 144.83 152.587C137.238 156.12 129.385 159.047 121.54 161.969L112.53 165.326C110.729 165.997 108.863 166.678 106.947 166.561C106.087 166.509 105.033 166.379 104.549 167.095C103.083 169.267 103.776 172.459 104.745 174.896C105.059 175.688 105.591 176.542 106.433 176.632C107.027 176.695 107.578 176.352 108.154 176.197C109.795 175.758 111.43 176.861 113.118 177.041C115.203 177.263 117.14 176.075 119.108 175.347C122.372 174.14 125.942 174.178 129.373 173.607C135.127 172.648 140.459 169.976 145.444 166.931C147.342 165.772 149.263 164.53 151.443 164.106C153.95 163.619 156.526 164.265 158.984 164.96C164.845 166.619 170.616 168.585 176.271 170.848C179.249 172.04 182.206 173.319 185.304 174.143C192.006 175.908 199.096 175.495 205.547 172.963C207.81 172.068 210.269 170.487 210.398 168.045C210.472 166.653 209.393 165.426 208.672 164.236C208.209 163.472 207.746 162.708 207.242 161.972C204.805 158.407 201.846 153.712 197.552 153.969Z" fill="black"/>
<path id="Path_21" fill-rule="evenodd" clip-rule="evenodd" d="M125.643 168.022C127.874 168.777 130.125 169.471 132.396 170.105C133.667 168.036 136.044 166.596 136.586 164.23C136.62 164.127 136.62 164.017 136.587 163.914C136.529 163.812 136.439 163.733 136.331 163.687C134.705 162.793 132.899 162.269 131.043 162.15C129.578 162.059 128.909 163.576 128.245 164.642C127.976 165.073 126.24 168.224 125.643 168.022Z" fill="#E8BDBD"/>
<path id="Path_22" fill-rule="evenodd" clip-rule="evenodd" d="M128.443 169.554C127.143 169.276 125.871 168.563 125.207 167.384C124.896 166.831 124.565 166.086 123.944 166.127C123.368 166.166 123.103 166.868 122.974 167.445C122.488 169.606 122.01 171.785 121.158 173.824C120.306 175.863 119.044 177.777 117.266 179.039C116.45 179.618 115.541 180.05 114.743 180.655C114.027 181.199 113.402 181.881 112.611 182.301C112.081 182.549 111.535 182.757 110.975 182.923C110.153 183.216 109.366 183.606 108.633 184.086C107.989 184.468 107.442 185.001 107.039 185.64C106.636 186.296 106.586 187.115 106.907 187.816C107.251 188.39 107.819 188.787 108.468 188.906C109.109 189.019 109.763 189.036 110.408 188.956C112.972 188.763 115.534 188.53 118.095 188.297C119.178 188.226 120.255 188.073 121.316 187.84C121.877 187.702 122.427 187.519 122.986 187.372C123.944 187.12 124.925 186.975 125.914 186.937C126.201 186.912 126.49 186.939 126.768 187.017C127.362 187.215 127.783 187.817 128.395 187.939C128.788 187.977 129.184 187.923 129.553 187.781C131.398 187.266 133.337 187.28 135.247 187.175C136.088 187.129 137.073 186.966 137.459 186.198C137.94 185.24 137.142 184.168 136.824 183.141C136.665 182.485 136.577 181.813 136.56 181.137C136.413 179.467 135.933 177.845 135.148 176.372C134.495 175.149 133.604 173.798 134.063 172.485C134.218 172.04 134.528 171.626 134.497 171.154C134.362 169.081 129.622 169.806 128.443 169.554Z" fill="#2F2E41"/>
<path id="Path_23" fill-rule="evenodd" clip-rule="evenodd" d="M177.333 130.32C174.859 129.173 172.877 127.102 171.77 124.507C171.537 123.949 171.345 123.367 171.12 122.804C170.388 120.933 169.25 119.269 167.796 117.946C167.432 117.621 167.006 117.312 166.562 117.397C166.135 117.478 165.8 117.922 165.654 118.419C165.529 118.932 165.498 119.464 165.562 119.989C165.686 121.225 165.888 122.452 166.167 123.66L166.843 126.904C166.927 127.403 167.068 127.889 167.264 128.352C167.556 128.898 167.941 129.382 168.4 129.782C169.018 130.381 169.646 130.963 170.284 131.53C171.171 132.425 172.327 132.966 173.552 133.059C176.324 133.6 179.144 134.379 181.484 136.283C181.458 136.262 181.474 134.107 181.434 133.86C181.327 133.208 181.243 132.561 180.839 132.12C179.932 131.128 178.438 130.837 177.333 130.32Z" fill="#FBBEBE"/>
<path id="Path_24" opacity="0.1" fill-rule="evenodd" clip-rule="evenodd" d="M177.333 130.32C174.859 129.173 172.877 127.102 171.77 124.507C171.537 123.949 171.345 123.367 171.12 122.804C170.388 120.933 169.25 119.269 167.796 117.946C167.432 117.621 167.006 117.312 166.562 117.397C166.135 117.478 165.8 117.922 165.654 118.419C165.529 118.932 165.498 119.464 165.562 119.989C165.686 121.225 165.888 122.452 166.167 123.66L166.843 126.904C166.927 127.403 167.068 127.889 167.264 128.352C167.556 128.898 167.941 129.382 168.4 129.782C169.018 130.381 169.646 130.963 170.284 131.53C171.171 132.425 172.327 132.966 173.552 133.059C176.324 133.6 179.144 134.379 181.484 136.283C181.458 136.262 181.474 134.107 181.434 133.86C181.327 133.208 181.243 132.561 180.839 132.12C179.932 131.128 178.438 130.837 177.333 130.32Z" fill="black"/>
<path id="Oval_3" fill-rule="evenodd" clip-rule="evenodd" d="M204.918 107.435C206.845 107.435 208.408 105.876 208.408 103.953C208.408 102.03 206.845 100.471 204.918 100.471C202.99 100.471 201.428 102.03 201.428 103.953C201.428 105.876 202.99 107.435 204.918 107.435Z" fill="#2F2E41"/>
<path id="Path_25" fill-rule="evenodd" clip-rule="evenodd" d="M202.962 101.537C202.041 101.435 201.018 101.36 200.28 101.922C199.888 102.268 199.575 102.693 199.362 103.17C198.653 104.499 197.953 105.854 197.596 107.319C197.294 108.562 197.243 109.862 196.868 111.085C196.173 113.353 194.39 115.268 194.187 117.633C194.095 118.692 194.273 119.931 193.499 120.656C193.308 120.816 193.105 120.96 192.89 121.087C192.354 121.446 191.899 121.913 191.555 122.458C191.265 122.917 191.042 123.445 190.606 123.767C189.916 124.278 188.771 124.226 188.431 125.016C188.081 125.827 188.968 126.73 188.763 127.59C188.595 128.29 187.814 128.611 187.275 129.087C186.585 129.696 186.27 130.616 185.982 131.492C183.686 131.926 181.314 131.336 179.49 129.876C180.437 132.205 180.458 134.775 180.499 137.289C180.512 138.105 180.487 139.021 179.903 139.589C182.604 139.647 185.239 140.377 187.874 140.972C189.026 141.232 190.277 141.458 191.351 140.966C191.954 140.644 192.493 140.215 192.943 139.701C194.377 138.25 195.881 136.666 196.232 134.652C196.429 133.524 196.238 132.366 196.29 131.222C196.355 129.804 196.789 128.434 197.161 127.065C197.922 124.262 198.431 121.398 198.684 118.505C198.841 116.72 200.385 115.283 201.198 113.688C202.733 110.676 204.301 107.54 204.417 104.159C204.455 103.028 204.082 101.661 202.962 101.537Z" fill="#2F2E41"/>
<path id="Path_26" opacity="0.1" fill-rule="evenodd" clip-rule="evenodd" d="M202.962 101.537C202.041 101.435 201.018 101.36 200.28 101.922C199.888 102.268 199.575 102.693 199.362 103.17C198.653 104.499 197.953 105.854 197.596 107.319C197.294 108.562 197.243 109.862 196.868 111.085C196.173 113.353 194.39 115.268 194.187 117.633C194.095 118.692 194.273 119.931 193.499 120.656C193.308 120.816 193.105 120.96 192.89 121.087C192.354 121.446 191.899 121.913 191.555 122.458C191.265 122.917 191.042 123.445 190.606 123.767C189.916 124.278 188.771 124.226 188.431 125.016C188.081 125.827 188.968 126.73 188.763 127.59C188.595 128.29 187.814 128.611 187.275 129.087C186.585 129.696 186.27 130.616 185.982 131.492C183.686 131.926 181.314 131.336 179.49 129.876C180.437 132.205 180.458 134.775 180.499 137.289C180.512 138.105 180.487 139.021 179.903 139.589C182.604 139.647 185.239 140.377 187.874 140.972C189.026 141.232 190.277 141.458 191.351 140.966C191.954 140.644 192.493 140.215 192.943 139.701C194.377 138.25 195.881 136.666 196.232 134.652C196.429 133.524 196.238 132.366 196.29 131.222C196.355 129.804 196.789 128.434 197.161 127.065C197.922 124.262 198.431 121.398 198.684 118.505C198.841 116.72 200.385 115.283 201.198 113.688C202.733 110.676 204.301 107.54 204.417 104.159C204.455 103.028 204.082 101.661 202.962 101.537Z" fill="black"/>
<path id="Path_27" fill-rule="evenodd" clip-rule="evenodd" d="M199.666 156.382C196.747 154.983 194.612 152.375 192.252 150.143C187.747 145.883 182.238 142.866 177.502 138.871C174.362 136.223 171.554 133.14 168.104 130.923C165.065 128.974 161.621 127.758 158.039 127.371C157.629 127.3 157.208 127.321 156.807 127.433C156.354 127.634 155.96 127.948 155.661 128.346C154.132 130.083 152.774 131.965 151.604 133.965C145.6 144.23 137.073 152.862 130.008 162.409C129.54 162.875 129.503 163.623 129.923 164.133L131.36 166.97C132.165 168.557 133.453 170.406 135.187 170.091C135.979 169.947 136.61 169.359 137.194 168.798L143.646 162.585L150.41 156.072C154.373 152.256 158.405 148.351 160.988 143.469C163.008 146.997 166.59 149.306 169.048 152.535C169.983 153.764 170.747 155.114 171.581 156.415C172.919 158.499 174.441 160.456 175.96 162.409L183.719 172.385C184.777 173.745 185.865 175.133 187.312 176.056C189.15 177.228 191.385 177.536 193.548 177.732C196.463 177.994 199.389 178.101 202.315 178.051C204.546 178.012 206.847 177.865 208.849 176.867C210.851 175.869 212.495 173.82 212.391 171.563C212.337 170.389 211.83 169.288 211.273 168.257C208.501 163.135 204.879 158.88 199.666 156.382Z" fill="#2F2E41"/>
<path id="Oval_4" fill-rule="evenodd" clip-rule="evenodd" d="M207.909 108.429C209.286 108.429 210.402 107.316 210.402 105.942C210.402 104.569 209.286 103.456 207.909 103.456C206.532 103.456 205.416 104.569 205.416 105.942C205.416 107.316 206.532 108.429 207.909 108.429Z" fill="#2F2E41"/>
<path id="Path_28" fill-rule="evenodd" clip-rule="evenodd" d="M207.039 103.847C207.682 104.99 207.683 106.412 207.329 107.677C206.974 108.943 206.298 110.087 205.629 111.215C204.971 112.325 204.305 113.445 203.422 114.382C207.497 114.578 211.448 112.97 215.044 111.023C217.937 109.456 220.824 107.522 222.368 104.594C221.465 104.867 220.47 104.597 219.671 104.092C218.894 103.548 218.198 102.897 217.604 102.157L215.558 99.8425C215.077 99.3386 214.655 98.7814 214.299 98.1818C213.857 97.3614 213.668 96.4263 213.759 95.4973C212.947 96.3527 212.038 97.1107 211.052 97.7562C209.591 98.7125 207.98 99.4062 206.516 100.357C205.996 100.694 204.842 101.236 205.139 101.919C205.429 102.584 206.627 103.116 207.039 103.847Z" fill="#FBBEBE"/>
<path id="Path_29" opacity="0.1" fill-rule="evenodd" clip-rule="evenodd" d="M207.039 103.847C207.682 104.99 207.683 106.412 207.329 107.677C206.974 108.943 206.298 110.087 205.629 111.215C204.971 112.325 204.305 113.445 203.422 114.382C207.497 114.578 211.448 112.97 215.044 111.023C217.937 109.456 220.824 107.522 222.368 104.594C221.465 104.867 220.47 104.597 219.671 104.092C218.894 103.548 218.198 102.897 217.604 102.157L215.558 99.8425C215.077 99.3386 214.655 98.7814 214.299 98.1818C213.857 97.3614 213.668 96.4263 213.759 95.4973C212.947 96.3527 212.038 97.1107 211.052 97.7562C209.591 98.7125 207.98 99.4062 206.516 100.357C205.996 100.694 204.842 101.236 205.139 101.919C205.429 102.584 206.627 103.116 207.039 103.847Z" fill="black"/>
<path id="Path_30" fill-rule="evenodd" clip-rule="evenodd" d="M206.203 104.922C205.453 106.199 205.292 107.707 206.203 108.871C206.316 109.015 206.737 109.914 206.919 109.922C207.095 109.908 207.258 109.824 207.374 109.689C208.343 108.792 209.053 107.648 209.904 106.635C210.755 105.622 211.829 104.698 213.123 104.494C214.684 104.248 216.192 105.086 217.559 105.894C218.127 106.23 218.716 106.586 219.073 107.148C219.361 107.674 219.531 108.259 219.571 108.86C220.043 112.462 220.032 116.109 220.021 119.743C220.013 122.37 220.003 125.015 219.513 127.594C219.259 128.927 218.878 130.235 218.698 131.581C218.566 132.768 218.512 133.963 218.538 135.157L218.534 140.159C218.501 141.077 218.565 141.996 218.725 142.901C218.96 143.997 219.472 145.009 219.814 146.075C220.167 147.3 220.408 148.556 220.535 149.825L221.211 155.004C221.424 156.635 221.581 158.419 220.608 159.732C220.167 160.326 219.589 160.801 219.143 161.39C217.471 163.594 218.007 166.74 217.31 169.433C216.76 171.406 215.629 173.162 214.068 174.467C212.874 175.494 211.331 176.303 209.793 176.014C207.717 175.624 206.47 173.431 205.904 171.36C205.338 169.288 205.131 167.033 203.905 165.283C202.904 163.854 201.352 162.955 199.949 161.935C198.546 160.915 197.175 159.6 196.87 157.873C196.736 157.118 196.82 156.341 196.74 155.578C196.513 153.611 195.245 151.924 193.433 151.179C192.37 150.761 191.057 150.611 190.459 149.624C192.004 148.742 193.03 147.112 193.57 145.394C194.111 143.676 194.221 141.853 194.327 140.052L194.682 134.035C194.841 131.345 194.913 128.68 196.082 126.263C196.605 125.183 197.256 124.171 197.8 123.102C198.52 121.602 199.134 120.052 199.639 118.464C200.487 115.998 201.335 113.532 202.091 111.035C202.451 109.845 202.797 108.633 203.438 107.573C204.08 106.514 205.001 105.151 206.203 104.922Z" fill="#F1A3D5"/>
<path id="Path_31" fill-rule="evenodd" clip-rule="evenodd" d="M193.619 144.183L195.205 144.241L195.543 141.826C195.587 141.342 195.701 140.868 195.879 140.417C196.141 139.941 196.446 139.49 196.791 139.071C198.353 136.849 198.239 133.898 198.626 131.199C199.142 127.599 200.636 124.228 202.113 120.912L205.193 113.997C205.808 112.823 206.102 111.506 206.045 110.18C206.072 109.111 206.387 105.221 206.414 104.152C206.424 103.757 205.548 103.976 205.371 103.624C204.984 102.856 204.456 104.938 203.734 105.395C203.013 105.852 202.615 106.679 202.308 107.483C201.645 109.225 201.239 111.057 200.62 112.816C200.002 114.575 199.136 116.303 197.744 117.528C197.112 118.084 196.383 118.526 195.786 119.12C193.869 121.029 193.683 124.043 193.615 126.765C193.575 128.382 193.265 144.183 193.619 144.183Z" fill="#2F2E41"/>
<path id="Path_32" fill-rule="evenodd" clip-rule="evenodd" d="M215.801 101.654C214.272 102.275 213.433 103.986 213.004 105.63C212.574 107.275 212.399 109.028 211.577 110.503C209.657 113.952 204.761 114.957 203.407 118.683C202.963 119.903 202.983 121.241 202.863 122.538C202.617 125.208 201.767 127.788 201.515 130.458C201.32 132.526 201.489 134.611 201.657 136.681L203.368 157.742C203.615 160.784 203.609 164.052 202.855 167.003C204.588 167.352 206.389 166.885 207.996 166.129C209.603 165.372 211.07 164.334 212.617 163.454C215.278 161.939 218.211 160.866 220.541 158.849C220.962 158.51 221.324 158.098 221.608 157.631C222.075 156.798 222.113 155.791 222.335 154.856C222.537 154.11 222.793 153.38 223.102 152.674C223.955 150.552 224.698 148.385 225.328 146.181C225.761 144.719 226.103 143.229 226.352 141.722C226.538 140.522 226.639 139.309 226.74 138.097C226.864 136.201 227.229 134.329 227.826 132.53C229.315 128.242 230.157 123.743 230.325 119.19C230.376 118.533 230.332 117.871 230.197 117.227C229.994 116.427 229.537 115.728 229.161 114.999C228.45 113.617 228.023 112.096 227.352 110.692C225.836 107.52 223.158 105.116 220.353 103.1C218.975 102.11 217.362 101.021 215.801 101.654Z" fill="#2F2E41"/>
<path id="Path_33" fill-rule="evenodd" clip-rule="evenodd" d="M179.632 135.365C178.417 134.655 177.203 133.889 176.289 132.813C175.851 132.298 175.49 131.719 175.045 131.21C173.962 129.972 172.427 129.204 170.841 128.803C169.254 128.401 167.604 128.34 165.969 128.326C164.875 128.317 163.754 128.333 162.729 128.721C161.705 129.11 160.781 129.948 160.583 131.035C160.345 132.343 161.196 133.618 162.217 134.457C163.167 135.237 164.285 135.782 165.482 136.05C166.459 136.222 167.444 136.338 168.434 136.397C174.245 137.009 179.429 140.187 184.521 143.081C188.994 145.623 193.553 147.999 198.199 150.21C198.383 148.811 198.46 147.401 198.428 145.991C198.405 144.938 198.353 143.332 197.363 142.714C196.21 141.994 194.311 141.828 193.01 141.4C190.016 140.413 187.091 139.225 184.257 137.842C182.685 137.075 181.144 136.25 179.632 135.365Z" fill="#E8BDBD"/>
<path id="Oval_5" fill-rule="evenodd" clip-rule="evenodd" d="M204.918 102.461C210.7 102.461 215.388 97.7845 215.388 92.0158C215.388 86.2472 210.7 81.5708 204.918 81.5708C199.135 81.5708 194.447 86.2472 194.447 92.0158C194.447 97.7845 199.135 102.461 204.918 102.461Z" fill="#E8BDBD"/>
<path id="Path_34" fill-rule="evenodd" clip-rule="evenodd" d="M218.787 113.718C217.868 114.785 217.409 116.16 216.792 117.427C215.522 120.032 213.531 122.269 212.534 124.991C211.482 127.863 211.517 131.279 209.455 133.535C209.096 133.927 208.664 134.306 208.56 134.828C208.498 135.137 208.562 135.469 208.455 135.766C208.16 136.585 206.814 136.626 206.562 137.461C206.489 137.705 206.53 137.975 206.439 138.213C206.233 138.753 205.518 138.835 205.04 139.158C204.042 139.833 204.244 141.402 203.531 142.375C202.968 143.144 201.906 143.402 200.962 143.272C200.019 143.141 199.155 142.691 198.295 142.279C198 142.114 197.674 142.011 197.336 141.979C196.938 141.993 196.552 142.124 196.229 142.356C194.33 143.56 193.438 145.944 193.451 148.196C193.464 150.448 194.241 152.618 195.036 154.724C195.144 155.08 195.322 155.41 195.56 155.697C196.19 156.36 197.286 156.253 198.122 155.884C198.959 155.515 199.718 154.934 200.618 154.771C202.209 154.484 203.764 155.574 205.378 155.484C206.56 155.418 207.607 154.733 208.589 154.07C210.157 153.012 211.754 151.927 212.907 150.426C213.613 149.506 214.13 148.458 214.746 147.476C215.537 146.27 216.404 145.115 217.342 144.019L223.271 136.786C224.695 135.24 225.676 133.341 226.111 131.287C226.674 129.359 227.242 127.409 227.339 125.403C227.419 123.751 227.179 122.102 226.909 120.471C226.643 118.865 226.34 117.242 225.632 115.777C224.344 113.11 221.208 110.904 218.787 113.718Z" fill="#2F2E41"/>
<path id="Oval_6" fill-rule="evenodd" clip-rule="evenodd" d="M222.367 82.5655C229.527 82.5655 235.331 76.7757 235.331 69.6336C235.331 62.4915 229.527 56.7017 222.367 56.7017C215.208 56.7017 209.404 62.4915 209.404 69.6336C209.404 76.7757 215.208 82.5655 222.367 82.5655Z" fill="#2F2E41"/>
<path id="Path_35" fill-rule="evenodd" clip-rule="evenodd" d="M233.713 80.942C230.427 83.4393 226.194 84.1077 222.355 82.7353C218.516 81.3628 215.548 78.1198 214.391 74.0339C214.979 78.954 218.148 83.1083 222.589 84.7796C227.029 86.4509 231.986 85.3552 235.41 81.9455C238.835 78.5359 240.145 73.3914 238.799 68.6387C239.37 73.4089 237.42 78.1266 233.713 80.942Z" fill="#2F2E41"/>
<path id="Oval_7" fill-rule="evenodd" clip-rule="evenodd" d="M212.895 99.4763C218.127 99.4763 222.368 95.0226 222.368 89.5287C222.368 84.0348 218.127 79.5811 212.895 79.5811C207.663 79.5811 203.422 84.0348 203.422 89.5287C203.422 95.0226 207.663 99.4763 212.895 99.4763Z" fill="#2F2E41"/>
<path id="Oval_8" fill-rule="evenodd" clip-rule="evenodd" d="M203.921 92.5131C208.602 92.5131 212.397 89.3955 212.397 85.5498C212.397 81.704 208.602 78.5864 203.921 78.5864C199.24 78.5864 195.445 81.704 195.445 85.5498C195.445 89.3955 199.24 92.5131 203.921 92.5131Z" fill="#2F2E41"/>
<path id="Oval_9" fill-rule="evenodd" clip-rule="evenodd" d="M207.478 97.6623C208.045 97.2004 207.944 96.1351 207.252 95.2829C206.56 94.4308 205.539 94.1145 204.972 94.5765C204.405 95.0384 204.506 96.1037 205.198 96.9559C205.89 97.808 206.911 98.1243 207.478 97.6623Z" fill="#E8BDBD"/>
<path id="Path_36" fill-rule="evenodd" clip-rule="evenodd" d="M197.44 180.715C197.44 185.385 194.538 187.016 190.958 187.016C190.875 187.016 190.792 187.015 190.71 187.013C190.544 187.009 190.379 187.002 190.217 186.991C186.986 186.773 184.477 185.058 184.477 180.715C184.477 176.222 190.479 170.55 190.931 170.13L190.932 170.129C190.949 170.113 190.958 170.105 190.958 170.105C190.958 170.105 197.44 176.046 197.44 180.715Z" fill="#A7BF2F"/>
<path id="Path_37" fill-rule="evenodd" clip-rule="evenodd" d="M190.855 186.304L193.03 183.135L190.85 186.652L190.844 187.016C190.692 187.012 190.541 187.005 190.392 186.994L190.626 182.321L190.625 182.285L190.629 182.279L190.651 181.837L188.465 178.311L190.658 181.506L190.663 181.599L190.84 178.069L188.968 174.426L190.863 177.45L191.047 170.13L191.048 170.105V170.129L191.017 175.901L192.88 173.613L191.009 176.398L190.96 179.559L192.7 176.526L190.953 180.025L190.926 181.782L193.451 177.559L190.916 182.395L190.855 186.304Z" fill="#3F3D56"/>
<g id="like">
<rect id="Rectangle_3" x="158.549" y="95.4973" width="14.9575" height="11.9372" rx="1" fill="#FF4C66"/>
<path id="Rectangle_4" fill-rule="evenodd" clip-rule="evenodd" d="M168.171 106.52C168.569 106.912 168.569 107.553 168.171 107.945L167.087 109.012C166.698 109.395 166.073 109.395 165.684 109.012L164.6 107.945C164.203 107.553 164.203 106.912 164.6 106.52L165.684 105.453C166.073 105.07 166.698 105.07 167.087 105.453L168.171 106.52Z" fill="#FF4C66"/>
<path id="Path 21" fill-rule="evenodd" clip-rule="evenodd" d="M165.97 100.582C165.97 100.582 166.618 99.4763 167.783 99.4763C168.949 99.4763 169.726 100.429 169.467 101.593C169.208 102.334 165.97 104.45 165.97 104.45C165.97 104.45 162.861 102.311 162.602 101.593C162.343 100.875 162.861 99.4763 164.156 99.4763C165.452 99.4763 165.97 100.582 165.97 100.582Z" fill="white"/>
</g>
</g>
<defs>
<linearGradient id="paint0_linear" x1="0" y1="168.115" x2="0" y2="185.026" gradientUnits="userSpaceOnUse">
<stop stop-color="#F2F2F2"/>
<stop offset="1" stop-color="white"/>
</linearGradient>
<linearGradient id="paint1_linear" x1="196.442" y1="152.199" x2="196.442" y2="138.272" gradientUnits="userSpaceOnUse">
<stop stop-color="#808080" stop-opacity="0.25"/>
<stop offset="0.53514" stop-color="#808080" stop-opacity="0.12"/>
<stop offset="1" stop-color="#808080" stop-opacity="0.1"/>
</linearGradient>
</defs>
</svg>
