<svg xmlns="http://www.w3.org/2000/svg" width="172" height="168" viewBox="0 0 172 168">
    <g fill="none" fill-rule="evenodd">
        <path fill="#E0E5E8" d="M11 66h38a1 1 0 0 1 1 1v38a1 1 0 0 1-1 1H11a1 1 0 0 1-1-1V67a1 1 0 0 1 1-1zm0-56h38a1 1 0 0 1 1 1v38a1 1 0 0 1-1 1H11a1 1 0 0 1-1-1V11a1 1 0 0 1 1-1zm56 0h38a1 1 0 0 1 1 1v38a1 1 0 0 1-1 1H67a1 1 0 0 1-1-1V11a1 1 0 0 1 1-1zm0 56h38a1 1 0 0 1 1 1v38a1 1 0 0 1-1 1H67a1 1 0 0 1-1-1V67a1 1 0 0 1 1-1zm56-56h38a1 1 0 0 1 1 1v38a1 1 0 0 1-1 1h-38a1 1 0 0 1-1-1V11a1 1 0 0 1 1-1zm0 56h38a1 1 0 0 1 1 1v38a1 1 0 0 1-1 1h-38a1 1 0 0 1-1-1V67a1 1 0 0 1 1-1zM11 122h38a1 1 0 0 1 1 1v38a1 1 0 0 1-1 1H11a1 1 0 0 1-1-1v-38a1 1 0 0 1 1-1zm56 0h38a1 1 0 0 1 1 1v38a1 1 0 0 1-1 1H67a1 1 0 0 1-1-1v-38a1 1 0 0 1 1-1zm56 0h38a1 1 0 0 1 1 1v38a1 1 0 0 1-1 1h-38a1 1 0 0 1-1-1v-38a1 1 0 0 1 1-1z" opacity=".6"/>
        <g>
            <path fill="#858C8F" d="M147.784 53l-.784-.784L149.216 50l.784.784L147.784 53zm-3.568 0L142 50.784l.784-.784L145 52.216l-.784.784zm3.568 2L150 57.216l-.784.784L147 55.784l.784-.784zm-3.568 0l.784.784L142.784 58l-.784-.784L144.216 55z"/>
            <circle cx="156" cy="163" r="4" stroke="#858C8F" stroke-width="2"/>
            <circle cx="10" cy="12" r="4" stroke="#858C8F" stroke-width="2"/>
            <circle cx="23" cy="21" r="3" stroke="#858C8F" stroke-width="2"/>
            <path fill="#858C8F" d="M0 142v-2h15v2H0zm12 5v-2h12v2H12zm5-5v-2h6v2h-6zm-11 5v-2h5v2H6zM151 2V0h13v2h-13zm10 6V6h11v2h-11zm4-6V0h6v2h-6zm-10 6V6h4v2h-4z"/>
        </g>
        <path fill="#37CC9A" fill-rule="nonzero" d="M80.5 112.87l79.646-84.62a3.883 3.883 0 0 1 5.657-.054c1.576 1.615 1.599 4.258.05 5.903l-82.5 87.652a3.884 3.884 0 0 1-5.707 0l-37.5-39.842c-1.548-1.645-1.525-4.287.051-5.903a3.883 3.883 0 0 1 5.657.053L80.5 112.87z"/>
    </g>
</svg>
