<svg viewBox="0 0 653 394" fill="none" xmlns="http://www.w3.org/2000/svg"><path d="M236.676 251.255l-88.191 6.659 49.135-80.991 66.233 43.735-27.177 30.597z" fill="#1B1C29"/><path d="M250.173 126.528c-14.938 4.679-46.795 21.418-55.794 17.638-5.579-2.52-6.659-8.819-8.819-16.018-8.639 8.099-20.338 12.778-32.397 16.198 3.6 23.038 36.717 45.715 36.717 45.715s75.232-68.213 60.293-63.533z" fill="#6045AF"/><path d="M190.061 191.681l-.9-.54c-1.44-.9-33.477-23.217-37.257-46.615l-.18-1.26 1.08-.36c14.219-3.959 24.478-8.999 31.857-15.838l1.62-1.44.54 2.16c.36.9.54 1.98.9 2.879 1.62 5.76 2.879 10.439 7.199 12.239 5.579 2.52 23.038-4.859 37.076-10.619 6.66-2.88 13.139-5.579 17.818-7.019 1.8-.54 2.88-.36 3.42.72.9 1.44 2.16 3.779-30.237 35.096-15.658 15.119-31.857 29.877-32.037 30.057l-.899.54zm-35.277-46.435c3.96 19.798 29.877 39.416 35.097 43.016 27.897-25.198 57.234-53.815 60.653-60.474-4.499 1.44-10.799 4.139-17.458 6.839-15.838 6.659-32.397 13.499-39.056 10.619-5.399-2.34-7.019-8.099-8.819-14.039 0-.18-.18-.54-.18-.72-7.379 6.3-17.098 10.979-30.237 14.759z" fill="#6045AF"/><path d="M74.153 253.954c-.36 0-.54 0-.9-.359-.54-.54-.72-1.26-.18-1.98L262.774.72c.36-.54 1.26-.72 1.98-.18.539.54.72 1.26.18 1.98L75.233 253.415c-.18.36-.54.539-1.08.539z" fill="#1B1C29"/><path d="M53.275 101.69l-8.1 44.995L1.44 129.407l17.998-74.333c9.359 1.08 14.039 9.72 16.918 19.258.18.54.36 1.08.54 1.8.54 1.62.9 3.24 1.26 5.04.18.54.36 1.26.36 1.8.72 3.24 1.44 6.299 1.98 8.999 3.42 13.318 12.779 9.719 12.779 9.719z" fill="#fff"/><path d="M46.255 148.485L0 130.307l18.538-76.492 1.26.18c11.159 1.26 15.658 12.059 17.998 20.158.18.54.36 1.26.54 1.8.54 1.8.9 3.42 1.26 5.039.18.54.36 1.26.36 1.8.36 1.26.54 2.7.9 3.96.36 1.8.72 3.419 1.08 5.039 1.08 4.32 2.7 7.02 5.22 8.279 2.879 1.44 5.579.54 5.579.54l2.16-.9-8.64 48.775zM3.06 128.687l41.035 16.198 7.38-41.395c-1.44.18-3.6 0-5.76-1.08-3.06-1.62-5.4-5.04-6.479-10.08-.36-1.619-.72-3.239-1.08-5.039-.36-1.26-.54-2.52-.9-3.96-.18-.54-.18-1.26-.36-1.799-.36-1.62-.72-3.24-1.26-5.04-.18-.54-.36-1.08-.54-1.8-3.42-10.978-8.099-16.738-14.578-17.998L3.06 128.687z" fill="#1B1C29"/><path d="M196.54 170.263C142.906 152.625 46.256 95.391 46.256 95.391s-15.299 57.414-19.799 71.812c0 0 58.495 24.298 81.892 37.797 0 0 108.889-7.2 106.729-21.598-2.159-14.399-18.538-13.139-18.538-13.139zM38.696 82.972l-7.919 3.96c-1.08.54-1.98-1.08-.9-1.62l8.28-4.14c.18.54.36 1.26.54 1.8zM37.076 76.132l-8.28 4.14c-1.08.54-1.979-1.08-.9-1.62l8.64-4.32c.18.72.36 1.26.54 1.8z" fill="#1B1C29"/><path d="M239.915 266.913H86.571c-2.34 0-4.68-1.26-5.94-3.24l-20.157-32.576c-2.88-4.68.36-10.619 5.939-10.619h153.344c2.34 0 4.68 1.26 5.94 3.24l20.338 32.576c2.699 4.68-.72 10.619-6.12 10.619z" fill="#fff"/><path d="M239.915 268.353H86.571c-2.88 0-5.4-1.44-7.02-3.959l-20.337-32.577c-1.62-2.52-1.62-5.76-.18-8.279 1.44-2.7 4.14-4.32 7.2-4.32h153.344c2.879 0 5.399 1.44 7.019 3.96l20.338 32.576c1.62 2.52 1.62 5.76.18 8.28-1.44 2.519-4.14 4.319-7.2 4.319zM66.413 221.918c-1.98 0-3.78 1.08-4.86 2.88-1.08 1.799-.9 3.959.18 5.579l20.339 32.577c1.08 1.62 2.7 2.699 4.68 2.699h153.343c1.98 0 3.78-1.08 4.86-2.879 1.08-1.8.9-3.96-.18-5.58l-20.338-32.576c-1.08-1.62-2.7-2.7-4.679-2.7H66.413z" fill="#1B1C29"/><path d="M228.217 253.414h-77.932c-.72 0-1.44-.54-1.44-1.44 0-.899.54-1.439 1.44-1.439h77.932c.72 0 1.44.54 1.44 1.439 0 .9-.54 1.44-1.44 1.44zM221.918 237.036h-52.735c-.72 0-1.44-.539-1.44-1.439s.54-1.44 1.44-1.44h52.735c.72 0 1.44.54 1.44 1.44 0 .9-.72 1.439-1.44 1.439z" fill="#1B1C29"/><path d="M110.509 339.446l37.976-11.339 12.239 41.756-73.073 22.318c-3.78-8.64 1.26-16.919 7.92-24.298l1.26-1.26c1.26-1.26 2.34-2.52 3.599-3.599l1.26-1.26c2.34-2.16 4.679-4.32 6.659-6.3 10.079-9.719 2.16-16.018 2.16-16.018z" fill="#fff"/><path d="M86.931 393.801l-.54-1.08c-4.5-10.259 2.52-19.618 8.1-25.738.36-.54.9-.9 1.26-1.44 1.26-1.26 2.519-2.519 3.779-3.599.36-.36.9-.9 1.44-1.26.9-.9 1.98-1.8 2.879-2.7 1.26-1.26 2.52-2.34 3.78-3.6 3.06-3.059 4.68-5.939 4.5-8.639-.18-3.239-2.34-5.039-2.52-5.039l-1.98-1.62 41.576-12.419 13.139 44.456-75.413 22.678zm26.098-53.815c.899 1.26 1.799 3.06 1.799 5.399.18 3.6-1.619 7.2-5.399 10.799-1.26 1.08-2.52 2.34-3.78 3.6-.9.9-1.979 1.8-2.879 2.7-.54.36-.9.9-1.26 1.26-1.26 1.079-2.34 2.339-3.6 3.599l-1.26 1.26c-7.739 8.459-10.439 15.478-8.099 21.778l70.553-21.598-11.519-39.236-34.556 10.439z" fill="#1B1C29"/><path d="M101.87 361.403l7.379 4.68c.9.72.18 2.16-.9 1.62l-7.919-5.04c.54-.36 1.08-.72 1.44-1.26zM96.83 366.443l7.739 5.039c.9.54.18 2.16-.9 1.62l-8.099-5.219c.54-.54.9-1.08 1.26-1.44zM198.879 184.841c-8.639-3.419-17.998-5.219-26.997-7.739-54.534 2.34-103.49 10.259-101.33 59.214 2.7 58.134 26.818 118.968 26.818 118.968l64.073-16.738s-16.918-73.613-20.878-91.611l46.076-30.777 12.238-31.317z" fill="#1B1C29"/><path d="M139.126 246.215c-.54 0-1.08-.36-1.26-1.08l-2.7-11.159c-.18-.72.18-1.439.9-1.619.72-.18 1.44.18 1.62.899l2.7 11.159c.18.72-.18 1.44-.9 1.62 0 .18-.18.18-.36.18zM93.41 193.661c-.539 0-1.079-.36-1.259-.9-.36-.72 0-1.44.72-1.8 20.698-8.279 56.874-12.599 95.75 0 .72.18 1.08.9.9 1.62-.18.72-.9 1.079-1.62.899-38.156-12.238-73.612-8.099-93.95 0-.18.18-.36.181-.54.181zM181.062 96.11c-6.84 0-1.98 13.319-1.98 13.319s-.54.18-1.44.54c-1.98-4.319-5.759-9.899-10.979-10.079-3.599 0-4.139 5.04-4.139 5.04s-3.42.9-4.5 1.98c-2.7 2.699-3.06 7.019-3.06 7.019-5.039 1.8-6.299 10.619-1.619 28.977.359 1.62 1.079 3.24 1.619 5.039 11.519-3.599 22.318-8.459 32.217-15.118-.54-1.8-1.08-3.6-1.62-5.579 8.639-13.139.36-31.137-4.499-31.137z" fill="#fff"/><path d="M154.065 149.745l-.54-1.08c-.72-1.799-1.26-3.419-1.8-5.219-4.5-17.458-3.96-27.357 1.62-30.237.18-1.44 1.079-4.68 3.239-7.019.9-.9 3.06-1.62 4.32-1.98.54-2.34 1.98-5.4 5.399-5.4 4.32 0 7.559 3.06 9.899 6.66-.54-2.88-.9-6.66.72-8.82.54-.9 1.8-1.98 3.96-1.98s4.319 1.98 6.299 5.58c3.96 7.2 5.22 18.358-.36 27.357.36 1.08.54 1.98.9 2.88l.9 3.06-.9.54a128.667 128.667 0 01-32.577 15.298l-1.079.36zm12.238-48.235c-2.339 0-2.879 3.78-2.879 3.96l-.18.9-.9.18c-1.44.36-3.42 1.08-3.78 1.619-2.34 2.34-2.7 6.12-2.7 6.12v.9l-.9.36c-4.679 1.62-4.859 11.339-.719 27.357.359 1.08.719 2.34 1.079 3.6 10.799-3.42 20.878-8.1 29.877-14.039l-.36-1.08c-.36-1.08-.72-2.34-1.079-3.42l-.18-.539.36-.54c5.399-8.1 3.959-18.719.539-25.018-1.619-3.06-3.239-4.14-3.959-4.14-1.08 0-1.44.36-1.62.72-1.44 1.98-.18 7.74.9 10.799l.54 1.26-1.26.54s-.54.18-1.26.54l-1.26.54-.54-1.26c-1.62-4.319-5.039-9.179-9.719-9.359.18 0 .18 0 0 0z" fill="#1B1C29"/><path d="M160.724 116.088c-.9-.72-2.16.54-1.26 1.26 2.88 2.7 5.76 5.94 7.019 9.719.54 1.62 1.62 4.68-1.619 5.22-1.44.18-2.88-1.44-3.78-2.52-1.08-1.44-1.98-2.88-3.24-3.96-.9-.72-2.159.54-1.26 1.26 2.16 2.16 3.42 5.4 6.48 6.66 2.16.9 4.499.36 5.399-1.8 2.52-5.4-4.139-12.599-7.739-15.839z" fill="#1B1C29"/><path d="M176.023 110.149c-.72-.9-1.98.36-1.26 1.26 3.06 3.42 2.34 8.459-1.44 10.979-.72-4.68-5.039-9.719-7.559-12.599-.72-.9-1.98.36-1.26 1.26 2.88 3.24 10.799 12.239 5.04 16.199-.9.719 0 2.159.9 1.619 1.979-1.259 2.699-2.879 2.879-4.679.18.18.54.18.72 0 5.04-3.24 5.76-9.539 1.98-14.039zM152.084 150.645c-.36 0-.54 0-.9-.36-.54-.54-.72-1.26-.18-1.98l11.699-15.478c.36-.54 1.26-.72 1.98-.18.54.54.72 1.26.18 1.98l-11.699 15.478c-.18.36-.54.54-1.08.54zM194.921 164.504c-1.08 0-2.34 0-3.42-.18-.72 0-1.26-.72-1.26-1.44s.72-1.26 1.44-1.26c19.258 2.16 34.196-16.559 42.116-26.817.54-.54 1.26-.72 1.979-.18.54.54.72 1.259.18 1.979-7.919 9.899-22.137 27.898-41.035 27.898z" fill="#1B1C29"/><path d="M425.837 76.492c10.934 0 19.798-8.864 19.798-19.798 0-10.934-8.864-19.798-19.798-19.798-10.934 0-19.798 8.864-19.798 19.798 0 10.934 8.864 19.798 19.798 19.798z" fill="#fff"/><path d="M425.836 77.932c-11.698 0-21.057-9.539-21.057-21.058s9.539-21.058 21.057-21.058c11.699 0 21.058 9.54 21.058 21.058 0 11.52-9.359 21.058-21.058 21.058zm0-39.596c-10.079 0-18.358 8.28-18.358 18.358 0 10.08 8.279 18.358 18.358 18.358s18.359-8.279 18.359-18.358-8.1-18.358-18.359-18.358z" fill="#1B1C29"/><path d="M510.969 31.677h-86.391v16.559h86.391V31.677z" fill="#fff"/><path d="M512.229 49.495h-89.091V30.237h89.091v19.258zm-86.392-2.7h83.692V32.938h-83.692v13.858zM221.557 375.262c-.36 0-.72-.18-.9-.36l-18.538-18.538c-.54-.54-.54-1.44 0-1.98s1.44-.54 1.98 0l18.538 18.538c.54.54.54 1.44 0 1.98-.36.18-.72.36-1.08.36z" fill="#1B1C29"/><path d="M203.199 375.262c-.36 0-.72-.18-.9-.36a1.414 1.414 0 010-1.98l18.539-18.538c.54-.54 1.439-.54 1.979 0s.54 1.44 0 1.98l-18.538 18.538c-.54.18-.9.36-1.08.36zM221.557 335.306c-.18 0-.54 0-.72-.18-.54-.36-.72-1.26-.36-1.8l9.719-14.938c.36-.54 1.26-.72 1.8-.36s.72 1.26.36 1.8l-9.719 14.938c-.18.36-.72.54-1.08.54zM231.276 343.045c-.36 0-.72-.179-1.079-.539-.54-.54-.36-1.44.179-1.98l9.899-7.74c.54-.539 1.44-.36 1.98.18s.36 1.44-.18 1.98l-9.899 7.739c-.36.18-.72.36-.9.36zM93.41 106.37c-.36 0-.9-.18-1.08-.54l-7.019-9.72c-.36-.54-.36-1.44.36-1.8.54-.36 1.44-.36 1.8.36l7.02 9.72c.36.54.36 1.439-.36 1.799-.18.18-.36.181-.72.181zM93.41 71.273c-.54 0-1.08-.36-1.26-.9-.18-.72.18-1.44.9-1.8l17.279-6.119c.72-.18 1.439.18 1.799.9.18.72-.18 1.44-.9 1.8l-17.278 6.12c-.18-.18-.36 0-.54 0z" fill="#1B1C29"/><path d="M376.452 132.541l-14.496-8.369-8.369 14.496 14.496 8.369 8.369-14.496z" fill="#fff"/><path d="M368.602 148.845l-16.738-9.719 9.719-16.738 16.738 9.719-9.719 16.738zm-13.138-10.799l12.058 7.02 7.02-12.059-12.059-7.02-7.019 12.059z" fill="#1B1C29"/><path d="M412.878 255.934c13.916 0 25.198-11.281 25.198-25.197 0-13.916-11.282-25.198-25.198-25.198s-25.197 11.282-25.197 25.198 11.281 25.197 25.197 25.197z" fill="#fff"/><path d="M412.878 257.374a26.577 26.577 0 01-26.637-26.637 26.578 26.578 0 0126.637-26.638 26.578 26.578 0 0126.638 26.638 26.578 26.578 0 01-26.638 26.637zm0-50.395c-13.138 0-23.937 10.799-23.937 23.938 0 13.138 10.799 23.937 23.937 23.937 13.139 0 23.938-10.799 23.938-23.937 0-13.139-10.619-23.938-23.938-23.938z" fill="#1B1C29"/><path d="M508.809 309.569c0 22.677-18.358 41.036-41.036 41.036-22.677 0-41.036-15.299-41.036-41.036 0-22.678 18.359-41.036 41.036-41.036 22.678 0 41.036 18.358 41.036 41.036zM425.837 169.723c-3.24 16.018-23.398 45.895-55.614 47.155-34.377 1.44-56.875-13.139-71.993-28.437-11.519 20.698-40.316 50.935-40.316 50.935-15.118-21.778-75.052-76.133-75.052-76.133s32.036 1.8 46.795-21.237c12.599-19.439 39.956-22.858 60.654-10.979 1.8.9 3.239 1.979 4.679 3.059 30.237 16.739 57.235 37.436 69.293 30.597 12.599-7.019 33.477-21.418 44.276-31.857l.18-.18c.18 1.26.9 2.52 1.44 4.14 2.699 11.339 8.999 25.018 15.658 32.937z" fill="#6045AF"/><path d="M257.734 241.535l-.9-1.439c-14.939-21.418-74.333-75.233-74.872-75.773l-2.88-2.519 3.779.18c.36 0 31.317 1.439 45.536-20.518 12.419-19.258 39.956-24.298 62.453-11.519 1.62.9 3.24 1.98 4.68 3.06 7.199 3.959 14.039 8.099 20.698 12.238 20.698 12.419 38.696 23.218 47.155 18.358 12.959-7.379 33.477-21.597 43.916-31.676l.36-.36 1.979-1.44.18 2.52c0 .539.36 1.079.54 1.799.18.54.54 1.26.72 2.16 2.88 11.699 9.179 24.838 15.299 32.217l.36.54-.18.72c-3.06 15.658-23.398 46.795-56.875 48.235-28.077 1.26-51.654-7.739-71.812-27.717-12.059 20.518-39.416 49.495-39.596 49.675l-.54 1.259zm-71.453-76.852c11.519 10.619 57.054 52.555 71.633 72.533 5.399-5.759 28.977-31.497 39.056-49.495l.9-1.62 1.26 1.26c19.798 20.158 43.015 29.337 70.912 28.077 31.497-1.44 50.935-30.417 54.175-45.535-6.299-7.739-12.599-21.058-15.479-32.757-.18-.54-.359-1.26-.719-1.8 0 0-.001-.18-.18-.18-10.979 10.259-30.417 23.578-43.016 30.777-9.899 5.58-27.537-5.039-49.855-18.358-6.659-3.96-13.679-8.099-20.698-12.239l-.18-.18c-1.44-1.08-2.88-2.159-4.499-3.059-21.418-12.059-47.336-7.56-58.854 10.619-12.239 19.258-35.457 21.777-44.456 21.957z" fill="#6045AF"/><path d="M439.335 126.887c-1.08-.54-1.979 1.08-.9 1.62 3.6 1.98 4.32 6.479 1.08 9.359-.899.72.36 1.98 1.26 1.26 3.96-3.6 3.24-9.719-1.44-12.239z" fill="#1B1C29"/><path d="M447.255 124.008c-.72-.9-1.979.36-1.26 1.26 3.06 3.599 3.06 8.459.181 12.238-.72.9.539 2.16 1.259 1.26 3.6-4.499 3.6-10.259-.18-14.758z" fill="#FF3E6C"/><path d="M293.01 186.641c-.54 0-.9-.18-1.26-.72l-3.779-6.839c-.36-.72-.18-1.44.54-1.8.719-.36 1.439-.18 1.799.54l3.78 6.839c.36.72.18 1.44-.54 1.8 0 .18-.36.18-.54.18zM435.016 2.88H226.417c-.72 0-1.44-.54-1.44-1.44 0-.9.54-1.44 1.44-1.44h208.599c.72 0 1.44.54 1.44 1.44 0 .9-.72 1.44-1.44 1.44z" fill="#1B1C29"/><path d="M234.877 240.815c-.36 0-.54 0-.9-.36-.54-.539-.72-1.259-.18-1.979L413.598.72c.36-.54 1.26-.72 1.98-.18.54.54.72 1.26.18 1.98L235.956 240.455c-.18.18-.719.36-1.079.36zM278.252 79.732c-5.219 1.98-11.519 4.86-17.278 3.06-5.22-1.62-7.559-6.48-11.159-10.44-5.579-6.299-13.319-10.079-21.598-10.799-18.178-1.44-30.777 13.86-23.397 31.137 6.659 15.299 22.677 25.198 38.876 26.998 15.658 1.799 36.896-4.68 39.956-22.318.18-1.44 0-2.88-.36-4.32 7.019-4.14 3.239-16.378-5.04-13.318z" fill="#1B1C29"/><path d="M293.73 72.173c-12.598-2.52-25.197 6.84-28.077 21.058v.18c-1.26-.18-2.519-.18-3.779-.18-7.74.72-10.979 7.379-7.92 12.779 2.7 4.679 8.82 8.459 15.299 6.839 3.24 5.039 8.279 8.999 14.218 10.619 17.639 5.039 25.198-6.84 28.078-21.058 2.879-14.219-5.22-27.717-17.819-30.237z" fill="#fff"/><path d="M291.21 125.807c-2.519 0-5.219-.36-8.099-1.26-5.759-1.619-10.799-5.399-14.398-10.438-7.02 1.259-13.139-3.06-15.839-7.74-1.62-2.879-1.8-6.299-.36-9.179 1.62-3.24 5.04-5.22 9.359-5.58h2.88c3.42-14.398 16.378-23.577 29.337-21.057 6.479 1.26 12.059 5.4 15.658 11.339 3.6 5.94 4.68 13.139 3.24 20.338-1.98 10.259-5.939 17.098-11.879 20.698-2.879 2.159-6.299 2.879-9.899 2.879zm-21.237-14.578l.539.72c3.24 4.859 7.92 8.459 13.319 10.079 6.299 1.8 11.519 1.44 15.838-1.08 5.22-3.06 8.64-9.539 10.619-18.898 1.26-6.48.18-13.139-2.879-18.538-3.24-5.4-8.1-9-13.859-10.08-11.879-2.34-23.757 6.66-26.457 19.979l-.18 1.26h-1.26c-1.26-.18-2.34-.18-3.42-.18-3.239.36-5.939 1.8-7.199 4.14-1.08 1.979-.9 4.319.18 6.478 2.34 3.96 7.739 7.74 13.859 6.12h.9z" fill="#1B1C29"/><path d="M308.489 82.791c14.038-4.14 1.08-18.538-14.759-10.619-12.599-2.52-25.197 6.84-28.077 21.058 0 .18 0 .54-.18.72 1.98 0 9.359.72 16.378-4.68 9.719-.72 22.858-7.199 26.638-6.479zM294.909 99.721a1.8 1.8 0 10-2.984-2.012 1.8 1.8 0 002.984 2.012zM304.709 108.889c.18-3.96 0-8.099-.9-11.879-.18-1.08-1.98-.72-1.8.36.9 3.78 1.26 7.559.9 11.519-.18.9 1.62 1.08 1.8 0zM269.794 103.49c-2.16-3.78-6.48-5.58-10.439-4.32-1.08.36-.72 2.16.36 1.8 3.239-.9 6.839.36 8.639 3.419.36.9 1.98 0 1.44-.899zM194.921 164.503c-1.08 0-2.34 0-3.42-.18-.72 0-1.26-.72-1.26-1.44s.72-1.26 1.44-1.26c19.258 2.16 34.197-16.558 42.116-26.817.54-.54 1.26-.72 1.98-.18.54.54.72 1.26.18 1.98-7.919 9.899-22.138 27.897-41.036 27.897z" fill="#1B1C29"/><path d="M456.433 116.268c0-4.499-21.417-7.379-37.076 5.76-5.219 4.499-10.259 9.539-15.478 14.578 3.42 8.639 15.118 30.417 18.358 32.937 2.88-7.2 7.559-14.399 9.719-16.739 1.44-1.439 5.219-4.679 10.439-7.919 1.62 2.88 16.558-6.659 13.499-14.578-.9-2.34-3.24-7.02-4.14-8.279 2.7-.9 4.679-2.52 4.679-5.76z" fill="#fff"/><path d="M422.777 171.882l-1.44-1.079c-3.599-2.88-15.478-25.198-18.718-33.477l-.36-.9 2.88-2.88c4.32-4.319 8.819-8.639 13.319-12.418 13.498-11.339 30.597-10.979 36.356-8.28 2.52 1.08 2.88 2.52 2.88 3.6 0 3.06-1.44 5.22-4.32 6.479 1.08 1.98 2.7 5.22 3.42 7.2 2.519 6.479-4.5 13.318-9.899 15.838-2.34 1.08-3.96 1.08-4.86.72-5.039 3.24-8.279 6.119-9.359 7.199-1.8 1.98-6.659 8.819-9.359 16.199l-.54 1.799zm-17.458-34.736c3.42 8.279 12.419 24.837 16.378 30.057 2.88-6.479 7.02-12.779 9.179-15.119 1.62-1.799 5.58-5.039 10.619-8.099l1.26-.72.54 1.08c.9.18 4.86-1.44 8.099-4.859 1.62-1.8 4.32-5.22 3.06-8.459-.9-2.34-3.24-6.84-3.96-8.1l-.9-1.439 1.62-.54c2.7-.9 3.96-2.16 3.96-4.5 0 0-.18-.54-1.44-1.08-5.579-2.52-21.598-2.16-33.477 7.919-4.499 3.78-8.639 7.92-13.138 12.239l-1.8 1.62z" fill="#1B1C29"/><path d="M450.855 129.227c-2.7 1.98-6.479 3.959-8.999 6.479h-.18c-4.68-1.8-2.7-6.479.18-8.819 2.16-1.8 4.679-3.24 7.379-3.96 1.08-.36.54-2.159-.54-1.799-4.14 1.259-9.359 3.959-11.159 8.099-1.44 3.239.18 6.479 3.06 7.919-2.16 3.06-1.8 4.319.36 6.839.72.9 1.98-.36 1.26-1.26-1.62-1.979-1.62-3.059.54-5.219.72-.9 1.8-1.44 2.699-2.16 1.98-1.44 4.14-3.06 6.3-4.499.9-.72 0-2.34-.9-1.62z" fill="#1B1C29"/><path d="M461.834 126.707h-.36l-52.375-12.059c-.72-.18-1.26-.9-1.08-1.619.18-.72.9-1.26 1.62-1.08l52.375 12.058c.72.18 1.26.9 1.08 1.62 0 .72-.54 1.08-1.26 1.08z" fill="#1B1C29"/><path d="M417.198 131.387c8.099-11.519 16.918-16.738 24.477-15.299 7.559 1.44-7.559 9.899-7.559 9.899s-.54 12.599-3.06 16.019c-2.34 3.419-13.858-10.619-13.858-10.619z" fill="#fff"/><path d="M443.475 116.268c-2.34-4.319-9.359-.9-12.239.54-5.759 2.7-10.439 6.84-14.218 11.699-.72.9.9 1.8 1.62.9 3.599-4.68 8.279-8.639 13.678-11.159 1.26-.54 2.88-1.44 4.32-1.62 5.579-1.26 6.119 2.16 3.599 4.5-2.159 2.16-5.039 3.599-7.739 4.859-.36.18-.54.72-.36 1.08 1.44 4.5 1.08 8.819-1.26 12.959a.927.927 0 001.62.9c1.44-2.7 2.52-5.4 2.52-8.459 0-1.08-.54-2.7-.36-3.78.18-1.98.9-1.8 2.52-2.88 2.519-1.62 8.459-5.579 6.299-9.539z" fill="#1B1C29"/><path d="M648.834 257.733H437.535l-56.334-57.774-17.638-17.998h211.298l17.639 17.998 56.334 57.774z" fill="#fff"/><path d="M652.074 258.993H436.996l-76.672-78.292h215.078l76.672 78.292zm-213.818-2.699h207.519l-71.453-73.073H366.803l71.453 73.073z" fill="#1B1C29"/><path d="M462.013 215.258h-47.335l-12.599-12.959-3.959-4.139h47.335l3.96 4.139 12.598 12.959zM557.044 244.415h-75.052l-8.819-8.999-2.7-2.88h75.052l2.7 2.88 8.819 8.999zM588.181 244.415h-23.218l-8.639-8.999-2.88-2.88h23.218l2.7 2.88 8.819 8.999zM592.5 226.957h-23.038l-8.819-9-2.699-2.699h23.037l2.88 2.699 8.639 9zM620.217 244.415h-23.038l-8.819-8.999-2.88-2.88h23.218l2.7 2.88 8.819 8.999z" fill="#65A300"/><path d="M462.013 115.729h-.54c-.72-.18-1.08-1.08-.72-1.8l6.839-18.359c.18-.72 1.08-1.08 1.8-.72.72.18 1.08 1.08.72 1.8l-6.839 18.359c-.18.539-.72.72-1.26.72zM470.472 120.587c-.36 0-.54-.179-.9-.359-.539-.54-.72-1.26-.18-1.98l7.38-9.719c.54-.54 1.26-.72 1.979-.18.72.54.72 1.26.18 1.98l-7.379 9.718c-.36.36-.72.54-1.08.54z" fill="#1B1C29"/><path d="M639.115 202.119H495.129l-38.336-39.236-12.059-12.239H588.72l12.059 12.239 38.336 39.236z" fill="#fff"/><path d="M642.354 203.559H494.589l-53.094-54.354H589.26l53.094 54.354zm-146.685-2.7h140.206l-47.695-48.955H447.974l47.695 48.955z" fill="#1B1C29"/><path d="M608.158 194.2h-47.335l-12.599-12.958-3.959-3.96H591.6l3.959 3.96 12.599 12.958z" fill="#65A300"/><path d="M600.779 162.883H456.793l-12.059-12.239H588.72l12.059 12.239z" fill="#fff"/><path d="M603.839 164.143H456.254l-14.578-14.939h147.765l14.398 14.939zm-146.505-2.7H597.54l-9.359-9.539H447.975l9.359 9.539zM532.566 143.805h-7.2c-2.159 0-3.779-1.799-3.779-3.779 0-2.16 1.8-3.78 3.779-3.78h7.2c2.159 0 3.779 1.8 3.779 3.78.18 1.98-1.62 3.779-3.779 3.779zM547.504 143.805h-1.439c-2.16 0-3.78-1.799-3.78-3.779 0-2.16 1.8-3.78 3.78-3.78h1.439c2.16 0 3.78 1.8 3.78 3.78 0 1.98-1.62 3.779-3.78 3.779zM571.262 141.285h-13.319c-.72 0-1.44-.54-1.44-1.439 0-.9.54-1.44 1.44-1.44h13.319c.72 0 1.44.54 1.44 1.44 0 .899-.72 1.439-1.44 1.439z" fill="#1B1C29"/><path d="M622.916 172.602H505.568l-35.276-36.536c-.54-.54-.54-1.44 0-1.98s1.44-.54 1.98 0l34.376 35.817h109.789l-32.397-34.017-8.999-9.359H462.013c-.72 0-1.44-.54-1.44-1.44 0-.9.54-1.44 1.44-1.44h114.108l9.899 10.079 36.896 38.876z" fill="#1B1C29"/><path d="M575.221 158.024h-73.252c-.72 0-1.44-.54-1.44-1.44 0-.9.54-1.44 1.44-1.44h73.252c.72 0 1.44.54 1.44 1.44 0 .9-.72 1.44-1.44 1.44z" fill="#1B1C29"/></svg>