<svg width="131" height="262" fill="none" xmlns="http://www.w3.org/2000/svg"><path d="M173.5 27C237.841 27 290 79.159 290 143.5c0 64.341-52.159 116.5-116.5 116.5C109.159 260 57 207.841 57 143.5 57 79.159 109.159 27 173.5 27z" fill="#65A300" stroke="#65A300" stroke-width="4"/><mask id="a" fill="#fff"><path d="M118.5 0c-15.562 0-30.97 3.078-45.348 9.058a118.469 118.469 0 00-38.444 25.796A119.034 119.034 0 009.02 73.461 119.437 119.437 0 000 119h118.5V0z"/></mask><path d="M118.5 0c-15.562 0-30.97 3.078-45.348 9.058a118.469 118.469 0 00-38.444 25.796A119.034 119.034 0 009.02 73.461 119.437 119.437 0 000 119h118.5V0z" fill="#F2F2F3" stroke="#65A300" stroke-width="8" mask="url(#a)"/></svg>