<svg width="160" height="44" viewBox="0 0 160 44" fill="none" xmlns="http://www.w3.org/2000/svg">
<mask id="mask0" mask-type="alpha" maskUnits="userSpaceOnUse" x="132" y="0" width="29" height="30">
<path d="M132.618 0H160V29.4957H132.618V0Z" fill="white"/>
</mask>
<g mask="url(#mask0)">
<path fill-rule="evenodd" clip-rule="evenodd" d="M150.927 29.4957H159.972C159.987 29.1127 160 28.7298 160 28.3429C160 12.7249 147.72 0.0178743 132.618 -0.000549316V9.3422C142.752 9.34878 150.965 17.8638 150.965 28.3435C150.965 28.7304 150.949 29.114 150.927 29.4957Z" fill="#65A300"/>
</g>
<mask id="mask1" mask-type="alpha" maskUnits="userSpaceOnUse" x="0" y="19" width="18" height="25">
<path d="M0 19.3419H17.5711V43.6228H0V19.3419Z" fill="white"/>
</mask>
<g mask="url(#mask1)">
<path fill-rule="evenodd" clip-rule="evenodd" d="M12.5389 24.1601C11.5978 23.0742 10.3526 22.5312 8.802 22.5312C7.20771 22.5312 5.92329 23.0682 4.94936 24.1428C3.97479 25.2174 3.4875 26.612 3.4875 28.3272C3.4875 30.1107 3.97479 31.5165 4.94936 32.5453C5.92329 33.5742 7.24114 34.0886 8.90164 34.0886C10.4516 34.0886 11.6807 33.5569 12.5884 32.4942C13.4968 31.4309 13.9506 30.0529 13.9506 28.3617C13.9506 26.6465 13.4801 25.246 12.5389 24.1601ZM0 19.6844H3.58714V21.9823C3.6315 21.9139 3.7035 21.817 3.80314 21.6909C3.90279 21.5654 4.12457 21.3537 4.46721 21.0563C4.81114 20.759 5.18721 20.4961 5.59671 20.2678C6.00621 20.0395 6.56036 19.8277 7.25786 19.6332C7.95536 19.4388 8.6805 19.3419 9.43329 19.3419C11.8247 19.3419 13.779 20.1589 15.2961 21.7938C16.8126 23.4286 17.5712 25.5838 17.5712 28.2581C17.5712 31.0705 16.8126 33.2768 15.2961 34.8771C13.779 36.4781 11.7804 37.2779 9.30021 37.2779C8.54743 37.2779 7.839 37.1863 7.17429 37.0038C6.51021 36.8206 5.96764 36.5982 5.54721 36.3347C5.12614 36.0719 4.761 35.815 4.4505 35.5634C4.14129 35.3119 3.9195 35.0948 3.78643 34.9116L3.58714 34.6375V43.6228H0V19.6844Z" fill="black"/>
</g>
<path fill-rule="evenodd" clip-rule="evenodd" d="M24.8359 32.3291C25.7465 33.3606 26.9513 33.8761 28.4515 33.8761C30.0369 33.8761 31.2958 33.3823 32.2275 32.3954C33.1599 31.4071 33.6258 30.0576 33.6258 28.3456C33.6258 26.6998 33.1431 25.372 32.1796 24.3621C31.2156 23.3529 29.9617 22.8483 28.4198 22.8483C26.8978 22.8483 25.693 23.3529 24.8036 24.3621C23.9154 25.372 23.4707 26.6998 23.4707 28.3456C23.4707 29.9697 23.9253 31.2975 24.8359 32.3291ZM37 36.6745H33.5293V34.403C33.4864 34.4687 33.4224 34.5623 33.3365 34.6827C33.2501 34.8038 33.0467 35.0064 32.7257 35.2919C32.4042 35.5773 32.0559 35.8296 31.6814 36.0488C31.3064 36.2686 30.792 36.4712 30.1383 36.6579C29.4852 36.8446 28.7942 36.9376 28.0659 36.9376C25.7092 36.9376 23.7754 36.203 22.2653 34.7318C20.7545 33.2619 20 31.1548 20 28.4119C20 25.8218 20.7706 23.7371 22.3131 22.1569C23.8563 20.5762 25.7521 19.7861 28.0018 19.7861C29.1581 19.7861 30.1974 19.9894 31.1192 20.3952C32.0403 20.8011 32.6723 21.2019 33.015 21.5969L33.5293 22.1894V20.0824H37V36.6745Z" fill="black"/>
<path fill-rule="evenodd" clip-rule="evenodd" d="M44.8364 32.4336C45.7469 33.4578 46.9516 33.9703 48.4512 33.9703C50.0154 33.9703 51.2687 33.4689 52.2109 32.4676C53.1538 31.4656 53.6253 30.1316 53.6253 28.4655C53.6253 26.8223 53.1432 25.4883 52.1798 24.4634C51.2152 23.4392 49.9619 22.9274 48.4195 22.9274C46.8981 22.9274 45.6934 23.4392 44.804 24.4634C43.9152 25.4883 43.4705 26.8223 43.4705 28.4655C43.4705 30.0865 43.9258 31.4094 44.8364 32.4336ZM57 35.3886C57 41.13 54.236 44 48.7087 44C47.8298 44 46.9784 43.8993 46.1537 43.6961C45.3289 43.4935 44.6386 43.2575 44.0813 42.9869C43.5246 42.717 43.0314 42.4411 42.6029 42.1594C42.1744 41.8784 41.8528 41.6365 41.6389 41.4339L41.3497 41.13L43.0849 38.4279L43.3256 38.6815C43.4226 38.7828 43.6472 38.9685 44.0004 39.2384C44.3543 39.509 44.7294 39.7508 45.1256 39.9646C45.5224 40.1783 46.0305 40.3698 46.6518 40.5385C47.2732 40.7077 47.9057 40.7921 48.5482 40.7921C50.3046 40.7921 51.574 40.3809 52.3565 39.5593C53.1383 38.7377 53.5295 37.5501 53.5295 35.9965V34.5441C53.4859 34.6121 53.4219 34.7016 53.336 34.8147C53.2502 34.9271 53.0468 35.135 52.7259 35.4396C52.4043 35.7429 52.056 36.0076 51.681 36.2324C51.306 36.4579 50.7922 36.6605 50.1385 36.8409C49.4855 37.0207 48.7945 37.1109 48.0656 37.1109C45.709 37.1109 43.7759 36.3684 42.2652 34.882C40.7551 33.3964 40 31.2682 40 28.4988C40 25.9105 40.7712 23.8111 42.3137 22.2012C43.8561 20.5914 45.7525 19.7861 48.0015 19.7861C49.1583 19.7861 50.1976 19.9946 51.1194 20.411C52.0399 20.8273 52.6724 21.2384 53.0145 21.6437L53.5295 22.2515V20.056H57V35.3886Z" fill="black"/>
<path fill-rule="evenodd" clip-rule="evenodd" d="M64.8363 32.3291C65.7469 33.3606 66.9516 33.8761 68.4512 33.8761C70.0366 33.8761 71.2954 33.3823 72.2277 32.3954C73.1594 31.4071 73.6253 30.0576 73.6253 28.3456C73.6253 26.6998 73.1426 25.372 72.1792 24.3621C71.2152 23.3529 69.9619 22.8483 68.4195 22.8483C66.8981 22.8483 65.6934 23.3529 64.804 24.3621C63.9152 25.372 63.4705 26.6998 63.4705 28.3456C63.4705 29.9697 63.9258 31.2975 64.8363 32.3291ZM77 36.6745H73.5288V34.403C73.4859 34.4687 73.4219 34.5623 73.336 34.6827C73.2502 34.8038 73.0468 35.0064 72.7259 35.2919C72.4043 35.5773 72.0554 35.8296 71.681 36.0488C71.306 36.2686 70.7916 36.4712 70.1385 36.6579C69.4855 36.8446 68.7939 36.9376 68.0656 36.9376C65.709 36.9376 63.7759 36.203 62.2652 34.7324C60.7551 33.2619 60 31.1548 60 28.4119C60 25.8218 60.7712 23.7371 62.3131 22.1569C63.8561 20.5768 65.7525 19.7861 68.0015 19.7861C69.1583 19.7861 70.1976 19.9894 71.1188 20.3952C72.0399 20.8017 72.6724 21.2019 73.0145 21.5969L73.5288 22.1894V20.0824H77V36.6745Z" fill="black"/>
<path fill-rule="evenodd" clip-rule="evenodd" d="M88.6885 23.706C87.1423 23.5721 85.931 23.9349 85.0534 24.7917C84.1771 25.6492 83.7383 26.8249 83.7383 28.3168V36.9376H80V20.0639H83.7383V23.1046C83.7617 23.016 83.814 22.8931 83.8944 22.7372C83.9748 22.5814 84.1597 22.3027 84.4477 21.9017C84.7365 21.5008 85.0594 21.1555 85.4172 20.8658C85.7749 20.5767 86.2767 20.3148 86.9225 20.0807C87.569 19.8472 88.2611 19.7522 89 19.7968L88.6885 23.706Z" fill="black"/>
<path fill-rule="evenodd" clip-rule="evenodd" d="M89.8715 31.7583C90.4521 31.1751 91.1613 30.8841 92.0003 30.8841C92.8387 30.8841 93.5485 31.1751 94.1291 31.7583C94.7097 32.3415 95 33.0588 95 33.9109C95 34.7629 94.7097 35.4802 94.1291 36.0634C93.5485 36.646 92.8387 36.9376 92.0003 36.9376C91.1613 36.9376 90.4521 36.646 89.8715 36.0634C89.2903 35.4802 89 34.7629 89 33.9109C89 33.0588 89.2903 32.3415 89.8715 31.7583Z" fill="black"/>
<path fill-rule="evenodd" clip-rule="evenodd" d="M98 20.0487H103.095V22.2503C103.14 22.1842 103.196 22.0971 103.263 21.987C103.33 21.8777 103.492 21.6805 103.749 21.3963C104.006 21.1114 104.29 20.8589 104.604 20.6401C104.916 20.4208 105.341 20.2236 105.877 20.0487C106.414 19.8739 106.983 19.7861 107.587 19.7861C108.212 19.7861 108.782 19.8681 109.296 20.0322C109.81 20.1963 110.218 20.3934 110.52 20.6236C110.821 20.8538 111.072 21.0783 111.274 21.2971C111.475 21.5165 111.62 21.7136 111.71 21.8891L111.81 22.1187C111.855 22.0532 111.916 21.9705 111.994 21.8726C112.073 21.7734 112.258 21.5877 112.548 21.3136C112.838 21.0401 113.151 20.7991 113.486 20.5912C113.822 20.3826 114.268 20.1963 114.827 20.0322C115.386 19.8681 115.967 19.7861 116.57 19.7861C120.19 19.7861 122 21.8338 122 25.9304V36.9376H116.905V26.5873C116.905 24.857 116.257 23.9915 114.962 23.9915C113.352 23.9915 112.548 25.1419 112.548 27.4414V36.9376H107.452V26.5873C107.452 24.857 106.804 23.9915 105.508 23.9915C103.9 23.9915 103.095 25.1419 103.095 27.4414V36.9376H98V20.0487Z" fill="black"/>
<path fill-rule="evenodd" clip-rule="evenodd" d="M136.637 26.0415C136.615 25.9508 136.592 25.8437 136.569 25.7189C136.547 25.5947 136.453 25.3569 136.285 25.0061C136.117 24.6553 135.911 24.3498 135.665 24.0896C135.419 23.8294 135.061 23.5916 134.593 23.3768C134.123 23.1619 133.586 23.0542 132.983 23.0542C132.38 23.0542 131.843 23.156 131.374 23.3597C130.905 23.5633 130.547 23.8123 130.301 24.1067C130.055 24.401 129.855 24.6953 129.699 24.989C129.542 25.2833 129.453 25.5323 129.431 25.736L129.363 26.0415H136.637ZM141.061 33.8833C140.994 33.9733 140.899 34.0863 140.776 34.2223C140.653 34.3583 140.363 34.6014 139.905 34.9522C139.447 35.303 138.955 35.6138 138.431 35.8858C137.905 36.1571 137.206 36.4009 136.335 36.6157C135.463 36.8305 134.547 36.9376 133.586 36.9376C130.525 36.9376 128.162 36.1289 126.497 34.5107C124.832 32.8926 124 30.6693 124 27.8403C124 25.1703 124.849 22.9918 126.548 21.3059C128.245 19.6201 130.391 18.7772 132.983 18.7772C135.799 18.7772 138.005 19.6595 139.603 21.4248C141.201 23.1902 142 25.623 142 28.7233V29.6056H129.329C129.329 29.6963 129.346 29.8093 129.379 29.9453C129.413 30.0806 129.519 30.3185 129.699 30.6581C129.877 30.9971 130.107 31.3026 130.386 31.5746C130.665 31.846 131.089 32.0897 131.659 32.3045C132.229 32.5194 132.894 32.6265 133.653 32.6265C134.502 32.6265 135.319 32.4629 136.1 32.1344C136.883 31.8066 137.452 31.4728 137.81 31.1331L138.313 30.624L141.061 33.8833Z" fill="black"/>
</svg>
