<svg xmlns="http://www.w3.org/2000/svg" width="343" height="125" viewBox="0 0 343 125">
    <g fill="none" fill-rule="evenodd" transform="translate(-7 -3)">
        <g fill="#D9E4EA" opacity=".509" transform="translate(15 3)">
            <rect width="67" height="13" x="10" y="100" rx="6.5"/>
            <rect width="116" height="13" x="80" rx="6.5"/>
            <rect width="306" height="18" y="20" rx="8"/>
            <rect width="168" height="18" x="167" y="50" rx="8"/>
            <rect width="106" height="18" x="187" y="100" rx="8"/>
            <rect width="222" height="13" x="23" y="73" rx="6.5"/>
        </g>
        <g transform="translate(52 7)">
            <path fill="#858C8F" d="M218.784 26l-.784-.784L220.216 23l.784.784L218.784 26zm-3.568 0L213 23.784l.784-.784L216 25.216l-.784.784zm3.568 2L221 30.216l-.784.784L218 28.784l.784-.784zm-3.568 0l.784.784L213.784 31l-.784-.784L215.216 28z"/>
            <circle cx="4" cy="14" r="4" stroke="#858C8F" stroke-width="2"/>
            <circle cx="84" cy="17" r="4" stroke="#858C8F" stroke-width="2" opacity=".5"/>
            <circle cx="184" cy="4" r="4" stroke="#858C8F" stroke-width="2"/>
            <circle cx="252" cy="43" r="4" stroke="#858C8F" stroke-width="2"/>
        </g>
        <g fill-rule="nonzero">
            <path fill="#FFF" d="M124.292 59.13c1.756 1.098 2.279 3.43 1.166 5.21l-16.11 25.781c-1.111 1.78-3.437 2.333-5.193 1.236L59.632 63.536c-1.756-1.098-2.278-3.43-1.166-5.21l16.11-25.78c1.112-1.78 3.437-2.333 5.193-1.236l44.523 27.82z"/>
            <path stroke="#37CC9A" d="M124.292 59.13c1.756 1.098 2.279 3.43 1.166 5.21l-16.11 25.781c-1.111 1.78-3.437 2.333-5.193 1.236L59.632 63.536c-1.756-1.098-2.278-3.43-1.166-5.21l16.11-25.78c1.112-1.78 3.437-2.333 5.193-1.236l44.523 27.82z"/>
            <path fill="#37CC9A" d="M113.286 65.53c1.73 1.08 2.262 3.349 1.189 5.066l-4.319 6.911c-1.073 1.717-3.345 2.233-5.074 1.153a7.75 7.75 0 0 0-.835-.46 3.684 3.684 0 0 1-4.806.778l-27.4-17.121a3.684 3.684 0 0 1-1.384-4.708c-1.748-1.093-2.28-3.36-1.207-5.078l4.318-6.911c1.073-1.718 3.345-2.234 5.075-1.153A3.722 3.722 0 0 1 83.7 43.2l27.4 17.12a3.684 3.684 0 0 1 1.407 4.661c.178.146.437.335.78.549z"/>
            <path stroke="#37CC9A" d="M89.313 65.574a5 5 0 1 1 5.298-8.48 5 5 0 0 1-5.298 8.48z"/>
            <g>
                <path fill="#FFF" d="M125.109 60.078c1.412 1.515 1.313 3.903-.222 5.334l-22.233 20.733c-1.535 1.431-3.924 1.364-5.337-.151L61.512 47.598c-1.412-1.515-1.313-3.903.222-5.334L83.967 21.53c1.535-1.431 3.924-1.364 5.337.151l35.805 38.396z"/>
                <path stroke="#37CC9A" d="M125.109 60.078c1.412 1.515 1.313 3.903-.222 5.334l-22.233 20.733c-1.535 1.431-3.924 1.364-5.337-.151L61.512 47.598c-1.412-1.515-1.313-3.903.222-5.334L83.967 21.53c1.535-1.431 3.924-1.364 5.337.151l35.805 38.396z"/>
                <path fill="#37CC9A" d="M112.822 63.41c1.39 1.492 1.318 3.82-.163 5.202l-5.96 5.557c-1.481 1.381-3.81 1.292-5.2-.2a7.75 7.75 0 0 0-.687-.66 3.684 3.684 0 0 1-4.844-.492l-22.034-23.63a3.684 3.684 0 0 1-.12-4.905c-1.406-1.508-1.332-3.837.149-5.218l5.96-5.557c1.48-1.382 3.809-1.292 5.2.2a3.722 3.722 0 0 1 4.9.477l22.035 23.629a3.684 3.684 0 0 1 .153 4.866c.135.187.335.436.611.731z"/>
                <path stroke="#37CC9A" d="M89.654 57.248a5 5 0 1 1 7.313-6.82 5 5 0 0 1-7.313 6.82z"/>
            </g>
            <g>
                <path fill="#FFF" stroke="#37CC9A" d="M125.707 60.15c.973 1.829.259 4.11-1.594 5.095L97.27 79.517c-1.853.985-4.143.302-5.116-1.527L67.508 31.635c-.972-1.828-.258-4.11 1.595-5.095l26.841-14.272c1.854-.985 4.144-.301 5.116 1.527l24.647 46.355z"/>
                <path fill="#37CC9A" stroke="#37CC9A" d="M112.977 60.189c.957 1.8.284 4.03-1.504 4.981l-7.196 3.826c-1.788.951-4.013.262-4.97-1.538a7.75 7.75 0 0 0-.493-.817 3.684 3.684 0 0 1-4.552-1.729L79.095 36.386a3.684 3.684 0 0 1 1.154-4.77c-.968-1.82-.294-4.05 1.494-5.001l7.195-3.826c1.788-.95 4.014-.262 4.971 1.539a3.722 3.722 0 0 1 4.61 1.73l15.168 28.526a3.684 3.684 0 0 1-1.111 4.74c.082.216.211.508.4.865z"/>
                <path fill="#FFF" d="M92.193 48.24a5 5 0 1 1 8.829-4.695 5 5 0 0 1-8.829 4.695z"/>
            </g>
        </g>
        <g stroke="#8459B9">
            <path fill="#FFF" d="M100.925 118H84c.627 4.2 2.194 6.9 4.701 8.1 2.508 1.2 61.747 1.2 177.717 0 4.388-1.2 6.582-3.9 6.582-8.1h-20.687"/>
            <path fill="#FFF" d="M100.5 38.5h161v80h-161z"/>
            <path fill="#EBF1F4" d="M106.5 43.5h149v70h-149z" opacity=".8"/>
            <path d="M159 119c.667 2 1.667 3 3 3h40c2-.667 3-1.667 3-3h-46z"/>
        </g>
        <g fill="#B7C7CF" fill-rule="nonzero">
            <path d="M202.94 103.268l2.828-2.829 4.242 4.243-2.828 2.828z"/>
            <path d="M202.06 105.56l-2.303-8.303 8.304 2.304z"/>
        </g>
        <rect width="24" height="6" x="169" y="98" fill="#8459B9" fill-rule="nonzero" rx="3"/>
        <g fill="#B7C7CF" transform="translate(161 75)">
            <rect width="27" height="5" y="9" rx="2.5"/>
            <rect width="39" height="5" rx="2.5"/>
            <rect width="10" height="5" x="29" y="9" rx="2.5"/>
        </g>
        <path fill="#FFF" fill-rule="nonzero" d="M167.683 32.756h25.366l7.61 11.415-20.293 24.097-20.293-24.097z" opacity=".896"/>
        <path fill="#37CC9A" d="M166.812 34.8c-1.79 3.292-3.41 6.266-5.108 9.384h10.659c-1.881-3.18-3.621-6.124-5.55-9.383zm33.377 9.403l-5.163-9.402-5.533 9.402h10.696zm-11.842-.855c1.853-3.12 3.557-5.99 5.356-9.015h-11.339l5.983 9.015zm-20.232-9.058l5.392 9.054 6.004-9.054h-11.396zm6.505 9.885h12.593l-6.288-9.482-6.305 9.482zm-12.485 1.61c5.616 6.235 11.037 12.253 16.457 18.273l.33-.237c-.768-2.432-1.526-4.868-2.307-7.296-1.047-3.264-2.114-6.523-3.168-9.783-.261-.81-.707-1.195-1.651-1.17-2.735.07-5.47.018-8.206.03-.38.002-.76.092-1.455.182zm20.806 18.034l.395.166 16.526-18.376c-3.82 0-7.138-.021-10.457.04-.306.004-.761.488-.88.839-1.525 4.533-3.009 9.08-4.485 13.63-.396 1.223-.735 2.466-1.099 3.701zm-8.429-18.131l6.22 19.176.405-.048 6.188-19.128h-12.813zm6.616-12.922c4.31 0 8.622.013 12.931-.01.94-.005 1.556.21 2.054 1.154 1.851 3.514 3.86 6.946 5.71 10.461.191.366-.121 1.218-.466 1.608-3.423 3.889-6.898 7.73-10.366 11.577-2.961 3.287-5.968 6.533-8.877 9.865-.913 1.048-1.456 1.014-2.367-.004-6.404-7.145-12.872-14.232-19.268-21.387-.358-.4-.533-1.376-.3-1.833 1.828-3.577 3.724-7.125 5.748-10.594.3-.516 1.388-.788 2.118-.8 4.36-.073 8.722-.037 13.083-.037z"/>
        <path stroke="#37CC9A" stroke-linecap="square" d="M164.512 25.78l-8.878-8.878M197.488 25.78l8.878-8.878M181 24.512v-8.878"/>
        <path fill="#B7C7CF" d="M13.277 68.396l-4.69 2.032 4.019 3.14.67-5.172zM23.09 81.77l.822-5.065-4.854 1.915 4.032 3.15zm-4.213-3.81c1.618-.63 3.105-1.21 4.675-1.82l-4.275-3.34-.4 5.16zm-4.959-9.373l-.634 5.001 4.93-1.645-4.296-3.356zm-.459 5.642l4.747 3.709.423-5.426-5.17 1.717zm-5.18-3.07L9.1 82.894l.194.008c.426-1.143.858-2.284 1.279-3.43.566-1.539 1.124-3.081 1.687-4.62.14-.383.086-.66-.278-.928-1.051-.779-2.067-1.604-3.102-2.405-.144-.111-.314-.19-.602-.36zm2.531 12.926l.1.18 11.642-2.061c-1.44-1.125-2.684-2.11-3.953-3.065-.117-.088-.431-.04-.58.058a629.655 629.655 0 0 0-5.704 3.816c-.51.345-1.004.714-1.505 1.072zm2.163-9.317l-3.303 9.06.166.102 7.967-5.389-4.83-3.773zm6.3-2.923c1.625 1.27 3.246 2.544 4.877 3.805.356.275.525.538.434 1.04-.336 1.87-.59 3.755-.928 5.625-.036.194-.404.423-.65.469-2.435.458-4.876.882-7.317 1.311-2.084.367-4.174.705-6.251 1.105-.653.126-.848-.047-.892-.7-.31-4.579-.66-9.156-.964-13.736-.017-.257.204-.676.427-.78 1.743-.81 3.502-1.589 5.287-2.3.265-.106.755.111 1.034.322 1.665 1.256 3.299 2.555 4.942 3.84zM318.375 11.236c-.529 2.038-1.007 3.88-1.51 5.81l5.812-1.448-4.302-4.362zm19.475.59L333.757 7.4l-1.738 5.878 5.831-1.454zm-6.572 1.143l1.694-5.643-6.181 1.541 4.487 4.102zm-12.262-2.188l4.17 4.203 2.043-5.752-6.213 1.549zm4.89 4.505l6.866-1.712-4.717-4.315-2.149 6.027zm-6.588 2.575l11.457 7.725.147-.174c-.75-1.221-1.493-2.446-2.25-3.664-1.014-1.637-2.039-3.269-3.056-4.903-.253-.406-.548-.555-1.06-.414-1.481.41-2.98.754-4.47 1.133-.206.052-.401.153-.768.297zm13.795 7.004l.238.037 6.512-12.265c-2.082.519-3.895.958-5.696 1.443-.166.044-.348.37-.365.577-.216 2.679-.407 5.36-.593 8.04-.05.721-.065 1.445-.096 2.168zm-7.06-8.74l5.998 9.61.214-.081.773-11.27-6.985 1.741zm1.85-7.944c2.35-.586 4.703-1.165 7.05-1.763.511-.13.876-.097 1.276.35 1.487 1.664 3.049 3.262 4.535 4.927.154.173.1.68-.035.94-1.338 2.586-2.71 5.152-4.078 7.721-1.168 2.194-2.366 4.373-3.499 6.585-.355.696-.656.75-1.291.32-4.463-3.025-8.953-6.01-13.413-9.041-.249-.17-.477-.678-.412-.959.51-2.199 1.062-4.39 1.694-6.557.094-.322.65-.619 1.046-.724 2.366-.633 4.75-1.206 7.127-1.799z"/>
    </g>
</svg>
