<svg xmlns="http://www.w3.org/2000/svg" xmlns:xlink="http://www.w3.org/1999/xlink" width="305" height="127" viewBox="0 0 305 127">
    <defs>
        <path id="a" d="M11.5 9.344a2.155 2.155 0 1 0-.002 4.31 2.155 2.155 0 0 0 .002-4.31zm0-1.438a3.593 3.593 0 1 1 0 7.188 3.594 3.594 0 0 1 0-7.188zm9.315 4.247h.094a.653.653 0 0 0 0-1.306h-.183a3.163 3.163 0 0 1-2.894-1.917 1.437 1.437 0 0 1-.098-.337 3.172 3.172 0 0 1 .69-3.172c.045-.099.072-.108.122-.125a.653.653 0 0 0 .02-.902c-.279-.278-.692-.278-.947-.022l-.075.075a3.157 3.157 0 0 1-3.474.637 3.162 3.162 0 0 1-1.916-2.899v-.094a.654.654 0 0 0-1.307 0v.183a3.161 3.161 0 0 1-1.918 2.894 1.437 1.437 0 0 1-.336.098 3.17 3.17 0 0 1-3.232-.747l-.063-.063a1.437 1.437 0 0 1-.312-.468c.017.032.115.177.312.467a.655.655 0 0 0-.926.927l.073.073a3.161 3.161 0 0 1 .652 3.447 3.174 3.174 0 0 1-2.912 2.028h-.093a.654.654 0 1 0 0 1.307h.183a3.156 3.156 0 0 1 2.888 1.903 3.17 3.17 0 0 1-.644 3.5l-.064.064a.653.653 0 0 0-.014.909.66.66 0 0 0 .947.009l.067-.067a3.162 3.162 0 0 1 3.447-.652 3.172 3.172 0 0 1 2.028 2.912v.094a.654.654 0 0 0 1.307 0v-.184a3.158 3.158 0 0 1 1.903-2.888 3.166 3.166 0 0 1 3.499.645l.062.062a.655.655 0 0 0 .885.039.956.956 0 0 1 .105-.111.654.654 0 0 0-.063-.854l-.075-.075a3.162 3.162 0 0 1-.635-3.48 3.164 3.164 0 0 1 2.897-1.91zM4.985 3.988a1.437 1.437 0 0 1-.108-.549c.014.218.02.327.073.454l.036.095zm-.748 14.46zm-.098-.06a.86.86 0 0 0 .023.014l-.023-.014zm13.783-4.332l-.007.015a3.185 3.185 0 0 1 .007-.015zm1.315.58a1.725 1.725 0 0 0 .344 1.902l.063.064a2.091 2.091 0 0 1-2.957 2.96l-.064-.064a1.724 1.724 0 0 0-1.903-.345 1.725 1.725 0 0 0-1.045 1.578v.178a2.09 2.09 0 0 1-4.182 0v-.094a1.724 1.724 0 0 0-1.129-1.58 1.725 1.725 0 0 0-1.902.347l-.064.062a2.09 2.09 0 0 1-2.957.002 2.09 2.09 0 0 1-.002-2.959l.063-.064c.494-.504.63-1.258.345-1.903a1.724 1.724 0 0 0-1.578-1.046h-.177a2.091 2.091 0 1 1 0-4.181h.093a1.725 1.725 0 0 0 1.58-1.13 1.724 1.724 0 0 0-.347-1.902l-.062-.063a2.092 2.092 0 0 1 2.958-2.96l.063.064c.505.493 1.258.63 1.903.345h.084A1.724 1.724 0 0 0 9.41 2.268v-.177a2.09 2.09 0 0 1 4.183 0v.094a1.723 1.723 0 0 0 1.045 1.578 1.725 1.725 0 0 0 1.902-.344l.063-.063a2.09 2.09 0 0 1 2.957-.002 2.09 2.09 0 0 1-.061 3.023 1.725 1.725 0 0 0-.345 1.903v.083c.271.632.89 1.043 1.579 1.046h.177a2.09 2.09 0 1 1 0 4.182h-.094a1.724 1.724 0 0 0-1.578 1.046z"/>
    </defs>
    <g fill="none" fill-rule="evenodd">
        <g fill="#D9E4EA" opacity=".509" transform="translate(1)">
            <rect width="67" height="13" y="96" rx="6.5"/>
            <rect width="116" height="13" x="70" rx="6.5"/>
            <rect width="275" height="18" x="2" y="20" rx="8"/>
            <rect width="125" height="18" x="179" y="50" rx="8"/>
            <rect width="106" height="18" x="177" y="100" rx="8"/>
            <rect width="222" height="13" x="13" y="73" rx="6.5"/>
        </g>
        <g transform="translate(0 6)">
            <path fill="#858C8F" d="M246.784 24l-.784-.784L248.216 21l.784.784L246.784 24zm-3.568 0L241 21.784l.784-.784L244 23.216l-.784.784zm3.568 2L249 28.216l-.784.784L246 26.784l.784-.784zm-3.568 0l.784.784L241.784 29l-.784-.784L243.216 26z"/>
            <circle cx="32" cy="12" r="4" stroke="#858C8F" stroke-width="2"/>
            <path fill="#858C8F" d="M0 109v-2h15v2H0zm12 5v-2h12v2H12zm5-5v-2h6v2h-6zm-11 5v-2h5v2H6zM260 2V0h13v2h-13zm10 6V6h11v2h-11zm4-6V0h6v2h-6zm-10 6V6h4v2h-4z"/>
        </g>
        <path fill="#17C9B2" d="M70.065 29.554V14.73c0-1.637 1.37-2.965 3.06-2.965h21.412c1.69 0 3.059 1.328 3.059 2.965v23.718l-6.118-5.93H73.124c-1.69 0-3.059-1.327-3.059-2.964zM204.964 110.38v9.883c0 1.091-.913 1.976-2.04 1.976H188.65c-1.126 0-2.039-.885-2.039-1.976V104.45l4.079 3.953h12.235c1.127 0 2.04.885 2.04 1.977z"/>
        <path fill="#FFF" fill-opacity=".8" stroke="#8459B9" stroke-width="2" d="M204 62c0 30.374-24.624 55-54.999 55C118.626 117 94 92.374 94 62s24.626-55 55.001-55C179.376 7 204 31.626 204 62z"/>
        <path fill-rule="nonzero" stroke="#8459B9" stroke-width="2" d="M108.208 25.792c47.667 7.027 77 27.958 88 62.791M138 115.625c-22.917-29.944-22.917-65.847 0-107.708M94.458 54.208c27.195-28.11 61.264-35.597 102.209-22.458M146.25 117c29.639-34.222 40.792-68.444 33.458-102.667M95.375 73.917c30.556 17.722 63.708 5.5 99.458-36.667"/>
        <path fill="#8459B9" d="M129.75 80.333a7.334 7.334 0 1 1-14.667 0 7.334 7.334 0 0 1 14.667 0M134.665 31.297c0 4.142-3.325 7.503-7.43 7.503-4.101 0-7.427-3.36-7.427-7.503 0-4.142 3.326-7.5 7.427-7.5 4.105 0 7.43 3.358 7.43 7.5M184.94 54.834c0 4.142-3.325 7.502-7.43 7.502-4.101 0-7.427-3.36-7.427-7.502 0-4.143 3.326-7.5 7.427-7.5 4.105 0 7.43 3.357 7.43 7.5"/>
        <g>
            <path fill="#EBF1F4" stroke="#17C9B2" stroke-width="2" d="M122 84.342L112.957 93H81.222C78.881 93 77 94.8 77 97v25c0 2.2 1.88 4 4.222 4h36.556c2.341 0 4.222-1.8 4.222-4V84.342z"/>
            <use fill="#37CC9A" fill-rule="nonzero" transform="translate(88 98)" xlink:href="#a"/>
        </g>
        <g>
            <path fill="#EBF1F4" stroke="#17C9B2" stroke-width="2" d="M179 53.654l9.709-9.32h33.735c2.525 0 4.556-1.95 4.556-4.334V13.333C227 10.95 224.97 9 222.444 9h-38.888C181.03 9 179 10.95 179 13.333v40.32z"/>
            <path fill="#37CC9A" fill-rule="nonzero" d="M203 25.389c-1.444 0-2.619-.993-2.619-2.214 0-1.22 1.175-2.214 2.619-2.214 1.444 0 2.619.993 2.619 2.214 0 .642.533 1.163 1.19 1.163.658 0 1.191-.521 1.191-1.163 0-2.13-1.625-3.922-3.81-4.408v-.604c0-.642-.533-1.163-1.19-1.163-.657 0-1.19.52-1.19 1.163v.604c-2.185.486-3.81 2.278-3.81 4.408 0 2.503 2.243 4.539 5 4.539 1.444 0 2.619.993 2.619 2.213 0 1.221-1.175 2.214-2.619 2.214-1.444 0-2.619-.993-2.619-2.214 0-.642-.533-1.162-1.19-1.162-.658 0-1.191.52-1.191 1.162 0 2.13 1.625 3.922 3.81 4.408v.502c0 .642.533 1.163 1.19 1.163.657 0 1.19-.52 1.19-1.163v-.502c2.185-.486 3.81-2.277 3.81-4.408 0-2.502-2.243-4.538-5-4.538z"/>
        </g>
    </g>
</svg>
