<svg xmlns="http://www.w3.org/2000/svg" width="365" height="124" viewBox="0 0 365 124">
    <g fill="none" fill-rule="evenodd">
        <path stroke="#17C9B2" stroke-linecap="square" stroke-width="2" d="M75 122.5h214.5M34.5 122.5H70M296.5 122.25h20"/>
        <g transform="translate(15)">
            <path fill="#858C8F" d="M250.784 31l-.784-.784L252.216 28l.784.784L250.784 31zm-3.568 0L245 28.784l.784-.784L248 30.216l-.784.784zm3.568 2L253 35.216l-.784.784L250 33.784l.784-.784zm-3.568 0l.784.784L245.784 36l-.784-.784L247.216 33z"/>
            <circle cx="316" cy="99" r="4" stroke="#858C8F" stroke-width="2"/>
            <path fill="#858C8F" d="M0 103v-2h15v2H0zm12 5v-2h12v2H12zm5-5v-2h6v2h-6zm-11 5v-2h5v2H6zM264 2V0h13v2h-13zm10 6V6h11v2h-11zm4-6V0h6v2h-6zm-10 6V6h4v2h-4z"/>
        </g>
        <g fill="#D9E4EA" opacity=".509" transform="translate(0 1)">
            <rect width="67" height="13" x="20" y="76" rx="6.5"/>
            <rect width="116" height="13" x="67" y="29" rx="6.5"/>
            <rect width="306" height="18" rx="8"/>
            <rect width="168" height="18" x="197" y="30" rx="8"/>
            <rect width="106" height="18" x="197" y="80" rx="8"/>
            <rect width="162" height="18" x="141" y="104" rx="8"/>
            <rect width="222" height="13" x="33" y="53" rx="6.5"/>
        </g>
        <g stroke="#8459B9">
            <path fill="#FFF" d="M102.925 114H86c.627 4.2 2.194 6.9 4.701 8.1 2.508 1.2 61.747 1.2 177.717 0 4.388-1.2 6.582-3.9 6.582-8.1h-20.687"/>
            <path fill="#FFF" d="M102.5 34.5h161v80h-161z"/>
            <path fill="#EBF1F4" d="M108.5 39.5h149v70h-149z" opacity=".8"/>
            <path d="M161 115c.667 2 1.667 3 3 3h40c2-.667 3-1.667 3-3h-46z"/>
        </g>
        <path fill="#FFF" stroke="#17C9B2" stroke-width="2" d="M168.226 28h40.491c2.189.696 3.283 1.74 3.283 3.132v64.736c0 2.088-1.094 3.132-3.283 3.132h-51.434c-2.189 0-3.283-1.044-3.283-3.132V41.574L168.226 28z"/>
        <path fill="#B7C7CF" d="M164 54h20a2 2 0 1 1 0 4h-20a2 2 0 1 1 0-4zm0 8h37a2 2 0 1 1 0 4h-37a2 2 0 1 1 0-4zm0 16h37a2 2 0 1 1 0 4h-37a2 2 0 1 1 0-4zm26-24h11a2 2 0 1 1 0 4h-11a2 2 0 1 1 0-4zm2 16h9a2 2 0 1 1 0 4h-9a2 2 0 1 1 0-4zm-14 0h8a2 2 0 1 1 0 4h-8a2 2 0 1 1 0-4zm-14 0h8a2 2 0 1 1 0 4h-8a2 2 0 1 1 0-4z"/>
        <path fill="#FFF" stroke="#17C9B2" stroke-width="2" d="M155 41h9.75c2.167 0 3.25-.722 3.25-2.167V28"/>
        <path stroke="#17C9B2" stroke-dasharray="2" d="M189 43c-1.333-10.027 2.333-17.798 11-23.313 8.667-5.515 19.333-7.019 32-4.512"/>
        <g stroke="#17C9B2" stroke-linecap="round" stroke-linejoin="round">
            <path d="M236.82 5.364l5.45 1.104c.462.093.831.438.953.892l1.527 5.7c.122.453-.026.937-.38 1.249l-4.166 3.68a1.25 1.25 0 0 1-1.076.288l-5.448-1.104a1.238 1.238 0 0 1-.95-.9l-1.525-5.693a1.238 1.238 0 0 1 .38-1.25l4.166-3.68a1.25 1.25 0 0 1 1.07-.286z"/>
            <path d="M231.164 10.426l6.699.965 5.319-4.185M239.703 18.259l-1.84-6.868"/>
        </g>
        <path stroke="#17C9B2" stroke-dasharray="2" d="M172.998 50.565c1.646-16.151-4.016-26.883-16.986-32.195-12.97-5.313-23.662-3.678-32.077 4.903C117.3 31.469 118.655 37.378 128 41c6.888 2.67 13.014-6.619 8.562-14.046C131.955 19.267 103.164 17.61 93 37"/>
        <g stroke="#17C9B2" stroke-linecap="round" stroke-linejoin="round">
            <path d="M138.692 3.583l.616 1.692a1.2 1.2 0 0 1-.717 1.538l-1.692.615m7.518-2.736l-1.692.616a1.2 1.2 0 0 1-1.538-.717l-.615-1.692m2.736 7.518l-.616-1.692a1.2 1.2 0 0 1 .717-1.538l1.692-.615m-7.518 2.736l1.692-.616a1.2 1.2 0 0 1 1.538.717l.615 1.692"/>
        </g>
        <g stroke="#17C9B2" stroke-linecap="round" stroke-linejoin="round">
            <path d="M86.5 34L81 37l5.5 3 5.5-3zM81 41l5.5 3 5.5-3"/>
            <path d="M81 39l5.5 3 5.5-3"/>
        </g>
    </g>
</svg>
