<svg xmlns="http://www.w3.org/2000/svg" width="315" height="125" viewBox="0 0 315 125">
    <g fill="none" fill-rule="evenodd">
        <g fill="#D9E4EA" opacity=".509">
            <rect width="67" height="13" x="10" y="96" rx="6.5"/>
            <rect width="162" height="18" x="49" y="44" rx="8"/>
            <rect width="116" height="13" x="80" rx="6.5"/>
            <rect width="306" height="18" y="20" rx="8"/>
            <rect width="168" height="18" x="147" y="50" rx="8"/>
            <rect width="106" height="18" x="187" y="100" rx="8"/>
            <rect width="222" height="13" x="23" y="73" rx="6.5"/>
        </g>
        <g transform="translate(21 4)">
            <path fill="#858C8F" d="M241.784 42l-.784-.784L243.216 39l.784.784L241.784 42zm-3.568 0L236 39.784l.784-.784L239 41.216l-.784.784zm3.568 2L244 46.216l-.784.784L241 44.784l.784-.784zm-3.568 0l.784.784L236.784 47l-.784-.784L238.216 44z"/>
            <circle cx="270" cy="102" r="4" stroke="#858C8F" stroke-width="2"/>
            <circle cx="4" cy="4" r="4" stroke="#858C8F" stroke-width="2"/>
            <circle cx="17" cy="13" r="3" stroke="#858C8F" stroke-width="2"/>
            <path fill="#858C8F" d="M24 106v-2h15v2H24zm12 5v-2h12v2H36zm5-5v-2h6v2h-6zm-11 5v-2h5v2h-5zM218 2V0h13v2h-13zm10 6V6h11v2h-11zm4-6V0h6v2h-6zm-10 6V6h4v2h-4z"/>
        </g>
        <path fill="#17C9B2" fill-rule="nonzero" d="M101.66 54.103l7.424 1.578a.43.43 0 0 0 .5-.325L113.72 35.9a.43.43 0 0 0-.325-.5l-7.424-1.578a.43.43 0 0 0-.5.325l-4.135 19.457a.422.422 0 0 0 .324.5zM101.145 2.5l-1.78 8.376a.987.987 0 0 1-1.167.758.987.987 0 0 1-.757-1.167l1.78-8.375a.987.987 0 0 1 1.167-.758.98.98 0 0 1 .757 1.167zM78.992 16.46l8.375 1.78c.528.112.87.637.757 1.166a.987.987 0 0 1-1.166.758l-8.375-1.78a.987.987 0 0 1-.758-1.167.987.987 0 0 1 1.167-.758zM114.55 25.023a.987.987 0 0 1-1.167.758L105.008 24a.987.987 0 0 1-.757-1.167.987.987 0 0 1 1.166-.758l8.376 1.78c.528.113.87.638.757 1.167zM112.184 10.572a.983.983 0 0 1-.141-.737.983.983 0 0 1 .429-.616.983.983 0 0 1 .737-.142.983.983 0 0 1 .616.43.983.983 0 0 1 .142.737.983.983 0 0 1-.43.616.983.983 0 0 1-.737.142.983.983 0 0 1-.616-.43zM109.043 12.612a.985.985 0 0 1-1.025 1.495.985.985 0 0 1-.328-1.783.985.985 0 0 1 1.353.288zM109.786 12.13a.985.985 0 0 1 .288-1.354.985.985 0 0 1 1.354.287.985.985 0 0 1-.288 1.354.964.964 0 0 1-.735.131.921.921 0 0 1-.619-.419zM106.645 14.17a.983.983 0 0 1-.298 1.351.983.983 0 0 1-.738.141.983.983 0 0 1-.616-.429.983.983 0 0 1-.142-.737.983.983 0 0 1 .43-.617.983.983 0 0 1 .737-.141.97.97 0 0 1 .627.431zM86.92 4.429a.983.983 0 0 1 .142.737.983.983 0 0 1-.43.616.983.983 0 0 1-.737.142.983.983 0 0 1-.616-.43.973.973 0 0 1-.131-.735 1.02 1.02 0 0 1 .419-.618.973.973 0 0 1 .735-.131c.245.04.477.2.618.419zM89.003 10.696a1.01 1.01 0 0 1-.618-.419.985.985 0 0 1 .288-1.353.985.985 0 0 1 1.353.287.985.985 0 0 1-.288 1.354.964.964 0 0 1-.735.13zM88.469 6.813a.985.985 0 0 1-1.025 1.496.985.985 0 0 1-.328-1.783.985.985 0 0 1 1.353.287zM91.714 12.344a.983.983 0 0 1-.429.616.983.983 0 0 1-.737.142.983.983 0 0 1-.617-.43.983.983 0 0 1-.141-.737.983.983 0 0 1 .43-.616.973.973 0 0 1 .734-.131c.254.054.475.211.619.419a.964.964 0 0 1 .141.737z"/>
        <path fill="#FFF" stroke="#17C9B2" stroke-width="2" d="M76.344 29.828l.023-.104.002-.035-.039-.15c.025.094.029.18.018.258zm.023-.104a4.528 4.528 0 0 1 5.34-3.365l9.374 1.992 1.495-7.037c.482-2.267 1.433-3.673 2.818-4.292 1.646-.746 3.646-.255 4.881.465l-1.439 6.771c-.574 2.702.32 5.111 2.185 7.155a13.024 13.024 0 0 0 2.111 1.849c.463.326.866.57 1.155.723-.018-.01-.02-.012-.016-.006l.638.757.763-.63a.825.825 0 0 1 .696-.173l6.609 1.405a.832.832 0 0 1 .637.98l-3.958 18.622a.832.832 0 0 1-.981.637l-6.588-1.4a.818.818 0 0 1-.608-.552l-.388-1.222-1.09.675a4.497 4.497 0 0 1-3.32.58L80.08 50.13c-3.188-.677-4.764-2.654-4.507-5.609l.794-14.796zm27.92 4.261a5.542 5.542 0 0 0-.007-.004zm-3.069 20.04l8.29 1.763 4.318-20.314-8.29-1.762-4.318 20.314zM75.52 44.49l-.007.047c-.257 2.98 1.369 4.957 4.548 5.632l16.602 3.53a4.571 4.571 0 0 0 5.418-3.519l3.453-16.247-1.237.002.002.001c-.843-.428-2.184-1.379-3.33-2.66-1.82-2.039-2.64-4.363-2.079-7.007l1.457-6.856-.802-.304c-1.437-.544-2.875-.7-4.16-.123-1.439.648-2.375 2.138-2.84 4.321l-1.488 7.006-9.343-1.986a4.57 4.57 0 0 0-5.397 3.422l-.025.177-.772 14.564z"/>
        <g>
            <path fill="#FFF" stroke="#8459B9" stroke-width="2" d="M197.472 1H127.66C123.887 2.2 122 4 122 6.4v111.613c0 3.6 1.887 5.4 5.66 5.4h88.68c3.773 0 5.66-1.8 5.66-5.4v-93.61L197.472 1z"/>
            <path fill="#B7C7CF" d="M206.207 45.828h-37.38a2 2 0 0 0-2 2v2.896a2 2 0 0 0 2 2h37.38a2 2 0 0 0 2-2v-2.896a2 2 0 0 0-2-2zm0 13.793h-66.69a2 2 0 0 0-2 2v2.896a2 2 0 0 0 2 2h66.69a2 2 0 0 0 2-2v-2.896a2 2 0 0 0-2-2zm0 27.586h-66.69a2 2 0 0 0-2 2v2.896a2 2 0 0 0 2 2h66.69a2 2 0 0 0 2-2v-2.896a2 2 0 0 0-2-2zm-44.828-41.38h-21.862a2 2 0 0 0-2 2v2.897a2 2 0 0 0 2 2h21.862a2 2 0 0 0 2-2v-2.896a2 2 0 0 0-2-2zm-3.448 27.587h-18.414a2 2 0 0 0-2 2v2.896a2 2 0 0 0 2 2h18.414a2 2 0 0 0 2-2v-2.896a2 2 0 0 0-2-2zm24.138 0h-16.69a2 2 0 0 0-2 2v2.896a2 2 0 0 0 2 2h16.69a2 2 0 0 0 2-2v-2.896a2 2 0 0 0-2-2zm24.138 0h-16.69a2 2 0 0 0-2 2v2.896a2 2 0 0 0 2 2h16.69a2 2 0 0 0 2-2v-2.896a2 2 0 0 0-2-2z"/>
            <path fill="#FFF" stroke="#8459B9" stroke-width="2" d="M220.276 23.414h-16.81c-3.736 0-5.604-1.245-5.604-3.736V1"/>
        </g>
        <g>
            <path fill="#17C9B2" fill-rule="nonzero" d="M207.18 116.9h-13.368c-.446 0-.812.405-.812.9s.366.9.812.9h13.376c.446 0 .812-.405.812-.9s-.366-.9-.82-.9z"/>
            <g transform="rotate(-147 122.443 24.768)">
                <rect width="7" height="68" x="4" y="16" fill="#FFF" stroke="#17C9B2" stroke-width="2" rx="3.5"/>
                <path fill="#17C9B2" fill-rule="nonzero" d="M3 16h9v13H3z"/>
                <path fill="#FFF" stroke="#17C9B2" stroke-width="2" d="M1.14 5.442L3.996 17h7.006L13.86 5.442 7.5 1.202l-6.36 4.24z"/>
                <circle cx="7.5" cy="9.5" r="1.5" fill="#17C9B2" fill-rule="nonzero"/>
                <path fill="#17C9B2" fill-rule="nonzero" d="M7 3h1v5H7z"/>
            </g>
            <path stroke="#8459B9" d="M176.008 110.912c2.903-1.137 13.437-6.415 17.672-4.14 1.67.897-.453 4.869 1.324 5.53 2.784 1.038 17.968.933 21.219-1.132"/>
        </g>
    </g>
</svg>
