<svg xmlns="http://www.w3.org/2000/svg" width="291" height="126" viewBox="0 0 291 126">
    <g fill="none" fill-rule="evenodd">
        <g fill="#D9E4EA" opacity=".509">
            <rect width="67" height="13" x="2" y="76" rx="6.5"/>
            <rect width="116" height="13" x="47" y="30" rx="6.5"/>
            <rect width="188" height="18" rx="8"/>
            <rect width="67" height="13" x="201" y="2" rx="6.5"/>
            <rect width="109" height="18" x="177" y="23" rx="8"/>
            <rect width="106" height="18" x="179" y="80" rx="8"/>
            <rect width="162" height="18" x="123" y="104" rx="8"/>
            <rect width="222" height="13" x="15" y="53" rx="6.5"/>
        </g>
        <g stroke="#17C9B2" stroke-linecap="square" stroke-width="2">
            <path d="M48 122.5h214.5M7.5 122.5H43M269.5 122.25h20"/>
        </g>
        <g fill="#E0E6EA">
            <path d="M195 76.951h31V121h-31z"/>
            <path d="M220 91h31v30h-31z"/>
            <path d="M204 63.049h31V121h-31z"/>
            <g>
                <path d="M16 98.975h31V121H16z"/>
                <path d="M35 70h31v51H35z"/>
            </g>
        </g>
        <g fill="#FFF" stroke="#B7C7CF" stroke-width="2">
            <path d="M161 95h51v25h-51zM157 90h59v5h-59z"/>
        </g>
        <path fill="#B7C7CF" d="M49 84h31v37H49z"/>
        <path fill="#A5B3BA" fill-rule="nonzero" d="M56.75 88.625h3.1v3.083h-3.1zM67.6 88.625h3.1v3.083h-3.1zM56.75 100.958h3.1v3.083h-3.1zM67.6 100.958h3.1v3.083h-3.1zM56.75 112.521h3.1v3.083h-3.1zM67.6 112.521h3.1v3.083h-3.1z"/>
        <g>
            <path fill="#B7C7CF" d="M71 60h40v3.861H71z"/>
            <path fill="#FFF" stroke="#B7C7CF" stroke-width="2" d="M75.615 64.633h30.769V121H75.615z"/>
            <path fill="#B7C7CF" fill-rule="nonzero" d="M83.308 72.354h3.846v3.861h-3.846zM94.846 72.354h3.846v3.861h-3.846zM83.308 83.937h3.846v3.861h-3.846zM94.846 83.937h3.846v3.861h-3.846zM83.308 95.519h3.846v3.861h-3.846zM94.846 95.519h3.846v3.861h-3.846zM83.308 107.101h3.846v3.861h-3.846zM94.846 107.101h3.846v3.861h-3.846z"/>
        </g>
        <g>
            <path stroke="#17C9B2" stroke-dasharray="2,2" d="M182.106 75.237c21.392-12.117 31.21-21.044 29.456-26.782-2.63-8.607-8.29-10.014-11.158-9.137-2.87.877-10.307 7.334-2.455 15.913 7.851 8.58 22.488 5.15 28.226 3.396 5.738-1.754 35.542-17.14 13.833-47.103"/>
            <path fill-rule="nonzero" stroke="#17C9B2" d="M236.225 13.79l8.309-3.19-5.749-2.559-2.56 5.749z"/>
            <g stroke="#17C9B2">
                <path stroke-dasharray="2" d="M57.189 14.516c-10.177 12.649-11.274 24.733-3.29 36.252 7.985 11.52 17.842 15.972 29.573 13.359 10.028-3.26 12.11-8.954 6.246-17.082-4.323-5.99-14.52-1.536-14.83 7.117-.323 8.956 22.92 26.027 42.005 15.3"/>
                <path fill-rule="nonzero" d="M61.142 17.025l-5.356-7.107 6.232.876-.876 6.231z"/>
            </g>
            <g transform="translate(101 22)">
                <ellipse cx="40.5" cy="98.5" fill="#EBF1F4" stroke="#17C9B2" stroke-width="2" rx="26.5" ry="4.5"/>
                <path fill="#FFF" fill-rule="nonzero" stroke="#8459B9" stroke-width="2" d="M59.96 80.836c-4.092 4.452-8.468 8.512-12.844 12.104a114.523 114.523 0 0 1-4.244 3.327c-.78.58-1.345.984-1.66 1.2-1.033.71-2.391.71-3.424 0a58.93 58.93 0 0 1-1.66-1.2 114.523 114.523 0 0 1-4.244-3.327c-4.376-3.592-8.752-7.652-12.844-12.104C7.175 67.926 0 54.366 0 40.648 0 18.214 17.67 0 39.5 0S79 18.214 79 40.648c0 13.718-7.175 27.278-19.04 40.188z"/>
                <path fill="#8459B9" fill-rule="nonzero" d="M39 55c-8.284 0-15-6.94-15-15.5C24 30.94 30.716 24 39 24c8.284 0 15 6.94 15 15.5C54 48.06 47.284 55 39 55z"/>
            </g>
        </g>
        <path fill="#858C8F" d="M36.708 28.575l-4.668-1.792.717-1.867 4.668 1.792 1.792-4.668 1.867.717-1.792 4.668 4.668 1.792-.717 1.867-4.668-1.792-1.792 4.668-1.867-.717 1.792-4.668zM268.189 68.842l.868-4.924 1.97.347-.869 4.924 4.924.868-.347 1.97-4.924-.869-.868 4.924-1.97-.347.869-4.924-4.924-.868.347-1.97 4.924.869z"/>
    </g>
</svg>
