<svg xmlns="http://www.w3.org/2000/svg" width="295" height="127" viewBox="0 0 295 127">
    <defs>
        <path id="a" d="M.062.274h39.68v28.48H.062z"/>
    </defs>
    <g fill="none" fill-rule="evenodd">
        <g fill="#D9E4EA" opacity=".509" transform="translate(0 3)">
            <rect width="67" height="13" x="28" y="97" rx="6.5"/>
            <rect width="67" height="13" x="36" y="52" rx="6.5"/>
            <rect width="116" height="13" x="57" rx="6.5"/>
            <rect width="273" height="18" y="25" rx="8"/>
            <rect width="141" height="18" x="154" y="52" rx="8"/>
            <rect width="106" height="18" x="164" y="95" rx="8"/>
            <rect width="222" height="13" y="76" rx="6.5"/>
        </g>
        <g transform="translate(14)">
            <path fill="#858C8F" d="M218.784 28l-.784-.784L220.216 25l.784.784L218.784 28zm-3.568 0L213 25.784l.784-.784L216 27.216l-.784.784zm3.568 2L221 32.216l-.784.784L218 30.784l.784-.784zm-3.568 0l.784.784L213.784 33l-.784-.784L215.216 30z"/>
            <circle cx="4" cy="16" r="4" stroke="#858C8F" stroke-width="2"/>
            <path fill="#858C8F" d="M12 120v-2h15v2H12zm12 5v-2h12v2H24zm5-5v-2h6v2h-6zm-11 5v-2h5v2h-5zM209 2V0h13v2h-13zm10 6V6h11v2h-11zm4-6V0h6v2h-6zm-10 6V6h4v2h-4z"/>
        </g>
        <path stroke="#17C9B2" stroke-dasharray="2" d="M196.744 70.32c8.979-4.66 13.241-12.12 12.788-22.383-.454-10.262-6.006-19.863-16.659-28.8"/>
        <path fill="#FFF" fill-opacity=".8" fill-rule="nonzero" d="M144.472 125c24.008 0 44.76-9.665 43.471-37.372C186.655 63.787 168.48 48 144.472 48c-24.01 0-39.93 15.787-43.472 39.628C101 117.912 120.463 125 144.472 125z"/>
        <path fill="#8459B9" d="M145.003 125.423c-36.284-1.437-43.109-13.395-42.192-36.405.747-18.83 19.743-41.445 42.583-41.445s42.371 23.48 42.88 41.635c0 26.052-15.094 35.67-43.271 36.215M145.385 46c-23.762 0-43.522 23.53-44.305 43.118-.953 23.939 6.151 36.382 43.9 37.882 29.32-.567 45.02-10.58 45.02-37.683C189.474 70.428 169.152 46 145.385 46"/>
        <path fill="#37CC9A" d="M159.607 80.19h-23.273c-3.317 0-6.029 2.727-6.029 6.067v.69c0 3.334 2.712 6.065 6.029 6.065h23.273c3.317 0 6.033-2.73 6.033-6.066v-.69c0-3.339-2.716-6.066-6.033-6.066"/>
        <path fill="#FEFEFE" d="M159.438 81.77h-22.936c-2.64 0-4.801 2.173-4.801 4.832 0 2.654 2.16 4.831 4.8 4.831h22.937c2.645 0 4.806-2.177 4.806-4.831 0-2.66-2.16-4.831-4.806-4.831"/>
        <path fill="#37CC9A" d="M160.073 91.431h-23.268c-3.322 0-6.034 2.727-6.034 6.066v.69c0 3.33 2.712 6.061 6.034 6.061h23.268c3.317 0 6.034-2.73 6.034-6.061v-.69c0-3.34-2.717-6.066-6.034-6.066"/>
        <path fill="#FEFEFE" d="M159.907 93.011H136.97c-2.645 0-4.8 2.172-4.8 4.827 0 2.659 2.155 4.836 4.8 4.836h22.937c2.64 0 4.8-2.177 4.8-4.836 0-2.655-2.16-4.827-4.8-4.827"/>
        <path fill="#37CC9A" d="M160.542 102.672h-23.273c-3.317 0-6.034 2.727-6.034 6.062v.69c0 3.334 2.717 6.065 6.034 6.065h23.273c3.317 0 6.028-2.73 6.028-6.066v-.69c0-3.334-2.711-6.061-6.028-6.061"/>
        <path fill="#FEFEFE" d="M160.373 104.248h-22.937c-2.64 0-4.8 2.172-4.8 4.83 0 2.655 2.16 4.832 4.8 4.832h22.937c2.64 0 4.805-2.177 4.805-4.831 0-2.66-2.165-4.831-4.805-4.831"/>
        <path fill="#37CC9A" d="M161.008 113.908h-23.273c-3.317 0-6.03 2.727-6.03 6.066v.69c0 3.335 2.713 6.066 6.03 6.066h23.273c3.317 0 6.033-2.731 6.033-6.066v-.69c0-3.34-2.716-6.066-6.033-6.066"/>
        <path fill="#FEFEFE" d="M160.84 115.488h-22.938c-2.64 0-4.8 2.172-4.8 4.827 0 2.659 2.16 4.836 4.8 4.836h22.937c2.645 0 4.805-2.177 4.805-4.836 0-2.655-2.16-4.827-4.805-4.827"/>
        <path fill="#37CC9A" d="M195.876 102.672h-23.273c-3.317 0-6.033 2.727-6.033 6.062v.69c0 3.334 2.716 6.065 6.033 6.065h23.273c3.317 0 6.029-2.73 6.029-6.066v-.69c0-3.334-2.712-6.061-6.03-6.061"/>
        <path fill="#FEFEFE" d="M195.707 104.248h-22.936c-2.64 0-4.801 2.172-4.801 4.83 0 2.655 2.16 4.832 4.8 4.832h22.937c2.64 0 4.805-2.177 4.805-4.831 0-2.66-2.165-4.831-4.805-4.831"/>
        <path fill="#37CC9A" d="M196.342 113.908h-23.273c-3.317 0-6.029 2.727-6.029 6.066v.69c0 3.335 2.712 6.066 6.03 6.066h23.272c3.317 0 6.033-2.731 6.033-6.066v-.69c0-3.34-2.716-6.066-6.033-6.066"/>
        <path fill="#FEFEFE" d="M196.173 115.488h-22.936c-2.64 0-4.801 2.172-4.801 4.827 0 2.659 2.16 4.836 4.8 4.836h22.937c2.64 0 4.806-2.177 4.806-4.836 0-2.655-2.165-4.827-4.806-4.827"/>
        <g>
            <path fill="#8459B9" d="M125.062 27.091c0 11.258 8.885 20.384 19.84 20.384 10.956 0 19.84-9.126 19.84-20.384 0-11.253-39.68-11.253-39.68 0"/>
            <path fill="#FEFEFE" d="M126.23 27.595c0 10.309 8.36 18.663 18.671 18.663s18.671-8.354 18.671-18.663c0-10.303-37.342-10.303-37.342 0"/>
        </g>
        <g>
            <path fill="#8459B9" d="M158.52 40.24h-25.59c-3.476 0-6.32 2.916-6.32 6.486v.303c0 3.57 2.844 6.487 6.32 6.487h25.59c3.475 0 6.32-2.917 6.32-6.487v-.303c0-3.57-2.845-6.487-6.32-6.487"/>
            <path fill="#FEFEFE" d="M158.452 41.876h-25.457c-2.684 0-4.878 2.249-4.878 5.002 0 2.749 2.194 5.003 4.878 5.003h25.457c2.685 0 4.878-2.254 4.878-5.003 0-2.753-2.193-5.002-4.878-5.002"/>
        </g>
        <g fill-rule="nonzero">
            <path fill="#FFF" stroke="#37CC9A" d="M172.56 51.74c-5.896 2.503-12.729-.258-15.231-6.153-2.503-5.896.258-12.728 6.153-15.23 5.896-2.503 12.728.258 15.23 6.153 2.503 5.896-.257 12.728-6.153 15.23z"/>
            <path fill="#37CC9A" d="M167.695 40.291c-.864.367-1.826.057-2.144-.691-.318-.749.127-1.656.992-2.023.865-.367 1.827-.057 2.144.691a.774.774 0 0 0 1.426-.605c-.555-1.306-1.994-1.991-3.428-1.734l-.158-.37a.774.774 0 0 0-1.425.604l.157.371c-1.18.853-1.688 2.365-1.134 3.67.652 1.535 2.525 2.214 4.175 1.513.865-.367 1.827-.057 2.145.692.317.748-.128 1.655-.992 2.022-.865.368-1.827.057-2.145-.691a.774.774 0 0 0-1.425.605c.554 1.306 1.994 1.991 3.428 1.734l.13.308a.774.774 0 0 0 1.426-.605l-.13-.308c1.18-.853 1.688-2.364 1.133-3.67-.651-1.535-2.524-2.213-4.175-1.513zM173.703 32.738a10.09 10.09 0 0 0-5.22-1.747.774.774 0 1 0-.071 1.547 8.569 8.569 0 0 1 7.45 5.182 8.534 8.534 0 0 1 .646 4.066.774.774 0 1 0 1.543.135 10.087 10.087 0 0 0-.764-4.806 10.033 10.033 0 0 0-3.584-4.377zM165.204 31.308l-.048.02a.774.774 0 0 0 .606 1.426l.04-.017.004-.002a.774.774 0 0 0-.602-1.427zM167.63 49.56a8.57 8.57 0 0 1-7.45-5.183 8.534 8.534 0 0 1-.647-4.066.774.774 0 1 0-1.543-.135c-.143 1.63.121 3.29.764 4.806a10.033 10.033 0 0 0 3.585 4.377 10.09 10.09 0 0 0 5.218 1.748.77.77 0 0 0 .81-.738.775.775 0 0 0-.737-.81zM170.28 49.343l-.042.017a.774.774 0 1 0 .599 1.429l.048-.02a.774.774 0 0 0-.605-1.426z"/>
        </g>
        <g fill-rule="nonzero">
            <path fill="#FFF" stroke="#37CC9A" d="M180.596 20.398c-4.06-1.32-6.29-5.697-4.971-9.757 1.32-4.061 5.696-6.291 9.757-4.972 4.06 1.32 6.291 5.697 4.972 9.757-1.32 4.061-5.697 6.291-9.758 4.972z"/>
            <path fill="#37CC9A" d="M183.157 12.51c-.596-.193-.944-.77-.777-1.286.168-.515.789-.777 1.384-.584.596.194.944.77.777 1.286a.516.516 0 0 0 .981.32c.293-.9-.132-1.875-.966-2.373l.083-.255a.516.516 0 0 0-.982-.32l-.083.256c-.967-.087-1.883.452-2.176 1.351-.343 1.057.303 2.218 1.44 2.587.595.194.943.77.776 1.286-.168.515-.788.777-1.384.584-.596-.194-.944-.77-.776-1.286a.516.516 0 0 0-.982-.319c-.293.9.132 1.874.966 2.372l-.069.212a.516.516 0 0 0 .982.32l.069-.213c.967.087 1.884-.451 2.176-1.351.343-1.057-.302-2.217-1.44-2.587zM189.483 11.337a6.726 6.726 0 0 0-1.862-3.162.516.516 0 1 0-.713.747 5.713 5.713 0 0 1 1.482 5.866 5.69 5.69 0 0 1-1.453 2.329.516.516 0 1 0 .717.742 6.724 6.724 0 0 0 1.829-6.522zM185.832 6.9l-.033-.01a.516.516 0 0 0-.319.982l.029.01h.002a.516.516 0 0 0 .321-.981zM179.07 17.145a5.713 5.713 0 0 1-1.481-5.866 5.69 5.69 0 0 1 1.452-2.329.516.516 0 1 0-.717-.743 6.725 6.725 0 0 0-1.829 6.523 6.727 6.727 0 0 0 1.862 3.161.514.514 0 0 0 .73-.016.516.516 0 0 0-.017-.73zM180.498 18.195l-.028-.01a.516.516 0 1 0-.324.98l.033.012a.516.516 0 0 0 .319-.982z"/>
        </g>
        <g>
            <path fill="#B7C7CF" d="M267.826 39.188h-14.012c-1.997 0-3.63 1.672-3.63 3.72v.422c0 2.045 1.633 3.72 3.63 3.72h14.012c1.998 0 3.633-1.675 3.633-3.72v-.423c0-2.047-1.635-3.719-3.633-3.719"/>
            <path fill="#FEFEFE" d="M267.725 40.157h-13.81c-1.59 0-2.89 1.332-2.89 2.962 0 1.628 1.3 2.962 2.89 2.962h13.81c1.592 0 2.893-1.334 2.893-2.962 0-1.63-1.3-2.962-2.893-2.962"/>
            <path fill="#B7C7CF" d="M272.85 32.117h-14.013c-1.997 0-3.63 1.671-3.63 3.719v.423c0 2.044 1.633 3.719 3.63 3.719h14.013c1.997 0 3.632-1.675 3.632-3.72v-.422c0-2.048-1.635-3.72-3.632-3.72"/>
            <path fill="#FEFEFE" d="M272.748 33.086h-13.81c-1.59 0-2.89 1.331-2.89 2.962 0 1.627 1.3 2.962 2.89 2.962h13.81c1.593 0 2.893-1.335 2.893-2.962 0-1.63-1.3-2.962-2.893-2.962"/>
            <path fill="#B7C7CF" d="M268.107 46.08h-14.01c-2 0-3.633 1.671-3.633 3.719v.423c0 2.042 1.633 3.716 3.633 3.716h14.01c1.997 0 3.633-1.674 3.633-3.716v-.423c0-2.048-1.636-3.72-3.633-3.72"/>
            <path fill="#FEFEFE" d="M268.007 47.049h-13.81c-1.593 0-2.89 1.331-2.89 2.959 0 1.63 1.297 2.965 2.89 2.965h13.81c1.59 0 2.89-1.335 2.89-2.965 0-1.628-1.3-2.96-2.89-2.96"/>
            <path fill="#B7C7CF" d="M268.39 52.972h-14.014c-1.997 0-3.632 1.671-3.632 3.716v.423c0 2.045 1.635 3.72 3.632 3.72h14.013c1.997 0 3.63-1.675 3.63-3.72v-.423c0-2.045-1.633-3.716-3.63-3.716"/>
            <path fill="#FEFEFE" d="M268.288 53.938h-13.81c-1.59 0-2.891 1.331-2.891 2.962 0 1.627 1.3 2.962 2.89 2.962h13.81c1.59 0 2.894-1.335 2.894-2.962 0-1.63-1.304-2.962-2.893-2.962"/>
            <path fill="#B7C7CF" d="M268.67 59.86h-14.013c-1.997 0-3.63 1.672-3.63 3.72v.422c0 2.045 1.633 3.72 3.63 3.72h14.013c1.997 0 3.633-1.675 3.633-3.72v-.422c0-2.048-1.636-3.72-3.633-3.72"/>
            <path fill="#FEFEFE" d="M268.568 60.83h-13.81c-1.59 0-2.89 1.331-2.89 2.959 0 1.63 1.3 2.964 2.89 2.964h13.81c1.593 0 2.894-1.334 2.894-2.964 0-1.628-1.301-2.96-2.894-2.96"/>
            <g>
                <path fill="#FFF" fill-rule="nonzero" stroke="#B7C7CF" d="M270 69.71c-5.337 0-9.68-4.56-9.68-10.164s4.343-10.163 9.68-10.163 9.68 4.56 9.68 10.163c0 5.604-4.343 10.163-9.68 10.163z"/>
                <path fill="#B7C7CF" d="M269.997 58.825c-.783 0-1.42-.579-1.42-1.29 0-.712.637-1.29 1.42-1.29.783 0 1.42.578 1.42 1.29 0 .374.289.677.645.677.356 0 .645-.303.645-.677 0-1.242-.88-2.286-2.065-2.57v-.351c0-.375-.289-.678-.645-.678-.356 0-.645.303-.645.678v.352c-1.184.283-2.065 1.327-2.065 2.569 0 1.458 1.216 2.645 2.71 2.645.783 0 1.42.579 1.42 1.29 0 .712-.637 1.29-1.42 1.29-.783 0-1.42-.578-1.42-1.29 0-.374-.289-.677-.645-.677-.356 0-.645.303-.645.677 0 1.242.88 2.286 2.065 2.57v.292c0 .374.289.678.645.678.356 0 .645-.304.645-.678v-.293c1.184-.283 2.065-1.327 2.065-2.569 0-1.458-1.216-2.645-2.71-2.645zM277.065 54.795a8.555 8.555 0 0 0-3.435-3.192.632.632 0 0 0-.86.317.693.693 0 0 0 .301.905c2.447 1.234 4.027 3.873 4.027 6.721a7.767 7.767 0 0 1-.827 3.496.695.695 0 0 0 .266.916c.097.054.2.08.303.08.23 0 .454-.13.57-.36a9.18 9.18 0 0 0 .979-4.132 9.102 9.102 0 0 0-1.324-4.751zM271.011 50.738h-.043c-.356 0-.645.303-.645.677 0 .375.289.678.645.678h.04c.355 0 .644-.301.646-.674.001-.375-.286-.68-.643-.681zM266.929 66.268c-2.446-1.235-4.027-3.874-4.027-6.722 0-1.219.286-2.427.827-3.495a.695.695 0 0 0-.266-.917.63.63 0 0 0-.873.28 9.18 9.18 0 0 0-.979 4.132c0 1.691.458 3.334 1.324 4.751a8.556 8.556 0 0 0 3.435 3.192c.09.045.185.067.279.067.24 0 .47-.142.582-.384a.693.693 0 0 0-.302-.904zM269.032 67h-.037c-.358-.002-.647.3-.648.673-.002.375.286.68.642.681h.043c.357 0 .645-.303.645-.677 0-.374-.288-.678-.645-.678z"/>
            </g>
        </g>
        <g>
            <path fill="#B7C7CF" d="M59.882 66.985h-17.94a4.66 4.66 0 0 0-4.648 4.65v.528a4.662 4.662 0 0 0 4.648 4.649h17.94c2.557 0 4.651-2.093 4.651-4.65v-.528a4.663 4.663 0 0 0-4.65-4.649"/>
            <path fill="#FEFEFE" d="M59.752 68.196H42.071a3.712 3.712 0 0 0-3.7 3.703 3.714 3.714 0 0 0 3.7 3.702h17.681a3.715 3.715 0 0 0 3.705-3.702 3.713 3.713 0 0 0-3.705-3.703"/>
            <path fill="#B7C7CF" d="M47.824 58.146H29.883a4.66 4.66 0 0 0-4.648 4.649v.528a4.662 4.662 0 0 0 4.648 4.65h17.94c2.558 0 4.652-2.094 4.652-4.65v-.528a4.663 4.663 0 0 0-4.651-4.649"/>
            <path fill="#FEFEFE" d="M47.694 59.357H30.012a3.712 3.712 0 0 0-3.7 3.703 3.714 3.714 0 0 0 3.7 3.702h17.682a3.715 3.715 0 0 0 3.704-3.702 3.713 3.713 0 0 0-3.704-3.703"/>
            <path fill="#B7C7CF" d="M60.242 75.6H42.304a4.66 4.66 0 0 0-4.65 4.649v.528c0 2.553 2.09 4.646 4.65 4.646h17.938c2.557 0 4.65-2.093 4.65-4.646v-.528a4.663 4.663 0 0 0-4.65-4.65"/>
            <path fill="#FEFEFE" d="M60.114 76.81H42.432a3.709 3.709 0 0 0-3.7 3.7 3.713 3.713 0 0 0 3.7 3.706h17.682c2.035 0 3.7-1.668 3.7-3.706 0-2.035-1.665-3.7-3.7-3.7"/>
            <path fill="#B7C7CF" d="M60.603 84.215h-17.94c-2.558 0-4.652 2.09-4.652 4.645v.529c0 2.555 2.094 4.649 4.651 4.649h17.94a4.662 4.662 0 0 0 4.648-4.65v-.528a4.66 4.66 0 0 0-4.647-4.645"/>
            <path fill="#FEFEFE" d="M60.473 85.422H42.79a3.712 3.712 0 0 0-3.7 3.703 3.714 3.714 0 0 0 3.7 3.702h17.682a3.717 3.717 0 0 0 3.704-3.702 3.715 3.715 0 0 0-3.704-3.703"/>
            <path fill="#B7C7CF" d="M60.962 92.826h-17.94a4.66 4.66 0 0 0-4.648 4.649v.528a4.662 4.662 0 0 0 4.647 4.65h17.941c2.557 0 4.651-2.094 4.651-4.65v-.528a4.663 4.663 0 0 0-4.65-4.65"/>
            <path fill="#FEFEFE" d="M60.832 94.037H43.151a3.711 3.711 0 0 0-3.701 3.699 3.715 3.715 0 0 0 3.7 3.706h17.682a3.715 3.715 0 0 0 3.704-3.706c0-2.035-1.665-3.7-3.704-3.7"/>
            <g>
                <path fill="#FFF" fill-rule="nonzero" stroke="#B7C7CF" d="M35.5 104.654c-6.671 0-12.1-5.428-12.1-12.1 0-6.67 5.429-12.098 12.1-12.098 6.672 0 12.1 5.427 12.1 12.099 0 6.671-5.428 12.1-12.1 12.1z"/>
                <path fill="#B7C7CF" d="M35.496 91.696c-.978 0-1.774-.689-1.774-1.535 0-.847.796-1.536 1.774-1.536.979 0 1.775.689 1.775 1.536a.807.807 0 0 0 1.613 0c0-1.479-1.101-2.721-2.581-3.059v-.42a.807.807 0 0 0-1.613 0v.42c-1.48.338-2.581 1.58-2.581 3.059 0 1.736 1.52 3.149 3.387 3.149.979 0 1.775.689 1.775 1.536 0 .847-.796 1.536-1.775 1.536-.978 0-1.774-.69-1.774-1.536a.807.807 0 0 0-1.613 0c0 1.478 1.1 2.72 2.58 3.058v.348a.807.807 0 0 0 1.614 0v-.348c1.48-.337 2.581-1.58 2.581-3.058 0-1.737-1.52-3.15-3.388-3.15zM44.331 86.899a10.51 10.51 0 0 0-4.293-3.8.807.807 0 1 0-.699 1.454 8.926 8.926 0 0 1 5.034 8.002 8.89 8.89 0 0 1-1.034 4.161.807.807 0 1 0 1.424.758 10.507 10.507 0 0 0 1.223-4.92c0-2.012-.572-3.968-1.655-5.655zM36.764 82.069h-.054a.807.807 0 0 0 0 1.613h.05a.807.807 0 0 0 .004-1.613zM31.661 100.557a8.926 8.926 0 0 1-5.034-8.002c0-1.451.358-2.89 1.035-4.161a.807.807 0 1 0-1.425-.758 10.507 10.507 0 0 0-1.223 4.919c0 2.013.572 3.97 1.655 5.656a10.51 10.51 0 0 0 4.293 3.8.807.807 0 0 0 .699-1.454zM34.29 101.428h-.046a.806.806 0 1 0-.008 1.613h.054a.807.807 0 0 0 0-1.613z"/>
            </g>
        </g>
    </g>
</svg>
