<svg xmlns="http://www.w3.org/2000/svg" width="365" height="176" viewBox="0 0 365 176">
    <g fill="none" fill-rule="evenodd">
        <g fill="#D9E4EA" opacity=".509" transform="translate(0 10)">
            <rect width="67" height="13" x="20" y="119" rx="6.5"/>
            <rect width="162" height="18" x="148" rx="8"/>
            <rect width="116" height="13" x="90" y="23" rx="6.5"/>
            <rect width="306" height="18" y="43" rx="8"/>
            <rect width="168" height="18" x="197" y="73" rx="8"/>
            <rect width="106" height="18" x="197" y="123" rx="8"/>
            <rect width="205" height="18" x="141" y="148" rx="8"/>
            <rect width="222" height="13" x="33" y="96" rx="6.5"/>
        </g>
        <g transform="translate(19 19)">
            <path fill="#858C8F" d="M246.784 44l-.784-.784L248.216 41l.784.784L246.784 44zm-3.568 0L241 41.784l.784-.784L244 43.216l-.784.784zm3.568 2L249 48.216l-.784.784L246 46.784l.784-.784zm-3.568 0l.784.784L241.784 49l-.784-.784L243.216 46z"/>
            <circle cx="32" cy="32" r="4" stroke="#858C8F" stroke-width="2"/>
            <path fill="#858C8F" d="M0 136v-2h15v2H0zm12 5v-2h12v2H12zm5-5v-2h6v2h-6zm-11 5v-2h5v2H6zM260 2V0h13v2h-13zm10 6V6h11v2h-11zm4-6V0h6v2h-6zm-10 6V6h4v2h-4z"/>
        </g>
        <g stroke="#17C9B2" transform="rotate(-20 374.853 -81.43)">
            <circle cx="20.918" cy="21.755" r="20.918" fill="#17C9B2" stroke-width=".5" transform="matrix(-1 0 0 1 41.837 0)"/>
            <circle cx="20.918" cy="21.755" r="16.735" fill="#FFF" stroke-width=".5"/>
            <path stroke-linecap="square" stroke-width=".5" d="M6.276 6.276l-.837-.837M7.112 5.439l-.836-.837"/>
            <path fill="#FFF" d="M3.347 6.694L1.673 5.02c0-.557.28-1.115.837-1.673L5.02.837c.558-.558 1.116-.558 1.674 0L8.367 2.51l-5.02 4.184z"/>
            <path stroke-linecap="square" stroke-width=".5" d="M6.276 6.276l-.837-.837M7.112 5.439l-.836-.837"/>
            <path fill="#FFF" d="M38.49 6.694l1.673-1.674c0-.557-.279-1.115-.836-1.673l-2.51-2.51c-.559-.558-1.116-.558-1.674 0L33.469 2.51l5.02 4.184z"/>
            <path stroke-linecap="square" stroke-width=".5" d="M35.561 6.276l.837-.837M34.724 5.439l.837-.837M26.669 11.225l-.081.174-.348-.162.081-.174.973-2.086.081-.174.348.162-.081.174-.973 2.086zm4.11 3.76l-.18.065-.13-.36.18-.066 2.039-.742.18-.066.131.36-.18.067-2.04.742zm2.227 6.118l-.18.065-.131-.36.18-.066 2.04-.742.18-.066.131.36-.18.066-2.04.743zm-1.025 5.51l-.174-.082.162-.348.174.082 2.086.972.174.081-.162.348-.174-.081-2.086-.973zm-4.068 4.84l-.1-.164.328-.2.1.164 1.437 2.364.1.164-.328.199-.1-.164-1.437-2.363zm-6.134 2.192l-.066-.18.36-.131.066.18.743 2.04.065.18-.36.13-.066-.18-.742-2.039zm-5.51-1.026l.081-.173.348.162-.081.174-.973 2.086-.08.174-.349-.163.081-.173.973-2.087zm-6.714-2.98l-.18.065-.131-.36.18-.066 2.039-.743.18-.065.131.36-.18.066-2.039.742zM7.328 23.52l-.18.066-.131-.36.18-.066 2.04-.742.18-.066.13.36-.18.066-2.039.742zm1.01-7.933l-.174-.08.162-.348.174.08 2.086.974.174.08-.162.348-.174-.08-2.086-.974zm6.008-3.485l.066.18-.36.131-.066-.18-.743-2.04-.065-.18.36-.13.066.18.742 2.039zm6.13-2.167l.005.192-.384.01-.005-.191-.047-1.715-.005-.192.383-.01.005.191.047 1.715z"/>
            <path d="M20.819 13.043l.46 8.773.46 8.774"/>
        </g>
        <g stroke="#8459B9">
            <path fill="#FFF" d="M95.925 148H79c.627 4.2 2.194 6.9 4.701 8.1 2.508 1.2 61.747 1.2 177.717 0 4.388-1.2 6.582-3.9 6.582-8.1h-20.687"/>
            <path fill="#FFF" d="M95.5 68.5h161v80h-161z"/>
            <path fill="#EBF1F4" d="M101.5 73.5h149v70h-149z" opacity=".8"/>
            <path d="M154 149c.667 2 1.667 3 3 3h40c2-.667 3-1.667 3-3h-46z"/>
        </g>
        <path stroke="#17C9B2" d="M159 121c1.514-8 6.054-12 13.622-12 7.567 0 12.36 3.5 14.378 10.5"/>
        <g transform="rotate(22 115.145 444.13)">
            <path fill="#FFF" stroke="#17C9B2" stroke-width="2" d="M22 77.856C9.86 82.475 3.031 89.146 1.514 97.87c-.76 2.31-6.07-26.942 9.105-33.87M44 77.856c12.14 4.619 18.969 11.29 20.486 20.014.76 2.31 6.07-26.942-9.105-33.87"/>
            <path fill="#FFF" stroke="#17C9B2" stroke-width="2" d="M32.736 84C14.912 74.327 6 60.327 6 42S14.912 9.673 32.736 0C51.58 9.673 61 23.673 61 42s-9.421 32.327-28.264 42z"/>
            <path stroke="#17C9B2" d="M17 12c10.927 4 21.593 4 32 0"/>
            <circle cx="33" cy="38" r="10" fill="#17C9B2"/>
        </g>
        <path stroke="#17C9B2" d="M168 79v55.169c0 2.554-1.5 3.831-4.5 3.831s-4.5-.766-4.5-2.299M173 83l1 50M179 82v44.797c.485 1.469 1.697 2.203 3.636 2.203 1.94 0 3.394-.734 4.364-2.203M114 141c0-8.08 4.384-12.374 13.15-12.879.775 0 1.548-12.121 13.925-12.121 7.22.505 11.862 3.283 13.925 8.333M127 144c0-4.615 1.302-7.692 3.906-9.23 3.906-2.308 7.813-2.26 10.938.768 2.344 3.077-1.563-2.307 3.125-6.153 2.083-1.539 4.427-1.795 7.031-.77M232 141c0-8.08-4.384-12.374-13.15-12.879-.775 0-1.548-12.121-13.925-12.121-7.22.505-11.862 3.283-13.925 8.333"/>
        <path stroke="#17C9B2" d="M225 144c0-4.615-1.302-7.692-3.906-9.23-3.906-2.308-7.813-2.26-10.938.768-2.344 3.077 1.563-2.307-3.125-6.153-2.083-1.539-4.427-1.795-7.031-.77"/>
        <g transform="translate(280 121)">
            <path fill="#FCFCFC" stroke="#8459B9" d="M0 3.208v46.515C4.267 52.574 11.022 54 20.267 54c9.244 0 16.533-1.426 21.866-4.277v-7.485C51.378 40.455 56 35.733 56 28.069c0-11.495-6.4-16.307-13.867-16.307V3.208C41.067 1.069 33.778 0 20.267 0S0 1.07 0 3.208z"/>
            <path fill="#FFF" stroke="#8459B9" d="M42 16v20c6.667-.702 10-3.86 10-9.474 0-5.614-3.333-9.122-10-10.526zM0 3c2.481 2 9.924 3 22.33 3C34.733 6 41.29 5 42 3c-2.127-2-9.127-3-21-3C7.709 0 .709 1 0 3z"/>
            <ellipse cx="7" cy="33.5" fill="#E5A9CA" rx="2" ry="2.5"/>
            <ellipse cx="34" cy="33.5" fill="#E5A9CA" rx="2" ry="2.5"/>
            <circle cx="13" cy="26" r="2" fill="#8459B9"/>
            <circle cx="28" cy="26" r="2" fill="#8459B9"/>
            <path fill="#8459B9" stroke="#8459B9" d="M15.676 34h10.648c.676 0 .845.545.507 1.636C26.324 37 25.31 40 21.254 40c-4.057 0-5.427-3.656-6.085-4.364-.338-.727-.169-1.272.507-1.636z"/>
        </g>
    </g>
</svg>
