<svg width="265" height="145" viewBox="0 0 265 145" fill="none" xmlns="http://www.w3.org/2000/svg">
<g id="ilustracao_empty_global">
<g id="ilustracao">
<rect id="Rectangle" x="11.0264" y="134.643" width="253.288" height="10.2784" fill="url(#paint0_linear)"/>
<g id="bg">
<path id="Path" fill-rule="evenodd" clip-rule="evenodd" d="M73.5345 95.3646L116.211 95.3646L84.1719 28.8354L41.252 28.8354L73.5345 95.3646Z" fill="#ECECEC"/>
<path id="Path Copy 2" fill-rule="evenodd" clip-rule="evenodd" d="M121.895 95.3646L164.594 96.0619L132.532 28.8354L89.6123 28.8354L121.895 95.3646Z" fill="#ECECEC"/>
<path id="Path_2" fill-rule="evenodd" clip-rule="evenodd" d="M25.3143 95.311L68.4545 95.3428L36.4156 28.8354L26.139 28.8354L25.3143 95.311Z" fill="#ECECEC"/>
<path id="Path_3" fill-rule="evenodd" clip-rule="evenodd" d="M185.124 28.8354L217.151 95.3332L239.53 95.3332L239.53 28.8354L185.124 28.8354Z" fill="#ECECEC"/>
<path id="Path Copy" fill-rule="evenodd" clip-rule="evenodd" d="M168.803 95.3428L211.723 95.3428L179.684 28.8418L137.226 28.8418L168.803 95.3428Z" fill="#ECECEC"/>
<g id="planta">
<path id="Path_4" fill-rule="evenodd" clip-rule="evenodd" d="M253.008 127.731C250.386 131.571 251.105 136.455 251.105 136.455C251.105 136.455 256.073 135.113 258.694 131.273C261.315 127.433 260.597 122.549 260.597 122.549C260.597 122.549 255.629 123.891 253.008 127.731Z" fill="#E5E5E5"/>
<path id="Path_5" fill-rule="evenodd" clip-rule="evenodd" d="M244.199 127.2C245.65 132.543 250.619 135.852 250.619 135.852C250.619 135.852 253.237 130.498 251.786 125.156C250.335 119.813 245.365 116.504 245.365 116.504C245.365 116.504 242.748 121.858 244.199 127.2Z" fill="#F2F2F2" stroke="#676578"/>
<path id="Path_6" fill-rule="evenodd" clip-rule="evenodd" d="M246.519 126.713C250.526 130.553 251.015 136.456 251.015 136.456C251.015 136.456 245.009 136.134 241.002 132.293C236.996 128.453 236.507 122.55 236.507 122.55C236.507 122.55 242.513 122.873 246.519 126.713Z" fill="#65A300"/>
</g>
<g id="arvore">
<path id="Oval" fill-rule="evenodd" clip-rule="evenodd" d="M22.2106 97.7612C25.0484 97.7612 27.3489 95.4603 27.3489 92.622C27.3489 89.7837 25.0484 87.4828 22.2106 87.4828C19.3728 87.4828 17.0723 89.7837 17.0723 92.622C17.0723 95.4603 19.3728 97.7612 22.2106 97.7612Z" fill="#FF6584"/>
<path id="Path_7" fill-rule="evenodd" clip-rule="evenodd" d="M46.6922 111.773C46.6922 123.795 39.6553 127.992 30.975 127.992C22.2946 127.992 15.2578 123.795 15.2578 111.773C15.2578 99.7524 30.975 84.4597 30.975 84.4597C30.975 84.4597 46.6922 99.7524 46.6922 111.773Z" fill="#E1E1E1"/>
<path id="Path_8" fill-rule="evenodd" clip-rule="evenodd" d="M30.7017 125.487L30.8642 115.441L37.6253 103.013L30.8897 113.865L30.9627 109.348L35.6225 100.357L30.982 108.153L31.1134 100.029L36.1032 92.8706L31.1341 98.7515L31.2161 83.8551L30.7003 103.575L30.7427 102.762L25.6696 94.9596L30.6614 104.323L30.1887 113.396L30.1746 113.156L24.3262 104.945L30.1569 114.006L30.0978 115.141L30.0872 115.158L30.092 115.251L28.8928 138.27H30.4951L30.6873 126.38L36.5037 117.341L30.7017 125.487Z" fill="#3F3D56"/>
</g>
</g>
<g id="pessoa">
<path id="Oval_2" fill-rule="evenodd" clip-rule="evenodd" d="M215.35 43.9507C219.356 43.9507 222.604 40.7024 222.604 36.6954C222.604 32.6883 219.356 29.44 215.35 29.44C211.343 29.44 208.096 32.6883 208.096 36.6954C208.096 40.7024 211.343 43.9507 215.35 43.9507Z" fill="#2F2E41"/>
<path id="Path_9" fill-rule="evenodd" clip-rule="evenodd" d="M223.611 128.774L225.022 134.643H221.596L220.186 127.992L223.611 128.774Z" fill="#A78185"/>
<path id="Path_10" fill-rule="evenodd" clip-rule="evenodd" d="M207.49 128.596V134.239L203.863 134.643V128.596H207.49Z" fill="#A78185"/>
<path id="Path_11" fill-rule="evenodd" clip-rule="evenodd" d="M224.417 65.3131C224.417 65.3131 224.014 73.9795 223.611 74.5841C223.208 75.1887 219.581 83.8551 219.581 83.8551L217.768 78.2119C217.768 78.2119 220.589 73.5764 220.186 70.9563C219.783 68.3362 220.036 65.1121 220.036 65.1121L224.417 65.3131Z" fill="#A78185"/>
<path id="Oval_3" fill-rule="evenodd" clip-rule="evenodd" d="M212.931 44.5553C215.936 44.5553 218.371 42.119 218.371 39.1138C218.371 36.1085 215.936 33.6722 212.931 33.6722C209.926 33.6722 207.49 36.1085 207.49 39.1138C207.49 42.119 209.926 44.5553 212.931 44.5553Z" fill="#A78185"/>
<path id="Path_12" fill-rule="evenodd" clip-rule="evenodd" d="M217.68 39.7184C217.68 39.7184 217.487 47.6229 218.839 48.8086C220.19 49.9943 211.117 49.0062 211.117 49.0062C211.117 49.0062 213.048 43.473 211.503 42.2874C209.959 41.1017 217.68 39.7184 217.68 39.7184Z" fill="#A78185"/>
<path id="Path_13" fill-rule="evenodd" clip-rule="evenodd" d="M210.406 48.971C210.406 48.971 211.607 46.7881 213.208 46.9865C214.81 47.185 220.014 47.5818 220.214 47.9787C220.414 48.3756 221.015 49.7648 221.415 50.1616C221.816 50.5585 224.818 51.1539 225.018 53.5352C225.218 55.9166 217.812 70.4031 217.812 70.4031C217.812 70.4031 218.813 73.7767 218.613 74.5705C218.413 75.3643 219.614 77.7456 219.414 78.7378C219.213 79.7301 222.416 85.6834 220.815 93.4228V105.925C220.815 105.925 226.219 127.556 224.618 129.143C223.016 130.731 217.612 129.738 216.611 129.143C215.61 128.548 211.407 98.5824 211.407 98.5824L209.405 88.4617L209.205 110.688C209.205 110.688 209.606 129.342 208.204 129.937C206.803 130.532 201.399 130.731 200.998 129.54C200.686 128.611 199.156 103.903 198.498 93.0723C198.27 89.3338 198.567 85.5821 199.38 81.9245C200.213 78.1783 201.422 73.777 202.8 71.9907C205.402 68.6171 207.003 57.901 207.003 57.901L203.601 51.7492C203.601 51.7492 205.602 49.7648 206.803 49.7648C208.004 49.7648 210.406 48.971 210.406 48.971Z" fill="#CCD6F8"/>
<path id="Path_14" fill-rule="evenodd" clip-rule="evenodd" d="M223.208 51.206L225.021 52.4152C225.021 52.4152 225.395 65.1045 224.783 65.8865C224.171 66.6685 219.918 66.2869 219.598 65.5979C219.277 64.909 223.208 51.206 223.208 51.206Z" fill="#AAB5DC"/>
<path id="Path_15" fill-rule="evenodd" clip-rule="evenodd" d="M205.842 63.201C206.416 67.2396 206.919 70.8348 203.986 74.0872C201.038 77.3789 197.713 80.3014 194.082 82.7927C193.723 83.7598 188.441 90.8618 188.173 88.0289C187.904 85.196 189.729 82.9751 192.322 80.5795C194.915 78.1839 198.542 72.9861 200.589 70.1341C202.636 67.2821 201.793 65.5036 201.722 63.1213C201.651 60.7391 205.038 63.2298 205.842 63.201Z" fill="#A78185"/>
<path id="Path_16" fill-rule="evenodd" clip-rule="evenodd" d="M203.701 131.015C203.701 131.015 203.498 133.184 202.889 133.765C202.28 134.347 200.656 135.121 200.859 137.252C201.062 139.383 202.382 139.479 202.382 139.479L202.28 138.995L202.889 139.189L202.991 139.479H208.675C208.675 139.479 208.777 137.446 208.574 136.477C208.37 135.509 208.37 130.86 207.761 131.054C207.152 131.247 205.528 131.441 205.122 132.216C204.716 132.991 203.498 132.719 203.701 131.015Z" fill="#2F2E41"/>
<path id="Path_17" fill-rule="evenodd" clip-rule="evenodd" d="M223.976 131.015C223.976 131.015 224.179 133.184 224.788 133.765C225.397 134.347 227.021 135.121 226.818 137.252C226.615 139.383 225.295 139.479 225.295 139.479L225.397 138.995L224.788 139.189L224.686 139.479H219.002C219.002 139.479 218.9 137.446 219.103 136.477C219.306 135.509 219.306 130.86 219.915 131.054C220.524 131.247 222.149 131.441 222.555 132.216C222.961 132.991 224.179 132.719 223.976 131.015Z" fill="#2F2E41"/>
<path id="Path_18" fill-rule="evenodd" clip-rule="evenodd" d="M206.282 49.3922L203.26 51.8106C203.26 51.8106 203.389 56.0781 202.588 57.832C201.788 59.586 200.387 63.6785 200.987 63.8734C201.588 64.0683 207.191 66.7967 207.591 65.2376C207.991 63.6785 209.084 49.3922 206.282 49.3922Z" fill="#AAB5DC"/>
<path id="Oval_4" fill-rule="evenodd" clip-rule="evenodd" d="M223.813 34.2769C227.819 34.2769 231.067 31.0285 231.067 27.0215C231.067 23.0145 227.819 19.7662 223.813 19.7662C219.806 19.7662 216.559 23.0145 216.559 27.0215C216.559 31.0285 219.806 34.2769 223.813 34.2769Z" fill="#2F2E41"/>
<path id="Path_19" fill-rule="evenodd" clip-rule="evenodd" d="M229.616 33.455C227.704 34.8835 225.24 35.2659 223.006 34.4808C220.772 33.6957 219.045 31.8405 218.371 29.5032C218.714 32.3177 220.558 34.6942 223.142 35.6502C225.726 36.6063 228.611 35.9795 230.604 34.029C232.597 32.0785 233.359 29.1357 232.576 26.4169C232.909 29.1457 231.774 31.8444 229.616 33.455Z" fill="#2F2E41"/>
<path id="Oval_5" fill-rule="evenodd" clip-rule="evenodd" d="M217.767 43.346C220.771 43.346 223.207 40.9098 223.207 37.9045C223.207 34.8993 220.771 32.463 217.767 32.463C214.762 32.463 212.326 34.8993 212.326 37.9045C212.326 40.9098 214.762 43.346 217.767 43.346Z" fill="#2F2E41"/>
<path id="Oval_6" fill-rule="evenodd" clip-rule="evenodd" d="M212.932 39.7184C215.603 39.7184 217.768 38.0942 217.768 36.0907C217.768 34.0872 215.603 32.463 212.932 32.463C210.261 32.463 208.096 34.0872 208.096 36.0907C208.096 38.0942 210.261 39.7184 212.932 39.7184Z" fill="#2F2E41"/>
<path id="Oval_7" fill-rule="evenodd" clip-rule="evenodd" d="M212.024 41.5322C212.525 41.5322 212.931 40.8555 212.931 40.0207C212.931 39.1859 212.525 38.5092 212.024 38.5092C211.523 38.5092 211.117 39.1859 211.117 40.0207C211.117 40.8555 211.523 41.5322 212.024 41.5322Z" fill="#A78185"/>
</g>
</g>
<g id="v1">
<g id="Group" opacity="0.5">
<rect id="Rectangle_2" x="87.8848" y="16.2799" width="55.0986" height="74.598" fill="url(#paint1_linear)"/>
</g>
<rect id="Rectangle_3" x="87.8662" y="17.4579" width="53.9549" height="71.6376" fill="#F2F2F2"/>
<rect id="Rectangle_4" x="92.7158" y="20.4678" width="18.7933" height="0.601996" fill="#E0E0E0"/>
<rect id="Rectangle_5" opacity="0.7" x="92.7158" y="22.8759" width="18.7933" height="0.601996" fill="#65A300"/>
<rect id="Rectangle_6" x="113.328" y="20.4678" width="18.7933" height="0.601996" fill="#E0E0E0"/>
<rect id="Rectangle_7" x="116.966" y="36.7218" width="18.7933" height="0.601996" fill="#E0E0E0"/>
<rect id="Rectangle_8" x="116.966" y="38.5277" width="18.7933" height="0.601996" fill="#E0E0E0"/>
<rect id="Rectangle_9" x="117.571" y="39.7318" width="18.7933" height="0.601996" fill="#E0E0E0"/>
<rect id="Rectangle_10" x="116.966" y="62.6076" width="18.7933" height="0.601996" fill="#E0E0E0"/>
<rect id="Rectangle_11" x="116.966" y="63.8116" width="18.7933" height="0.601996" fill="#E0E0E0"/>
<rect id="Rectangle_12" x="117.571" y="65.0156" width="18.7933" height="0.601996" fill="#E0E0E0"/>
<g id="Group_2" opacity="0.5">
<rect id="Rectangle_13" x="92.7197" y="30.722" width="19.9831" height="20.3617" fill="url(#paint2_linear)"/>
</g>
<rect id="Rectangle_14" x="92.7158" y="31.3038" width="19.3995" height="19.2639" fill="#F5F5F5"/>
<g id="Group_3" opacity="0.5">
<rect id="Rectangle_15" x="93.3887" y="32.5091" width="18.0386" height="12.5706" fill="url(#paint3_linear)"/>
</g>
<rect id="e1f34465-d008-41db-868b-e00503fb87b3" x="93.9277" y="32.5078" width="17.5808" height="12.0399" fill="white"/>
<g id="Clipped">
<mask id="mask0" mask-type="alpha" maskUnits="userSpaceOnUse" x="115" y="39" width="19" height="13">
<rect id="cf34cfb5-9399-4bae-9cea-d47bbef6cb3a" x="115.82" y="39.8203" width="18.0353" height="11.9085" fill="white"/>
</mask>
<g mask="url(#mask0)">
<g id="Group_4">
<path id="Path_20" opacity="0.4" fill-rule="evenodd" clip-rule="evenodd" d="M91.8397 43.861L96.3814 36.9736L98.2854 39.9861L102.387 35.8261L105.903 39.9861L108.978 33.8174L116.888 46.1559L91.2539 45.2947L91.8397 43.861Z" fill="#65A300"/>
</g>
</g>
</g>
<g id="Group_5" opacity="0.5">
<rect id="Rectangle_16" x="92.7197" y="56.0948" width="19.9831" height="20.2368" fill="url(#paint4_linear)"/>
</g>
<rect id="Rectangle_17" x="92.7158" y="56.5876" width="19.3995" height="19.2639" fill="#F5F5F5"/>
<g id="Group_6" opacity="0.5">
<rect id="Rectangle_18" x="93.3887" y="57.8809" width="18.0386" height="12.4473" fill="url(#paint5_linear)"/>
</g>
<rect id="c95ac4f6-be4d-44a3-92c2-5c8066e2b531" x="93.9277" y="57.7917" width="17.5808" height="12.0399" fill="white"/>
<g id="Clipped_2">
<mask id="mask1" mask-type="alpha" maskUnits="userSpaceOnUse" x="115" y="65" width="19" height="13">
<rect id="7439734d-5f7c-428f-88ce-e68b86a45c07" x="115.82" y="65.6692" width="18.0353" height="11.9085" fill="white"/>
</mask>
<g mask="url(#mask1)">
<g id="Group_7">
<path id="Path_21" opacity="0.4" fill-rule="evenodd" clip-rule="evenodd" d="M91.8397 69.71L96.3814 62.8226L98.2854 65.8363L102.387 61.6751L105.903 65.8363L108.978 59.6664L116.888 72.0049L91.2539 71.1449L91.8397 69.71Z" fill="#BDBDBD"/>
</g>
</g>
</g>
<g id="Group_8" opacity="0.5">
<path id="Rectangle_19" fill-rule="evenodd" clip-rule="evenodd" d="M96.0208 85.1763L109.784 12.6956L163.404 23.8248L149.641 96.3055L96.0208 85.1763Z" fill="url(#paint6_linear)"/>
</g>
<path id="Rectangle_20" fill-rule="evenodd" clip-rule="evenodd" d="M96.7285 84.0967L110.767 13.657L163.534 24.1137L149.496 94.5534L96.7285 84.0967Z" fill="white"/>
<path id="Rectangle_21" fill-rule="evenodd" clip-rule="evenodd" d="M113.955 17.6681L151.403 25.0891L151.29 25.6547L113.842 18.2337L113.955 17.6681Z" fill="#E0E0E0"/>
<path id="Rectangle_22" fill-rule="evenodd" clip-rule="evenodd" d="M103.299 71.1353L140.748 78.5563L140.635 79.1219L103.187 71.7009L103.299 71.1353Z" fill="#E0E0E0"/>
<path id="Rectangle_23" fill-rule="evenodd" clip-rule="evenodd" d="M102.649 74.3873L131.587 80.1217L131.474 80.6874L102.537 74.953L102.649 74.3873Z" fill="#E0E0E0"/>
<path id="Rectangle_24" opacity="0.7" fill-rule="evenodd" clip-rule="evenodd" d="M102.002 77.6416L112.782 79.7778L112.669 80.3434L101.889 78.2072L102.002 77.6416Z" fill="#65A300"/>
<path id="Rectangle_25" opacity="0.7" fill-rule="evenodd" clip-rule="evenodd" d="M113.305 20.922L132.029 24.6323L131.916 25.198L113.193 21.4876L113.305 20.922Z" fill="#65A300"/>
<path id="Rectangle_26" fill-rule="evenodd" clip-rule="evenodd" d="M112.659 24.1748L146.419 30.8648L146.306 31.4304L112.546 24.7405L112.659 24.1748Z" fill="#E0E0E0"/>
<path id="Rectangle_27" opacity="0.7" fill-rule="evenodd" clip-rule="evenodd" d="M112.01 27.4287L120.237 29.0589L120.124 29.6246L111.897 27.9943L112.01 27.4287Z" fill="#3AD29F"/>
<path id="Rectangle_28" fill-rule="evenodd" clip-rule="evenodd" d="M111.362 30.6819L148.81 38.1029L148.698 38.6685L111.249 31.2476L111.362 30.6819Z" fill="#E0E0E0"/>
<g id="Group_9" opacity="0.5">
<path id="Rectangle_29" fill-rule="evenodd" clip-rule="evenodd" d="M110.311 63.5952L114.177 44.1387L147.814 50.8103L143.947 70.2669L110.311 63.5952Z" fill="url(#paint7_linear)"/>
</g>
<path id="Rectangle_30" fill-rule="evenodd" clip-rule="evenodd" d="M114.852 44.607L148.045 51.1846L144.296 69.9966L111.103 63.419L114.852 44.607Z" fill="white"/>
<path id="Rectangle_31" fill-rule="evenodd" clip-rule="evenodd" d="M110.713 33.9362L148.162 41.3572L148.049 41.9228L110.601 34.5018L110.713 33.9362Z" fill="#E0E0E0"/>
<path id="Rectangle_32" fill-rule="evenodd" clip-rule="evenodd" d="M117.821 47.8418L121.934 48.657L119.2 62.3773L115.086 61.562L117.821 47.8418Z" fill="#65A300"/>
<path id="Rectangle_33" fill-rule="evenodd" clip-rule="evenodd" d="M124.294 53.83L128.408 54.6453L126.575 63.8393L122.461 63.0241L124.294 53.83Z" fill="#3AD29F"/>
<path id="Rectangle_34" fill-rule="evenodd" clip-rule="evenodd" d="M130.825 59.5354L134.939 60.3506L133.953 65.3007L129.839 64.4855L130.825 59.5354Z" fill="#F55F44"/>
<path id="Rectangle_35" fill-rule="evenodd" clip-rule="evenodd" d="M139.217 55.9049L143.331 56.7201L141.329 66.7632L137.215 65.948L139.217 55.9049Z" fill="#FDD835"/>
<path id="Shape" fill-rule="evenodd" clip-rule="evenodd" d="M141.851 37.9263C147.055 37.9654 152.022 40.0943 155.628 43.831C162.123 50.5616 162.831 60.9661 157.307 68.5082L171.264 82.9733C171.624 83.3462 171.613 83.939 171.238 84.2976L167.76 87.63C167.385 87.9885 166.79 87.9769 166.43 87.6041L152.469 73.1377C144.651 78.3657 134.189 77.2155 127.703 70.415C120.554 62.9183 120.677 50.9649 127.987 43.6237C131.649 39.9415 136.648 37.8873 141.851 37.9263ZM131.748 66.707C137.035 72.1858 145.78 72.3573 151.28 67.09C153.921 64.5604 155.445 61.0891 155.517 57.4399C155.589 53.7906 154.203 50.2623 151.664 47.6312C146.376 42.1526 137.632 41.9815 132.132 47.2491C126.633 52.5166 126.461 61.2281 131.748 66.707Z" fill="url(#paint8_linear)"/>
<path id="Path_22" fill-rule="evenodd" clip-rule="evenodd" d="M130.908 52.9757C129.294 52.9757 129.291 55.3837 130.908 55.3837C132.526 55.3837 132.526 52.9757 130.908 52.9757Z" fill="url(#paint9_linear)"/>
<path id="Path_23" fill-rule="evenodd" clip-rule="evenodd" d="M141.562 45.1527C137.422 45.0606 133.655 47.1132 131.652 50.2123C130.998 51.2235 132.854 52.117 133.504 51.1107C135.163 48.5451 138.314 46.9156 141.723 47.0005C145.295 47.089 148.545 49.1089 150.266 51.9121C150.919 52.9755 152.63 52.0091 151.983 50.9519C149.891 47.557 145.838 45.2533 141.562 45.1527Z" fill="url(#paint10_linear)"/>
<path id="Shape_2" fill-rule="evenodd" clip-rule="evenodd" d="M143.065 36.7223C148.268 36.7614 153.236 38.8903 156.842 42.627C163.335 49.3587 164.041 59.7623 158.516 67.3029L172.477 81.7693C172.837 82.1422 172.826 82.7351 172.451 83.0936L168.972 86.4261C168.598 86.7845 168.003 86.7729 167.643 86.4001L153.683 71.9325C145.865 77.1608 135.402 76.0111 128.916 69.2111C121.766 61.7144 121.89 49.7609 129.2 42.4197C132.863 38.7375 137.862 36.6833 143.065 36.7223ZM132.961 65.4931C138.248 70.972 146.993 71.1435 152.493 65.8762C155.134 63.3466 156.658 59.8753 156.73 56.226C156.802 52.5767 155.416 49.0484 152.877 46.4174C147.589 40.9388 138.844 40.7677 133.345 46.0352C127.845 51.3028 127.673 60.0143 132.961 65.4931Z" fill="#65A300"/>
<path id="Path_24" fill-rule="evenodd" clip-rule="evenodd" d="M132.727 51.7717C131.112 51.7717 131.109 54.1797 132.727 54.1797C134.344 54.1797 134.344 51.7717 132.727 51.7717Z" fill="#65A300"/>
<path id="Path_25" fill-rule="evenodd" clip-rule="evenodd" d="M143.381 44.5507C139.241 44.4586 135.474 46.5112 133.471 49.6103C132.818 50.6215 134.674 51.5151 135.324 50.5087C136.982 47.9432 140.133 46.3136 143.542 46.3985C147.114 46.487 150.364 48.5069 152.085 51.3101C152.738 52.3735 154.449 51.4071 153.803 50.3499C151.706 46.9453 147.658 44.6416 143.381 44.5507Z" fill="#65A300"/>
<rect id="Rectangle_36" x="83.0156" y="81.8715" width="0.606235" height="2.40798" fill="#47E6B1"/>
<path id="Rectangle_37" fill-rule="evenodd" clip-rule="evenodd" d="M84.5322 82.8594V83.2916H82.1073V82.8594H84.5322Z" fill="#47E6B1"/>
<path id="Path_26" fill-rule="evenodd" clip-rule="evenodd" d="M139.796 1.22133C139.487 1.08786 139.329 0.745488 139.427 0.425695C139.435 0.401801 139.439 0.377099 139.441 0.352111C139.451 0.206192 139.363 0.071149 139.225 0.0204548C139.087 -0.0302394 138.932 0.015542 138.844 0.132891C138.829 0.152833 138.817 0.174445 138.807 0.197277C138.673 0.503951 138.328 0.661615 138.007 0.563666C137.983 0.556166 137.958 0.551534 137.933 0.549869C137.785 0.539248 137.648 0.627639 137.597 0.766292C137.546 0.904946 137.595 1.06011 137.715 1.14621C137.735 1.16096 137.757 1.17331 137.78 1.183C138.089 1.31646 138.247 1.65884 138.149 1.97863C138.141 2.00253 138.136 2.02723 138.135 2.05222C138.123 2.20023 138.212 2.33784 138.353 2.38832C138.493 2.43881 138.65 2.38969 138.736 2.26837C138.751 2.24843 138.764 2.22682 138.773 2.20398C138.908 1.89731 139.252 1.73965 139.574 1.8376C139.598 1.8451 139.623 1.84973 139.648 1.85139C139.795 1.86137 139.931 1.774 139.982 1.6368C140.033 1.49961 139.986 1.34542 139.868 1.25812C139.846 1.24282 139.822 1.23045 139.796 1.22133Z" fill="#4D8AF0"/>
<path id="Path_27" fill-rule="evenodd" clip-rule="evenodd" d="M85.8488 19.2846C85.5391 19.1508 85.3798 18.8075 85.4788 18.4868C85.4863 18.4628 85.491 18.438 85.4927 18.413C85.5028 18.2666 85.4145 18.1312 85.276 18.0804C85.1374 18.0296 84.9817 18.0755 84.8936 18.1931C84.8787 18.2131 84.8662 18.2348 84.8564 18.2577C84.7216 18.5652 84.3759 18.7233 84.0529 18.6251C84.0288 18.6176 84.0039 18.613 83.9786 18.6113C83.8313 18.6013 83.6949 18.6889 83.6437 18.8265C83.5925 18.9641 83.6387 19.1187 83.7572 19.2062C83.7774 19.221 83.7992 19.2334 83.8223 19.2431C84.132 19.377 84.2912 19.7203 84.1923 20.041C84.1847 20.0649 84.18 20.0897 84.1783 20.1148C84.1683 20.2611 84.2565 20.3965 84.395 20.4473C84.5336 20.4982 84.6893 20.4523 84.7775 20.3346C84.7924 20.3146 84.8048 20.2929 84.8146 20.27C84.9494 19.9625 85.2951 19.8044 85.6181 19.9026C85.6422 19.9101 85.6672 19.9148 85.6924 19.9165C85.8398 19.9265 85.9761 19.8388 86.0273 19.7013C86.0785 19.5637 86.0323 19.4091 85.9138 19.3215C85.8936 19.3067 85.8718 19.2943 85.8488 19.2846Z" fill="#FDD835"/>
<path id="Path_28" fill-rule="evenodd" clip-rule="evenodd" d="M162.234 93.9321C161.924 93.7983 161.765 93.455 161.864 93.1343C161.871 93.1103 161.876 93.0856 161.877 93.0605C161.888 92.9142 161.799 92.7787 161.661 92.7279C161.522 92.6771 161.366 92.723 161.278 92.8407C161.263 92.8607 161.251 92.8823 161.241 92.9052C161.106 93.2128 160.761 93.3709 160.438 93.2726C160.414 93.2651 160.389 93.2605 160.363 93.2588C160.216 93.2488 160.08 93.3364 160.028 93.474C159.977 93.6116 160.024 93.7662 160.142 93.8537C160.162 93.8685 160.184 93.8809 160.207 93.8906C160.517 94.0245 160.676 94.3678 160.577 94.6885C160.569 94.7125 160.565 94.7372 160.563 94.7623C160.553 94.9086 160.641 95.044 160.78 95.0949C160.918 95.1457 161.074 95.0998 161.162 94.9821C161.177 94.9621 161.19 94.9404 161.199 94.9176C161.334 94.61 161.68 94.4519 162.003 94.5501C162.027 94.5577 162.052 94.5623 162.077 94.564C162.225 94.574 162.361 94.4864 162.412 94.3488C162.463 94.2112 162.417 94.0566 162.299 93.969C162.278 93.9542 162.257 93.9419 162.234 93.9321Z" fill="#FDD835"/>
<path id="Oval_8" fill-rule="evenodd" clip-rule="evenodd" d="M108.175 10.2339C108.677 10.2339 109.084 9.82962 109.084 9.33091C109.084 8.8322 108.677 8.42792 108.175 8.42792C107.673 8.42792 107.266 8.8322 107.266 9.33091C107.266 9.82962 107.673 10.2339 108.175 10.2339Z" fill="#F55F44"/>
<path id="Oval_9" fill-rule="evenodd" clip-rule="evenodd" d="M170.011 21.0698C170.513 21.0698 170.92 20.6656 170.92 20.1668C170.92 19.6681 170.513 19.2639 170.011 19.2639C169.509 19.2639 169.102 19.6681 169.102 20.1668C169.102 20.6656 169.509 21.0698 170.011 21.0698Z" fill="#F55F44"/>
<path id="Oval_10" fill-rule="evenodd" clip-rule="evenodd" d="M165.161 46.9557C165.664 46.9557 166.071 46.5514 166.071 46.0527C166.071 45.554 165.664 45.1497 165.161 45.1497C164.659 45.1497 164.252 45.554 164.252 46.0527C164.252 46.5514 164.659 46.9557 165.161 46.9557Z" fill="#4D8AF0"/>
<path id="Oval_11" opacity="0.5" fill-rule="evenodd" clip-rule="evenodd" d="M69.3761 4.21395C69.8784 4.21395 70.2855 3.80966 70.2855 3.31095C70.2855 2.81224 69.8784 2.40796 69.3761 2.40796C68.8739 2.40796 68.4668 2.81224 68.4668 3.31095C68.4668 3.80966 68.8739 4.21395 69.3761 4.21395Z" fill="#47E6B1"/>
</g>
</g>
<defs>
<linearGradient id="paint0_linear" x1="11.0264" y1="134.643" x2="11.0264" y2="144.921" gradientUnits="userSpaceOnUse">
<stop stop-color="#E7E7E7"/>
<stop offset="1" stop-color="#F5F5F5"/>
</linearGradient>
<linearGradient id="paint1_linear" x1="142.983" y1="90.8779" x2="142.983" y2="16.2799" gradientUnits="userSpaceOnUse">
<stop stop-color="#808080" stop-opacity="0.25"/>
<stop offset="0.54" stop-color="#808080" stop-opacity="0.12"/>
<stop offset="1" stop-color="#808080" stop-opacity="0.1"/>
</linearGradient>
<linearGradient id="paint2_linear" x1="112.703" y1="51.0837" x2="112.703" y2="30.722" gradientUnits="userSpaceOnUse">
<stop stop-color="#808080" stop-opacity="0.25"/>
<stop offset="0.54" stop-color="#808080" stop-opacity="0.12"/>
<stop offset="1" stop-color="#808080" stop-opacity="0.1"/>
</linearGradient>
<linearGradient id="paint3_linear" x1="111.427" y1="45.0797" x2="111.427" y2="32.5091" gradientUnits="userSpaceOnUse">
<stop stop-color="#808080" stop-opacity="0.25"/>
<stop offset="0.54" stop-color="#808080" stop-opacity="0.12"/>
<stop offset="1" stop-color="#808080" stop-opacity="0.1"/>
</linearGradient>
<linearGradient id="paint4_linear" x1="112.703" y1="76.3317" x2="112.703" y2="56.0948" gradientUnits="userSpaceOnUse">
<stop stop-color="#808080" stop-opacity="0.25"/>
<stop offset="0.54" stop-color="#808080" stop-opacity="0.12"/>
<stop offset="1" stop-color="#808080" stop-opacity="0.1"/>
</linearGradient>
<linearGradient id="paint5_linear" x1="111.427" y1="70.3282" x2="111.427" y2="57.8809" gradientUnits="userSpaceOnUse">
<stop stop-color="#808080" stop-opacity="0.25"/>
<stop offset="0.54" stop-color="#808080" stop-opacity="0.12"/>
<stop offset="1" stop-color="#808080" stop-opacity="0.1"/>
</linearGradient>
<linearGradient id="paint6_linear" x1="149.641" y1="96.3055" x2="164.111" y2="23.4921" gradientUnits="userSpaceOnUse">
<stop stop-color="#808080" stop-opacity="0.25"/>
<stop offset="0.54" stop-color="#808080" stop-opacity="0.12"/>
<stop offset="1" stop-color="#808080" stop-opacity="0.1"/>
</linearGradient>
<linearGradient id="paint7_linear" x1="143.946" y1="70.2783" x2="147.815" y2="50.8092" gradientUnits="userSpaceOnUse">
<stop stop-color="#808080" stop-opacity="0.25"/>
<stop offset="0.54" stop-color="#808080" stop-opacity="0.12"/>
<stop offset="1" stop-color="#808080" stop-opacity="0.1"/>
</linearGradient>
<linearGradient id="paint8_linear" x1="171.527" y1="87.8917" x2="171.527" y2="37.9265" gradientUnits="userSpaceOnUse">
<stop stop-color="#B3B3B3" stop-opacity="0.25"/>
<stop offset="0.54" stop-color="#B3B3B3" stop-opacity="0.1"/>
<stop offset="1" stop-color="#B3B3B3" stop-opacity="0.05"/>
</linearGradient>
<linearGradient id="paint9_linear" x1="132.12" y1="55.3825" x2="132.12" y2="52.9757" gradientUnits="userSpaceOnUse">
<stop stop-opacity="0.12"/>
<stop offset="0.55" stop-opacity="0.09"/>
<stop offset="1" stop-opacity="0.02"/>
</linearGradient>
<linearGradient id="paint10_linear" x1="152.124" y1="52.3741" x2="152.124" y2="45.1503" gradientUnits="userSpaceOnUse">
<stop stop-opacity="0.12"/>
<stop offset="0.55" stop-opacity="0.09"/>
<stop offset="1" stop-opacity="0.02"/>
</linearGradient>
</defs>
</svg>