<svg xmlns="http://www.w3.org/2000/svg" width="226" height="67" viewBox="0 0 226 67">
    <defs>
        <linearGradient id="a" x1="2.527%" y1="50%" y2="50%">
            <stop offset="0%" stop-color="#37CC9A"/>
            <stop offset="100%" stop-color="#45BABF"/>
        </linearGradient>
    </defs>
    <g fill="url(#a)" fill-rule="evenodd" transform="translate(-401 -24)">
        <path d="M589.662 59.959c-2.329 0-3.898 1.238-3.898 4.077v1.084h7.795v-1.084c0-2.787-1.62-4.077-3.897-4.077zM601 69.352c0 .569-.304.878-.911.878h-14.325v.826c0 2.633 1.67 3.974 4.353 3.974 2.53 0 4.606-.774 6.428-1.857.457-.362.86-.258 1.165.206l2.632 3.561c.304.466.304.93-.152 1.29-2.582 2.014-5.871 3.407-10.326 3.407-6.58 0-11.895-3.561-11.895-10.736v-6.503c0-7.692 5.315-10.995 11.744-10.995 6.225 0 11.287 3.2 11.287 10.995v4.954zM561.192 53c6.634 0 11.207 3.972 11.207 11.153v15.073c0 .611-.301.917-.854.917h-5.83c-.603 0-.905-.306-.905-.917V63.898c0-2.495-1.206-3.972-3.87-3.972a6.9 6.9 0 0 0-3.266.815c.352 1.018.502 2.139.502 3.31v15.175c0 .611-.301.917-.854.917h-5.83c-.602 0-.904-.306-.904-.917V63.898c0-2.648-1.206-4.023-3.669-4.023-1.055 0-2.16.203-2.965.459v18.892c0 .611-.351.917-.904.917h-5.83c-.603 0-.905-.306-.905-.917v-23.12c0-.509.201-.865.704-1.12 2.915-1.222 6.533-1.986 9.8-1.986 2.613 0 4.925.764 6.834 2.14 2.664-1.427 4.825-2.14 7.54-2.14zm-31.85 26.967l-5.235-3.562a.942.942 0 0 1 0-1.57l5.234-3.563c.657-.448 1.562.007 1.562.785v7.125c0 .777-.905 1.232-1.562.785zm-17.21 1.621c-.614 0-.921-.317-.921-.95V56.684c0-.476.204-.845.665-1.109 2.818-1.424 6.096-2.163 9.424-2.163 1.537 0 3.125.211 4.969.528.563.105.819.422.819 1.002v4.855c0 .633-.358.95-.973.844-1.024-.158-2.152-.211-3.176-.211-1.536 0-2.92.263-3.892.686v19.522c0 .633-.307.95-.871.95h-6.044zm-17.719-6.35c1.164 0 2.53-.208 3.442-.414v-4.542c-1.013-.207-2.38-.31-3.493-.31-2.784 0-3.999.929-3.999 2.581 0 1.807 1.62 2.685 4.05 2.685m.101-21.835c6.985 0 11.086 3.717 11.086 11.563v14.142c0 .516-.254.878-.76 1.033-2.986.93-6.985 1.496-10.427 1.496-7.29 0-11.895-2.787-11.895-8.877 0-5.369 4.15-8.053 11.035-8.053 1.569 0 3.036.155 4.302.31v-.516c0-2.736-.961-4.233-4.252-4.233-2.227 0-4.86.62-6.327 1.446-.456.258-.962.206-1.215-.31l-2.075-4.026c-.254-.516-.254-.878.1-1.136 2.38-1.548 6.075-2.84 10.428-2.84m-27.429 19.922c1.43 0 2.762-.307 3.453-.87V60.859c-.74-.307-2.12-.511-3.304-.511-2.664 0-4.243 1.124-4.243 4.343v4.495c0 3.015 1.628 4.139 4.094 4.139M466.345 91c-4.093 0-7.003-.869-9.765-2.76-.395-.305-.493-.765-.197-1.276l2.614-4.138c.295-.46.64-.562 1.134-.255a11.43 11.43 0 0 0 5.918 1.686c3.107 0 4.685-1.227 4.637-5.007-1.382.46-3.108.767-4.587.767-6.362 0-10.752-3.986-10.752-10.934v-4.19c0-7.97 5.13-11.494 11.837-11.494 3.65 0 7.348.87 10.258 2.044.444.204.642.562.642 1.072v21.611c0 8.736-3.453 12.874-11.739 12.874m-26.158-15.762c1.134 0 2.466-.208 3.354-.414v-4.542c-.986-.207-2.318-.31-3.403-.31-2.712 0-3.897.929-3.897 2.581 0 1.807 1.578 2.685 3.946 2.685m.099-21.835c6.806 0 10.8 3.717 10.8 11.563v14.142c0 .516-.246.878-.739 1.033-2.91.93-6.806 1.496-10.16 1.496-7.102 0-11.59-2.787-11.59-8.877 0-5.369 4.044-8.053 10.752-8.053 1.529 0 2.959.155 4.192.31v-.516c0-2.736-.937-4.233-4.143-4.233-2.17 0-4.735.62-6.165 1.446-.444.258-.937.206-1.184-.31l-2.022-4.026c-.246-.516-.246-.878.099-1.136 2.318-1.548 5.918-2.84 10.16-2.84M416.54 70.208v-5.364c0-3.168-1.57-4.496-4.303-4.496-1.265 0-2.53.205-3.492.562v12.773c.962.561 2.176.867 3.543.867 2.734 0 4.252-1.379 4.252-4.342M412.39 53.4c7.086 0 11.995 4.291 11.995 11.597v5.058c0 6.948-4.504 11.29-10.983 11.29-1.67 0-3.392-.357-4.657-.868v8.991c0 .613-.304.92-.86.92h-5.974c-.607 0-.911-.307-.911-.92V56.311c0-.51.202-.817.659-.971 3.087-1.174 7.288-1.941 10.73-1.941M606 39h4.853c.086.148.192.288.319.414l1.297 1.297a1.588 1.588 0 0 0 2.71-1.123v-3.176a1.588 1.588 0 0 0-2.71-1.123l-1.297 1.297a2.003 2.003 0 0 0-.319.414H606v-4a1 1 0 0 1 1-1h11a1 1 0 0 1 1 1v11a1 1 0 0 1-1 1h-7v7a1 1 0 0 1-1 1h-3a1 1 0 0 1-1-1V39zm-7 9h3a1 1 0 0 1 1 1v3a1 1 0 0 1-1 1h-3a1 1 0 0 1-1-1v-3a1 1 0 0 1 1-1zm0-8h3a1 1 0 0 1 1 1v3a1 1 0 0 1-1 1h-3a1 1 0 0 1-1-1v-3a1 1 0 0 1 1-1zm0-8h3a1 1 0 0 1 1 1v3a1 1 0 0 1-1 1h-3a1 1 0 0 1-1-1v-3a1 1 0 0 1 1-1zm0-8h3a1 1 0 0 1 1 1v3a1 1 0 0 1-1 1h-3a1 1 0 0 1-1-1v-3a1 1 0 0 1 1-1zm8 0h3a1 1 0 0 1 1 1v3a1 1 0 0 1-1 1h-3a1 1 0 0 1-1-1v-3a1 1 0 0 1 1-1zm8 0h3a1 1 0 0 1 1 1v3a1 1 0 0 1-1 1h-3a1 1 0 0 1-1-1v-3a1 1 0 0 1 1-1zm8 0h3a1 1 0 0 1 1 1v3a1 1 0 0 1-1 1h-3a1 1 0 0 1-1-1v-3a1 1 0 0 1 1-1zm0 8h3a1 1 0 0 1 1 1v3a1 1 0 0 1-1 1h-3a1 1 0 0 1-1-1v-3a1 1 0 0 1 1-1zm0 8h3a1 1 0 0 1 1 1v3a1 1 0 0 1-1 1h-3a1 1 0 0 1-1-1v-3a1 1 0 0 1 1-1zm0 8h3a1 1 0 0 1 1 1v3a1 1 0 0 1-1 1h-3a1 1 0 0 1-1-1v-3a1 1 0 0 1 1-1zm-8 0h3a1 1 0 0 1 1 1v3a1 1 0 0 1-1 1h-3a1 1 0 0 1-1-1v-3a1 1 0 0 1 1-1z"/>
    </g>
</svg>
