<svg width="20" height="20" fill="none" xmlns="http://www.w3.org/2000/svg"><path d="M19.813 1.26l-.085-.468a.645.645 0 00-.52-.52l-.467-.085a11.662 11.662 0 00-5.95.473c-2.477.872-4.102 2.307-5.533 4.086l-.756-.26a3.553 3.553 0 00-3.544.732L.57 7.39C-.583 8.437.126 10.36 1.684 10.41l2.112.066a2.1 2.1 0 00.587 1.827l3.315 3.316c.471.471 1.148.7 1.828.587l.066 2.112c.048 1.562 1.975 2.262 3.019 1.114l2.17-2.388a3.553 3.553 0 00.732-3.544l-.26-.757c1.733-1.394 3.193-2.994 4.087-5.534.67-1.904.834-3.961.473-5.949zM1.438 8.343l2.388-2.17a2.263 2.263 0 012.257-.467l.349.12A27.654 27.654 0 004.335 9.2L1.724 9.12a.445.445 0 01-.286-.775zm12.855 5.574c.268.78.09 1.646-.466 2.257l-2.17 2.388a.445.445 0 01-.776-.286l-.081-2.611a27.587 27.587 0 003.373-2.097l.12.348zm.78-2.703a26.292 26.292 0 01-5.536 3.646.808.808 0 01-.927-.156c.005 0 .03.03-3.315-3.315a.808.808 0 01-.155-.927c.165-.337.338-.67.517-1l3.5 3.5a.645.645 0 10.913-.912L6.325 8.307A26.241 26.241 0 018.84 4.865a10.37 10.37 0 019.699-3.403 10.37 10.37 0 01-3.464 9.753zM11.408 4.66c-1.749 1.748-.5 4.746 1.966 4.746 2.464 0 3.717-2.996 1.967-4.746a2.784 2.784 0 00-3.933 0zm3.02 3.02a1.492 1.492 0 01-2.108 0 1.492 1.492 0 010-2.108 1.492 1.492 0 012.108 0 1.492 1.492 0 010 2.108z" fill="#fff"/></svg>