<svg width="236" height="221" viewBox="0 0 236 221" fill="none" xmlns="http://www.w3.org/2000/svg">
<path d="M17.4062 113.871V218.498C17.4062 221.109 21.4303 221.109 21.4303 218.498V113.871C21.4303 111.261 17.4062 111.261 17.4062 113.871Z" fill="#1B1C29"/>
<path d="M173.585 124.747H14.1432C10.9892 124.747 8.37891 122.137 8.37891 118.983V84.9413C8.37891 81.7872 10.9892 79.177 14.1432 79.177H173.585C176.739 79.177 179.349 81.7872 179.349 84.9413V118.983C179.349 122.137 176.739 124.747 173.585 124.747Z" fill="white"/>
<path d="M173.586 125.509H14.1441C10.4463 125.509 7.50977 122.572 7.50977 118.874V84.9412C7.50977 81.2434 10.4463 78.3069 14.1441 78.3069H173.586C177.284 78.3069 180.221 81.2434 180.221 84.9412V118.983C180.112 122.572 177.175 125.509 173.586 125.509ZM14.1441 79.9383C11.4251 79.9383 9.14116 82.2222 9.14116 84.9412V118.983C9.14116 121.702 11.4251 123.986 14.1441 123.986H173.586C176.305 123.986 178.589 121.702 178.589 118.983V84.9412C178.589 82.2222 176.305 79.9383 173.586 79.9383H14.1441Z" fill="#1B1C29"/>
<path d="M173.585 156.94H14.1432C10.9892 156.94 8.37891 154.33 8.37891 151.176V141.931C8.37891 138.777 10.9892 136.167 14.1432 136.167H173.585C176.739 136.167 179.349 138.777 179.349 141.931V151.176C179.349 154.33 176.739 156.94 173.585 156.94Z" fill="white"/>
<path d="M173.586 157.702H14.1441C10.4463 157.702 7.50977 154.765 7.50977 151.067V141.823C7.50977 138.125 10.4463 135.188 14.1441 135.188H173.586C177.284 135.188 180.221 138.125 180.221 141.823V151.067C180.112 154.765 177.175 157.702 173.586 157.702ZM14.1441 136.928C11.4251 136.928 9.14116 139.212 9.14116 141.931V151.176C9.14116 153.895 11.4251 156.179 14.1441 156.179H173.586C176.305 156.179 178.589 153.895 178.589 151.176V141.931C178.589 139.212 176.305 136.928 173.586 136.928H14.1441Z" fill="#1B1C29"/>
<path d="M179.352 94.5121H8.27241C7.83737 94.5121 7.40234 94.1858 7.40234 93.642C7.40234 93.0982 7.72861 92.772 8.27241 92.772H179.352C179.787 92.772 180.222 93.0982 180.222 93.642C180.222 94.1858 179.787 94.5121 179.352 94.5121Z" fill="#1B1C29"/>
<path d="M179.352 109.847H8.27241C7.83737 109.847 7.40234 109.521 7.40234 108.977C7.40234 108.433 7.72861 108.107 8.27241 108.107H179.352C179.787 108.107 180.222 108.433 180.222 108.977C180.222 109.521 179.787 109.847 179.352 109.847Z" fill="#1B1C29"/>
<path d="M179.352 143.998H8.27241C7.83737 143.998 7.40234 143.672 7.40234 143.128C7.40234 142.584 7.72861 142.258 8.27241 142.258H179.352C179.787 142.258 180.222 142.584 180.222 143.128C180.222 143.672 179.787 143.998 179.352 143.998Z" fill="#1B1C29"/>
<path d="M179.352 150.632H8.27241C7.83737 150.632 7.40234 150.306 7.40234 149.762C7.40234 149.218 7.72861 148.892 8.27241 148.892H179.352C179.787 148.892 180.222 149.218 180.222 149.762C180.222 150.306 179.787 150.632 179.352 150.632Z" fill="#1B1C29"/>
<path d="M186.422 219.586H137.807V201.641L166.845 190.33C166.845 190.33 167.933 197.29 170.543 203.054C170.652 203.381 170.87 203.707 170.978 203.925C171.413 204.903 171.957 205.882 172.501 206.752C172.719 207.079 172.936 207.296 173.045 207.622C174.132 209.036 175.438 210.124 176.851 210.668C180.658 211.973 182.942 213.713 184.356 215.236C184.682 215.562 184.9 215.888 185.117 216.214C186.422 218.063 186.422 219.586 186.422 219.586Z" fill="#1B1C29"/>
<path d="M185.006 216.106H137.695V215.127H184.136C184.571 215.453 184.788 215.779 185.006 216.106Z" fill="white"/>
<path d="M170.868 203.924C168.802 204.903 166.627 205.991 164.56 206.97C164.016 207.187 163.472 206.426 164.016 206.1C166.191 205.121 168.258 204.033 170.433 203.054C170.433 203.054 170.433 203.054 170.542 203.054C170.542 203.38 170.651 203.598 170.868 203.924Z" fill="white"/>
<path d="M172.934 207.514C171.085 208.819 169.345 210.124 167.496 211.429C166.952 211.755 166.408 210.885 166.952 210.559C168.692 209.254 170.541 208.058 172.281 206.752C172.607 206.97 172.825 207.296 172.934 207.514Z" fill="white"/>
<path d="M228.73 167.49L184.682 188.154L183.16 185L182.725 184.13L174.785 167.164L198.495 149.327C198.495 149.327 202.41 155.091 207.196 159.333C207.413 159.551 207.739 159.768 207.957 159.986C208.827 160.638 209.697 161.291 210.567 161.835C210.893 162.052 211.111 162.161 211.437 162.27C213.069 163.14 214.591 163.575 216.114 163.466C220.138 163.031 222.857 163.575 224.815 164.445C225.25 164.662 225.576 164.771 226.011 164.989C228.077 166.185 228.73 167.49 228.73 167.49Z" fill="#1B1C29"/>
<path d="M167.497 187.719C166.518 181.629 165.104 173.037 163.69 163.901C166.736 169.012 168.911 172.384 168.911 172.384L204.149 154.982C204.149 154.982 194.034 135.188 179.352 109.086C164.669 82.9834 132.694 93.098 101.915 103.648L102.132 104.735C90.6037 104.844 79.0752 105.279 67.6554 106.367C60.1509 107.128 52.864 108.542 45.5771 110.173C44.9245 132.904 46.3384 149.109 62.4349 149.871C82.8818 150.85 124.102 149.871 124.102 149.871C124.102 149.871 123.232 177.931 128.235 194.897C128.343 195.224 128.452 195.55 128.561 195.876C129.649 199.248 130.954 202.075 132.585 204.142L169.128 196.42C169.128 196.42 168.693 193.483 167.932 188.589C167.714 188.372 167.606 188.045 167.497 187.719Z" fill="white"/>
<path d="M132.042 205.121L131.716 204.686C130.084 202.619 128.779 199.792 127.583 196.094C127.474 195.768 127.365 195.441 127.257 195.115C122.797 179.889 123.015 155.526 123.124 150.632C117.142 150.741 80.8161 151.502 62.2181 150.632C44.9253 149.762 44.0552 131.708 44.599 110.065V109.412L45.2516 109.303C51.8859 107.89 59.7166 106.258 67.4386 105.497C77.227 104.518 87.5592 104.083 101.045 103.865L100.937 102.995L101.589 102.778C131.063 92.6632 164.561 81.3521 180.005 108.651C194.579 134.427 204.694 154.33 204.802 154.548L205.129 155.309L168.477 173.472L168.042 172.819C168.042 172.819 166.845 170.862 164.996 167.925C166.193 175.429 167.28 182.499 168.15 187.611C168.15 187.828 168.259 187.937 168.259 188.154L169.673 197.181L132.042 205.121ZM124.864 149.001V149.871C124.864 150.197 123.994 178.04 128.888 194.68C128.997 195.006 129.105 195.333 129.214 195.659C130.193 198.922 131.389 201.423 132.803 203.272L168.15 195.876L166.954 188.372C166.954 188.154 166.845 188.046 166.845 187.828C165.866 181.738 164.452 173.146 163.039 164.01L162.386 159.877L164.561 163.466C166.845 167.273 168.585 170.1 169.347 171.297L203.171 154.548C201.213 150.741 191.751 132.469 178.7 109.412C164.017 83.5274 131.607 94.2946 102.894 104.083L103.112 105.388H102.133C88.3205 105.606 77.662 106.041 67.7649 107.019C60.2604 107.781 52.8647 109.303 46.3392 110.609C45.6866 134.862 48.1881 148.131 62.4356 148.892C82.665 149.871 123.667 148.892 124.102 148.892L124.864 149.001Z" fill="#1B1C29"/>
<path d="M146.07 116.808H145.961L118.445 111.261C118.01 111.152 117.684 110.717 117.793 110.282C117.901 109.847 118.336 109.521 118.771 109.63L146.288 115.176C146.723 115.285 147.049 115.72 146.94 116.155C146.723 116.482 146.396 116.808 146.07 116.808Z" fill="#1B1C29"/>
<path d="M226.008 164.988L183.265 185L182.83 184.13L224.92 164.445C225.246 164.553 225.682 164.771 226.008 164.988Z" fill="white"/>
<path d="M208.067 159.985C206.544 161.834 205.13 163.575 203.607 165.423C203.172 165.967 202.411 165.315 202.737 164.88C204.26 163.031 205.674 161.291 207.196 159.442C207.523 159.55 207.74 159.768 208.067 159.985Z" fill="white"/>
<path d="M210.894 161.943C209.915 163.575 209.045 165.315 208.066 166.946C207.74 167.49 208.61 168.142 208.936 167.599C209.915 165.858 210.894 164.118 211.873 162.487L210.894 161.943Z" fill="white"/>
<path d="M160.754 158.898C160.536 158.898 160.21 158.789 160.101 158.572C150.53 143.889 145.636 132.361 142.156 116.264C142.047 115.829 142.373 115.394 142.808 115.285C143.243 115.176 143.678 115.503 143.787 115.938C147.268 131.817 152.053 143.128 161.515 157.702C161.733 158.028 161.624 158.572 161.298 158.789C161.08 158.789 160.863 158.898 160.754 158.898Z" fill="#1B1C29"/>
<path d="M167.386 164.989C167.06 164.989 166.842 164.771 166.625 164.554C166.407 164.119 166.625 163.684 166.951 163.466C177.392 158.246 187.833 152.699 197.948 146.826C198.383 146.608 198.818 146.717 199.035 147.152C199.253 147.587 199.144 148.022 198.709 148.24C188.594 154.113 178.044 159.659 167.603 164.88C167.603 164.88 167.495 164.989 167.386 164.989Z" fill="#1B1C29"/>
<path d="M130.628 195.333C130.193 195.333 129.867 195.006 129.867 194.68C129.758 194.245 130.084 193.81 130.519 193.701L137.698 192.396C147.268 190.656 155.317 189.133 165.975 187.176C166.41 187.067 166.845 187.393 166.954 187.828C167.063 188.263 166.736 188.698 166.301 188.807C155.643 190.765 147.703 192.179 138.024 194.027L130.846 195.333C130.737 195.333 130.628 195.333 130.628 195.333Z" fill="#1B1C29"/>
<path d="M28.9332 52.3133C28.0631 52.3133 27.3018 52.2045 26.4317 51.987C25.0178 51.5519 23.8214 51.0081 22.6251 50.3556C21.5375 49.8118 20.5587 49.268 19.4711 48.9417C16.9696 48.1804 13.598 48.1804 12.0754 51.1169C11.8578 51.552 11.4228 51.6607 10.9878 51.4432C10.5527 51.2257 10.444 50.7906 10.6615 50.3556C12.6192 46.549 16.8608 46.4402 20.0149 47.4191C21.2112 47.8541 22.2988 48.3979 23.3864 48.9417C24.5828 49.5943 25.6704 50.138 26.9755 50.4643C30.0208 51.3344 32.8485 50.2468 34.5887 47.7453C34.8062 47.419 35.35 47.3103 35.6763 47.5278C36.0026 47.7453 36.1113 48.2891 35.8938 48.6154C34.2624 51.0081 31.7609 52.3133 28.9332 52.3133Z" fill="#1B1C29"/>
<path d="M28.9332 58.0777C28.0631 58.0777 27.3018 57.9689 26.4317 57.7514C25.0178 57.3164 23.8214 56.7726 22.6251 56.12C21.5375 55.5762 20.5587 55.0324 19.4711 54.7061C16.9696 53.9448 13.598 53.9448 12.0754 56.8813C11.8578 57.3164 11.4228 57.4251 10.9878 57.2076C10.5527 56.9901 10.444 56.555 10.6615 56.12C12.6192 52.3134 16.8608 52.2046 20.0149 53.1835C21.2112 53.6185 22.2988 54.1623 23.3864 54.7061C24.5828 55.3587 25.6704 55.9024 26.9755 56.2287C30.0208 57.0988 32.8485 56.0112 34.5887 53.5097C34.8062 53.1834 35.35 53.0747 35.6763 53.2923C36.0026 53.5098 36.1113 54.0536 35.8938 54.3799C34.2624 56.7726 31.7609 58.0777 28.9332 58.0777Z" fill="#1B1C29"/>
<path d="M36.2227 43.6124L42.0957 41.5459L41.3344 47.7452L36.2227 43.6124Z" fill="#1B1C29"/>
<path d="M229.16 135.732C226.333 135.732 223.287 134.427 220.568 133.231C218.937 132.578 217.414 131.817 216.109 131.49C211.759 130.294 207.082 131.382 203.493 134.427C203.167 134.753 202.623 134.644 202.297 134.318C201.97 133.992 202.079 133.448 202.405 133.122C206.429 129.75 211.65 128.554 216.544 129.859C218.067 130.294 219.589 130.947 221.221 131.708C225.68 133.666 230.357 135.732 233.728 132.143C234.054 131.817 234.598 131.817 234.925 132.143C235.251 132.469 235.251 133.013 234.925 133.339C233.076 135.079 231.118 135.732 229.16 135.732Z" fill="#1B1C29"/>
<path d="M229.16 144.107C226.333 144.107 223.287 142.801 220.568 141.605C218.937 140.952 217.414 140.191 216.109 139.865C211.759 138.668 207.082 139.756 203.493 142.801C203.167 143.128 202.623 143.019 202.297 142.693C201.97 142.366 202.079 141.823 202.405 141.496C206.429 138.125 211.65 136.928 216.544 138.233C218.067 138.668 219.589 139.321 221.221 140.082C225.68 142.04 230.357 144.106 233.728 140.517C234.054 140.191 234.598 140.191 234.925 140.517C235.251 140.844 235.251 141.387 234.925 141.714C233.076 143.454 231.118 144.107 229.16 144.107Z" fill="#1B1C29"/>
<path d="M198.144 115.976L191.221 120.878L196.122 127.801L203.046 122.9L198.144 115.976Z" fill="#1B1C29"/>
<path d="M42.0942 221C41.7679 221 41.5504 220.891 41.4416 220.565L35.0248 209.798C34.8073 209.363 34.916 208.928 35.3511 208.71C35.7861 208.493 36.2211 208.601 36.4387 209.036L42.8555 219.804C43.073 220.239 42.9642 220.674 42.5292 220.891C42.4204 221 42.3117 221 42.0942 221Z" fill="#1B1C29"/>
<path d="M47.3149 220.891C46.9886 220.891 46.6623 220.674 46.5536 220.239L45.2484 215.236C45.1397 214.801 45.3572 214.366 45.7922 214.257C46.2273 214.148 46.6623 214.366 46.7711 214.801L48.0762 219.804C48.1849 220.239 47.9674 220.674 47.5324 220.783C47.4236 220.891 47.4236 220.891 47.3149 220.891Z" fill="#1B1C29"/>
<path d="M4.13729 221C3.81101 221 3.59349 220.891 3.48473 220.565L0.113163 215.235C-0.104357 214.8 0.00441624 214.365 0.330696 214.148C0.765736 213.93 1.20078 214.039 1.4183 214.365L4.78986 219.695C5.00738 220.13 4.89861 220.565 4.57233 220.782C4.35481 221 4.24605 221 4.13729 221Z" fill="#1B1C29"/>
<path d="M194.793 220.565C194.684 220.565 194.575 220.565 194.466 220.456C194.031 220.238 193.923 219.803 194.031 219.368L196.642 213.604C196.859 213.169 197.294 213.06 197.729 213.169C198.164 213.387 198.273 213.822 198.164 214.257L195.554 220.021C195.337 220.347 195.119 220.565 194.793 220.565Z" fill="#1B1C29"/>
<path d="M166.406 79.1773H100.171C92.3408 63.9509 92.7758 53.075 92.7758 53.075C103.434 57.4253 127.361 71.3466 132.256 75.2619C132.256 75.2619 156.4 65.9086 165.427 77.5459C165.754 78.0897 166.189 78.6335 166.406 79.1773Z" fill="#1B1C29"/>
<path d="M166.406 79.1773C166.08 78.6335 165.753 78.0897 165.318 77.5459C161.077 71.9992 154.116 70.8028 146.503 71.8904C140.086 72.978 137.585 77.7634 141.717 85.3766C145.524 92.2285 148.896 87.8781 146.612 83.3102L148.026 81.0262C148.243 81.2438 148.461 81.4612 148.569 81.7875C150.309 84.8328 150.418 87.5518 151.941 89.1832C153.899 91.1409 156.618 89.1832 156.726 88.0956C156.726 88.0956 159.554 91.7935 162.164 88.0956C162.164 88.0956 164.448 90.3796 166.624 87.443C168.799 84.5065 166.406 79.1773 166.406 79.1773Z" fill="white"/>
<path d="M153.899 90.9233C152.92 90.9233 152.05 90.597 151.398 89.8357C150.419 88.8568 149.984 87.4429 149.44 86.0291C149.114 84.9415 148.679 83.7451 148.026 82.5487L147.482 83.4188C148.57 86.029 148.244 88.748 146.504 89.6181C145.851 89.9444 143.567 90.7058 140.957 85.9203C138.673 81.7874 138.238 78.1984 139.543 75.5881C140.631 73.3042 143.023 71.7815 146.286 71.2377L146.612 71.1289C155.422 69.9326 161.948 71.999 165.863 77.1107C166.189 77.5458 166.515 77.9808 166.733 78.4159L166.842 78.7421V78.8509L167.494 80.0473H167.277C167.929 81.8962 168.799 85.594 167.059 87.9867C166.189 89.0743 165.21 89.7269 164.123 89.8357C163.253 89.9444 162.491 89.6181 162.056 89.2919C161.186 90.1619 160.316 90.597 159.337 90.597C158.25 90.597 157.271 90.0532 156.727 89.5094C156.292 90.0532 155.639 90.4882 154.987 90.7057C154.769 90.8145 154.334 90.9233 153.899 90.9233ZM147.809 79.721L148.57 80.4823C148.896 80.8086 149.114 81.0261 149.223 81.3524C150.093 82.7663 150.528 84.1801 150.963 85.4853C151.398 86.7904 151.833 87.878 152.485 88.6393C153.029 89.1831 153.682 89.4006 154.443 89.1831C155.313 88.9656 155.857 88.313 155.857 88.0955L156.183 86.2466L157.271 87.6605C157.597 87.9867 158.467 88.9656 159.446 88.9656C160.099 88.9656 160.751 88.5305 161.404 87.6605L161.947 86.8991L162.6 87.5517C162.6 87.5517 163.253 88.2043 164.123 88.2043C164.666 88.2043 165.319 87.7692 165.863 87.0079C167.603 84.6152 165.645 80.0472 165.537 79.6122C165.319 79.1772 164.993 78.6334 164.558 78.0896C160.969 73.4129 154.878 71.564 146.504 72.7603H146.286C143.567 73.1954 141.718 74.3918 140.957 76.1319C139.869 78.3071 140.413 81.3524 142.371 85.0502C143.785 87.6604 145.09 88.4218 145.742 88.0955C146.504 87.7692 146.83 85.8115 145.742 83.6363L145.525 83.2013L147.809 79.721Z" fill="#1B1C29"/>
<path d="M154.224 77.1107C153.898 76.4582 152.919 77.002 153.245 77.6545C154.986 80.6998 155.856 83.9627 155.964 87.5517C155.964 88.2043 157.052 88.2043 157.052 87.5517C156.943 83.7451 156.073 80.2648 154.224 77.1107Z" fill="#1B1C29"/>
<path d="M160.535 76.0233C160.208 75.3708 159.338 75.9146 159.556 76.5671C160.97 79.7212 161.731 82.984 161.84 86.3555C161.84 87.0081 162.927 87.0081 162.927 86.3555C162.819 82.7665 162.057 79.2861 160.535 76.0233Z" fill="#1B1C29"/>
<path d="M117.137 72.3253C116.92 72.3253 116.702 72.2165 116.485 71.999L111.047 65.0384C110.72 64.7121 110.829 64.1683 111.155 63.842C111.482 63.5157 112.025 63.6245 112.352 63.9508L117.79 70.9114C118.116 71.2377 118.007 71.7815 117.681 72.1078C117.463 72.2166 117.355 72.3253 117.137 72.3253Z" fill="white"/>
<path d="M113.114 77.2198C113.006 77.2198 112.788 77.2197 112.679 77.111L107.676 73.6307C107.35 73.4131 107.241 72.8693 107.459 72.5431C107.676 72.2168 108.22 72.1081 108.546 72.3256L113.549 75.8058C113.876 76.0234 113.984 76.5672 113.767 76.8934C113.658 77.111 113.332 77.2198 113.114 77.2198Z" fill="white"/>
<path d="M127.471 66.8872L130.625 71.8901L135.519 60.3616L127.471 66.8872Z" fill="#6045AF"/>
<path d="M133.564 0.979004V46.0056C133.564 46.0056 149.987 46.0056 149.987 22.0785C149.987 3.37175 133.564 0.979004 133.564 0.979004Z" fill="white"/>
<path d="M133.563 46.7668H132.693V0L133.672 0.108767C133.89 0.108767 150.747 2.82774 150.747 21.9695C150.747 46.5492 133.672 46.7668 133.563 46.7668ZM134.325 1.9577V45.1354C137.588 44.8091 149.116 42.0901 149.116 22.0783C149.116 6.8519 137.696 2.82778 134.325 1.9577Z" fill="#1B1C29"/>
<path d="M138.457 24.6885H108.439V43.7215H138.457V24.6885Z" fill="#1B1C29"/>
<path d="M119.314 35.6733H114.855C114.094 35.6733 113.441 35.0207 113.441 34.2594C113.441 33.4981 114.094 32.8455 114.855 32.8455H119.314C120.076 32.8455 120.728 33.4981 120.728 34.2594C120.837 35.0207 120.185 35.6733 119.314 35.6733Z" fill="white"/>
<path d="M126.819 35.6733H124.535C123.774 35.6733 123.121 35.0207 123.121 34.2594C123.121 33.4981 123.774 32.8455 124.535 32.8455H126.819C127.58 32.8455 128.233 33.4981 128.233 34.2594C128.233 35.0207 127.58 35.6733 126.819 35.6733Z" fill="white"/>
<path d="M156.035 30.1633L118.713 52.0923L127.418 66.9084L164.74 44.9795L156.035 30.1633Z" fill="#6045AF"/>
<path d="M128.994 56.8815C128.667 56.8815 128.45 56.7727 128.341 56.4464C128.124 56.0114 128.232 55.5763 128.667 55.3588L145.634 45.3529C146.069 45.1354 146.504 45.2442 146.722 45.6792C146.939 46.1143 146.83 46.5493 146.395 46.7668L129.429 56.7727C129.211 56.7727 129.102 56.8815 128.994 56.8815Z" fill="white"/>
<path d="M146.396 18.0541L155.532 14.6826L154.445 24.5797L146.396 18.0541Z" fill="white"/>
<path d="M155.097 26.1024L144.656 17.7278L156.511 13.3774L155.097 26.1024ZM148.028 18.2716L153.901 22.9483L154.662 15.7702L148.028 18.2716Z" fill="#1B1C29"/>
<path d="M105.827 105.606C107.894 93.4248 112.462 53.5099 84.5104 50.5734C64.6073 48.5069 47.097 57.6427 46.1181 90.1619C45.7919 99.189 45.3568 107.672 45.248 115.286C65.9124 114.198 86.1418 110.935 105.827 105.606Z" fill="#1B1C29"/>
<path d="M104.959 77.6545C104.633 77.6545 104.306 77.437 104.197 77.1107L100.717 67.3223C100.608 66.8873 100.826 66.4523 101.261 66.2347C101.696 66.126 102.131 66.3435 102.349 66.7785L105.829 76.5669C105.938 77.002 105.72 77.437 105.285 77.6545C105.176 77.6545 105.068 77.6545 104.959 77.6545Z" fill="white"/>
<path d="M118.662 94.7299H116.922C115.725 94.7299 114.964 93.5336 115.399 92.446L117.03 88.2043L118.662 94.7299Z" fill="#1B1C29"/>
<path d="M119.749 95.4913H116.921C116.16 95.4913 115.399 95.0562 114.855 94.4037C114.42 93.7511 114.311 92.881 114.529 92.1197L117.03 85.4854L119.749 95.4913ZM116.704 90.9233L116.051 92.7723C115.943 92.9898 115.943 93.3161 116.16 93.5336C116.269 93.7511 116.595 93.8599 116.813 93.8599H117.574L116.704 90.9233Z" fill="white"/>
<path d="M136.497 75.2619L129.645 93.6424C129.428 94.295 128.775 94.73 128.123 94.73H118.769L117.029 88.3131L117.791 86.2467L119.748 80.9175L122.25 74.1743C122.467 73.5218 123.12 73.0867 123.772 73.0867H134.975C136.062 72.978 136.824 74.1743 136.497 75.2619Z" fill="#1B1C29"/>
<path d="M128.014 95.4912H118.008L116.051 88.2043L121.489 73.848C121.815 72.8691 122.794 72.2166 123.773 72.2166H134.975C135.736 72.2166 136.498 72.6516 137.041 73.3042C137.476 73.9567 137.585 74.8268 137.368 75.5882L130.516 93.9685C129.972 94.8386 128.993 95.4912 128.014 95.4912ZM119.205 93.8598H128.014C128.341 93.8598 128.667 93.6423 128.776 93.316L135.736 74.9356C135.845 74.718 135.845 74.3917 135.628 74.1742C135.519 73.9567 135.192 73.848 134.975 73.848H123.773C123.446 73.848 123.12 74.0655 123.011 74.3918L117.791 88.313L119.205 93.8598Z" fill="white"/>
<path d="M132.146 88.748C137.584 84.3976 136.388 78.7421 131.385 82.6575C127.904 85.3765 122.249 86.8991 116.811 87.9867L116.485 86.1377C117.137 85.7027 117.463 85.8115 117.681 86.2465L119.639 80.9173C119.421 80.8085 119.095 80.8085 118.877 80.6997C111.264 78.9596 108.545 81.3523 107.131 89.8356C105.065 93.0984 89.7296 117.896 108.654 111.153C119.639 107.237 121.596 106.258 125.838 104.083C129.645 102.234 131.385 95.2736 131.385 95.2736C134.974 90.8144 132.146 88.748 132.146 88.748Z" fill="white"/>
<path d="M103.217 113.002C101.477 113.002 100.28 112.458 99.4102 111.479C95.7124 106.911 103.652 93.6422 106.262 89.4006C107.132 84.5064 108.437 81.7874 110.504 80.3735C112.461 79.0684 115.072 78.8509 118.987 79.8297C119.205 79.8297 119.531 79.9385 119.748 80.0473L120.618 80.2648L120.292 81.1349L118.117 86.7904C123.99 85.5941 128.123 83.9626 130.624 82.0049C133.887 79.5035 135.41 80.8086 135.736 81.3524C136.932 82.8751 136.171 86.0291 133.017 88.8568C133.343 89.2918 133.67 89.8357 133.67 90.7057C133.887 92.2284 133.235 93.8598 131.821 95.5999C131.494 96.7963 129.645 102.887 125.948 104.845C121.597 107.02 119.64 107.999 108.655 111.914C106.697 112.566 104.739 113.002 103.217 113.002ZM114.854 80.9173C113.44 80.9173 112.353 81.2436 111.483 81.7874C109.742 82.9838 108.655 85.3765 107.894 89.8357V89.9444L107.785 90.0532C102.673 98.1014 98.4314 107.564 100.715 110.391C101.694 111.696 104.413 111.588 108.329 110.174C119.313 106.258 121.271 105.28 125.513 103.104C128.993 101.364 130.624 94.8386 130.624 94.8386V94.6211L130.733 94.5123C131.929 93.0985 132.473 91.7933 132.256 90.7057C132.147 89.7269 131.494 89.2919 131.494 89.2919L130.624 88.6393L131.494 87.9867C134.54 85.594 135.084 82.875 134.54 82.2225C134.213 81.7874 133.235 82.005 131.712 83.2013C128.775 85.4853 123.881 87.3342 116.812 88.6393L115.942 88.7481L115.398 85.594L115.833 85.2677C116.268 84.9415 116.703 84.8327 117.029 84.8327L118.443 81.2436C117.138 81.0261 115.942 80.9173 114.854 80.9173Z" fill="#1B1C29"/>
<path d="M54.7088 61.2319C44.159 72.8692 35.0232 102.017 41.7663 116.373C45.5729 124.53 55.9051 125.835 70.0439 124.748C81.0287 123.878 94.1886 120.289 108.545 112.349C108.545 112.349 103.759 95.7088 107.457 89.2919L71.1315 91.5759L70.914 59.9268L54.7088 61.2319Z" fill="#1B1C29"/>
<path d="M71.4577 93.0984C71.0226 93.0984 70.6964 92.7721 70.6964 92.3371C70.0438 84.7239 69.9351 77.002 70.1526 69.3888C70.1526 68.9537 70.4789 68.6274 71.0227 68.6274C71.4577 68.6274 71.784 69.0625 71.784 69.4975C71.5665 77.1107 71.6752 84.7239 72.3278 92.3371C72.219 92.6634 71.8927 93.0984 71.4577 93.0984Z" fill="white"/>
<path d="M68.7379 93.8599C68.3028 93.8599 67.9766 93.5336 67.9766 93.0986C67.9766 92.6635 68.1941 92.2285 68.7379 92.2285C81.2453 90.7059 92.8826 89.8358 105.39 89.292C105.825 89.292 106.26 89.6183 106.26 90.0533C106.26 90.4884 105.934 90.9234 105.499 90.9234C92.8826 91.4672 81.2453 92.3373 68.7379 93.8599C68.7379 93.8599 68.8466 93.8599 68.7379 93.8599Z" fill="white"/>
<path d="M102.674 112.675C102.347 112.675 102.13 112.458 101.912 112.24C98.6496 105.388 97.997 97.9927 99.9547 90.7058C100.063 90.2708 100.499 90.0532 100.934 90.162C101.369 90.2708 101.586 90.7058 101.477 91.1409C99.6284 97.9927 100.172 105.062 103.326 111.588C103.544 112.023 103.326 112.458 102.891 112.675C103 112.567 102.782 112.675 102.674 112.675Z" fill="white"/>
<path d="M130.952 88.5306C129.429 90.162 127.689 91.3584 125.623 92.2284C124.97 92.5547 125.514 93.4248 126.167 93.2072C128.233 92.3372 130.082 91.0321 131.713 89.2919C132.148 88.8569 131.387 87.9868 130.952 88.5306Z" fill="#1B1C29"/>
<path d="M129.319 96.035L126.491 97.7751C125.947 98.1014 126.491 99.0803 127.035 98.754L129.862 97.0138C130.406 96.5788 129.862 95.6 129.319 96.035Z" fill="#1B1C29"/>
<path d="M115.942 87.9867C115.289 88.0954 114.745 88.2042 114.093 88.0955C113.44 87.9867 113.44 89.0743 114.093 89.1831C114.854 89.2918 115.507 89.183 116.268 89.0743C116.921 88.8568 116.594 87.8779 115.942 87.9867Z" fill="#1B1C29"/>
<path d="M92.3432 22.9483C85.6001 19.033 76.573 21.8607 72.1139 29.3652C72.1139 29.3652 72.1139 29.3651 72.1139 29.4739C71.3526 29.1476 70.7 28.8214 70.0474 28.6038C65.4795 27.4075 62.3255 30.5615 62.978 34.2594C63.6306 37.5222 66.3496 40.7849 70.3737 41.22C71.2438 44.809 73.3102 47.9631 76.3555 50.1383C85.3826 56.5551 92.1257 51.2259 96.5849 43.7214C100.935 36.217 99.0863 26.8637 92.3432 22.9483Z" fill="white"/>
<path d="M84.1848 53.7272C81.4658 53.7272 78.7468 52.7484 75.919 50.6819C72.9825 48.6155 70.8073 45.4615 69.8285 41.8724C65.5868 41.2198 62.8678 37.522 62.2153 34.3679C61.7802 32.4102 62.4328 30.4526 63.8467 29.1475C65.4781 27.6248 67.762 27.081 70.2635 27.7336C70.8073 27.8424 71.3511 28.0599 71.8949 28.2774C74.1789 24.6883 77.4417 22.1868 81.2483 20.9905C85.2724 19.6853 89.4053 20.1204 92.8856 22.1868C99.955 26.3197 102.021 36.2169 97.3448 44.0476C94.1907 49.4856 90.4929 52.6396 86.4688 53.5096C85.7074 53.7272 84.9461 53.7272 84.1848 53.7272ZM68.1971 29.1475C66.892 29.1475 65.8044 29.5825 64.9343 30.3438C63.9554 31.3226 63.5204 32.6278 63.8467 34.1504C64.3905 36.9781 66.7832 40.1322 70.481 40.4585H71.0248L71.1336 41.0023C72.0037 44.4826 73.9613 47.4191 76.7891 49.3768C80.0519 51.6607 83.0972 52.5308 86.0337 51.8782C89.6228 51.1169 92.8856 48.1804 95.8221 43.1775C99.955 36.1081 98.2148 27.2985 91.9068 23.4919C88.8615 21.643 85.1636 21.3167 81.5746 22.5131C77.9855 23.7094 74.8314 26.2109 72.765 29.6913L72.33 30.3438L71.5686 30.0175C70.9161 29.6912 70.2635 29.365 69.611 29.2562C69.2847 29.2562 68.7409 29.1475 68.1971 29.1475Z" fill="#1B1C29"/>
<path d="M87.5278 38.9212C88.0086 38.5611 88.1065 37.8795 87.7465 37.3987C87.3864 36.918 86.7048 36.8201 86.224 37.1801C85.7433 37.5402 85.6454 38.2218 86.0054 38.7025C86.3655 39.1833 87.0471 39.2812 87.5278 38.9212Z" fill="#1B1C29"/>
<path d="M91.3629 46.0054C92.3417 43.7215 92.8855 41.4375 93.2118 38.936C93.3206 38.2835 92.233 38.0659 92.1242 38.8272C91.9067 41.1112 91.2541 43.3952 90.384 45.5704C90.0577 46.2229 91.0366 46.658 91.3629 46.0054Z" fill="#1B1C29"/>
<path d="M72.5489 35.9991C72.1139 33.4976 69.9387 31.5399 67.4372 31.4312C66.7847 31.4312 66.5672 32.5188 67.3285 32.5188C69.3949 32.6275 71.1351 34.0414 71.5701 36.1078C71.5701 36.8691 72.6577 36.7604 72.5489 35.9991Z" fill="#1B1C29"/>
<path d="M95.8231 31.4313C92.3428 30.8875 80.7055 24.6881 78.4215 31.7575C77.8777 33.4977 78.0952 34.9116 76.1376 34.8029C74.1799 34.4766 74.6149 32.3013 74.6149 32.3013C72.8747 30.7787 71.2433 29.4736 69.7207 29.1473C70.482 21.5341 75.5938 17.8363 78.7478 18.8151C78.7478 18.8151 89.1887 7.06907 93.2129 15.2261C93.2129 15.2261 106.155 9.46177 108.113 21.8604C110.071 34.259 95.8231 31.4313 95.8231 31.4313Z" fill="#1B1C29"/>
</svg>
