<svg width="360" height="151" viewBox="0 0 360 151" fill="none" xmlns="http://www.w3.org/2000/svg">
<path fill-rule="evenodd" clip-rule="evenodd" d="M0 134H360V151H0V134Z" fill="url(#paint0_linear)"/>
<path d="M47 58C52.5228 58 57 53.5228 57 48C57 42.4772 52.5228 38 47 38C41.4772 38 37 42.4772 37 48C37 53.5228 41.4772 58 47 58Z" fill="#FF6584"/>
<path fill-rule="evenodd" clip-rule="evenodd" d="M96 85.96C96 109.708 81.897 118 64.5 118C47.103 118 33 109.708 33 85.96C33 62.212 64.5 32 64.5 32C64.5 32 96 62.212 96 85.96Z" fill="#E6E6E7"/>
<path fill-rule="evenodd" clip-rule="evenodd" d="M63.944 113.628L64.274 93.69L78 69.024L64.325 90.562L64.474 81.597L73.934 63.752L64.513 79.225L64.779 63.101L74.909 48.893L64.821 60.565L64.988 31L63.941 70.14L64.027 68.525L53.727 53.04L63.862 71.624L62.902 89.632L62.874 89.154L51 72.858L62.838 90.842L62.718 93.094L62.696 93.128L62.706 93.313L60.27 139H63.523L63.913 115.402L75.722 97.462L63.944 113.628Z" fill="#3F3D56"/>
<path fill-rule="evenodd" clip-rule="evenodd" d="M348.195 87.968C348.195 112.12 333.852 120.553 316.16 120.553C298.467 120.553 284.125 112.12 284.125 87.968C284.125 63.816 316.16 33.09 316.16 33.09C316.16 33.09 348.195 63.816 348.195 87.968V87.968Z" fill="#E6E6E7"/>
<path fill-rule="evenodd" clip-rule="evenodd" d="M314.993 116.859L315.321 96.646L328.975 71.639L315.372 93.475L315.52 84.386L324.93 66.294L315.559 81.981L315.824 65.634L325.9 51.231L315.864 63.064L316.03 33.09L314.989 72.77L315.074 71.133L304.829 55.434L314.91 74.275L313.955 92.532L313.927 92.047L302.117 75.527L313.891 93.759L313.771 96.042L313.751 96.076L313.761 96.264L311.338 142.581H314.574L314.962 118.657L326.709 100.469L314.993 116.859Z" fill="#ACABB0"/>
<path d="M80.5 141C87.9558 141 94 134.956 94 127.5C94 120.044 87.9558 114 80.5 114C73.0442 114 67 120.044 67 127.5C67 134.956 73.0442 141 80.5 141Z" fill="#2F2E41"/>
<path fill-rule="evenodd" clip-rule="evenodd" d="M73.745 138.157L77.895 138.206L77.807 145.603L73.657 145.554L73.745 138.157ZM82.044 138.254L86.194 138.303L86.107 145.7L81.957 145.651L82.044 138.254Z" fill="#2F2E41"/>
<path d="M80.5728 145.721C80.5812 145.008 79.0399 144.413 77.1302 144.39C75.2206 144.368 73.6657 144.927 73.6573 145.639C73.6489 146.352 75.1902 146.947 77.0999 146.97C79.0095 146.992 80.5644 146.433 80.5728 145.721Z" fill="#2F2E41"/>
<path d="M88.8738 145.647C88.8822 144.934 87.3409 144.339 85.4313 144.316C83.5216 144.294 81.9667 144.853 81.9583 145.565C81.9499 146.278 83.4912 146.873 85.4009 146.896C87.3105 146.918 88.8654 146.359 88.8738 145.647Z" fill="#2F2E41"/>
<path d="M80.5 129C82.9853 129 85 126.985 85 124.5C85 122.015 82.9853 120 80.5 120C78.0147 120 76 122.015 76 124.5C76 126.985 78.0147 129 80.5 129Z" fill="white"/>
<path d="M80.5 126C81.3284 126 82 125.328 82 124.5C82 123.672 81.3284 123 80.5 123C79.6716 123 79 123.672 79 124.5C79 125.328 79.6716 126 80.5 126Z" fill="#3F3D56"/>
<path fill-rule="evenodd" clip-rule="evenodd" d="M67.1799 114.544C66.1429 109.484 69.6999 104.426 75.1239 103.247C80.5479 102.069 85.7859 105.217 86.8219 110.277C87.8589 115.337 84.2519 117.156 78.8279 118.334C73.4039 119.513 68.2159 119.605 67.1799 114.544Z" fill="#17C9B2"/>
<path fill-rule="evenodd" clip-rule="evenodd" d="M105 135.333C105 144.722 99.404 148 92.5 148C92.0233 147.999 91.5467 147.983 91.071 147.951C84.841 147.511 80 144.065 80 135.333C80 126.296 91.578 114.894 92.448 114.05L92.45 114.049L92.5 114C92.5 114 105 125.944 105 135.333Z" fill="#9AAFFF"/>
<path fill-rule="evenodd" clip-rule="evenodd" d="M92.273 146.569L97.072 140.197L92.262 147.268L92.249 148C91.9164 147.993 91.584 147.979 91.252 147.957L91.769 138.562L91.765 138.489L91.774 138.475L91.823 137.588L87 130.498L91.838 136.922L91.848 137.111L92.24 130.012L88.111 122.687L92.291 128.767L92.697 114.05L92.699 114V114.049L92.631 125.653L96.741 121.053L92.614 126.653L92.505 133.009L96.343 126.909L92.489 133.944L92.429 137.477L98 128.987L92.408 138.71L92.273 146.569Z" fill="#3F3D56"/>
<path d="M82.2358 134.32C82.6745 133.226 80.1934 131.201 76.6942 129.799C73.1949 128.396 70.0025 128.146 69.5639 129.241C69.1252 130.335 71.6062 132.36 75.1055 133.762C78.6048 135.165 81.7971 135.414 82.2358 134.32Z" fill="#2F2E41"/>
<path fill-rule="evenodd" clip-rule="evenodd" d="M177.325 58H121.675C121.302 58 121 57.776 121 57.5C121 57.224 121.302 57 121.675 57H177.325C177.698 57 178 57.224 178 57.5C178 57.776 177.698 58 177.325 58ZM177.325 73H121.675C121.302 73 121 72.776 121 72.5C121 72.224 121.302 72 121.675 72H177.325C177.698 72 178 72.224 178 72.5C178 72.776 177.698 73 177.325 73ZM177.323 80H121.677C121.435 80 121.212 79.905 121.091 79.75C121.032 79.6799 121 79.5914 121 79.5C121 79.4086 121.032 79.3201 121.091 79.25C121.211 79.095 121.435 79 121.677 79H177.323C177.565 79 177.788 79.095 177.909 79.25C177.968 79.3201 178 79.4086 178 79.5C178 79.5914 177.968 79.6799 177.909 79.75C177.789 79.905 177.565 80 177.323 80ZM201.336 73H185.664C185.297 73 185 72.776 185 72.5C185 72.224 185.297 72 185.664 72H201.336C201.703 72 202 72.224 202 72.5C202 72.776 201.703 73 201.336 73ZM201.336 80H185.664C185.297 80 185 79.776 185 79.5C185 79.224 185.297 79 185.664 79H201.336C201.703 79 202 79.224 202 79.5C202 79.776 201.703 80 201.336 80ZM227.336 73H211.664C211.297 73 211 72.776 211 72.5C211 72.224 211.297 72 211.664 72H227.336C227.703 72 228 72.224 228 72.5C228 72.776 227.703 73 227.336 73ZM238.324 65H150.676C150.303 65 150 64.776 150 64.5C150 64.224 150.303 64 150.676 64H238.324C238.697 64 239 64.224 239 64.5C239 64.776 238.697 65 238.324 65ZM137.336 65H121.664C121.297 65 121 64.776 121 64.5C121 64.224 121.297 64 121.664 64H137.336C137.703 64 138 64.224 138 64.5C138 64.776 137.703 65 137.336 65ZM238.324 88H150.678C150.436 88 150.212 87.905 150.091 87.75C150.032 87.6799 150 87.5914 150 87.5C150 87.4086 150.032 87.3201 150.091 87.25C150.212 87.095 150.436 87 150.678 87H238.324C238.697 87 239 87.224 239 87.5C239 87.776 238.697 88 238.324 88ZM137.335 88H121.665C121.428 88 121.208 87.905 121.089 87.75C121.031 87.6794 121 87.5911 121 87.5C121 87.4089 121.031 87.3206 121.089 87.25C121.209 87.095 121.428 87 121.665 87H137.335C137.572 87 137.792 87.095 137.911 87.25C137.968 87.3206 138 87.4089 138 87.5C138 87.5911 137.968 87.6794 137.911 87.75C137.791 87.905 137.572 88 137.335 88Z" fill="#65A300"/>
<path fill-rule="evenodd" clip-rule="evenodd" d="M155.62 0L141 14.5L155.62 29L158.909 25.696L147.853 14.592L159 3.395L155.62 0ZM211.38 0L226 14.5L211.38 29L208.091 25.696L219.147 14.592L208 3.395L211.38 0Z" fill="#65A300"/>
<path d="M292.5 139C299.404 139 305 133.404 305 126.5C305 119.596 299.404 114 292.5 114C285.596 114 280 119.596 280 126.5C280 133.404 285.596 139 292.5 139Z" fill="#2F2E41"/>
<path fill-rule="evenodd" clip-rule="evenodd" d="M290.464 136.913L294.058 135.815L296.036 142.215L292.443 143.312L290.464 136.913ZM297.65 134.718L301.244 133.62L303.222 140.02L299.629 141.118L297.65 134.718Z" fill="#2F2E41"/>
<path d="M295.803 143.588C297.456 143.08 298.642 142.169 298.453 141.552C298.263 140.936 296.77 140.848 295.117 141.356C293.464 141.863 292.278 142.775 292.467 143.392C292.657 144.008 294.15 144.096 295.803 143.588Z" fill="#2F2E41"/>
<path d="M302.944 141.244C304.597 140.736 305.783 139.825 305.594 139.208C305.404 138.591 303.911 138.503 302.258 139.011C300.605 139.519 299.419 140.431 299.608 141.047C299.797 141.664 301.291 141.752 302.944 141.244Z" fill="#2F2E41"/>
<path d="M292 127C294.209 127 296 125.209 296 123C296 120.791 294.209 119 292 119C289.791 119 288 120.791 288 123C288 125.209 289.791 127 292 127Z" fill="white"/>
<path d="M292.5 125C293.328 125 294 124.328 294 123.5C294 122.672 293.328 122 292.5 122C291.672 122 291 122.672 291 123.5C291 124.328 291.672 125 292.5 125Z" fill="#3F3D56"/>
<path fill-rule="evenodd" clip-rule="evenodd" d="M278.014 118.634C275.713 114.779 277.46 109.69 281.92 107.266C286.378 104.843 291.857 106.002 294.158 109.856C296.459 113.711 293.778 116.167 289.32 118.591C284.862 121.015 280.315 122.488 278.014 118.634V118.634Z" fill="#17C9B2"/>
<path fill-rule="evenodd" clip-rule="evenodd" d="M312 134.45C312 143.012 306.852 146 300.5 146C300.062 146 299.623 145.985 299.186 145.956C293.453 145.555 289 142.412 289 134.45C289 126.21 299.652 115.814 300.452 115.045L300.454 115.043L300.5 115C300.5 115 312 125.89 312 134.45Z" fill="#9AAFFF"/>
<path fill-rule="evenodd" clip-rule="evenodd" d="M300.794 144.695L305.156 138.885L300.783 145.333L300.771 146C300.469 145.993 300.167 145.98 299.865 145.96L300.335 137.395L300.332 137.328L300.34 137.316L300.384 136.506L296 130.044L300.398 135.901L300.408 136.073L300.763 129.601L297.01 122.921L300.81 128.465L301.18 115.047V115V115.044L301.119 125.625L304.855 121.431L301.104 126.537L301.004 132.331L304.494 126.771L300.99 133.184L300.935 136.405L306 128.665L300.916 137.53L300.794 144.695Z" fill="#3F3D56"/>
<path d="M293.781 133.414C294.238 132.45 292.109 130.482 289.025 129.019C285.942 127.557 283.071 127.153 282.613 128.118C282.156 129.082 284.285 131.05 287.369 132.513C290.453 133.975 293.323 134.379 293.781 133.414Z" fill="#2F2E41"/>
<defs>
<linearGradient id="paint0_linear" x1="180" y1="134" x2="180" y2="151" gradientUnits="userSpaceOnUse">
<stop stop-color="#E7E7E7"/>
<stop offset="1" stop-color="#F0F1F2"/>
</linearGradient>
</defs>
</svg>
