<svg xmlns="http://www.w3.org/2000/svg" width="360" height="151" viewBox="0 0 360 151">
    <defs>
        <linearGradient id="a" x1="50%" x2="50%" y1="0%" y2="100%">
            <stop offset="0%" stop-color="#E7E7E7"/>
            <stop offset="100%" stop-color="#F0F1F2"/>
        </linearGradient>
    </defs>
    <g fill="none" fill-rule="evenodd">
        <path fill="url(#a)" d="M0 134h360v17H0z"/>
        <g transform="translate(33 31)">
            <circle cx="14" cy="17" r="10" fill="#FF6584"/>
            <path fill="#E6E6E7" d="M63 54.96C63 78.708 48.897 87 31.5 87S0 78.708 0 54.96C0 31.212 31.5 1 31.5 1S63 31.212 63 54.96z"/>
            <path fill="#3F3D56" d="M30.944 82.628l.33-19.938L45 38.024 31.325 59.562l.149-8.965 9.46-17.845-9.421 15.473.266-16.124 10.13-14.208-10.088 11.672L31.988 0l-1.047 39.14.086-1.615-10.3-15.485 10.135 18.584-.96 18.008-.028-.478L18 41.858l11.838 17.984-.12 2.252-.022.034.01.185L27.27 108h3.253l.39-23.598 11.809-17.94z"/>
        </g>
        <path fill="#E6E6E7" d="M348.195 87.968c0 24.152-14.343 32.585-32.035 32.585-17.693 0-32.035-8.433-32.035-32.585S316.16 33.09 316.16 33.09s32.035 30.726 32.035 54.878z"/>
        <path fill="#ACABB0" d="M314.993 116.859l.328-20.213 13.654-25.007-13.603 21.836.148-9.089 9.41-18.092-9.371 15.687.265-16.347L325.9 51.231l-10.036 11.833.166-29.974-1.041 39.68.085-1.637-10.245-15.699 10.081 18.841-.955 18.257-.028-.485-11.81-16.52 11.774 18.232-.12 2.283-.02.034.01.188-2.423 46.317h3.236l.388-23.924 11.747-18.188z"/>
        <g transform="translate(67 103)">
            <circle cx="13.5" cy="24.5" r="13.5" fill="#2F2E41"/>
            <path fill="#2F2E41" d="M6.745 35.157l4.15.049-.088 7.397-4.15-.049zM15.044 35.254l4.15.049-.087 7.397-4.15-.049z"/>
            <ellipse cx="10.114" cy="42.681" fill="#2F2E41" rx="1.29" ry="3.458" transform="rotate(-89.325 10.114 42.68)"/>
            <ellipse cx="18.416" cy="42.606" fill="#2F2E41" rx="1.29" ry="3.458" transform="rotate(-89.325 18.416 42.606)"/>
            <circle cx="13.5" cy="21.5" r="4.5" fill="#FFF"/>
            <circle cx="13.5" cy="21.5" r="1.5" fill="#3F3D56"/>
            <path fill="#17C9B2" d="M.18 11.544C-.857 6.484 2.7 1.426 8.124.247c5.424-1.178 10.662 1.97 11.698 7.03 1.037 5.06-2.57 6.879-7.994 8.057C6.404 16.513 1.216 16.605.18 11.544z"/>
            <path fill="#9AAFFF" d="M38 32.333C38 41.722 32.404 45 25.5 45a21.543 21.543 0 0 1-1.429-.049C17.841 44.511 13 41.065 13 32.333c0-9.037 11.578-20.439 12.448-21.283l.002-.001.05-.049S38 22.944 38 32.333z"/>
            <path fill="#3F3D56" d="M25.273 43.569l4.799-6.372-4.81 7.071-.013.732a22.517 22.517 0 0 1-.997-.043l.517-9.395-.004-.073.009-.014.049-.887L20 27.498l4.838 6.424.01.189.392-7.099-4.129-7.325 4.18 6.08.406-14.717.002-.05v.049l-.068 11.604 4.11-4.6-4.127 5.6-.109 6.356 3.838-6.1-3.854 7.035-.06 3.533L31 25.987l-5.592 9.723-.135 7.859z"/>
            <ellipse cx="8.899" cy="28.781" fill="#2F2E41" rx="2.135" ry="6.826" transform="rotate(-68.158 8.899 28.78)"/>
        </g>
        <path fill="#37CC9A" d="M177.325 58h-55.65c-.373 0-.675-.224-.675-.5s.302-.5.675-.5h55.65c.373 0 .675.224.675.5s-.302.5-.675.5zM177.325 73h-55.65c-.373 0-.675-.224-.675-.5s.302-.5.675-.5h55.65c.373 0 .675.224.675.5s-.302.5-.675.5zM177.323 80h-55.646c-.242 0-.465-.095-.586-.25a.39.39 0 0 1 0-.5c.12-.155.344-.25.586-.25h55.646c.242 0 .465.095.586.25a.39.39 0 0 1 0 .5c-.12.155-.344.25-.586.25zM201.336 73h-15.672c-.367 0-.664-.224-.664-.5s.297-.5.664-.5h15.672c.367 0 .664.224.664.5s-.297.5-.664.5zM201.336 80h-15.672c-.367 0-.664-.224-.664-.5s.297-.5.664-.5h15.672c.367 0 .664.224.664.5s-.297.5-.664.5zM227.336 73h-15.672c-.367 0-.664-.224-.664-.5s.297-.5.664-.5h15.672c.367 0 .664.224.664.5s-.297.5-.664.5zM238.324 65h-87.648c-.373 0-.676-.224-.676-.5s.303-.5.676-.5h87.648c.373 0 .676.224.676.5s-.303.5-.676.5zM137.336 65h-15.672c-.367 0-.664-.224-.664-.5s.297-.5.664-.5h15.672c.367 0 .664.224.664.5s-.297.5-.664.5zM238.324 88h-87.646c-.242 0-.466-.095-.587-.25a.39.39 0 0 1 0-.5c.121-.155.345-.25.587-.25h87.646c.373 0 .676.224.676.5s-.303.5-.676.5zM137.335 88h-15.67c-.237 0-.457-.095-.576-.25a.396.396 0 0 1 0-.5c.12-.155.339-.25.576-.25h15.67c.237 0 .457.095.576.25a.396.396 0 0 1 0 .5c-.12.155-.339.25-.576.25z"/>
        <path fill="#17C9B2" d="M155.62 0L141 14.5 155.62 29l3.289-3.304-11.056-11.104L159 3.395zM211.38 0L226 14.5 211.38 29l-3.289-3.304 11.056-11.104L208 3.395z"/>
        <g transform="translate(277 106)">
            <circle cx="15.5" cy="20.5" r="12.5" fill="#2F2E41"/>
            <path fill="#2F2E41" d="M13.464 30.913l3.594-1.098 1.978 6.4-3.593 1.097zM20.65 28.718l3.594-1.098 1.978 6.4-3.593 1.098z"/>
            <ellipse cx="18.46" cy="36.472" fill="#2F2E41" rx="3.131" ry="1.168" transform="rotate(-17.083 18.46 36.472)"/>
            <ellipse cx="25.601" cy="34.128" fill="#2F2E41" rx="3.131" ry="1.168" transform="rotate(-17.083 25.6 34.128)"/>
            <circle cx="15" cy="17" r="4" fill="#FFF"/>
            <circle cx="15.5" cy="17.5" r="1.5" fill="#3F3D56"/>
            <path fill="#17C9B2" d="M1.014 12.634C-1.287 8.779.46 3.69 4.92 1.266c4.458-2.423 9.937-1.264 12.238 2.59 2.301 3.855-.38 6.311-4.838 8.735-4.458 2.424-9.005 3.897-11.306.043z"/>
            <path fill="#9AAFFF" d="M35 28.45C35 37.012 29.852 40 23.5 40a19.999 19.999 0 0 1-1.314-.044C16.453 39.555 12 36.412 12 28.45c0-8.24 10.652-18.636 11.452-19.405l.002-.002L23.5 9S35 19.89 35 28.45z"/>
            <path fill="#3F3D56" d="M23.794 38.695l4.362-5.81-4.373 6.448-.012.667a20.41 20.41 0 0 1-.906-.04l.47-8.565-.003-.067.008-.012.044-.81L19 24.044l4.398 5.857.01.172.355-6.472-3.753-6.68 3.8 5.544.37-13.418V9v.044l-.061 10.581 3.736-4.194-3.751 5.106-.1 5.794 3.49-5.56-3.504 6.413-.055 3.221L29 22.665l-5.084 8.865-.122 7.165z"/>
            <ellipse cx="11.197" cy="24.766" fill="#2F2E41" rx="1.933" ry="6.18" transform="rotate(-64.626 11.197 24.766)"/>
        </g>
    </g>
</svg>
